<svg xmlns="http://www.w3.org/2000/svg" width="505.996" height="308.17" viewBox="0 0 505.996 308.17">
  <g id="_2" data-name="2" transform="translate(-23.414 -22.76)">
    <g id="Grupo_1094523" data-name="Grupo 1094523">
      <g id="Grupo_1094466" data-name="Grupo 1094466">
        <path id="Trazado_836130" data-name="Trazado 836130" d="M91.21,123a34.776,34.776,0,0,1,4.14,1.42L83.51,156.48l33.59-4.92A36,36,0,1,1,91.21,123Z" fill="#d1bbff"/>
        <path id="Trazado_836131" data-name="Trazado 836131" d="M121.28,148.38l-33.99,4.99,11.99-32.44A36.419,36.419,0,0,1,121.28,148.38Z" fill="#a6eaff"/>
      </g>
      <g id="Grupo_1094467" data-name="Grupo 1094467">
        <path id="Trazado_836132" data-name="Trazado 836132" d="M49.64,93.18h7.67v7.67a2,2,0,0,0,4,0V93.18h7.67a2,2,0,0,0,0-4H61.31V81.5a2,2,0,0,0-4,0v7.67H49.64a2.005,2.005,0,0,0,0,4.01Z" fill="#c4d0fe"/>
        <path id="Trazado_836133" data-name="Trazado 836133" d="M102.92,216.82h4.49v4.49a1.17,1.17,0,0,0,2.34,0v-4.49h4.49a1.17,1.17,0,0,0,0-2.34h-4.49v-4.49a1.17,1.17,0,0,0-2.34,0v4.49h-4.49a1.17,1.17,0,1,0,0,2.34Z" fill="#c4d0fe"/>
        <path id="Trazado_836134" data-name="Trazado 836134" d="M484.67,188.71h4.49v4.49a1.17,1.17,0,0,0,2.34,0v-4.49H496a1.17,1.17,0,1,0,0-2.34h-4.49v-4.49a1.17,1.17,0,0,0-2.34,0v4.49h-4.49a1.17,1.17,0,0,0-.01,2.34Z" fill="#d9e6ff"/>
        <path id="Trazado_836135" data-name="Trazado 836135" d="M496.37,172.2h3.51v3.51a.92.92,0,0,0,1.84,0V172.2h3.51a.92.92,0,1,0,0-1.84h-3.51v-3.51a.92.92,0,0,0-1.84,0v3.51h-3.51a.918.918,0,0,0-.92.92A.931.931,0,0,0,496.37,172.2Z" fill="#d9e6ff"/>
        <path id="Trazado_836136" data-name="Trazado 836136" d="M33.96,115h3.78v3.78a.99.99,0,0,0,1.98,0V115H43.5a.99.99,0,1,0,0-1.98H39.72v-3.78a.99.99,0,0,0-1.98,0v3.78H33.96a.99.99,0,1,0,0,1.98Z" fill="#c4d0fe"/>
        <path id="Trazado_836137" data-name="Trazado 836137" d="M452.91,123.53l-5.2,6.18,3.94,4.65a20.461,20.461,0,0,0-1.45,3.94l-5.97,1.02-.01,8.07,5.93,1.02a20.3,20.3,0,0,0,1.45,4.02l-3.87,4.54,5.19,6.2,5.14-3a20.819,20.819,0,0,0,3.74,2.17l-.06,5.92.23.04,7.73,1.39,2.01-5.6a20.582,20.582,0,0,0,4.26-.76l3.8,4.61,6.95-4.03-2.08-5.62a20.025,20.025,0,0,0,2.74-3.29l5.91,1.12,2.77-7.58-5.26-3.01a19.751,19.751,0,0,0,.01-4.21l5.25-2.97-2.75-7.6-6.01,1.08a21.038,21.038,0,0,0-2.69-3.19l2.12-5.71-6.99-4.05-2,2.4-1.9,2.3a18.385,18.385,0,0,0-1.98-.46c-.67-.12-1.41-.21-2.11-.27l-2.05-5.76-7.96,1.38-.01,6.07a21.118,21.118,0,0,0-3.6,2.07Zm19.37,8.37a11.9,11.9,0,0,1,4.33,1.69,11.9,11.9,0,0,1,3.64,16.42,11.909,11.909,0,0,1-12.1,5.31,13.03,13.03,0,0,1-1.63-.43,11.882,11.882,0,0,1,5.76-22.99Z" fill="#d1bbff"/>
        <path id="Trazado_836138" data-name="Trazado 836138" d="M97.6,38.88,88.58,51.36l8.12,8.29a39.668,39.668,0,0,0-2.19,7.71l-11.2,2.72,1.11,15.4,11.39,1.14a40.829,40.829,0,0,0,3.33,7.46l-6.74,9.17,10.73,11.09,9.37-6.44a39.445,39.445,0,0,0,7.42,3.61l.79,11.23.43.04,14.91,1.56,3.03-10.93a39.731,39.731,0,0,0,8.01-2.04l7.83,8.19,12.76-8.64-4.71-10.43a37.714,37.714,0,0,0,4.76-6.66l11.34,1.27,4.21-14.81-10.43-5.01a39.312,39.312,0,0,0-.62-8.03l9.59-6.41-6.29-14.08-11.25,2.86a40.244,40.244,0,0,0-5.58-5.72l3.25-11.16-13.88-6.53-3.46,4.85-3.33,4.67a37.859,37.859,0,0,0-3.82-.58,38.9,38.9,0,0,0-4.04-.21l-4.7-10.69L113.75,28l.81,11.65a40.34,40.34,0,0,0-6.55,4.44Zm38.12,9.24a28.308,28.308,0,0,1,3.97.74,26.788,26.788,0,0,1-9.48,52.58,26.485,26.485,0,0,1-3.74-.7,26.792,26.792,0,0,1,9.25-52.62Z" fill="#a6c5fe"/>
        <path id="Trazado_836139" data-name="Trazado 836139" d="M446.2,220.17l-5.68,11.97,8.18,5.73a32.373,32.373,0,0,0-.64,6.87l-9.08,4.1,3.37,12.85,9.85-.85a34.244,34.244,0,0,0,3.99,5.79l-4.27,8.82,10.84,7.71,6.92-6.93a33.939,33.939,0,0,0,6.83,1.89l2.42,9.44.37-.02,12.86-1.04.85-9.72a34.607,34.607,0,0,0,6.45-2.98l7.98,5.72,9.44-9.3-5.65-8.07a33.248,33.248,0,0,0,2.99-6.36l9.79-.73,1.24-13.21-9.61-2.58a32.905,32.905,0,0,0-1.73-6.69l7.12-6.91-7.56-10.94-9.1,4.23a34.7,34.7,0,0,0-5.6-3.95l1-9.95-12.81-3.54-2.17,4.65-2.06,4.45c-1.11-.01-2.22.01-3.34.11a33.951,33.951,0,0,0-3.47.45l-5.65-8.3-12.07,5.51,2.61,9.74a33.345,33.345,0,0,0-4.86,4.79Zm34.14,3.3a20.236,20.236,0,0,1,3.21.01,21.167,21.167,0,0,1,.22,42.17,21.6,21.6,0,0,1-3.01,0,21.166,21.166,0,0,1-.43-42.19Z" fill="#d1bbff"/>
      </g>
      <path id="Trazado_836140" data-name="Trazado 836140" d="M144.33,305.98H456.26c8.18,0,14.86-7.04,14.86-15.64V83.29c0-8.6-6.69-15.64-14.86-15.64H144.33c-8.18,0-14.86,7.04-14.86,15.64V290.34C129.47,298.94,136.15,305.98,144.33,305.98Z" fill="#005afd"/>
      <path id="Trazado_836141" data-name="Trazado 836141" d="M155.13,303.37H445.46c8.18,0,14.86-7.04,14.86-15.64V91.84c0-8.6-6.69-15.64-14.86-15.64H155.13c-8.18,0-14.86,7.04-14.86,15.64V287.73C140.27,296.33,146.96,303.37,155.13,303.37Z" fill="#f2f5ff"/>
      <path id="Trazado_836142" data-name="Trazado 836142" d="M78.77,322.02H462.02a9.054,9.054,0,0,0,8.79-9.24h0a9.048,9.048,0,0,0-8.79-9.24H78.77a9.054,9.054,0,0,0-8.79,9.24h0A9.061,9.061,0,0,0,78.77,322.02Z" fill="#005afd"/>
      <g id="Grupo_1094468" data-name="Grupo 1094468">
        <path id="Trazado_836143" data-name="Trazado 836143" d="M277.34,92.49v.73a6.275,6.275,0,0,1-2.26,4.72,8.389,8.389,0,0,1-5.46,1.96H169.22a8.336,8.336,0,0,1-5.46-1.96,6.242,6.242,0,0,1-2.26-4.72v-.73a6.242,6.242,0,0,1,2.26-4.72,8.389,8.389,0,0,1,5.46-1.96h100.4a8.336,8.336,0,0,1,5.46,1.96A6.226,6.226,0,0,1,277.34,92.49Z" fill="#d9e6ff"/>
        <path id="Trazado_836144" data-name="Trazado 836144" d="M277.34,112v.58a6.275,6.275,0,0,1-2.26,4.72,8.389,8.389,0,0,1-5.46,1.96H169.35a8.336,8.336,0,0,1-5.46-1.96,6.242,6.242,0,0,1-2.26-4.72V112a6.276,6.276,0,0,1,2.26-4.72,8.389,8.389,0,0,1,5.46-1.96h100.2a8.83,8.83,0,0,1,2.98.49,7.789,7.789,0,0,1,2.53,1.44,6.687,6.687,0,0,1,1.69,2.18A5.9,5.9,0,0,1,277.34,112Z" fill="#d9e6ff"/>
        <path id="Trazado_836145" data-name="Trazado 836145" d="M277.34,131.02v.67a6.275,6.275,0,0,1-2.26,4.72,8.389,8.389,0,0,1-5.46,1.96H169.35a8.336,8.336,0,0,1-5.46-1.96,6.242,6.242,0,0,1-2.26-4.72v-.58a6.275,6.275,0,0,1,2.26-4.72,8.389,8.389,0,0,1,5.46-1.96h100.2a8.406,8.406,0,0,1,5.47,1.9A6.282,6.282,0,0,1,277.34,131.02Z" fill="#d9e6ff"/>
      </g>
      <g id="Grupo_1094469" data-name="Grupo 1094469">
        <path id="Trazado_836146" data-name="Trazado 836146" d="M345.68,79.3h-.4a5.2,5.2,0,0,0-3.44,1.26,4.092,4.092,0,0,0-1.42,3.05V114.9a4.092,4.092,0,0,0,1.42,3.05,5.185,5.185,0,0,0,3.44,1.26h.4a5.211,5.211,0,0,0,3.43-1.26,4.092,4.092,0,0,0,1.42-3.05V83.62a4.076,4.076,0,0,0-1.42-3.05A5.149,5.149,0,0,0,345.68,79.3Z" fill="#d9e6ff"/>
        <path id="Trazado_836147" data-name="Trazado 836147" d="M331.74,96.84h-.4a5.159,5.159,0,0,0-3.43,1.26,4.092,4.092,0,0,0-1.42,3.05v13.8a4.092,4.092,0,0,0,1.42,3.05,5.178,5.178,0,0,0,3.43,1.26h.4a5.256,5.256,0,0,0,3.44-1.26,4.092,4.092,0,0,0,1.42-3.05V101.13a4.118,4.118,0,0,0-1.43-3.04A5.2,5.2,0,0,0,331.74,96.84Z" fill="#d9e6ff"/>
        <path id="Trazado_836148" data-name="Trazado 836148" d="M317.72,105.39h-.41a5.159,5.159,0,0,0-3.43,1.26,4.092,4.092,0,0,0-1.42,3.05v5.22a4.092,4.092,0,0,0,1.42,3.05,5.178,5.178,0,0,0,3.43,1.26h.41a5.159,5.159,0,0,0,3.43-1.26,4.092,4.092,0,0,0,1.42-3.05V109.7a4.092,4.092,0,0,0-1.42-3.05A5.191,5.191,0,0,0,317.72,105.39Z" fill="#d9e6ff"/>
        <path id="Trazado_836149" data-name="Trazado 836149" d="M351.52,97.74,346,98.76l1.48,1.19-6.16,5.23H330.7l-11.5,12h-5.58v2.22h6.74l11.49-12.01h10.46l7.01-5.94,1.56,1.26Z" fill="#ff2c60"/>
      </g>
      <g id="Grupo_1094471" data-name="Grupo 1094471">
        <path id="Trazado_836150" data-name="Trazado 836150" d="M115.06,248.59h-.4a5.2,5.2,0,0,0-3.44,1.26,4.092,4.092,0,0,0-1.42,3.05v31.29a4.092,4.092,0,0,0,1.42,3.05,5.185,5.185,0,0,0,3.44,1.26h.4a5.21,5.21,0,0,0,3.43-1.26,4.092,4.092,0,0,0,1.42-3.05V252.9a4.076,4.076,0,0,0-1.42-3.05A5.211,5.211,0,0,0,115.06,248.59Z" fill="#d3dfff"/>
        <path id="Trazado_836151" data-name="Trazado 836151" d="M101.12,266.13h-.4a5.159,5.159,0,0,0-3.43,1.26,4.092,4.092,0,0,0-1.42,3.05v13.8a4.092,4.092,0,0,0,1.42,3.05,5.178,5.178,0,0,0,3.43,1.26h.4a5.256,5.256,0,0,0,3.44-1.26,4.092,4.092,0,0,0,1.42-3.05V270.42a4.118,4.118,0,0,0-1.43-3.04A5.241,5.241,0,0,0,101.12,266.13Z" fill="#d3dfff"/>
        <path id="Trazado_836152" data-name="Trazado 836152" d="M87.1,274.68h-.41a5.159,5.159,0,0,0-3.43,1.26,4.092,4.092,0,0,0-1.42,3.05v5.22a4.092,4.092,0,0,0,1.42,3.05,5.178,5.178,0,0,0,3.43,1.26h.41a5.159,5.159,0,0,0,3.43-1.26,4.092,4.092,0,0,0,1.42-3.05V279a4.092,4.092,0,0,0-1.42-3.05A5.168,5.168,0,0,0,87.1,274.68Z" fill="#d3dfff"/>
        <g id="Grupo_1094470" data-name="Grupo 1094470">
          <path id="Trazado_836153" data-name="Trazado 836153" d="M120.25,272l-4.87-3.96,5.51-1.02Z" fill="#ff5475"/>
          <path id="Trazado_836154" data-name="Trazado 836154" d="M89.73,288.69H82.99v-2.22h5.59l11.49-12.01h10.62l8.14-6.9,1.72,1.61-8.86,7.51H101.23Z" fill="#ff5475"/>
        </g>
      </g>
      <g id="Grupo_1094472" data-name="Grupo 1094472">
        <path id="Trazado_836155" data-name="Trazado 836155" d="M221.31,255.03H192.88a12.035,12.035,0,0,1-12-12V188.88a12.035,12.035,0,0,1,12-12h28.43a12.035,12.035,0,0,1,12,12v54.15A12.035,12.035,0,0,1,221.31,255.03Z" fill="#83dbda"/>
        <path id="Trazado_836156" data-name="Trazado 836156" d="M283.42,255.03H254.99a12.035,12.035,0,0,1-12-12V154.31a12.035,12.035,0,0,1,12-12h28.43a12.035,12.035,0,0,1,12,12v88.72A12.035,12.035,0,0,1,283.42,255.03Z" fill="#83dbda"/>
        <path id="Trazado_836157" data-name="Trazado 836157" d="M347.05,255.03H318.62a12.035,12.035,0,0,1-12-12V138.26a12.035,12.035,0,0,1,12-12h28.43a12.035,12.035,0,0,1,12,12V243.03A12.035,12.035,0,0,1,347.05,255.03Z" fill="#83dbda"/>
        <path id="Trazado_836158" data-name="Trazado 836158" d="M413.74,255.03H385.3a12.035,12.035,0,0,1-12-12V99.89a12.035,12.035,0,0,1,12-12h28.43a12.035,12.035,0,0,1,12,12V243.03A12.02,12.02,0,0,1,413.74,255.03Z" fill="#83dbda"/>
      </g>
      <g id="Grupo_1094473" data-name="Grupo 1094473">
        <path id="Trazado_836159" data-name="Trazado 836159" d="M402.24,144.63l-34.12-29.99,38.6-7.73Z" fill="#ff2c60"/>
        <path id="Trazado_836160" data-name="Trazado 836160" d="M202.87,253.48H178.89l80.4-90.14h74.26l56.95-52.35,12.04,12.16-62,56.99H267.36Z" fill="#ff2c60"/>
      </g>
      <g id="Grupo_1094485" data-name="Grupo 1094485">
        <g id="Grupo_1094484" data-name="Grupo 1094484">
          <g id="Grupo_1094477" data-name="Grupo 1094477">
            <path id="Trazado_836161" data-name="Trazado 836161" d="M348.6,315.77c1.72,6.68,1.78,9.06,1.66,9.89a.525.525,0,0,1-.51.43l-14.51.03a.516.516,0,0,1-.51-.41l-.64-3.21a.5.5,0,0,1,.25-.53c3.75-2.11,4.96-3.88,5.35-4.82a1.189,1.189,0,0,1,1.1-.71h0a.506.506,0,0,1,.52.5v.88c0,.38,1.28.34,1.62.16l3.76-2.35a.749.749,0,0,1,.16-.05l1.17-.19A.512.512,0,0,1,348.6,315.77Z" fill="#d1385c"/>
            <path id="Trazado_836162" data-name="Trazado 836162" d="M326.35,326.32a5.346,5.346,0,0,1,4.31-3.79c3.53-.57,3.73-.39,3.73-.39l1.01,3.97Z" fill="#fff"/>
            <path id="Trazado_836163" data-name="Trazado 836163" d="M350.03,327.78l-23.18.05a.878.878,0,0,1-.89-.85h0a.863.863,0,0,1,.88-.85l23.18-.05a.878.878,0,0,1,.89.85h0A.863.863,0,0,1,350.03,327.78Z" fill="#fff"/>
            <g id="Grupo_1094474" data-name="Grupo 1094474">
              <path id="Trazado_836164" data-name="Trazado 836164" d="M335.97,321.22a.31.31,0,0,1,0-.62h1.96a.31.31,0,0,1,0,.62Z" fill="#fff"/>
            </g>
            <g id="Grupo_1094475" data-name="Grupo 1094475">
              <path id="Trazado_836165" data-name="Trazado 836165" d="M336.95,320.07a.31.31,0,1,1,0-.62h1.96a.31.31,0,1,1,0,.62Z" fill="#fff"/>
            </g>
            <g id="Grupo_1094476" data-name="Grupo 1094476">
              <path id="Trazado_836166" data-name="Trazado 836166" d="M337.93,318.94a.31.31,0,0,1,0-.62h1.96a.31.31,0,0,1,0,.62Z" fill="#fff"/>
            </g>
          </g>
          <g id="Grupo_1094481" data-name="Grupo 1094481">
            <path id="Trazado_836167" data-name="Trazado 836167" d="M362.66,327.93a4.436,4.436,0,0,0,0,1.72c.2.76,8.74,2.47,13.7-.03l.06-2.8C376.43,326.83,369.42,330.02,362.66,327.93Z" fill="#fff"/>
            <path id="Trazado_836168" data-name="Trazado 836168" d="M363.06,326.79s3.73-4.59,4.58-8.87a1.672,1.672,0,0,1,1.64-1.33l4.42-.01a1.361,1.361,0,0,1,1.34,1.09c.51,2.47,1.67,8.38,1.31,9.85C375.85,329.6,362.06,327.32,363.06,326.79Z" fill="#d1385c"/>
            <path id="Trazado_836169" data-name="Trazado 836169" d="M362.66,327.93s-.01-3.06,6.15-3.26,7.35,1.9,7.55,3.23C376.36,327.91,368.03,330.41,362.66,327.93Z" fill="#fff"/>
            <g id="Grupo_1094478" data-name="Grupo 1094478">
              <path id="Trazado_836170" data-name="Trazado 836170" d="M373.97,321.15a.277.277,0,0,1-.09-.01l-5.76-1.71a.307.307,0,0,1,.17-.59l5.76,1.71a.306.306,0,0,1-.08.6Z" fill="#fff"/>
            </g>
            <g id="Grupo_1094479" data-name="Grupo 1094479">
              <path id="Trazado_836171" data-name="Trazado 836171" d="M373.97,321.91h-.02l-6.15-.37a.309.309,0,0,1-.29-.32.317.317,0,0,1,.32-.29l6.15.37a.309.309,0,0,1,.29.32A.3.3,0,0,1,373.97,321.91Z" fill="#fff"/>
            </g>
            <g id="Grupo_1094480" data-name="Grupo 1094480">
              <path id="Trazado_836172" data-name="Trazado 836172" d="M367.82,323.07a.31.31,0,1,1,0-.62l5.96-.01h0a.31.31,0,1,1,0,.62l-5.96.01Z" fill="#fff"/>
            </g>
          </g>
          <path id="Trazado_836173" data-name="Trazado 836173" d="M336.76,229.81s.81,36.39,1.44,42.52,2.08,33.69,2.03,39.31v3.08s5.28,2.52,8.97,0c0,0,2.89-21.82,1.44-32.64l.89-.85-.88-1.08.88-2.54-.74-2.13s1.66-14.74,2.47-23.44l2,1.26,6.03,22.01s.9,3.92,2.53,8.93,3.88,28.82,3.88,28.82,1.53,1.99,8.57.68c0,0,2.44-19.75-1.8-34.37l-.09-4.15-1.53-.81.63-2.53-.81-1.53s1.58-32.15-1.85-40.32Z" fill="#434f97"/>
          <g id="Grupo_1094482" data-name="Grupo 1094482">
            <path id="Trazado_836174" data-name="Trazado 836174" d="M375.23,314.01l-.6-.11c2.92-16.23-1.79-34.34-1.84-34.52l-.01-.08v-3.16l-1.58-1.17.48-2.76-1.02-1.39-.11-3.72v-.02c.71-8.8-2.49-35.53-2.52-35.8l.61-.07c.03.27,3.24,27.03,2.53,35.9l.1,3.5,1.07,1.45-.46,2.65,1.53,1.13v3.43C373.64,280.22,378.11,298,375.23,314.01Z" fill="#272c6a"/>
          </g>
          <g id="Grupo_1094483" data-name="Grupo 1094483">
            <path id="Trazado_836175" data-name="Trazado 836175" d="M347.85,315.58l-.59-.16c2.64-10.11,1.85-33.11,1.84-33.34V282l.44-.82-.53-1.12.75-2.31-1.05-2.49,2.59-24.93,4.13,2.71-.34.51-3.29-2.16-2.47,23.78,1.07,2.56-.74,2.29.56,1.18-.51.94C349.77,283.68,350.44,305.69,347.85,315.58Z" fill="#272c6a"/>
          </g>
          <path id="Trazado_836176" data-name="Trazado 836176" d="M340.23,311.97s-.62-.03-.6.95-.27,3.84,0,4.36,4.56,2.78,9.18.29a1.111,1.111,0,0,0,.57-.82l.54-4.25a.5.5,0,0,0-.65-.55C347.47,312.47,342.88,313.57,340.23,311.97Z" fill="#5665c2"/>
          <path id="Trazado_836177" data-name="Trazado 836177" d="M367.63,312.49s-.62-.03-.6.95-.27,3.84,0,4.36,4.56,2.78,9.18.29a1.111,1.111,0,0,0,.57-.82l.54-4.25a.5.5,0,0,0-.65-.55C374.87,312.98,370.27,314.08,367.63,312.49Z" fill="#5665c2"/>
          <path id="Trazado_836178" data-name="Trazado 836178" d="M308.27,146.08c-2.27-3.3-3.17-1.46-3.17-1.46s-5.85-3.3-6.61-1.97a3.464,3.464,0,0,0-.33,1.08c.75.97,2.13,2.57,3.06,2.76a9.971,9.971,0,0,1-3.01-.3,7.794,7.794,0,0,0,.22.83,2.589,2.589,0,0,0,1.83.91l1.34.44a26.786,26.786,0,0,0,.99,4.23h0c1.05,1.33,2.4,3.46,3.86,4.01a5.526,5.526,0,0,1,2.62,1.8l2.04-2.17C311.1,156.23,310.54,149.38,308.27,146.08Z" fill="#e88981"/>
          <path id="Trazado_836179" data-name="Trazado 836179" d="M318.83,182.27,306.44,156.6l4.05-4.01,14.74,19.28Z" fill="#ffac9e"/>
          <path id="Trazado_836180" data-name="Trazado 836180" d="M347.66,191.6l4.06-18.45-20.03,3.99-6.82-5.47-7.65,9.29,9.07,8.68Z" fill="#005afd"/>
          <path id="Trazado_836181" data-name="Trazado 836181" d="M318.6,182.28l8.87,5.51,16.77-1.04-1.45,4.4-16.5-1.51Z" fill="#0046cc"/>
          <path id="Trazado_836182" data-name="Trazado 836182" d="M325.4,169.78l3.75,1.54-11.7,12.32-3.09-4.97Z" fill="#5478ff"/>
          <path id="Trazado_836183" data-name="Trazado 836183" d="M348.1,175.23s-2.73,8.39,8.81,8.39,13.84-7.13,13.84-7.13S362.36,170.61,348.1,175.23Z" fill="#ffac9e"/>
          <path id="Trazado_836184" data-name="Trazado 836184" d="M336.57,234.15s5.87,6.71,18.66,3.77l1.89,6.08s8.64-13,12.29-15.94l.08-2.1s-17.27,8.53-32.29,4.19Z" fill="#272c6a"/>
          <path id="Trazado_836185" data-name="Trazado 836185" d="M336.36,229.54s.92,5.98,8.39,7.13c8.18,1.26,12.79-1.47,17.2-5.66s5.66-2.94,5.66-2.94,7.2-48.8.24-52.28c0,0-4.65,6.78-12.2,5.52s-5.24-5.87-7.13-4.61S334.05,215.07,336.36,229.54Z" fill="#fff"/>
          <path id="Trazado_836186" data-name="Trazado 836186" d="M369.11,173.57s-9.11-1.79-14.56-1.58S343.9,179,343.9,179s-9.65,17.41-12.58,58.93l5.87-5.24s-.42-14.05,4.19-32.92,5.87-18.87,6.92-20.34c.82-1.15,3.56-3.36,4.61-3.56,4.16-.83,14.92.56,14.92.56Z" fill="#005afd"/>
          <path id="Trazado_836187" data-name="Trazado 836187" d="M354.03,144.55s-4.06-.29-4.98,4.46c-.64,3.3,2.68,5.13,2.68,5.13Z" fill="#ff5475"/>
          <path id="Trazado_836188" data-name="Trazado 836188" d="M359.22,180.26h0a5.463,5.463,0,0,1-5.45-5.45v-7.97a5.463,5.463,0,0,1,5.45-5.45h0a5.463,5.463,0,0,1,5.45,5.45v7.97A5.463,5.463,0,0,1,359.22,180.26Z" fill="#ffac9e"/>
          <path id="Trazado_836189" data-name="Trazado 836189" d="M364.67,165.81a5.219,5.219,0,0,1-4.4,4.81c-2.94.63-4.82,1.05-4.82,1.05l-.84,5.45-4.75.73a6.065,6.065,0,0,1,3.91-2.12v-6.15Z" fill="#e07972"/>
          <path id="Trazado_836190" data-name="Trazado 836190" d="M358.1,170.17l-3.43-.35c-4.12-.09-7.52-1.68-6.28-6.91l4.6-17.68,17.55,5.71-5.45,15.32C364.4,168.35,362.33,170.44,358.1,170.17Z" fill="#ffac9e"/>
          <path id="Trazado_836191" data-name="Trazado 836191" d="M368.32,149.51s-1.87,1.21-1.21,5.76a9.438,9.438,0,0,0-.49,4c.17,2.44,2.42,3.74,4.32,1.67s.58-3.54.58-3.54,3.25-1.47,3.11-4.78S370.54,147.09,368.32,149.51Z" fill="#5e1212"/>
          <path id="Trazado_836192" data-name="Trazado 836192" d="M351.29,151.73l1.56-2.28a3.541,3.541,0,0,0,3.43.98,8.671,8.671,0,0,0,5.33,1.96,10.511,10.511,0,0,0,5.71-1.68l-9.92-3.07-4.41-1.88-.46.97Z" fill="#e07972"/>
          <path id="Trazado_836193" data-name="Trazado 836193" d="M365.51,181.73l.76-2.46,2.85-5.7,2.69,2.28s4.82,3.15,6.08,4.61S372.65,205,372.65,205s-2.31,18.24-1.68,20.97c0,0-9.44,7.76-13.21,15.52C357.75,241.49,353.55,212.34,365.51,181.73Z" fill="#005afd"/>
          <path id="Trazado_836194" data-name="Trazado 836194" d="M365.27,134.24s-10.08-1.35-10.43,9.02,14.46,7.4,14.46,7.4,3.87-4.44,3-7.43c-1.32-4.52-6.28-3.98-7.35-2.54,0,0,2.42-3.89-.46-4.49s-5.65,1.44-6.91,4.35C357.58,140.55,358.41,135.34,365.27,134.24Z" fill="#5e1212"/>
          <path id="Trazado_836195" data-name="Trazado 836195" d="M356.08,139.69s-4.95.55-4.23,4.9,5.67,3.8,5.67,3.8Z" fill="#5e1212"/>
          <path id="Trazado_836196" data-name="Trazado 836196" d="M371.52,157.4s3.25-1.47,3.11-4.78a4.282,4.282,0,0,0-4.31-4.12,4.4,4.4,0,0,1,3.25,4.03c.14,3.31-3.11,4.78-3.11,4.78s1.32,1.47-.58,3.54a3.069,3.069,0,0,1-1.62,1,2.453,2.453,0,0,0,2.69-.91C372.84,158.87,371.52,157.4,371.52,157.4Z" fill="#5e1212"/>
          <path id="Trazado_836197" data-name="Trazado 836197" d="M369.5,147.66s6.48.84,4.98-4.6c0,0,2.73,3.89-2.62,6.46S368.02,147.71,369.5,147.66Z" fill="#5e1212"/>
          <path id="Trazado_836198" data-name="Trazado 836198" d="M366.65,159.52a2.012,2.012,0,0,1,2.3-.78c1.68.36,1.03,3.52-.12,4.24a29.9,29.9,0,0,1-4,1.77Z" fill="#ffac9e"/>
          <ellipse id="Elipse_11089" data-name="Elipse 11089" cx="1.99" cy="2.94" rx="1.99" ry="2.94" transform="translate(360.093 161.56) rotate(-74.05)" fill="#ff8686"/>
          <path id="Trazado_836199" data-name="Trazado 836199" d="M350.15,156.09l-1,3.83c1.51.23,2.85-.38,3.06-1.41C352.41,157.53,351.51,156.51,350.15,156.09Z" fill="#ff8686"/>
          <path id="Trazado_836200" data-name="Trazado 836200" d="M363.2,183.2l-4.22,2.09,5.06-5.06,3.8-3.8-2.22,5.38a86.581,86.581,0,0,0-5.79,22.37c-1.68,13.21-2.58,30.5-2.58,30.5s-.09.32-1.79.95a144.621,144.621,0,0,1,1.86-29.99C360.06,190.33,363.2,183.2,363.2,183.2Z" fill="#acbdff"/>
          <path id="Trazado_836201" data-name="Trazado 836201" d="M354.9,140s-3.2,2.79-1.7,5.18a8.581,8.581,0,0,0,3.35,3.21,3.957,3.957,0,0,1-3.94-1.89C350.89,144.09,351.19,140.8,354.9,140Z" fill="#4a1212"/>
          <path id="Trazado_836202" data-name="Trazado 836202" d="M362.94,136.12a13.886,13.886,0,0,0-6.16,7.84s.24-4.97,3.36-6.71C362.62,135.88,362.94,136.12,362.94,136.12Z" fill="#d1385c"/>
          <path id="Trazado_836203" data-name="Trazado 836203" d="M371.31,141.3a4.666,4.666,0,0,1-.08,4.89,19.741,19.741,0,0,1-4.38,4.64s3.39-1.2,4.5-3.18S373.23,143.69,371.31,141.3Z" fill="#4a1212"/>
          <path id="Trazado_836204" data-name="Trazado 836204" d="M353.76,173.57l-3.64,3.48-2.53,6.97,6.17-3.17Z" fill="#fff"/>
          <path id="Trazado_836205" data-name="Trazado 836205" d="M351.39,179.9l-3.8,4.12,6.33-3.17Z" fill="#acbdff"/>
          <path id="Trazado_836206" data-name="Trazado 836206" d="M367.85,176.42l-3.18-3.6-10.75,8.03,5.07,4.43Z" fill="#fff"/>
          <path id="Trazado_836207" data-name="Trazado 836207" d="M360.58,136.35a8.178,8.178,0,0,0-3.89,7.03A18.392,18.392,0,0,1,360.58,136.35Z" fill="#fff"/>
          <path id="Trazado_836208" data-name="Trazado 836208" d="M369.04,140.64a5.928,5.928,0,0,1,.38,6.31C369.42,146.94,373.52,143.36,369.04,140.64Z" fill="#fff"/>
          <path id="Trazado_836209" data-name="Trazado 836209" d="M375.77,180.41l-3.38,25.15,10.57,8.67,12.05,5.5-14.16-34.88s-2.36-4.02-3.93-5.18-.12-.1-.12-.1Z" fill="#005afd"/>
          <path id="Trazado_836210" data-name="Trazado 836210" d="M379.58,217.4l2.54-5.28,14.79,3.8-5.28,9.94Z" fill="#5478ff"/>
          <path id="Trazado_836211" data-name="Trazado 836211" d="M368.38,240.44s-5.5-5.28-5.5-6.34l1.32-1.49S367.74,236.43,368.38,240.44Z" fill="#272c6a"/>
          <path id="Trazado_836212" data-name="Trazado 836212" d="M381.44,218.71s-10.95,7.37-13.7,10.22a70.745,70.745,0,0,0-4.86,5.38,21.379,21.379,0,0,0,2.96,3.59c1.69-.42,21.56-9.72,23.89-12.05l1.06-.59Z" fill="#ffac9e"/>
          <path id="Trazado_836213" data-name="Trazado 836213" d="M364.92,237.13l22.48-12.12-6.37-6.02.45-.32,9.3,6.55s-6.55,5.28-24.94,12.68Z" fill="#e07972"/>
          <path id="Trazado_836214" data-name="Trazado 836214" d="M323.88,170.1l-8.65,4.71,1.1,2.28,7.98-6.43Z" fill="#e07972"/>
          <path id="Trazado_836215" data-name="Trazado 836215" d="M300.21,145.02s-1.25,3.39,3.78,5.07c0,0,.67,6.81,3.88,7.25l4.47-2.43s-4.62-11.43-6.2-12.54c-1.31-.92-2.84-2.18-4.22-3.23,0,0-1.7-1.18-1.96-.28s1.7,3.26,4.3,5.05a16.437,16.437,0,0,0,1.11,2.72c.56.96,1.58,2.8,1.58,2.8l-1.64-1.33Z" fill="#ffac9e"/>
        </g>
        <path id="Trazado_836216" data-name="Trazado 836216" d="M364.13,158.01a3.079,3.079,0,0,0-2.03-1.78,2.451,2.451,0,0,0-2.46.35A7.074,7.074,0,0,1,364.13,158.01Z" fill="#342a5e"/>
        <path id="Trazado_836217" data-name="Trazado 836217" d="M355.57,155.23a3.491,3.491,0,0,0-2.26-1.48,2.984,2.984,0,0,0-2.2.75A5.411,5.411,0,0,1,355.57,155.23Z" fill="#342a5e"/>
        <path id="Trazado_836218" data-name="Trazado 836218" d="M360.39,157.08a.837.837,0,1,0,.99-.65A.83.83,0,0,0,360.39,157.08Z" fill="#342a5e"/>
        <path id="Trazado_836219" data-name="Trazado 836219" d="M351.73,154.79a.837.837,0,1,0,.99-.65A.83.83,0,0,0,351.73,154.79Z" fill="#342a5e"/>
        <path id="Trazado_836220" data-name="Trazado 836220" d="M365.12,156.74s.9-1.62-2.13-3.87c0,0-1.7-1.12-2.09-1.48,0,0-.92,1.24.78,2.36S364.2,154.68,365.12,156.74Z" fill="#342a5e"/>
        <path id="Trazado_836221" data-name="Trazado 836221" d="M356.27,150.07a1.514,1.514,0,0,1-.86,1.7c-1.12.46-3.38-.17-4.7,1.27C350.72,153.05,351.08,150.39,356.27,150.07Z" fill="#342a5e"/>
        <path id="Trazado_836222" data-name="Trazado 836222" d="M358.06,164.78a8.02,8.02,0,0,0-5.83-2.23l.74,1.67S354.37,167.63,358.06,164.78Z" fill="#de666d"/>
        <path id="Trazado_836223" data-name="Trazado 836223" d="M357.5,164.29a5.038,5.038,0,0,1-4.53-.07l-.41-.92-.32-.74A6.916,6.916,0,0,1,357.5,164.29Z" fill="#fff"/>
      </g>
      <g id="Grupo_1094494" data-name="Grupo 1094494">
        <g id="Grupo_1094493" data-name="Grupo 1094493">
          <g id="Grupo_1094490" data-name="Grupo 1094490">
            <g id="Grupo_1094487" data-name="Grupo 1094487">
              <path id="Trazado_836224" data-name="Trazado 836224" d="M262.71,220.6s5.8,6.3,3.61,22.87-3.55,25.1-4.81,31.11-1.75,42.85-1.75,42.85l-3.02-.12s-9.68-22.61-2.38-40.49l-3.46-26.4,4.93-9.39A45.371,45.371,0,0,0,262.71,220.6Z" fill="#434f97"/>
              <g id="Grupo_1094486" data-name="Grupo 1094486">
                <path id="Trazado_836225" data-name="Trazado 836225" d="M259.85,311.96s6.14,7.34,11.03,7.54,6.71,3.7,6.2,4.17l-23.97-.98s-1.56-2.68,1.8-10.54Z" fill="#434f97"/>
                <path id="Trazado_836226" data-name="Trazado 836226" d="M252.83,323.67l24.46,1a.722.722,0,0,0,.76-.7h0a.722.722,0,0,0-.7-.76l-24.46-1a.722.722,0,0,0-.76.7h0A.728.728,0,0,0,252.83,323.67Z" fill="#fff"/>
              </g>
              <path id="Trazado_836227" data-name="Trazado 836227" d="M271.02,319.46s-3.79,2.33-9.92,0-4.67-7.29-4.67-7.29l3.5-.29a53.023,53.023,0,0,0,5.54,5.25C268.61,319.69,271.02,319.46,271.02,319.46Z" fill="#ffbdb3"/>
            </g>
            <g id="Grupo_1094489" data-name="Grupo 1094489">
              <path id="Trazado_836228" data-name="Trazado 836228" d="M262.71,220.6s2.4,5.28-6.28,20.07c0,0-3.67,13.35-5.98,20.32s-4.53,11.93-5.78,17.94,1.14,9.13-4.1,26.09l-5.24,16.95-2.52-.1,5.85-44.19s-1.52-36.92-.22-43.94c0,0,.94-10.56,3.52-11.97S262.71,220.6,262.71,220.6Z" fill="#434f97"/>
              <g id="Grupo_1094488" data-name="Grupo 1094488">
                <path id="Trazado_836229" data-name="Trazado 836229" d="M239.21,322.13s2.69,7.95-3.83,7.68-8.79-2.56-7.51-5.09,3.05-5.68,3.05-5.68Z" fill="#fff"/>
                <path id="Trazado_836230" data-name="Trazado 836230" d="M237.46,315.08l1.72,6.8.64,2.23s-.92,4.62-6.75,3.4c-6.78-1.42-4.2-5.07-4.2-5.07l5.1-8.53Z" fill="#434f97"/>
              </g>
              <path id="Trazado_836231" data-name="Trazado 836231" d="M237.46,315.08s.58,7.59-1.17,8.46c-2.82,1.41-5.47-1.6-4.96-3.79a29.48,29.48,0,0,1,2.63-5.84Z" fill="#ffbdb3"/>
            </g>
          </g>
          <path id="Trazado_836232" data-name="Trazado 836232" d="M254.59,183.87s1.31-.07,1.79.45,17.84,14.03,17.84,14.03l.76,6.09s-12.42-5.05-15.38-6.69Z" fill="#7c3eff"/>
          <path id="Trazado_836233" data-name="Trazado 836233" d="M251.18,183.48a12.776,12.776,0,0,1,5.21,6.53c2.52,6.54,2.14,9.42-.46,11.18s-12.6-.52-14.97-4.35-1.52-12.89-1.52-12.89l3.43-.48h8.31Z" fill="#ffbdb3"/>
          <path id="Trazado_836234" data-name="Trazado 836234" d="M251.18,194.86a10.957,10.957,0,0,1,2.95,4.41h1.13S254.46,195.73,251.18,194.86Z" fill="#ff8686"/>
          <path id="Trazado_836235" data-name="Trazado 836235" d="M266.25,229.53s-6.57,7.56-27.32.42a67.151,67.151,0,0,1,4.81-14.68l-8.33-18.52-1.54-11.68,6.51-1.31s4.09,16.34,12.26,15.47c9.85-1.06-1.46-15.76-1.46-15.76l4.45.47a70.2,70.2,0,0,0,4.17,9.26c1.89,3.11,8.47,9.18-1.23,14.72C258.56,207.93,265.47,220.62,266.25,229.53Z" fill="#7c3eff"/>
          <path id="Trazado_836236" data-name="Trazado 836236" d="M245.62,206.26s4.43,2.71,13.06,1.54l1.82,4.01C260.51,211.82,249.41,212.48,245.62,206.26Z" fill="#48219b"/>
          <path id="Trazado_836237" data-name="Trazado 836237" d="M249,156.85a8.952,8.952,0,0,0-9.56,1.22c-4.68,3.82-4.46,6.72-4.58,8.78s.81,4.24-.75,5.75a1.947,1.947,0,0,0,2.05-1.18,4.759,4.759,0,0,0,1.61,4.58,3.241,3.241,0,0,1,.71,4.33s3.28.21,3.95-2.73S249,156.85,249,156.85Z" fill="#434f97"/>
          <path id="Trazado_836238" data-name="Trazado 836238" d="M252.69,162.69s4.71,3.81,4.52,6.13-1.65,4.61-2.26,5.74-.31,3.52.76,3.62c0,0-.55,1.34-3.91,0,0,0-1.68,1.94-.89,2.52a3.074,3.074,0,0,1-3.53-2.19C246.47,175.76,252.69,162.69,252.69,162.69Z" fill="#272c6a"/>
          <path id="Trazado_836239" data-name="Trazado 836239" d="M245.77,186.83h0a3.9,3.9,0,0,0,3.83-3.93l.02-7.08a3.9,3.9,0,0,0-3.81-3.95h0a3.9,3.9,0,0,0-3.83,3.93l-.02,7.08A3.885,3.885,0,0,0,245.77,186.83Z" fill="#ffbdb3"/>
          <path id="Trazado_836240" data-name="Trazado 836240" d="M241.97,175.8a6.257,6.257,0,0,0,4.11,6.05,3.838,3.838,0,0,0,2.48.1l.45,3.05,2.17-1.53h-1.57l-.01-3.92Z" fill="#ff8686"/>
          <path id="Trazado_836241" data-name="Trazado 836241" d="M239.07,169.74c.81,6.19,6.81,11.9,12.14,10.32,2.96-.88,5.1-6.29,4.29-12.48s-5.15-10.73-9.69-10.13S238.26,163.55,239.07,169.74Z" fill="#ffbdb3"/>
          <path id="Trazado_836242" data-name="Trazado 836242" d="M240.43,170.57s-2.1-2.05-3.04.59,4.21,4.09,4.21,4.09Z" fill="#ffbdb3"/>
          <path id="Trazado_836243" data-name="Trazado 836243" d="M255.71,168.31a16.819,16.819,0,0,0-3.86-2.21,12.069,12.069,0,0,1-4.15-3.5s-1.02,4.8-3.06,6.92a10.212,10.212,0,0,0-2.58,4.4,10.218,10.218,0,0,1,1.97-4.77s2.48-3.1,2.34-5.57a29.746,29.746,0,0,1-3.02,4.22c-1.44,1.54-2.59,5.91-2.65,7.05a19.9,19.9,0,0,1-.02-7.16c.75-3.36,4.12-5.03,4.12-5.03l2.2-2.13,4.62.27,2.12.92C253.75,161.71,255.57,166.04,255.71,168.31Z" fill="#ff8686"/>
          <path id="Trazado_836244" data-name="Trazado 836244" d="M237.14,199.03l-5.22,13.48-7.85,2.58,9.8-29.97a.069.069,0,0,1,.13.01Z" fill="#7c3eff"/>
          <path id="Trazado_836245" data-name="Trazado 836245" d="M245.07,223.42l-15.42-12.67-5.01,4.32,17.21,10.5Z" fill="#ffbdb3"/>
          <path id="Trazado_836246" data-name="Trazado 836246" d="M291.68,191.47l-17.89,7.97,1.83,6.36,16.46-10.61Z" fill="#ffbdb3"/>
          <path id="Trazado_836247" data-name="Trazado 836247" d="M231.99,212.7c.48-.44-.43-4.55-.43-4.55l-9.77,3.42,2.49,4.09Z" fill="#d1bbff"/>
          <path id="Trazado_836248" data-name="Trazado 836248" d="M276.56,198.36l-4.08-3.5v12.55h4.08Z" fill="#d1bbff"/>
          <path id="Trazado_836249" data-name="Trazado 836249" d="M245.76,224.65a4.911,4.911,0,0,1,1.07-2.84s3.02-2.56,3.4-4.44-1.34.84-3.79,1.92a7.363,7.363,0,0,0-3.47,3.74Z" fill="#ffbdb3"/>
          <g id="Grupo_1094492" data-name="Grupo 1094492">
            <path id="Trazado_836250" data-name="Trazado 836250" d="M263.43,203.03a22.345,22.345,0,0,0-3.8,15.54c1.01,9.6,7.16,14.96.51,28.53l-15.08,2.78s5.74-7.46,3.84-16.35a77.748,77.748,0,0,1-2.28-15.29c-.14-6.05,1.23-13.2,3.98-14.59Z" fill="#e3e9fe"/>
            <path id="Trazado_836251" data-name="Trazado 836251" d="M268.38,209.85l-11.26.62s.61-5.1-6.51-6.81l12.8-.86C263.41,202.79,268.93,203.45,268.38,209.85Z" fill="#fff"/>
            <path id="Trazado_836252" data-name="Trazado 836252" d="M257.09,210.62h.03l11.4-.63.01-.14c.56-6.48-5.06-7.22-5.11-7.23l-12.83.86a.158.158,0,0,0-.15.17.164.164,0,0,0,.17.15l12.8-.87c.19.03,5.25.71,4.81,6.74l-11.12.61a.153.153,0,0,0-.15.17C256.96,210.55,257.02,210.62,257.09,210.62Z" fill="#5478ff"/>
            <g id="Grupo_1094491" data-name="Grupo 1094491">
              <path id="Trazado_836253" data-name="Trazado 836253" d="M244.7,250.1l.24-.32c.06-.07,5.67-7.51,3.81-16.22q-.15-.675-.3-1.38a70.413,70.413,0,0,1-1.98-13.94c-.14-6.07,1.24-13.3,4.07-14.73l.14.27c-2.71,1.38-4.03,8.47-3.9,14.45a69.872,69.872,0,0,0,1.98,13.88c.1.47.2.92.3,1.38,1.68,7.83-2.6,14.64-3.64,16.16l14.63-2.7c4.61-9.45,2.97-14.87,1.23-20.61a40.878,40.878,0,0,1-1.79-7.76,24.6,24.6,0,0,1,.44-7.91l.3.07a23.971,23.971,0,0,0-.43,7.81,41.021,41.021,0,0,0,1.77,7.7c1.76,5.81,3.43,11.3-1.28,20.91l-.03.07-.08.01Z" fill="#5478ff"/>
            </g>
          </g>
          <path id="Trazado_836254" data-name="Trazado 836254" d="M243.34,222.29l2.74-.16,5.05.63s1.89-.28,2.53-.32c.95-.06,2.21.95.48,1.15a15.25,15.25,0,0,0-2.21.41,7.6,7.6,0,0,1-2.05.02,7.141,7.141,0,0,0,1.89.32,10.755,10.755,0,0,1,2.84,0c.63.13-.38.91-.63,1.58-.5,1.33-3.29.98-3.29.98l-1.76-.35,1.41.71s1.83-.33,2.03,0c.35.56-1.47.92-2.5.87-2.99-.14-8.02-2.55-8.02-2.55Z" fill="#ffbdb3"/>
          <path id="Trazado_836255" data-name="Trazado 836255" d="M247.5,172.82a2.144,2.144,0,1,1-1.92-1.94A1.945,1.945,0,0,1,247.5,172.82Z" fill="#ff8686"/>
          <path id="Trazado_836256" data-name="Trazado 836256" d="M253.53,171.4a1.925,1.925,0,0,0,1.86,1.93c.08-.46.14-.94.18-1.46a19.124,19.124,0,0,0,.04-2A1.916,1.916,0,0,0,253.53,171.4Z" fill="#ff8686"/>
          <path id="Trazado_836257" data-name="Trazado 836257" d="M253.34,168.37a7.648,7.648,0,0,1,1.53.27l.84-.33-.84,1.02s-.84-.82-3.09-.36h0A3.166,3.166,0,0,1,253.34,168.37Z" fill="#443e61"/>
          <path id="Trazado_836258" data-name="Trazado 836258" d="M254.54,169.31a.658.658,0,1,1-.59-.72A.653.653,0,0,1,254.54,169.31Z" fill="#443e61"/>
          <path id="Trazado_836259" data-name="Trazado 836259" d="M246.83,168.56a7.9,7.9,0,0,0-1.48.47l-.93-.32,1,1.02s.84-1.02,3.04-.77h0A3.3,3.3,0,0,0,246.83,168.56Z" fill="#443e61"/>
          <path id="Trazado_836260" data-name="Trazado 836260" d="M247.92,169.49a.661.661,0,1,1-.69-.63A.654.654,0,0,1,247.92,169.49Z" fill="#443e61"/>
          <path id="Trazado_836261" data-name="Trazado 836261" d="M251.75,176.09c-.06.42-.75.88-1.83.72s-2.01-.9-1.95-1.32,1.09-.36,2.17-.21S251.81,175.67,251.75,176.09Z" fill="#ff8685"/>
          <path id="Trazado_836262" data-name="Trazado 836262" d="M250.14,175.28a6.792,6.792,0,0,0-1.68-.09.308.308,0,0,0-.05.12c-.05.36.66.76,1.58.9.83.12,1.55-.01,1.73-.3C251.62,175.6,251.06,175.42,250.14,175.28Z" fill="#fff"/>
          <path id="Trazado_836263" data-name="Trazado 836263" d="M245.4,157.18s1.8,5.52-1.85,9.65-3.18,6.18-2.31,10.24c0,0-2.38-4.28-2.52-7.2a25.642,25.642,0,0,1,.24-5.23S240.85,156.9,245.4,157.18Z" fill="#434f97"/>
          <path id="Trazado_836264" data-name="Trazado 836264" d="M255.31,173.91s5.99-7.08.7-13.47-10.61-2.35-10.61-2.35l.18.13a10.51,10.51,0,0,0,4.76,5.99c4.01,2.45,7.2,2.47,6.33,6.31A23.673,23.673,0,0,1,255.31,173.91Z" fill="#434f97"/>
          <path id="Trazado_836265" data-name="Trazado 836265" d="M246.62,157.13s2.25,1.5.65,6.98c-1.47,5.06-4.34,3.55-5.85,9.5,0,0-.26-2.69,3.21-6.64,1.93-2.2-.33-9.5-.33-9.5Z" fill="#434f97"/>
        </g>
        <path id="Trazado_836266" data-name="Trazado 836266" d="M300.46,193.51c-.04-.64.03-.72.03-.72l1.05-1.15.32-1.35.79-1.35s.95-1.04-.46-1-4.37,2.46-4.37,2.46l-3.37-.14,2.7-2.96c.73-.8-.26-1.55-.26-1.55a32.65,32.65,0,0,1-4.78,3.41,3.351,3.351,0,0,0-1.78,3.8l1.11,2.28,2.19-.07h0l5.49-.16C299.12,194.99,300.51,194.15,300.46,193.51Z" fill="#ffbdb3"/>
      </g>
      <g id="Grupo_1094497" data-name="Grupo 1094497">
        <path id="Trazado_836267" data-name="Trazado 836267" d="M75.58,196.14c0,2.11-.86,4.76-4.7,4.76s-9.21-2.65-9.21-4.76a14.244,14.244,0,0,1,6.96-2.01A14.23,14.23,0,0,1,75.58,196.14Z" fill="#ffafa1"/>
        <path id="Trazado_836268" data-name="Trazado 836268" d="M68.76,197.89h0a3.58,3.58,0,0,1-3.73-3.4l-.31-6.76a3.58,3.58,0,0,1,3.4-3.73h0a3.58,3.58,0,0,1,3.73,3.4l.31,6.76A3.58,3.58,0,0,1,68.76,197.89Z" fill="#ffafa1"/>
        <path id="Trazado_836269" data-name="Trazado 836269" d="M71.89,189.77A13.621,13.621,0,0,1,66,191.12l-.38,4.14-2.35.09a9.5,9.5,0,0,1,1.75-.66l-.24-6.38Z" fill="#de666d"/>
        <path id="Trazado_836270" data-name="Trazado 836270" d="M75.51,178.37s1.17-7.02-3.47-9.2l-1.07,1.61S73.8,172.69,75.51,178.37Z" fill="#ffe8de"/>
        <path id="Trazado_836271" data-name="Trazado 836271" d="M60.12,182.94c.48,2.25,3.32,6.37,6.77,6.73a26.358,26.358,0,0,0,6.75-.02s2.14-2.6,2-7.55c-.14-5.29-2.54-10.63-4.64-11.99C68.28,168.33,57.17,168.94,60.12,182.94Z" fill="#ffafa1"/>
        <ellipse id="Elipse_11090" data-name="Elipse 11090" cx="2.16" cy="1.79" rx="2.16" ry="1.79" transform="translate(63.18 182.09)" fill="#ff8686"/>
        <path id="Trazado_836272" data-name="Trazado 836272" d="M73.51,181.82a1.983,1.983,0,0,0,2.1,1.78,14.913,14.913,0,0,0,.03-1.51c-.02-.69-.08-1.37-.16-2.05A1.96,1.96,0,0,0,73.51,181.82Z" fill="#ff8686"/>
        <path id="Trazado_836273" data-name="Trazado 836273" d="M61.24,182.77a12.641,12.641,0,0,0,4.75-3.49s-3.57,4.32-3.38,5.64c0,0,0-.75,1.88-2.44s7.4-7.05,5.67-11.23a4.4,4.4,0,0,1,1.28,4.28,24.438,24.438,0,0,0-.75,2.63s3.38-2.63,2.82-4.89l-1.32-1.88-3.2-1.69L60.9,182.26Z" fill="#de666d"/>
        <path id="Trazado_836274" data-name="Trazado 836274" d="M68.86,170.32s4.62,2.43,1.29,7.85c0,0,3.62-3.36,3.68-6.18s-3.18-3.81-4.12-3.77-1.92.16-1.92.16A2.2,2.2,0,0,0,68.86,170.32Z" fill="#ffe8de"/>
        <path id="Trazado_836275" data-name="Trazado 836275" d="M57.97,170.8s-1.83-11.59-5.7-9.72-4.39,7.16-4.47,9.6.48,6.56,3.62,5.3a61.632,61.632,0,0,0,6.63-3.3Z" fill="#ffe8de"/>
        <path id="Trazado_836276" data-name="Trazado 836276" d="M50.74,162.15s3.6-1.48,6.04,6.98C56.78,169.13,55.66,158.6,50.74,162.15Z" fill="#fff"/>
        <path id="Trazado_836277" data-name="Trazado 836277" d="M50.34,162.54s-1.64,6.77,5.88,7.71c0,0-4.14.94-6.02-1.5S50.34,162.54,50.34,162.54Z" fill="#e0a9a0"/>
        <path id="Trazado_836278" data-name="Trazado 836278" d="M56.97,173.28v-2.27a29.951,29.951,0,0,1-6.2,1.5c-3.18.37-2.67-4.75-2.67-4.79a22.2,22.2,0,0,0-.3,2.96c-.08,2.45.48,6.56,3.62,5.3A56.2,56.2,0,0,0,56.97,173.28Z" fill="#e0a9a0"/>
        <path id="Trazado_836279" data-name="Trazado 836279" d="M56.52,159.19s3.06,5.32.2,8.83l.53,1.98s2.58-4,1.5-7.15S56.52,159.19,56.52,159.19Z" fill="#ffe8de"/>
        <path id="Trazado_836280" data-name="Trazado 836280" d="M55.18,174.97s-1.65-.6.15-4.25c1.9-3.85,3.61-2.04,3.61-2.04Z" fill="#434f97"/>
        <path id="Trazado_836281" data-name="Trazado 836281" d="M58.49,182.63s-6.9-7.03-.6-13.52,13.3-1.34,13.35-.21c0,0-3.73.73-5.14,2.86S58.49,182.63,58.49,182.63Z" fill="#ffe8de"/>
        <g id="Grupo_1094495" data-name="Grupo 1094495">
          <path id="Trazado_836282" data-name="Trazado 836282" d="M62.34,185.16a.249.249,0,0,0,.05.11A.536.536,0,0,1,62.34,185.16Z" fill="#ffe8de"/>
          <path id="Trazado_836283" data-name="Trazado 836283" d="M68.99,168.61a6.464,6.464,0,0,1-.41-.73c-5.06.41-9.8,4.01-11.21,10.47s2.5,9.86,2.5,9.86c-2.2-2.91.89-5.5,5.41-9.65a10,10,0,0,0,1.47-1.69,8.8,8.8,0,0,1-.89,1.85c-2.23,3.39-3.99,5.16-3.52,6.44-.08-.34.03-1.53,3.41-4.74C69.9,176.47,70.18,170.06,68.99,168.61Z" fill="#ffe8de"/>
        </g>
        <path id="Trazado_836284" data-name="Trazado 836284" d="M36.53,210.12s5.96,15.25,10.52,17.18a51.4,51.4,0,0,1,5.96,2.8l8.59-16.48-7.71-1.58-2.98,9.29a90.644,90.644,0,0,0-11.57-12.97,44.859,44.859,0,0,1-1.05-4.73c-.35-2.28-.18-3.86,1.75-5.61,0,0-.18-.7-1.75-.35a3.052,3.052,0,0,0-2.1,2.98,7.294,7.294,0,0,1-1.23,2.63A10.918,10.918,0,0,1,31.98,201c-.7-1.05-4.03-2.63-5.61-3.51s-1.05,1.4,0,1.93,2.28,1.05,2.28,1.05l1.93,1.75a18.845,18.845,0,0,0-2.8-.35,24.5,24.5,0,0,0-4.21.53c-.53.18.35,1.23,1.75,1.05,0,0-.88.18-.88.35s.18,1.05,2.63.88c.02,0,1.75.35,1.75.35a15.886,15.886,0,0,0-1.58.35c-.53.18-1.75.53-1.75.53s-.53.88,1.23.7c.33-.03.81-.1,1.23-.18a4.177,4.177,0,0,1,1.4.18,3.9,3.9,0,0,0,.53.88,6.9,6.9,0,0,0,4.21,2.45C36.72,210.29,36.53,210.12,36.53,210.12Z" fill="#ffbdb3"/>
        <path id="Trazado_836285" data-name="Trazado 836285" d="M53,214.51l5.08,2.98-5.26,11.92s-7.54-2.98-5.78-2.1,5.96,2.8,5.96,2.8l6.95-13.33Z" fill="#e07972"/>
        <path id="Trazado_836286" data-name="Trazado 836286" d="M54.9,258.04s-.94,7.33-3.57,12.03S44,278.15,40.99,293.38a122.788,122.788,0,0,0-2.47,26.71s-2.41,4.12-1.85,5.06,5.23,2.33,12.38,1.96c.75-.94-5.13-1.62-6.75-5.94-1.19-3.17,2.64-18.58,5.65-24.22s7.33-14.66,8.46-17.48a99.745,99.745,0,0,1,6.2-13.16Z" fill="#ffafa1"/>
        <path id="Trazado_836287" data-name="Trazado 836287" d="M52.55,267.46s3.04,4.86,6.87,5.06l2.26-4.39-8.08-4.45Z" fill="#de666d"/>
        <path id="Trazado_836288" data-name="Trazado 836288" d="M73.91,261.05a42.536,42.536,0,0,1,.94,9.08c-.19,3.89-2.07,9.34-2.26,15.17s.94,35.87.94,35.87l-1.08,4.59,4.59.54s4.86,1.08,7.02,0l-7.29-4.86s4.28-31.63,6.16-44.6,3.2-18.8,3.2-18.8Z" fill="#ffafa1"/>
        <path id="Trazado_836289" data-name="Trazado 836289" d="M74.31,274.02a46.208,46.208,0,0,0,8.81,1.5l1.03-6.81H74.96s-.11,2.77-.3,3.66S74.31,274.02,74.31,274.02Z" fill="#de666d"/>
        <path id="Trazado_836290" data-name="Trazado 836290" d="M37.44,321.98a14.737,14.737,0,0,0,1.84,2.24c1.08,1.06,4.64,3.43,7.61,2.08.62-.28-1.08-1.35-1.08-1.35a19.387,19.387,0,0,1,4.32,1.35c1.39.78,1.64.98,1.89,1.89s-2.03.99-5.13,1.08-11.21.25-11.07-1.35A26.3,26.3,0,0,1,37.44,321.98Z" fill="#5e82ff"/>
        <path id="Trazado_836291" data-name="Trazado 836291" d="M73.56,321.97a14.737,14.737,0,0,0,1.84,2.24c1.08,1.06,4.63,3.43,7.59,2.08.62-.28-1.08-1.35-1.08-1.35a19.36,19.36,0,0,1,4.31,1.35c1.39.78,1.63.99,1.89,1.89s-2.03.99-5.12,1.08c-4.27.12-11.18.21-11.05-1.36A26.368,26.368,0,0,1,73.56,321.97Z" fill="#5e82ff"/>
        <path id="Trazado_836292" data-name="Trazado 836292" d="M87.26,207.14l6.19,6.56L104,199.21l2.77.69c-5.95,18.91-13.32,22.4-13.32,22.4s-9.49-5.85-12.3-10.53Z" fill="#ffbdb3"/>
        <path id="Trazado_836293" data-name="Trazado 836293" d="M63.28,195.31s-6.12.32-6.88,2.39-2.82,11.28-4.32,16.17a49.86,49.86,0,0,0,10.15,3.01,16.191,16.191,0,0,0,4.51,8.08s10.9,2.07,14.47.56c0,0,3.2-8.65,3.38-13.16a9.447,9.447,0,0,0,3.57-5.26s-6.02-10.15-7.52-11.28-5.66-.44-7.33-.75c0,0,2.16,1.03,2.02,2.77s-5.03,3.05-7.47,2.11S63.96,197.99,63.28,195.31Z" fill="#d9e6ff"/>
        <path id="Trazado_836294" data-name="Trazado 836294" d="M81.98,205.63s2.7,4.59,2.7,6.75c0,0,1.47-1.49,1.68-1.69Z" fill="#c4d0fe"/>
        <path id="Trazado_836295" data-name="Trazado 836295" d="M61.35,182.87s-1.75-1.9-2.31-.02a3.6,3.6,0,0,0,3.53,4.35Z" fill="#ffafa1"/>
        <path id="Trazado_836296" data-name="Trazado 836296" d="M61.67,212.17a5.849,5.849,0,0,0,4.32,4.32,7.4,7.4,0,0,0,5.64-.75,35.77,35.77,0,0,1-5.08,4.14,13.02,13.02,0,0,0,1.88,4.46L66,224.2a18.446,18.446,0,0,1-3.67-7.05C61.11,212.74,61.67,212.17,61.67,212.17Z" fill="#a3b7ff"/>
        <path id="Trazado_836297" data-name="Trazado 836297" d="M73.54,178.08a7.568,7.568,0,0,1,1.59.12l.82-.42-.75,1.13s-.94-.75-3.19-.04h0A3.176,3.176,0,0,1,73.54,178.08Z" fill="#443e61"/>
        <path id="Trazado_836298" data-name="Trazado 836298" d="M66.94,179.25a8.249,8.249,0,0,0-1.46.63l-.98-.23,1.13.94s.75-1.13,3.02-1.1h0A3.294,3.294,0,0,0,66.94,179.25Z" fill="#443e61"/>
        <path id="Trazado_836299" data-name="Trazado 836299" d="M59.48,167.72h0a13.171,13.171,0,0,0-1.59,1.39c-4.4,4.53-2.36,9.33-.74,11.81-.57-1-1.08-4.12-.56-7.09A15.894,15.894,0,0,1,59.48,167.72Z" fill="#e0a9a0"/>
        <path id="Trazado_836300" data-name="Trazado 836300" d="M64.96,170.01s-9.34,8.17-6.03,17.08a11.993,11.993,0,0,1,.68-11.77C62.42,171.01,64.96,170.01,64.96,170.01Z" fill="#e0a9a0"/>
        <path id="Trazado_836301" data-name="Trazado 836301" d="M71.07,168.56s2.26,1.32,2.26,3.38-3,6.04-3.01,6.05c.72-.71,3.45-3.56,3.5-6.01a3.24,3.24,0,0,0-.06-.71C73.14,168.56,71.07,168.56,71.07,168.56Z" fill="#fff"/>
        <path id="Trazado_836302" data-name="Trazado 836302" d="M67.41,169.6a9.739,9.739,0,0,1-.84,7.53c-1.5,2.75-5.66,5.5-5.66,5.5a21.583,21.583,0,0,0,4.9-5.98C67.46,173.75,67.69,172.13,67.41,169.6Z" fill="#fff"/>
        <path id="Trazado_836303" data-name="Trazado 836303" d="M64.3,167.62s-6.02,1.5-6.58,7.33C57.72,174.95,58.29,171.38,64.3,167.62Z" fill="#fff"/>
        <path id="Trazado_836304" data-name="Trazado 836304" d="M79.82,214.81s1.92.93,4.61-.75a7.6,7.6,0,0,0-.26,1.45S82.25,216.7,79.82,214.81Z" fill="#a3b7ff"/>
        <path id="Trazado_836305" data-name="Trazado 836305" d="M69.52,185.18s-1.55-.43-1.81.28,1.27,1.88,2.11,2.04,3.23-1.13,3.47-2.34S71.04,185.73,69.52,185.18Z" fill="#de666d"/>
        <path id="Trazado_836306" data-name="Trazado 836306" d="M69.52,185.18a3.136,3.136,0,0,0-1.41-.07c.11.42.54,1.31,2.17,1.34,2.06.04,2.89-.87,3-1.26,0-.01.01-.02.01-.04a.667.667,0,0,0-.01-.28C73.04,184.28,70.89,185.68,69.52,185.18Z" fill="#fff"/>
        <g id="Grupo_1094496" data-name="Grupo 1094496">
          <path id="Trazado_836307" data-name="Trazado 836307" d="M100.63,183.16s4.57,13.85,10.67,17.7l3.56-.86s-6.85-10.11-8.23-19.15Z" fill="#4d5bad"/>
          <path id="Trazado_836308" data-name="Trazado 836308" d="M115.52,199.84s-7.2-11.56-7.68-18.61l-1.08.38s1.02,7.67,8.1,18.39Z" fill="#2f3e97"/>
          <path id="Trazado_836309" data-name="Trazado 836309" d="M101.26,184.9l5.91-1.42-.41-1.87-5.94,2.08Z" fill="#2f3e97"/>
          <path id="Trazado_836310" data-name="Trazado 836310" d="M112.05,179.97a75,75,0,0,1,17.1,2.73s-8.27-4.31-11.87-12.82a31.2,31.2,0,0,1-1.97-16.62s-1.52,4.98-9.86,13.17c0,0-4.06,1.65-1.5,7.65S110.56,180.39,112.05,179.97Z" fill="#4d5bad"/>
          <path id="Trazado_836311" data-name="Trazado 836311" d="M101.97,169.78l-7.92,5.17a1.3,1.3,0,0,0-.6,1.08,10.385,10.385,0,0,0,3.92,8.14,1.437,1.437,0,0,0,1.37.24l10.2-3.57-4.89-4.88Z" fill="#4d5bad"/>
          <path id="Trazado_836312" data-name="Trazado 836312" d="M101.97,169.78l-.9.59a8.744,8.744,0,0,0,1.22,6.33,9.1,9.1,0,0,0,5.8,4.44l.86-.3-4.89-4.88Z" fill="#2f3e97"/>
          <path id="Trazado_836313" data-name="Trazado 836313" d="M105.08,175.41c-2.01-3.39-1.8-7.21.36-8.97a4.384,4.384,0,0,0-1.73.51c-2.76,1.49-3.21,5.7-1.01,9.41s6.22,5.51,8.97,4.02a4.122,4.122,0,0,0,.65-.44C109.81,180.15,106.85,178.4,105.08,175.41Z" fill="#7881b8"/>
          <path id="Trazado_836314" data-name="Trazado 836314" d="M106.02,181.86s-5.27,1.03-7.25,1.32-4.45-2.95-4.46-2.96a10.38,10.38,0,0,0,3.05,3.96,1.437,1.437,0,0,0,1.37.24l7.22-2.53Z" fill="#2f3e97"/>
          <path id="Trazado_836315" data-name="Trazado 836315" d="M94.21,176.3a11.52,11.52,0,0,0,1.3,3.7s-.79-3.32-.2-4.01,2.25-2.46,2.25-2.46l-2.82,1.71A1.014,1.014,0,0,0,94.21,176.3Z" fill="#fff"/>
          <ellipse id="Elipse_11091" data-name="Elipse 11091" cx="6.79" cy="16.78" rx="6.79" ry="16.78" transform="translate(110.634 154.498) rotate(-23.409)" fill="#4d5bad"/>
          <path id="Trazado_836316" data-name="Trazado 836316" d="M124.16,159.77c5.79,6.12,7.27,9.3,7.27,9.31a42.088,42.088,0,0,0-1.56-4.33c-3.63-8.53-9.4-14.34-12.9-12.99-1.41.55-2.23,2.17-2.48,4.48C114.5,156.23,118.37,153.65,124.16,159.77Z" fill="#2f3e97"/>
          <path id="Trazado_836317" data-name="Trazado 836317" d="M118.77,169.01c-3.33-7.83-3.69-15.23-1.02-17.43a3.024,3.024,0,0,0-.79.18c-3.5,1.36-3.4,9.37.23,17.89s9.4,14.34,12.9,12.99a2.972,2.972,0,0,0,.79-.46C127.35,182.5,122.13,176.93,118.77,169.01Z" fill="#7881b8"/>
          <path id="Trazado_836318" data-name="Trazado 836318" d="M126.44,166.91a4.056,4.056,0,0,0-5.19-2.09l-3.57,1.38c.32.94.69,1.9,1.1,2.87a41.56,41.56,0,0,0,2.03,4.12l3.44-1.33a3.751,3.751,0,0,0,2.19-4.95Z" fill="#3b4bad"/>
          <path id="Trazado_836319" data-name="Trazado 836319" d="M124.27,165.96c.64.58.8,1.4.36,1.85a1.461,1.461,0,0,1-1.95-.24c-.64-.58-.8-1.4-.36-1.85A1.473,1.473,0,0,1,124.27,165.96Z" fill="#fff"/>
        </g>
        <path id="Trazado_836320" data-name="Trazado 836320" d="M108.77,187.85a9.354,9.354,0,0,0-3.3,2.82c-1.04,1.69.7,1.88,1.91,1.13,0,0,2.06,4.79,4.53,3.95,0,0,.14-1.23.16-1.7C112.13,192.26,110.51,187.48,108.77,187.85Z" fill="#ffac9e"/>
        <path id="Trazado_836321" data-name="Trazado 836321" d="M104.16,190.8l-.16,8.41,2.77.69a4.774,4.774,0,0,0,2.18-3.33s0-2.8,1.65-3.63c1.6-.8,1.65-3.3,1.48-4.29s-2.8,2.14-3.96,3.13l-2.14,2.47Z" fill="#ffbdb3"/>
        <path id="Trazado_836322" data-name="Trazado 836322" d="M66,224.2v2.77l16.16-.55-.18-3.09Z" fill="#7c3eff"/>
        <path id="Trazado_836323" data-name="Trazado 836323" d="M66,226.97S53.75,243,49.6,262.88c0,0,10.08,8.79,18.08,7.38,0,0,3.94-9.75,3.98-9.47s.64,7.86.64,7.86l15.37.07s1.47-24.22-5.5-42.29Z" fill="#7c3eff"/>
        <path id="Trazado_836324" data-name="Trazado 836324" d="M71.65,260.79l2.2-10.65,4.38,18.57-6.07-.28Z" fill="#48219b"/>
        <path id="Trazado_836325" data-name="Trazado 836325" d="M55.78,267.18s.24-18.84,8.89-32.61l4.58-6.06,4.27-1.54H66s-14.29,17.96-16.4,35.91A31.783,31.783,0,0,0,55.78,267.18Z" fill="#48219b"/>
        <path id="Trazado_836326" data-name="Trazado 836326" d="M68.59,265.42c-3.26-.05-11.38-.76-17.26-6.14a1.143,1.143,0,0,0-1.88.6l-.57,2.73a1.081,1.081,0,0,0,.34,1.03c1.92,1.76,9.64,8.2,18.7,7.11a1.135,1.135,0,0,0,.98-.84l.78-3.13A1.113,1.113,0,0,0,68.59,265.42Z" fill="#d1bbff"/>
        <path id="Trazado_836327" data-name="Trazado 836327" d="M72.24,266.78a42.124,42.124,0,0,0,14.78-1.12,1.368,1.368,0,0,1,1.74,1.32v1.6a1.368,1.368,0,0,1-.92,1.29,35.666,35.666,0,0,1-16.18,1.61,1.378,1.378,0,0,1-1.15-1.52l.24-1.98A1.358,1.358,0,0,1,72.24,266.78Z" fill="#d1bbff"/>
      </g>
      <g id="Grupo_1094506" data-name="Grupo 1094506">
        <g id="Grupo_1094501" data-name="Grupo 1094501">
          <path id="Trazado_836328" data-name="Trazado 836328" d="M446.96,328.65s1.73-.18,5.95-2.41a39.439,39.439,0,0,0,8.78-6.64,13.49,13.49,0,0,0,.9-1.09s-.52-.44-1.41-1.26a64.956,64.956,0,0,1-8.59,6.72c-4.07,2.49-6.39,2.85-6.39,2.85Z" fill="#ff5475"/>
          <path id="Trazado_836329" data-name="Trazado 836329" d="M454.25,313.46a30.922,30.922,0,0,0-.6,4.4c-.09,1.84-.29,2.49-2.35,3.98-1.87,1.35-4.4,1.31-4.98,3.5-.36,1.36.06,1.84.06,1.84s3.17.22,7.63-3.15c4.39-3.32,6.28-4.5,7.5-6.42a18.829,18.829,0,0,0-3.87-5.98Z" fill="#f53b5f"/>
          <g id="Grupo_1094498" data-name="Grupo 1094498">
            <path id="Trazado_836330" data-name="Trazado 836330" d="M452.64,317.21a.415.415,0,0,1-.34-.19.381.381,0,0,1,.13-.54l1.77-1.11a.393.393,0,1,1,.41.67l-1.77,1.11A.361.361,0,0,1,452.64,317.21Z" fill="#fff"/>
          </g>
          <g id="Grupo_1094499" data-name="Grupo 1094499">
            <path id="Trazado_836331" data-name="Trazado 836331" d="M452.85,318.41a.415.415,0,0,1-.34-.19.381.381,0,0,1,.13-.54l1.77-1.11a.393.393,0,1,1,.41.67l-1.77,1.11A.361.361,0,0,1,452.85,318.41Z" fill="#fff"/>
          </g>
          <g id="Grupo_1094500" data-name="Grupo 1094500">
            <path id="Trazado_836332" data-name="Trazado 836332" d="M453.06,319.61a.415.415,0,0,1-.34-.19.381.381,0,0,1,.13-.54l1.77-1.11a.393.393,0,1,1,.41.67l-1.77,1.11A.361.361,0,0,1,453.06,319.61Z" fill="#fff"/>
          </g>
        </g>
        <path id="Trazado_836333" data-name="Trazado 836333" d="M454.19,236.91s-16.28,12.07-26.1,36.27c0,0,.87,5.62,11.78,14.8s14.11,25.74,14.11,25.74l3.55-2.06s-4.65-29.56-18.21-38.75c0,0,0-.89,2.96-2.65s11.49-6.51,16.24-12.41Z" fill="#272c6a"/>
        <path id="Trazado_836334" data-name="Trazado 836334" d="M452.31,225.06l16.25-.59s5.61,10.34,6.8,13.59-2.95,6.8-2.95,6.8c2.66,4.14-3.55,27.77-3.55,27.77s.59,4.43,1.18,13.59-7.39,33.98-7.39,33.98c-1.77,2.36-4.73.59-4.73.59,1.18-3.55,2.5-44.73,1.48-47.57-3.84-10.64-5.32-29.25-5.32-29.25-2.61-5.45-2.95-13.59-2.95-13.59A29.993,29.993,0,0,1,452.31,225.06Z" fill="#039"/>
        <path id="Trazado_836335" data-name="Trazado 836335" d="M470.78,228.64c-1.23-2.35-2.22-4.17-2.22-4.17l-16.25.59a6.12,6.12,0,0,0-.38,1.13,5.247,5.247,0,0,0,5.63,2.41C466.49,227.24,468.11,228.66,470.78,228.64Z" fill="#34a7b0"/>
        <path id="Trazado_836336" data-name="Trazado 836336" d="M421.07,220.25s-3.22,1.86-5.02,1.78-5.76-3.95-6.25-4.89c-1.17-2.24-.28-3.07-.28-3.07s5.45,1.54,7.51,1.29,3.96,2.49,3.96,2.49Z" fill="#ffac9e"/>
        <path id="Trazado_836337" data-name="Trazado 836337" d="M460,188.43l-20.09,26.29-19.5,2.07-.3,3.25,23.05,2.66,12.05-12.51Z" fill="#ffac9e"/>
        <path id="Trazado_836338" data-name="Trazado 836338" d="M457.63,191.24s-5.24,8.57-10.05,12.41-2.79,10.93,1.73,11.23c0,0-2.26,17.14,7.36,15.66s10.75.3,13.86,0,5.09-8.57,4.53-13.89.57-26.3-2.55-27.48C469.41,187.99,463.29,185.33,457.63,191.24Z" fill="#fff"/>
        <path id="Trazado_836339" data-name="Trazado 836339" d="M454.97,190.2s5.94-.81,8.59-4.25,7.66-2.84,7.66-2.84a7.618,7.618,0,0,0-5.32-1.48C462.65,181.93,460.23,182.93,454.97,190.2Z" fill="#ffbdb3"/>
        <path id="Trazado_836340" data-name="Trazado 836340" d="M474.77,212.36c-.26-2.47-.16-8.32-.29-13.99-1.54-6.54-3.05-12.4-6.51-12.9-4.14-.59-5.32,4.65-5.32,6.8,0,5.91,2.36,10.05-1.18,14.18-2.62,3.05-5.75,8.76,1.77,7.09,2.66-.59,3.84,2.07,9.75,4.43a11.848,11.848,0,0,0,1.51.49A22.754,22.754,0,0,0,474.77,212.36Z" fill="#abbdff"/>
        <path id="Trazado_836341" data-name="Trazado 836341" d="M445.52,207.93s4.08,3.15,7.87.23c0,0-4.67,7.59.99,18.09,0,0-4.2,0-5.16-7.98-.21-1.79-.22-7.19-.22-7.19A6.528,6.528,0,0,1,445.52,207.93Z" fill="#abbdff"/>
        <path id="Trazado_836342" data-name="Trazado 836342" d="M421.25,225.37l-.54.43a1.014,1.014,0,0,1-1.42-.15L402.38,204.8a1.014,1.014,0,0,1,.15-1.42l.54-.43a1.014,1.014,0,0,1,1.42.15l16.91,20.85A1.022,1.022,0,0,1,421.25,225.37Z" fill="#434f97"/>
        <path id="Trazado_836343" data-name="Trazado 836343" d="M447.83,224.6v.69a1,1,0,0,1-1.01,1l-26.84-.13a1,1,0,0,1-1-1.01v-.69a1,1,0,0,1,1.01-1l26.84.13A.992.992,0,0,1,447.83,224.6Z" fill="#434f97"/>
        <path id="Trazado_836344" data-name="Trazado 836344" d="M469.75,208.22s-20.09,12.41-25.41,15.07l.89,3.25s17.14-2.66,25.41-7.68S469.75,208.22,469.75,208.22Z" fill="#ffbdb3"/>
        <path id="Trazado_836345" data-name="Trazado 836345" d="M462.65,193.61c0-2.14,2.36-7.68,7.68-6.2,5.16,1.43,3.55,10.93,5.32,18.02s4.73,8.86,3.84,11.23-.3,7.09-6.2,4.73-7.09-5.02-9.75-4.43-4.73-1.48-1.18-5.61C465.9,207.2,462.65,199.52,462.65,193.61Z" fill="#fff"/>
        <path id="Trazado_836346" data-name="Trazado 836346" d="M444.63,222.99a8.26,8.26,0,0,0-3.65-1.51,6.964,6.964,0,0,1-4.75-1.66s-1.25-.79-1.21.15a4.247,4.247,0,0,0,1.99,2.72c.76.34,1.8.58,2.18.75a1.453,1.453,0,0,1,.59.72s-2.99,2.1-4.31,1.97-6.62-1.58-7.17-1.37-.23,1.04.91,1.55a33.616,33.616,0,0,1,2.71,2.13c.97.89,3.3,2.85,6.45,1.96s7.3-4.06,7.3-4.06Z" fill="#ffbdb3"/>
        <path id="Trazado_836347" data-name="Trazado 836347" d="M462.65,319.9s7.98-24.52,7.39-33.68-1.18-13.59-1.18-13.59,6.2-23.64,3.55-27.77c0,0,3.72-3.2,3.09-6.3-.03.14-1.11,5.71-8.11,6,0,0,4.14.89,4.43,4.73s-4.43,23.34-4.43,23.34,2.07,9.16,1.77,14.18S462.65,319.9,462.65,319.9Z" fill="#272c6a"/>
        <path id="Trazado_836348" data-name="Trazado 836348" d="M420.71,218.71a5.876,5.876,0,0,1-4.53-2.95c-1.15-2.09-2.26-.89-3.61-2.52s-1.14-2.26-.18-1.78,3.7,1.04,4.39,1.85,3.55,2.25,3.98,3.38A2.521,2.521,0,0,1,420.71,218.71Z" fill="#ffac9e"/>
        <path id="Trazado_836349" data-name="Trazado 836349" d="M466.45,182.6h0a3.964,3.964,0,0,1-4.85-2.75L460.16,174a3.968,3.968,0,0,1,3.02-4.69h0a3.964,3.964,0,0,1,4.85,2.75l1.44,5.85A3.947,3.947,0,0,1,466.45,182.6Z" fill="#ffbdb3"/>
        <path id="Trazado_836350" data-name="Trazado 836350" d="M460.73,176.57l5.39-2.52s-1.99,3.44-3.47,4.03l-.3,4.43Z" fill="#e07972"/>
        <path id="Trazado_836351" data-name="Trazado 836351" d="M452.63,159.16s-2.09,14.17,4.45,18.89c0,0,2.79.36,8.41-2.97,4.65-2.75,5.12-14.77,3.24-16.22S454.94,149.22,452.63,159.16Z" fill="#ffbdb3"/>
        <path id="Trazado_836352" data-name="Trazado 836352" d="M452.61,160.06a5.2,5.2,0,0,0,3.84,3.55c3.25.89,4.73,1.48,5.02,2.36a1.879,1.879,0,0,0,.3-1.77c-.3-1.18-.3-2.66-.89-2.95,0,0,4.07,2.96,4.84,6.21,0,0-.71-5.3-4.84-7.67a57.013,57.013,0,0,0-7.39-3.61A13.785,13.785,0,0,0,452.61,160.06Z" fill="#e07972"/>
        <path id="Trazado_836353" data-name="Trazado 836353" d="M457.71,153.38s-7.46-2.47-8.05,6.65a8.832,8.832,0,0,0,1.48,4.47s-.91-1.87,1.77-6.2c0,0-1.09,2.85,4.21,3.76,5.07.87,5.07,4.34,5.07,4.34a6.494,6.494,0,0,0-.6-4.91,12.306,12.306,0,0,1-1.19-4.05s-1.49,2.31,1.79,4.05c3.35,1.77,5.97,12.43,2.98,15.9s-5.67,1.73-7.46,5.78c-1.53,3.45.6,4.63.89,9.25s-2.68,6.07-2.68,6.07,5.68-.35,6.86-8.38c1.19-8.09,8.15-5.4,9.14-4.29s2.19,3.42,2.49,11.52c0,0-.13-1.51,1.79-4.91,1.79-3.18,3.88-5.78-.3-14.17-3.8-7.62,2.39-19.66-4.18-24.86C467.43,149.97,461.29,150.2,457.71,153.38Z" fill="#283682"/>
        <path id="Trazado_836354" data-name="Trazado 836354" d="M465.67,168.75s2.2-2.61,3.38-.4-2.79,4.57-3.68,4.45Z" fill="#ffbdb3"/>
        <path id="Trazado_836355" data-name="Trazado 836355" d="M457.93,320.49a24.241,24.241,0,0,1-3.84,5.02c-1.22,1.02-4.73.3-7.09.89a3.938,3.938,0,0,0-2.66,2.36,63.126,63.126,0,0,0,11.82,0c7.09-.59,8.27-.3,8.86-.3a40.9,40.9,0,0,0-2.36-8.27Z" fill="#ff5475"/>
        <g id="Grupo_1094502" data-name="Grupo 1094502">
          <path id="Trazado_836356" data-name="Trazado 836356" d="M457.93,322.66h-2.07a.4.4,0,0,1,0-.8h2.07a.4.4,0,0,1,.4.4A.408.408,0,0,1,457.93,322.66Z" fill="#fff"/>
        </g>
        <g id="Grupo_1094503" data-name="Grupo 1094503">
          <path id="Trazado_836357" data-name="Trazado 836357" d="M457.34,323.84h-2.07a.4.4,0,1,1,0-.8h2.07a.4.4,0,0,1,.4.4A.408.408,0,0,1,457.34,323.84Z" fill="#fff"/>
        </g>
        <g id="Grupo_1094504" data-name="Grupo 1094504">
          <path id="Trazado_836358" data-name="Trazado 836358" d="M456.75,325.03h-2.07a.4.4,0,1,1,0-.8h2.07a.4.4,0,0,1,.4.4A.415.415,0,0,1,456.75,325.03Z" fill="#fff"/>
        </g>
        <path id="Trazado_836359" data-name="Trazado 836359" d="M444.34,329.65v-.89a83.8,83.8,0,0,0,8.86,0c2.36-.3,9.75-.59,10.64-.59a2.953,2.953,0,0,1,1.2.16l-.01,1.02C465.02,329.36,446.41,330.54,444.34,329.65Z" fill="#fff"/>
        <ellipse id="Elipse_11092" data-name="Elipse 11092" cx="2.22" cy="1.6" rx="2.22" ry="1.6" transform="translate(460.29 168.09)" fill="#ff8686"/>
        <path id="Trazado_836360" data-name="Trazado 836360" d="M454.39,173.24a1.639,1.639,0,0,0,1.72.98,7.719,7.719,0,0,0,2.75-1.63S456.47,173.06,454.39,173.24Z" fill="#ff8686"/>
        <path id="Trazado_836361" data-name="Trazado 836361" d="M455.56,175.13a3.052,3.052,0,0,0,2.36-.59s-.59,1.18-1.18,1.18A1.526,1.526,0,0,1,455.56,175.13Z" fill="#e07972"/>
        <path id="Trazado_836362" data-name="Trazado 836362" d="M452.02,164.85s0,1.01.89,1.01a1.563,1.563,0,0,1,1.18.34s.04-1.01-1.18-1.01C452.02,165.18,452.02,164.85,452.02,164.85Z" fill="#283682"/>
        <path id="Trazado_836363" data-name="Trazado 836363" d="M453.5,166.27a.59.59,0,1,1-.59-.59A.591.591,0,0,1,453.5,166.27Z" fill="#283682"/>
        <path id="Trazado_836364" data-name="Trazado 836364" d="M457.53,164.85s0,1.01,1.34,1.01a7.161,7.161,0,0,1,2.01.34,2.423,2.423,0,0,0-2.01-1.01A1.991,1.991,0,0,1,457.53,164.85Z" fill="#283682"/>
        <circle id="Elipse_11093" data-name="Elipse 11093" cx="0.67" cy="0.67" r="0.67" transform="translate(458.2 165.52)" fill="#283682"/>
        <path id="Trazado_836365" data-name="Trazado 836365" d="M457.04,163.31s-.3.59.89.89a10.233,10.233,0,0,1,3.55,1.18C461.47,165.38,460.88,163.31,457.04,163.31Z" fill="#283682"/>
        <path id="Trazado_836366" data-name="Trazado 836366" d="M454.09,163.31a1.058,1.058,0,0,1-.59.89,2.419,2.419,0,0,1-1.15.26l-.03-.71C452.32,163.74,453.5,163.02,454.09,163.31Z" fill="#283682"/>
        <path id="Trazado_836367" data-name="Trazado 836367" d="M464.13,152.68s6.5.3,7.98,4.73,1.18,6.5,1.18,6.5S476.84,152.09,464.13,152.68Z" fill="#fff"/>
        <g id="Grupo_1094505" data-name="Grupo 1094505">
          <path id="Trazado_836368" data-name="Trazado 836368" d="M474.58,196.18c.29-3.46.61-10.74-.7-13.37-1.48-2.95-1.48-8.86-1.48-8.86s-.3,7.09-5.61,8.57-5.32,5.91-6.2,10.34a7.436,7.436,0,0,1-4.29,5.56c1.28-.24,5.49-1.55,6.49-8.33,1.19-8.09,8.15-5.4,9.14-4.29s2.19,3.42,2.49,11.49A3.684,3.684,0,0,1,474.58,196.18Z" fill="#1b2766"/>
          <path id="Trazado_836369" data-name="Trazado 836369" d="M474.41,197.29Z" fill="#1b2766"/>
        </g>
      </g>
      <g id="Grupo_1094519" data-name="Grupo 1094519">
        <g id="Grupo_1094517" data-name="Grupo 1094517">
          <path id="Trazado_836370" data-name="Trazado 836370" d="M193.21,195.61s.64-3.34,8.12-8.06,8.23-5.11,8.23-5.11a11.712,11.712,0,0,1-2.02-3.26c-.28-1.21.16-5.05.08-5.63s1.7-.17,1.72.94.11,2.8.54,3.24a2.88,2.88,0,0,0,1.43.55s1.84-4.4,2.25-5.07a25.125,25.125,0,0,1,3.74-3.53c.53-.21.94,1.05-1.4,4.02l-1.01,2.23s1.4-2.08,1.89-2.59c1.06-1.08,2.33-1.92,2.8-1.82.81.17,1.26,1.96,1.5,2.65a6.321,6.321,0,0,1-1.69,5.15c-1.79,1.93-4.68,4.41-5.75,5.65s-14.06,14.41-16.71,16.28-2.75-.17-3.54-1.58A4.1,4.1,0,0,1,193.21,195.61Z" fill="#faa092"/>
          <path id="Trazado_836371" data-name="Trazado 836371" d="M178.47,179.34l16.75,14.89-.76,7.35a29.661,29.661,0,0,1-20.12-10.86c-3.29-3.94-3.93-6.89-3.46-9.03A4.619,4.619,0,0,1,178.47,179.34Z" fill="#0046cc"/>
          <path id="Trazado_836372" data-name="Trazado 836372" d="M194.01,192.05l-2.46,9.93,4.95.43-.07-11.03Z" fill="#5665c2"/>
          <g id="Grupo_1094516" data-name="Grupo 1094516">
            <g id="Grupo_1094510" data-name="Grupo 1094510">
              <path id="Trazado_836373" data-name="Trazado 836373" d="M147.86,308.71v1.28a11.415,11.415,0,0,0,6.94.79c3.93-.79,3.9-1.71,3.9-1.71l-.34-1.31Z" fill="#e3e9fe"/>
              <path id="Trazado_836374" data-name="Trazado 836374" d="M150,289.93l.42,7.91,5.38-.95.3-7.92Z" fill="#ffac9e"/>
              <path id="Trazado_836375" data-name="Trazado 836375" d="M166.85,289.36l1.13,8h4.96l.45-8.55Z" fill="#ffac9e"/>
              <path id="Trazado_836376" data-name="Trazado 836376" d="M150.07,291.1s-1.46-24-1.1-27.03.52-4.57.52-4.57l-.58-1.18,1.16-1.42s-.04-15.09,1.65-30.46l.39-3.9,26.83-4.36s-.04,27.01-.08,29.53-5.4,36.65-5.47,41.1l-6.54.55s-1.06-22.09,1.18-34.79l-.79-16.55-2.29.55s-4.61,18.6-5.08,23.33-3.78,27.9-3.78,27.9Z" fill="#009ecd"/>
              <g id="Grupo_1094507" data-name="Grupo 1094507">
                <path id="Trazado_836377" data-name="Trazado 836377" d="M150.84,290.88a183.5,183.5,0,0,1-.01-31.14l-.88-1.53,1.39-1.89,2.59-32.99.79.06-2.61,33.21-1.22,1.66.75,1.31-.02.13c-.01.12-1.41,12.23,0,31.12Z" fill="#00769b"/>
              </g>
              <g id="Grupo_1094508" data-name="Grupo 1094508">
                <path id="Trazado_836378" data-name="Trazado 836378" d="M166.94,287.55a169.921,169.921,0,0,1,2.47-33.01l-1.03-16.49-3.32.9-.21-.76,4.25-1.15,1.1,17.56-.01.05a168.687,168.687,0,0,0-2.46,32.89Z" fill="#00769b"/>
              </g>
              <path id="Trazado_836379" data-name="Trazado 836379" d="M149.04,289.21l.32,2.21a.893.893,0,0,0,.7.75,10.282,10.282,0,0,0,6.01-.83.885.885,0,0,0,.54-.82v-2.09a.9.9,0,0,0-.99-.89l-5.8.65A.9.9,0,0,0,149.04,289.21Z" fill="#a6eaff"/>
              <path id="Trazado_836380" data-name="Trazado 836380" d="M167.34,287.54a18.922,18.922,0,0,0,5.31-.11,1.072,1.072,0,0,1,1.26,1.04v1.84a1.05,1.05,0,0,1-.78,1.02c-1.43.39-4.48,1-6.45-.12a1.058,1.058,0,0,1-.53-.92v-1.7A1.058,1.058,0,0,1,167.34,287.54Z" fill="#a6eaff"/>
              <path id="Trazado_836381" data-name="Trazado 836381" d="M150.89,295.53l-.82,1.11a2.292,2.292,0,0,0-.44,1.62l.37,3.48s-1.08,3.09-1.7,5.67l9.75-.53s-1.8-3.81-1.95-5.38a18.207,18.207,0,0,1,.37-3.98,2.3,2.3,0,0,0-.22-1.46l-.39-.77Z" fill="#434f97"/>
              <path id="Trazado_836382" data-name="Trazado 836382" d="M151.18,305.87l.55-4.52s-1.42-4.67-.89-6.71,5.02.66,5.02.66l-1.18,6.2,1.42,4.2Z" fill="#5665c2"/>
              <path id="Trazado_836383" data-name="Trazado 836383" d="M147.86,308.71s1.42,1.28,5.31,1.28,5.17-1.56,5.17-1.56.77-3.29-5-2.88S147.86,308.71,147.86,308.71Z" fill="#fff"/>
              <g id="Grupo_1094509" data-name="Grupo 1094509">
                <path id="Trazado_836384" data-name="Trazado 836384" d="M151.07,303.77a.276.276,0,0,1-.26-.21.269.269,0,0,1,.21-.31l3.14-.61-2.98-.77a.267.267,0,0,1-.2-.26.257.257,0,0,1,.21-.25,15.618,15.618,0,0,0,2.68-.84,4.615,4.615,0,0,1-3.37-1.62.264.264,0,0,1,.42-.32h0a4.081,4.081,0,0,0,4.35,1.24.265.265,0,0,1,.31.15.268.268,0,0,1-.1.33,12.909,12.909,0,0,1-3.17,1.32l3.1.8a.267.267,0,0,1,.2.26.257.257,0,0,1-.21.25l-4.28.83A.09.09,0,0,1,151.07,303.77Z" fill="#fff"/>
              </g>
              <path id="Trazado_836385" data-name="Trazado 836385" d="M178.94,224.35s-15.91,5.63-27.45,4.34l.63-6.15,26.83-4.36Z" fill="#00769b"/>
            </g>
            <g id="Grupo_1094512" data-name="Grupo 1094512">
              <path id="Trazado_836386" data-name="Trazado 836386" d="M167.08,302.02a3.338,3.338,0,0,0,.07,2.07c.42.94,1.13.49,2.34,1.48a7.479,7.479,0,0,0,4.88,1.81c2.28.07,7.18.99,7.26-1.85l-.56-1.25a22.124,22.124,0,0,1-6.35.47C171.73,304.43,167.08,302.02,167.08,302.02Z" fill="#e3e9fe"/>
              <path id="Trazado_836387" data-name="Trazado 836387" d="M175.09,297.37s.89-3.05-1.45-3.61c-3.58-.86-4.95.6-4.51,4.05a3.813,3.813,0,0,0-1.08-1.79c-.37-.34-1.59.03-1.44.5a11.259,11.259,0,0,1,.51,5.13,2.3,2.3,0,0,0,1.71,2.56,4.662,4.662,0,0,1,1.6,1.06c.58.6,2.1,1.39,6.12,1.21,6.51-.29,4.84-2.49,2.8-3.39a11.6,11.6,0,0,1-2.5-1.73A4.137,4.137,0,0,1,175.09,297.37Z" fill="#434f97"/>
              <path id="Trazado_836388" data-name="Trazado 836388" d="M177.51,302.56s-1.98-.39-2.17-3.19c-.27-4.09.79-4.83-1.45-5.83-5.41-1.47-4.91,3.4-4.76,4.26,0,0,.34.4,2.12,2.42a14.918,14.918,0,0,1,2.6,3.76A9.994,9.994,0,0,1,177.51,302.56Z" fill="#5665c2"/>
              <path id="Trazado_836389" data-name="Trazado 836389" d="M181.63,305.52s-.36-2.65-4.12-2.97-4.58,1.23-4.97,3.82C172.54,306.38,180.53,307.84,181.63,305.52Z" fill="#fff"/>
              <g id="Grupo_1094511" data-name="Grupo 1094511">
                <path id="Trazado_836390" data-name="Trazado 836390" d="M171.45,301.83a.259.259,0,0,1-.26-.22.264.264,0,0,1,.17-.29c.48-.18.95-.33,1.39-.46a7.547,7.547,0,0,1-2.04-.58.282.282,0,0,1-.14-.31.264.264,0,0,1,.28-.19,11.465,11.465,0,0,0,4.43-.97.264.264,0,0,1,.22.48,14.094,14.094,0,0,1-3.19.95,7.961,7.961,0,0,0,2.57.14c.37-.06.6-.09.62-.09a.258.258,0,0,1,.29.22.267.267,0,0,1-.21.3c-.21.04-.41.07-.62.09-.44.08-1.09.2-1.83.4h3.1a.26.26,0,0,1,0,.52l-4.78.01Z" fill="#fff"/>
              </g>
            </g>
            <path id="Trazado_836391" data-name="Trazado 836391" d="M147.42,183.99l4.3,42.45s22.1-.3,27.48-3.64c0,0,.89-36.2-.71-43.17,0,0-1.94-3.29-8.23-3.58S146.5,177.25,147.42,183.99Z" fill="#005afd"/>
            <path id="Trazado_836392" data-name="Trazado 836392" d="M156.66,177.27s6.59,20.63,5.14,48.74c0,0,8.37.27,13.01-1.54,0,0,3.48-36.8-4.56-48.41A53.986,53.986,0,0,0,156.66,177.27Z" fill="#fff"/>
            <path id="Trazado_836393" data-name="Trazado 836393" d="M149.23,197.24s4.48,6.4,10.68,8.91l-.68,1.35,6.77,2.23,1.06-5.9-18.23-10.48Z" fill="#0046cc"/>
            <path id="Trazado_836394" data-name="Trazado 836394" d="M162.77,179.45l-6.1-2.18a38.3,38.3,0,0,1,13.6-1.21l-.71,1.1A5.79,5.79,0,0,1,162.77,179.45Z" fill="#ffac9e"/>
            <path id="Trazado_836395" data-name="Trazado 836395" d="M163.63,177.85H162.3a4.5,4.5,0,0,1-4.48-4.48v-3.22a4.5,4.5,0,0,1,4.48-4.48h1.33a4.5,4.5,0,0,1,4.48,4.48v3.22A4.492,4.492,0,0,1,163.63,177.85Z" fill="#ffac9e"/>
            <path id="Trazado_836396" data-name="Trazado 836396" d="M157.56,165.91s-.53,6.49,7.11,7.05h2.29l.65,4.03,2.65-.94-2.15-.15v-5.56l-10.17-4.56Z" fill="#ff8686"/>
            <path id="Trazado_836397" data-name="Trazado 836397" d="M156.47,163.64s1.79,6.49,4.49,6.99,6.36,1.46,9.61-.46,1.65-15.47.55-17.08-8.31-7.05-11.53-2.79S154.85,156.25,156.47,163.64Z" fill="#ffac9e"/>
            <path id="Trazado_836398" data-name="Trazado 836398" d="M158.05,164.88s-.67,3.9,2.55,5.66,5.81,1.4,8.15,1.36,4.56-.93,4.57-2.98-.93-2.65-.84-5.09.05-2.72.05-2.72l-1.04,3.08a8.372,8.372,0,0,0-6.82,1.54s-4.43-.26-5.95-2.69A5.876,5.876,0,0,0,158.05,164.88Z" fill="#5e1212"/>
            <path id="Trazado_836399" data-name="Trazado 836399" d="M157.36,171.11s.46-1.1.61-5.04a11.222,11.222,0,0,1,2.73-7.71s2.14-1.47.64-5.95c0,0,7.83,4.88,11.94,1.56s2.09-9.95,2.09-9.95-.15,3.94-3.16,5.14c0,0,.51-9.4-7.06-7.64-1.46.34-4.28,2.16-5.98.05a4.692,4.692,0,0,0,3.99,3.36s-2.31,1.11-3.85.15l.51,1.11a2.772,2.772,0,0,0-2.6,1.54,8.065,8.065,0,0,1-3.72,3.65,2.046,2.046,0,0,1-2.13-.1,1.6,1.6,0,0,0,2,1.68s-2.9,1.97-1.48,4.52S156.51,164.96,157.36,171.11Z" fill="#5e1212"/>
            <path id="Trazado_836400" data-name="Trazado 836400" d="M155.19,151.98c2.35-1.46,3.41-3.76,3.3-4.57-.09-.67.86-1.1,1.19-1.23a2.731,2.731,0,0,0-2.44,1.54,8.065,8.065,0,0,1-3.72,3.65,2.046,2.046,0,0,1-2.13-.1,1.6,1.6,0,0,0,2,1.68s-2.9,1.97-1.48,4.52,4.61,7.48,5.47,13.63a18.75,18.75,0,0,0,.57-5.33C155.65,165.27,152.92,153.39,155.19,151.98Z" fill="#4a1212"/>
            <path id="Trazado_836401" data-name="Trazado 836401" d="M165.87,151.57s2.71,2.81,6.15,1.54,3.02-5.33,3.02-5.33.12,3.48-3.93,4.2S165.87,151.57,165.87,151.57Z" fill="#915151"/>
            <path id="Trazado_836402" data-name="Trazado 836402" d="M167.95,142.99s1.23.41,1.88,2.96.15,3.2.15,3.2S172.34,142.96,167.95,142.99Z" fill="#915151"/>
            <path id="Trazado_836403" data-name="Trazado 836403" d="M168.67,143.05a4.454,4.454,0,0,1,1.88,3.8S171.74,143.07,168.67,143.05Z" fill="#fff"/>
            <path id="Trazado_836404" data-name="Trazado 836404" d="M159.43,161.76s-2.13-2.63-2.67-.21,1.18,4.23,2.37,4.36Z" fill="#ffac9e"/>
            <path id="Trazado_836405" data-name="Trazado 836405" d="M165.59,155.75a.322.322,0,0,1,.48.26,1.538,1.538,0,0,1-.32,1.23c-.54.49-3.72,1.9-4.09,2.4a2.306,2.306,0,0,1,.95-1.86A20.257,20.257,0,0,1,165.59,155.75Z" fill="#4a1212"/>
            <path id="Trazado_836406" data-name="Trazado 836406" d="M165.47,166.48a7.266,7.266,0,0,0,2.86.62c1.31-.08,2.42-1.92,2.42-1.92S168.91,165.01,165.47,166.48Z" fill="#fff"/>
            <path id="Trazado_836407" data-name="Trazado 836407" d="M162.65,160.55a2.162,2.162,0,0,1,1.45-1.31c1.23-.46,1.54.42,1.54.42a2.69,2.69,0,0,0-1.56.1A4.19,4.19,0,0,0,162.65,160.55Z" fill="#4a1212"/>
            <path id="Trazado_836408" data-name="Trazado 836408" d="M169.23,159.17a2.177,2.177,0,0,1,1.67-1.01c1.3-.21,1.43.71,1.43.71a2.809,2.809,0,0,0-1.55-.21A4.4,4.4,0,0,0,169.23,159.17Z" fill="#4a1212"/>
            <path id="Trazado_836409" data-name="Trazado 836409" d="M171.99,156.36a9.262,9.262,0,0,0-2.45-.35.32.32,0,0,0-.29.47,1.371,1.371,0,0,0,1.22.97c.61.13,1.2.21,1.72.28C172.12,157.25,172.06,156.79,171.99,156.36Z" fill="#4a1212"/>
            <g id="Grupo_1094513" data-name="Grupo 1094513">
              <path id="Trazado_836410" data-name="Trazado 836410" d="M163.33,163.14a3.015,3.015,0,0,1-2.99-2.67,3.017,3.017,0,1,1,3.34,2.66C163.56,163.13,163.44,163.14,163.33,163.14Zm.01-5.5a2.822,2.822,0,0,0-.29.02,2.512,2.512,0,0,0-1.67.92,2.463,2.463,0,0,0-.52,1.83,2.491,2.491,0,0,0,4.42,1.27,2.463,2.463,0,0,0,.52-1.83,2.512,2.512,0,0,0-.92-1.67A2.469,2.469,0,0,0,163.34,157.64Z" fill="#5e82ff"/>
            </g>
            <g id="Grupo_1094514" data-name="Grupo 1094514">
              <path id="Trazado_836411" data-name="Trazado 836411" d="M171.31,161.74a3.016,3.016,0,1,1,.35-.02A2.055,2.055,0,0,1,171.31,161.74Zm.01-5.5a2.633,2.633,0,0,0-.28.02,2.486,2.486,0,1,0,2.23,4.02,2.463,2.463,0,0,0,.52-1.83A2.5,2.5,0,0,0,171.32,156.24Z" fill="#5e82ff"/>
            </g>
            <g id="Grupo_1094515" data-name="Grupo 1094515">
              <path id="Trazado_836412" data-name="Trazado 836412" d="M166.26,159.76l-.45-.26a2.311,2.311,0,0,1,2.85-.7l-.16.5C166.86,158.76,166.27,159.75,166.26,159.76Z" fill="#5e82ff"/>
            </g>
          </g>
        </g>
        <g id="Grupo_1094518" data-name="Grupo 1094518">
          <path id="Trazado_836413" data-name="Trazado 836413" d="M165.82,201s1.59-3.2,10.49-5.85,9.76-2.85,9.76-2.85a12.32,12.32,0,0,1-1.12-3.87c.06-1.3,1.59-5.06,1.67-5.67s1.77.31,1.48,1.44-.68,2.87-.37,3.43a2.987,2.987,0,0,0,1.29.96s3.11-3.93,3.71-4.49a25.784,25.784,0,0,1,4.78-2.51c.59-.06.65,1.33-2.55,3.67l-1.65,1.97s2-1.71,2.64-2.08c1.38-.8,2.9-1.29,3.35-1.05.77.4.72,2.34.76,3.1a6.641,6.641,0,0,1-3.16,4.73c-2.35,1.45-5.98,3.14-7.42,4.09s-18.28,10.6-21.5,11.74-2.73-.95-3.14-2.6A4.3,4.3,0,0,1,165.82,201Z" fill="#ffac9e"/>
          <path id="Trazado_836414" data-name="Trazado 836414" d="M152.85,178.34l14.22,22.1-2.71,6.87a29.629,29.629,0,0,1-16.45-15.87C142.29,178.96,152.85,178.34,152.85,178.34Z" fill="#005afd"/>
          <path id="Trazado_836415" data-name="Trazado 836415" d="M166.49,198.02l-5.04,8.91,4.65,1.74,2.9-10.65Z" fill="#5665c2"/>
        </g>
      </g>
      <path id="Trazado_836416" data-name="Trazado 836416" d="M201.12,106.7,237,116.83a6.065,6.065,0,0,1,4.14,7.44l-5.1,18.55a5.969,5.969,0,0,1-7.34,4.2l-23.78-6.72-6.67-1.6c-1.82-.68-5.41-1.81-5.41-1.81a6.065,6.065,0,0,1-4.14-7.44l5.1-18.55A5.944,5.944,0,0,1,201.12,106.7Z" fill="#5e82ff"/>
      <path id="Trazado_836417" data-name="Trazado 836417" d="M199.89,107.59l35.89,9.95a5.973,5.973,0,0,1,4.15,7.33l-5.07,18.29a5.973,5.973,0,0,1-7.33,4.15l-23.79-6.6-9.65,4.47a2.051,2.051,0,0,1-2.84-2.41l1.42-5.13-1.03-.28a5.973,5.973,0,0,1-4.15-7.33l5.07-18.29A5.971,5.971,0,0,1,199.89,107.59Z" fill="#fff"/>
      <path id="Trazado_836418" data-name="Trazado 836418" d="M230.32,125.22a.407.407,0,0,1-.19-.13l-2.09-2.7a2.487,2.487,0,0,0-2.84-.83l-1.23.44a3.237,3.237,0,0,1-3.7-1.08l-.8-1.03a2.487,2.487,0,0,0-2.84-.83l-1.04.37a3.24,3.24,0,0,1-3.88-1.33l-.15-.24a2.475,2.475,0,0,0-2.98-1.02l-1.04.37a3.237,3.237,0,0,1-3.7-1.08l-.8-1.03a2.487,2.487,0,0,0-2.84-.83l-3.21,1.15a.377.377,0,0,1-.49-.25.426.426,0,0,1,.25-.52l3.21-1.15a3.237,3.237,0,0,1,3.7,1.08l.8,1.03a2.487,2.487,0,0,0,2.84.83l1.04-.37a3.24,3.24,0,0,1,3.88,1.33l.15.24a2.475,2.475,0,0,0,2.98,1.02l1.04-.37a3.237,3.237,0,0,1,3.7,1.08l.8,1.03a2.487,2.487,0,0,0,2.84.83l1.23-.44a3.237,3.237,0,0,1,3.7,1.08l2.09,2.7a.421.421,0,0,1-.07.57A.4.4,0,0,1,230.32,125.22Z" fill="#5e82ff"/>
      <path id="Trazado_836419" data-name="Trazado 836419" d="M226.86,137.09a.407.407,0,0,1-.19-.13l-2.09-2.7a2.487,2.487,0,0,0-2.84-.83l-1.23.44a3.237,3.237,0,0,1-3.7-1.08l-.8-1.03a2.487,2.487,0,0,0-2.84-.83l-1.04.37a3.24,3.24,0,0,1-3.88-1.33l-.15-.24a2.475,2.475,0,0,0-2.98-1.02l-1.04.37a3.237,3.237,0,0,1-3.7-1.08l-.8-1.03a2.487,2.487,0,0,0-2.84-.83l-3.21,1.15a.377.377,0,0,1-.49-.25.426.426,0,0,1,.25-.52l3.21-1.15a3.237,3.237,0,0,1,3.7,1.08l.8,1.03a2.487,2.487,0,0,0,2.84.83l1.04-.37a3.24,3.24,0,0,1,3.88,1.33l.15.24a2.475,2.475,0,0,0,2.98,1.02l1.04-.37a3.237,3.237,0,0,1,3.7,1.08l.8,1.03a2.487,2.487,0,0,0,2.84.83l1.23-.44a3.237,3.237,0,0,1,3.7,1.08l2.09,2.7a.421.421,0,0,1-.07.57A.408.408,0,0,1,226.86,137.09Z" fill="#5e82ff"/>
      <path id="Trazado_836420" data-name="Trazado 836420" d="M195,121.37a.378.378,0,0,1-.26-.26.426.426,0,0,1,.25-.52l3.21-1.15a3.237,3.237,0,0,1,3.7,1.08l.8,1.03a2.487,2.487,0,0,0,2.84.83l1.04-.37a3.24,3.24,0,0,1,3.88,1.33l.15.24a2.475,2.475,0,0,0,2.98,1.02l1.04-.37a3.237,3.237,0,0,1,3.7,1.08.421.421,0,0,1-.07.57.377.377,0,0,1-.55-.06,2.487,2.487,0,0,0-2.84-.83l-1.04.37a3.24,3.24,0,0,1-3.88-1.33l-.15-.24a2.475,2.475,0,0,0-2.98-1.02l-1.04.37a3.237,3.237,0,0,1-3.7-1.08l-.8-1.03a2.487,2.487,0,0,0-2.84-.83l-3.21,1.15A.312.312,0,0,1,195,121.37Z" fill="#5e82ff"/>
      <g id="Grupo_1094521" data-name="Grupo 1094521">
        <circle id="Elipse_11094" data-name="Elipse 11094" cx="8.23" cy="8.23" r="8.23" transform="translate(228.997 119.842) rotate(-42.382)" fill="#ff5475"/>
        <g id="Grupo_1094520" data-name="Grupo 1094520">
          <path id="Trazado_836421" data-name="Trazado 836421" d="M240.02,122.1l.71.19a.756.756,0,0,0,.9-.43l2.47-5.69a.77.77,0,0,0-.5-1.04l-2.4-.66a.766.766,0,0,0-.96.64l-.78,6.15A.781.781,0,0,0,240.02,122.1Z" fill="#fff"/>
          <path id="Trazado_836422" data-name="Trazado 836422" d="M241.39,124.96a1.71,1.71,0,1,1-1.2-2.1A1.711,1.711,0,0,1,241.39,124.96Z" fill="#fff"/>
        </g>
      </g>
      <g id="Grupo_1094522" data-name="Grupo 1094522">
        <path id="Trazado_836423" data-name="Trazado 836423" d="M496.74,64.19,491.67,94.4,420.58,23.37Z" fill="#a6c5fe"/>
        <path id="Trazado_836424" data-name="Trazado 836424" d="M496.74,64.19l32.67-13.83L420.58,23.37Z" fill="#d9e6ff"/>
        <path id="Trazado_836425" data-name="Trazado 836425" d="M484.89,71.83l6.78,22.57L420.58,23.37Z" fill="#81a8d2"/>
        <path id="Trazado_836426" data-name="Trazado 836426" d="M422.42,22.76l25.01,74.17,39.3-25.72Z" fill="#d9e6ff"/>
      </g>
    </g>
  </g>
</svg>
