<svg xmlns="http://www.w3.org/2000/svg" width="123.184" height="123.195" viewBox="0 0 123.184 123.195">
  <g id="_3" data-name="3" transform="translate(-7.115 -9.277)">
    <g id="Grupo_1094535" data-name="Grupo 1094535">
      <path id="Trazado_836427" data-name="Trazado 836427" d="M99.36,101.53a43.373,43.373,0,0,1-51.66,7.28l1.92-1.14-.29-1.35a20.656,20.656,0,0,0-1.15-3.68,20.406,20.406,0,0,0-1.81-3.39l-.76-1.15-3.51.91a1.275,1.275,0,0,1-1.14-.29l-.11-.15-.1-.06a1.273,1.273,0,0,1-.27-1.1l.89-3.53-1.16-.75a20.8,20.8,0,0,0-7.06-2.9l-1.36-.28-1.08,1.84A43.363,43.363,0,0,1,89.72,32.97L87.8,34.11l.29,1.35a20.156,20.156,0,0,0,1.15,3.66,20.453,20.453,0,0,0,1.81,3.4l.76,1.16,3.51-.92a1.254,1.254,0,0,1,1.21.36l.1.1a1.253,1.253,0,0,1,.3,1.14l-.89,3.53,1.17.75a20.768,20.768,0,0,0,7.07,2.9l1.36.28L106.71,50A43.375,43.375,0,0,1,99.36,101.53Z" fill="#00c4ff"/>
      <g id="Grupo_1094525" data-name="Grupo 1094525">
        <g id="Grupo_1094524" data-name="Grupo 1094524">
          <path id="Trazado_836428" data-name="Trazado 836428" d="M96.76,70.88A28.06,28.06,0,1,0,68.7,98.93,28.063,28.063,0,0,0,96.76,70.88Z" fill="#005afd"/>
        </g>
        <path id="Trazado_836429" data-name="Trazado 836429" d="M86.5,65.89,65.9,86.45,51.97,72.52l5.91-5.92,8.02,8.02L80.55,59.94Z" fill="#fff"/>
      </g>
      <g id="Grupo_1094534" data-name="Grupo 1094534">
        <g id="Grupo_1094533" data-name="Grupo 1094533">
          <g id="Grupo_1094532" data-name="Grupo 1094532">
            <g id="Grupo_1094528" data-name="Grupo 1094528">
              <g id="Grupo_1094527" data-name="Grupo 1094527">
                <g id="Grupo_1094526" data-name="Grupo 1094526">
                  <path id="Trazado_836430" data-name="Trazado 836430" d="M12.98,121.12l2.17-.57a3.192,3.192,0,0,1,3.07.86c.01.01.02.02.03.02a3.2,3.2,0,0,1,.88,3.06l-.55,2.18A18.783,18.783,0,0,0,25,129.3l1.14-1.94a3.2,3.2,0,0,1,2.78-1.55h.04a3.2,3.2,0,0,1,2.78,1.54l1.14,1.92a19.413,19.413,0,0,0,3.33-1.04,18.842,18.842,0,0,0,3.08-1.64l-.57-2.17a3.191,3.191,0,0,1,.86-3.06l.03-.03a3.224,3.224,0,0,1,3.06-.89l2.18.55a19.26,19.26,0,0,0,2.63-6.41l-1.94-1.14a3.2,3.2,0,0,1-1.55-2.77v-.04a3.173,3.173,0,0,1,1.54-2.78l1.93-1.15a18.57,18.57,0,0,0-2.68-6.4l-2.18.57a3.221,3.221,0,0,1-3.06-.86c-.01-.01-.02-.02-.03-.02a3.2,3.2,0,0,1-.89-3.06l.55-2.19a19.138,19.138,0,0,0-6.41-2.63l-1.15,1.95a3.123,3.123,0,0,1-2.71,1.55h-.17a3.142,3.142,0,0,1-2.72-1.54l-1.15-1.93a18.789,18.789,0,0,0-6.4,2.68L19.03,97a3.147,3.147,0,0,1-.81,3.02,1.2,1.2,0,0,0-.11.12,3.138,3.138,0,0,1-3.01.84l-2.18-.55a18.9,18.9,0,0,0-2.63,6.42l1.94,1.13a3.213,3.213,0,0,1,1.56,2.78v.04a3.232,3.232,0,0,1-1.53,2.78l-1.93,1.15a18.724,18.724,0,0,0,1.04,3.32A16.617,16.617,0,0,0,12.98,121.12Zm24.66-14.07a9.51,9.51,0,1,1-12.44-5.12A9.5,9.5,0,0,1,37.64,107.05Z" fill="#005afd"/>
                </g>
                <path id="Trazado_836431" data-name="Trazado 836431" d="M24.37,112.6a4.883,4.883,0,1,1,6.39,2.62A4.882,4.882,0,0,1,24.37,112.6Z" fill="#7c3eff"/>
              </g>
            </g>
            <g id="Grupo_1094531" data-name="Grupo 1094531">
              <g id="Grupo_1094530" data-name="Grupo 1094530">
                <g id="Grupo_1094529" data-name="Grupo 1094529">
                  <path id="Trazado_836432" data-name="Trazado 836432" d="M92.65,41.45l2.17-.57a3.192,3.192,0,0,1,3.07.86c.01.01.02.02.03.02a3.2,3.2,0,0,1,.88,3.06L98.25,47a18.783,18.783,0,0,0,6.42,2.63l1.14-1.94a3.2,3.2,0,0,1,2.78-1.55h.04a3.2,3.2,0,0,1,2.78,1.54l1.14,1.92a19.412,19.412,0,0,0,3.33-1.04,18.842,18.842,0,0,0,3.08-1.64l-.57-2.17a3.191,3.191,0,0,1,.86-3.06l.03-.03a3.224,3.224,0,0,1,3.06-.89l2.18.55a19.26,19.26,0,0,0,2.63-6.41l-1.94-1.14A3.2,3.2,0,0,1,123.66,31v-.04a3.173,3.173,0,0,1,1.54-2.78l1.93-1.15a18.57,18.57,0,0,0-2.68-6.4l-2.18.57a3.221,3.221,0,0,1-3.06-.86l-.03-.03a3.2,3.2,0,0,1-.89-3.06l.55-2.19a19.138,19.138,0,0,0-6.41-2.63l-1.15,1.95a3.123,3.123,0,0,1-2.71,1.55h-.17a3.142,3.142,0,0,1-2.72-1.54l-1.15-1.93a18.789,18.789,0,0,0-6.4,2.68l.57,2.18a3.147,3.147,0,0,1-.81,3.02,1.2,1.2,0,0,0-.11.12,3.138,3.138,0,0,1-3.01.84l-2.18-.55a18.9,18.9,0,0,0-2.63,6.42L91.9,28.3a3.213,3.213,0,0,1,1.56,2.78v.04a3.232,3.232,0,0,1-1.53,2.78L90,35.05a18.724,18.724,0,0,0,1.04,3.32A17,17,0,0,0,92.65,41.45Zm24.67-14.08a9.51,9.51,0,1,1-12.44-5.12A9.5,9.5,0,0,1,117.32,27.37Z" fill="#005afd"/>
                </g>
                <path id="Trazado_836433" data-name="Trazado 836433" d="M104.04,32.92a4.883,4.883,0,1,1,6.39,2.62A4.882,4.882,0,0,1,104.04,32.92Z" fill="#7c3eff"/>
              </g>
            </g>
          </g>
        </g>
        <path id="Trazado_836434" data-name="Trazado 836434" d="M28.03,30.19a57.537,57.537,0,0,1,62.89-12.4l3.09-3.09A61.613,61.613,0,0,0,12.54,96.18l3.09-3.09A57.535,57.535,0,0,1,28.03,30.19Zm81.36,81.36a57.537,57.537,0,0,1-62.89,12.4l-3.1,3.1a61.61,61.61,0,0,0,81.47-81.47l-3.09,3.09A57.5,57.5,0,0,1,109.39,111.55Z" fill="#d1bbff"/>
      </g>
    </g>
  </g>
</svg>
