<svg xmlns="http://www.w3.org/2000/svg" xmlns:xlink="http://www.w3.org/1999/xlink" width="465.96" height="151.86" viewBox="0 0 465.96 151.86">
  <defs>
    <clipPath id="clip-path">
      <path id="Trazado_836532" data-name="Trazado 836532" d="M163.61,137.87a8.03,8.03,0,1,1-8.03-8.03A8.03,8.03,0,0,1,163.61,137.87Z"/>
    </clipPath>
    <linearGradient id="linear-gradient" x1="0.052" y1="0.502" x2="2" y2="0.502" gradientUnits="objectBoundingBox">
      <stop offset="0" stop-color="#03bffa"/>
      <stop offset="0.98" stop-color="#0059f9"/>
    </linearGradient>
    <clipPath id="clip-path-4">
      <path id="Trazado_836538" data-name="Trazado 836538" d="M155.58,128.48a9.38,9.38,0,1,0,9.38,9.38A9.381,9.381,0,0,0,155.58,128.48Zm0,18.38a8.99,8.99,0,1,1,8.99-8.99A8.99,8.99,0,0,1,155.58,146.86Z"/>
    </clipPath>
    <clipPath id="clip-path-5">
      <path id="Trazado_836541" data-name="Trazado 836541" d="M176.08,155.77a8.03,8.03,0,1,1-8.03-8.03A8.03,8.03,0,0,1,176.08,155.77Z"/>
    </clipPath>
    <linearGradient id="linear-gradient-2" x1="0.054" y1="0.502" x2="2.001" y2="0.502" xlink:href="#linear-gradient"/>
    <clipPath id="clip-path-8">
      <path id="Trazado_836547" data-name="Trazado 836547" d="M168.05,146.39a9.38,9.38,0,1,0,9.38,9.38A9.381,9.381,0,0,0,168.05,146.39Zm0,18.37a8.99,8.99,0,1,1,8.99-8.99A8.99,8.99,0,0,1,168.05,164.76Z"/>
    </clipPath>
    <clipPath id="clip-path-9">
      <path id="Trazado_836550" data-name="Trazado 836550" d="M149.12,151.32a8.03,8.03,0,1,1-8.03-8.03A8.03,8.03,0,0,1,149.12,151.32Z"/>
    </clipPath>
    <linearGradient id="linear-gradient-3" x1="0.053" y1="0.501" x2="2" y2="0.501" xlink:href="#linear-gradient"/>
    <clipPath id="clip-path-12">
      <path id="Trazado_836556" data-name="Trazado 836556" d="M141.09,141.94a9.38,9.38,0,1,0,9.38,9.38A9.381,9.381,0,0,0,141.09,141.94Zm0,18.37a8.99,8.99,0,1,1,8.99-8.99A8.99,8.99,0,0,1,141.09,160.31Z"/>
    </clipPath>
  </defs>
  <g id="_4" data-name="4" transform="translate(-9.94 -13.29)">
    <g id="Grupo_1094808" data-name="Grupo 1094808">
      <g id="Eye_00000086660595811207738210000018259988560895483016_">
        <path id="Trazado_836441" data-name="Trazado 836441" d="M224.44,118.73c-15.34,0-26.76,14.51-26.76,14.51-.85,0,10.85,14.51,26.76,14.51,15.93,0,26.58-14.51,26.58-14.51S238.45,118.73,224.44,118.73Z" fill="#d9f6ff"/>
        <path id="Trazado_836442" data-name="Trazado 836442" d="M237.18,133.24a12.74,12.74,0,1,1-12.74-12.74A12.741,12.741,0,0,1,237.18,133.24Z" fill="#00c4ff"/>
        <path id="Trazado_836443" data-name="Trazado 836443" d="M231.15,133.24a6.7,6.7,0,1,1-6.7-6.71A6.7,6.7,0,0,1,231.15,133.24Z" fill="#002775"/>
        <path id="Trazado_836444" data-name="Trazado 836444" d="M232.61,128.42a3.35,3.35,0,1,1-3.35-3.35A3.35,3.35,0,0,1,232.61,128.42Z" fill="#fff"/>
      </g>
      <g id="Grupo_1094574" data-name="Grupo 1094574">
        <g id="Grupo_1094572" data-name="Grupo 1094572">
          <path id="Trazado_836445" data-name="Trazado 836445" d="M225.16,50.64c.36,0,.71.03,1.06.05a28.794,28.794,0,0,1-.34-4.39,28.506,28.506,0,0,1,56.65-4.52,22.044,22.044,0,0,1,2.31-.13,21.38,21.38,0,1,1,0,42.76H225.16a16.885,16.885,0,1,1,0-33.77Z" fill="#ebe3ff"/>
          <path id="Trazado_836446" data-name="Trazado 836446" d="M325.05,83.86c-.31,0-.61.03-.92.05a25.12,25.12,0,0,0,.29-3.81,24.737,24.737,0,0,0-49.16-3.93,19,19,0,0,0-2-.11,18.55,18.55,0,1,0,0,37.1h51.79a14.65,14.65,0,0,0,0-29.3Z" fill="#a6eaff"/>
        </g>
        <g id="Grupo_1094573" data-name="Grupo 1094573">
          <path id="Trazado_836447" data-name="Trazado 836447" d="M314.19,39.62a24.831,24.831,0,0,0-17.71-12.68,24.557,24.557,0,0,0-14.55,2.03l1.43,3.04a21.154,21.154,0,0,1,12.56-1.75A21.4,21.4,0,0,1,310.68,40.3L306,38.93l9.56,13.14,2.38-16.08Z" fill="#002775"/>
          <path id="Trazado_836448" data-name="Trazado 836448" d="M240.5,108.46a21.4,21.4,0,0,1-14.76-10.04l4.68,1.37-9.56-13.14-2.38,16.08,3.77-3.63a24.831,24.831,0,0,0,17.71,12.68,25.156,25.156,0,0,0,4.05.34,24.645,24.645,0,0,0,10.5-2.36l-1.43-3.04A21.37,21.37,0,0,1,240.5,108.46Z" fill="#002775"/>
        </g>
      </g>
      <g id="Grupo_1094575" data-name="Grupo 1094575">
        <path id="Trazado_836449" data-name="Trazado 836449" d="M93.14,39.04V62.88a1.351,1.351,0,0,1-1.35,1.35H86.87v5.23l-6.14-5.23H57.5a1.351,1.351,0,0,1-1.35-1.35V53.39l17.67-15.7H91.79A1.344,1.344,0,0,1,93.14,39.04Z" fill="#03bffa"/>
        <path id="Trazado_836450" data-name="Trazado 836450" d="M73.82,24.81V51.9a1.472,1.472,0,0,1-1.47,1.47H46.25l-7.06,5.89V53.37H33.47a1.351,1.351,0,0,1-1.35-1.35V24.81a1.351,1.351,0,0,1,1.35-1.35h39A1.351,1.351,0,0,1,73.82,24.81Z" fill="#d9e6ff"/>
      </g>
      <g id="Grupo_1094578" data-name="Grupo 1094578">
        <g id="Grupo_1094576" data-name="Grupo 1094576">
          <path id="Trazado_836451" data-name="Trazado 836451" d="M281.29,142.19l-21.51,18.85v-37.7Z" fill="#03bffa"/>
          <path id="Trazado_836452" data-name="Trazado 836452" d="M320.92,123.34v37.7L299.4,142.19Z" fill="#03bffa"/>
        </g>
        <g id="Grupo_1094577" data-name="Grupo 1094577">
          <path id="Trazado_836453" data-name="Trazado 836453" d="M281.29,142.19l-21.51,18.85v-37.7Z" fill="#009ecd"/>
          <path id="Trazado_836454" data-name="Trazado 836454" d="M320.92,123.34v37.7L299.4,142.19Z" fill="#009ecd"/>
        </g>
        <path id="Trazado_836455" data-name="Trazado 836455" d="M320.92,161.04H259.78l21.51-18.85,9.06,7.93,9.05-7.93Z" fill="#03bffa"/>
        <path id="Trazado_836456" data-name="Trazado 836456" d="M320.92,123.34,299.4,142.19l-9.05,7.93-9.06-7.93-21.51-18.85Z" fill="#0840a8"/>
        <path id="Trazado_836457" data-name="Trazado 836457" d="M320.92,123.34l-30.57,25.22-30.57-25.22Z" fill="#d9e6ff"/>
      </g>
      <g id="Grupo_1094595" data-name="Grupo 1094595">
        <path id="Trazado_836458" data-name="Trazado 836458" d="M35.07,142.46V83.61a3.653,3.653,0,0,1,3.66-3.65H99.8a3.653,3.653,0,0,1,3.66,3.65v58.85a3.662,3.662,0,0,1-3.66,3.66H38.72A3.653,3.653,0,0,1,35.07,142.46Z" fill="#d7e0fc"/>
        <rect id="Rectángulo_387383" data-name="Rectángulo 387383" width="13.26" height="8.99" transform="translate(62.63 146.12)" fill="#0840a8"/>
        <rect id="Rectángulo_387384" data-name="Rectángulo 387384" width="26.37" height="3.18" transform="translate(56.07 153.51)" fill="#0840a8"/>
        <g id="Grupo_1094594" data-name="Grupo 1094594">
          <g id="Grupo_1094579" data-name="Grupo 1094579">
            <path id="Trazado_836459" data-name="Trazado 836459" d="M97.02,104.41H41.49a2.77,2.77,0,0,0-2.77,2.77V118.9a2.77,2.77,0,0,0,2.77,2.77H97.02a2.77,2.77,0,0,0,2.77-2.77V107.18A2.77,2.77,0,0,0,97.02,104.41Z" fill="#0840a8"/>
            <path id="Trazado_836460" data-name="Trazado 836460" d="M41.49,142.46H97.02a2.77,2.77,0,0,0,2.77-2.77V127.97a2.77,2.77,0,0,0-2.77-2.77H41.49a2.77,2.77,0,0,0-2.77,2.77v11.72A2.77,2.77,0,0,0,41.49,142.46Z" fill="#0840a8"/>
            <path id="Trazado_836461" data-name="Trazado 836461" d="M97.02,100.87H41.49a2.77,2.77,0,0,1-2.77-2.77V86.38a2.77,2.77,0,0,1,2.77-2.77H97.02a2.77,2.77,0,0,1,2.77,2.77V98.1A2.77,2.77,0,0,1,97.02,100.87Z" fill="#0840a8"/>
          </g>
          <g id="Grupo_1094592" data-name="Grupo 1094592">
            <g id="Grupo_1094583" data-name="Grupo 1094583">
              <g id="Grupo_1094582" data-name="Grupo 1094582">
                <g id="Grupo_1094580" data-name="Grupo 1094580">
                  <path id="Trazado_836462" data-name="Trazado 836462" d="M52.6,133.24H43a.6.6,0,0,1,0-1.2h9.6a.6.6,0,0,1,0,1.2Z" fill="#03bffa"/>
                </g>
                <g id="Grupo_1094581" data-name="Grupo 1094581">
                  <path id="Trazado_836463" data-name="Trazado 836463" d="M52.6,136.9H43a.6.6,0,0,1,0-1.2h9.6a.6.6,0,0,1,0,1.2Z" fill="#03bffa"/>
                </g>
              </g>
            </g>
            <g id="Grupo_1094587" data-name="Grupo 1094587">
              <g id="Grupo_1094586" data-name="Grupo 1094586">
                <g id="Grupo_1094584" data-name="Grupo 1094584">
                  <path id="Trazado_836464" data-name="Trazado 836464" d="M52.6,91.64H43a.6.6,0,1,1,0-1.2h9.6a.6.6,0,0,1,.6.6A.6.6,0,0,1,52.6,91.64Z" fill="#03bffa"/>
                </g>
                <g id="Grupo_1094585" data-name="Grupo 1094585">
                  <path id="Trazado_836465" data-name="Trazado 836465" d="M52.6,95.3H43a.6.6,0,1,1,0-1.2h9.6a.6.6,0,1,1,0,1.2Z" fill="#03bffa"/>
                </g>
              </g>
            </g>
            <g id="Grupo_1094591" data-name="Grupo 1094591">
              <g id="Grupo_1094590" data-name="Grupo 1094590">
                <g id="Grupo_1094588" data-name="Grupo 1094588">
                  <path id="Trazado_836466" data-name="Trazado 836466" d="M52.6,112.44H43a.6.6,0,0,1,0-1.2h9.6a.6.6,0,1,1,0,1.2Z" fill="#03bffa"/>
                </g>
                <g id="Grupo_1094589" data-name="Grupo 1094589">
                  <path id="Trazado_836467" data-name="Trazado 836467" d="M52.6,116.1H43a.6.6,0,1,1,0-1.2h9.6a.6.6,0,1,1,0,1.2Z" fill="#03bffa"/>
                </g>
              </g>
            </g>
          </g>
          <g id="Grupo_1094593" data-name="Grupo 1094593">
            <path id="Trazado_836468" data-name="Trazado 836468" d="M92.97,134.47a3.05,3.05,0,1,1-3.05-3.05A3.049,3.049,0,0,1,92.97,134.47Z" fill="#03bffa"/>
            <path id="Trazado_836469" data-name="Trazado 836469" d="M92.97,92.87a3.05,3.05,0,1,1-3.05-3.05A3.049,3.049,0,0,1,92.97,92.87Z" fill="#03bffa"/>
            <path id="Trazado_836470" data-name="Trazado 836470" d="M92.97,113.27a3.05,3.05,0,1,1-3.05-3.05A3.049,3.049,0,0,1,92.97,113.27Z" fill="#03bffa"/>
          </g>
        </g>
      </g>
      <path id="Trazado_836471" data-name="Trazado 836471" d="M233.08,60.76l5.19-2.15-.41-5.5,2.42-2.42,5.5.41,2.15-5.19-4.18-3.6V38.88l4.18-3.6-2.15-5.2-5.5.41-2.42-2.42.41-5.5-5.19-2.15-3.6,4.18h-3.43l-3.6-4.18-5.19,2.15.41,5.5-2.42,2.42-5.5-.41-2.15,5.19,4.18,3.6V42.3l-4.18,3.6,2.15,5.2,5.5-.41,2.42,2.42-.41,5.5,5.19,2.15,3.6-4.18h3.43Zm-14-16.58a9.39,9.39,0,1,1,12.27,5.08A9.386,9.386,0,0,1,219.08,44.18Z" fill="#d1bbff"/>
      <path id="Trazado_836472" data-name="Trazado 836472" d="M253.8,153.81V152l-1.68-.55-.42-1.01.79-1.58-1.27-1.27-1.58.8-1.01-.42-.55-1.68h-1.8l-.55,1.68-1.01.42-1.58-.8-1.27,1.27.79,1.58-.42,1.01-1.68.55v1.8l1.68.55.42,1.01-.79,1.58,1.27,1.27,1.58-.8,1.01.42.55,1.68h1.8l.55-1.68,1.01-.42,1.58.8,1.27-1.27-.79-1.58.42-1.01Zm-6.63,2.1a3.01,3.01,0,1,1,3.01-3.01A3.013,3.013,0,0,1,247.17,155.91Z" fill="#03bffa"/>
      <g id="Grupo_1094596" data-name="Grupo 1094596">
        <path id="Trazado_836473" data-name="Trazado 836473" d="M209.62,85.4V82.13l-3.05-1.01-.76-1.84,1.45-2.87-2.32-2.32-2.87,1.45-1.84-.76-1.01-3.05h-3.28l-1.01,3.05-1.84.76-2.87-1.45-2.32,2.32,1.45,2.87-.76,1.84-3.05,1.01V85.4l3.05,1.01.76,1.84-1.45,2.87,2.32,2.32,2.87-1.45,1.84.76,1.01,3.05h3.28l1.01-3.05,1.84-.76,2.87,1.45,2.31-2.32-1.45-2.87.76-1.84Zm-12.05,3.83a5.47,5.47,0,1,1,5.47-5.47A5.471,5.471,0,0,1,197.57,89.23Z" fill="#002775"/>
        <path id="Trazado_836474" data-name="Trazado 836474" d="M200.89,83.76a3.32,3.32,0,1,1-3.32-3.32A3.325,3.325,0,0,1,200.89,83.76Z" fill="#fff"/>
      </g>
      <g id="Grupo_1094597" data-name="Grupo 1094597">
        <path id="Trazado_836475" data-name="Trazado 836475" d="M201.35,27.69V24.42l-3.05-1.01-.76-1.84,1.45-2.87-2.32-2.32-2.87,1.45-1.84-.76-1.01-3.05h-3.28l-1.01,3.05-1.84.76-2.87-1.45-2.32,2.32,1.44,2.87-.76,1.84-3.05,1.01v3.27l3.05,1.01.76,1.84-1.44,2.87,2.32,2.32,2.87-1.45,1.84.76,1.01,3.05h3.28l1.01-3.05,1.84-.76,2.87,1.45,2.31-2.32-1.45-2.87.76-1.84Zm-12.04,3.84a5.47,5.47,0,1,1,5.47-5.47A5.471,5.471,0,0,1,189.31,31.53Z" fill="#a6c5fe"/>
        <path id="Trazado_836476" data-name="Trazado 836476" d="M192.63,26.06a3.32,3.32,0,1,1-3.32-3.32A3.325,3.325,0,0,1,192.63,26.06Z" fill="#005afd"/>
      </g>
      <path id="Trazado_836477" data-name="Trazado 836477" d="M189.91,132.99l3.83-1.59-.3-4.06,1.79-1.79,4.06.3,1.59-3.83-3.08-2.66v-2.53l3.08-2.65-1.59-3.83-4.06.3-1.79-1.79.3-4.06-3.83-1.59-2.66,3.08h-2.53l-2.66-3.08-3.83,1.59.3,4.06-1.79,1.79-4.06-.3-1.59,3.83,3.08,2.66v2.53l-3.08,2.65,1.59,3.83,4.06-.3,1.79,1.79-.3,4.06,3.83,1.59,2.66-3.08h2.53Zm-10.32-12.23a6.927,6.927,0,1,1,9.05,3.75A6.926,6.926,0,0,1,179.59,120.76Z" fill="#7c3eff"/>
      <path id="Trazado_836478" data-name="Trazado 836478" d="M294.86,106.77v-3.34l-3.11-1.03-.78-1.88,1.47-2.93-2.36-2.36-2.93,1.48-1.88-.78-1.03-3.11H280.9l-1.03,3.11-1.88.78-2.93-1.48-2.36,2.36,1.47,2.93-.78,1.88-3.11,1.03v3.34l3.11,1.03.78,1.88-1.47,2.93,2.36,2.36,2.93-1.48,1.88.78,1.03,3.11h3.34l1.03-3.11,1.88-.78,2.93,1.48,2.36-2.36-1.47-2.93.78-1.88Zm-12.29,3.91a5.58,5.58,0,1,1,5.58-5.58A5.582,5.582,0,0,1,282.57,110.68Z" fill="#03bffa"/>
      <path id="Trazado_836479" data-name="Trazado 836479" d="M434.53,107.12l3.14-1.3-.25-3.32,1.46-1.46,3.32.25,1.3-3.14-2.52-2.17V93.91l2.52-2.17-1.3-3.14-3.32.25-1.46-1.46.25-3.32-3.14-1.3-2.18,2.52h-2.07l-2.17-2.52-3.14,1.3.25,3.32-1.46,1.46-3.32-.25-1.3,3.14,2.52,2.17v2.07l-2.52,2.17,1.3,3.14,3.32-.25,1.46,1.46-.25,3.32,3.14,1.3,2.17-2.52h2.07ZM426.08,97.1a5.672,5.672,0,1,1,7.41,3.07A5.675,5.675,0,0,1,426.08,97.1Z" fill="#03bffa"/>
      <path id="Trazado_836480" data-name="Trazado 836480" d="M429.98,23.74V21.35l-2.23-.74-.56-1.35,1.06-2.1-1.69-1.69-2.1,1.06-1.35-.56-.73-2.23h-2.39l-.73,2.23-1.35.56-2.1-1.06-1.69,1.69,1.06,2.1-.56,1.35-2.23.74v2.39l2.23.74.56,1.35-1.06,2.1,1.69,1.69,2.1-1.06,1.35.56.73,2.23h2.39l.73-2.23,1.35-.56,2.1,1.06,1.69-1.69-1.06-2.09.56-1.35Zm-8.79,2.8a3.99,3.99,0,1,1,3.99-3.99A3.988,3.988,0,0,1,421.19,26.54Z" fill="#03bffa"/>
      <path id="Trazado_836481" data-name="Trazado 836481" d="M33.86,67.2V63.94l-3.03-1-.76-1.83,1.44-2.85-2.3-2.3L26.36,57.4l-1.83-.76-1-3.03H20.27l-1,3.03-1.83.76-2.85-1.44-2.3,2.3,1.44,2.85-.76,1.83-3.03,1V67.2l3.03,1,.76,1.83-1.44,2.85,2.3,2.3,2.85-1.44,1.83.76,1,3.03h3.26l1-3.03,1.83-.76,2.85,1.44,2.3-2.3-1.44-2.85.76-1.83ZM21.88,71.02a5.44,5.44,0,1,1,5.44-5.44A5.439,5.439,0,0,1,21.88,71.02Z" fill="#0840a8"/>
      <path id="Trazado_836482" data-name="Trazado 836482" d="M89.07,20.96v-1.8l-1.68-.55-.42-1.01.79-1.58-1.27-1.27-1.58.8-1.01-.42-.55-1.68h-1.8L81,15.13l-1.01.42-1.58-.8-1.27,1.27.79,1.58-.42,1.01-1.68.55v1.8l1.68.55.42,1.01-.79,1.58,1.27,1.27,1.58-.8,1,.43.55,1.68h1.8L83.89,25l1.01-.42,1.58.8,1.27-1.27-.79-1.58.42-1.01Zm-6.63,2.11a3.01,3.01,0,1,1,3.01-3.01A3.013,3.013,0,0,1,82.44,23.07Z" fill="#03bffa"/>
      <path id="Trazado_836483" data-name="Trazado 836483" d="M376.55,101.09v-1.8l-1.68-.55-.42-1.01.79-1.58-1.27-1.27-1.58.8-1.01-.42-.55-1.68h-1.8l-.55,1.68-1.01.42-1.58-.8-1.27,1.27.8,1.58L365,98.74l-1.68.55v1.8l1.68.55.42,1.01-.8,1.58,1.27,1.27,1.58-.8,1.01.42.55,1.68h1.8l.55-1.68,1.01-.42,1.58.8,1.27-1.27-.79-1.58.42-1.01Zm-6.63,2.11a3.01,3.01,0,1,1,3.01-3.01A3.013,3.013,0,0,1,369.92,103.2Z" fill="#ffb6c7"/>
      <path id="Trazado_836484" data-name="Trazado 836484" d="M471.4,68.89V66.5l-2.23-.74-.56-1.35,1.06-2.1-1.69-1.69-2.1,1.06-1.35-.56-.73-2.23h-2.39l-.73,2.23-1.35.56-2.1-1.06-1.69,1.69,1.06,2.1-.56,1.35-2.23.74v2.39l2.23.74.56,1.35-1.06,2.1,1.69,1.69,2.1-1.06,1.35.56.73,2.23h2.39l.73-2.23,1.35-.56,2.1,1.06,1.69-1.69-1.06-2.09.56-1.35Zm-8.8,2.8a3.99,3.99,0,1,1,3.99-3.99A3.988,3.988,0,0,1,462.6,71.69Z" fill="#0840a8"/>
      <g id="Grupo_1094655" data-name="Grupo 1094655">
        <g id="Grupo_1094634" data-name="Grupo 1094634">
          <g id="Grupo_1094601" data-name="Grupo 1094601">
            <g id="Grupo_1094599" data-name="Grupo 1094599">
              <path id="Trazado_836485" data-name="Trazado 836485" d="M142.9,40.19a7.138,7.138,0,0,1,.06,2.87.672.672,0,0,1-.03.18c-.01.02-.01.03-.02.05a6.911,6.911,0,0,1-.61,1.74c-1.9,5.8-1.08,7.73-1.08,7.73l.13.6a1.167,1.167,0,0,0-.45.03l-3.84.85a1.281,1.281,0,0,0-.42.17l-.13-.6s-.07-2.09-4.25-6.54a7.336,7.336,0,0,1-1.29-1.32l-.03-.03a.716.716,0,0,1-.11-.15,7.364,7.364,0,0,1-1.16-2.63,6.784,6.784,0,1,1,13.23-2.95Z" fill="#03bffa"/>
              <g id="Grupo_1094598" data-name="Grupo 1094598">
                <path id="Trazado_836486" data-name="Trazado 836486" d="M138.07,54.29,133.6,40.18l1.6,1.2.73-1.36,1.23.92.95-1.76,1.93,14.67-.48.06-1.73-13.2-.51.95-1.23-.92-.73,1.35-.86-.64,4.03,12.69Z" fill="#0059f9"/>
              </g>
            </g>
            <g id="Grupo_1094600" data-name="Grupo 1094600">
              <path id="Trazado_836487" data-name="Trazado 836487" d="M140.84,56.19l.04.18a1.015,1.015,0,0,1-.64,1.04l-.83.19a1.03,1.03,0,0,1-1.03-.67l-.04-.18Z" fill="#002775"/>
              <path id="Trazado_836488" data-name="Trazado 836488" d="M142.09,53.88c.09.4-.29.82-.85.95l-3.84.85c-.56.12-1.08-.1-1.17-.5a.771.771,0,0,1,.44-.78,1.6,1.6,0,0,1,.42-.17l3.84-.85a1.734,1.734,0,0,1,.45-.03A.8.8,0,0,1,142.09,53.88Z" fill="#002775"/>
              <path id="Trazado_836489" data-name="Trazado 836489" d="M141.79,55.22c.09.4-.29.82-.85.95l-2.7.6c-.56.12-1.09-.1-1.17-.5s.29-.82.85-.95l2.7-.6C141.18,54.6,141.7,54.82,141.79,55.22Z" fill="#002775"/>
            </g>
          </g>
          <g id="Grupo_1094605" data-name="Grupo 1094605">
            <g id="Grupo_1094603" data-name="Grupo 1094603">
              <path id="Trazado_836490" data-name="Trazado 836490" d="M155.43,53.23a7.221,7.221,0,0,1-1.7,2.31.553.553,0,0,1-.14.12c-.01.01-.03.02-.04.03a7.438,7.438,0,0,1-1.54,1.01c-5.05,3.44-5.57,5.46-5.57,5.46l-.26.55a1.207,1.207,0,0,0-.37-.25l-3.56-1.67a1.159,1.159,0,0,0-.43-.12l.26-.55s1.22-1.7.63-7.78a7,7,0,0,1-.21-1.83.09.09,0,0,0-.01-.05.515.515,0,0,1,.01-.18,7.251,7.251,0,0,1,.69-2.79,6.767,6.767,0,1,1,12.24,5.74Z" fill="#03bffa"/>
              <g id="Grupo_1094602" data-name="Grupo 1094602">
                <path id="Trazado_836491" data-name="Trazado 836491" d="M143,61.44l5.07-13.9.54,1.92,1.4-.62.42,1.48,1.83-.82-7.44,12.79-.41-.24,6.69-11.51-.98.44-.42-1.48-1.4.63-.29-1.03-4.56,12.5Z" fill="#0059f9"/>
              </g>
            </g>
            <g id="Grupo_1094604" data-name="Grupo 1094604">
              <path id="Trazado_836492" data-name="Trazado 836492" d="M144.03,64.64l-.08.17a1.014,1.014,0,0,1-1.15.43l-.77-.36a1.009,1.009,0,0,1-.4-1.16l.08-.17Z" fill="#002775"/>
              <path id="Trazado_836493" data-name="Trazado 836493" d="M146.43,63.57a.928.928,0,0,1-1.25.23l-3.56-1.67c-.52-.24-.8-.74-.62-1.11a.751.751,0,0,1,.82-.35,1.388,1.388,0,0,1,.43.12l3.56,1.67a1.414,1.414,0,0,1,.37.25A.8.8,0,0,1,146.43,63.57Z" fill="#002775"/>
              <path id="Trazado_836494" data-name="Trazado 836494" d="M145.37,64.45a.928.928,0,0,1-1.25.23l-2.51-1.17c-.52-.24-.8-.74-.63-1.11a.925.925,0,0,1,1.25-.23l2.51,1.17C145.27,63.58,145.55,64.08,145.37,64.45Z" fill="#002775"/>
            </g>
          </g>
          <g id="Grupo_1094609" data-name="Grupo 1094609">
            <g id="Grupo_1094607" data-name="Grupo 1094607">
              <path id="Trazado_836495" data-name="Trazado 836495" d="M134.47,53.91a7.286,7.286,0,0,1-.33,2.85.436.436,0,0,1-.06.17c-.01.01-.01.03-.02.04a6.864,6.864,0,0,1-.84,1.64c-2.67,5.49-2.12,7.51-2.12,7.51l.05.61a1.328,1.328,0,0,0-.45-.04l-3.92.32a1.185,1.185,0,0,0-.43.11l-.05-.61s.22-2.08-3.32-7.06a7.689,7.689,0,0,1-1.1-1.48c-.01-.01-.02-.03-.03-.04a.528.528,0,0,1-.09-.16,7.238,7.238,0,0,1-.79-2.76,6.779,6.779,0,1,1,13.5-1.1Z" fill="#03bffa"/>
              <g id="Grupo_1094606" data-name="Grupo 1094606">
                <path id="Trazado_836496" data-name="Trazado 836496" d="M127.76,67.21l-2.51-14.58,1.43,1.4.91-1.24,1.09,1.08,1.18-1.62-.09,14.8-.48-.01.09-13.31-.64.87-1.09-1.08-.91,1.24-.76-.75,2.25,13.12Z" fill="#0059f9"/>
              </g>
            </g>
            <g id="Grupo_1094608" data-name="Grupo 1094608">
              <path id="Trazado_836497" data-name="Trazado 836497" d="M130.25,69.48l.02.19a1.014,1.014,0,0,1-.78.94l-.85.07a1.008,1.008,0,0,1-.92-.8l-.02-.19Z" fill="#002775"/>
              <path id="Trazado_836498" data-name="Trazado 836498" d="M131.8,67.36c.03.41-.4.78-.97.82l-3.92.32c-.57.05-1.06-.25-1.09-.65a.77.77,0,0,1,.54-.71,1.51,1.51,0,0,1,.43-.11l3.92-.32a1.328,1.328,0,0,1,.45.04A.754.754,0,0,1,131.8,67.36Z" fill="#002775"/>
              <path id="Trazado_836499" data-name="Trazado 836499" d="M131.32,68.65c.03.41-.4.78-.97.82l-2.76.23c-.57.05-1.06-.25-1.09-.65s.4-.78.97-.82l2.76-.23C130.8,67.95,131.29,68.24,131.32,68.65Z" fill="#002775"/>
            </g>
          </g>
          <g id="Grupo_1094613" data-name="Grupo 1094613">
            <g id="Grupo_1094611" data-name="Grupo 1094611">
              <path id="Trazado_836500" data-name="Trazado 836500" d="M143.74,69.95a7.332,7.332,0,0,1,1.42-2.5.747.747,0,0,1,.12-.14.138.138,0,0,1,.04-.03,6.854,6.854,0,0,1,1.41-1.18c4.61-4.01,4.89-6.08,4.89-6.08l.19-.58a1.269,1.269,0,0,0,.4.21l3.73,1.24a1.392,1.392,0,0,0,.44.07l-.19.58s-1.01,1.83.29,7.8a7.2,7.2,0,0,1,.43,1.79c0,.02.01.03.01.05a.617.617,0,0,1,.02.18,7.225,7.225,0,0,1-.36,2.85,6.771,6.771,0,1,1-12.84-4.26Z" fill="#03bffa"/>
              <g id="Grupo_1094610" data-name="Grupo 1094610">
                <path id="Trazado_836501" data-name="Trazado 836501" d="M155.12,60.33l-3.4,14.4-.76-1.85-1.32.79-.59-1.42-1.72,1.03,5.88-13.58.44.19L148.36,72.1l.92-.55.59,1.42,1.32-.78.41.99,3.05-12.96Z" fill="#0059f9"/>
              </g>
            </g>
            <g id="Grupo_1094612" data-name="Grupo 1094612">
              <path id="Trazado_836502" data-name="Trazado 836502" d="M153.72,57.27l.06-.18a1.014,1.014,0,0,1,1.09-.56l.81.27a1.021,1.021,0,0,1,.54,1.1l-.06.18Z" fill="#002775"/>
              <path id="Trazado_836503" data-name="Trazado 836503" d="M151.46,58.61c.13-.39.67-.56,1.22-.38l3.73,1.24c.54.18.88.64.75,1.03a.76.76,0,0,1-.77.45,1.392,1.392,0,0,1-.44-.07l-3.73-1.24a1.387,1.387,0,0,1-.4-.21A.769.769,0,0,1,151.46,58.61Z" fill="#002775"/>
              <path id="Trazado_836504" data-name="Trazado 836504" d="M152.4,57.62c.13-.39.67-.56,1.22-.38l2.63.87c.54.18.88.64.75,1.03s-.67.56-1.22.38l-2.63-.87C152.61,58.47,152.28,58,152.4,57.62Z" fill="#002775"/>
            </g>
          </g>
          <g id="Grupo_1094617" data-name="Grupo 1094617">
            <g id="Grupo_1094615" data-name="Grupo 1094615">
              <path id="Trazado_836505" data-name="Trazado 836505" d="M154.26,30.23a7.508,7.508,0,0,1,1.79,2.25.6.6,0,0,1,.08.16c0,.02.01.03.01.05a6.894,6.894,0,0,1,.57,1.75c2,5.77,3.82,6.8,3.82,6.8l.47.4a1.313,1.313,0,0,0-.34.29l-2.54,3a1.379,1.379,0,0,0-.23.38l-.47-.4s-1.32-1.62-7.34-2.64a7.094,7.094,0,0,1-1.82-.27c-.02,0-.03-.01-.05-.01a.775.775,0,0,1-.18-.05,7.33,7.33,0,0,1-2.51-1.39,6.769,6.769,0,1,1,8.74-10.32Z" fill="#03bffa"/>
              <g id="Grupo_1094614" data-name="Grupo 1094614">
                <path id="Trazado_836506" data-name="Trazado 836506" d="M158.94,44.37l-12.09-8.52,2-.02-.24-1.52,1.54-.01-.32-1.98,10.42,10.51-.35.34-9.36-9.46.17,1.06-1.54.01.24,1.52-1.07.01,10.88,7.67Z" fill="#0059f9"/>
              </g>
            </g>
            <g id="Grupo_1094616" data-name="Grupo 1094616">
              <path id="Trazado_836507" data-name="Trazado 836507" d="M162.3,44.21l.14.12a1.034,1.034,0,0,1,.12,1.22l-.55.65a1.017,1.017,0,0,1-1.22.09l-.14-.12Z" fill="#002775"/>
              <path id="Trazado_836508" data-name="Trazado 836508" d="M161.9,41.62a.928.928,0,0,1-.1,1.27l-2.54,3a.922.922,0,0,1-1.24.31.777.777,0,0,1-.13-.89,1.38,1.38,0,0,1,.23-.38l2.54-3a1.313,1.313,0,0,1,.34-.29A.781.781,0,0,1,161.9,41.62Z" fill="#002775"/>
              <path id="Trazado_836509" data-name="Trazado 836509" d="M162.47,42.86a.928.928,0,0,1-.1,1.27l-1.79,2.11a.784.784,0,1,1-1.13-.96l1.79-2.11A.931.931,0,0,1,162.47,42.86Z" fill="#002775"/>
            </g>
          </g>
          <g id="Grupo_1094621" data-name="Grupo 1094621">
            <g id="Grupo_1094619" data-name="Grupo 1094619">
              <path id="Trazado_836510" data-name="Trazado 836510" d="M169.72,53.74a7.291,7.291,0,0,1-.36,2.85.436.436,0,0,1-.06.17c-.01.01-.01.03-.02.04a7.056,7.056,0,0,1-.86,1.63c-2.73,5.46-2.21,7.48-2.21,7.48l.04.61a1.328,1.328,0,0,0-.45-.04l-3.92.28a1.494,1.494,0,0,0-.44.1l-.04-.61s.24-2.08-3.24-7.1a7.075,7.075,0,0,1-1.08-1.5c-.01-.01-.02-.03-.03-.04a.477.477,0,0,1-.08-.16,7.309,7.309,0,0,1-.76-2.77,6.778,6.778,0,1,1,13.51-.94Z" fill="#03bffa"/>
              <g id="Grupo_1094618" data-name="Grupo 1094618">
                <path id="Trazado_836511" data-name="Trazado 836511" d="M162.86,66.96l-2.34-14.61,1.41,1.42.92-1.23,1.09,1.09,1.19-1.61-.26,14.8-.48-.01.24-13.31-.64.86-1.09-1.09-.92,1.23-.75-.76,2.1,13.14Z" fill="#0059f9"/>
              </g>
            </g>
            <g id="Grupo_1094620" data-name="Grupo 1094620">
              <path id="Trazado_836512" data-name="Trazado 836512" d="M165.32,69.25l.01.19a1.014,1.014,0,0,1-.79.93l-.85.06a1.039,1.039,0,0,1-.92-.81l-.01-.19Z" fill="#002775"/>
              <path id="Trazado_836513" data-name="Trazado 836513" d="M166.9,67.16c.03.41-.41.77-.98.81l-3.92.28c-.57.04-1.06-.26-1.09-.67a.767.767,0,0,1,.55-.71,1.234,1.234,0,0,1,.44-.1l3.92-.28a1.328,1.328,0,0,1,.45.04A.774.774,0,0,1,166.9,67.16Z" fill="#002775"/>
              <path id="Trazado_836514" data-name="Trazado 836514" d="M166.4,68.44c.03.41-.41.77-.98.81l-2.76.2c-.57.04-1.06-.26-1.09-.67s.41-.77.98-.81l2.76-.2C165.89,67.73,166.37,68.03,166.4,68.44Z" fill="#002775"/>
            </g>
          </g>
          <g id="Grupo_1094625" data-name="Grupo 1094625">
            <g id="Grupo_1094623" data-name="Grupo 1094623">
              <path id="Trazado_836515" data-name="Trazado 836515" d="M182.28,62.81a7.452,7.452,0,0,1-1.32,2.55.392.392,0,0,1-.12.14.138.138,0,0,1-.04.03,7.233,7.233,0,0,1-1.37,1.23c-4.45,4.18-4.66,6.26-4.66,6.26l-.17.59a1.343,1.343,0,0,0-.4-.19l-3.78-1.1a1.355,1.355,0,0,0-.44-.05l.17-.59s.94-1.87-.58-7.78a7.107,7.107,0,0,1-.49-1.78c0-.02-.01-.03-.01-.05a.617.617,0,0,1-.02-.18,7.376,7.376,0,0,1,.25-2.86,6.767,6.767,0,1,1,12.98,3.78Z" fill="#03bffa"/>
              <g id="Grupo_1094622" data-name="Grupo 1094622">
                <path id="Trazado_836516" data-name="Trazado 836516" d="M171.27,72.84l2.86-14.52.83,1.82,1.29-.83.64,1.39,1.68-1.09L173.2,73.4l-.44-.17,4.82-12.41-.89.59-.64-1.4-1.29.84-.45-.98-2.57,13.06Z" fill="#0059f9"/>
              </g>
            </g>
            <g id="Grupo_1094624" data-name="Grupo 1094624">
              <path id="Trazado_836517" data-name="Trazado 836517" d="M172.78,75.84l-.05.18a1,1,0,0,1-1.06.6l-.82-.24a1.028,1.028,0,0,1-.58-1.08l.05-.18Z" fill="#002775"/>
              <path id="Trazado_836518" data-name="Trazado 836518" d="M174.99,74.42c-.11.39-.65.58-1.2.42l-3.78-1.1c-.55-.16-.9-.61-.79-1a.784.784,0,0,1,.76-.48,1.354,1.354,0,0,1,.44.05l3.78,1.1a1.235,1.235,0,0,1,.4.19A.793.793,0,0,1,174.99,74.42Z" fill="#002775"/>
              <path id="Trazado_836519" data-name="Trazado 836519" d="M174.08,75.45c-.11.39-.65.58-1.2.42l-2.66-.77c-.55-.16-.9-.61-.79-1s.65-.58,1.2-.42l2.66.77C173.84,74.61,174.2,75.06,174.08,75.45Z" fill="#002775"/>
            </g>
          </g>
          <g id="Grupo_1094629" data-name="Grupo 1094629">
            <g id="Grupo_1094627" data-name="Grupo 1094627">
              <path id="Trazado_836520" data-name="Trazado 836520" d="M175.88,35.81a7.371,7.371,0,0,1,.16,2.87.423.423,0,0,1-.03.18.09.09,0,0,0-.01.05,7.066,7.066,0,0,1-.55,1.76c-1.69,5.87-.81,7.76-.81,7.76l.15.59a1.423,1.423,0,0,0-.45.04l-3.81.99a1.382,1.382,0,0,0-.41.18l-.15-.59s-.14-2.09-4.47-6.39a7.262,7.262,0,0,1-1.33-1.27l-.03-.03a.479.479,0,0,1-.11-.15,7.424,7.424,0,0,1-1.25-2.59,6.774,6.774,0,1,1,13.1-3.4Z" fill="#03bffa"/>
              <g id="Grupo_1094626" data-name="Grupo 1094626">
                <path id="Trazado_836521" data-name="Trazado 836521" d="M171.55,50.07l-4.97-13.94,1.65,1.14.68-1.38,1.27.87.88-1.79,2.44,14.59-.47.08-2.2-13.13-.47.96-1.26-.87-.68,1.38-.89-.61L172,49.91Z" fill="#0059f9"/>
              </g>
            </g>
            <g id="Grupo_1094628" data-name="Grupo 1094628">
              <path id="Trazado_836522" data-name="Trazado 836522" d="M174.38,51.88l.05.18a1.021,1.021,0,0,1-.61,1.06l-.83.21a1.025,1.025,0,0,1-1.05-.63l-.05-.18Z" fill="#002775"/>
              <path id="Trazado_836523" data-name="Trazado 836523" d="M175.55,49.52c.1.4-.26.83-.82.98l-3.81.99c-.55.14-1.09-.06-1.19-.46a.785.785,0,0,1,.41-.8,1.381,1.381,0,0,1,.41-.18l3.81-.99a1.375,1.375,0,0,1,.45-.04A.774.774,0,0,1,175.55,49.52Z" fill="#002775"/>
              <path id="Trazado_836524" data-name="Trazado 836524" d="M175.3,50.87c.1.4-.26.83-.82.98l-2.68.69c-.55.14-1.09-.06-1.19-.46s.26-.83.82-.98l2.68-.69C174.66,50.27,175.2,50.48,175.3,50.87Z" fill="#002775"/>
            </g>
          </g>
          <g id="Grupo_1094633" data-name="Grupo 1094633">
            <g id="Grupo_1094631" data-name="Grupo 1094631">
              <path id="Trazado_836525" data-name="Trazado 836525" d="M129.55,73.94a7.309,7.309,0,0,1,.76-2.77.6.6,0,0,1,.08-.16c.01-.01.02-.03.03-.04a7.338,7.338,0,0,1,1.08-1.5c3.48-5.02,3.24-7.1,3.24-7.1l.04-.61a1.234,1.234,0,0,0,.44.1l3.92.28a1.328,1.328,0,0,0,.45-.04l-.04.61s-.53,2.03,2.2,7.49a7.462,7.462,0,0,1,.86,1.63c.01.01.01.03.02.04a.436.436,0,0,1,.06.17,7.292,7.292,0,0,1,.36,2.85,6.773,6.773,0,1,1-13.5-.95Z" fill="#03bffa"/>
              <g id="Grupo_1094630" data-name="Grupo 1094630">
                <path id="Trazado_836526" data-name="Trazado 836526" d="M138.2,61.82l.26,14.79-1.2-1.6-1.08,1.09-.92-1.24-1.42,1.42,2.35-14.61.48.08-2.12,13.14.76-.76.92,1.23,1.08-1.08.64.85-.23-13.3Z" fill="#0059f9"/>
              </g>
            </g>
            <g id="Grupo_1094632" data-name="Grupo 1094632">
              <path id="Trazado_836527" data-name="Trazado 836527" d="M136.09,59.2l.01-.19a1,1,0,0,1,.91-.81l.85.06a1.015,1.015,0,0,1,.79.94l-.01.19Z" fill="#002775"/>
              <path id="Trazado_836528" data-name="Trazado 836528" d="M134.23,61.05c.03-.41.52-.71,1.09-.67l3.92.28c.57.04,1.01.4.98.81a.763.763,0,0,1-.64.62,1.328,1.328,0,0,1-.45.04l-3.92-.28a1.493,1.493,0,0,1-.44-.1A.753.753,0,0,1,134.23,61.05Z" fill="#002775"/>
              <path id="Trazado_836529" data-name="Trazado 836529" d="M134.9,59.86c.03-.41.52-.71,1.09-.67l2.76.2c.57.04,1.01.4.98.81s-.52.7-1.09.66l-2.76-.2C135.32,60.63,134.88,60.26,134.9,59.86Z" fill="#002775"/>
            </g>
          </g>
        </g>
        <g id="Grupo_1094653" data-name="Grupo 1094653">
          <g id="Grupo_1094640" data-name="Grupo 1094640">
            <path id="Trazado_836530" data-name="Trazado 836530" d="M164.97,137.87a9.38,9.38,0,1,1-9.38-9.38A9.381,9.381,0,0,1,164.97,137.87Z" fill="#03bffa"/>
            <g id="shadow_00000181071267435173182870000005766767704004017061_">
              <path id="Trazado_836531" data-name="Trazado 836531" d="M163.61,137.87a8.03,8.03,0,1,1-8.03-8.03A8.03,8.03,0,0,1,163.61,137.87Z" fill="#0059f9"/>
              <g id="Grupo_1094635" data-name="Grupo 1094635" clip-path="url(#clip-path)">
                <path id="Dollar_00000046322278706995159140000017869834652236881795_" d="M156.51,139.34v1.85q.87-.135.87-.87C157.38,139.91,157.09,139.59,156.51,139.34Zm0,3.27v1.32h-.89v-1.29a4.917,4.917,0,0,1-2.3-.56v-1.69a3.637,3.637,0,0,0,1.05.53,4.761,4.761,0,0,0,1.25.28v-2.22a4.738,4.738,0,0,1-1.95-1.15,2.254,2.254,0,0,1-.52-1.51,2.22,2.22,0,0,1,.68-1.63,2.82,2.82,0,0,1,1.79-.78v-1.13h.89v1.11a4.578,4.578,0,0,1,1.92.41v1.64a4.589,4.589,0,0,0-1.92-.63v2.31a4.846,4.846,0,0,1,1.91,1.1,2.084,2.084,0,0,1,.58,1.49,2.161,2.161,0,0,1-.65,1.63A2.974,2.974,0,0,1,156.51,142.61Zm-.89-5.33v-1.93c-.56.1-.85.4-.85.88C154.77,136.65,155.05,137,155.62,137.28Z" fill="#6a43f4"/>
              </g>
              <g id="Grupo_1094636" data-name="Grupo 1094636" clip-path="url(#clip-path)">
                <path id="Trazado_836533" data-name="Trazado 836533" d="M158.18,138.48c-.06-.06-.12-.12-.19-.18-.02-.02-.04-.05-.06-.07a4.651,4.651,0,0,0-1.67-1.01v-2.16a4.735,4.735,0,0,1,1.92.63v-1.64a1.914,1.914,0,0,1-.25-.25,4.118,4.118,0,0,0-1.67-.4v-.88l-.25-.25h-.89v1.13a2.82,2.82,0,0,0-1.79.78,2.22,2.22,0,0,0-.68,1.63,2.254,2.254,0,0,0,.52,1.51,1.752,1.752,0,0,0,.24.23l.01.01a4.283,4.283,0,0,0,1.7,1.05v2.07a4.849,4.849,0,0,1-1.25-.28,3.388,3.388,0,0,1-1.05-.53v1.69a1.431,1.431,0,0,1,.25.25,5.052,5.052,0,0,0,2.06.55v1.05l.25.25h.89v-1.32a3.111,3.111,0,0,0,1.85-.75,2.161,2.161,0,0,0,.65-1.63A2.243,2.243,0,0,0,158.18,138.48Zm-1.29,1.34a.777.777,0,0,1-.63.81v-1.54a2.075,2.075,0,0,1,.47.27A.777.777,0,0,1,156.89,139.82Zm-2.37-3.84a.8.8,0,0,1,.6-.82v1.62a2.632,2.632,0,0,1-.41-.26A.887.887,0,0,1,154.52,135.98Z" fill="url(#linear-gradient)"/>
              </g>
              <g id="Grupo_1094637" data-name="Grupo 1094637" clip-path="url(#clip-path)">
                <path id="Dollar_00000165916762264764784960000006037477780933261748_" d="M156.02,142.12v1.32h-.89v-1.29a4.917,4.917,0,0,1-2.3-.56V139.9a3.637,3.637,0,0,0,1.05.53,4.761,4.761,0,0,0,1.25.28v-2.22a4.738,4.738,0,0,1-1.95-1.15,2.254,2.254,0,0,1-.52-1.51,2.22,2.22,0,0,1,.68-1.63,2.82,2.82,0,0,1,1.79-.78v-1.13h.89v1.11a4.578,4.578,0,0,1,1.92.41v1.64a4.589,4.589,0,0,0-1.92-.63v2.31a4.846,4.846,0,0,1,1.91,1.1,2.084,2.084,0,0,1,.58,1.49,2.161,2.161,0,0,1-.65,1.63A2.974,2.974,0,0,1,156.02,142.12Zm-.89-5.34v-1.93c-.56.1-.85.4-.85.88C154.28,136.16,154.56,136.5,155.13,136.78Zm.89,2.06v1.85q.87-.135.87-.87C156.89,139.42,156.6,139.1,156.02,138.84Z" fill="#03bffa"/>
              </g>
            </g>
            <path id="Trazado_836536" data-name="Trazado 836536" d="M148.23,138.54a8.033,8.033,0,0,1,13.36-6.01,8.026,8.026,0,1,0-11.33,11.33A7.951,7.951,0,0,1,148.23,138.54Z" fill="#6a43f4"/>
            <g id="Grupo_1094639" data-name="Grupo 1094639">
              <g id="Grupo_1094638" data-name="Grupo 1094638" clip-path="url(#clip-path-4)">
                <path id="Trazado_836537" data-name="Trazado 836537" d="M157.1,130.17l-.48-.08.29-1.75.48.08Zm1.75-1.35-.47-.16-.56,1.68.47.15Zm1.37.62-.44-.23-.81,1.57.44.23Zm.19,2.24,1.05-1.43-.4-.29-1.05,1.43Zm.89.82,1.25-1.25-.35-.35-1.25,1.25Zm.76.93,1.43-1.05-.29-.4-1.43,1.05Zm.6,1.05,1.57-.82-.23-.44-1.57.82Zm.44,1.14,1.68-.56-.16-.47-1.68.56Zm.26,1.22,1.75-.29-.08-.48-1.75.29Zm.06.78v.49h1.77v-.49Zm-.14,1.76,1.75.29.08-.48-1.75-.28Zm-.33,1.2,1.68.56.15-.47-1.68-.56Zm-.51,1.11,1.57.82.23-.44-1.57-.82Zm-.67,1,1.43,1.05.29-.4-1.43-1.05Zm-.82.89,1.25,1.25.35-.35-1.25-1.25Zm-.93.76,1.05,1.43.4-.29-1.05-1.43Zm-1.05.6.82,1.57.44-.23-.82-1.57Zm-1.14.44.56,1.68.47-.16-.56-1.68Zm-1.22.26.29,1.75.48-.08-.29-1.75Zm-1.27.07v1.77h.49v-1.77Zm-1.56,1.6.48.08.28-1.75-.48-.08Zm-1.47-.4.47.15.56-1.68-.47-.16Zm-1.36-.62.44.23.81-1.57-.44-.23Zm-.19-2.24-1.05,1.43.4.29,1.05-1.43Zm-.89-.81-1.25,1.25.35.35,1.25-1.25Zm-.76-.94-1.43,1.05.29.4,1.43-1.05Zm-.6-1.05-1.57.82.23.44,1.57-.82Zm-.44-1.14-1.68.56.15.47,1.68-.56Zm-.26-1.21-1.75.29.08.48,1.75-.29Zm-.07-1.28h-1.77v.49h1.77Zm.14-1.27-1.75-.28-.08.48,1.75.28Zm.34-1.19-1.68-.56-.15.47,1.68.56Zm.51-1.11-1.57-.82-.23.44,1.57.81Zm.67-1.01-1.43-1.05-.29.4,1.43,1.05Zm.81-.89-1.25-1.25-.35.35,1.25,1.25Zm.94-.76-1.05-1.43-.4.29,1.05,1.43Zm1.05-.6-.82-1.57-.44.23.82,1.57Zm1.14-.44-.56-1.68-.47.15.56,1.68Zm1.21-.26-.29-1.75-.48.08.29,1.75Zm1.28-1.84h-.49v1.77h.49Z" fill="#6a43f4" opacity="0.7"/>
              </g>
            </g>
          </g>
          <g id="Grupo_1094646" data-name="Grupo 1094646">
            <path id="Trazado_836539" data-name="Trazado 836539" d="M177.44,155.77a9.38,9.38,0,1,1-9.38-9.38A9.381,9.381,0,0,1,177.44,155.77Z" fill="#03bffa"/>
            <g id="shadow_00000093162403200399501810000011160051534278668685_">
              <path id="Trazado_836540" data-name="Trazado 836540" d="M176.08,155.77a8.03,8.03,0,1,1-8.03-8.03A8.03,8.03,0,0,1,176.08,155.77Z" fill="#0059f9"/>
              <g id="Grupo_1094641" data-name="Grupo 1094641" clip-path="url(#clip-path-5)">
                <path id="Dollar_00000115498080544928007220000010929598377676393653_" d="M168.98,157.24v1.85q.87-.135.87-.87C169.85,157.82,169.56,157.49,168.98,157.24Zm0,3.27v1.32h-.89v-1.29a4.917,4.917,0,0,1-2.3-.56v-1.69a3.637,3.637,0,0,0,1.05.53,4.761,4.761,0,0,0,1.25.28v-2.22a4.738,4.738,0,0,1-1.95-1.15,2.254,2.254,0,0,1-.52-1.51,2.22,2.22,0,0,1,.68-1.63,2.82,2.82,0,0,1,1.79-.78v-1.13h.89v1.11a4.578,4.578,0,0,1,1.92.41v1.64a4.589,4.589,0,0,0-1.92-.63v2.31a4.846,4.846,0,0,1,1.91,1.1,2.084,2.084,0,0,1,.58,1.49,2.161,2.161,0,0,1-.65,1.63A2.974,2.974,0,0,1,168.98,160.51Zm-.89-5.33v-1.93c-.56.1-.85.4-.85.88C167.24,154.55,167.52,154.9,168.09,155.18Z" fill="#6a43f4"/>
              </g>
              <g id="Grupo_1094642" data-name="Grupo 1094642" clip-path="url(#clip-path-5)">
                <path id="Trazado_836542" data-name="Trazado 836542" d="M170.64,156.39c-.06-.06-.12-.12-.19-.18-.02-.02-.04-.05-.06-.07a4.651,4.651,0,0,0-1.67-1.01v-2.16a4.735,4.735,0,0,1,1.92.63v-1.64a1.914,1.914,0,0,1-.25-.25,4.118,4.118,0,0,0-1.67-.4v-.88l-.25-.25h-.89v1.13a2.82,2.82,0,0,0-1.79.78,2.22,2.22,0,0,0-.68,1.63,2.254,2.254,0,0,0,.52,1.51,1.752,1.752,0,0,0,.24.23l.01.01a4.283,4.283,0,0,0,1.7,1.05v2.07a4.761,4.761,0,0,1-1.25-.28,3.388,3.388,0,0,1-1.05-.53v1.69a1.431,1.431,0,0,1,.25.25,5.052,5.052,0,0,0,2.06.55v1.05l.25.25h.89v-1.32a3.111,3.111,0,0,0,1.85-.75,2.161,2.161,0,0,0,.65-1.63A2.13,2.13,0,0,0,170.64,156.39Zm-1.28,1.33a.777.777,0,0,1-.63.81V157a2.075,2.075,0,0,1,.47.27A.772.772,0,0,1,169.36,157.72Zm-2.37-3.83a.8.8,0,0,1,.6-.82v1.62a2.632,2.632,0,0,1-.41-.26A.887.887,0,0,1,166.99,153.89Z" fill="url(#linear-gradient-2)"/>
              </g>
              <g id="Grupo_1094643" data-name="Grupo 1094643" clip-path="url(#clip-path-5)">
                <path id="Dollar_00000109006234924294030300000003269180982227168656_" d="M168.48,160.02v1.32h-.89v-1.29a4.917,4.917,0,0,1-2.3-.56V157.8a3.637,3.637,0,0,0,1.05.53,4.761,4.761,0,0,0,1.25.28v-2.22a4.738,4.738,0,0,1-1.95-1.15,2.254,2.254,0,0,1-.52-1.51,2.22,2.22,0,0,1,.68-1.63,2.82,2.82,0,0,1,1.79-.78v-1.13h.89v1.11a4.578,4.578,0,0,1,1.92.41v1.64a4.589,4.589,0,0,0-1.92-.63v2.31a4.846,4.846,0,0,1,1.91,1.1,2.127,2.127,0,0,1,.58,1.49,2.161,2.161,0,0,1-.65,1.63A2.949,2.949,0,0,1,168.48,160.02Zm-.89-5.33v-1.93c-.56.1-.85.4-.85.88C166.75,154.06,167.03,154.41,167.59,154.69Zm.89,2.06v1.85q.87-.135.87-.87C169.36,157.33,169.07,157,168.48,156.75Z" fill="#03bffa"/>
              </g>
            </g>
            <path id="Trazado_836545" data-name="Trazado 836545" d="M160.7,156.45a8.033,8.033,0,0,1,13.36-6.01,8.026,8.026,0,1,0-11.33,11.33A7.951,7.951,0,0,1,160.7,156.45Z" fill="#6a43f4"/>
            <g id="Grupo_1094645" data-name="Grupo 1094645">
              <g id="Grupo_1094644" data-name="Grupo 1094644" clip-path="url(#clip-path-8)">
                <path id="Trazado_836546" data-name="Trazado 836546" d="M169.57,148.07l-.48-.08.29-1.75.48.08Zm1.75-1.34-.47-.15-.56,1.68.47.15Zm1.37.62-.44-.23-.81,1.57.44.23Zm.19,2.24,1.05-1.43-.4-.29-1.05,1.43Zm.89.81,1.25-1.25-.35-.35-1.25,1.25Zm.76.94,1.43-1.05-.29-.4-1.43,1.05Zm.6,1.05,1.57-.82-.23-.44-1.57.82Zm.44,1.14,1.68-.56-.16-.47-1.68.56Zm.26,1.21,1.75-.29-.08-.48-1.75.29Zm.06.79v.49h1.77v-.49Zm-.14,1.76,1.75.28.08-.48-1.75-.29Zm-.33,1.19,1.68.56.15-.47-1.68-.56Zm-.51,1.11,1.57.82.23-.44-1.57-.82Zm-.67,1.01,1.43,1.05.29-.4-1.43-1.05Zm-.82.89,1.25,1.25.35-.35-1.25-1.25Zm-.94.75,1.05,1.43.4-.29-1.05-1.43Zm-1.04.61.82,1.57.44-.23-.82-1.57Zm-1.14.44.56,1.68.47-.15-.56-1.68Zm-1.22.26.29,1.75.48-.08-.29-1.75Zm-1.27.06v1.77h.49v-1.77Zm-1.56,1.61.48.08.28-1.75-.48-.08Zm-1.47-.4.47.16.56-1.68-.47-.15Zm-1.36-.62.44.23.81-1.57-.44-.23Zm-.2-2.24-1.05,1.43.4.29,1.05-1.43Zm-.88-.82-1.25,1.25.35.35,1.25-1.25Zm-.76-.93-1.43,1.05.29.4,1.43-1.05Zm-.61-1.05-1.57.82.23.44,1.57-.82Zm-.44-1.14-1.68.56.15.47,1.68-.56Zm-.26-1.22-1.75.29.08.48,1.75-.29Zm-.06-1.27h-1.77v.49h1.77Zm.14-1.27-1.75-.28-.08.48,1.75.28Zm.34-1.2-1.68-.56-.15.47,1.68.56Zm.51-1.11-1.57-.81-.23.44,1.57.81Zm.67-1.01-1.43-1.05-.29.4,1.43,1.05Zm.81-.89-1.25-1.25-.35.35,1.25,1.25Zm.94-.75-1.05-1.43-.4.29,1.05,1.43Zm1.05-.61-.82-1.57-.44.23.82,1.57Zm1.14-.44-.56-1.68-.47.15.56,1.68Zm1.21-.26-.29-1.75-.48.08.29,1.75Zm1.28-1.83h-.49v1.77h.49Z" fill="#6a43f4" opacity="0.7"/>
              </g>
            </g>
          </g>
          <g id="Grupo_1094652" data-name="Grupo 1094652">
            <path id="Trazado_836548" data-name="Trazado 836548" d="M150.48,151.32a9.38,9.38,0,1,1-9.38-9.38A9.381,9.381,0,0,1,150.48,151.32Z" fill="#03bffa"/>
            <g id="shadow_00000085955750026756470860000000678686483000387463_">
              <path id="Trazado_836549" data-name="Trazado 836549" d="M149.12,151.32a8.03,8.03,0,1,1-8.03-8.03A8.03,8.03,0,0,1,149.12,151.32Z" fill="#0059f9"/>
              <g id="Grupo_1094647" data-name="Grupo 1094647" clip-path="url(#clip-path-9)">
                <path id="Dollar_00000016794353013950651510000000772709344840307104_" d="M142.02,152.79v1.85q.87-.135.87-.87C142.89,153.36,142.6,153.04,142.02,152.79Zm0,3.27v1.32h-.89v-1.29a4.917,4.917,0,0,1-2.3-.56v-1.69a3.637,3.637,0,0,0,1.05.53,4.761,4.761,0,0,0,1.25.28v-2.22a4.738,4.738,0,0,1-1.95-1.15,2.254,2.254,0,0,1-.52-1.51,2.22,2.22,0,0,1,.68-1.63,2.82,2.82,0,0,1,1.79-.78v-1.13h.89v1.11a4.578,4.578,0,0,1,1.92.41v1.64a4.589,4.589,0,0,0-1.92-.63v2.31a4.846,4.846,0,0,1,1.91,1.1,2.127,2.127,0,0,1,.58,1.49,2.161,2.161,0,0,1-.65,1.63A2.974,2.974,0,0,1,142.02,156.06Zm-.89-5.33V148.8c-.56.1-.85.4-.85.88C140.28,150.1,140.56,150.45,141.13,150.73Z" fill="#6a43f4"/>
              </g>
              <g id="Grupo_1094648" data-name="Grupo 1094648" clip-path="url(#clip-path-9)">
                <path id="Trazado_836551" data-name="Trazado 836551" d="M143.69,151.94c-.06-.06-.12-.12-.19-.18-.02-.02-.04-.05-.06-.07a4.651,4.651,0,0,0-1.67-1.01v-2.16a4.735,4.735,0,0,1,1.92.63v-1.64a1.914,1.914,0,0,1-.25-.25,4.118,4.118,0,0,0-1.67-.4v-.88l-.25-.25h-.89v1.13a2.82,2.82,0,0,0-1.79.78,2.22,2.22,0,0,0-.68,1.63,2.254,2.254,0,0,0,.52,1.51,1.752,1.752,0,0,0,.24.23l.01.01a4.283,4.283,0,0,0,1.7,1.05v2.07a4.761,4.761,0,0,1-1.25-.28,3.388,3.388,0,0,1-1.05-.53v1.69a1.431,1.431,0,0,1,.25.25,5.052,5.052,0,0,0,2.06.55v1.05l.25.25h.89V155.8a3.111,3.111,0,0,0,1.85-.75,2.161,2.161,0,0,0,.65-1.63A2.223,2.223,0,0,0,143.69,151.94Zm-1.29,1.33a.777.777,0,0,1-.63.81v-1.54a2.075,2.075,0,0,1,.47.27A.777.777,0,0,1,142.4,153.27Zm-2.36-3.84a.8.8,0,0,1,.6-.82v1.62a2.632,2.632,0,0,1-.41-.26A.829.829,0,0,1,140.04,149.43Z" fill="url(#linear-gradient-3)"/>
              </g>
              <g id="Grupo_1094649" data-name="Grupo 1094649" clip-path="url(#clip-path-9)">
                <path id="Dollar_00000107564717088947509040000008863216748548697475_" d="M141.53,155.57v1.32h-.89V155.6a4.917,4.917,0,0,1-2.3-.56v-1.69a3.637,3.637,0,0,0,1.05.53,4.761,4.761,0,0,0,1.25.28v-2.22a4.738,4.738,0,0,1-1.95-1.15,2.254,2.254,0,0,1-.52-1.51,2.22,2.22,0,0,1,.68-1.63,2.82,2.82,0,0,1,1.79-.78v-1.13h.89v1.11a4.578,4.578,0,0,1,1.92.41v1.64a4.589,4.589,0,0,0-1.92-.63v2.31a4.846,4.846,0,0,1,1.91,1.1,2.084,2.084,0,0,1,.58,1.49,2.161,2.161,0,0,1-.65,1.63A2.974,2.974,0,0,1,141.53,155.57Zm-.89-5.33v-1.93c-.56.1-.85.4-.85.88C139.79,149.61,140.07,149.96,140.64,150.24Zm.89,2.06v1.85q.87-.135.87-.87C142.4,152.87,142.11,152.55,141.53,152.3Z" fill="#03bffa"/>
              </g>
            </g>
            <path id="Trazado_836554" data-name="Trazado 836554" d="M133.74,152a8.033,8.033,0,0,1,13.36-6.01,8.026,8.026,0,1,0-11.33,11.33A7.97,7.97,0,0,1,133.74,152Z" fill="#6a43f4"/>
            <g id="Grupo_1094651" data-name="Grupo 1094651">
              <g id="Grupo_1094650" data-name="Grupo 1094650" clip-path="url(#clip-path-12)">
                <path id="Trazado_836555" data-name="Trazado 836555" d="M142.61,143.62l-.48-.08.29-1.75.48.08Zm1.75-1.35-.47-.15-.56,1.68.47.16Zm1.37.62-.44-.23-.81,1.57.44.23Zm.19,2.24,1.05-1.43-.4-.29-1.05,1.43Zm.89.82,1.25-1.25-.35-.35-1.25,1.25Zm.76.94,1.43-1.05-.29-.4-1.43,1.05Zm.6,1.04,1.57-.82-.23-.44-1.57.82Zm.44,1.14,1.68-.56-.16-.47-1.68.56Zm.26,1.22,1.75-.29-.08-.48-1.75.29Zm.06.78v.49h1.77v-.49Zm-.14,1.76,1.75.29.08-.48-1.75-.28Zm-.33,1.2,1.68.56.15-.47-1.68-.56Zm-.51,1.11,1.57.82.23-.44-1.57-.82Zm-.67,1.01,1.43,1.05.29-.4-1.43-1.05Zm-.81.89,1.25,1.25.35-.35-1.25-1.25Zm-.94.75,1.05,1.43.4-.29-1.05-1.43Zm-1.05.61.82,1.57.44-.23-.82-1.57Zm-1.14.44.56,1.68.47-.15-.56-1.68Zm-1.21.26.29,1.75.48-.08-.29-1.75Zm-1.28.06v1.77h.49v-1.77Zm-1.56,1.61.48.08.28-1.75-.48-.08Zm-1.47-.41.47.16.56-1.68-.47-.15Zm-1.36-.62.44.23.81-1.57-.44-.23Zm-.19-2.24-1.05,1.43.4.29,1.05-1.43Zm-.89-.81-1.25,1.25.35.35,1.25-1.25Zm-.76-.94-1.43,1.05.29.4,1.43-1.05Zm-.6-1.05-1.57.82.23.44,1.57-.82Zm-.44-1.14-1.68.56.15.47,1.68-.56Zm-.26-1.21-1.75.29.08.48,1.75-.29Zm-.07-1.28h-1.77v.49h1.77Zm.15-1.27-1.75-.28-.08.48,1.75.28Zm.33-1.19-1.68-.56-.15.47,1.68.56Zm.51-1.11-1.57-.81-.23.44,1.57.81Zm.67-1.01-1.43-1.05-.29.4,1.43,1.05Zm.81-.89-1.25-1.25-.35.35,1.25,1.25Zm.94-.75-1.05-1.43-.4.29,1.05,1.43Zm1.05-.61-.82-1.57-.44.23.82,1.57Zm1.14-.44-.56-1.68-.47.16.56,1.68Zm1.21-.26-.29-1.75-.48.08.29,1.75Zm1.28-1.83h-.49v1.77h.49Z" fill="#6a43f4" opacity="0.7"/>
              </g>
            </g>
          </g>
        </g>
        <g id="Grupo_1094654" data-name="Grupo 1094654">
          <path id="Trazado_836557" data-name="Trazado 836557" d="M122.22,60.69V85.5l22.58,19.8v26.12l14.5-9.32V105.3l22.59-19.8V60.69Z" fill="#a6c5fe"/>
          <rect id="Rectángulo_387385" data-name="Rectángulo 387385" width="63.58" height="6.85" transform="translate(120.26 60.48)" fill="#0840a8"/>
        </g>
      </g>
      <g id="Grupo_1094661" data-name="Grupo 1094661">
        <path id="Trazado_836558" data-name="Trazado 836558" d="M352.19,156.7H337.22a6.726,6.726,0,0,1-6.73-6.73V109.1a6.726,6.726,0,0,1,6.73-6.73h14.97a6.726,6.726,0,0,1,6.73,6.73v40.87A6.732,6.732,0,0,1,352.19,156.7Z" fill="#002775"/>
        <path id="Trazado_836559" data-name="Trazado 836559" d="M347.9,105.59h-6.39a.65.65,0,0,0,0,1.3h6.39a.65.65,0,0,0,0-1.3Z" fill="#0840a8"/>
        <rect id="Rectángulo_387386" data-name="Rectángulo 387386" width="25.48" height="36.5" transform="translate(331.97 109.68)" fill="#fff"/>
        <path id="Trazado_836560" data-name="Trazado 836560" d="M345.61,153.51h-1.8a1.408,1.408,0,0,1-1.41-1.41v-1.8a1.408,1.408,0,0,1,1.41-1.41h1.8a1.408,1.408,0,0,1,1.41,1.41v1.8A1.408,1.408,0,0,1,345.61,153.51Z" fill="#0840a8"/>
        <g id="Grupo_1094659" data-name="Grupo 1094659">
          <rect id="Rectángulo_387387" data-name="Rectángulo 387387" width="17.68" height="3.45" transform="translate(336.1 111.78)" fill="#03bffa"/>
          <g id="Grupo_1094658" data-name="Grupo 1094658">
            <g id="Grupo_1094656" data-name="Grupo 1094656">
              <rect id="Rectángulo_387388" data-name="Rectángulo 387388" width="18.15" height="2.02" transform="translate(335.63 138.08)" fill="#d7e0fc"/>
            </g>
            <g id="Grupo_1094657" data-name="Grupo 1094657">
              <rect id="Rectángulo_387389" data-name="Rectángulo 387389" width="18.15" height="2.02" transform="translate(335.63 142.32)" fill="#d7e0fc"/>
            </g>
          </g>
        </g>
        <g id="Grupo_1094660" data-name="Grupo 1094660">
          <path id="Trazado_836561" data-name="Trazado 836561" d="M344.71,131.58a4.63,4.63,0,1,1,0-9.26v-4.21a8.84,8.84,0,0,0,0,17.68,8.953,8.953,0,0,0,3.16-.58l-1.51-3.93A4.737,4.737,0,0,1,344.71,131.58Z" fill="#03bffa"/>
          <path id="Trazado_836562" data-name="Trazado 836562" d="M349.33,126.7l4.21-.23a8.843,8.843,0,0,0-8.83-8.36v4.21A4.63,4.63,0,0,1,349.33,126.7Z" fill="#ed2d59"/>
          <path id="Trazado_836563" data-name="Trazado 836563" d="M353.54,126.47l-4.21.23c0,.08.01.17.01.25a4.642,4.642,0,0,1-.95,2.81l3.34,2.56a8.814,8.814,0,0,0,1.82-5.38C353.55,126.79,353.54,126.63,353.54,126.47Z" fill="#03bffa"/>
          <path id="Trazado_836564" data-name="Trazado 836564" d="M346.36,131.27l1.51,3.93a8.931,8.931,0,0,0,3.86-2.88l-3.34-2.56A4.628,4.628,0,0,1,346.36,131.27Z" fill="#0840a8"/>
        </g>
      </g>
      <g id="Grupo_1094664" data-name="Grupo 1094664">
        <g id="Grupo_1094662" data-name="Grupo 1094662">
          <rect id="Rectángulo_387390" data-name="Rectángulo 387390" width="6.44" height="12.24" transform="translate(343.2 52.99)" fill="#002775"/>
          <rect id="Rectángulo_387391" data-name="Rectángulo 387391" width="6.44" height="17.27" transform="translate(352.98 47.95)" fill="#002775"/>
          <rect id="Rectángulo_387392" data-name="Rectángulo 387392" width="6.44" height="21.89" transform="translate(362.77 43.34)" fill="#002775"/>
        </g>
        <g id="Grupo_1094663" data-name="Grupo 1094663">
          <path id="Trazado_836565" data-name="Trazado 836565" d="M357.14,77.12a22.858,22.858,0,0,1-2.09-45.62V19.65A34.66,34.66,0,1,0,367.6,87.28l-4.25-11.04A22.78,22.78,0,0,1,357.14,77.12Z" fill="#03bffa"/>
          <path id="Trazado_836566" data-name="Trazado 836566" d="M379.72,50.83l11.83-.7a34.665,34.665,0,0,0-32.32-30.49V31.5A22.872,22.872,0,0,1,379.72,50.83Z" fill="#7c3eff"/>
          <path id="Trazado_836567" data-name="Trazado 836567" d="M376.51,66.37l9.42,7.17a34.417,34.417,0,0,0,5.88-19.23l-11.84.7A22.706,22.706,0,0,1,376.51,66.37Z" fill="#d1bbff"/>
          <path id="Trazado_836568" data-name="Trazado 836568" d="M367.26,74.75l4.24,11.03a34.846,34.846,0,0,0,11.88-8.91l-9.41-7.16A23.117,23.117,0,0,1,367.26,74.75Z" fill="#005afd"/>
        </g>
      </g>
      <g id="Grupo_1094708" data-name="Grupo 1094708">
        <g id="Grupo_1094701" data-name="Grupo 1094701">
          <g id="Grupo_1094673" data-name="Grupo 1094673">
            <g id="Grupo_1094665" data-name="Grupo 1094665">
              <path id="Trazado_836569" data-name="Trazado 836569" d="M93.42,142.99a.39.39,0,0,1-.39-.39v-3.55a.39.39,0,0,1,.39-.39.4.4,0,0,1,.39.39v3.55A.4.4,0,0,1,93.42,142.99Z" fill="#002775"/>
            </g>
            <g id="Grupo_1094666" data-name="Grupo 1094666">
              <path id="Trazado_836570" data-name="Trazado 836570" d="M95.45,142.99a.39.39,0,0,1-.39-.39v-3.55a.39.39,0,0,1,.39-.39.4.4,0,0,1,.39.39v3.55A.384.384,0,0,1,95.45,142.99Z" fill="#002775"/>
            </g>
            <g id="Grupo_1094667" data-name="Grupo 1094667">
              <path id="Trazado_836571" data-name="Trazado 836571" d="M97.49,142.99a.39.39,0,0,1-.39-.39v-3.55a.39.39,0,0,1,.39-.39.4.4,0,0,1,.39.39v3.55A.39.39,0,0,1,97.49,142.99Z" fill="#002775"/>
            </g>
            <g id="Grupo_1094668" data-name="Grupo 1094668">
              <path id="Trazado_836572" data-name="Trazado 836572" d="M99.53,142.99a.39.39,0,0,1-.39-.39v-3.55a.39.39,0,1,1,.78,0v3.55A.39.39,0,0,1,99.53,142.99Z" fill="#002775"/>
            </g>
            <g id="Grupo_1094669" data-name="Grupo 1094669">
              <path id="Trazado_836573" data-name="Trazado 836573" d="M101.57,142.99a.39.39,0,0,1-.39-.39v-3.55a.39.39,0,1,1,.78,0v3.55A.4.4,0,0,1,101.57,142.99Z" fill="#002775"/>
            </g>
            <g id="Grupo_1094670" data-name="Grupo 1094670">
              <path id="Trazado_836574" data-name="Trazado 836574" d="M103.6,142.99a.39.39,0,0,1-.39-.39v-3.55a.39.39,0,0,1,.78,0v3.55A.384.384,0,0,1,103.6,142.99Z" fill="#002775"/>
            </g>
            <g id="Grupo_1094671" data-name="Grupo 1094671">
              <path id="Trazado_836575" data-name="Trazado 836575" d="M105.64,142.99a.39.39,0,0,1-.39-.39v-3.55a.39.39,0,0,1,.78,0v3.55A.39.39,0,0,1,105.64,142.99Z" fill="#002775"/>
            </g>
            <g id="Grupo_1094672" data-name="Grupo 1094672">
              <path id="Trazado_836576" data-name="Trazado 836576" d="M107.68,142.99a.39.39,0,0,1-.39-.39v-3.55a.39.39,0,0,1,.78,0v3.55A.39.39,0,0,1,107.68,142.99Z" fill="#002775"/>
            </g>
          </g>
          <g id="Grupo_1094682" data-name="Grupo 1094682">
            <g id="Grupo_1094674" data-name="Grupo 1094674">
              <path id="Trazado_836577" data-name="Trazado 836577" d="M93.42,164.43a.39.39,0,0,1-.39-.39v-3.55a.39.39,0,0,1,.39-.39.4.4,0,0,1,.39.39v3.55A.4.4,0,0,1,93.42,164.43Z" fill="#002775"/>
            </g>
            <g id="Grupo_1094675" data-name="Grupo 1094675">
              <path id="Trazado_836578" data-name="Trazado 836578" d="M95.45,164.43a.39.39,0,0,1-.39-.39v-3.55a.39.39,0,0,1,.39-.39.4.4,0,0,1,.39.39v3.55A.384.384,0,0,1,95.45,164.43Z" fill="#002775"/>
            </g>
            <g id="Grupo_1094676" data-name="Grupo 1094676">
              <path id="Trazado_836579" data-name="Trazado 836579" d="M97.49,164.43a.39.39,0,0,1-.39-.39v-3.55a.39.39,0,0,1,.39-.39.4.4,0,0,1,.39.39v3.55A.39.39,0,0,1,97.49,164.43Z" fill="#002775"/>
            </g>
            <g id="Grupo_1094677" data-name="Grupo 1094677">
              <path id="Trazado_836580" data-name="Trazado 836580" d="M99.53,164.43a.39.39,0,0,1-.39-.39v-3.55a.39.39,0,0,1,.78,0v3.55A.39.39,0,0,1,99.53,164.43Z" fill="#002775"/>
            </g>
            <g id="Grupo_1094678" data-name="Grupo 1094678">
              <path id="Trazado_836581" data-name="Trazado 836581" d="M101.57,164.43a.39.39,0,0,1-.39-.39v-3.55a.39.39,0,1,1,.78,0v3.55A.4.4,0,0,1,101.57,164.43Z" fill="#002775"/>
            </g>
            <g id="Grupo_1094679" data-name="Grupo 1094679">
              <path id="Trazado_836582" data-name="Trazado 836582" d="M103.6,164.43a.39.39,0,0,1-.39-.39v-3.55a.39.39,0,0,1,.78,0v3.55A.384.384,0,0,1,103.6,164.43Z" fill="#002775"/>
            </g>
            <g id="Grupo_1094680" data-name="Grupo 1094680">
              <path id="Trazado_836583" data-name="Trazado 836583" d="M105.64,164.43a.39.39,0,0,1-.39-.39v-3.55a.39.39,0,0,1,.78,0v3.55A.39.39,0,0,1,105.64,164.43Z" fill="#002775"/>
            </g>
            <g id="Grupo_1094681" data-name="Grupo 1094681">
              <path id="Trazado_836584" data-name="Trazado 836584" d="M107.68,164.43a.39.39,0,0,1-.39-.39v-3.55a.39.39,0,0,1,.78,0v3.55A.39.39,0,0,1,107.68,164.43Z" fill="#002775"/>
            </g>
          </g>
          <g id="Grupo_1094691" data-name="Grupo 1094691">
            <g id="Grupo_1094683" data-name="Grupo 1094683">
              <path id="Trazado_836585" data-name="Trazado 836585" d="M113.05,144.8h-3.56a.39.39,0,1,1,0-.78h3.56a.39.39,0,0,1,.39.39A.4.4,0,0,1,113.05,144.8Z" fill="#002775"/>
            </g>
            <g id="Grupo_1094684" data-name="Grupo 1094684">
              <path id="Trazado_836586" data-name="Trazado 836586" d="M113.05,146.84h-3.56a.39.39,0,1,1,0-.78h3.56a.39.39,0,0,1,.39.39A.4.4,0,0,1,113.05,146.84Z" fill="#002775"/>
            </g>
            <g id="Grupo_1094685" data-name="Grupo 1094685">
              <path id="Trazado_836587" data-name="Trazado 836587" d="M113.05,148.88h-3.56a.39.39,0,0,1-.39-.39.4.4,0,0,1,.39-.39h3.56a.39.39,0,0,1,.39.39A.4.4,0,0,1,113.05,148.88Z" fill="#002775"/>
            </g>
            <g id="Grupo_1094686" data-name="Grupo 1094686">
              <path id="Trazado_836588" data-name="Trazado 836588" d="M113.05,150.91h-3.56a.39.39,0,1,1,0-.78h3.56a.39.39,0,1,1,0,.78Z" fill="#002775"/>
            </g>
            <g id="Grupo_1094687" data-name="Grupo 1094687">
              <path id="Trazado_836589" data-name="Trazado 836589" d="M113.05,152.95h-3.56a.39.39,0,1,1,0-.78h3.56a.39.39,0,0,1,.39.39A.4.4,0,0,1,113.05,152.95Z" fill="#002775"/>
            </g>
            <g id="Grupo_1094688" data-name="Grupo 1094688">
              <path id="Trazado_836590" data-name="Trazado 836590" d="M113.05,154.99h-3.56a.39.39,0,1,1,0-.78h3.56a.39.39,0,0,1,.39.39A.4.4,0,0,1,113.05,154.99Z" fill="#002775"/>
            </g>
            <g id="Grupo_1094689" data-name="Grupo 1094689">
              <path id="Trazado_836591" data-name="Trazado 836591" d="M113.05,157.02h-3.56a.39.39,0,0,1,0-.78h3.56a.39.39,0,1,1,0,.78Z" fill="#002775"/>
            </g>
            <g id="Grupo_1094690" data-name="Grupo 1094690">
              <path id="Trazado_836592" data-name="Trazado 836592" d="M113.05,159.06h-3.56a.39.39,0,1,1,0-.78h3.56a.39.39,0,1,1,0,.78Z" fill="#002775"/>
            </g>
          </g>
          <g id="Grupo_1094700" data-name="Grupo 1094700">
            <g id="Grupo_1094692" data-name="Grupo 1094692">
              <path id="Trazado_836593" data-name="Trazado 836593" d="M91.6,144.8H88.04a.39.39,0,1,1,0-.78H91.6a.39.39,0,0,1,.39.39A.384.384,0,0,1,91.6,144.8Z" fill="#002775"/>
            </g>
            <g id="Grupo_1094693" data-name="Grupo 1094693">
              <path id="Trazado_836594" data-name="Trazado 836594" d="M91.6,146.84H88.04a.39.39,0,1,1,0-.78H91.6a.39.39,0,0,1,.39.39A.384.384,0,0,1,91.6,146.84Z" fill="#002775"/>
            </g>
            <g id="Grupo_1094694" data-name="Grupo 1094694">
              <path id="Trazado_836595" data-name="Trazado 836595" d="M91.6,148.88H88.04a.39.39,0,0,1-.39-.39.4.4,0,0,1,.39-.39H91.6a.39.39,0,0,1,0,.78Z" fill="#002775"/>
            </g>
            <g id="Grupo_1094695" data-name="Grupo 1094695">
              <path id="Trazado_836596" data-name="Trazado 836596" d="M91.6,150.91H88.04a.39.39,0,1,1,0-.78H91.6a.39.39,0,0,1,.39.39A.378.378,0,0,1,91.6,150.91Z" fill="#002775"/>
            </g>
            <g id="Grupo_1094696" data-name="Grupo 1094696">
              <path id="Trazado_836597" data-name="Trazado 836597" d="M91.6,152.95H88.04a.39.39,0,0,1,0-.78H91.6a.39.39,0,0,1,.39.39A.384.384,0,0,1,91.6,152.95Z" fill="#002775"/>
            </g>
            <g id="Grupo_1094697" data-name="Grupo 1094697">
              <path id="Trazado_836598" data-name="Trazado 836598" d="M91.6,154.99H88.04a.39.39,0,1,1,0-.78H91.6a.39.39,0,0,1,.39.39A.384.384,0,0,1,91.6,154.99Z" fill="#002775"/>
            </g>
            <g id="Grupo_1094698" data-name="Grupo 1094698">
              <path id="Trazado_836599" data-name="Trazado 836599" d="M91.6,157.02H88.04a.39.39,0,1,1,0-.78H91.6a.39.39,0,0,1,.39.39A.378.378,0,0,1,91.6,157.02Z" fill="#002775"/>
            </g>
            <g id="Grupo_1094699" data-name="Grupo 1094699">
              <path id="Trazado_836600" data-name="Trazado 836600" d="M91.6,159.06H88.04a.39.39,0,1,1,0-.78H91.6a.39.39,0,0,1,.39.39A.378.378,0,0,1,91.6,159.06Z" fill="#002775"/>
            </g>
          </g>
        </g>
        <g id="Grupo_1094707" data-name="Grupo 1094707">
          <rect id="Rectángulo_387393" data-name="Rectángulo 387393" width="18.11" height="18.11" transform="translate(91.49 142.37)" fill="#0840a8"/>
          <rect id="Rectángulo_387394" data-name="Rectángulo 387394" width="12.64" height="12.64" transform="translate(94.23 145.11)" fill="#002775"/>
          <g id="Grupo_1094706" data-name="Grupo 1094706">
            <g id="Grupo_1094702" data-name="Grupo 1094702">
              <path id="Trazado_836601" data-name="Trazado 836601" d="M96.97,150.43a.39.39,0,0,1-.39-.39v-2.19a.39.39,0,0,1,.39-.39h2.19a.39.39,0,0,1,0,.78h-1.8v1.8A.39.39,0,0,1,96.97,150.43Z" fill="#d7e0fc"/>
            </g>
            <g id="Grupo_1094703" data-name="Grupo 1094703">
              <path id="Trazado_836602" data-name="Trazado 836602" d="M104.13,150.43a.39.39,0,0,1-.39-.39v-1.8h-1.8a.39.39,0,0,1,0-.78h2.19a.39.39,0,0,1,.39.39v2.19A.384.384,0,0,1,104.13,150.43Z" fill="#d7e0fc"/>
            </g>
            <g id="Grupo_1094704" data-name="Grupo 1094704">
              <path id="Trazado_836603" data-name="Trazado 836603" d="M104.13,155.4h-2.19a.39.39,0,0,1,0-.78h1.8v-1.8a.39.39,0,0,1,.78,0v2.19A.384.384,0,0,1,104.13,155.4Z" fill="#d7e0fc"/>
            </g>
            <g id="Grupo_1094705" data-name="Grupo 1094705">
              <path id="Trazado_836604" data-name="Trazado 836604" d="M99.16,155.4H96.97a.39.39,0,0,1-.39-.39v-2.19a.39.39,0,1,1,.78,0v1.8h1.8a.39.39,0,0,1,.39.39A.384.384,0,0,1,99.16,155.4Z" fill="#d7e0fc"/>
            </g>
          </g>
        </g>
      </g>
      <g id="Grupo_1094714" data-name="Grupo 1094714">
        <g id="Grupo_1094713" data-name="Grupo 1094713">
          <path id="Trazado_836605" data-name="Trazado 836605" d="M449.64,78.14l-3.13,3.13L409.49,44.25l-5.79-.16L392.12,32.51l4.37-4.39,4.39-4.39,11.59,11.6.16,5.78,23.82,23.83,6.82,6.82Z" fill="#002775"/>
          <path id="Trazado_836606" data-name="Trazado 836606" d="M465.24,94.15l-2.66,2.65a3.2,3.2,0,0,1-4.54,0L437.07,75.83l7.15-7.15,21.03,21.03A3.16,3.16,0,0,1,465.24,94.15Z" fill="#03bffa"/>
          <path id="Trazado_836607" data-name="Trazado 836607" d="M444.21,68.69l-7.15,7.14-4.4-1.34,3.83-3.82,2.55-2.56.64-.64,3.19-3.19Z" fill="#0059f9"/>
          <g id="Grupo_1094712" data-name="Grupo 1094712">
            <g id="Grupo_1094709" data-name="Grupo 1094709">
              <rect id="Rectángulo_387395" data-name="Rectángulo 387395" width="0.82" height="29.13" transform="translate(439.652 75.371) rotate(-45)" fill="#0059f9"/>
            </g>
            <g id="Grupo_1094710" data-name="Grupo 1094710">
              <rect id="Rectángulo_387396" data-name="Rectángulo 387396" width="0.82" height="29.15" transform="translate(441.408 73.606) rotate(-45)" fill="#0059f9"/>
            </g>
            <g id="Grupo_1094711" data-name="Grupo 1094711">
              <rect id="Rectángulo_387397" data-name="Rectángulo 387397" width="0.82" height="29.17" transform="translate(443.162 71.854) rotate(-45)" fill="#0059f9"/>
            </g>
          </g>
        </g>
        <path id="Trazado_836608" data-name="Trazado 836608" d="M464.09,36.99,452.95,48.13l-8.84-2.37-2.37-8.84,11.14-11.14L445,23.73,433.91,34.82l3.1,11.58L407.5,75.91l-6.72-1.8-8.65,8.65,3.16,11.82,11.82,3.17,8.65-8.65-1.8-6.73,29.51-29.51,11.58,3.1,11.09-11.08ZM399.97,89.91l-1.46-5.44,3.98-3.97,5.43,1.45,1.46,5.44-3.98,3.97Z" fill="#a6eaff"/>
      </g>
      <g id="Grupo_1094716" data-name="Grupo 1094716">
        <rect id="Rectángulo_387398" data-name="Rectángulo 387398" width="3.03" height="16.06" transform="translate(29.45 124.41)" fill="#fff"/>
        <rect id="Rectángulo_387399" data-name="Rectángulo 387399" width="7.46" height="21.51" transform="translate(27.23 135.19)" fill="#7c3eff"/>
        <g id="Grupo_1094715" data-name="Grupo 1094715">
          <path id="Trazado_836609" data-name="Trazado 836609" d="M30.96,92.45a17.2,17.2,0,1,0,17.2,17.19A17.188,17.188,0,0,0,30.96,92.45Zm0,30.37a13.17,13.17,0,1,1,13.17-13.17A13.175,13.175,0,0,1,30.96,122.82Z" fill="#005afd"/>
          <path id="Trazado_836610" data-name="Trazado 836610" d="M44.13,109.65A13.17,13.17,0,1,1,30.96,96.48,13.175,13.175,0,0,1,44.13,109.65Z" fill="#dfeff3"/>
          <path id="Trazado_836611" data-name="Trazado 836611" d="M40.07,105.1a2.22,2.22,0,1,1-2.22-2.22A2.215,2.215,0,0,1,40.07,105.1Z" fill="#f0f9fc"/>
        </g>
      </g>
      <g id="Grupo_1094760" data-name="Grupo 1094760">
        <g id="Grupo_1094753" data-name="Grupo 1094753">
          <g id="Grupo_1094725" data-name="Grupo 1094725">
            <g id="Grupo_1094717" data-name="Grupo 1094717">
              <path id="Trazado_836612" data-name="Trazado 836612" d="M105.3,17.62a.39.39,0,0,1-.39-.39V13.68a.39.39,0,1,1,.78,0v3.55A.384.384,0,0,1,105.3,17.62Z" fill="#002775"/>
            </g>
            <g id="Grupo_1094718" data-name="Grupo 1094718">
              <path id="Trazado_836613" data-name="Trazado 836613" d="M107.34,17.62a.39.39,0,0,1-.39-.39V13.68a.39.39,0,1,1,.78,0v3.55A.384.384,0,0,1,107.34,17.62Z" fill="#002775"/>
            </g>
            <g id="Grupo_1094719" data-name="Grupo 1094719">
              <path id="Trazado_836614" data-name="Trazado 836614" d="M109.38,17.62a.39.39,0,0,1-.39-.39V13.68a.39.39,0,1,1,.78,0v3.55A.39.39,0,0,1,109.38,17.62Z" fill="#002775"/>
            </g>
            <g id="Grupo_1094720" data-name="Grupo 1094720">
              <path id="Trazado_836615" data-name="Trazado 836615" d="M111.42,17.62a.39.39,0,0,1-.39-.39V13.68a.39.39,0,0,1,.39-.39.4.4,0,0,1,.39.39v3.55A.4.4,0,0,1,111.42,17.62Z" fill="#002775"/>
            </g>
            <g id="Grupo_1094721" data-name="Grupo 1094721">
              <path id="Trazado_836616" data-name="Trazado 836616" d="M113.45,17.62a.39.39,0,0,1-.39-.39V13.68a.39.39,0,1,1,.78,0v3.55A.384.384,0,0,1,113.45,17.62Z" fill="#002775"/>
            </g>
            <g id="Grupo_1094722" data-name="Grupo 1094722">
              <path id="Trazado_836617" data-name="Trazado 836617" d="M115.49,17.62a.39.39,0,0,1-.39-.39V13.68a.39.39,0,1,1,.78,0v3.55A.384.384,0,0,1,115.49,17.62Z" fill="#002775"/>
            </g>
            <g id="Grupo_1094723" data-name="Grupo 1094723">
              <path id="Trazado_836618" data-name="Trazado 836618" d="M117.53,17.62a.39.39,0,0,1-.39-.39V13.68a.39.39,0,1,1,.78,0v3.55A.39.39,0,0,1,117.53,17.62Z" fill="#002775"/>
            </g>
            <g id="Grupo_1094724" data-name="Grupo 1094724">
              <path id="Trazado_836619" data-name="Trazado 836619" d="M119.57,17.62a.39.39,0,0,1-.39-.39V13.68a.39.39,0,1,1,.78,0v3.55A.4.4,0,0,1,119.57,17.62Z" fill="#002775"/>
            </g>
          </g>
          <g id="Grupo_1094734" data-name="Grupo 1094734">
            <g id="Grupo_1094726" data-name="Grupo 1094726">
              <path id="Trazado_836620" data-name="Trazado 836620" d="M105.3,39.06a.39.39,0,0,1-.39-.39V35.12a.39.39,0,1,1,.78,0v3.55A.384.384,0,0,1,105.3,39.06Z" fill="#002775"/>
            </g>
            <g id="Grupo_1094727" data-name="Grupo 1094727">
              <path id="Trazado_836621" data-name="Trazado 836621" d="M107.34,39.06a.39.39,0,0,1-.39-.39V35.12a.39.39,0,1,1,.78,0v3.55A.384.384,0,0,1,107.34,39.06Z" fill="#002775"/>
            </g>
            <g id="Grupo_1094728" data-name="Grupo 1094728">
              <path id="Trazado_836622" data-name="Trazado 836622" d="M109.38,39.06a.39.39,0,0,1-.39-.39V35.12a.39.39,0,1,1,.78,0v3.55A.39.39,0,0,1,109.38,39.06Z" fill="#002775"/>
            </g>
            <g id="Grupo_1094729" data-name="Grupo 1094729">
              <path id="Trazado_836623" data-name="Trazado 836623" d="M111.42,39.06a.39.39,0,0,1-.39-.39V35.12a.39.39,0,0,1,.39-.39.4.4,0,0,1,.39.39v3.55A.4.4,0,0,1,111.42,39.06Z" fill="#002775"/>
            </g>
            <g id="Grupo_1094730" data-name="Grupo 1094730">
              <path id="Trazado_836624" data-name="Trazado 836624" d="M113.45,39.06a.39.39,0,0,1-.39-.39V35.12a.39.39,0,1,1,.78,0v3.55A.384.384,0,0,1,113.45,39.06Z" fill="#002775"/>
            </g>
            <g id="Grupo_1094731" data-name="Grupo 1094731">
              <path id="Trazado_836625" data-name="Trazado 836625" d="M115.49,39.06a.39.39,0,0,1-.39-.39V35.12a.39.39,0,0,1,.78,0v3.55A.384.384,0,0,1,115.49,39.06Z" fill="#002775"/>
            </g>
            <g id="Grupo_1094732" data-name="Grupo 1094732">
              <path id="Trazado_836626" data-name="Trazado 836626" d="M117.53,39.06a.39.39,0,0,1-.39-.39V35.12a.39.39,0,1,1,.78,0v3.55A.39.39,0,0,1,117.53,39.06Z" fill="#002775"/>
            </g>
            <g id="Grupo_1094733" data-name="Grupo 1094733">
              <path id="Trazado_836627" data-name="Trazado 836627" d="M119.57,39.06a.39.39,0,0,1-.39-.39V35.12a.39.39,0,0,1,.78,0v3.55A.4.4,0,0,1,119.57,39.06Z" fill="#002775"/>
            </g>
          </g>
          <g id="Grupo_1094743" data-name="Grupo 1094743">
            <g id="Grupo_1094735" data-name="Grupo 1094735">
              <path id="Trazado_836628" data-name="Trazado 836628" d="M124.93,19.43h-3.56a.39.39,0,0,1,0-.78h3.56a.39.39,0,0,1,.39.39A.378.378,0,0,1,124.93,19.43Z" fill="#002775"/>
            </g>
            <g id="Grupo_1094736" data-name="Grupo 1094736">
              <path id="Trazado_836629" data-name="Trazado 836629" d="M124.93,21.47h-3.56a.39.39,0,0,1,0-.78h3.56a.39.39,0,0,1,.39.39A.384.384,0,0,1,124.93,21.47Z" fill="#002775"/>
            </g>
            <g id="Grupo_1094737" data-name="Grupo 1094737">
              <path id="Trazado_836630" data-name="Trazado 836630" d="M124.93,23.51h-3.56a.39.39,0,0,1,0-.78h3.56a.39.39,0,0,1,.39.39A.384.384,0,0,1,124.93,23.51Z" fill="#002775"/>
            </g>
            <g id="Grupo_1094738" data-name="Grupo 1094738">
              <path id="Trazado_836631" data-name="Trazado 836631" d="M124.93,25.54h-3.56a.39.39,0,0,1,0-.78h3.56a.39.39,0,0,1,.39.39A.378.378,0,0,1,124.93,25.54Z" fill="#002775"/>
            </g>
            <g id="Grupo_1094739" data-name="Grupo 1094739">
              <path id="Trazado_836632" data-name="Trazado 836632" d="M124.93,27.58h-3.56a.39.39,0,0,1,0-.78h3.56a.39.39,0,0,1,.39.39A.384.384,0,0,1,124.93,27.58Z" fill="#002775"/>
            </g>
            <g id="Grupo_1094740" data-name="Grupo 1094740">
              <path id="Trazado_836633" data-name="Trazado 836633" d="M124.93,29.62h-3.56a.39.39,0,0,1,0-.78h3.56a.39.39,0,0,1,.39.39A.384.384,0,0,1,124.93,29.62Z" fill="#002775"/>
            </g>
            <g id="Grupo_1094741" data-name="Grupo 1094741">
              <path id="Trazado_836634" data-name="Trazado 836634" d="M124.93,31.66h-3.56a.39.39,0,0,1,0-.78h3.56a.39.39,0,0,1,.39.39A.384.384,0,0,1,124.93,31.66Z" fill="#002775"/>
            </g>
            <g id="Grupo_1094742" data-name="Grupo 1094742">
              <path id="Trazado_836635" data-name="Trazado 836635" d="M124.93,33.69h-3.56a.39.39,0,0,1,0-.78h3.56a.39.39,0,0,1,.39.39A.378.378,0,0,1,124.93,33.69Z" fill="#002775"/>
            </g>
          </g>
          <g id="Grupo_1094752" data-name="Grupo 1094752">
            <g id="Grupo_1094744" data-name="Grupo 1094744">
              <path id="Trazado_836636" data-name="Trazado 836636" d="M103.49,19.43H99.93a.39.39,0,0,1,0-.78h3.56a.39.39,0,0,1,.39.39A.378.378,0,0,1,103.49,19.43Z" fill="#002775"/>
            </g>
            <g id="Grupo_1094745" data-name="Grupo 1094745">
              <path id="Trazado_836637" data-name="Trazado 836637" d="M103.49,21.47H99.93a.39.39,0,0,1,0-.78h3.56a.39.39,0,0,1,.39.39A.384.384,0,0,1,103.49,21.47Z" fill="#002775"/>
            </g>
            <g id="Grupo_1094746" data-name="Grupo 1094746">
              <path id="Trazado_836638" data-name="Trazado 836638" d="M103.49,23.51H99.93a.39.39,0,0,1,0-.78h3.56a.39.39,0,0,1,.39.39A.384.384,0,0,1,103.49,23.51Z" fill="#002775"/>
            </g>
            <g id="Grupo_1094747" data-name="Grupo 1094747">
              <path id="Trazado_836639" data-name="Trazado 836639" d="M103.49,25.54H99.93a.39.39,0,0,1,0-.78h3.56a.39.39,0,0,1,.39.39A.378.378,0,0,1,103.49,25.54Z" fill="#002775"/>
            </g>
            <g id="Grupo_1094748" data-name="Grupo 1094748">
              <path id="Trazado_836640" data-name="Trazado 836640" d="M103.49,27.58H99.93a.39.39,0,0,1,0-.78h3.56a.39.39,0,0,1,.39.39A.384.384,0,0,1,103.49,27.58Z" fill="#002775"/>
            </g>
            <g id="Grupo_1094749" data-name="Grupo 1094749">
              <path id="Trazado_836641" data-name="Trazado 836641" d="M103.49,29.62H99.93a.39.39,0,0,1,0-.78h3.56a.39.39,0,0,1,.39.39A.384.384,0,0,1,103.49,29.62Z" fill="#002775"/>
            </g>
            <g id="Grupo_1094750" data-name="Grupo 1094750">
              <path id="Trazado_836642" data-name="Trazado 836642" d="M103.49,31.66H99.93a.39.39,0,1,1,0-.78h3.56a.39.39,0,0,1,.39.39A.384.384,0,0,1,103.49,31.66Z" fill="#002775"/>
            </g>
            <g id="Grupo_1094751" data-name="Grupo 1094751">
              <path id="Trazado_836643" data-name="Trazado 836643" d="M103.49,33.69H99.93a.39.39,0,1,1,0-.78h3.56a.39.39,0,0,1,.39.39A.378.378,0,0,1,103.49,33.69Z" fill="#002775"/>
            </g>
          </g>
        </g>
        <g id="Grupo_1094759" data-name="Grupo 1094759">
          <rect id="Rectángulo_387400" data-name="Rectángulo 387400" width="18.11" height="18.11" transform="translate(103.38 17)" fill="#0840a8"/>
          <rect id="Rectángulo_387401" data-name="Rectángulo 387401" width="12.64" height="12.64" transform="translate(106.12 19.74)" fill="#002775"/>
          <g id="Grupo_1094758" data-name="Grupo 1094758">
            <g id="Grupo_1094754" data-name="Grupo 1094754">
              <path id="Trazado_836644" data-name="Trazado 836644" d="M108.85,25.06a.39.39,0,0,1-.39-.39V22.48a.39.39,0,0,1,.39-.39h2.19a.39.39,0,0,1,.39.39.4.4,0,0,1-.39.39h-1.8v1.8A.378.378,0,0,1,108.85,25.06Z" fill="#d7e0fc"/>
            </g>
            <g id="Grupo_1094755" data-name="Grupo 1094755">
              <path id="Trazado_836645" data-name="Trazado 836645" d="M116.02,25.06a.39.39,0,0,1-.39-.39v-1.8h-1.8a.39.39,0,0,1-.39-.39.4.4,0,0,1,.39-.39h2.19a.39.39,0,0,1,.39.39v2.19A.39.39,0,0,1,116.02,25.06Z" fill="#d7e0fc"/>
            </g>
            <g id="Grupo_1094756" data-name="Grupo 1094756">
              <path id="Trazado_836646" data-name="Trazado 836646" d="M116.02,30.03h-2.19a.39.39,0,1,1,0-.78h1.8v-1.8a.39.39,0,1,1,.78,0v2.19A.39.39,0,0,1,116.02,30.03Z" fill="#d7e0fc"/>
            </g>
            <g id="Grupo_1094757" data-name="Grupo 1094757">
              <path id="Trazado_836647" data-name="Trazado 836647" d="M111.05,30.03h-2.19a.39.39,0,0,1-.39-.39V27.45a.39.39,0,1,1,.78,0v1.8h1.8a.39.39,0,0,1,0,.78Z" fill="#d7e0fc"/>
            </g>
          </g>
        </g>
      </g>
      <g id="Grupo_1094763" data-name="Grupo 1094763">
        <g id="Grupo_1094762" data-name="Grupo 1094762">
          <path id="Trazado_836648" data-name="Trazado 836648" d="M464.49,86.75H391.43a5.721,5.721,0,0,0-5.71,5.74v51.34h84.47V92.49A5.719,5.719,0,0,0,464.49,86.75Zm1.68,53.05H389.75V92.49a1.7,1.7,0,0,1,1.68-1.71h73.06a1.7,1.7,0,0,1,1.68,1.71V139.8Z" fill="#0840a8"/>
          <path id="Trazado_836649" data-name="Trazado 836649" d="M466.17,92.49V139.8H389.75V92.49a1.7,1.7,0,0,1,1.68-1.71h73.06A1.7,1.7,0,0,1,466.17,92.49Z" fill="#03bffa"/>
          <path id="Trazado_836650" data-name="Trazado 836650" d="M450.75,105.99l-9.83,10.49-6.56-6.49-14.55,13.96-6.58-7.58-23.48,21.65v1.78h1.39l22.18-19.99,6.35,7.31,14.66-14.08,6.65,6.57,11.36-12.12.97,3.22,3.78-9.88-9.61,4.41Z" fill="#fff"/>
          <path id="Trazado_836651" data-name="Trazado 836651" d="M475.9,143.82v5.14c0,2.83-3.58,5.13-7.99,5.13H388c-4.42,0-7.99-2.3-7.99-5.13v-5.14Z" fill="#d9e6ff"/>
          <g id="Grupo_1094761" data-name="Grupo 1094761">
            <path id="Trazado_836652" data-name="Trazado 836652" d="M433.82,150.09H422.09a1.118,1.118,0,0,1-1.12-1.12h0a1.118,1.118,0,0,1,1.12-1.12h11.73a1.118,1.118,0,0,1,1.12,1.12h0A1.112,1.112,0,0,1,433.82,150.09Z" fill="#0840a8"/>
          </g>
        </g>
      </g>
      <g id="Grupo_1094807" data-name="Grupo 1094807">
        <g id="Grupo_1094800" data-name="Grupo 1094800">
          <g id="Grupo_1094772" data-name="Grupo 1094772">
            <g id="Grupo_1094764" data-name="Grupo 1094764">
              <path id="Trazado_836653" data-name="Trazado 836653" d="M399.9,99.28a.39.39,0,0,1-.39-.39V95.34a.39.39,0,0,1,.78,0v3.55A.378.378,0,0,1,399.9,99.28Z" fill="#002775"/>
            </g>
            <g id="Grupo_1094765" data-name="Grupo 1094765">
              <path id="Trazado_836654" data-name="Trazado 836654" d="M401.94,99.28a.39.39,0,0,1-.39-.39V95.34a.39.39,0,0,1,.78,0v3.55A.378.378,0,0,1,401.94,99.28Z" fill="#002775"/>
            </g>
            <g id="Grupo_1094766" data-name="Grupo 1094766">
              <path id="Trazado_836655" data-name="Trazado 836655" d="M403.98,99.28a.39.39,0,0,1-.39-.39V95.34a.39.39,0,0,1,.78,0v3.55A.384.384,0,0,1,403.98,99.28Z" fill="#002775"/>
            </g>
            <g id="Grupo_1094767" data-name="Grupo 1094767">
              <path id="Trazado_836656" data-name="Trazado 836656" d="M406.02,99.28a.39.39,0,0,1-.39-.39V95.34a.39.39,0,0,1,.78,0v3.55A.39.39,0,0,1,406.02,99.28Z" fill="#002775"/>
            </g>
            <g id="Grupo_1094768" data-name="Grupo 1094768">
              <path id="Trazado_836657" data-name="Trazado 836657" d="M408.05,99.28a.39.39,0,0,1-.39-.39V95.34a.39.39,0,0,1,.78,0v3.55A.378.378,0,0,1,408.05,99.28Z" fill="#002775"/>
            </g>
            <g id="Grupo_1094769" data-name="Grupo 1094769">
              <path id="Trazado_836658" data-name="Trazado 836658" d="M410.09,99.28a.39.39,0,0,1-.39-.39V95.34a.39.39,0,0,1,.78,0v3.55A.384.384,0,0,1,410.09,99.28Z" fill="#002775"/>
            </g>
            <g id="Grupo_1094770" data-name="Grupo 1094770">
              <path id="Trazado_836659" data-name="Trazado 836659" d="M412.13,99.28a.39.39,0,0,1-.39-.39V95.34a.39.39,0,0,1,.78,0v3.55A.384.384,0,0,1,412.13,99.28Z" fill="#002775"/>
            </g>
            <g id="Grupo_1094771" data-name="Grupo 1094771">
              <path id="Trazado_836660" data-name="Trazado 836660" d="M414.17,99.28a.39.39,0,0,1-.39-.39V95.34a.39.39,0,0,1,.78,0v3.55A.391.391,0,0,1,414.17,99.28Z" fill="#002775"/>
            </g>
          </g>
          <g id="Grupo_1094781" data-name="Grupo 1094781">
            <g id="Grupo_1094773" data-name="Grupo 1094773">
              <path id="Trazado_836661" data-name="Trazado 836661" d="M399.9,120.72a.39.39,0,0,1-.39-.39v-3.55a.39.39,0,0,1,.78,0v3.55A.378.378,0,0,1,399.9,120.72Z" fill="#002775"/>
            </g>
            <g id="Grupo_1094774" data-name="Grupo 1094774">
              <path id="Trazado_836662" data-name="Trazado 836662" d="M401.94,120.72a.39.39,0,0,1-.39-.39v-3.55a.39.39,0,0,1,.78,0v3.55A.378.378,0,0,1,401.94,120.72Z" fill="#002775"/>
            </g>
            <g id="Grupo_1094775" data-name="Grupo 1094775">
              <path id="Trazado_836663" data-name="Trazado 836663" d="M403.98,120.72a.39.39,0,0,1-.39-.39v-3.55a.39.39,0,0,1,.78,0v3.55A.384.384,0,0,1,403.98,120.72Z" fill="#002775"/>
            </g>
            <g id="Grupo_1094776" data-name="Grupo 1094776">
              <path id="Trazado_836664" data-name="Trazado 836664" d="M406.02,120.72a.39.39,0,0,1-.39-.39v-3.55a.39.39,0,0,1,.78,0v3.55A.39.39,0,0,1,406.02,120.72Z" fill="#002775"/>
            </g>
            <g id="Grupo_1094777" data-name="Grupo 1094777">
              <path id="Trazado_836665" data-name="Trazado 836665" d="M408.05,120.72a.39.39,0,0,1-.39-.39v-3.55a.39.39,0,0,1,.78,0v3.55A.378.378,0,0,1,408.05,120.72Z" fill="#002775"/>
            </g>
            <g id="Grupo_1094778" data-name="Grupo 1094778">
              <path id="Trazado_836666" data-name="Trazado 836666" d="M410.09,120.72a.39.39,0,0,1-.39-.39v-3.55a.39.39,0,0,1,.78,0v3.55A.384.384,0,0,1,410.09,120.72Z" fill="#002775"/>
            </g>
            <g id="Grupo_1094779" data-name="Grupo 1094779">
              <path id="Trazado_836667" data-name="Trazado 836667" d="M412.13,120.72a.39.39,0,0,1-.39-.39v-3.55a.39.39,0,0,1,.78,0v3.55A.384.384,0,0,1,412.13,120.72Z" fill="#002775"/>
            </g>
            <g id="Grupo_1094780" data-name="Grupo 1094780">
              <path id="Trazado_836668" data-name="Trazado 836668" d="M414.17,120.72a.39.39,0,0,1-.39-.39v-3.55a.39.39,0,0,1,.78,0v3.55A.391.391,0,0,1,414.17,120.72Z" fill="#002775"/>
            </g>
          </g>
          <g id="Grupo_1094790" data-name="Grupo 1094790">
            <g id="Grupo_1094782" data-name="Grupo 1094782">
              <path id="Trazado_836669" data-name="Trazado 836669" d="M419.53,101.1h-3.56a.39.39,0,1,1,0-.78h3.56a.39.39,0,0,1,.39.39A.384.384,0,0,1,419.53,101.1Z" fill="#002775"/>
            </g>
            <g id="Grupo_1094783" data-name="Grupo 1094783">
              <path id="Trazado_836670" data-name="Trazado 836670" d="M419.53,103.13h-3.56a.39.39,0,1,1,0-.78h3.56a.39.39,0,0,1,.39.39A.378.378,0,0,1,419.53,103.13Z" fill="#002775"/>
            </g>
            <g id="Grupo_1094784" data-name="Grupo 1094784">
              <path id="Trazado_836671" data-name="Trazado 836671" d="M419.53,105.17h-3.56a.39.39,0,0,1-.39-.39.4.4,0,0,1,.39-.39h3.56a.39.39,0,1,1,0,.78Z" fill="#002775"/>
            </g>
            <g id="Grupo_1094785" data-name="Grupo 1094785">
              <path id="Trazado_836672" data-name="Trazado 836672" d="M419.53,107.21h-3.56a.39.39,0,1,1,0-.78h3.56a.39.39,0,0,1,.39.39A.384.384,0,0,1,419.53,107.21Z" fill="#002775"/>
            </g>
            <g id="Grupo_1094786" data-name="Grupo 1094786">
              <path id="Trazado_836673" data-name="Trazado 836673" d="M419.53,109.25h-3.56a.39.39,0,1,1,0-.78h3.56a.39.39,0,0,1,.39.39A.384.384,0,0,1,419.53,109.25Z" fill="#002775"/>
            </g>
            <g id="Grupo_1094787" data-name="Grupo 1094787">
              <path id="Trazado_836674" data-name="Trazado 836674" d="M419.53,111.28h-3.56a.39.39,0,1,1,0-.78h3.56a.39.39,0,0,1,.39.39A.378.378,0,0,1,419.53,111.28Z" fill="#002775"/>
            </g>
            <g id="Grupo_1094788" data-name="Grupo 1094788">
              <path id="Trazado_836675" data-name="Trazado 836675" d="M419.53,113.32h-3.56a.39.39,0,1,1,0-.78h3.56a.39.39,0,0,1,.39.39A.384.384,0,0,1,419.53,113.32Z" fill="#002775"/>
            </g>
            <g id="Grupo_1094789" data-name="Grupo 1094789">
              <path id="Trazado_836676" data-name="Trazado 836676" d="M419.53,115.36h-3.56a.39.39,0,1,1,0-.78h3.56a.39.39,0,0,1,.39.39A.384.384,0,0,1,419.53,115.36Z" fill="#002775"/>
            </g>
          </g>
          <g id="Grupo_1094799" data-name="Grupo 1094799">
            <g id="Grupo_1094791" data-name="Grupo 1094791">
              <path id="Trazado_836677" data-name="Trazado 836677" d="M398.09,101.1h-3.56a.39.39,0,1,1,0-.78h3.56a.39.39,0,0,1,.39.39A.384.384,0,0,1,398.09,101.1Z" fill="#002775"/>
            </g>
            <g id="Grupo_1094792" data-name="Grupo 1094792">
              <path id="Trazado_836678" data-name="Trazado 836678" d="M398.09,103.13h-3.56a.39.39,0,1,1,0-.78h3.56a.39.39,0,0,1,.39.39A.378.378,0,0,1,398.09,103.13Z" fill="#002775"/>
            </g>
            <g id="Grupo_1094793" data-name="Grupo 1094793">
              <path id="Trazado_836679" data-name="Trazado 836679" d="M398.09,105.17h-3.56a.39.39,0,0,1-.39-.39.4.4,0,0,1,.39-.39h3.56a.39.39,0,1,1,0,.78Z" fill="#002775"/>
            </g>
            <g id="Grupo_1094794" data-name="Grupo 1094794">
              <path id="Trazado_836680" data-name="Trazado 836680" d="M398.09,107.21h-3.56a.39.39,0,1,1,0-.78h3.56a.39.39,0,0,1,.39.39A.384.384,0,0,1,398.09,107.21Z" fill="#002775"/>
            </g>
            <g id="Grupo_1094795" data-name="Grupo 1094795">
              <path id="Trazado_836681" data-name="Trazado 836681" d="M398.09,109.25h-3.56a.39.39,0,1,1,0-.78h3.56a.39.39,0,0,1,.39.39A.384.384,0,0,1,398.09,109.25Z" fill="#002775"/>
            </g>
            <g id="Grupo_1094796" data-name="Grupo 1094796">
              <path id="Trazado_836682" data-name="Trazado 836682" d="M398.09,111.28h-3.56a.39.39,0,1,1,0-.78h3.56a.39.39,0,0,1,.39.39A.378.378,0,0,1,398.09,111.28Z" fill="#002775"/>
            </g>
            <g id="Grupo_1094797" data-name="Grupo 1094797">
              <path id="Trazado_836683" data-name="Trazado 836683" d="M398.09,113.32h-3.56a.39.39,0,1,1,0-.78h3.56a.39.39,0,0,1,.39.39A.384.384,0,0,1,398.09,113.32Z" fill="#002775"/>
            </g>
            <g id="Grupo_1094798" data-name="Grupo 1094798">
              <path id="Trazado_836684" data-name="Trazado 836684" d="M398.09,115.36h-3.56a.39.39,0,1,1,0-.78h3.56a.39.39,0,0,1,.39.39A.384.384,0,0,1,398.09,115.36Z" fill="#002775"/>
            </g>
          </g>
        </g>
        <g id="Grupo_1094806" data-name="Grupo 1094806">
          <rect id="Rectángulo_387402" data-name="Rectángulo 387402" width="18.11" height="18.11" transform="translate(397.98 98.67)" fill="#0840a8"/>
          <rect id="Rectángulo_387403" data-name="Rectángulo 387403" width="12.64" height="12.64" transform="translate(400.72 101.4)" fill="#002775"/>
          <g id="Grupo_1094805" data-name="Grupo 1094805">
            <g id="Grupo_1094801" data-name="Grupo 1094801">
              <path id="Trazado_836685" data-name="Trazado 836685" d="M403.45,106.73a.39.39,0,0,1-.39-.39v-2.19a.39.39,0,0,1,.39-.39h2.19a.39.39,0,1,1,0,.78h-1.8v1.8A.384.384,0,0,1,403.45,106.73Z" fill="#d7e0fc"/>
            </g>
            <g id="Grupo_1094802" data-name="Grupo 1094802">
              <path id="Trazado_836686" data-name="Trazado 836686" d="M410.62,106.73a.39.39,0,0,1-.39-.39v-1.8h-1.8a.39.39,0,1,1,0-.78h2.19a.39.39,0,0,1,.39.39v2.19A.4.4,0,0,1,410.62,106.73Z" fill="#d7e0fc"/>
            </g>
            <g id="Grupo_1094803" data-name="Grupo 1094803">
              <path id="Trazado_836687" data-name="Trazado 836687" d="M410.62,111.7h-2.19a.39.39,0,1,1,0-.78h1.8v-1.8a.39.39,0,0,1,.78,0v2.19A.4.4,0,0,1,410.62,111.7Z" fill="#d7e0fc"/>
            </g>
            <g id="Grupo_1094804" data-name="Grupo 1094804">
              <path id="Trazado_836688" data-name="Trazado 836688" d="M405.65,111.7h-2.19a.39.39,0,0,1-.39-.39v-2.19a.39.39,0,0,1,.78,0v1.8h1.8a.39.39,0,0,1,.39.39A.4.4,0,0,1,405.65,111.7Z" fill="#d7e0fc"/>
            </g>
          </g>
        </g>
      </g>
      <path id="Trazado_836689" data-name="Trazado 836689" d="M51.08,158.7v-1.8l-1.68-.55-.42-1.01.79-1.58-1.27-1.27-1.58.8-1.01-.42-.55-1.68h-1.8L43,152.86l-1.01.42-1.58-.8-1.27,1.27.79,1.58-.42,1.01-1.68.55v1.8l1.68.55.42,1.01-.79,1.58,1.27,1.27,1.58-.8,1.01.42.55,1.68h1.8l.55-1.68,1.01-.42,1.58.8,1.27-1.27-.79-1.58.42-1.01Zm-6.63,2.11a3.01,3.01,0,1,1,3.01-3.01A3.013,3.013,0,0,1,44.45,160.81Z" fill="#0840a8"/>
      <path id="Trazado_836690" data-name="Trazado 836690" d="M144.69,104.31v-3.92l-3.66-1.21-.92-2.21,1.73-3.44-2.77-2.77-3.44,1.73-2.21-.92-1.21-3.65h-3.92l-1.21,3.65-2.21.92-3.44-1.73-2.77,2.77,1.73,3.44-.92,2.21-3.65,1.21v3.92l3.65,1.21.92,2.21-1.73,3.44,2.77,2.77,3.44-1.73,2.21.92,1.21,3.66h3.92l1.21-3.66,2.21-.92,3.44,1.73,2.77-2.77-1.73-3.44.92-2.21Zm-14.43,4.59a6.55,6.55,0,1,1,6.55-6.55A6.547,6.547,0,0,1,130.26,108.9Z" fill="#03bffa"/>
    </g>
  </g>
</svg>
