<svg id="_1" data-name="1" xmlns="http://www.w3.org/2000/svg" xmlns:xlink="http://www.w3.org/1999/xlink" width="63.019" height="64.975" viewBox="0 0 63.019 64.975">
  <defs>
    <clipPath id="clip-path">
      <rect id="Rectángulo_382268" data-name="Rectángulo 382268" width="63.019" height="64.975" fill="none"/>
    </clipPath>
    <clipPath id="clip-path-3">
      <rect id="Rectángulo_382247" data-name="Rectángulo 382247" width="18.977" height="5.925" fill="none"/>
    </clipPath>
  </defs>
  <g id="Grupo_1073378" data-name="Grupo 1073378" clip-path="url(#clip-path)">
    <g id="Grupo_1073377" data-name="Grupo 1073377" transform="translate(0 0)">
      <g id="Grupo_1073376" data-name="Grupo 1073376" clip-path="url(#clip-path)">
        <path id="Trazado_819455" data-name="Trazado 819455" d="M55.1,86.954H30.711l.365-1.182C33.1,79.2,35.6,71.36,34.108,64.363L34,63.853h17.81l-.158.667c-1.622,6.838.867,14.669,2.993,21.068Z" transform="translate(-11.394 -23.691)" fill="#4561f5"/>
        <g id="Grupo_1073375" data-name="Grupo 1073375" transform="translate(21.949 48.239)" opacity="0.87" style="mix-blend-mode: multiply;isolation: isolate">
          <g id="Grupo_1073374" data-name="Grupo 1073374">
            <g id="Grupo_1073373" data-name="Grupo 1073373" clip-path="url(#clip-path-3)">
              <path id="Trazado_819456" data-name="Trazado 819456" d="M53.873,82.619a41.554,41.554,0,0,1-1.056-5.925H35.951A45.236,45.236,0,0,1,34.9,82.619Z" transform="translate(-34.896 -76.694)" fill="#96a6fb"/>
            </g>
          </g>
        </g>
        <path id="Trazado_819465" data-name="Trazado 819465" d="M3.072,0H59.947a3.072,3.072,0,0,1,3.072,3.072V37.48a3.072,3.072,0,0,1-3.072,3.072H3.072A3.072,3.072,0,0,1,0,37.48V3.072A3.072,3.072,0,0,1,3.072,0Z" transform="translate(0 11.101)" fill="#1d5bf8"/>
        <rect id="Rectángulo_382249" data-name="Rectángulo 382249" width="55.58" height="33.37" transform="translate(3.719 14.692)" fill="#d7ddfd"/>
        <path id="Rectángulo_382250" data-name="Rectángulo 382250" d="M1.4,0H26.68a1.4,1.4,0,0,1,1.4,1.4v0a1.4,1.4,0,0,1-1.4,1.4H1.4A1.4,1.4,0,0,1,0,1.405v0A1.4,1.4,0,0,1,1.4,0Z" transform="translate(17.467 62.167)" fill="#1d5bf8"/>
        <path id="Trazado_819457" data-name="Trazado 819457" d="M50.508,78.787a1,1,0,1,1-1-1,1,1,0,0,1,1,1" transform="translate(-17.994 -28.859)" fill="#1d5bf8"/>
        <path id="Trazado_819458" data-name="Trazado 819458" d="M50.34,19.786a.594.594,0,1,1-.594-.594.594.594,0,0,1,.594.594" transform="translate(-18.236 -7.121)" fill="#84a2f6"/>
        <path id="Trazado_819459" data-name="Trazado 819459" d="M62.067,36.792a2.211,2.211,0,0,1-2.241,2.179H7.087a2.211,2.211,0,0,1-2.24-2.179V7.335a2.21,2.21,0,0,1,2.24-2.179H59.825a2.21,2.21,0,0,1,2.241,2.179Z" transform="translate(-1.798 -1.913)" fill="#f9fbfe"/>
        <path id="Trazado_819460" data-name="Trazado 819460" d="M34.627,7.256l-.46-2.1-15.52-.013L13.52.019,8.4,5.136H8.357V34.853h26.27Z" transform="translate(-3.101 -0.007)" fill="#7e3ee8"/>
        <path id="Trazado_819461" data-name="Trazado 819461" d="M50.123,34.853H76.392V5.136h-.045L71.229.018,66.111,5.136H50.893l-.771,2.12Z" transform="translate(-18.597 -0.007)" fill="#082999"/>
        <rect id="Rectángulo_382251" data-name="Rectángulo 382251" width="1.783" height="5.655" transform="translate(5.861 5.694)" fill="#395df1"/>
        <rect id="Rectángulo_382252" data-name="Rectángulo 382252" width="2.41" height="5.655" transform="translate(6.754 21.065)" fill="#d7ddfd"/>
        <rect id="Rectángulo_382253" data-name="Rectángulo 382253" width="2.411" height="6.241" transform="translate(54.11 13.262)" fill="#f9fbfe"/>
        <path id="Trazado_819462" data-name="Trazado 819462" d="M8.357,52.42H60.9l-5.163-5.054H13.52Z" transform="translate(-3.101 -17.574)" fill="#082999"/>
        <path id="Trazado_819463" data-name="Trazado 819463" d="M53.69,0,71.229.033V29.76L53.69,29.727a3.367,3.367,0,0,0-3.53,3.039h-.038V3.568A3.41,3.41,0,0,1,53.69,0" transform="translate(-18.596 0)" fill="#2e58f7"/>
        <rect id="Rectángulo_382254" data-name="Rectángulo 382254" width="15.128" height="1.619" transform="translate(34.516 10.443)" fill="#f9fbfe"/>
        <rect id="Rectángulo_382255" data-name="Rectángulo 382255" width="15.128" height="1.62" transform="translate(34.516 13.983)" fill="#f9fbfe"/>
        <rect id="Rectángulo_382256" data-name="Rectángulo 382256" width="15.128" height="1.619" transform="translate(34.516 17.525)" fill="#f9fbfe"/>
        <rect id="Rectángulo_382257" data-name="Rectángulo 382257" width="15.128" height="1.619" transform="translate(34.516 3.362)" fill="#f9fbfe"/>
        <rect id="Rectángulo_382258" data-name="Rectángulo 382258" width="15.128" height="1.62" transform="translate(34.516 6.902)" fill="#f9fbfe"/>
        <rect id="Rectángulo_382259" data-name="Rectángulo 382259" width="15.128" height="1.62" transform="translate(34.516 21.065)" fill="#f9fbfe"/>
        <rect id="Rectángulo_382260" data-name="Rectángulo 382260" width="15.128" height="1.62" transform="translate(34.516 24.606)" fill="#f9fbfe"/>
        <path id="Trazado_819464" data-name="Trazado 819464" d="M34.106,0,16.566.033V29.76l17.54-.033a3.367,3.367,0,0,1,3.53,3.039h.037V3.568A3.41,3.41,0,0,0,34.106,0" transform="translate(-6.146 0)" fill="#4561f5"/>
        <rect id="Rectángulo_382261" data-name="Rectángulo 382261" width="15.128" height="5.417" transform="translate(13.36 3.104)" fill="#f9fbfe"/>
        <rect id="Rectángulo_382262" data-name="Rectángulo 382262" width="15.128" height="1.619" transform="translate(13.36 10.443)" fill="#f9fbfe"/>
        <rect id="Rectángulo_382263" data-name="Rectángulo 382263" width="15.128" height="1.62" transform="translate(13.36 13.983)" fill="#f9fbfe"/>
        <rect id="Rectángulo_382264" data-name="Rectángulo 382264" width="15.128" height="1.619" transform="translate(13.36 17.525)" fill="#f9fbfe"/>
        <rect id="Rectángulo_382265" data-name="Rectángulo 382265" width="15.128" height="1.62" transform="translate(13.36 21.065)" fill="#f9fbfe"/>
        <rect id="Rectángulo_382266" data-name="Rectángulo 382266" width="15.128" height="1.62" transform="translate(13.36 24.606)" fill="#f9fbfe"/>
      </g>
    </g>
  </g>
</svg>
