<svg xmlns="http://www.w3.org/2000/svg" width="221.97" height="247.12" viewBox="0 0 221.97 247.12">
  <g id="_2" data-name="2" transform="translate(-7.92 -12.522)">
    <g id="Grupo_1095567" data-name="Grupo 1095567">
      <g id="Grupo_1095562" data-name="Grupo 1095562">
        <path id="Trazado_837771" data-name="Trazado 837771" d="M76.42,246.2c5.72-25.86,12.42-51.7,18.48-77.55,1.79-8.02,3.79-15.99,5.71-23.98.44-1.88.91-3.74,1.35-5.62a1.276,1.276,0,0,1,1.46-1.27c7.79-.03,15.57-.35,23.35-.49,3.8-.15,7.78-.72,11.55-.31,1.52,2.96,2.49,6.15,3.78,9.2a16.953,16.953,0,0,0,.13,2.48c.18.81-.08,1.66.18,2.46.31,1.16.18,2.37.38,3.55a53.253,53.253,0,0,1,.5,6.05,9.437,9.437,0,0,0,.15,1.76,3.558,3.558,0,0,0,.12,1.34,47.54,47.54,0,0,1,.55,6.53,42.9,42.9,0,0,1,.49,5.06c-.03,2.54.69,5.03.65,7.59-.12.82.27,1.6.22,2.41a1.248,1.248,0,0,0,.05.69c.36,1.37.02,2.8.48,4.15.06,2.58.33,5.13.6,7.7.05,3.09.72,6.18.83,9.31-.17.86.32,1.68.25,2.55-.06.5.11.98.08,1.47a2.079,2.079,0,0,0,.06,1.05,16.138,16.138,0,0,0,.34,2.58c-.02.64.06,1.28.05,1.92a.268.268,0,0,0,.04.37,1.977,1.977,0,0,1,.08.6,3.79,3.79,0,0,0,.13,1.3c.4,1.97.23,3.99.48,5.95.4,1.28.05,2.62.33,3.91a9.033,9.033,0,0,1,.23,2.38,4.084,4.084,0,0,0,.08,1.35c.15.64-.03,1.31.15,1.95a23.353,23.353,0,0,1,.24,2.77c.12,1.56.29,3.12.41,4.68.3,1.21.11,2.49.35,3.7a52.875,52.875,0,0,1,.47,6c-.08.69-.09.72-.66.8a11.867,11.867,0,0,0-1.91.37c1.73.92,3.72,1.2,5.55,1.9.28.09.59.12.75.43l4.35,1.47c1.16.34,2.36.87,2.27,2.3.12.41-.21.4-.45.48-6.93.02-13.87-.04-20.8.04-.17.15-.28-.01-.43-.1-.22-.1-.19-.29-.19-.48.23-1.36.43-2.73.65-4.1.11-.71.01-.81-.71-.78-.79.08-1.32.02-1.43-.86-1.52-8.99-3.31-17.93-4.92-26.91-4-21.37-7.73-42.71-11.73-64.07-10.11,25.92-20.56,51.64-30.62,77.58-1.24,2.97-2.26,6.04-3.54,9-.3.69-.5.81-1.24.79-2.05-.35.63,3.55.82,4.39.32,1.14,2.69,4.77,2.04,5.51-2.68-.04-5.39.07-8.06-.07a.975.975,0,0,1-.75-.52,13.609,13.609,0,0,1-2.73-2.52c-3.88-4.3,3.29-8.43-.56-9.03-.2-.05-.43-.04-.57-.23.04-.27.08-.55.13-.82A.123.123,0,0,0,76.42,246.2Z" fill="#002e78"/>
        <path id="Trazado_837772" data-name="Trazado 837772" d="M202.34,180.84a3.606,3.606,0,0,1,.98.57c2.15,2.57,4.19,5.23,6.42,7.73a90.9,90.9,0,0,0,12.68,11.82c-.06.07-.11.14-.17.2-10.38.09-21.08.61-30.66,5.13-.78-11.73-.01-23.87-.27-35.73,0-1.75.03-1.65-1.65-1.65-6.61-.08-13.25.15-19.84-.08-.53-.16-.49-.81-.48-1.26-.06-4.71-.29-9.42-.61-14.13-.24-1.12.74-1.27,1.59-1.18,4.94-.01,9.87.01,14.81-.01.86-.04.98-.14.98-1.02q.015-9.405,0-18.8c.06-2.31-2.23-1.05-4.08-1.95-9.76-2.85-19.12-7.21-28.36-11.28a7.223,7.223,0,0,1-.38-2.48c-.43-4.12-.95-8.22-1.49-12.33-.43-3.19-.77-6.39-1.17-9.59a4.4,4.4,0,0,1,.17-2.07c.29-.82.21-.95-.57-1.31-.72-.3-3.13-1.37-1.11-1.72a69.584,69.584,0,0,1,8.17-.14c1.23-.19,1.55,1.25,1.97,2.12.64,1.16.88,3.32,2.57,3.27,6.45-.54,13.04-.8,19.31,1.16a21.017,21.017,0,0,1,7.39,3.56c2.1,1.35,4.49,2.96,5.1,5.53.61,1.78-.53,3.39-1.86,4.51-1.5,1.13-3.5.7-5.29,1-.3,3.13-.13,6.33-.25,9.48.05.77-.03,1.77.58,2.34a76.292,76.292,0,0,0,12.62,8.25c.59.45,2.94,1.29,2.76,2.02.04,3.69.12,7.37.14,11.06a1.773,1.773,0,0,0,.56,1.37c.71.91,2.31,1.37,2.24,2.69-.7.59-2.54.15-3.5.29-.72.02-.78.09-.82.8.08,10.76-.18,21.56.1,32.3C201.47,181.44,201.73,180.58,202.34,180.84Z" fill="#a6eaff"/>
        <path id="Trazado_837773" data-name="Trazado 837773" d="M82.25,222.03c-1.88,7.84-3.62,15.71-5.69,23.5-15.62-16.45-31.83-32.37-47.59-48.7-.16-.38.14-.54.37-.71,4.99-3.66,10.07-7.17,15.33-10.43,2.19-1.36,4.41-2.66,6.64-3.94.47-.27.93-.72,1.57-.39a1.522,1.522,0,0,1,.32,1.21c.01,1.92,0,3.84,0,5.75-.25,2.11,2.53,3.33,3.75,4.76,5.56,5.11,11.06,10.3,16.69,15.33,1.55,1.43,3.08,2.89,4.65,4.31a2.865,2.865,0,0,1,.58.88C79.93,216.45,81.3,219.16,82.25,222.03Z" fill="#0058f9"/>
        <path id="Trazado_837774" data-name="Trazado 837774" d="M169.78,168.65h20.67c1.11,0,1.12,0,1.12,1.12-.01,15.13,0,30.16.02,45.3h-7.22c-.22-.15-.5-.11-.73-.25a89.1,89.1,0,0,0-8.1-5.54c-.79-.5-3.08-1.96-3.22-2.85-.65-5.48-1.54-10.92-1.74-16.41a2.6,2.6,0,0,0-.02-1.41c-.18-.91.1-1.85-.17-2.75-.21-1.13.12-2.28-.16-3.4a10.519,10.519,0,0,1-.06-1.86,3.723,3.723,0,0,0-.1-1.24c-.16-1.21-.03-2.45-.16-3.64a10.6,10.6,0,0,1-.16-2.11,1.6,1.6,0,0,0,0-1.12c-.19-1.03.03-2.09-.16-3.11A.717.717,0,0,1,169.78,168.65Z" fill="#00bffa"/>
        <path id="Trazado_837775" data-name="Trazado 837775" d="M157.25,55.79c3.78-4.22,7.66-8.32,11.6-12.4,1.11-1.41,2.43-2.59,3.64-3.92.61-.53,2.83-3.48,3.54-2.73,1.13.71,2.19,1.53,3.37,2.17.21.13.52.16.55.5.76.49,1.51.99,2.33,1.52-.26.56-.52,1.12-.79,1.69-.08,0-.09.09-.05.11-.74,1.27-1.49,2.53-2.23,3.8-.07.02-.09.06-.07.12-.36.61-.72,1.22-1.07,1.83a.1.1,0,0,0-.07.13c-2.79,4.45-5.33,9.06-8.04,13.56-1.36,3.25-3.74,6.17-5.46,9.29-1.05,1.72-2.68,2.89-4.11,4.23-1.75,1.68-3.6,3.27-5.35,4.96-2.89,2.61-5.67,5.35-8.58,7.94-.57.71-1.48.36-2.14-.02-4.22-2.11-8.44-4.22-12.7-6.23-.73-.36-1.44-.75-2.17-1.12-.47-.19-.69-.64-.14-.93,5.11-3.73,9.76-8.29,14.92-11.82,2.32-1.97,4.77-3.8,6.93-5.93,1.42-1.61,2.85-3.21,4.35-4.75A12.876,12.876,0,0,1,157.25,55.79Z" fill="#002e78"/>
        <path id="Trazado_837776" data-name="Trazado 837776" d="M57.61,56.24c.25-.15.5-.3.75-.46,3.52,5.08,6.95,10.09,10.36,15.2.71.87,2.01.95,3.03,1.26l.02.05.05-.03c1.47.05,2.78.82,4.15,1.27,1.69.57,3.36,1.22,5.06,1.77,8.07,2.97,16.23,5.7,24.24,8.82.47.3,1.01.52,1.2,1.12,1.32,5.81,3.03,11.52,4.46,17.3.83,1.84-1.75,1.48-2.84,1.66-1.35.13-2.69.29-4.04.4-1.65.13-3.28.34-4.93.46-1.54.05-3.07.52-4.61.22-.77-.31.51-1.96.65-2.51a49.522,49.522,0,0,1,3-5.9c.59-2.11-.12-4.38.03-6.55,0-.15.05-.33-.16-.47a2.053,2.053,0,0,0-.8.75c-1.61,1.96-2.86,4.26-4.49,6.17-3.68-.95-7.22-2.98-10.82-4.37a40.5,40.5,0,0,1-3.85-1.75c-.29-.35-.76-.41-1.14-.63-4.8-2.8-11.38-6.67-13.66-11.9-2.74-6.75-6.24-13.32-9.09-19.91a24.389,24.389,0,0,1,2.34-1.43C56.87,56.57,57.16,56.25,57.61,56.24Z" fill="#002e78"/>
        <path id="Trazado_837777" data-name="Trazado 837777" d="M52.58,161.31c-10.7-2.89-21.16-6.65-31.79-9.79-.42-.13-.69-.31-.57-.79,1.51-1.45,3.1-2.79,4.69-4.15a1.938,1.938,0,0,0,.78-1.69c.2-9.41-.43-19.04.23-28.35l3.88-.15c.35.01.48.37.6.64,3.26,6.74,6.13,13.91,9.78,20.37,3.12.21,6.3-.03,9.44.09,2.52-.05,5.05-.02,7.57-.01a1.338,1.338,0,0,1,.85.21c.62,5.31.04,10.9.22,16.31.03.53-.2,1.22-.83.79a5.592,5.592,0,0,1-1.33-1c-.52-.5-1.26-.67-1.77-1.18a16.282,16.282,0,0,0-3.42-2.45,36.3,36.3,0,0,1,1.26,4.13c.06,2.24.38,4.45.57,6.68A.314.314,0,0,1,52.58,161.31Z" fill="#00bffa"/>
        <path id="Trazado_837778" data-name="Trazado 837778" d="M78.04,90.47c4.59,2.15,9.3,4.04,13.97,6.03a26.636,26.636,0,0,1,4.61,1.71c.25.1.52.16.66.43-.99,2.15-1.97,4.31-2.94,6.46.14.29-.03.53-.15.76-1.84,3.68-3.47,7.46-5.32,11.14-.57.98-.77,2.28-1.64,3.04-.4.11-.65-.17-.93-.37-8.84-6.31-17.97-12.24-27-18.28-.57-.49-2.55-1.29-2.61-1.95a1.475,1.475,0,0,1,.79-1.79,19.113,19.113,0,0,1,4.04-2.03,3.8,3.8,0,0,0,2.33-2.41c.74-1.62,2.47-6.22,4.29-6.45a4.067,4.067,0,0,1,1.74.1,62.946,62.946,0,0,1,6.85,2.97l-.01-.01c.1.09.25.06.34.17l-.01-.01c.1.09.25.06.34.17l-.01-.01C77.59,90.28,77.88,90.25,78.04,90.47Z" fill="#c6f5ff"/>
        <path id="Trazado_837779" data-name="Trazado 837779" d="M154.92,80.51c3.14-3.02,6.51-5.82,9.38-9.11a.619.619,0,0,1,.69-.01,56.285,56.285,0,0,0,6.42,2.28c.55.2.85-.12,1.16-.5,1.82-2.22,3.6-4.49,5.34-6.77,2.32-3.04,4.77-5.98,6.97-9.11a3.05,3.05,0,0,1,1.33-1.05c.45,7.24-.02,14.7.16,22.01.45,3.38.17,6.86.24,10.3.13,1.23-.5,1.65-1.67,1.53-8.88-.2-17.95.4-26.74-.22-.28-.02-.55-.03-.83-.05a1.279,1.279,0,0,1-.23-1c-.05-1.76-.35-6.54-1.88-7.48C154.89,81.2,154.68,80.93,154.92,80.51Z" fill="#00bffa"/>
        <path id="Trazado_837780" data-name="Trazado 837780" d="M52.59,181.32c-12.35,6.87-23.77,15.15-34.86,23.83-.35-5.17,0-10.41.04-15.6,0-7.93,7.97-12.83,14.98-14.16a37.851,37.851,0,0,1,8.24-.2,2.424,2.424,0,0,0,1.32-.3,93.846,93.846,0,0,1,10.45-4.44,1.065,1.065,0,0,1,.27.9c.01,2.98.02,5.97,0,8.95C53.04,180.69,53.09,181.13,52.59,181.32Z" fill="#a6eaff"/>
        <path id="Trazado_837781" data-name="Trazado 837781" d="M148.04,216.42c-.04-.5-.08-.99-.12-1.49,5.84-.39,11.88.13,17.78-.18a1.11,1.11,0,0,1,1.11.34,39.409,39.409,0,0,1-2.58,17.59c-.95,3.74-3.06,7.29-4.46,10.93-1.69,3.48-2.66,7.42-4.56,10.72-.11.32-.22.63-.33.95q-3.375-1.095-6.75-2.2c-.05-.02-.06-.13-.13-.29,1-.17,1.96-.34,2.96-.51.02-.2.04-.41.05-.62-.18-1.96-.27-4.01-.5-6-.14-.17-.08-.36-.05-.55l-.12-1.41c-.09-.07-.08-.15-.02-.24-.13-1.18-.24-2.33-.31-3.51a.627.627,0,0,1-.04-.55c-.04-.37-.08-.74-.11-1.1-.18-.27-.08-.56-.06-.85-.09-.97-.17-1.94-.29-2.91C149.01,228.56,148.52,222.45,148.04,216.42Z" fill="#8886f0"/>
        <path id="Trazado_837782" data-name="Trazado 837782" d="M166.82,215.08c-6.29-.11-12.63.26-18.9-.15-.13-.91-.23-1.78-.3-2.69.15-.29-.2-.55-.06-.85l-.09-1.11a.246.246,0,0,0-.03-.33c-.06-.65-.12-1.31-.18-1.96-.2-2.67-.56-5.49-.68-8.16-.16-.98-.2-1.93-.28-2.91.15-.18-.07-.34-.04-.51-.05-.48-.09-.97-.14-1.45-.2-1.58-.29-3.19-.36-4.8.34-.14.57.11.81.25,4.49,2.47,8.73,5.36,13.19,7.89a3.443,3.443,0,0,0,1.33.34,11.533,11.533,0,0,1,2.15,1.44c4.23,3.05,8.56,5.92,12.63,9.16,2.63,1.84,5.37,3.5,7.91,5.47a.26.26,0,0,1-.04.34C178.11,215.08,172.46,215.08,166.82,215.08Z" fill="#00bffa"/>
        <path id="Trazado_837783" data-name="Trazado 837783" d="M158.21,89.86c9.37-.19,18.77.1,28.12-.12l.06.02a.585.585,0,0,1,.02-.13c.03-3.47-.07-6.95.03-10.42,8.31,2.27,16.45,5.13,24.72,7.54.07.02.13.09.42.39-4.72,3.29-8.84,7.53-13.46,11.01a2.452,2.452,0,0,1-1.34.43c-3.2.16-6.47-.25-9.63.2A39.346,39.346,0,0,0,165.11,95c-1.21.08-2.43.14-3.64.19a1.228,1.228,0,0,1-1.23-.77A44.015,44.015,0,0,1,158.21,89.86Z" fill="#c6f5ff"/>
        <path id="Trazado_837784" data-name="Trazado 837784" d="M27.32,110.69q-9.84-21.5-19.39-43.12a.127.127,0,0,1,.11-.11c9.51,6.13,18.92,12.48,28.34,18.74-2.56,7.96-5.47,15.84-8.28,23.73C27.96,110.28,27.9,110.78,27.32,110.69Z" fill="#00bffa"/>
        <path id="Trazado_837785" data-name="Trazado 837785" d="M100.2,67.85c-.11-1.25-1.22-2.14-1.8-3.2h0a5.236,5.236,0,0,1,.69-5.34c.58-.86,2.03-1.24,2.56-1.86-1.53-3.58,1.58-7.56,5.19-6.27,1.57.63,3.04.41,3.65-1.33,1.06-3.71,6.55-4.15,8.44-.87a4.418,4.418,0,0,1-1.59,6.56c-1.32.85-2,.59-3.34-.03-1.42-.62-1.34,2.52-5.72,1.87-1.53-.45-.27,1.81.22,2.26a2.606,2.606,0,0,1,.58,2.57c-1.19,3.88-.94,1.61,3.6,4.83-.56-2.6-.27-2.8,2.13-3.71,1.61,1.08,2.69-.67,4.05-1.14,1.75.68,3.86,8.73,4.8,10.85.35.69-.57.86-1.05.92-1.27.24-2.56.39-3.84.6-1.06.18-1.06.2-.92,1.24.05.57.33,1.23-.1,1.71-1.22.34-2.61.41-2.32-1.26-.03-1.03-.09-1.09-1.08-.95-.94.14-1.88.27-2.82.37-1.17.13-1.41-.03-1.78-1.16a60.177,60.177,0,0,1-2.03-9.2,1.8,1.8,0,1,0-3.44,1.01c.98,2.76,3.76,1.02,3.45,3.19a22.416,22.416,0,0,1-.09,3.57c-.23.37-.75.39-1.11.58q-.075-.075-.12.03c-.76-.07-1.53-.09-2.28-.21a6.417,6.417,0,0,1-3.94-5.52C100.27,67.94,100.25,67.86,100.2,67.85Z" fill="#002e78"/>
        <path id="Trazado_837786" data-name="Trazado 837786" d="M117.78,77.47c-.12-1-.19-1.9-.35-2.91,2.08-.34,4.12-.67,6.18-1.01.03-.2.05-.36.07-.51.41-.05.46-.25.34-.63-.37-1.1-.7-2.22-1.04-3.33-.25-.82-.18-.94.62-1.27.77-.32,1.54-.66,2.29-1.03a24.9,24.9,0,0,1,9.83-2.39,3.277,3.277,0,0,0,2-1.28c1.39-1.33,5.03-6.2,6.75-6.03.32-.15.42.15.55.31.6.69,1.24,1.35,1.79,2.08.47.74,1.12.73,1.87.46,1.27-1.13,2.45-2.35,3.64-3.56,1.1-.65,2.04-.7,1.8.65a2.3,2.3,0,0,1-.8,2.29c-1.4,1.36-2.65,2.91-4.11,4.21-.92.83-1.87,1.63-2.77,2.48a13.5,13.5,0,0,1-1.97,1.64.684.684,0,0,0-.24.8c-5.01,4.15-9.98,8.39-15.22,12.25-.32.31-.72.21-1.1.23a12.03,12.03,0,0,1-1.8-.05,1.213,1.213,0,0,0-.86-.02,2.747,2.747,0,0,1-1.5.16c-1.07-.17-2.2.45-3.26.13-.52-.75-1.36-.64-2.11-.76C118.05,79.44,117.48,78.54,117.78,77.47Z" fill="#c6f5ff"/>
        <path id="Trazado_837787" data-name="Trazado 837787" d="M56.7,99.44c8.29,5.6,16.77,10.98,24.91,16.77-.03.38-.35.36-.6.4-11.81-.08-23.75.31-35.51-.14a8.4,8.4,0,0,1-.54-3.44c3.24-4.9,7.15-9.46,10.6-14.23C55.94,99.02,56.32,99.23,56.7,99.44Z" fill="#8886f0"/>
        <path id="Trazado_837788" data-name="Trazado 837788" d="M45.11,112.95c-.01.1-.01.2-.02.31-.82,1.02-1.7,1.99-2.45,3.07a.667.667,0,0,1-.41.24c-3.69.17-7.41.01-11.11.06a2.1,2.1,0,0,1-1.25-.25H29.8c-.81-1.9-1.76-3.75-2.47-5.69,3.67-7.85,5.62-16.5,9.06-24.48,1.44,1,2.99,1.89,4.38,2.96l-.01-.01C42.26,97.01,43.93,105.03,45.11,112.95Z" fill="#2d7ac2"/>
        <path id="Trazado_837789" data-name="Trazado 837789" d="M186.68,220.27c4.23-2.67,8.41-5.36,12.69-7.95.16,10.64-.03,21.28.05,31.92.22.54-.2.56-.53.64-3.36-.01-6.72.05-10.08-.01a.814.814,0,0,1-.23-.59c-.19-3.05-.49-6.09-.75-9.14C187.49,230.19,186.83,225.2,186.68,220.27Z" fill="#00bffa"/>
        <path id="Trazado_837790" data-name="Trazado 837790" d="M209.48,148.03c6.69.05,14-.37,20.41.14-2.31,4.62-4.72,9.19-7.19,13.72a9.79,9.79,0,0,1-2.24,2.56c-3.64,3.15-7.07,6.57-10.8,9.59-.74-.7-.34-1.96-.39-2.88.32-7.28-.23-14.58-.03-21.88A1.72,1.72,0,0,1,209.48,148.03Z" fill="#00bffa"/>
        <path id="Trazado_837791" data-name="Trazado 837791" d="M209.48,148.03c.02,8.67.01,17.37.18,26-2.94,2.79-5.84,5.57-9.03,8.07-.37-11.38,0-22.77-.12-34.17C203.57,147.93,206.46,147.95,209.48,148.03Z" fill="#2d7ac2"/>
        <path id="Trazado_837792" data-name="Trazado 837792" d="M186.68,220.27c1.12,8.13,1.47,16.4,2.13,24.59-4.47-.12-9.11.2-13.51-.13q-.015-8.655-.02-17.3C179.04,225.01,182.84,222.58,186.68,220.27Z" fill="#2d7ac2"/>
        <path id="Trazado_837793" data-name="Trazado 837793" d="M179.35,24.58c-.05-.1-.1-.19-.14-.29l.06-.05h-.08a40.145,40.145,0,0,1-1.76-3.69l.04-.07c-.45-.55-.6-1.46-1.05-2.06-.44-.77-.66-2.24.23-2.69,2.3-1.01,4.58-2.08,6.94-2.96,1.44-.54,2.26-.23,2.93,1.23,1.83,3.99,3.65,7.98,5.8,11.76a7.989,7.989,0,0,0,1.09,2.53,33.172,33.172,0,0,1,1.37,3.38l-.05.07.05.06a2.158,2.158,0,0,1-2.21,1.64.525.525,0,0,1-.19-.25c-.38-.77-.62-.8-1.3-.2a.919.919,0,0,0-.06.33c.21,1.51.14,1.63-1.31,2.21-.75.3-1.52.55-2.26.86-1.75.83-3.14-.67-3.77-2.16-.83-1.57-1.52-3.21-2.29-4.81.11-.64.89-.82,1.16-1.39a.713.713,0,0,0-.82-1.1c-.37.09-.89.35-1.2,0l-1.17-2.34.06-.03C179.42,24.57,179.35,24.58,179.35,24.58Z" fill="#002e78"/>
        <path id="Trazado_837794" data-name="Trazado 837794" d="M25.91,116.53c0,9.58-.01,19.16.02,28.74,0,.8-.5,1.16-.97,1.58a34.245,34.245,0,0,1-4.74,3.87V116.53Z" fill="#c6f5ff"/>
        <path id="Trazado_837795" data-name="Trazado 837795" d="M105.18,84.27c-6.39-2.34-12.79-4.65-19.17-7.01-.53-.99-.14-2.75-.24-3.91a.883.883,0,0,1,.3-.8c2.24.66,4.55-.06,6.83.24,2.22.42,4.48.42,6.73.73,1.52.21,3.13,0,4.5.78,1.15.47,2.33-.03,3.5-.12.55.52.25,1.82.29,2.54a11.442,11.442,0,0,1-.23,3.5c-.33.44-.88.25-1.04,1.03C106.42,81.84,105.68,84.09,105.18,84.27Z" fill="#a6c5fe"/>
        <path id="Trazado_837796" data-name="Trazado 837796" d="M45.11,112.95c-1.62-7.9-3.21-15.81-4.36-23.79,5.01,3.05,9.86,6.47,14.82,9.65C52.37,103.72,48.61,108.25,45.11,112.95Z" fill="#a6eaff"/>
        <path id="Trazado_837797" data-name="Trazado 837797" d="M85.83,252.15c.94,2.08,1.94,4.14,2.85,6.23a13.64,13.64,0,0,1,4.8-.29,22.5,22.5,0,0,1,5.25-.17c-2.71-5.99-5.1-12.38-8.05-18.14q-1.755,4.5-3.52,9c-.27.69-.46.78-1.17.62C84.17,248.87,85.53,251.42,85.83,252.15Z" fill="#0058f9"/>
        <path id="Trazado_837798" data-name="Trazado 837798" d="M76.74,89.83c-4.07-1.72-8.27-3.12-12.24-5.06l-.03-.08-.07.04c-.35-.15-.69-.3-1.04-.45l-.03-.08-.07.04c-.23-.1-.46-.19-.69-.29a.117.117,0,0,0-.14-.07c-.33-.14-.67-.28-1-.42a.122.122,0,0,0-.14-.07c-.07-.03-.15-.06-.22-.09l-.02-.08-.06.05c-1.18-.63-2.16-.68-2.59-2.12a.116.116,0,0,0-.06-.14c-.04-.12-.08-.24-.13-.36.04-.05.02-.09-.04-.11l-.3-.87.05-.06-.08-.03c-2.54-7.16-5.01-14.33-7.48-21.52a12.9,12.9,0,0,1,3.97.14c3.09,6.79,6.44,13.46,9.36,20.32,1.88,3.97,5.8,6.2,9.15,8.76C74.05,88.25,75.61,88.78,76.74,89.83Z" fill="#002e78"/>
        <path id="Trazado_837799" data-name="Trazado 837799" d="M185.56,56.59c-3.97,5.88-8.62,11.28-12.95,16.89-.41.52-.62.62-1.24.41a73.744,73.744,0,0,1-7.06-2.49q2.82-4.62,5.64-9.25C175.23,60.54,180.34,58.35,185.56,56.59Z" fill="#8886f0"/>
        <path id="Trazado_837800" data-name="Trazado 837800" d="M52.59,181.32c.6-6.32-.02-12.92.19-19.33-.71-1.54.6-2.54,1.65-3.38.5-.01.59.41.76.73q1.53,3.06,2.82,6.23a30.413,30.413,0,0,1,.23,3.83c-.32,5.31-.11,10.62-.16,15.94a2.048,2.048,0,0,1-1.03,1.89,29.775,29.775,0,0,0-2.96,2.15,1.536,1.536,0,0,1-.85.45c-.43-.11-.29-.47-.29-.74-.01-2.19,0-4.37,0-6.56A1.305,1.305,0,0,0,52.59,181.32Z" fill="#783efa"/>
        <path id="Trazado_837801" data-name="Trazado 837801" d="M148.29,60.01c-.2.17-.4.35-.68.58-3.42-3.9-6.91-7.67-10.14-11.72,6.79-.24,13.58-.05,20.38-.09a.235.235,0,0,1,.02.33Q153.07,54.555,148.29,60.01Z" fill="#00bffa"/>
        <path id="Trazado_837802" data-name="Trazado 837802" d="M86.07,72.55l-.06,4.71c-1.68-.6-3.36-1.19-5.05-1.79a1.541,1.541,0,0,1-.43-.85c-1.18-4.19-2.3-8.41-3.46-12.61-.43-1.79-1.98-2.85-3.17-4.12-.37-.38-.9-.49-1.28-.83.02-.14-.09-.35.04-.45,4.4,1.76,8.53,4.09,12.84,6.04a.853.853,0,0,1,.55.95C86.06,66.58,85.99,69.57,86.07,72.55Z" fill="#2d7ac2"/>
        <path id="Trazado_837803" data-name="Trazado 837803" d="M155.22,254.33q4.515-10.83,9.02-21.66c1.23-.31,1.07,2.48,1.26,3.26.39,4.53.26,9.16-1.84,13.28-.75,1.33-3.32,7.42-5.03,6.7a7.028,7.028,0,0,1-3.04-1.45C155.51,254.38,155.35,254.37,155.22,254.33Z" fill="#c6f5ff"/>
        <path id="Trazado_837804" data-name="Trazado 837804" d="M72.62,57.06c1.49.3,2.77,2.04,3.75,3.14,2.32,4.74,2.97,10.24,4.59,15.27q-4.47-1.6-8.93-3.2C72.27,67.2,72.25,62.09,72.62,57.06Z" fill="#00bffa"/>
        <path id="Trazado_837805" data-name="Trazado 837805" d="M95.06,24.17a5.066,5.066,0,0,1-6.97.67c-.01-.07-.04-.1-.11-.09a.075.075,0,0,0-.07-.05c-.04-.14-.14-.1-.24-.08a.2.2,0,0,0-.11-.11c.02-.1.05-.2-.09-.24a.1.1,0,0,0-.07-.08c.01-.07-.01-.1-.08-.09a5.042,5.042,0,0,1,4.43-8.13,5.132,5.132,0,0,1,4.22,6.63l-.08.02.04.07c-.26.46-.52.93-.78,1.39Q95.06,24.065,95.06,24.17Z" fill="#783efa"/>
        <path id="Trazado_837806" data-name="Trazado 837806" d="M112.69,65.91c.09.45.18.89.28,1.43-1.44-.7-2.69-1.71-4.22-2.28-.72-.32-.7-.35-.42-1.11.42-1.31,1.31-2.82.18-4.03a9.794,9.794,0,0,1-.96-1.55c-.22-.18-.04-.45-.14-.65v-.73c2.38.63,4.41.39,5.83-1.9,1.05.47,2.36.57,3.26,1.3a3.583,3.583,0,0,1,2.1,3.13c-.79.31-1.06-.89-1.85-.65-.57,1.54,1.35.8,1.99,1.33.77.91,2.16,1.64,1.14,2.93-.81-.75-1.58-1.72-2.81-1.6a.8.8,0,0,0-.74.39c-.31.55-.92.8-1.29,1.3a.4.4,0,0,1-.37.12.27.27,0,0,1-.07.08C113.78,64.23,112.14,64.18,112.69,65.91Z" fill="#e48c82"/>
        <path id="Trazado_837807" data-name="Trazado 837807" d="M45.4,43.9c.17-.67.32-1.44,1.27-1.08.75.43,1.41.04,2.08-.23,1.04-.36,2.02-1.82,2.63-.15a.277.277,0,0,1-.06.31c-.48.22-.36.57-.2.93-.71.64-1.63.92-2.38,1.52,1.26,0,2.43-1.75,3.4-.16a.191.191,0,0,1,.1.05.123.123,0,0,0,.05.14c-.45,1.69-1.09.72-2.07,1.93a.731.731,0,0,0-.09.95,1.481,1.481,0,0,0,2.61.32.246.246,0,0,1,.22-.02q1.4,2.595,2.8,5.19c.12.3-.1.45-.29.58-1.67,1.21-4.2,2.31-5.09-.36l.04-.07-.07.02a.115.115,0,0,0-.06-.09c-.01-.07-.04-.11-.1-.12-.15-.18-.29-.37-.44-.55l.03-.07H49.7c-.3-.31-.53-.69-.82-1a.075.075,0,0,0-.05-.07.118.118,0,0,0-.1-.11.413.413,0,0,0-.17-.37l.01.01a.912.912,0,0,0-.17-.17h0a1.365,1.365,0,0,0-.17-.17h0c-.05-.06-.11-.11-.16-.17h0c-.91-1.16-2.05-2.1-2.94-3.26h0a6.851,6.851,0,0,1,.01-2.12c.07-.02.06-.1.02-.11.05-.34.09-.68.14-1.03C45.44,44.24,45.36,44.05,45.4,43.9Z" fill="#b52b88"/>
        <path id="Trazado_837808" data-name="Trazado 837808" d="M64.57,19.63a4.394,4.394,0,0,1,7.76,1.47,4.26,4.26,0,0,1-2.97,5.22,4.381,4.381,0,0,1-4.85-6.61h.08Z" fill="#0058f9"/>
        <path id="Trazado_837809" data-name="Trazado 837809" d="M190.91,32.95a.891.891,0,0,1,1.11-.51c.92.28.42,1.32.21,1.92-.29,1.55-2.13,1.87-3.42,2.11a21.994,21.994,0,0,0-4.89,1.06c-1.89.43-2.49.45-3.97,1.87-.86-.51-1.71-1.03-2.57-1.54a1.923,1.923,0,0,1,.12-1.11,20.443,20.443,0,0,0,.82-5.81,8.822,8.822,0,0,1,.22-2.56v.03a.456.456,0,0,0,.17-.22l1.31-.92a.33.33,0,0,1,.32-.13,7.655,7.655,0,0,1,1.31-.38c.37-.11.73-.26,1.01.17.26.41.42.88.05,1.27-.97.88-1.92,1.34-1.6,2.87.7,5.43-.68,3.94,3.99,4.99a2.213,2.213,0,0,0,2.04.28c1.02-.49,2.11-.81,3.16-1.24.73-.29.72-.32.63-1.08A3.213,3.213,0,0,1,190.91,32.95Z" fill="#e48c82"/>
        <path id="Trazado_837810" data-name="Trazado 837810" d="M53.72,225.94c2.41,1.97,4.73,3.87,7.18,5.87-4.11,1.19-8.02,2.32-11.93,3.45-.04-.05-.08-.09-.12-.14C50.45,232.09,52.06,229.07,53.72,225.94Z" fill="#00bffa"/>
        <path id="Trazado_837811" data-name="Trazado 837811" d="M31.49,51.94a3.94,3.94,0,1,1-7.88,0A3.94,3.94,0,0,1,31.49,51.94Z" fill="#2d7ac2"/>
        <path id="Trazado_837812" data-name="Trazado 837812" d="M107.73,76.79a26.07,26.07,0,0,0-.22-3.42.071.071,0,0,1,.01-.13V68.55c-3.54.2-5.05-4.24-1.79-4.95a2.062,2.062,0,0,1,2.26,1.85,54.361,54.361,0,0,0,1.98,9.02c.38,1.18.14,1.15,1.58,1.02a28.666,28.666,0,0,1,4.03-.41c.06.79.11,1.54.16,2.29-.23.38-.6.29-.94.26-1.9-.15-3.81-.3-5.71-.44A2.078,2.078,0,0,1,107.73,76.79Z" fill="#e89f90"/>
        <path id="Trazado_837813" data-name="Trazado 837813" d="M130.65,32.81c-.09-4.77,6.83-4.13,6.33.25a3.46,3.46,0,0,1-1.67,2.45,2.617,2.617,0,0,1-3.48-.32A2.647,2.647,0,0,1,130.65,32.81Z" fill="#b8cce6"/>
        <path id="Trazado_837814" data-name="Trazado 837814" d="M33.67,173.23a2.888,2.888,0,0,1-.04-5.77A2.888,2.888,0,0,1,33.67,173.23Z" fill="#b52b88"/>
        <path id="Trazado_837815" data-name="Trazado 837815" d="M206.22,39.99c-3.44.07-3.3-5.06.03-5.11A2.555,2.555,0,0,1,206.22,39.99Z" fill="#783efa"/>
        <path id="Trazado_837816" data-name="Trazado 837816" d="M50.67,54.4c1.54,1.62,3.76.45,5.1-.83.3-.19.5-.1.64.21.39.82.79,1.64,1.19,2.46-1.92,1.07-3.71,2.86-6.02,1.69-.07-.15.05-.34-.09-.45A27.4,27.4,0,0,1,50.67,54.4Z" fill="#0058f9"/>
        <path id="Trazado_837817" data-name="Trazado 837817" d="M44.08,63.94a2.355,2.355,0,0,1-.18-4.7A2.355,2.355,0,1,1,44.08,63.94Z" fill="#8886f0"/>
        <path id="Trazado_837818" data-name="Trazado 837818" d="M45.63,88.92a2.045,2.045,0,0,1,4.09.02A2.045,2.045,0,1,1,45.63,88.92Z" fill="#00bffa"/>
        <path id="Trazado_837819" data-name="Trazado 837819" d="M197.26,62.76a1.77,1.77,0,1,1-3.54-.01A1.77,1.77,0,0,1,197.26,62.76Z" fill="#8886f0"/>
        <path id="Trazado_837820" data-name="Trazado 837820" d="M178.53,28.38a25.992,25.992,0,0,1-1.15,9.48,2.944,2.944,0,0,1-1.36-1.13C177.77,34.22,177.18,31.01,178.53,28.38Z" fill="#e89f90"/>
        <path id="Trazado_837821" data-name="Trazado 837821" d="M52.88,48.35c-.81,1.85-2.74.64-3.15-.67a2.094,2.094,0,0,1,2.19-1.51c.25.01.19.36.37.46A3.926,3.926,0,0,1,52.88,48.35Z" fill="#002e78"/>
        <path id="Trazado_837822" data-name="Trazado 837822" d="M52.15,45.03c-.76-.68-.94-.69-1.86-.2-.62.19-1.57,1.15-2.09.37a23.883,23.883,0,0,1,2.92-1.53A2.087,2.087,0,0,1,52.15,45.03Z" fill="#002e78"/>
        <path id="Trazado_837823" data-name="Trazado 837823" d="M118.74,60.19c-1.15,0-2.62.25-2.34-1.4,1.15-.64,1.29.47,2.19.72C118.64,59.73,118.69,59.96,118.74,60.19Z" fill="#783efa"/>
        <path id="Trazado_837824" data-name="Trazado 837824" d="M183.75,215.05c.01-.11.03-.23.04-.34.19.12.39.24.58.36C184.16,215.06,183.96,215.05,183.75,215.05Z" fill="#8886f0"/>
        <path id="Trazado_837825" data-name="Trazado 837825" d="M157.87,49.12c-.01-.11-.01-.22-.02-.33.07.01.14.03.21.04C158,48.93,157.94,49.02,157.87,49.12Z" fill="#8886f0"/>
        <path id="Trazado_837826" data-name="Trazado 837826" d="M51.5,57.48a2.048,2.048,0,0,1,.05.24A2.048,2.048,0,0,0,51.5,57.48Z" fill="#8886f0"/>
        <path id="Trazado_837827" data-name="Trazado 837827" d="M71.81,72.27l-.05.04-.02-.06A.043.043,0,0,1,71.81,72.27Z" fill="#00bffa"/>
        <path id="Trazado_837828" data-name="Trazado 837828" d="M137.44,48.84l.01.04-.04-.01Z" fill="#8886f0"/>
        <path id="Trazado_837829" data-name="Trazado 837829" d="M229.89,148.17c-.01-.05-.03-.11-.04-.16A.748.748,0,0,0,229.89,148.17Z" fill="#8886f0"/>
        <path id="Trazado_837830" data-name="Trazado 837830" d="M40.75,89.17,40.58,89C40.64,89.05,40.69,89.11,40.75,89.17Z" fill="#b52b88"/>
        <path id="Trazado_837831" data-name="Trazado 837831" d="M178.7,28.19c-.06.07-.11.15-.17.22C178.59,28.34,178.64,28.26,178.7,28.19Z" fill="#783efa"/>
        <path id="Trazado_837832" data-name="Trazado 837832" d="M72.67,56.61a.2.2,0,0,1-.06.14C72.61,56.68,72.57,56.61,72.67,56.61Z" fill="#00bffa"/>
        <path id="Trazado_837833" data-name="Trazado 837833" d="M51.33,58.01c-.06,0-.11-.01-.17-.01A.97.97,0,0,0,51.33,58.01Z" fill="#8886f0"/>
        <path id="Trazado_837834" data-name="Trazado 837834" d="M175.3,244.73a1.433,1.433,0,0,0,.15.11A1.429,1.429,0,0,1,175.3,244.73Z" fill="#8886f0"/>
        <path id="Trazado_837835" data-name="Trazado 837835" d="M7.93,67.57c0-.06-.01-.12-.01-.19.04.03.08.05.12.08A1.141,1.141,0,0,1,7.93,67.57Z" fill="#00bffa"/>
        <path id="Trazado_837836" data-name="Trazado 837836" d="M87.17,119.97c2.5-4.9,4.72-9.94,7.17-14.86,5.53-.13,11.03-1.05,16.56-1.48.32.08.36.37.43.63.46,1.7.88,3.41,1.38,5.1.95,3.24-1.98,5.88-3.31,8.57-1.13,1.88-2.24,3.78-3.41,5.63-1.67,3.13-1.45,6.93-2.49,10.29-.19.97-.22,3.68-1.03,4.15-1.35,5.16-2.4,10.42-3.87,15.53a1.073,1.073,0,0,1-.94.07c-4-.87-8.02-2.16-12.05-2.69-4.42.6-8.81,1.5-13.24,1.99-.9.01-.49-.94-.27-1.44.67-1.24,1.17-2.56,1.8-3.82C78.52,138.51,82.14,128.84,87.17,119.97Z" fill="#009ecd"/>
        <path id="Trazado_837837" data-name="Trazado 837837" d="M94.99,228.9c4.4-11.79,9.19-23.43,13.86-35.12.25-.53.48-1.36,1.14-.69,6.63,4.67,13.12,9.57,19.89,14.02,1.21,6.39,2.61,12.79,3.52,19.21-6.34,6.32-13.16,12.16-19.78,18.19-.52.46-.75.47-1.26.02-1.85-1.63-3.72-3.22-5.56-4.87C102.82,236.12,98.71,232.71,94.99,228.9Z" fill="#7c3eff"/>
        <path id="Trazado_837838" data-name="Trazado 837838" d="M98.73,232.35c4.62,3.95,9.1,8.04,13.71,12.01.54.48.55.48,1.06.03,1.37-1.22,2.75-2.43,4.11-3.66,2.88-2.73,5.91-5.31,8.83-8,2.38-2.06,4.44-4.56,6.97-6.4,1.97,9.12,3.34,18.36,5.13,27.52h2.17c-.28,1.75-.56,3.48-.83,5.21-13.54-.08-27.08.05-40.62-.02a1.493,1.493,0,0,1-.23-1.16,17.676,17.676,0,0,0-.02-4.3c-.13-2.38.1-4.78-.07-7.16-.14-2.28-.05-4.55-.18-6.83-.11-2.03-.31-4.05-.28-6.09A1.479,1.479,0,0,1,98.73,232.35Z" fill="#8886f0"/>
        <path id="Trazado_837839" data-name="Trazado 837839" d="M57.98,166.1a1.356,1.356,0,0,0,.02-.2c-.23-.36-.15-.85-.49-1.15a.138.138,0,0,1-.01-.11c-.37-1.22-.91-2.37-1.36-3.56-.36-.95-.29-1.16.57-1.74.49-.33.6-.89.9-1.33.98-1.45.97-1.47-.39-2.63a30.1,30.1,0,0,0-2.42-1.93c-.33-.22-.72-.47-.36-.98,12.79,8.08,24.72,17.56,37.33,25.98.29.18.64.31.76.7-1.34,5.86-2.69,11.73-4.19,17.55v.01a.73.73,0,0,1-.7.07c-3.28-.77-6.74-.21-10.08-.68a1.672,1.672,0,0,0-1.73.76c-.69,1-1.47,1.94-2.1,2.98-.37.73-.98.49-1.17-.18C67.73,188.47,62.6,177.35,57.98,166.1Z" fill="#2d7ac2"/>
        <path id="Trazado_837840" data-name="Trazado 837840" d="M161.13,198.79c-1.66.13-5.48-2.95-7.3-3.81-2.63-1.69-5.33-3.27-8.05-4.82-.32-1.41-.28-2.86-.47-4.3-.13-.39-.01-.85-.11-1.27a.066.066,0,0,0-.01-.11c-.44-4.47-.79-8.94-1.18-13.43-.16-.76-.05-1.6-.16-2.39a1.046,1.046,0,0,1,.75-.26c1.44.01,2.86-.26,4.3-.18,6.86.58,13.93-.36,20.69.41.06,0,.12.01.18.01.13,6.69.63,13.38.93,20.05-.04,1.96.45,3.91.2,5.86C169.88,196.57,163.41,198.29,161.13,198.79Z" fill="#2d7ac2"/>
        <path id="Trazado_837841" data-name="Trazado 837841" d="M92.52,179.14c-11.64-7.91-23.04-16.2-34.51-24.32,0-5.71.02-11.42,0-17.13a.98.98,0,0,1,.75-.23c2.33,0,4.65-.06,6.98.03.5.06.71.43.89.84,1.94,4.35,3.77,8.75,5.7,13.11-.15.4-.29.8-.51,1.4,2.99-.47,5.83-.91,8.68-1.36a2.179,2.179,0,0,1,1.41.53c4.85,3.3,10.07,6.34,14.74,9.75C95.34,167.57,93.99,173.37,92.52,179.14Z" fill="#c6f5ff"/>
        <path id="Trazado_837842" data-name="Trazado 837842" d="M109.16,96.76c-1.08-3.8-2.03-7.64-2.93-11.48.13-.35.46-.42.75-.55,1.43-.6,2.87-1.17,4.24-1.91,1.37.06,2.73.27,4.09.38.44.1.95-.08,1.29.37q1.725,4.53,3.23,9.13c1.83,5.68,4.46,11.2,5.68,17.04.16,2.4.55,4.78.63,7.2.34,4.94.67,9.89.92,14.83-.05,1.21.71,5.08-.13,5.71-3.95.2-7.96.3-11.92.31a.917.917,0,0,1-.19-.84c.43-3.96.68-7.94,1.07-11.9-.2-5.35-1.32-10.65-1.71-16C113.33,99.53,114.75,104.21,109.16,96.76Z" fill="#00bffa"/>
        <path id="Trazado_837843" data-name="Trazado 837843" d="M118.43,80.38a13.992,13.992,0,0,1,1.59.09c.14.02.24.33.36.51a23.212,23.212,0,0,0,2.37,2.86c1.36,1.54,2.71,3.09,4.07,4.62a2.1,2.1,0,0,1,.68,1.35,28.549,28.549,0,0,0,2.15,4.28c1.87,3.17,3.07,5.27,3.31,9.06,1.13,11.27,3.87,22.7,4.36,33.89-3.26.14-6.53.31-9.79.35a2.323,2.323,0,0,1-.28-1.41c-.03-.87-.08-1.73-.1-2.6-.22-5.46-.66-10.91-.97-16.37-.05-2.08-.43-4.15-.45-6.23a16.269,16.269,0,0,0-1.1-5.55c-2.62-6.55-4.48-13.37-7.09-19.93-.78-2-.54-2.02,1.4-2.61,1.11-.14.99-1.4-.02-1.62C118.61,81.01,118.2,80.73,118.43,80.38Z" fill="#fff"/>
        <path id="Trazado_837844" data-name="Trazado 837844" d="M169.6,168.64c-8.58.2-17.17-.25-25.74.02-.42-3.81-.75-7.58-.99-11.4a1.683,1.683,0,0,1,1.13-.38c3.43-.31,6.86-.56,10.28-.92,1.02-.1,1.02-.14.93-1.15,0-1.04-.45-2.77,1.18-2.54,3.83-.01,7.67-.01,11.5,0,.36.01.8-.03,1.07.27C169.28,157.9,169.51,163.27,169.6,168.64Z" fill="#00bffa"/>
        <path id="Trazado_837845" data-name="Trazado 837845" d="M155.43,152.55c.03,1.15.06,2.31.09,3.51-4.21.54-8.44.67-12.65,1.21a95,95,0,0,1-.89-11.15c3.79-6.26,8.29-12.41,11.82-18.91.08-.22.2-.39.48-.25.37.51.21,1.1.22,1.65.02,2.16.01,2.19,2.1,2.49,2.68.39,5.32.98,7.99,1.45.73.08,1.65.42.96,1.24a23.836,23.836,0,0,1-1.41,2.18,20.273,20.273,0,0,0-1.45,2.62c-1.01,1.6-2.09,3.16-3.08,4.78-1.23,2.01-2.42,4.04-3.69,6.03a2.566,2.566,0,0,0-.29,1.33C155.58,151.33,155.78,151.97,155.43,152.55Z" fill="#a6c5fe"/>
        <path id="Trazado_837846" data-name="Trazado 837846" d="M154.07,126.96a6.92,6.92,0,0,1-1.38,2.61c-3.51,5.59-6.97,11.21-10.65,16.69l-.08.01c-1.11-2.59-2.08-5.27-3.16-7.88-.27-.94-.97-1.74-.88-2.74a7.057,7.057,0,0,1,.1-2.55c1.44-3.96,2.18-8.33,4.07-12.06.82-.26,1.45.33,2.22-.45,1.11-1,1.97-2.24,3.09-3.22a36.733,36.733,0,0,0,4.29-5.19c.26-.38.7-1.15,1.2-.63.31,2.56.5,5.14.9,7.7a7.063,7.063,0,0,1,.35,3.67C153.75,124.01,154.93,125.94,154.07,126.96Z" fill="#2d7ac2"/>
        <path id="Trazado_837847" data-name="Trazado 837847" d="M109.16,96.76c1.4,1.3,2.53,2.86,3.82,4.27a3.7,3.7,0,0,1,1.09,2.69c.04,2.09.35,4.2.47,6.29.52,4.88,1.22,9.74,1.59,14.63-.3,4.37-.73,8.77-1.1,13.15-4.17.12-8.37.28-12.54.2a11.4,11.4,0,0,0,.67-3.27c.65-2.5,1-5.23,1.48-7.82a11.253,11.253,0,0,1,2-4.83c1.95-3.45,4.42-6.7,5.95-10.36.3-2.7-1.17-5.45-1.68-8.1C110.34,101.33,109.63,99.07,109.16,96.76Z" fill="#0058f9"/>
        <path id="Trazado_837848" data-name="Trazado 837848" d="M73.14,200.26c1.1-1.55,2.02-2.91,3.2-4.46,3.9.57,8-.11,12,.91-1.59,6.98-3.25,13.96-5.08,20.87a.425.425,0,0,1-.52-.1,40.272,40.272,0,0,1-4.02-3.82c-1.28-1.97-1.94-4.26-2.91-6.38-.87-2-1.71-4.03-2.56-6.04C73.12,200.93,72.87,200.62,73.14,200.26Z" fill="#7c3eff"/>
        <path id="Trazado_837849" data-name="Trazado 837849" d="M98.73,232.35c.31,8.89.62,17.81.52,26.69-3.28-6.16-5.71-12.86-8.57-19.25,1.42-3.64,2.81-7.28,4.31-10.89A50.416,50.416,0,0,1,98.73,232.35Z" fill="#b8cce6"/>
        <path id="Trazado_837850" data-name="Trazado 837850" d="M114.52,196.52c-1.86-1.02-3.38-2.64-5.24-3.6.44-.83.51-2.3,1.27-2.82,3.75-1.54,11.71-4.71,15.53-4,.92,3.89,1.24,7.88,2.11,11.78-.5.18-.74-.18-1-.5-1.56-2.13-3.57,0-6.84-.94-1.13-.24-2.27-.46-3.4-.76a.821.821,0,0,0-.94.33A1.286,1.286,0,0,1,114.52,196.52Z" fill="#00bffa"/>
        <path id="Trazado_837851" data-name="Trazado 837851" d="M126.09,186.1c-3.4.01-6.68,1.24-9.95,2.07-2.01.62-3.86,1.7-5.92,2.17,1.56-4.32,3.38-8.53,5.1-12.78.11-.3.32-.69.66-.41q4.41,2.8,8.73,5.73A4.768,4.768,0,0,1,126.09,186.1Z" fill="#2d7ac2"/>
        <path id="Trazado_837852" data-name="Trazado 837852" d="M96.65,161.76c-5.5-3.25-10.68-7-16.15-10.28,1.78-.28,3.57-.57,5.35-.85,4.29.63,8.47,2.17,12.76,2.9C98,156.28,97.32,159.02,96.65,161.76Z" fill="#2d7ac2"/>
        <path id="Trazado_837853" data-name="Trazado 837853" d="M138.04,134.13c.05.97.06,1.93.03,2.89-.25.01-.49.01-.74.01-.84-8.33-2.31-16.57-3.39-24.86-.43-3.36-1.02-6.7-1.34-10.08-.17-3.31-2.1-6.01-3.65-8.82-.52-.95-1.02-1.91-1.52-2.87-.15-.28-.37-.59.09-.82a1.1,1.1,0,0,1,.81.48c1.55,1.74,3.08,3.49,4.55,5.3,1.74,2.56,1.36,5.99,2.17,8.91.58,3.08,1.33,6.14,1.69,9.25.06,1.96.33,3.93.49,5.89-.02.5.01,1-.01,1.5-.13.81.39,1.55.26,2.35-.15.63.27,1.22.15,1.86-.29.71.36,1.36.17,2.09-.13.78.36,1.54.24,2.35A43.539,43.539,0,0,1,138.04,134.13Z" fill="#c6f5ff"/>
        <path id="Trazado_837854" data-name="Trazado 837854" d="M114.52,196.52c.33-.08.66-.17,1.02-.26.54-.91.84-1,1.9-.72a7.749,7.749,0,0,0,2.52.51c.29-.02.58.25.89.29a13.645,13.645,0,0,0,1.43.02,2.222,2.222,0,0,1,.73.02c1,.37,1.8-.52,2.81-.22,1.39.1,1.4,1.51,2.38,1.73.56,3.08,1.13,6.16,1.69,9.24C124.51,204.07,119.59,200.09,114.52,196.52Z" fill="#8886f0"/>
        <path id="Trazado_837855" data-name="Trazado 837855" d="M124.63,182.99c-3.01-2-6.07-3.91-9.1-5.88.38-1.85,1.43-3.45,2.01-5.22a24.842,24.842,0,0,1,1.32-3.25c1.54.54,2.62,1.92,4.13,2.54a.761.761,0,0,1,.46.61c.65,3.73,1.4,7.43,2.02,11.17A.572.572,0,0,1,124.63,182.99Z" fill="#ffdfe7"/>
        <path id="Trazado_837856" data-name="Trazado 837856" d="M117.09,83.58c2.81,6.86,4.87,14.09,7.57,21.02a25.523,25.523,0,0,1,1.42,7.46c.56,8.44,1.13,16.88,1.46,25.33-.2.03-.4.07-.61.1a10.853,10.853,0,0,0-.06-3.64c-.09-2.77-.19-5.52-.42-8.27-.33-3.16-.26-6.37-.65-9.53a23.752,23.752,0,0,0-.47-4.83,3.162,3.162,0,0,1-.02-.87c-.16-3.19-1.82-6.08-2.7-9.11-2.03-5.88-4.21-11.74-6.09-17.65A.465.465,0,0,1,117.09,83.58Z" fill="#0058f9"/>
        <path id="Trazado_837857" data-name="Trazado 837857" d="M123.46,171.8c-1.51-1.09-3.06-2.1-4.59-3.15.93-2.33,1.6-4.66,2.74-6.92C122.24,165.08,122.95,168.43,123.46,171.8Z" fill="#2d7ac2"/>
        <path id="Trazado_837858" data-name="Trazado 837858" d="M78.72,213.66c1.58,1.22,2.87,2.83,4.53,3.92-.34,1.49-.67,2.97-1.01,4.46C80.82,219.42,79.95,216.41,78.72,213.66Z" fill="#b8cce6"/>
        <path id="Trazado_837859" data-name="Trazado 837859" d="M124.63,182.99l.85-.03c.09.44.18.88.26,1.32C125.31,183.99,125.02,183.39,124.63,182.99Z" fill="#00bffa"/>
        <path id="Trazado_837860" data-name="Trazado 837860" d="M138.07,137.02c.01-.48.03-.96.04-1.45.06.49.12.99.18,1.48Z" fill="#8886f0"/>
        <path id="Trazado_837861" data-name="Trazado 837861" d="M88.33,196.69c.03-.06.05-.12.08-.18A1.588,1.588,0,0,1,88.33,196.69Z" fill="#b52b88"/>
        <path id="Trazado_837862" data-name="Trazado 837862" d="M136.58,114.54c-.14-3.21-.92-3.49.67-6.7,1.53-3.83,2.77-7.77,4.24-11.62a1.426,1.426,0,0,0-.42-1.66c-4.09-4.39-8.45-8.51-12.64-12.8-.28-.29-.75-.51-.57-1.06h1.13c1.46.76,2.91,1.54,4.39,2.27q5.34,2.655,10.7,5.26c1.45.69,3.09.98,4.34,2.06.96.48,1.93.95,2.83,1.4.02.17.05.24.03.27-.82,1.55-.4,3.17-.22,4.76.57,4.94,1.22,9.86,1.83,14.79a.638.638,0,0,0-.75.31c-.74,1.06-1.48,2.13-2.3,3.12-1.5,1.77-3.19,3.37-4.71,5.12a2.44,2.44,0,0,1-2.97.98c-.33-.8.54-2.16.75-3,.64-1.65.61-1.69-1.09-2.07C140.64,115.54,137.07,115.44,136.58,114.54Z" fill="#2c91b0"/>
        <path id="Trazado_837863" data-name="Trazado 837863" d="M183.79,130.72a4.437,4.437,0,0,0,.97-.07,1.471,1.471,0,0,1,1.62,1.61c-.04,6.41-.03,12.81-.03,19.22,0,.53.08,1.09-.63,1.04q-8.385.015-16.77.02l-.07-.02c-.55-.8-.35-1.92-.48-2.85-.14-3.25-.25-6.5-.52-9.75.01-2.12-.14-4.23-.3-6.34a.79.79,0,0,1,.78-.99C173.5,132.01,178.66,131.34,183.79,130.72Z" fill="#8886f0"/>
        <path id="Trazado_837864" data-name="Trazado 837864" d="M183.79,130.72c-4.33,1.12-8.9,1.14-13.32,1.92-.72.09-1.45.12-2.17.2a3.308,3.308,0,0,1-2.59.23c-3.71-.83-7.45-1.4-11.19-2.07a102.759,102.759,0,0,1-.73-11.78C163.79,123.04,173.44,127.94,183.79,130.72Z" fill="#783efa"/>
        <path id="Trazado_837865" data-name="Trazado 837865" d="M148.42,90.29c-.87-.45-1.74-.91-2.61-1.36,3.06-2.78,5.99-5.72,9.11-8.41-.01.31.03.66.42.65.6-.01.73.43.84.82a21.987,21.987,0,0,1,1.19,7.83c-2.88.05-5.77-.11-8.64.19C148.62,90.02,148.53,90.19,148.42,90.29Z" fill="#8886f0"/>
        <path id="Trazado_837866" data-name="Trazado 837866" d="M73.14,200.26c1.49,4.27,3.74,8.28,5.07,12.6-8.36-7.62-16.76-15.21-24.95-23.02,1.04-.81,2.06-1.66,3.13-2.43,1.55-1.11,1.46-.65,1.46-2.73-.01-6.19.01-12.41.12-18.58C63.24,177.39,67.87,188.98,73.14,200.26Z" fill="#7c3eff"/>
        <path id="Trazado_837867" data-name="Trazado 837867" d="M47.54,200.75c4.98.09,5.25,7.57.24,7.75C42.17,208.68,42.32,200.77,47.54,200.75Z" fill="#783efa"/>
        <path id="Trazado_837868" data-name="Trazado 837868" d="M161.13,198.79c3.27-1.29,7.04-1.83,9.79-4.23a70.176,70.176,0,0,1,1.12,7.9,30.907,30.907,0,0,1,.47,4.18C168.56,204.26,164.92,201.42,161.13,198.79Z" fill="#b8cce6"/>
        <path id="Trazado_837869" data-name="Trazado 837869" d="M170.49,184.15a1.5,1.5,0,0,1-.09-1.64A2.562,2.562,0,0,1,170.49,184.15Z" fill="#8886f0"/>
        <path id="Trazado_837870" data-name="Trazado 837870" d="M170.76,189.99a1.147,1.147,0,0,1-.05-1.29A1.294,1.294,0,0,1,170.76,189.99Z" fill="#8886f0"/>
        <path id="Trazado_837871" data-name="Trazado 837871" d="M170.65,187.25c-.43-.41-.3-.86-.09-1.32A1.642,1.642,0,0,1,170.65,187.25Z" fill="#8886f0"/>
        <path id="Trazado_837872" data-name="Trazado 837872" d="M170.31,180.57a.84.84,0,0,1-.07-1.16C170.26,179.8,170.29,180.19,170.31,180.57Z" fill="#8886f0"/>
        <path id="Trazado_837873" data-name="Trazado 837873" d="M169.78,170.45a.724.724,0,0,1-.04-.98A.811.811,0,0,1,169.78,170.45Z" fill="#8886f0"/>
        <path id="Trazado_837874" data-name="Trazado 837874" d="M169.94,173.54a.7.7,0,0,1-.03-.97A.826.826,0,0,1,169.94,173.54Z" fill="#8886f0"/>
        <path id="Trazado_837875" data-name="Trazado 837875" d="M170.1,176.48a.38.38,0,0,1-.03-.65A.421.421,0,0,1,170.1,176.48Z" fill="#8886f0"/>
        <path id="Trazado_837876" data-name="Trazado 837876" d="M170.91,192.28q-.345-.225-.03-.48Z" fill="#8886f0"/>
        <path id="Trazado_837877" data-name="Trazado 837877" d="M97.28,98.64c-1.55-.65-3.1-1.31-4.65-1.96a64.236,64.236,0,0,1,5.61-7.4c.43,2.12.16,4.34.34,6.51A4.107,4.107,0,0,1,97.28,98.64Z" fill="#009ecd"/>
        <path id="Trazado_837878" data-name="Trazado 837878" d="M111.15,82.92c-.31.51-.87.62-1.35.83-1.18.53-2.38,1.02-3.57,1.52-.14-.56-.73-.65-1.05-1.01.55-1.32,1.1-2.64,1.68-4.01.17.03.35.06.53.1,1.12.71,2.2,1.55,3.39,2.17C110.94,82.62,111.12,82.71,111.15,82.92Z" fill="#0058f9"/>
        <path id="Trazado_837879" data-name="Trazado 837879" d="M65.99,137.67c-5.48-.02-10.97.1-16.45-.02-1.86-6.42-2.38-13.36-3.95-19.92-.09-.43-.31-.89.05-1.32,11.98-.23,24.02.25,35.98-.2a1.687,1.687,0,0,1,1.24,1.58c.01,2.18.02,4.37-.01,6.55.04.74-.55.99-1.15.78-7.64-1.33-15.24-3.36-22.88-4.4,2.15,5.23,4.63,10.36,6.85,15.58C65.86,136.72,66.21,137.14,65.99,137.67Z" fill="#783efa"/>
        <path id="Trazado_837880" data-name="Trazado 837880" d="M45.63,116.41c1.22,7.05,2.67,14.07,3.88,21.12-3.04.25-6.35.08-9.44.04-.35-.04-.47-.32-.6-.59-3.27-6.83-6.53-13.67-9.61-20.59q6.33,0,12.66-.01A4.041,4.041,0,0,1,45.63,116.41Z" fill="#a6eaff"/>
        <path id="Trazado_837881" data-name="Trazado 837881" d="M54.44,152.47c-.21.93,3.75,2.88,4.35,4.17-.76,1.03-1.09,2.19-2.04,2.89-.67.33-.72.39-.52,1.12.37,1.33,1.23,2.58,1.27,3.98-.88-1.82-1.72-3.67-2.61-5.48a19.162,19.162,0,0,1-2.9-5.17h0c-.63-1.29-.91-2.78-1.44-4.21a1.412,1.412,0,0,1,.48.13C52.15,150.77,53.55,151.36,54.44,152.47Z" fill="#00bffa"/>
        <path id="Trazado_837882" data-name="Trazado 837882" d="M51.99,153.99a24.828,24.828,0,0,1,2.42,4.66A11.977,11.977,0,0,0,52.56,161C52.18,158.69,52.18,156.33,51.99,153.99Z" fill="#b8cce6"/>
        <path id="Trazado_837883" data-name="Trazado 837883" d="M49.2,137.64c.1-.04.21-.07.31-.11l.03.12C49.43,137.65,49.32,137.64,49.2,137.64Z" fill="#8886f0"/>
        <path id="Trazado_837884" data-name="Trazado 837884" d="M40.07,137.56c.11.02.23.03.34.05C40.3,137.6,40.19,137.58,40.07,137.56Z" fill="#8886f0"/>
        <path id="Trazado_837885" data-name="Trazado 837885" d="M56.37,153.84l-.15-.18Z" fill="#00bffa"/>
        <path id="Trazado_837886" data-name="Trazado 837886" d="M51.86,153.83l.13.16Z" fill="#b8cce6"/>
        <path id="Trazado_837887" data-name="Trazado 837887" d="M82.53,125.01c.07-2.66.08-5.32.09-7.97q2.34,1.365,4.54,2.93c-.87,1.79-1.75,3.58-2.62,5.37C84.05,125.33,82.67,125.65,82.53,125.01Z" fill="#b8cce6"/>
        <path id="Trazado_837888" data-name="Trazado 837888" d="M186.36,89.81a.433.433,0,0,1-.16-.01c.07-.03.16-.16.23-.13A.308.308,0,0,1,186.36,89.81Z" fill="#8886f0"/>
        <path id="Trazado_837889" data-name="Trazado 837889" d="M111.15,82.92a31.313,31.313,0,0,1-3.72-2.49,22.285,22.285,0,0,0,.3-3.65c3.34.39,6.69.56,10.05.68.22.97.43,1.94.65,2.91.31.89.75,1.71.13,2.58-1.75.88-1.63.54-3.38.47C113.89,83.1,112.48,83.12,111.15,82.92Z" fill="#b52b88"/>
        <path id="Trazado_837890" data-name="Trazado 837890" d="M114.68,63.34c.42-.35.59-.98,1.21-1.12.06-.01.13-.11.15-.18.29-1.01,1.08-.73,1.77-.68.47.11,1.21.26,1.15.89a5.173,5.173,0,0,0-.71.52c-.48.5-3.09,1.89-3.29.69C114.94,63.39,114.78,63.37,114.68,63.34Z" fill="#e89f90"/>
        <path id="Trazado_837891" data-name="Trazado 837891" d="M119.51,64.8a1.309,1.309,0,0,1-.43,1.34,2.991,2.991,0,0,1-4.83-.37C116.15,66.26,117.82,65.62,119.51,64.8Z" fill="#fff"/>
        <path id="Trazado_837892" data-name="Trazado 837892" d="M127.86,80.7c4.29,4.92,9.28,9.25,13.7,14.08a.957.957,0,0,1,.24,1.1c-1.84,4.98-3.42,10.11-5.6,14.95-1-4.49-1.76-9.02-2.61-13.53a2.759,2.759,0,0,0-.51-1.26c-1.83-2.17-3.7-4.31-5.55-6.45-2.39-2.74-4.8-5.47-7.19-8.21-.06-.07.03-.26.05-.39C122.89,80.93,125.37,80.62,127.86,80.7Z" fill="#2d7ac2"/>
        <path id="Trazado_837893" data-name="Trazado 837893" d="M45.45,116.37c-.98,0-1.95,0-2.93.01a8.544,8.544,0,0,1,2.57-3.12C45.21,114.29,45.33,115.33,45.45,116.37Z" fill="#00bffa"/>
        <path id="Trazado_837894" data-name="Trazado 837894" d="M185.09,36.06c-1.16-.24-3.73.39-3.93-1.2-.14-1.59-.24-3.18-.35-4.77-.03-.39.06-.71.54-.75C182.7,31.54,183.54,33.99,185.09,36.06Z" fill="#e89f90"/>
        <path id="Trazado_837895" data-name="Trazado 837895" d="M57.51,164.75c.47.06.31.42.32.69C57.72,165.21,57.61,164.98,57.51,164.75Z" fill="#00bffa"/>
        <path id="Trazado_837896" data-name="Trazado 837896" d="M57.85,165.57c.05.11.1.22.15.34C57.95,165.79,57.9,165.68,57.85,165.57Z" fill="#00bffa"/>
        <path id="Trazado_837897" data-name="Trazado 837897" d="M112.11,60.5c-.64-.08-.83.6-1.3.79a1.373,1.373,0,0,1-.49-1.48c.72-.14,1.96-1.26,2.61-.77-.1.21-.19.42-.3.65.15.1.29.2.44.3C112.8,60.27,112.38,60.25,112.11,60.5Z" fill="#e89f90"/>
        <path id="Trazado_837898" data-name="Trazado 837898" d="M112.93,59.05c-.95-.13-2.02,1.07-2.61.77.63-1.08,2.39-2.01,3.42-.98a.165.165,0,0,1-.03.24Z" fill="#002e78"/>
        <path id="Trazado_837899" data-name="Trazado 837899" d="M118.29,58.09a4.944,4.944,0,0,1-.3-.49,3,3,0,0,0-2.12,1.4c.58.3,1.63-.86,2.51-.76A.6.6,0,0,1,118.29,58.09Z" fill="#e89f90"/>
        <path id="Trazado_837900" data-name="Trazado 837900" d="M112.11,60.5c-.08-.57.59-.47.96-.5C114.17,61.03,113.2,61.69,112.11,60.5Z" fill="#002e78"/>
        <path id="Trazado_837901" data-name="Trazado 837901" d="M117.32,59.61c-.08-.57.59-.47.96-.5C119.38,60.14,118.41,60.8,117.32,59.61Z" fill="#002e78"/>
        <path id="Trazado_837902" data-name="Trazado 837902" d="M106.12,65.32c-.28.63.02,1.05.48,1.44-.57.05-.69-.31-.76-.68C105.79,65.8,105.63,65.47,106.12,65.32Z" fill="#002e78"/>
        <path id="Trazado_837903" data-name="Trazado 837903" d="M82.6,125.18c.54.01,1.08.03,1.62.04.43.71-.51,1.62-.72,2.32-.94,2.07-1.84,4.17-2.87,6.2-2.86,5.86-5.47,11.83-8.3,17.7-1.62-2.28-2.32-5.2-3.57-7.72a.907.907,0,0,1,.16-.98C73.58,137,78.08,130.94,82.6,125.18Z" fill="#2d7ac2"/>
        <path id="Trazado_837904" data-name="Trazado 837904" d="M84.24,126.03c-.01-.27-.01-.54-.02-.81l.33.12C84.45,125.57,84.34,125.8,84.24,126.03Z" fill="#00bffa"/>
        <path id="Trazado_837905" data-name="Trazado 837905" d="M116.78,220.18c-8.92.02-9.78-12.97-1.34-14.82C125.85,203.28,127.18,219.64,116.78,220.18Z" fill="#d1bbff"/>
        <path id="Trazado_837906" data-name="Trazado 837906" d="M82.6,125.18c-4.21,6.41-9.48,12.07-13.89,18.3-3.5-7.69-7.04-15.41-10.34-23.19,8.12,1.38,16.07,3.3,24.17,4.71C82.56,125.07,82.58,125.12,82.6,125.18Z" fill="#00bffa"/>
        <path id="Trazado_837907" data-name="Trazado 837907" d="M129.29,133.77c.05.97-1.15,1.13-1.22.12C128,133.08,129.28,132.77,129.29,133.77Z" fill="#0058f9"/>
        <path id="Trazado_837908" data-name="Trazado 837908" d="M122.39,93.23c-.72.08-.85-1.35-.1-1.44C123.14,91.67,123.26,93.19,122.39,93.23Z" fill="#00bffa"/>
        <path id="Trazado_837909" data-name="Trazado 837909" d="M128.72,118.71a.571.571,0,1,1-1.13.12C127.52,118.01,128.75,117.65,128.72,118.71Z" fill="#0058f9"/>
        <path id="Trazado_837910" data-name="Trazado 837910" d="M127.67,106.53c-.72.51-1.14.83-1.33-.12C126.69,105.47,127.04,105.91,127.67,106.53Z" fill="#0058f9"/>
        <path id="Trazado_837911" data-name="Trazado 837911" d="M165.71,133.07c.69-.02,1.39-.05,2.08-.07.56,6.49.42,13.03,1.09,19.52-4.48.02-8.97-.03-13.45.03a5.518,5.518,0,0,1,1.4-4.95Q161.285,140.34,165.71,133.07Z" fill="#2d7ac2"/>
        <path id="Trazado_837912" data-name="Trazado 837912" d="M136.71,114.58c2.27.87,4.62.8,6.98,1.69-1.86,5.64-3.63,11.28-5.51,16.91-.11-.01-.12-.11-.13-.19-.06-.92-.12-1.85-.19-2.77-.06-2.07-.36-4.24-.5-6.35-.04-1.11-.15-2.27-.28-3.4a1.659,1.659,0,0,0-.07-.96c-.12-1.52-.24-3.05-.36-4.57C136.61,114.8,136.57,114.67,136.71,114.58Z" fill="#002e78"/>
        <path id="Trazado_837913" data-name="Trazado 837913" d="M138.04,134.13c-.01-.25-.02-.51-.04-.76.03-.04.06-.09.09-.13C138.22,133.52,138.05,133.84,138.04,134.13Z" fill="#8886f0"/>
      </g>
      <g id="Grupo_1095564" data-name="Grupo 1095564">
        <g id="Grupo_1095563" data-name="Grupo 1095563">
          <path id="Trazado_837914" data-name="Trazado 837914" d="M171.52,123.07v4.01c0,8.13-.88,15.39-11.12,21.35-1.09.63-1.68,1.73-1.28,2.52s1.64.97,2.74.34c11.83-6.84,12.87-15.69,12.87-24.21v-4.01a11.21,11.21,0,0,1,22.42,0v4.01c0,9.95-.9,21.36-11.22,31.88-.88.9-1.15,2.12-.55,2.77s1.84.49,2.73-.41c11.27-11.39,12.24-23.61,12.24-34.24v-4.01a14.415,14.415,0,1,0-28.83,0Z" fill="#002e78"/>
          <path id="Trazado_837915" data-name="Trazado 837915" d="M165.11,123.07v4.01c0,8.1-1.46,13.14-9.02,16.94-1.13.57-1.8,1.61-1.46,2.43s1.56,1.09,2.7.54c9.13-4.51,10.99-10.81,10.99-19.91v-4.01a17.62,17.62,0,1,1,35.24,0v2a1.64,1.64,0,1,0,3.2,0v-2a20.825,20.825,0,1,0-41.65,0Z" fill="#002e78"/>
          <path id="Trazado_837916" data-name="Trazado 837916" d="M158.7,123.07v2a1.64,1.64,0,1,0,3.2,0v-2a24.03,24.03,0,1,1,48.06,0v2a1.64,1.64,0,1,0,3.2,0v-2a27.23,27.23,0,0,0-54.46,0Z" fill="#002e78"/>
          <path id="Trazado_837917" data-name="Trazado 837917" d="M185.94,115.06a8.015,8.015,0,0,0-8.01,8.01v4.01c0,10.31-2.13,18.6-12.19,25.1-1.06.69-1.6,1.81-1.16,2.58s1.69.89,2.75.21c12.08-7.75,13.81-17.96,13.81-27.89v-4.01a4.81,4.81,0,1,1,9.62,0v4.01c0,10.7-1.53,21.77-12.18,30.6-.97.8-1.38,1.98-.85,2.7s1.78.69,2.75-.11c11.83-9.72,13.48-22.18,13.48-33.18v-4.01A8.045,8.045,0,0,0,185.94,115.06Z" fill="#002e78"/>
          <path id="Trazado_837918" data-name="Trazado 837918" d="M185.94,127.36c-.88,0-1.6.74-1.63,2-.27,8.83-2.37,18.47-12.39,26.12-1,.77-1.46,1.93-.96,2.66s1.75.76,2.75,0c11.27-8.54,13.52-19.53,13.8-28.79C187.54,128.1,186.82,127.36,185.94,127.36Z" fill="#002e78"/>
        </g>
        <path id="Trazado_837919" data-name="Trazado 837919" d="M202.14,161.5V135.52a32.177,32.177,0,0,1-12.09,2.98C191.14,149.8,196.48,158.13,202.14,161.5Z" fill="#ffdfe7"/>
        <path id="Trazado_837920" data-name="Trazado 837920" d="M214.23,138.5a32.177,32.177,0,0,1-12.09-2.98V161.5C207.81,158.13,213.14,149.8,214.23,138.5Z" fill="#7c3eff"/>
        <path id="Trazado_837921" data-name="Trazado 837921" d="M202.14,130.27v5.25a32.131,32.131,0,0,0,12.09,2.98c-1.09,11.3-6.43,19.63-12.09,22.99v4.91c8.34-3.47,16.68-15.42,16.68-32.15C211.48,134.33,205.22,132.94,202.14,130.27Z" fill="#005afd"/>
        <path id="Trazado_837922" data-name="Trazado 837922" d="M190.05,138.5a32.177,32.177,0,0,0,12.09-2.98v-5.25c-3.08,2.67-9.34,4.06-16.69,3.98,0,16.73,8.34,28.68,16.69,32.15v-4.91C196.48,158.13,191.14,149.8,190.05,138.5Z" fill="#d1bbff"/>
      </g>
      <g id="Grupo_1095565" data-name="Grupo 1095565">
        <path id="Trazado_837923" data-name="Trazado 837923" d="M58.06,14.73H39.85V69.77H76.27V14.73Z" fill="#6bb9db"/>
        <rect id="Rectángulo_387518" data-name="Rectángulo 387518" width="14.21" height="39.31" transform="translate(58.06 22.59)" fill="#a6c5fe"/>
        <rect id="Rectángulo_387519" data-name="Rectángulo 387519" width="14.21" height="39.31" transform="translate(43.85 22.59)" fill="#ffdfe7"/>
        <path id="Trazado_837924" data-name="Trazado 837924" d="M58.06,33.56V50.31a8.375,8.375,0,0,0,0-16.75Z" fill="#f29e0a"/>
        <path id="Trazado_837925" data-name="Trazado 837925" d="M49.69,41.93a8.384,8.384,0,0,0,8.38,8.38V33.56A8.375,8.375,0,0,0,49.69,41.93Z" fill="#f9d10d"/>
        <path id="Trazado_837926" data-name="Trazado 837926" d="M54.48,72.54a1,1,0,1,0-1.78.9l6.05,11.9h6.99v-2H59.98Z" fill="#009ecd"/>
        <rect id="Rectángulo_387520" data-name="Rectángulo 387520" width="2" height="17.22" transform="matrix(0.891, -0.453, 0.453, 0.891, 58.47, 67.021)" fill="#c02025"/>
        <rect id="Rectángulo_387521" data-name="Rectángulo 387521" width="1.87" height="15.24" transform="translate(67.46 66.57)" fill="#c02025"/>
        <rect id="Rectángulo_387522" data-name="Rectángulo 387522" width="17.22" height="2" transform="matrix(0.453, -0.891, 0.891, 0.453, 68.75, 81.458)" fill="#c02025"/>
        <path id="Trazado_837927" data-name="Trazado 837927" d="M59,42.91a.942.942,0,1,0-1.88,0V61.47h1.87V42.91Z" fill="#c02025"/>
        <path id="Trazado_837928" data-name="Trazado 837928" d="M69.34,52.69a.942.942,0,1,0-1.88,0v8.78h1.87V52.69Z" fill="#c02025"/>
        <path id="Trazado_837929" data-name="Trazado 837929" d="M79.67,57.58a.942.942,0,1,0-1.88,0v3.89h1.87V57.58Z" fill="#c02025"/>
        <path id="Trazado_837930" data-name="Trazado 837930" d="M58.07,60.15a3.87,3.87,0,1,0,3.86,3.87A3.873,3.873,0,0,0,58.07,60.15Zm0,5.86a1.99,1.99,0,1,1,1.99-1.99A1.989,1.989,0,0,1,58.07,66.01Z" fill="#c02025"/>
        <path id="Trazado_837931" data-name="Trazado 837931" d="M64.54,84.35a3.87,3.87,0,1,0,3.87-3.87A3.864,3.864,0,0,0,64.54,84.35Zm5.85,0a1.99,1.99,0,1,1-1.99-1.99A1.989,1.989,0,0,1,70.39,84.35Z" fill="#0b5077"/>
        <rect id="Rectángulo_387523" data-name="Rectángulo 387523" width="5.07" height="1.88" transform="translate(60.78 63.08)" fill="#c02025"/>
        <rect id="Rectángulo_387524" data-name="Rectángulo 387524" width="5.07" height="1.87" transform="translate(70.95 63.08)" fill="#c02025"/>
        <path id="Trazado_837932" data-name="Trazado 837932" d="M68.4,60.15a3.87,3.87,0,1,0,3.86,3.87A3.873,3.873,0,0,0,68.4,60.15Zm0,5.86a1.99,1.99,0,1,1,1.99-1.99A1.989,1.989,0,0,1,68.4,66.01Z" fill="#0b5077"/>
        <path id="Trazado_837933" data-name="Trazado 837933" d="M54.2,64.02a3.87,3.87,0,1,0,3.87-3.86A3.873,3.873,0,0,0,54.2,64.02Zm5.86,0a1.99,1.99,0,1,1-1.99-1.99A1.989,1.989,0,0,1,60.06,64.02Z" fill="#0b5077"/>
        <path id="Trazado_837934" data-name="Trazado 837934" d="M58.07,38.92a3,3,0,1,0,3,3A3.009,3.009,0,0,0,58.07,38.92Z" fill="#0b5077"/>
        <path id="Trazado_837935" data-name="Trazado 837935" d="M78.73,60.15a3.865,3.865,0,1,0,3.87,3.86A3.871,3.871,0,0,0,78.73,60.15Zm0,1.88a1.99,1.99,0,1,1-1.99,1.99A1.989,1.989,0,0,1,78.73,62.03Z" fill="#0b5077"/>
        <path id="Trazado_837936" data-name="Trazado 837936" d="M46.29,39.3a6.984,6.984,0,0,0-1.59.18,10.146,10.146,0,0,0-19.2,2.41,6.15,6.15,0,0,0-1.43-.17,6.07,6.07,0,1,0,0,12.14H46.28a7.28,7.28,0,0,0,.01-14.56Z" fill="#b3e8ff"/>
        <path id="Trazado_837937" data-name="Trazado 837937" d="M76.75,44.45a3.417,3.417,0,0,1,.79.09,5.053,5.053,0,0,1,9.56,1.2,3.359,3.359,0,0,1,.71-.08,3.02,3.02,0,0,1,0,6.04H76.75a3.625,3.625,0,0,1,0-7.25Z" fill="#b3e8ff"/>
      </g>
      <g id="Grupo_1095566" data-name="Grupo 1095566">
        <path id="Trazado_837938" data-name="Trazado 837938" d="M59.95,184.07l5.84,5.84,6.39,6.39,14.01-14.01a6.518,6.518,0,0,0,0-9.21L72.18,159.07,53.56,177.69Z" fill="#ff2c60"/>
        <path id="Trazado_837939" data-name="Trazado 837939" d="M57.48,192.39a4.931,4.931,0,0,0,6.98,0,4.838,4.838,0,0,0,1.33-2.48l-5.84-5.84a4.929,4.929,0,0,0-2.47,8.32Z" fill="#ff2c60"/>
        <path id="Trazado_837940" data-name="Trazado 837940" d="M48.96,145.05,34.95,159.06l18.62,18.62,6.39-6.39a4.935,4.935,0,1,0,8.32-4.5,4.953,4.953,0,0,0-2.48-1.33l6.39-6.39L58.18,145.06A6.5,6.5,0,0,0,48.96,145.05Z" fill="#f0f9fc"/>
        <path id="Trazado_837941" data-name="Trazado 837941" d="M41.33,165.45l-6.39-6.39L20.93,173.07a6.518,6.518,0,0,0,0,9.21l14.01,14.01,18.62-18.62-6.39-6.39a4.931,4.931,0,1,0-4.5-8.31A4.856,4.856,0,0,0,41.33,165.45Z" fill="#7c3eff"/>
        <path id="Trazado_837942" data-name="Trazado 837942" d="M57.48,192.39a4.931,4.931,0,0,1,0-6.98,5.008,5.008,0,0,1,2.48-1.34l-6.39-6.39-6.39,6.39a4.935,4.935,0,1,0-8.32,4.5,5.013,5.013,0,0,0,2.48,1.34l-6.39,6.39,14.01,14.01a6.518,6.518,0,0,0,9.21,0L72.18,196.3l-6.39-6.39a4.92,4.92,0,0,1-8.31,2.48Z" fill="#f0f9fc"/>
      </g>
    </g>
  </g>
</svg>
