<svg id="_3" data-name="3" xmlns="http://www.w3.org/2000/svg" xmlns:xlink="http://www.w3.org/1999/xlink" width="464" height="217.18" viewBox="0 0 464 217.18">
  <defs>
    <clipPath id="clip-path">
      <path id="Trazado_838041" data-name="Trazado 838041" d="M93.19,65.27H91.05A16,16,0,0,0,64.87,52.94,21.618,21.618,0,0,0,23.2,61.02a22.137,22.137,0,0,0,.42,4.26H20.08a13.54,13.54,0,0,0-13.5,13.5h0a13.54,13.54,0,0,0,13.5,13.5H93.19a13.54,13.54,0,0,0,13.5-13.5h0A13.542,13.542,0,0,0,93.19,65.27Z" transform="translate(-6.58 -39.4)"/>
    </clipPath>
    <clipPath id="clip-path-2">
      <path id="Trazado_838086" data-name="Trazado 838086" d="M422.65,5.87l-1.16,20.94L397.21,41.26,372.6,27.36l2.05-21.49Z" transform="translate(-372.6 -5.87)"/>
    </clipPath>
  </defs>
  <g id="Grupo_1095568" data-name="Grupo 1095568" transform="translate(403.394 170.261)">
    <path id="Trazado_837943" data-name="Trazado 837943" d="M425.05,203.79a.859.859,0,0,1-.86-.82.87.87,0,0,1,.82-.91c.73-.04,1.47-.1,2.19-.2a.867.867,0,0,1,.22,1.72c-.76.1-1.54.17-2.32.21Zm-5.18-.16a.376.376,0,0,1-.1-.01c-.76-.08-1.53-.19-2.29-.33a.863.863,0,1,1,.3-1.7c.73.13,1.46.23,2.18.31a.871.871,0,0,1,.77.95A.851.851,0,0,1,419.87,203.63Zm12.49-1.16a.855.855,0,0,1-.82-.6.864.864,0,0,1,.56-1.09c.69-.22,1.39-.48,2.05-.76a.863.863,0,0,1,.67,1.59c-.71.3-1.45.57-2.19.81A.857.857,0,0,1,432.36,202.47Zm-19.76-.39a.784.784,0,0,1-.26-.04c-.72-.23-1.46-.48-2.18-.75a.864.864,0,0,1,.6-1.62q1.05.39,2.1.72a.864.864,0,0,1-.26,1.69Zm26.44-2.86a.865.865,0,0,1-.49-1.58c.6-.41,1.19-.85,1.74-1.31a.866.866,0,0,1,1.11,1.33c-.59.49-1.22.97-1.87,1.41A.882.882,0,0,1,439.04,199.22Zm5.37-5.12a.879.879,0,0,1-.51-.16.866.866,0,0,1-.2-1.21c.1-.14.2-.28.3-.43a.865.865,0,0,1,.26-1.71c.24.03.5.06.75.07a.881.881,0,0,1,.97-.13.8.8,0,0,1,.21.15,1.087,1.087,0,0,0,.18-.01h.04a.865.865,0,0,1,.03,1.73c-.16.01-.32.01-.47.01-.26.44-.54.88-.86,1.32A.818.818,0,0,1,444.41,194.1Zm7.08-2.68a.864.864,0,0,1-.29-1.68,13.688,13.688,0,0,0,1.94-.85.864.864,0,1,1,.82,1.52,16.125,16.125,0,0,1-2.19.97A.9.9,0,0,1,451.49,191.42Zm-12.07-1.05a.887.887,0,0,1-.55-.2,7.207,7.207,0,0,1-1.66-1.94.865.865,0,1,1,1.5-.86,5.3,5.3,0,0,0,1.27,1.47.865.865,0,0,1-.56,1.53Zm6.81-3.2a.853.853,0,0,1-.83-.64,5.764,5.764,0,0,0-.81-1.77.867.867,0,0,1,1.41-1.01,7.278,7.278,0,0,1,1.07,2.32.86.86,0,0,1-.61,1.06A.656.656,0,0,1,446.23,187.17Zm11.18-.05a.849.849,0,0,1-.5-.16.875.875,0,0,1-.21-1.21,11.121,11.121,0,0,0,1.03-1.82.864.864,0,1,1,1.58.7,12.548,12.548,0,0,1-1.19,2.12A.873.873,0,0,1,457.41,187.12Zm-18.7-3.06a.869.869,0,0,1-.52-1.56,5.565,5.565,0,0,1,2.45-1.03.866.866,0,0,1,.27,1.71,3.809,3.809,0,0,0-1.68.71A.921.921,0,0,1,438.71,184.06Zm20.95-3.95h-.04a.854.854,0,0,1-.82-.9c.01-.23.02-.46.02-.68a11.019,11.019,0,0,0-.08-1.41.864.864,0,0,1,1.71-.25,13,13,0,0,1,.1,1.66c0,.25-.01.51-.02.76A.875.875,0,0,1,459.66,180.11Z" transform="translate(-409.594 -176.131)" fill="#53619b"/>
  </g>
  <g id="Grupo_1095680" data-name="Grupo 1095680" transform="translate(0.38 33.53)">
    <g id="Grupo_1095679" data-name="Grupo 1095679" clip-path="url(#clip-path)">
      <g id="Grupo_1095667" data-name="Grupo 1095667" transform="translate(-24.34 8.03)">
        <g id="Grupo_1095578" data-name="Grupo 1095578" transform="translate(47.45)">
          <g id="Grupo_1095569" data-name="Grupo 1095569" transform="translate(0 0.41)">
            <path id="Trazado_837944" data-name="Trazado 837944" d="M29.69,47.86l1.73-.02.1,9.05-1.73.02Z" transform="translate(-29.69 -47.84)" fill="#a6c5fe"/>
          </g>
          <g id="Grupo_1095570" data-name="Grupo 1095570" transform="translate(2.72 0.36)">
            <path id="Trazado_837945" data-name="Trazado 837945" d="M36.68,47.79l1.34,1.32.07,6.39-1.31,1.34-2.96.03-1.34-1.31-.07-6.39,1.31-1.35Zm-.39,1.74-2.15.02.06,5.58,2.15-.02Z" transform="translate(-32.41 -47.79)" fill="#a6c5fe"/>
          </g>
          <g id="Grupo_1095571" data-name="Grupo 1095571" transform="translate(9.28 0.32)">
            <path id="Trazado_837946" data-name="Trazado 837946" d="M38.97,47.77l1.73-.02.1,9.05-1.73.02Z" transform="translate(-38.97 -47.75)" fill="#a6c5fe"/>
          </g>
          <g id="Grupo_1095572" data-name="Grupo 1095572" transform="translate(12 0.26)">
            <path id="Trazado_837947" data-name="Trazado 837947" d="M45.96,47.69l1.34,1.32.07,6.39-1.31,1.34-2.96.03-1.34-1.31-.07-6.39L43,47.72Zm-.39,1.74-2.15.02.06,5.58,2.15-.02Z" transform="translate(-41.69 -47.69)" fill="#a6c5fe"/>
          </g>
          <g id="Grupo_1095573" data-name="Grupo 1095573" transform="translate(18.56 0.22)">
            <path id="Trazado_837948" data-name="Trazado 837948" d="M48.25,47.67l1.73-.02.1,9.05-1.73.02Z" transform="translate(-48.25 -47.65)" fill="#a6c5fe"/>
          </g>
          <g id="Grupo_1095574" data-name="Grupo 1095574" transform="translate(21.28 0.16)">
            <path id="Trazado_837949" data-name="Trazado 837949" d="M55.24,47.59l1.34,1.32.07,6.39-1.31,1.34-2.96.03-1.34-1.31-.07-6.39,1.31-1.35Zm-.39,1.74-2.15.02.06,5.58,2.15-.02Z" transform="translate(-50.97 -47.59)" fill="#a6c5fe"/>
          </g>
          <g id="Grupo_1095575" data-name="Grupo 1095575" transform="translate(27.85 0.09)">
            <path id="Trazado_837950" data-name="Trazado 837950" d="M61.81,47.52l1.34,1.32.07,6.39-1.31,1.34-2.96.03-1.34-1.31-.07-6.39,1.31-1.35Zm-.38,1.74-2.15.02.06,5.58,2.15-.02Z" transform="translate(-57.54 -47.52)" fill="#a6c5fe"/>
          </g>
          <g id="Grupo_1095576" data-name="Grupo 1095576" transform="translate(34.42 0.05)">
            <path id="Trazado_837951" data-name="Trazado 837951" d="M64.11,47.5l1.73-.02.1,9.05-1.73.02Z" transform="translate(-64.11 -47.48)" fill="#a6c5fe"/>
          </g>
          <g id="Grupo_1095577" data-name="Grupo 1095577" transform="translate(37.14)">
            <path id="Trazado_837952" data-name="Trazado 837952" d="M71.1,47.43l1.34,1.32.07,6.39L71.2,56.48l-2.96.03L66.9,55.2l-.07-6.39,1.31-1.35Zm-.39,1.73-2.15.02.06,5.58,2.15-.02Z" transform="translate(-66.83 -47.43)" fill="#a6c5fe"/>
          </g>
        </g>
        <g id="Grupo_1095586" data-name="Grupo 1095586" transform="translate(91.11)">
          <g id="Grupo_1095579" data-name="Grupo 1095579" transform="translate(0 0.32)">
            <path id="Trazado_837953" data-name="Trazado 837953" d="M73.35,47.77l1.73-.02.1,9.05-1.73.02Z" transform="translate(-73.35 -47.75)" fill="#a6c5fe"/>
          </g>
          <g id="Grupo_1095580" data-name="Grupo 1095580" transform="translate(2.72 0.26)">
            <path id="Trazado_837954" data-name="Trazado 837954" d="M80.34,47.69l1.34,1.32.07,6.39-1.31,1.34-2.96.03-1.34-1.31-.07-6.39,1.31-1.35Zm-.38,1.74-2.15.02.06,5.58,2.15-.02Z" transform="translate(-76.07 -47.69)" fill="#a6c5fe"/>
          </g>
          <g id="Grupo_1095581" data-name="Grupo 1095581" transform="translate(9.29 0.22)">
            <path id="Trazado_837955" data-name="Trazado 837955" d="M82.64,47.67l1.73-.02.1,9.05-1.73.02Z" transform="translate(-82.64 -47.65)" fill="#a6c5fe"/>
          </g>
          <g id="Grupo_1095582" data-name="Grupo 1095582" transform="translate(12 0.16)">
            <path id="Trazado_837956" data-name="Trazado 837956" d="M89.62,47.59l1.34,1.32.07,6.39-1.31,1.34-2.96.03-1.34-1.31-.07-6.39,1.31-1.35Zm-.38,1.74-2.15.02.06,5.58,2.15-.02Z" transform="translate(-85.35 -47.59)" fill="#a6c5fe"/>
          </g>
          <g id="Grupo_1095583" data-name="Grupo 1095583" transform="translate(18.58 0.09)">
            <path id="Trazado_837957" data-name="Trazado 837957" d="M96.2,47.52l1.34,1.32.07,6.39L96.3,56.57l-2.96.03L92,55.29l-.07-6.39,1.31-1.35Zm-.39,1.74-2.15.02.06,5.58,2.15-.02Z" transform="translate(-91.93 -47.52)" fill="#a6c5fe"/>
          </g>
          <g id="Grupo_1095584" data-name="Grupo 1095584" transform="translate(25.14 0.05)">
            <path id="Trazado_837958" data-name="Trazado 837958" d="M98.49,47.5l1.73-.02.1,9.05-1.73.02Z" transform="translate(-98.49 -47.48)" fill="#a6c5fe"/>
          </g>
          <g id="Grupo_1095585" data-name="Grupo 1095585" transform="translate(27.86)">
            <path id="Trazado_837959" data-name="Trazado 837959" d="M105.48,47.43l1.34,1.32.07,6.39-1.31,1.34-2.96.03-1.34-1.31-.07-6.39,1.31-1.35Zm-.38,1.73-2.15.02.06,5.58,2.15-.02Z" transform="translate(-101.21 -47.43)" fill="#a6c5fe"/>
          </g>
        </g>
        <g id="Grupo_1095596" data-name="Grupo 1095596" transform="translate(37.16 12.16)">
          <g id="Grupo_1095587" data-name="Grupo 1095587" transform="translate(0 0.42)">
            <path id="Trazado_837960" data-name="Trazado 837960" d="M19.4,60.03l1.73-.02.1,9.05-1.73.02Z" transform="translate(-19.4 -60.01)" fill="#a6c5fe"/>
          </g>
          <g id="Grupo_1095588" data-name="Grupo 1095588" transform="translate(2.71 0.37)">
            <path id="Trazado_837961" data-name="Trazado 837961" d="M26.38,59.96l1.34,1.32.07,6.39L26.48,69l-2.96.03-1.34-1.31-.07-6.39,1.31-1.35ZM26,61.69l-2.15.02.06,5.58,2.15-.02Z" transform="translate(-22.11 -59.96)" fill="#a6c5fe"/>
          </g>
          <g id="Grupo_1095589" data-name="Grupo 1095589" transform="translate(9.28 0.32)">
            <path id="Trazado_837962" data-name="Trazado 837962" d="M28.68,59.93l1.73-.02.1,9.05-1.73.02Z" transform="translate(-28.68 -59.91)" fill="#a6c5fe"/>
          </g>
          <g id="Grupo_1095590" data-name="Grupo 1095590" transform="translate(11.99 0.27)">
            <path id="Trazado_837963" data-name="Trazado 837963" d="M35.66,59.86,37,61.18l.07,6.39-1.31,1.34-2.96.03-1.34-1.31-.07-6.39,1.31-1.35Zm-.38,1.73-2.15.02.06,5.58,2.15-.02Z" transform="translate(-31.39 -59.86)" fill="#a6c5fe"/>
          </g>
          <g id="Grupo_1095591" data-name="Grupo 1095591" transform="translate(18.56 0.22)">
            <path id="Trazado_837964" data-name="Trazado 837964" d="M37.96,59.83l1.73-.02.1,9.05-1.73.02Z" transform="translate(-37.96 -59.81)" fill="#a6c5fe"/>
          </g>
          <g id="Grupo_1095592" data-name="Grupo 1095592" transform="translate(21.27 0.17)">
            <path id="Trazado_837965" data-name="Trazado 837965" d="M44.94,59.76l1.34,1.32.07,6.39-1.31,1.34-2.96.03-1.34-1.31-.07-6.39,1.31-1.35Zm-.38,1.74-2.15.02.06,5.58,2.15-.02Z" transform="translate(-40.67 -59.76)" fill="#a6c5fe"/>
          </g>
          <g id="Grupo_1095593" data-name="Grupo 1095593" transform="translate(27.85 0.1)">
            <path id="Trazado_837966" data-name="Trazado 837966" d="M51.52,59.69l1.34,1.32.07,6.39-1.31,1.34-2.96.03-1.34-1.31-.07-6.39,1.31-1.35Zm-.38,1.74-2.15.02.06,5.58,2.15-.02Z" transform="translate(-47.25 -59.69)" fill="#a6c5fe"/>
          </g>
          <g id="Grupo_1095594" data-name="Grupo 1095594" transform="translate(34.41 0.06)">
            <path id="Trazado_837967" data-name="Trazado 837967" d="M53.81,59.67l1.73-.02.1,9.05-1.73.02Z" transform="translate(-53.81 -59.65)" fill="#a6c5fe"/>
          </g>
          <g id="Grupo_1095595" data-name="Grupo 1095595" transform="translate(37.13)">
            <path id="Trazado_837968" data-name="Trazado 837968" d="M60.8,59.59l1.34,1.32.07,6.39L60.9,68.64l-2.96.03L56.6,67.36l-.07-6.39,1.31-1.35Zm-.38,1.74-2.15.02.06,5.58,2.15-.02Z" transform="translate(-56.53 -59.59)" fill="#a6c5fe"/>
          </g>
        </g>
        <g id="Grupo_1095606" data-name="Grupo 1095606" transform="translate(87.43 11.96)">
          <g id="Grupo_1095597" data-name="Grupo 1095597" transform="translate(0 0.42)">
            <path id="Trazado_837969" data-name="Trazado 837969" d="M69.67,59.83l1.73-.02.1,9.05-1.73.02Z" transform="translate(-69.67 -59.81)" fill="#a6c5fe"/>
          </g>
          <g id="Grupo_1095598" data-name="Grupo 1095598" transform="translate(2.71 0.36)">
            <path id="Trazado_837970" data-name="Trazado 837970" d="M76.65,59.75l1.34,1.32.07,6.39L76.75,68.8l-2.96.03-1.34-1.31-.07-6.39,1.31-1.35Zm-.38,1.74-2.15.02.06,5.58,2.15-.02Z" transform="translate(-72.38 -59.75)" fill="#a6c5fe"/>
          </g>
          <g id="Grupo_1095599" data-name="Grupo 1095599" transform="translate(9.28 0.32)">
            <path id="Trazado_837971" data-name="Trazado 837971" d="M78.95,59.73l1.73-.02.1,9.05-1.73.02Z" transform="translate(-78.95 -59.71)" fill="#a6c5fe"/>
          </g>
          <g id="Grupo_1095600" data-name="Grupo 1095600" transform="translate(11.99 0.26)">
            <path id="Trazado_837972" data-name="Trazado 837972" d="M85.93,59.65l1.34,1.32.07,6.39L86.03,68.7l-2.96.03-1.34-1.31-.07-6.39,1.31-1.35Zm-.38,1.74-2.15.02L83.46,67l2.15-.02Z" transform="translate(-81.66 -59.65)" fill="#a6c5fe"/>
          </g>
          <g id="Grupo_1095601" data-name="Grupo 1095601" transform="translate(18.56 0.22)">
            <path id="Trazado_837973" data-name="Trazado 837973" d="M88.23,59.63l1.73-.02.1,9.05-1.73.02Z" transform="translate(-88.23 -59.61)" fill="#a6c5fe"/>
          </g>
          <g id="Grupo_1095602" data-name="Grupo 1095602" transform="translate(21.27 0.17)">
            <path id="Trazado_837974" data-name="Trazado 837974" d="M95.21,59.56l1.34,1.32.07,6.39-1.31,1.34-2.96.03-1.34-1.31-.07-6.39,1.31-1.35Zm-.38,1.73-2.15.02.06,5.58,2.15-.02Z" transform="translate(-90.94 -59.56)" fill="#a6c5fe"/>
          </g>
          <g id="Grupo_1095603" data-name="Grupo 1095603" transform="translate(27.85 0.1)">
            <path id="Trazado_837975" data-name="Trazado 837975" d="M101.79,59.49l1.34,1.32.07,6.39-1.31,1.34-2.96.03-1.34-1.31-.07-6.39,1.31-1.35Zm-.38,1.73-2.15.02.06,5.58,2.15-.02Z" transform="translate(-97.52 -59.49)" fill="#a6c5fe"/>
          </g>
          <g id="Grupo_1095604" data-name="Grupo 1095604" transform="translate(34.41 0.05)">
            <path id="Trazado_837976" data-name="Trazado 837976" d="M104.08,59.46l1.73-.02.1,9.05-1.73.02Z" transform="translate(-104.08 -59.44)" fill="#a6c5fe"/>
          </g>
          <g id="Grupo_1095605" data-name="Grupo 1095605" transform="translate(37.13)">
            <path id="Trazado_837977" data-name="Trazado 837977" d="M111.07,59.39l1.34,1.32.07,6.39-1.31,1.34-2.96.03-1.34-1.31-.07-6.39,1.31-1.35Zm-.38,1.74-2.15.02.06,5.58,2.15-.02Z" transform="translate(-106.8 -59.39)" fill="#a6c5fe"/>
          </g>
        </g>
        <g id="Grupo_1095616" data-name="Grupo 1095616" transform="translate(43.72 24.33)">
          <g id="Grupo_1095607" data-name="Grupo 1095607" transform="translate(0 0.41)">
            <path id="Trazado_837978" data-name="Trazado 837978" d="M25.96,72.19l1.73-.02.1,9.05-1.73.02Z" transform="translate(-25.96 -72.17)" fill="#a6c5fe"/>
          </g>
          <g id="Grupo_1095608" data-name="Grupo 1095608" transform="translate(2.71 0.36)">
            <path id="Trazado_837979" data-name="Trazado 837979" d="M32.94,72.12l1.34,1.32.07,6.39-1.31,1.34-2.96.03-1.34-1.31-.07-6.39,1.31-1.35Zm-.38,1.74-2.15.02.06,5.58,2.15-.02Z" transform="translate(-28.67 -72.12)" fill="#a6c5fe"/>
          </g>
          <g id="Grupo_1095609" data-name="Grupo 1095609" transform="translate(9.28 0.32)">
            <path id="Trazado_837980" data-name="Trazado 837980" d="M35.24,72.1l1.73-.02.1,9.05-1.73.02Z" transform="translate(-35.24 -72.08)" fill="#a6c5fe"/>
          </g>
          <g id="Grupo_1095610" data-name="Grupo 1095610" transform="translate(11.99 0.26)">
            <path id="Trazado_837981" data-name="Trazado 837981" d="M42.22,72.02l1.34,1.32.07,6.39-1.31,1.34-2.96.03-1.34-1.31-.07-6.39,1.31-1.35Zm-.38,1.74-2.15.02.06,5.58,2.15-.02Z" transform="translate(-37.95 -72.02)" fill="#a6c5fe"/>
          </g>
          <g id="Grupo_1095611" data-name="Grupo 1095611" transform="translate(18.56 0.22)">
            <path id="Trazado_837982" data-name="Trazado 837982" d="M44.52,72l1.73-.02.1,9.05-1.73.02Z" transform="translate(-44.52 -71.98)" fill="#a6c5fe"/>
          </g>
          <g id="Grupo_1095612" data-name="Grupo 1095612" transform="translate(21.27 0.16)">
            <path id="Trazado_837983" data-name="Trazado 837983" d="M51.5,71.92l1.34,1.32.07,6.39L51.6,80.97,48.64,81,47.3,79.69l-.07-6.39,1.31-1.35Zm-.38,1.74-2.15.02.06,5.58,2.15-.02Z" transform="translate(-47.23 -71.92)" fill="#a6c5fe"/>
          </g>
          <g id="Grupo_1095613" data-name="Grupo 1095613" transform="translate(27.85 0.1)">
            <path id="Trazado_837984" data-name="Trazado 837984" d="M58.08,71.86l1.34,1.32.07,6.39-1.31,1.34-2.96.03-1.34-1.31-.07-6.39,1.31-1.35Zm-.38,1.73-2.15.02.06,5.58,2.15-.02Z" transform="translate(-53.81 -71.86)" fill="#a6c5fe"/>
          </g>
          <g id="Grupo_1095614" data-name="Grupo 1095614" transform="translate(34.42 0.05)">
            <path id="Trazado_837985" data-name="Trazado 837985" d="M60.38,71.83l1.73-.02.1,9.05-1.73.02Z" transform="translate(-60.38 -71.81)" fill="#a6c5fe"/>
          </g>
          <g id="Grupo_1095615" data-name="Grupo 1095615" transform="translate(37.13)">
            <path id="Trazado_837986" data-name="Trazado 837986" d="M67.36,71.76l1.34,1.32.07,6.39-1.31,1.34-2.96.03-1.34-1.31-.07-6.39,1.31-1.35Zm-.38,1.73-2.15.02.06,5.58,2.15-.02Z" transform="translate(-63.09 -71.76)" fill="#a6c5fe"/>
          </g>
        </g>
        <g id="Grupo_1095626" data-name="Grupo 1095626" transform="translate(43.72 36.66)">
          <g id="Grupo_1095617" data-name="Grupo 1095617" transform="translate(0 0.42)">
            <path id="Trazado_837987" data-name="Trazado 837987" d="M25.96,84.53l1.73-.02.1,9.05-1.73.02Z" transform="translate(-25.96 -84.51)" fill="#a6c5fe"/>
          </g>
          <g id="Grupo_1095618" data-name="Grupo 1095618" transform="translate(2.71 0.36)">
            <path id="Trazado_837988" data-name="Trazado 837988" d="M32.94,84.45l1.34,1.32.07,6.39L33.04,93.5l-2.96.03-1.34-1.31-.07-6.39,1.31-1.35Zm-.38,1.74-2.15.02.06,5.58,2.15-.02Z" transform="translate(-28.67 -84.45)" fill="#a6c5fe"/>
          </g>
          <g id="Grupo_1095619" data-name="Grupo 1095619" transform="translate(9.28 0.32)">
            <path id="Trazado_837989" data-name="Trazado 837989" d="M35.24,84.43l1.73-.02.1,9.05-1.73.02Z" transform="translate(-35.24 -84.41)" fill="#a6c5fe"/>
          </g>
          <g id="Grupo_1095620" data-name="Grupo 1095620" transform="translate(11.99 0.26)">
            <path id="Trazado_837990" data-name="Trazado 837990" d="M42.22,84.35l1.34,1.32.07,6.39L42.32,93.4l-2.96.03-1.34-1.31-.07-6.39,1.31-1.35Zm-.38,1.74-2.15.02.06,5.58,2.15-.02Z" transform="translate(-37.95 -84.35)" fill="#a6c5fe"/>
          </g>
          <g id="Grupo_1095621" data-name="Grupo 1095621" transform="translate(18.56 0.22)">
            <path id="Trazado_837991" data-name="Trazado 837991" d="M44.52,84.33l1.73-.02.1,9.05-1.73.02Z" transform="translate(-44.52 -84.31)" fill="#a6c5fe"/>
          </g>
          <g id="Grupo_1095622" data-name="Grupo 1095622" transform="translate(21.27 0.17)">
            <path id="Trazado_837992" data-name="Trazado 837992" d="M51.5,84.26l1.34,1.32.07,6.39L51.6,93.3l-2.96.03L47.3,92.02l-.07-6.39,1.31-1.35Zm-.38,1.73-2.15.02.06,5.58,2.15-.02Z" transform="translate(-47.23 -84.26)" fill="#a6c5fe"/>
          </g>
          <g id="Grupo_1095623" data-name="Grupo 1095623" transform="translate(27.85 0.1)">
            <path id="Trazado_837993" data-name="Trazado 837993" d="M58.08,84.19l1.34,1.32.07,6.39-1.31,1.34-2.96.03-1.34-1.31-.07-6.39,1.31-1.35Zm-.38,1.73-2.15.02.06,5.58,2.15-.02Z" transform="translate(-53.81 -84.19)" fill="#a6c5fe"/>
          </g>
          <g id="Grupo_1095624" data-name="Grupo 1095624" transform="translate(34.42 0.05)">
            <path id="Trazado_837994" data-name="Trazado 837994" d="M60.38,84.16l1.73-.02.1,9.05-1.73.02Z" transform="translate(-60.38 -84.14)" fill="#a6c5fe"/>
          </g>
          <g id="Grupo_1095625" data-name="Grupo 1095625" transform="translate(37.13)">
            <path id="Trazado_837995" data-name="Trazado 837995" d="M67.36,84.09l1.34,1.32.07,6.39-1.31,1.34-2.96.03-1.34-1.31-.07-6.39,1.31-1.35Zm-.38,1.74-2.15.02.06,5.58,2.15-.02Z" transform="translate(-63.09 -84.09)" fill="#a6c5fe"/>
          </g>
        </g>
        <g id="Grupo_1095636" data-name="Grupo 1095636" transform="translate(87.3 36.66)">
          <g id="Grupo_1095627" data-name="Grupo 1095627" transform="translate(0 0.42)">
            <path id="Trazado_837996" data-name="Trazado 837996" d="M69.54,84.53l1.73-.02.1,9.05-1.73.02Z" transform="translate(-69.54 -84.51)" fill="#a6c5fe"/>
          </g>
          <g id="Grupo_1095628" data-name="Grupo 1095628" transform="translate(2.71 0.36)">
            <path id="Trazado_837997" data-name="Trazado 837997" d="M76.52,84.45l1.34,1.32.07,6.39L76.62,93.5l-2.96.03-1.34-1.31-.07-6.39,1.31-1.35Zm-.38,1.74-2.15.02.06,5.58,2.15-.02Z" transform="translate(-72.25 -84.45)" fill="#a6c5fe"/>
          </g>
          <g id="Grupo_1095629" data-name="Grupo 1095629" transform="translate(9.28 0.32)">
            <path id="Trazado_837998" data-name="Trazado 837998" d="M78.82,84.43l1.73-.02.1,9.05-1.73.02Z" transform="translate(-78.82 -84.41)" fill="#a6c5fe"/>
          </g>
          <g id="Grupo_1095630" data-name="Grupo 1095630" transform="translate(11.99 0.26)">
            <path id="Trazado_837999" data-name="Trazado 837999" d="M85.8,84.35l1.34,1.32.07,6.39L85.9,93.4l-2.96.03L81.6,92.12l-.07-6.39,1.31-1.35Zm-.38,1.74-2.15.02.06,5.58,2.15-.02Z" transform="translate(-81.53 -84.35)" fill="#a6c5fe"/>
          </g>
          <g id="Grupo_1095631" data-name="Grupo 1095631" transform="translate(18.56 0.22)">
            <path id="Trazado_838000" data-name="Trazado 838000" d="M88.1,84.33l1.73-.02.1,9.05-1.73.02Z" transform="translate(-88.1 -84.31)" fill="#a6c5fe"/>
          </g>
          <g id="Grupo_1095632" data-name="Grupo 1095632" transform="translate(21.27 0.17)">
            <path id="Trazado_838001" data-name="Trazado 838001" d="M95.08,84.26l1.34,1.32.07,6.39-1.31,1.34-2.96.03-1.34-1.31-.07-6.39,1.31-1.35Zm-.38,1.73-2.15.02.06,5.58,2.15-.02Z" transform="translate(-90.81 -84.26)" fill="#a6c5fe"/>
          </g>
          <g id="Grupo_1095633" data-name="Grupo 1095633" transform="translate(27.85 0.1)">
            <path id="Trazado_838002" data-name="Trazado 838002" d="M101.66,84.19,103,85.51l.07,6.39-1.31,1.34-2.96.03-1.34-1.31-.07-6.39,1.31-1.35Zm-.38,1.73-2.15.02.06,5.58,2.15-.02Z" transform="translate(-97.39 -84.19)" fill="#a6c5fe"/>
          </g>
          <g id="Grupo_1095634" data-name="Grupo 1095634" transform="translate(34.42 0.05)">
            <path id="Trazado_838003" data-name="Trazado 838003" d="M103.96,84.16l1.73-.02.1,9.05-1.73.02Z" transform="translate(-103.96 -84.14)" fill="#a6c5fe"/>
          </g>
          <g id="Grupo_1095635" data-name="Grupo 1095635" transform="translate(37.13)">
            <path id="Trazado_838004" data-name="Trazado 838004" d="M110.94,84.09l1.34,1.32.07,6.39-1.31,1.34-2.96.03-1.34-1.31-.07-6.39,1.31-1.35Zm-.38,1.74-2.15.02.06,5.58,2.15-.02Z" transform="translate(-106.67 -84.09)" fill="#a6c5fe"/>
          </g>
        </g>
        <g id="Grupo_1095646" data-name="Grupo 1095646" transform="translate(0 36.66)">
          <g id="Grupo_1095637" data-name="Grupo 1095637" transform="translate(0 0.42)">
            <path id="Trazado_838005" data-name="Trazado 838005" d="M-17.76,84.53l1.73-.02.1,9.05-1.73.02Z" transform="translate(17.76 -84.51)" fill="#a6c5fe"/>
          </g>
          <g id="Grupo_1095638" data-name="Grupo 1095638" transform="translate(2.72 0.36)">
            <path id="Trazado_838006" data-name="Trazado 838006" d="M-10.77,84.45l1.34,1.32.07,6.39-1.31,1.34-2.96.03-1.34-1.31-.07-6.39,1.31-1.35Zm-.39,1.74-2.15.02.06,5.58,2.15-.02Z" transform="translate(15.04 -84.45)" fill="#a6c5fe"/>
          </g>
          <g id="Grupo_1095639" data-name="Grupo 1095639" transform="translate(9.28 0.32)">
            <path id="Trazado_838007" data-name="Trazado 838007" d="M-8.48,84.43l1.73-.02.1,9.05-1.73.02Z" transform="translate(8.48 -84.41)" fill="#a6c5fe"/>
          </g>
          <g id="Grupo_1095640" data-name="Grupo 1095640" transform="translate(11.99 0.26)">
            <path id="Trazado_838008" data-name="Trazado 838008" d="M-1.49,84.35l1.34,1.32.07,6.39L-1.4,93.4l-2.96.03L-5.7,92.12l-.07-6.39,1.31-1.35Zm-.39,1.74-2.15.02.06,5.58,2.15-.02Z" transform="translate(5.77 -84.35)" fill="#a6c5fe"/>
          </g>
          <g id="Grupo_1095641" data-name="Grupo 1095641" transform="translate(18.56 0.22)">
            <path id="Trazado_838009" data-name="Trazado 838009" d="M.8,84.33l1.73-.02.1,9.05L.9,93.38Z" transform="translate(-0.8 -84.31)" fill="#a6c5fe"/>
          </g>
          <g id="Grupo_1095642" data-name="Grupo 1095642" transform="translate(21.27 0.17)">
            <path id="Trazado_838010" data-name="Trazado 838010" d="M7.79,84.26l1.34,1.32.07,6.39L7.88,93.3l-2.96.03L3.58,92.02l-.07-6.39,1.31-1.35ZM7.4,85.99l-2.15.02.06,5.58,2.15-.02Z" transform="translate(-3.51 -84.26)" fill="#a6c5fe"/>
          </g>
          <g id="Grupo_1095643" data-name="Grupo 1095643" transform="translate(27.85 0.1)">
            <path id="Trazado_838011" data-name="Trazado 838011" d="M14.36,84.19l1.34,1.32.07,6.39-1.31,1.34-2.96.03-1.34-1.31-.07-6.39,1.31-1.35Zm-.38,1.73-2.15.02.06,5.58,2.15-.02Z" transform="translate(-10.09 -84.19)" fill="#a6c5fe"/>
          </g>
          <g id="Grupo_1095644" data-name="Grupo 1095644" transform="translate(34.42 0.05)">
            <path id="Trazado_838012" data-name="Trazado 838012" d="M16.66,84.16l1.73-.02.1,9.05-1.73.02Z" transform="translate(-16.66 -84.14)" fill="#a6c5fe"/>
          </g>
          <g id="Grupo_1095645" data-name="Grupo 1095645" transform="translate(37.13)">
            <path id="Trazado_838013" data-name="Trazado 838013" d="M23.64,84.09l1.34,1.32.07,6.39-1.31,1.34-2.96.03-1.34-1.31-.07-6.39,1.31-1.35Zm-.38,1.74-2.15.02.06,5.58,2.15-.02Z" transform="translate(-19.37 -84.09)" fill="#a6c5fe"/>
          </g>
        </g>
        <g id="Grupo_1095656" data-name="Grupo 1095656" transform="translate(0 24.33)">
          <g id="Grupo_1095647" data-name="Grupo 1095647" transform="translate(0 0.41)">
            <path id="Trazado_838014" data-name="Trazado 838014" d="M-17.76,72.19l1.73-.02.1,9.05-1.73.02Z" transform="translate(17.76 -72.17)" fill="#a6c5fe"/>
          </g>
          <g id="Grupo_1095648" data-name="Grupo 1095648" transform="translate(2.72 0.36)">
            <path id="Trazado_838015" data-name="Trazado 838015" d="M-10.77,72.12l1.34,1.32.07,6.39-1.31,1.34-2.96.03-1.34-1.31-.07-6.39,1.31-1.35Zm-.39,1.74-2.15.02.06,5.58,2.15-.02Z" transform="translate(15.04 -72.12)" fill="#a6c5fe"/>
          </g>
          <g id="Grupo_1095649" data-name="Grupo 1095649" transform="translate(9.28 0.32)">
            <path id="Trazado_838016" data-name="Trazado 838016" d="M-8.48,72.1l1.73-.02.1,9.05-1.73.02Z" transform="translate(8.48 -72.08)" fill="#a6c5fe"/>
          </g>
          <g id="Grupo_1095650" data-name="Grupo 1095650" transform="translate(12 0.26)">
            <path id="Trazado_838017" data-name="Trazado 838017" d="M-1.49,72.02l1.34,1.32.07,6.39-1.31,1.34-2.96.03-1.34-1.31-.07-6.39,1.31-1.35Zm-.39,1.74-2.15.02.06,5.58,2.15-.02Z" transform="translate(5.76 -72.02)" fill="#a6c5fe"/>
          </g>
          <g id="Grupo_1095651" data-name="Grupo 1095651" transform="translate(18.56 0.22)">
            <path id="Trazado_838018" data-name="Trazado 838018" d="M.8,72l1.73-.02.1,9.05L.9,81.05Z" transform="translate(-0.8 -71.98)" fill="#a6c5fe"/>
          </g>
          <g id="Grupo_1095652" data-name="Grupo 1095652" transform="translate(21.28 0.16)">
            <path id="Trazado_838019" data-name="Trazado 838019" d="M7.79,71.92l1.34,1.32.07,6.39L7.89,80.97,4.93,81,3.59,79.69,3.52,73.3l1.31-1.35ZM7.4,73.66l-2.15.02.06,5.58,2.15-.02Z" transform="translate(-3.52 -71.92)" fill="#a6c5fe"/>
          </g>
          <g id="Grupo_1095653" data-name="Grupo 1095653" transform="translate(27.85 0.1)">
            <path id="Trazado_838020" data-name="Trazado 838020" d="M14.36,71.86l1.34,1.32.07,6.39-1.31,1.34-2.96.03-1.34-1.31-.07-6.39,1.31-1.35Zm-.38,1.73-2.15.02.06,5.58,2.15-.02Z" transform="translate(-10.09 -71.86)" fill="#a6c5fe"/>
          </g>
          <g id="Grupo_1095654" data-name="Grupo 1095654" transform="translate(34.42 0.05)">
            <path id="Trazado_838021" data-name="Trazado 838021" d="M16.66,71.83l1.73-.02.1,9.05-1.73.02Z" transform="translate(-16.66 -71.81)" fill="#a6c5fe"/>
          </g>
          <g id="Grupo_1095655" data-name="Grupo 1095655" transform="translate(37.13)">
            <path id="Trazado_838022" data-name="Trazado 838022" d="M23.64,71.76l1.34,1.32.07,6.39-1.31,1.34-2.96.03-1.34-1.31-.07-6.39,1.31-1.35Zm-.38,1.73-2.15.02.06,5.58,2.15-.02Z" transform="translate(-19.37 -71.76)" fill="#a6c5fe"/>
          </g>
        </g>
        <g id="Grupo_1095666" data-name="Grupo 1095666" transform="translate(87.43 24.12)">
          <g id="Grupo_1095657" data-name="Grupo 1095657" transform="translate(0 0.42)">
            <path id="Trazado_838023" data-name="Trazado 838023" d="M69.67,71.99l1.73-.02.1,9.05-1.73.02Z" transform="translate(-69.67 -71.97)" fill="#a6c5fe"/>
          </g>
          <g id="Grupo_1095658" data-name="Grupo 1095658" transform="translate(2.71 0.37)">
            <path id="Trazado_838024" data-name="Trazado 838024" d="M76.65,71.92l1.34,1.32.07,6.39-1.31,1.34L73.79,81l-1.34-1.31-.07-6.39,1.31-1.35Zm-.38,1.73-2.15.02.06,5.58,2.15-.02Z" transform="translate(-72.38 -71.92)" fill="#a6c5fe"/>
          </g>
          <g id="Grupo_1095659" data-name="Grupo 1095659" transform="translate(9.28 0.32)">
            <path id="Trazado_838025" data-name="Trazado 838025" d="M78.95,71.89l1.73-.02.1,9.05-1.73.02Z" transform="translate(-78.95 -71.87)" fill="#a6c5fe"/>
          </g>
          <g id="Grupo_1095660" data-name="Grupo 1095660" transform="translate(11.99 0.27)">
            <path id="Trazado_838026" data-name="Trazado 838026" d="M85.93,71.82l1.34,1.32.07,6.39-1.31,1.34-2.96.03-1.34-1.31-.07-6.39,1.31-1.35Zm-.38,1.74-2.15.02.06,5.58,2.15-.02Z" transform="translate(-81.66 -71.82)" fill="#a6c5fe"/>
          </g>
          <g id="Grupo_1095661" data-name="Grupo 1095661" transform="translate(18.56 0.23)">
            <path id="Trazado_838027" data-name="Trazado 838027" d="M88.23,71.8l1.73-.02.1,9.05-1.73.02Z" transform="translate(-88.23 -71.78)" fill="#a6c5fe"/>
          </g>
          <g id="Grupo_1095662" data-name="Grupo 1095662" transform="translate(21.27 0.17)">
            <path id="Trazado_838028" data-name="Trazado 838028" d="M95.21,71.72l1.34,1.32.07,6.39-1.31,1.34-2.96.03-1.34-1.31-.07-6.39,1.31-1.35Zm-.38,1.74-2.15.02.06,5.58,2.15-.02Z" transform="translate(-90.94 -71.72)" fill="#a6c5fe"/>
          </g>
          <g id="Grupo_1095663" data-name="Grupo 1095663" transform="translate(27.85 0.1)">
            <path id="Trazado_838029" data-name="Trazado 838029" d="M101.79,71.65l1.34,1.32.07,6.39-1.31,1.34-2.96.03-1.34-1.31-.07-6.39,1.31-1.35Zm-.38,1.74-2.15.02.06,5.58,2.15-.02Z" transform="translate(-97.52 -71.65)" fill="#a6c5fe"/>
          </g>
          <g id="Grupo_1095664" data-name="Grupo 1095664" transform="translate(34.41 0.06)">
            <path id="Trazado_838030" data-name="Trazado 838030" d="M104.08,71.63l1.73-.02.1,9.05-1.73.02Z" transform="translate(-104.08 -71.61)" fill="#a6c5fe"/>
          </g>
          <g id="Grupo_1095665" data-name="Grupo 1095665" transform="translate(37.13)">
            <path id="Trazado_838031" data-name="Trazado 838031" d="M111.07,71.55l1.34,1.32.07,6.39-1.31,1.34-2.96.03-1.34-1.31-.07-6.39,1.31-1.35Zm-.38,1.74-2.15.02.06,5.58,2.15-.02Z" transform="translate(-106.8 -71.55)" fill="#a6c5fe"/>
          </g>
        </g>
      </g>
      <g id="Grupo_1095678" data-name="Grupo 1095678" transform="translate(19.38 -2.58)">
        <g id="Grupo_1095677" data-name="Grupo 1095677">
          <g id="Grupo_1095668" data-name="Grupo 1095668" transform="translate(0 0.41)">
            <path id="Trazado_838032" data-name="Trazado 838032" d="M25.96,37.25l1.73-.02.1,9.05-1.73.02Z" transform="translate(-25.96 -37.23)" fill="#a6c5fe"/>
          </g>
          <g id="Grupo_1095669" data-name="Grupo 1095669" transform="translate(2.71 0.36)">
            <path id="Trazado_838033" data-name="Trazado 838033" d="M32.94,37.18l1.34,1.32.07,6.39-1.31,1.34-2.96.03-1.34-1.31-.07-6.39,1.31-1.35Zm-.38,1.74-2.15.02.06,5.58,2.15-.02Z" transform="translate(-28.67 -37.18)" fill="#a6c5fe"/>
          </g>
          <g id="Grupo_1095670" data-name="Grupo 1095670" transform="translate(9.28 0.32)">
            <path id="Trazado_838034" data-name="Trazado 838034" d="M35.24,37.16l1.73-.02.1,9.05-1.73.02Z" transform="translate(-35.24 -37.14)" fill="#a6c5fe"/>
          </g>
          <g id="Grupo_1095671" data-name="Grupo 1095671" transform="translate(11.99 0.26)">
            <path id="Trazado_838035" data-name="Trazado 838035" d="M42.22,37.08l1.34,1.32.07,6.39-1.31,1.34-2.96.03-1.34-1.31-.07-6.39,1.31-1.35Zm-.38,1.74-2.15.02.06,5.58,2.15-.02Z" transform="translate(-37.95 -37.08)" fill="#a6c5fe"/>
          </g>
          <g id="Grupo_1095672" data-name="Grupo 1095672" transform="translate(18.56 0.22)">
            <path id="Trazado_838036" data-name="Trazado 838036" d="M44.52,37.06l1.73-.02.1,9.05-1.73.02Z" transform="translate(-44.52 -37.04)" fill="#a6c5fe"/>
          </g>
          <g id="Grupo_1095673" data-name="Grupo 1095673" transform="translate(21.27 0.16)">
            <path id="Trazado_838037" data-name="Trazado 838037" d="M51.5,36.98l1.34,1.32.07,6.39L51.6,46.03l-2.96.03L47.3,44.75l-.07-6.39,1.31-1.35Zm-.38,1.74-2.15.02.06,5.58,2.15-.02Z" transform="translate(-47.23 -36.98)" fill="#a6c5fe"/>
          </g>
          <g id="Grupo_1095674" data-name="Grupo 1095674" transform="translate(27.85 0.1)">
            <path id="Trazado_838038" data-name="Trazado 838038" d="M58.08,36.92l1.34,1.32.07,6.39-1.31,1.34L55.22,46l-1.34-1.31-.07-6.39,1.31-1.35Zm-.38,1.73-2.15.02.06,5.58,2.15-.02Z" transform="translate(-53.81 -36.92)" fill="#a6c5fe"/>
          </g>
          <g id="Grupo_1095675" data-name="Grupo 1095675" transform="translate(34.42 0.05)">
            <path id="Trazado_838039" data-name="Trazado 838039" d="M60.38,36.89l1.73-.02.1,9.05-1.73.02Z" transform="translate(-60.38 -36.87)" fill="#a6c5fe"/>
          </g>
          <g id="Grupo_1095676" data-name="Grupo 1095676" transform="translate(37.13)">
            <path id="Trazado_838040" data-name="Trazado 838040" d="M67.36,36.82l1.34,1.32.07,6.39-1.31,1.34-2.96.03-1.34-1.31-.07-6.39,1.31-1.35Zm-.38,1.73-2.15.02.06,5.58,2.15-.02Z" transform="translate(-63.09 -36.82)" fill="#a6c5fe"/>
          </g>
        </g>
      </g>
    </g>
  </g>
  <g id="Grupo_1095774" data-name="Grupo 1095774" transform="translate(17.168 43.677)">
    <g id="Grupo_1095681" data-name="Grupo 1095681" transform="translate(95.882 167.763)">
      <path id="Trazado_838042" data-name="Trazado 838042" d="M447.09,217.31H135.44c-15.31,0-22.1,5.74-9.93,5.74h320.1C463.09,223.05,460.83,217.31,447.09,217.31Z" transform="translate(-119.25 -217.31)" fill="#00769b"/>
    </g>
    <g id="Grupo_1095682" data-name="Grupo 1095682" transform="translate(0 166.473)">
      <path id="Trazado_838043" data-name="Trazado 838043" d="M197,216.02H30.15c-6.41,0-9.26,5.56-4.16,5.56H196.38C203.71,221.59,202.76,216.02,197,216.02Z" transform="translate(-23.368 -216.02)" fill="#00769b"/>
    </g>
    <g id="Grupo_1095732" data-name="Grupo 1095732" transform="translate(47.682 57.283)">
      <g id="Grupo_1095684" data-name="Grupo 1095684" transform="translate(9.67 34.06)">
        <g id="Grupo_1095683" data-name="Grupo 1095683">
          <rect id="Rectángulo_387525" data-name="Rectángulo 387525" width="93.41" height="4.74" fill="#00769b"/>
        </g>
      </g>
      <g id="Grupo_1095699" data-name="Grupo 1095699">
        <g id="Grupo_1095686" data-name="Grupo 1095686">
          <g id="Grupo_1095685" data-name="Grupo 1095685">
            <path id="Trazado_838044" data-name="Trazado 838044" d="M175.37,106.83H79.48a8.45,8.45,0,0,0-8.43,8.43v17.19a8.45,8.45,0,0,0,8.43,8.43h95.89a8.45,8.45,0,0,0,8.43-8.43V115.26A8.45,8.45,0,0,0,175.37,106.83Z" transform="translate(-71.05 -106.83)" fill="#00c4ff"/>
          </g>
        </g>
        <g id="Grupo_1095688" data-name="Grupo 1095688" transform="translate(0.06)">
          <g id="Grupo_1095687" data-name="Grupo 1095687">
            <path id="Trazado_838045" data-name="Trazado 838045" d="M175.37,106.83h-2.65v23.05a3.568,3.568,0,0,1-3.56,3.56H71.11a8.468,8.468,0,0,0,8.37,7.44h95.89a8.45,8.45,0,0,0,8.43-8.43V115.26A8.45,8.45,0,0,0,175.37,106.83Z" transform="translate(-71.11 -106.83)" fill="#4290a8"/>
          </g>
        </g>
        <g id="Grupo_1095690" data-name="Grupo 1095690" transform="translate(21.564 12.682)">
          <g id="Grupo_1095689" data-name="Grupo 1095689" transform="translate(0 0)">
            <circle id="Elipse_11139" data-name="Elipse 11139" cx="2.89" cy="2.89" r="2.89" transform="translate(0 5.625) rotate(-76.714)" fill="#1e5af9"/>
          </g>
        </g>
        <g id="Grupo_1095692" data-name="Grupo 1095692" transform="translate(34.333 12.681)">
          <g id="Grupo_1095691" data-name="Grupo 1095691" transform="translate(0 0)">
            <circle id="Elipse_11140" data-name="Elipse 11140" cx="2.89" cy="2.89" r="2.89" transform="translate(0 5.625) rotate(-76.714)" fill="#ffdfe7"/>
          </g>
        </g>
        <g id="Grupo_1095694" data-name="Grupo 1095694" transform="translate(47.102 12.68)">
          <g id="Grupo_1095693" data-name="Grupo 1095693" transform="translate(0 0)">
            <circle id="Elipse_11141" data-name="Elipse 11141" cx="2.89" cy="2.89" r="2.89" transform="translate(0 5.625) rotate(-76.714)" fill="#1e5af9"/>
          </g>
        </g>
        <g id="Grupo_1095696" data-name="Grupo 1095696" transform="translate(7.73 4)">
          <g id="Grupo_1095695" data-name="Grupo 1095695">
            <path id="Trazado_838046" data-name="Trazado 838046" d="M106.79,112.63H79.68a.9.9,0,1,1,0-1.8h27.11a.9.9,0,1,1,0,1.8Z" transform="translate(-78.78 -110.83)" fill="#fff"/>
          </g>
        </g>
        <g id="Grupo_1095698" data-name="Grupo 1095698" transform="translate(40.65 4)">
          <g id="Grupo_1095697" data-name="Grupo 1095697">
            <path id="Trazado_838047" data-name="Trazado 838047" d="M129.76,112.63H112.6a.9.9,0,0,1,0-1.8h17.16a.9.9,0,1,1,0,1.8Z" transform="translate(-111.7 -110.83)" fill="#fff"/>
          </g>
        </g>
      </g>
      <g id="Grupo_1095714" data-name="Grupo 1095714" transform="translate(0 38.8)">
        <g id="Grupo_1095701" data-name="Grupo 1095701">
          <g id="Grupo_1095700" data-name="Grupo 1095700">
            <path id="Trazado_838048" data-name="Trazado 838048" d="M175.37,145.63H79.48a8.45,8.45,0,0,0-8.43,8.43v17.19a8.45,8.45,0,0,0,8.43,8.43h95.89a8.45,8.45,0,0,0,8.43-8.43V154.06A8.45,8.45,0,0,0,175.37,145.63Z" transform="translate(-71.05 -145.63)" fill="#00c4ff"/>
          </g>
        </g>
        <g id="Grupo_1095703" data-name="Grupo 1095703" transform="translate(0.06)">
          <g id="Grupo_1095702" data-name="Grupo 1095702">
            <path id="Trazado_838049" data-name="Trazado 838049" d="M175.37,145.63h-2.65v23.05a3.568,3.568,0,0,1-3.56,3.56H71.11a8.468,8.468,0,0,0,8.37,7.44h95.89a8.45,8.45,0,0,0,8.43-8.43V154.06A8.45,8.45,0,0,0,175.37,145.63Z" transform="translate(-71.11 -145.63)" fill="#4290a8"/>
          </g>
        </g>
        <g id="Grupo_1095705" data-name="Grupo 1095705" transform="translate(22.15 13.26)">
          <g id="Grupo_1095704" data-name="Grupo 1095704">
            <circle id="Elipse_11142" data-name="Elipse 11142" cx="2.89" cy="2.89" r="2.89" fill="#1e5af9"/>
          </g>
        </g>
        <g id="Grupo_1095707" data-name="Grupo 1095707" transform="translate(34.92 13.26)">
          <g id="Grupo_1095706" data-name="Grupo 1095706">
            <circle id="Elipse_11143" data-name="Elipse 11143" cx="2.89" cy="2.89" r="2.89" fill="#1e5af9"/>
          </g>
        </g>
        <g id="Grupo_1095709" data-name="Grupo 1095709" transform="translate(47.69 13.26)">
          <g id="Grupo_1095708" data-name="Grupo 1095708">
            <circle id="Elipse_11144" data-name="Elipse 11144" cx="2.89" cy="2.89" r="2.89" fill="#ffdfe7"/>
          </g>
        </g>
        <g id="Grupo_1095711" data-name="Grupo 1095711" transform="translate(7.73 4)">
          <g id="Grupo_1095710" data-name="Grupo 1095710">
            <path id="Trazado_838050" data-name="Trazado 838050" d="M106.79,151.43H79.68a.9.9,0,1,1,0-1.8h27.11a.9.9,0,1,1,0,1.8Z" transform="translate(-78.78 -149.63)" fill="#fff"/>
          </g>
        </g>
        <g id="Grupo_1095713" data-name="Grupo 1095713" transform="translate(40.65 4)">
          <g id="Grupo_1095712" data-name="Grupo 1095712">
            <path id="Trazado_838051" data-name="Trazado 838051" d="M129.76,151.43H112.6a.9.9,0,0,1,0-1.8h17.16a.9.9,0,1,1,0,1.8Z" transform="translate(-111.7 -149.63)" fill="#fff"/>
          </g>
        </g>
      </g>
      <g id="Grupo_1095716" data-name="Grupo 1095716" transform="translate(9.67 72.86)">
        <g id="Grupo_1095715" data-name="Grupo 1095715">
          <rect id="Rectángulo_387526" data-name="Rectángulo 387526" width="93.41" height="4.74" fill="#00769b"/>
        </g>
      </g>
      <g id="Grupo_1095731" data-name="Grupo 1095731" transform="translate(0 77.6)">
        <g id="Grupo_1095718" data-name="Grupo 1095718">
          <g id="Grupo_1095717" data-name="Grupo 1095717">
            <path id="Trazado_838052" data-name="Trazado 838052" d="M175.37,184.43H79.48a8.45,8.45,0,0,0-8.43,8.43v17.19a8.45,8.45,0,0,0,8.43,8.43h95.89a8.45,8.45,0,0,0,8.43-8.43V192.86A8.45,8.45,0,0,0,175.37,184.43Z" transform="translate(-71.05 -184.43)" fill="#00c4ff"/>
          </g>
        </g>
        <g id="Grupo_1095720" data-name="Grupo 1095720" transform="translate(0.06)">
          <g id="Grupo_1095719" data-name="Grupo 1095719">
            <path id="Trazado_838053" data-name="Trazado 838053" d="M175.37,184.43h-2.65v23.05a3.568,3.568,0,0,1-3.56,3.56H71.11a8.468,8.468,0,0,0,8.37,7.44h95.89a8.45,8.45,0,0,0,8.43-8.43V192.86A8.45,8.45,0,0,0,175.37,184.43Z" transform="translate(-71.11 -184.43)" fill="#4290a8"/>
          </g>
        </g>
        <g id="Grupo_1095722" data-name="Grupo 1095722" transform="translate(22.15 13.26)">
          <g id="Grupo_1095721" data-name="Grupo 1095721">
            <circle id="Elipse_11145" data-name="Elipse 11145" cx="2.89" cy="2.89" r="2.89" fill="#ffdfe7"/>
          </g>
        </g>
        <g id="Grupo_1095724" data-name="Grupo 1095724" transform="translate(34.92 13.26)">
          <g id="Grupo_1095723" data-name="Grupo 1095723">
            <circle id="Elipse_11146" data-name="Elipse 11146" cx="2.89" cy="2.89" r="2.89" fill="#1e5af9"/>
          </g>
        </g>
        <g id="Grupo_1095726" data-name="Grupo 1095726" transform="translate(47.69 13.26)">
          <g id="Grupo_1095725" data-name="Grupo 1095725">
            <circle id="Elipse_11147" data-name="Elipse 11147" cx="2.89" cy="2.89" r="2.89" fill="#1e5af9"/>
          </g>
        </g>
        <g id="Grupo_1095728" data-name="Grupo 1095728" transform="translate(7.73 4)">
          <g id="Grupo_1095727" data-name="Grupo 1095727">
            <path id="Trazado_838054" data-name="Trazado 838054" d="M106.79,190.23H79.68a.9.9,0,1,1,0-1.8h27.11a.9.9,0,1,1,0,1.8Z" transform="translate(-78.78 -188.43)" fill="#fff"/>
          </g>
        </g>
        <g id="Grupo_1095730" data-name="Grupo 1095730" transform="translate(40.65 4)">
          <g id="Grupo_1095729" data-name="Grupo 1095729">
            <path id="Trazado_838055" data-name="Trazado 838055" d="M129.76,190.23H112.6a.9.9,0,1,1,0-1.8h17.16a.9.9,0,1,1,0,1.8Z" transform="translate(-111.7 -188.43)" fill="#fff"/>
          </g>
        </g>
      </g>
    </g>
    <g id="Grupo_1095755" data-name="Grupo 1095755" transform="translate(132.102 33.233)">
      <g id="Grupo_1095734" data-name="Grupo 1095734">
        <g id="Grupo_1095733" data-name="Grupo 1095733">
          <path id="Trazado_838056" data-name="Trazado 838056" d="M378.56,149.43h-5.51a41.2,41.2,0,0,0-67.44-31.76,55.694,55.694,0,0,0-106.26,31.76h-9.11a34.877,34.877,0,0,0-34.77,34.77h0a34.877,34.877,0,0,0,34.77,34.77H378.56a34.877,34.877,0,0,0,34.77-34.77h0A34.87,34.87,0,0,0,378.56,149.43Z" transform="translate(-155.47 -82.78)" fill="#039"/>
        </g>
      </g>
      <g id="Grupo_1095735" data-name="Grupo 1095735" transform="translate(176.38 25.45)">
        <rect id="Rectángulo_387527" data-name="Rectángulo 387527" width="13.55" height="7.62" fill="#50456d"/>
      </g>
      <g id="Grupo_1095736" data-name="Grupo 1095736" transform="translate(95.35)">
        <path id="Trazado_838057" data-name="Trazado 838057" d="M253.94,82.78H267.5V93.7H250.82Z" transform="translate(-250.82 -82.78)" fill="#50456d"/>
      </g>
      <g id="Grupo_1095738" data-name="Grupo 1095738" transform="translate(13.55)">
        <g id="Grupo_1095737" data-name="Grupo 1095737">
          <path id="Trazado_838058" data-name="Trazado 838058" d="M392.11,149.43H386.6a41.2,41.2,0,0,0-67.44-31.76A55.694,55.694,0,0,0,212.9,149.43h-9.11a34.877,34.877,0,0,0-34.77,34.77h0a34.877,34.877,0,0,0,34.77,34.77H392.11a34.877,34.877,0,0,0,34.77-34.77h0A34.87,34.87,0,0,0,392.11,149.43Z" transform="translate(-169.02 -82.78)" fill="#1e5af9"/>
        </g>
      </g>
      <g id="Grupo_1095741" data-name="Grupo 1095741" transform="translate(144.94 47.52)">
        <g id="Grupo_1095740" data-name="Grupo 1095740">
          <g id="Grupo_1095739" data-name="Grupo 1095739">
            <path id="Trazado_838059" data-name="Trazado 838059" d="M343.15,179.63V130.3H316.8v49.33H300.41l29.56,29.56,29.57-29.56Z" transform="translate(-300.41 -130.3)" fill="#dfeff3"/>
          </g>
        </g>
      </g>
      <g id="Grupo_1095746" data-name="Grupo 1095746" transform="translate(169.92 47.52)">
        <g id="Grupo_1095743" data-name="Grupo 1095743" transform="translate(8.6)">
          <g id="Grupo_1095742" data-name="Grupo 1095742">
            <rect id="Rectángulo_387528" data-name="Rectángulo 387528" width="9.16" height="49.32" fill="#a6c5fe"/>
          </g>
        </g>
        <g id="Grupo_1095745" data-name="Grupo 1095745" transform="translate(0 49.33)">
          <g id="Grupo_1095744" data-name="Grupo 1095744">
            <path id="Trazado_838060" data-name="Trazado 838060" d="M350.38,179.63l-24.99,24.98,4.58,4.58,29.57-29.56Z" transform="translate(-325.39 -179.63)" fill="#a6c5fe"/>
          </g>
        </g>
      </g>
      <g id="Grupo_1095754" data-name="Grupo 1095754" transform="translate(85.8 51.69)">
        <g id="Grupo_1095748" data-name="Grupo 1095748">
          <g id="Grupo_1095747" data-name="Grupo 1095747">
            <path id="Trazado_838061" data-name="Trazado 838061" d="M300.41,164.04l-29.57-29.57-29.57,29.57h16.39v54.93h26.36V164.04Z" transform="translate(-241.27 -134.47)" fill="#dfeff3"/>
          </g>
        </g>
        <g id="Grupo_1095753" data-name="Grupo 1095753" transform="translate(24.52)">
          <g id="Grupo_1095750" data-name="Grupo 1095750" transform="translate(8.13 29.57)">
            <g id="Grupo_1095749" data-name="Grupo 1095749">
              <rect id="Rectángulo_387529" data-name="Rectángulo 387529" width="10.1" height="54.93" fill="#a6c5fe"/>
            </g>
          </g>
          <g id="Grupo_1095752" data-name="Grupo 1095752">
            <g id="Grupo_1095751" data-name="Grupo 1095751">
              <path id="Trazado_838062" data-name="Trazado 838062" d="M270.84,134.47l-5.05,5.05,24.52,24.52h10.1Z" transform="translate(-265.79 -134.47)" fill="#a6c5fe"/>
            </g>
          </g>
        </g>
      </g>
    </g>
    <g id="Grupo_1095773" data-name="Grupo 1095773" transform="translate(178.733)">
      <g id="Grupo_1095756" data-name="Grupo 1095756" transform="translate(5.127 2.643)">
        <path id="Trazado_838063" data-name="Trazado 838063" d="M269.03,60.6a2.778,2.778,0,0,0-3.2-2.44c-9.27,2.56-20.09,1.79-27.5-5.29a2.465,2.465,0,0,0-2.13-.64,1.857,1.857,0,0,0-1.22.78c-5.69,8.09-16.71,9.09-25.3,7.47a2.2,2.2,0,0,0-2.41,2.67c2.13,11.16,3.88,23.13,7.14,34.3,2.97,10.18,7.3,21.15,15.55,27.39,2.81,2.13,6.28,3.88,9.72,4.04l.18-.03c3.71-.53,7.35-2.59,10.4-4.86,8.91-6.61,14.65-17.43,17.46-28.8C270.49,83.96,270.37,71.98,269.03,60.6Z" transform="translate(-207.227 -52.19)" fill="#7c3eff"/>
      </g>
      <g id="Grupo_1095772" data-name="Grupo 1095772">
        <g id="Grupo_1095771" data-name="Grupo 1095771">
          <g id="Grupo_1095763" data-name="Grupo 1095763">
            <g id="Grupo_1095762" data-name="Grupo 1095762">
              <g id="Grupo_1095761" data-name="Grupo 1095761">
                <g id="Grupo_1095760" data-name="Grupo 1095760">
                  <g id="Grupo_1095759" data-name="Grupo 1095759">
                    <g id="Grupo_1095758" data-name="Grupo 1095758">
                      <g id="Grupo_1095757" data-name="Grupo 1095757">
                        <path id="Trazado_838064" data-name="Trazado 838064" d="M236.49,131.6c-6.04-.24-11.68-4.43-15.67-9.11-4.86-5.71-7.96-13.16-10.33-20.52-4.01-12.41-6.3-25.69-8.32-38.55a5.043,5.043,0,0,1,1.05-4.13,4.113,4.113,0,0,1,3.75-1.23c.13.03,1.49-.19,1.62-.17,7.56,1.44,16.65,1.13,21.59-6.47a3.869,3.869,0,0,1,3.05-1.71,19.952,19.952,0,0,1,2.99-.13c.87.22-.02.96.68,1.57h0c7.02,6.44,16.95,7.12,25.26,4.63,1.37-.41,4.18-.72,5.36.13,1.22.88.86,3.2,1.08,4.77,1.83,12.81,1.43,26.58-2.44,39-2.49,8-6.39,15.58-11.89,21.44-4.63,4.93-8.37,9.59-15.01,10.38-.05,0-2.6.11-2.65.12A.254.254,0,0,0,236.49,131.6Zm14.56-69.45a27.735,27.735,0,0,1-16.85-7.31c-3.42,5.11-8.82,7.69-14.26,8.59a38.1,38.1,0,0,1-13.12-.29c2.08,12.45,4.19,25.08,8.12,37.01,2.15,6.52,4.92,13.15,9.19,18.21a23.674,23.674,0,0,0,8.96,6.93,15.047,15.047,0,0,0,4.06,1.08c5.37-.89,10.29-4.75,14.05-8.81,13.16-14.23,15.24-37.27,12.71-56.78A37.589,37.589,0,0,1,251.05,62.15Z" transform="translate(-202.101 -49.547)" fill="#48219b"/>
                      </g>
                    </g>
                  </g>
                </g>
              </g>
            </g>
          </g>
          <g id="Grupo_1095770" data-name="Grupo 1095770" transform="translate(2.77 0.034)">
            <g id="Grupo_1095769" data-name="Grupo 1095769">
              <g id="Grupo_1095768" data-name="Grupo 1095768">
                <g id="Grupo_1095767" data-name="Grupo 1095767">
                  <g id="Grupo_1095766" data-name="Grupo 1095766">
                    <g id="Grupo_1095765" data-name="Grupo 1095765">
                      <g id="Grupo_1095764" data-name="Grupo 1095764">
                        <path id="Trazado_838065" data-name="Trazado 838065" d="M239.26,131.48c-6.04-.24-11.68-4.43-15.67-9.11-4.86-5.71-7.96-13.16-10.33-20.52-4.01-12.41-6.3-25.69-8.32-38.55a5.043,5.043,0,0,1,1.05-4.13,4.113,4.113,0,0,1,3.75-1.23c7.6,1.54,18.18,1.1,23.22-6.63a3.869,3.869,0,0,1,3.05-1.71,5.1,5.1,0,0,1,3.67,1.44h0c7.02,6.44,16.95,7.12,25.26,4.63a4.884,4.884,0,0,1,4.11.91,6.124,6.124,0,0,1,2.33,3.99c1.83,12.81,1.43,26.58-2.44,39-2.49,8-6.39,15.58-11.89,21.44-4.63,4.93-10.9,9.69-17.54,10.49-.05,0-.07.01-.12.01A.208.208,0,0,0,239.26,131.48Zm14.56-69.45a27.735,27.735,0,0,1-16.85-7.31c-3.42,5.11-8.82,7.69-14.26,8.59a38.1,38.1,0,0,1-13.12-.29c2.08,12.45,4.19,25.08,8.12,37.01,2.15,6.52,4.92,13.15,9.19,18.21a23.674,23.674,0,0,0,8.96,6.93,15.046,15.046,0,0,0,4.06,1.08c5.37-.89,10.29-4.75,14.05-8.81,13.16-14.23,15.24-37.27,12.71-56.78A37.1,37.1,0,0,1,253.82,62.03Z" transform="translate(-204.871 -49.582)" fill="#d1bbff"/>
                      </g>
                    </g>
                  </g>
                </g>
              </g>
            </g>
          </g>
        </g>
      </g>
    </g>
  </g>
  <g id="Grupo_1095778" data-name="Grupo 1095778" transform="translate(400.03 54.6)">
    <g id="Grupo_1095775" data-name="Grupo 1095775" transform="translate(29.83)">
      <path id="Trazado_838066" data-name="Trazado 838066" d="M467.66,75.21h-3.28a11.6,11.6,0,0,0-1.86-4.49l2.32-2.32a2.125,2.125,0,0,0,0-2.99h0a2.125,2.125,0,0,0-2.99,0l-2.32,2.32a11.668,11.668,0,0,0-4.49-1.86V62.59a2.128,2.128,0,0,0-2.12-2.12h0a2.128,2.128,0,0,0-2.12,2.12v3.28a11.6,11.6,0,0,0-4.49,1.86l-2.32-2.32a2.125,2.125,0,0,0-2.99,0h0a2.125,2.125,0,0,0,0,2.99l2.32,2.32a11.667,11.667,0,0,0-1.86,4.49h-3.28a2.128,2.128,0,0,0-2.12,2.12h0a2.128,2.128,0,0,0,2.12,2.12h3.28a11.6,11.6,0,0,0,1.86,4.49L441,86.25a2.114,2.114,0,0,0,2.99,2.99l2.32-2.32a11.668,11.668,0,0,0,4.49,1.86v3.28a2.12,2.12,0,1,0,4.24,0V88.78a11.6,11.6,0,0,0,4.49-1.86l2.32,2.32a2.114,2.114,0,1,0,2.99-2.99l-2.32-2.32a11.668,11.668,0,0,0,1.86-4.49h3.28a2.115,2.115,0,1,0,0-4.23Z" transform="translate(-436.06 -60.47)" fill="#1e5af9"/>
    </g>
    <g id="Grupo_1095777" data-name="Grupo 1095777" transform="translate(0 13.32)">
      <g id="Grupo_1095776" data-name="Grupo 1095776">
        <path id="Trazado_838067" data-name="Trazado 838067" d="M451.01,106.26l1.9-7.64-4.77-1.19c.01-.19.01-.38.01-.57,0-.63-.03-1.25-.09-1.87l4.67-1.52-2.43-7.48-4.68,1.52a18.032,18.032,0,0,0-2.16-2.97l2.99-4.57-6.58-4.31-2.77,4.22a19.108,19.108,0,0,0-3.59-1.18V73.79h-7.87V78.7a18.6,18.6,0,0,0-2.35.67l-2.6-4.17-6.67,4.17,2.61,4.18A18.62,18.62,0,0,0,415,85.36l-4.43-2.16-3.45,7.07,4.42,2.15a18.952,18.952,0,0,0-.42,2.41l-4.89.51.82,7.83,4.89-.51a17.824,17.824,0,0,0,.92,2.26l-3.87,3.03,4.85,6.2,3.88-3.03a18.764,18.764,0,0,0,1.97,1.44l-1.68,4.62,7.4,2.69,1.68-4.62a17.854,17.854,0,0,0,2.44.17l1.02,4.81,7.7-1.64-1.02-4.81a18.423,18.423,0,0,0,2.15-1.15l3.42,3.54,5.66-5.47-3.42-3.54a18.359,18.359,0,0,0,1.22-2.11Zm-21.43-20.1a10.7,10.7,0,1,1-10.7,10.7A10.712,10.712,0,0,1,429.58,86.16Z" transform="translate(-406.23 -73.79)" fill="#00c4ff"/>
      </g>
    </g>
  </g>
  <g id="Grupo_1095781" data-name="Grupo 1095781" transform="translate(214.52 68.767)">
    <g id="Grupo_1095779" data-name="Grupo 1095779" transform="translate(8.3)">
      <path id="Trazado_838068" data-name="Trazado 838068" d="M233.27,82.66a10.028,10.028,0,0,1,3.96-1.86,10.147,10.147,0,0,1,4.25,0,9.836,9.836,0,0,1,4.47,2.28,9.977,9.977,0,0,1,2.9,4.53c.06.21.12.43.17.64-.76-.02-1.51-.03-2.27-.05-.11,0-.22,0-.33-.01.32.35,5.26,5.78,5.64,6.19l.02.02s4.99-5.04,5.53-5.58l.39-.39c-.86-.02-1.72-.04-2.58-.05-.12,0-.23,0-.35-.01a15.748,15.748,0,0,0-1.1-4.03,15.982,15.982,0,0,0-2.09-3.57,16.191,16.191,0,0,0-2.9-2.89,15.457,15.457,0,0,0-3.57-2.05,15.933,15.933,0,0,0-7.92-1.08,16,16,0,0,0-3.8.93,15.559,15.559,0,0,0-3.57,1.92c-.38.27-.74.56-1.1.87l3.87,4.49C233.02,82.86,233.14,82.76,233.27,82.66Z" transform="translate(-229.02 -74.637)" fill="#48219b"/>
    </g>
    <g id="Grupo_1095780" data-name="Grupo 1095780" transform="translate(0 11.933)">
      <path id="Trazado_838069" data-name="Trazado 838069" d="M245.84,98c-.15.13-.31.26-.46.38a9.953,9.953,0,0,1-12.5-.38,9.988,9.988,0,0,1-3.02-4.63c-.06-.21-.12-.43-.17-.64.76.02,2.49.05,2.6.05-.32-.35-5.26-5.78-5.64-6.19l-.02-.02c-.33.34-5.48,5.54-5.89,5.95l-.02.02c.86.02,2.81.06,2.93.06a15.838,15.838,0,0,0,7.13,11.22,15.757,15.757,0,0,0,5.94,2.3A15.839,15.839,0,0,0,249.08,103c.21-.16.41-.33.62-.5l.01-.01Z" transform="translate(-220.72 -86.57)" fill="#48219b"/>
    </g>
  </g>
  <g id="Grupo_1095784" data-name="Grupo 1095784" transform="translate(217.07 68.767)">
    <g id="Grupo_1095782" data-name="Grupo 1095782" transform="translate(8.3)">
      <path id="Trazado_838070" data-name="Trazado 838070" d="M235.82,82.66a10.028,10.028,0,0,1,3.96-1.86,10.147,10.147,0,0,1,4.25,0,9.836,9.836,0,0,1,4.47,2.28,9.977,9.977,0,0,1,2.9,4.53c.06.21.12.43.17.64-.76-.02-1.51-.03-2.27-.05-.11,0-.22,0-.33-.01.32.35,5.26,5.78,5.64,6.19l.02.02s4.99-5.04,5.53-5.58l.39-.39c-.86-.02-1.72-.04-2.58-.05-.12,0-.23,0-.35-.01a15.748,15.748,0,0,0-1.1-4.03,15.981,15.981,0,0,0-2.09-3.57,16.191,16.191,0,0,0-2.9-2.89,15.457,15.457,0,0,0-3.57-2.05,15.933,15.933,0,0,0-7.92-1.08,16,16,0,0,0-3.8.93,15.559,15.559,0,0,0-3.57,1.92c-.38.27-.74.56-1.1.87l3.87,4.49C235.57,82.86,235.69,82.76,235.82,82.66Z" transform="translate(-231.57 -74.637)" fill="#fff"/>
    </g>
    <g id="Grupo_1095783" data-name="Grupo 1095783" transform="translate(0 11.933)">
      <path id="Trazado_838071" data-name="Trazado 838071" d="M248.39,98c-.15.13-.31.26-.46.38a9.953,9.953,0,0,1-12.5-.38,9.988,9.988,0,0,1-3.02-4.63c-.06-.21-.12-.43-.17-.64.76.02,2.49.05,2.6.05-.32-.35-5.26-5.78-5.64-6.19l-.02-.02c-.33.34-5.48,5.54-5.89,5.95l-.02.02c.86.02,2.81.06,2.93.06a15.838,15.838,0,0,0,7.13,11.22,15.757,15.757,0,0,0,5.94,2.3A15.839,15.839,0,0,0,251.63,103c.21-.16.41-.33.62-.5l.01-.01Z" transform="translate(-223.27 -86.57)" fill="#fff"/>
    </g>
  </g>
  <g id="Grupo_1095788" data-name="Grupo 1095788" transform="translate(43.15 23.36)">
    <g id="Grupo_1095785" data-name="Grupo 1095785" transform="translate(0 47.01)">
      <path id="Trazado_838072" data-name="Trazado 838072" d="M50.21,80.16a.86.86,0,0,1-.86-.86V77.1a.86.86,0,1,1,1.72,0v2.2A.854.854,0,0,1,50.21,80.16Z" transform="translate(-49.35 -76.24)" fill="#53619b"/>
    </g>
    <g id="Grupo_1095786" data-name="Grupo 1095786">
      <path id="Trazado_838073" data-name="Trazado 838073" d="M50.21,69.75a.86.86,0,0,1-.86-.86V64.52a.86.86,0,0,1,1.72,0v4.37A.854.854,0,0,1,50.21,69.75Zm0-12.6a.86.86,0,0,1-.86-.86V51.92a.86.86,0,1,1,1.72,0v4.37A.854.854,0,0,1,50.21,57.15ZM252.26,45.27a.86.86,0,0,1-.86-.86V40.04a.86.86,0,1,1,1.72,0v4.37A.86.86,0,0,1,252.26,45.27ZM50.98,44.63a.672.672,0,0,1-.24-.04.867.867,0,0,1-.59-1.07,20.149,20.149,0,0,1,1.78-4.2.866.866,0,1,1,1.51.85,18.316,18.316,0,0,0-1.63,3.84A.855.855,0,0,1,50.98,44.63Zm7.15-10.09a.845.845,0,0,1-.7-.36.873.873,0,0,1,.19-1.21,20.473,20.473,0,0,1,3.98-2.23.863.863,0,0,1,.67,1.59,18.258,18.258,0,0,0-3.63,2.04A.824.824,0,0,1,58.13,34.54Zm191.88-1.27a.888.888,0,0,1-.62-.26,6.993,6.993,0,0,0-3.34-1.89.863.863,0,0,1,.4-1.68,8.629,8.629,0,0,1,4.18,2.36.865.865,0,0,1-.62,1.47Zm-11.96-2.32h-4.37a.86.86,0,0,1,0-1.72h4.37a.86.86,0,0,1,0,1.72Zm-12.59,0h-4.37a.86.86,0,0,1,0-1.72h4.37a.86.86,0,0,1,0,1.72Zm-12.6,0h-4.37a.86.86,0,0,1,0-1.72h4.37a.86.86,0,0,1,0,1.72Zm-12.59,0H195.9a.86.86,0,0,1,0-1.72h4.37a.86.86,0,0,1,0,1.72Zm-12.59,0h-4.37a.86.86,0,0,1,0-1.72h4.37a.86.86,0,0,1,0,1.72Zm-12.6,0h-4.37a.86.86,0,1,1,0-1.72h4.37a.86.86,0,0,1,0,1.72Zm-12.59,0h-4.37a.86.86,0,1,1,0-1.72h4.37a.86.86,0,0,1,0,1.72Zm-12.6,0h-4.37a.86.86,0,1,1,0-1.72h4.37a.86.86,0,0,1,0,1.72Zm-12.59,0h-4.37a.86.86,0,0,1,0-1.72h4.37a.86.86,0,1,1,0,1.72Zm-12.59,0h-4.37a.86.86,0,0,1,0-1.72h4.37a.86.86,0,0,1,0,1.72Zm-12.6,0h-4.37a.86.86,0,0,1,0-1.72h4.37a.86.86,0,0,1,0,1.72Zm-12.59,0H95.15a.86.86,0,0,1,0-1.72h4.37a.86.86,0,0,1,0,1.72Zm-12.59,0H82.56a.86.86,0,0,1,0-1.72h4.37a.86.86,0,0,1,0,1.72Zm-12.6,0H69.96a.86.86,0,0,1,0-1.72h4.37a.86.86,0,0,1,0,1.72Z" transform="translate(-49.35 -29.23)" fill="#53619b"/>
    </g>
    <g id="Grupo_1095787" data-name="Grupo 1095787" transform="translate(202.05 22.56)">
      <path id="Trazado_838074" data-name="Trazado 838074" d="M252.26,55.71a.86.86,0,0,1-.86-.86v-2.2a.86.86,0,1,1,1.72,0v2.2A.866.866,0,0,1,252.26,55.71Z" transform="translate(-251.4 -51.79)" fill="#53619b"/>
    </g>
  </g>
  <g id="Grupo_1095789" data-name="Grupo 1095789" transform="translate(122.14 26.55)">
    <path id="Trazado_838075" data-name="Trazado 838075" d="M129.2,76.45a.86.86,0,0,1-.86-.86V71.2a.86.86,0,1,1,1.72,0v4.39A.847.847,0,0,1,129.2,76.45Zm0-12.64a.86.86,0,0,1-.86-.86V58.56a.86.86,0,1,1,1.72,0v4.39A.854.854,0,0,1,129.2,63.81Zm0-12.64a.86.86,0,0,1-.86-.86V45.92a.86.86,0,1,1,1.72,0v4.39A.854.854,0,0,1,129.2,51.17Zm0-12.64a.86.86,0,0,1-.86-.86V33.28a.86.86,0,1,1,1.72,0v4.39A.854.854,0,0,1,129.2,38.53Z" transform="translate(-128.34 -32.42)" fill="#53619b"/>
  </g>
  <g id="Grupo_1095798" data-name="Grupo 1095798" transform="translate(98.955 6.49)">
    <g id="Grupo_1095792" data-name="Grupo 1095792">
      <g id="Grupo_1095791" data-name="Grupo 1095791">
        <g id="Grupo_1095790" data-name="Grupo 1095790">
          <path id="Trazado_838076" data-name="Trazado 838076" d="M158.69,20.97s-15.46,2.1-26.63-8.61c-11.18,10.71-26.63,8.61-26.63,8.61s-1.9,8.93,4.28,26.81,22.35,24.29,22.35,24.29,16.17-6.41,22.35-24.29S158.69,20.97,158.69,20.97Z" transform="translate(-105.155 -12.36)" fill="#005afd"/>
        </g>
      </g>
    </g>
    <g id="Grupo_1095797" data-name="Grupo 1095797" transform="translate(17.285 13.78)">
      <g id="Grupo_1095793" data-name="Grupo 1095793">
        <path id="Trazado_838077" data-name="Trazado 838077" d="M140.83,41.3h-1.82V33.09a6.95,6.95,0,0,0-13.9,0V41.3h-.92a1.746,1.746,0,0,0-1.75,1.75v5.63a9.66,9.66,0,0,0,9.63,9.63h0a9.66,9.66,0,0,0,9.63-9.63V42.15A.873.873,0,0,0,140.83,41.3Zm-13.55,0V33.09a4.79,4.79,0,1,1,9.58,0V41.3Z" transform="translate(-122.44 -26.14)" fill="#fff"/>
      </g>
      <g id="Grupo_1095796" data-name="Grupo 1095796" transform="translate(8.182 20.007)">
        <g id="Grupo_1095795" data-name="Grupo 1095795">
          <g id="Grupo_1095794" data-name="Grupo 1095794">
            <path id="Trazado_838078" data-name="Trazado 838078" d="M132.94,48.33a1.265,1.265,0,1,0-1.75,0,.5.5,0,0,1,.14.48l-.7,3.36a.365.365,0,0,0,.36.44h2.14a.365.365,0,0,0,.36-.44l-.7-3.36A.526.526,0,0,1,132.94,48.33Z" transform="translate(-130.622 -46.147)" fill="#50456d"/>
          </g>
        </g>
      </g>
    </g>
  </g>
  <g id="Grupo_1095799" data-name="Grupo 1095799" transform="translate(281.59 20.17)">
    <path id="Trazado_838079" data-name="Trazado 838079" d="M288.65,82.59a.86.86,0,0,1-.86-.86V77.34a.86.86,0,1,1,1.72,0v4.39A.854.854,0,0,1,288.65,82.59Zm0-12.64a.86.86,0,0,1-.86-.86V64.7a.86.86,0,1,1,1.72,0v4.39A.854.854,0,0,1,288.65,69.95Zm0-12.65a.86.86,0,0,1-.86-.86V52.05a.86.86,0,1,1,1.72,0v4.39A.847.847,0,0,1,288.65,57.3Zm158.33-1.04a.86.86,0,0,1-.86-.86V51a.86.86,0,1,1,1.72,0v4.39A.856.856,0,0,1,446.98,56.26ZM288.65,44.66a.86.86,0,0,1-.86-.86V39.41a.86.86,0,1,1,1.72,0V43.8A.854.854,0,0,1,288.65,44.66Zm158.33-1.05a.86.86,0,0,1-.86-.86V38.36a.86.86,0,1,1,1.72,0v4.39A.847.847,0,0,1,446.98,43.61ZM290.79,32.47a.828.828,0,0,1-.5-.16.866.866,0,0,1-.2-1.21,12.161,12.161,0,0,1,3.42-3.21.863.863,0,0,1,.92,1.46,10.444,10.444,0,0,0-2.94,2.76A.858.858,0,0,1,290.79,32.47Zm153.41-.82a.849.849,0,0,1-.65-.3,10.643,10.643,0,0,0-3.18-2.48.863.863,0,1,1,.78-1.54,12.364,12.364,0,0,1,3.7,2.88.868.868,0,0,1-.08,1.22A.835.835,0,0,1,444.2,31.65Zm-11.5-3.89h-4.39a.86.86,0,1,1,0-1.72h4.39a.86.86,0,0,1,0,1.72Zm-12.64,0h-4.39a.86.86,0,0,1,0-1.72h4.39a.86.86,0,0,1,0,1.72Zm-12.64,0h-4.39a.86.86,0,0,1,0-1.72h4.39a.86.86,0,0,1,0,1.72Zm-12.64,0h-4.39a.86.86,0,0,1,0-1.72h4.39a.86.86,0,0,1,0,1.72Zm-12.65,0h-4.39a.86.86,0,0,1,0-1.72h4.39a.86.86,0,0,1,0,1.72Zm-12.64,0H365.1a.86.86,0,0,1,0-1.72h4.39a.86.86,0,0,1,0,1.72Zm-12.64,0h-4.39a.86.86,0,0,1,0-1.72h4.39a.86.86,0,0,1,0,1.72Zm-12.64,0h-4.39a.86.86,0,0,1,0-1.72h4.39a.86.86,0,0,1,0,1.72Zm-12.64,0h-4.39a.86.86,0,0,1,0-1.72h4.39a.86.86,0,0,1,0,1.72Zm-12.65,0h-4.39a.86.86,0,1,1,0-1.72h4.39a.86.86,0,0,1,0,1.72Zm-12.64,0h-4.39a.86.86,0,0,1,0-1.72h4.39a.86.86,0,0,1,0,1.72Z" transform="translate(-287.79 -26.04)" fill="#53619b"/>
  </g>
  <g id="Grupo_1095806" data-name="Grupo 1095806" transform="translate(403.44 129.84)">
    <g id="Grupo_1095801" data-name="Grupo 1095801" transform="translate(32.24 12.04)">
      <g id="Grupo_1095800" data-name="Grupo 1095800">
        <path id="Trazado_838080" data-name="Trazado 838080" d="M463.43,150.59l-1.47,14.5-20.08-17.34Z" transform="translate(-441.88 -147.75)" fill="#00c4ff"/>
      </g>
    </g>
    <g id="Grupo_1095803" data-name="Grupo 1095803">
      <g id="Grupo_1095802" data-name="Grupo 1095802">
        <path id="Trazado_838081" data-name="Trazado 838081" d="M409.64,135.71l60.56,5.55-20.43,28.16Z" transform="translate(-409.64 -135.71)" fill="#a6eaff"/>
      </g>
    </g>
    <g id="Grupo_1095805" data-name="Grupo 1095805" transform="translate(21.52 7.17)">
      <g id="Grupo_1095804" data-name="Grupo 1095804">
        <path id="Trazado_838082" data-name="Trazado 838082" d="M431.16,142.88l32.27,7.71-3.79,5.23Z" transform="translate(-431.16 -142.88)" fill="#009ecd"/>
      </g>
    </g>
  </g>
  <g id="Grupo_1095827" data-name="Grupo 1095827" transform="translate(366.379)">
    <g id="Grupo_1095807" data-name="Grupo 1095807" transform="translate(0 20.925)">
      <rect id="Rectángulo_387530" data-name="Rectángulo 387530" width="48.9" height="28.35" transform="matrix(1, -0.011, 0.011, 1, 0, 0.557)" fill="#a6eaff"/>
    </g>
    <g id="Grupo_1095808" data-name="Grupo 1095808" transform="translate(0.021 1.186)">
      <path id="Trazado_838083" data-name="Trazado 838083" d="M398.87,7.71a2.773,2.773,0,0,0-3.6.02L372.6,27.36l24.61,13.9L421.5,26.81Z" transform="translate(-372.6 -7.056)" fill="#6e40fc"/>
    </g>
    <g id="Grupo_1095813" data-name="Grupo 1095813" transform="translate(0.021)">
      <g id="Grupo_1095812" data-name="Grupo 1095812" clip-path="url(#clip-path-2)">
        <g id="Grupo_1095809" data-name="Grupo 1095809" transform="translate(5.8 -0.86)">
          <path id="Trazado_838084" data-name="Trazado 838084" d="M388.25,5.01a9.8,9.8,0,0,0-9.82,9.78l-.03,28.36,36.93.07.05-38.16Z" transform="translate(-378.4 -5.01)" fill="#dfeff3"/>
        </g>
        <g id="Grupo_1095811" data-name="Grupo 1095811" transform="translate(6.02 -0.81)">
          <g id="Grupo_1095810" data-name="Grupo 1095810">
            <path id="Trazado_838085" data-name="Trazado 838085" d="M382.92,9.93a9.394,9.394,0,0,1,3.96-4.87,9.411,9.411,0,0,0-8.26,7.54A7.445,7.445,0,0,1,382.92,9.93Z" transform="translate(-378.62 -5.06)" fill="#d1bbff"/>
          </g>
        </g>
      </g>
    </g>
    <g id="Grupo_1095815" data-name="Grupo 1095815" transform="translate(10.976 33.175)">
      <g id="Grupo_1095814" data-name="Grupo 1095814">
        <path id="Trazado_838087" data-name="Trazado 838087" d="M384.75,50.34a.715.715,0,0,1-.99-1.03l9.83-10.05a.714.714,0,0,1,1.02,1l-9.83,10.05C384.77,50.33,384.76,50.33,384.75,50.34Z" transform="translate(-383.555 -39.045)" fill="#6e40fc"/>
      </g>
    </g>
    <g id="Grupo_1095817" data-name="Grupo 1095817" transform="translate(26.9 33.195)">
      <g id="Grupo_1095816" data-name="Grupo 1095816">
        <path id="Trazado_838088" data-name="Trazado 838088" d="M410.47,50.39a.707.707,0,0,1-.99-.03l-9.8-10.08a.721.721,0,0,1,.01-1.01.712.712,0,0,1,1.01.01l9.8,10.08a.721.721,0,0,1-.01,1.01Z" transform="translate(-399.479 -39.065)" fill="#6e40fc"/>
      </g>
    </g>
    <g id="Grupo_1095826" data-name="Grupo 1095826" transform="translate(14.115 5.53)">
      <g id="Grupo_1095820" data-name="Grupo 1095820">
        <g id="Grupo_1095819" data-name="Grupo 1095819">
          <g id="Grupo_1095818" data-name="Grupo 1095818">
            <path id="Trazado_838089" data-name="Trazado 838089" d="M407.2,14.7s-5.92.8-10.2-3.3c-4.28,4.1-10.2,3.3-10.2,3.3s-.73,3.42,1.64,10.27A16.307,16.307,0,0,0,397,34.28a16.267,16.267,0,0,0,8.56-9.31C407.93,18.12,407.2,14.7,407.2,14.7Z" transform="translate(-386.694 -11.4)" fill="#1e5af9"/>
          </g>
        </g>
      </g>
      <g id="Grupo_1095825" data-name="Grupo 1095825" transform="translate(4.746 7.45)">
        <g id="Grupo_1095824" data-name="Grupo 1095824">
          <g id="Grupo_1095823" data-name="Grupo 1095823">
            <g id="Grupo_1095822" data-name="Grupo 1095822">
              <g id="Grupo_1095821" data-name="Grupo 1095821">
                <path id="Trazado_838090" data-name="Trazado 838090" d="M396.97,26.81a1.223,1.223,0,0,1-.89.37h-.03a1.255,1.255,0,0,1-.9-.42l-3.71-4.15,1.86-1.66,2.82,3.16,5.2-5.26,1.78,1.75Z" transform="translate(-391.44 -18.85)" fill="#fff"/>
              </g>
            </g>
          </g>
        </g>
      </g>
    </g>
  </g>
  <g id="Grupo_1095835" data-name="Grupo 1095835" transform="translate(293.289 56.918)">
    <g id="Grupo_1095829" data-name="Grupo 1095829">
      <g id="Grupo_1095828" data-name="Grupo 1095828">
        <path id="Trazado_838091" data-name="Trazado 838091" d="M372.84,99.2a18.207,18.207,0,1,0-16.29-25.77l-53.7-.8a3.3,3.3,0,0,0-3.36,3.27V76a7.008,7.008,0,0,0,2.44,5.42l6.72,5.76a.743.743,0,0,0,.47.18l3.86.06a.747.747,0,0,0,.76-.73l.05-3.22,2.38.04-.05,3.26a.713.713,0,0,0,.7.72l3.35.05a.713.713,0,0,0,.72-.7l.04-2.71,1.67,1.55a2.874,2.874,0,0,0,4.03-.11l1.67-1.74-.03,1.93a1.893,1.893,0,0,0,1.87,1.93l26.18.39A18.252,18.252,0,0,0,372.84,99.2ZM385.5,81.18a4.8,4.8,0,1,1-4.72-4.87A4.793,4.793,0,0,1,385.5,81.18Z" transform="translate(-299.489 -62.788)" fill="#ffb6c7"/>
      </g>
    </g>
    <g id="Grupo_1095831" data-name="Grupo 1095831" transform="translate(9.701 15.792)">
      <g id="Grupo_1095830" data-name="Grupo 1095830">
        <path id="Trazado_838092" data-name="Trazado 838092" d="M359.52,79.43c0-.35.35-.63,0-.63l-49.69-.22a.635.635,0,1,0-.01,1.27l49.49.22C359.67,80.06,359.52,79.78,359.52,79.43Z" transform="translate(-309.19 -78.58)" fill="#ffdfe7"/>
      </g>
    </g>
    <g id="Grupo_1095834" data-name="Grupo 1095834" transform="translate(59.36 3.991)">
      <g id="Grupo_1095833" data-name="Grupo 1095833">
        <g id="Grupo_1095832" data-name="Grupo 1095832">
          <path id="Trazado_838093" data-name="Trazado 838093" d="M358.85,80.99a14.315,14.315,0,1,1,14.21,14.42A14.329,14.329,0,0,1,358.85,80.99Zm27.51.2A13.2,13.2,0,1,0,373.07,94.3,13.213,13.213,0,0,0,386.36,81.19Z" transform="translate(-358.85 -66.78)" fill="#ffdfe7"/>
        </g>
      </g>
    </g>
  </g>
  <g id="Grupo_1095843" data-name="Grupo 1095843" transform="translate(0 100.5)">
    <g id="Grupo_1095837" data-name="Grupo 1095837" transform="translate(3.087 3.077)">
      <g id="Grupo_1095836" data-name="Grupo 1095836" transform="translate(0)">
        <rect id="Rectángulo_387531" data-name="Rectángulo 387531" width="24.94" height="25.19" transform="translate(0.026 0) rotate(0.06)" fill="#a6eaff"/>
      </g>
    </g>
    <g id="Grupo_1095839" data-name="Grupo 1095839">
      <g id="Grupo_1095838" data-name="Grupo 1095838">
        <path id="Trazado_838094" data-name="Trazado 838094" d="M9.31,109.45l24.94.03-.03,25.19-24.94-.03.03-25.19Zm-3.08-3.08-.03,40.2,31.11.03.03-40.2-31.11-.03Z" transform="translate(-6.2 -106.37)" fill="#d1bbff"/>
      </g>
    </g>
    <g id="Grupo_1095842" data-name="Grupo 1095842" transform="translate(3.09 10.809)">
      <g id="Grupo_1095840" data-name="Grupo 1095840">
        <path id="Trazado_838095" data-name="Trazado 838095" d="M34.23,130.99l-3.33-4.31a.637.637,0,0,0-.83-.16l-5.18,3.06-7.93-12.11a.635.635,0,0,0-.56-.29.646.646,0,0,0-.54.34L9.3,129.82l-.01,4.82,24.94.03h.01Z" transform="translate(-9.29 -117.179)" fill="#7c3eff"/>
      </g>
      <g id="Grupo_1095841" data-name="Grupo 1095841" transform="translate(17.47 1.081)">
        <circle id="Elipse_11148" data-name="Elipse 11148" cx="2.39" cy="2.39" r="2.39" fill="#d9f6ff"/>
      </g>
    </g>
  </g>
  <g id="Grupo_1095855" data-name="Grupo 1095855" transform="translate(26.9 72.43)">
    <g id="Grupo_1095844" data-name="Grupo 1095844" transform="translate(0)">
      <path id="Trazado_838096" data-name="Trazado 838096" d="M76.78,78.3H38.31a5.226,5.226,0,0,0-5.21,5.21v2.03a5.226,5.226,0,0,0,5.21,5.21H76.78a5.226,5.226,0,0,0,5.21-5.21V83.51A5.232,5.232,0,0,0,76.78,78.3Z" transform="translate(-33.1 -78.3)" fill="#039"/>
    </g>
    <g id="Grupo_1095845" data-name="Grupo 1095845" transform="translate(1.82)">
      <path id="Trazado_838097" data-name="Trazado 838097" d="M78.6,78.3H40.13a5.226,5.226,0,0,0-5.21,5.21v2.03a5.226,5.226,0,0,0,5.21,5.21H78.6a5.226,5.226,0,0,0,5.21-5.21V83.51A5.239,5.239,0,0,0,78.6,78.3Z" transform="translate(-34.92 -78.3)" fill="#005afd"/>
    </g>
    <g id="Grupo_1095854" data-name="Grupo 1095854" transform="translate(6.39 3.49)">
      <g id="Grupo_1095847" data-name="Grupo 1095847" transform="translate(24.27)">
        <g id="Grupo_1095846" data-name="Grupo 1095846">
          <path id="Trazado_838098" data-name="Trazado 838098" d="M65.57,81.79l.95,2.19h.03l.97-2.17.95.55L67,84.26v.03l2.3-.3v1.06l-2.31-.3v.03l1.48,1.9-.89.56-1.01-2.2h-.03l-.94,2.19-.98-.56,1.5-1.87v-.03l-2.36.28V84l2.36.31v-.03l-1.48-1.95Z" transform="translate(-63.76 -81.79)" fill="#fff"/>
        </g>
      </g>
      <g id="Grupo_1095849" data-name="Grupo 1095849" transform="translate(15.73)">
        <g id="Grupo_1095848" data-name="Grupo 1095848">
          <path id="Trazado_838099" data-name="Trazado 838099" d="M57.03,81.79l.95,2.19h.03l.97-2.17.95.55-1.47,1.9v.03l2.3-.3v1.06l-2.31-.3v.03l1.48,1.9-.89.56-1.01-2.2H58l-.94,2.19-.98-.56,1.5-1.87v-.03l-2.36.28V84l2.36.31v-.03L56.1,82.33Z" transform="translate(-55.22 -81.79)" fill="#fff"/>
        </g>
      </g>
      <g id="Grupo_1095851" data-name="Grupo 1095851" transform="translate(7.63)">
        <g id="Grupo_1095850" data-name="Grupo 1095850">
          <path id="Trazado_838100" data-name="Trazado 838100" d="M48.93,81.79l.95,2.19h.03l.97-2.17.95.55-1.47,1.9v.03l2.3-.3v1.06l-2.31-.3v.03l1.48,1.9-.89.56-1.01-2.2H49.9l-.94,2.19-.98-.56,1.5-1.87v-.03l-2.36.28V84l2.36.31v-.03L48,82.33Z" transform="translate(-47.12 -81.79)" fill="#fff"/>
        </g>
      </g>
      <g id="Grupo_1095853" data-name="Grupo 1095853">
        <g id="Grupo_1095852" data-name="Grupo 1095852">
          <path id="Trazado_838101" data-name="Trazado 838101" d="M41.3,81.79l.95,2.19h.03l.97-2.17.95.55-1.47,1.9v.03l2.3-.3v1.06l-2.31-.3v.03l1.48,1.9-.89.56-1.01-2.2h-.03l-.94,2.19-.98-.56,1.5-1.87v-.03l-2.36.28V84l2.36.31v-.03l-1.48-1.95Z" transform="translate(-39.49 -81.79)" fill="#fff"/>
        </g>
      </g>
    </g>
  </g>
</svg>
