<svg xmlns="http://www.w3.org/2000/svg" width="40" height="33" viewBox="0 0 40 33">
  <g id="i2" transform="translate(-225 -766)">
    <g id="i2-2" data-name="i2" transform="translate(224.374 759.68)">
      <g id="Grupo_1096567" data-name="Grupo 1096567">
        <path id="Trazado_838477" data-name="Trazado 838477" d="M16.91,7.48,8.74,15.65a.193.193,0,0,0,.14.33h7.63a.738.738,0,0,0,.74-.74V7.61A.2.2,0,0,0,16.91,7.48ZM34.18,30.39h-1.2V27.51a4.09,4.09,0,1,0-8.18,0v2.88H23.6a.48.48,0,0,0-.48.48V37.6a.48.48,0,0,0,.48.48H34.17a.48.48,0,0,0,.48-.48V30.87A.472.472,0,0,0,34.18,30.39Zm-3.61,0H27.21V27.51a1.68,1.68,0,1,1,3.36,0Z" fill="#12263f"/>
        <path id="Trazado_838478" data-name="Trazado 838478" d="M29.62,7.32h-10a2.85,2.85,0,0,1,.03.29v7.62a3.145,3.145,0,0,1-3.14,3.14H8.88a2.825,2.825,0,0,1-.29-.02V34a1.92,1.92,0,0,0,1.92,1.92H20.72V30.87a2.893,2.893,0,0,1,1.68-2.62v-.74a6.482,6.482,0,0,1,9.14-5.92V9.24A1.92,1.92,0,0,0,29.62,7.32Z" fill="#12263f"/>
      </g>
    </g>
    <path id="Trazado_838600" data-name="Trazado 838600" d="M0,0H40V33H0Z" transform="translate(225 766)" fill="none"/>
  </g>
</svg>
