<svg xmlns="http://www.w3.org/2000/svg" width="40" height="33" viewBox="0 0 40 33">
  <g id="i5" transform="translate(-544 -713)">
    <g id="i5-2" data-name="i5" transform="translate(538.442 703.162)">
      <g id="Grupo_1096575" data-name="Grupo 1096575" transform="translate(10.72 12.42)">
        <path id="Trazado_838483" data-name="Trazado 838483" d="M18.2,28.9v4.158a.412.412,0,0,0,.411.411H31.071a.412.412,0,0,0,.411-.411V28.9a.412.412,0,0,0-.411-.411H18.615A.419.419,0,0,0,18.2,28.9Zm-7.064-9.55H15.7a.412.412,0,0,0,.411-.411V14.781a.412.412,0,0,0-.411-.411H11.131a.412.412,0,0,0-.411.411v4.158A.412.412,0,0,0,11.131,19.351Zm7.484,0h8.658a7.393,7.393,0,0,1,2.4-3.909v-.66a.412.412,0,0,0-.411-.411H18.615a.412.412,0,0,0-.411.411v4.158A.406.406,0,0,0,18.615,19.351Zm10.9,7.064a7,7,0,0,1-2.443-4.989H23.176a.412.412,0,0,0-.411.411v4.158a.412.412,0,0,0,.411.411h6.335ZM23.6,35.553H11.131a.412.412,0,0,0-.411.411v4.158a.412.412,0,0,0,.411.411H23.6a.412.412,0,0,0,.411-.411V35.965A.406.406,0,0,0,23.6,35.553Zm15.379,0H26.511a.412.412,0,0,0-.411.411v4.158a.412.412,0,0,0,.411.411H38.975a.412.412,0,0,0,.411-.411V35.965A.417.417,0,0,0,38.975,35.553Zm0-7.064H33.986a.412.412,0,0,0-.411.411v4.158a.412.412,0,0,0,.411.411h4.989a.412.412,0,0,0,.411-.411V28.9A.417.417,0,0,0,38.975,28.489ZM11.131,33.478H15.7a.412.412,0,0,0,.411-.411V28.909A.412.412,0,0,0,15.7,28.5H11.131a.412.412,0,0,0-.411.411v4.158A.412.412,0,0,0,11.131,33.478Zm0-7.064H20.27A.412.412,0,0,0,20.681,26V21.845a.412.412,0,0,0-.411-.411H11.131a.412.412,0,0,0-.411.411V26A.412.412,0,0,0,11.131,26.415Z" transform="translate(-10.72 -12.698)" fill="#12263f"/>
        <path id="Trazado_838484" data-name="Trazado 838484" d="M41.851,20.787a7.786,7.786,0,0,0-1.38-3.592c-.96-1.526-2.109-2.94-2.366-4.775a3.7,3.7,0,0,0-2.049,3.618c.017,1.354,1.826,3.12.746,4.3-1.183,1.286-3.18.231-2.623-1.749a3.193,3.193,0,0,0,.009-1.955,5.429,5.429,0,0,0-2,4.158,4.926,4.926,0,0,0,4.749,4.921C39.511,25.6,42.074,23.539,41.851,20.787Z" transform="translate(-13.785 -12.42)" fill="#12263f"/>
      </g>
    </g>
    <path id="Trazado_838604" data-name="Trazado 838604" d="M0,0H40V33H0Z" transform="translate(544 713)" fill="none"/>
  </g>
</svg>
