<svg xmlns="http://www.w3.org/2000/svg" width="40" height="33" viewBox="0 0 40 33">
  <g id="i6" transform="translate(-544 -766)">
    <g id="i6-2" data-name="i6" transform="translate(537.679 758.915)">
      <g id="Grupo_1096577" data-name="Grupo 1096577" transform="translate(10.408 9.68)">
        <path id="Trazado_838485" data-name="Trazado 838485" d="M25.605,21.709a2.5,2.5,0,1,0,2.5,2.5A2.505,2.505,0,0,0,25.605,21.709Zm14.7,1.316c-2.331-2.3-8.035-7.144-14.7-7.144s-12.373,4.846-14.7,7.144a1.663,1.663,0,0,0,0,2.365c2.331,2.3,8.035,7.144,14.7,7.144s12.373-4.846,14.7-7.144A1.656,1.656,0,0,0,40.3,23.024ZM25.605,29.2a5,5,0,1,1,5-5A5,5,0,0,1,25.605,29.2Z" transform="translate(-10.407 -10.718)" fill="#12263f"/>
        <path id="Trazado_838486" data-name="Trazado 838486" d="M17.92,9.68h-4a2.473,2.473,0,0,0-2.473,2.473v4a1.249,1.249,0,0,0,2.5,0l-.025-3.972h4a1.249,1.249,0,1,0,0-2.5Zm0,25.312-3.972.025v-4a1.249,1.249,0,0,0-2.5,0v4a2.473,2.473,0,0,0,2.473,2.473h4a1.249,1.249,0,0,0,0-2.5ZM36.8,9.68h-4a1.249,1.249,0,0,0,0,2.5l3.972-.025v4a1.249,1.249,0,0,0,2.5,0v-4A2.473,2.473,0,0,0,36.8,9.68ZM38.02,29.772a1.247,1.247,0,0,0-1.249,1.249l.025,3.972h-4a1.249,1.249,0,0,0,0,2.5h4a2.473,2.473,0,0,0,2.473-2.473v-4A1.247,1.247,0,0,0,38.02,29.772Z" transform="translate(-10.582 -9.68)" fill="#12263f"/>
      </g>
    </g>
    <path id="Trazado_838603" data-name="Trazado 838603" d="M0,0H40V33H0Z" transform="translate(544 766)" fill="none"/>
  </g>
</svg>
