<svg xmlns="http://www.w3.org/2000/svg" width="40" height="33" viewBox="0 0 40 33">
  <g id="i8" transform="translate(-544 -880)">
    <g id="i8-2" data-name="i8" transform="translate(542.977 879.665)">
      <g id="Grupo_1096582" data-name="Grupo 1096582" transform="translate(6.427 9.61)">
        <path id="Trazado_838489" data-name="Trazado 838489" d="M36.539,8.61H8.469a.764.764,0,0,0-.759.759V19.991a.764.764,0,0,0,.759.759H36.547a.764.764,0,0,0,.759-.759V9.369A.771.771,0,0,0,36.539,8.61ZM17.021,15.851,16.2,17.274l-1.718-1.3.224,1.742H13.185l.216-1.742-1.718,1.3-.823-1.423,1.966-.831-1.966-.831.823-1.423,1.7,1.295-.208-1.654H14.7l-.208,1.654,1.7-1.295.823,1.423-1.966.831Zm8.56,0-.823,1.423-1.718-1.3.224,1.742H21.745l.216-1.742-1.718,1.3-.823-1.423,1.966-.831-1.966-.831.823-1.423,1.7,1.295-.208-1.654h1.519l-.208,1.654,1.7-1.295.823,1.423-1.966.831Zm8.56,0-.823,1.423-1.718-1.3.224,1.742H30.3l.216-1.742-1.718,1.3-.823-1.423,1.966-.831-1.966-.831.823-1.423,1.7,1.295L30.3,12.406h1.519l-.208,1.654,1.7-1.295.823,1.423-1.966.831Z" transform="translate(-7.71 -8.61)" fill="#12263f"/>
        <path id="Trazado_838490" data-name="Trazado 838490" d="M35.738,26.35H9.555a1.135,1.135,0,1,0,0,2.27H35.738a1.135,1.135,0,0,0,0-2.27Z" transform="translate(-7.853 -12.171)" fill="#12263f"/>
      </g>
    </g>
    <path id="Trazado_838606" data-name="Trazado 838606" d="M0,0H40V33H0Z" transform="translate(544 880)" fill="none"/>
  </g>
</svg>
