<svg id="_1" data-name="1" xmlns="http://www.w3.org/2000/svg" xmlns:xlink="http://www.w3.org/1999/xlink" width="336.669" height="90.642" viewBox="0 0 336.669 90.642">
  <defs>
    <clipPath id="clip-path">
      <path id="Rectángulo_387407" data-name="Rectángulo 387407" d="M1.66,0H335.008l1.66,90.642H0Z"/>
    </clipPath>
  </defs>
  <g id="Grupo_1094818" data-name="Grupo 1094818" transform="translate(0 0)">
    <g id="Grupo_1093669" clip-path="url(#clip-path)">
      <g id="Grupo_1093668">
        <g id="Grupo_1094817" data-name="Grupo 1094817">
          <g id="Grupo_1093667" clip-path="url(#clip-path)">
            <path id="Trazado_833225" d="M90.647,44.817A44.811,44.811,0,0,1,77.518,76.777,45.285,45.285,0,0,1,3.7,62.383a44.894,44.894,0,0,1,9.88-49.3A45.287,45.287,0,0,1,87.015,27.319a44.759,44.759,0,0,1,3.632,17.5" transform="translate(122.894 0)" fill="#d9f6ff"/>
            <path id="Trazado_833226" d="M40.885,73.326H10.232A10.181,10.181,0,0,1,.041,63.094l.213-53a10.031,10.031,0,0,1,.814-3.93A10.2,10.2,0,0,1,10.444,0H40.854a10.175,10.175,0,0,1,9.361,6.162,10.016,10.016,0,0,1,.8,3.93l.082,53A10.209,10.209,0,0,1,40.885,73.326" transform="translate(131.414 17.316)" fill="#005afd"/>
            <path id="Trazado_833227" d="M2.845,1.422A1.422,1.422,0,1,1,1.425,0a1.408,1.408,0,0,1,.55.111,1.432,1.432,0,0,1,.758.756,1.41,1.41,0,0,1,.112.555V1.417s0,0,0,0,0,0,0,0v.006" transform="translate(155.553 85.247)" fill="#dfe8fa"/>
            <path id="Trazado_833228" d="M2.843,1.422A1.419,1.419,0,1,1,2.732.868a1.425,1.425,0,0,1,.112.555v0" transform="translate(168.605 85.247)" fill="#dfe8fa"/>
            <path id="Trazado_833229" d="M2.823,1.4a1.4,1.4,0,0,1-.861,1.293,1.419,1.419,0,0,1-1.549-.3A1.4,1.4,0,0,1,.862.11a1.419,1.419,0,0,1,1.549.3,1.393,1.393,0,0,1,.412.992h0" transform="translate(164.663 19.826)" fill="#dfe8fa"/>
            <path id="Trazado_833230" d="M2.847,1.422A1.427,1.427,0,0,1,.868,2.734,1.415,1.415,0,0,1,0,1.422,1.427,1.427,0,0,1,1.983.111a1.415,1.415,0,0,1,.864,1.311s0,0,0-.006v0s0,0,0,.006" transform="translate(142.491 85.247)" fill="#dfe8fa"/>
            <path id="Trazado_833231" d="M10.46,1.676H.874a.84.84,0,0,1-.608-.222.826.826,0,0,1-.19-.26A.812.812,0,0,1,0,.868.869.869,0,0,1,.059.538.854.854,0,0,1,.23.264.827.827,0,0,1,.49.075.818.818,0,0,1,.816,0h9.646a.841.841,0,0,1,.608.222.827.827,0,0,1,.19.26.812.812,0,0,1,.075.325.868.868,0,0,1-.057.33.853.853,0,0,1-.17.274.817.817,0,0,1-.585.264H10.46" transform="translate(151.39 20.401)" fill="#dfe8fa"/>
            <path id="Trazado_833232" d="M39.04,57.535H4.089A4.068,4.068,0,0,1,.015,53.446L.192,4.041A4.021,4.021,0,0,1,.517,2.467,4.079,4.079,0,0,1,4.27,0H39a4.069,4.069,0,0,1,3.747,2.467,4.014,4.014,0,0,1,.321,1.574l.055,49.405a4.08,4.08,0,0,1-4.085,4.088" transform="translate(135.412 25.155)" fill="#879aff"/>
            <path id="Trazado_833233" d="M3.4,6.8h0a3.4,3.4,0,1,1,3.4-3.4,3.353,3.353,0,0,1-.263,1.324A3.407,3.407,0,0,1,3.4,6.8" transform="translate(158.682 73.047)" fill="#dfe8fa"/>
            <path id="Trazado_833234" d="M3.4,6.8h0A3.4,3.4,0,1,1,6.8,3.4h0A3.4,3.4,0,0,1,5.81,5.812,3.363,3.363,0,0,1,3.4,6.8" transform="translate(168.901 73.047)" fill="#dfe8fa"/>
            <path id="Trazado_833235" d="M3.4,6.8h0a3.4,3.4,0,1,1,1.325-.267A3.391,3.391,0,0,1,3.4,6.8" transform="translate(148.473 73.047)" fill="#dfe8fa"/>
            <path id="Trazado_833236" d="M3.4,6.8h0a3.4,3.4,0,1,1,1.326-.267A3.389,3.389,0,0,1,3.4,6.8" transform="translate(138.263 73.047)" fill="#dfe8fa"/>
            <path id="Trazado_833237" d="M1.69.839a.841.841,0,0,1-.517.773.857.857,0,0,1-.658,0A.839.839,0,0,1,.52.066a.857.857,0,0,1,.658,0A.832.832,0,0,1,1.69.839" transform="translate(137.587 27.114)" fill="#516dff"/>
            <path id="Trazado_833238" d="M1.69.839a.841.841,0,0,1-.517.773.857.857,0,0,1-.658,0,.839.839,0,0,1,0-1.546A.851.851,0,0,1,.849,0h0a.834.834,0,0,1,.324.066.852.852,0,0,1,.268.179.841.841,0,0,1,.182.266A.822.822,0,0,1,1.69.839" transform="translate(140.412 27.114)" fill="#516dff"/>
            <path id="Trazado_833239" d="M1.689.839a.84.84,0,0,1-.516.773.857.857,0,0,1-.658,0,.838.838,0,0,1,0-1.546.857.857,0,0,1,.658,0,.833.833,0,0,1,.512.773" transform="translate(143.227 27.114)" fill="#516dff"/>
            <path id="Trazado_833240" d="M1.689.839a.84.84,0,0,1-.516.773.857.857,0,0,1-.658,0,.838.838,0,0,1,0-1.546.857.857,0,0,1,.658,0,.833.833,0,0,1,.513.773h0" transform="translate(146.053 27.114)" fill="#516dff"/>
            <path id="Trazado_833241" d="M1.689.839a.84.84,0,0,1-.516.773.857.857,0,0,1-.658,0,.838.838,0,0,1,0-1.546A.85.85,0,0,1,.847,0h0a.848.848,0,0,1,.329.066.834.834,0,0,1,.513.773" transform="translate(148.868 27.114)" fill="#516dff"/>
            <path id="Trazado_833242" d="M5.081.566H4.522V.283A.282.282,0,0,0,4.5.175a.286.286,0,0,0-.06-.09A.282.282,0,0,0,4.35.023.286.286,0,0,0,4.237,0H.284a.287.287,0,0,0-.2.081A.279.279,0,0,0,0,.283H0V1.97a.282.282,0,0,0,.022.108.285.285,0,0,0,.06.09.282.282,0,0,0,.09.062.286.286,0,0,0,.113.023H4.228a.286.286,0,0,0,.2-.081.279.279,0,0,0,.085-.2h0V1.687h.559a.286.286,0,0,0,.2-.081.279.279,0,0,0,.085-.2V.839A.25.25,0,0,0,5.339.732.247.247,0,0,0,5.283.645.268.268,0,0,0,5.194.587.3.3,0,0,0,5.081.566" transform="translate(171.144 26.832)" fill="#516dff"/>
            <path id="Trazado_833243" d="M11.025,12.225a6.746,6.746,0,0,0,2-2.371,6.664,6.664,0,0,0,.72-3.009,6.713,6.713,0,0,0-1.921-4.8,6.8,6.8,0,0,0-11.069,2A6.715,6.715,0,0,0,.185,6.662c0,.013,0,.026,0,.04v.042c0,.014,0,.028,0,.042s0,.027,0,.04a6.705,6.705,0,0,0,2.71,5.391L.054,21.153a1.153,1.153,0,0,0-.047.449,1.129,1.129,0,0,0,.123.415,1.111,1.111,0,0,0,.666.551l.084.021.084.016q.042.007.084.01c.028,0,.056,0,.084,0H12.761a1.123,1.123,0,0,0,.439-.089,1.144,1.144,0,0,0,.6-.6,1.117,1.117,0,0,0,.09-.439c0-.028,0-.057,0-.085s-.006-.058-.01-.086-.01-.057-.016-.084-.013-.054-.021-.08Z" transform="translate(150.06 40.225)" fill="#622fcf"/>
            <path id="Trazado_833244" d="M40.653,0A14.069,14.069,0,0,0,27.033,10.41h-27A6.723,6.723,0,0,0,2.7,14.949L1.8,17.733H27.04A14.1,14.1,0,0,0,33.655,26.3a14.13,14.13,0,0,0,10.75,1.4A14.071,14.071,0,0,0,49.253,2.9a14.183,14.183,0,0,0-8.6-2.9" transform="translate(150.258 37.501)" fill="#ffb6c7"/>
            <path id="Trazado_833245" d="M6.814,13.528a6.781,6.781,0,0,1-6.8-6.769A6.754,6.754,0,0,1,6.78,0a6.781,6.781,0,0,1,6.8,6.759h0a6.686,6.686,0,0,1-1.969,4.786,6.769,6.769,0,0,1-4.8,1.983" transform="translate(184.15 44.817)" fill="#f7f8fc"/>
            <path id="Trazado_833246" d="M4.771,1.724,3.382.335A1.135,1.135,0,0,0,3,.084a1.167,1.167,0,0,0-.868,0,1.149,1.149,0,0,0-.382.251h0L.352,1.724A1.152,1.152,0,0,0,.094,2.968a1.13,1.13,0,0,0,.25.379h0l1.389,1.39a1.135,1.135,0,0,0,.38.251,1.167,1.167,0,0,0,.868,0,1.149,1.149,0,0,0,.382-.251h0l1.4-1.39a1.145,1.145,0,0,0,.257-1.24,1.169,1.169,0,0,0-.25-.383h0" transform="translate(125.073 43.966)" fill="#7c3eff"/>
            <path id="Trazado_833247" d="M3.232,4.746,4.787,3.205A.98.98,0,0,0,5,2.882a.966.966,0,0,0-.215-1.056L3.24.287a.985.985,0,0,0-1.389,0L.3,1.826a.981.981,0,0,0-.218.323A.966.966,0,0,0,.293,3.205L1.842,4.746a.985.985,0,0,0,1.39,0" transform="translate(147.77 8.086)" fill="#00c4ff"/>
            <path id="Trazado_833248" d="M3.231,4.742,4.782,3.2A.976.976,0,0,0,5,2.88a.964.964,0,0,0,0-.732.978.978,0,0,0-.217-.323L3.229.287a.984.984,0,0,0-1.389,0L.29,1.825a.977.977,0,0,0-.217.323.964.964,0,0,0,0,.732A.977.977,0,0,0,.29,3.2L1.842,4.742a.984.984,0,0,0,1.389,0" transform="translate(170.858 4.737)" fill="#7c3eff"/>
            <path id="Rectángulo_386968" d="M.293,1.832,1.844.288a.985.985,0,0,1,1.391,0L4.794,1.832a.985.985,0,0,1,.218.324A.97.97,0,0,1,4.8,3.216L3.247,4.762a.986.986,0,0,1-1.392,0L.3,3.216a.985.985,0,0,1-.218-.324A.97.97,0,0,1,.293,1.832Z" transform="translate(187.784 23.191)" fill="#00c4ff"/>
            <path id="Rectángulo_386969" d="M.3,1.837,1.847.288A.984.984,0,0,1,2.913.072,1,1,0,0,1,3.24.288L4.8,1.837a.989.989,0,0,1,.219.325.972.972,0,0,1-.213,1.062L3.259,4.773a.984.984,0,0,1-1.066.216,1,1,0,0,1-.327-.216L.3,3.223a.985.985,0,0,1-.293-.7.969.969,0,0,1,.071-.369A.941.941,0,0,1,.3,1.837Z" transform="translate(203.608 33.853)" fill="#7c3eff"/>
            <path id="Rectángulo_386970" d="M.3,1.851,1.853.291a.987.987,0,0,1,1.4,0l1.567,1.56a1,1,0,0,1,.219.327.982.982,0,0,1-.215,1.07L3.266,4.809a.987.987,0,0,1-1.4,0L.3,3.248a1,1,0,0,1-.219-.327A.983.983,0,0,1,.3,1.851Z" transform="translate(193.546 68.799)" fill="#00c4ff"/>
            <path id="Trazado_833249" d="M90.8,44.817A44.348,44.348,0,0,1,63.827,86.506a44.877,44.877,0,0,1-17.632,3.573,45.576,45.576,0,0,1-17.728-3.573A46.148,46.148,0,0,1,4.085,62.383,45.107,45.107,0,0,1,.378,44.817,44.347,44.347,0,0,1,27.517,3.506,44.884,44.884,0,0,1,44.99,0h0A45.576,45.576,0,0,1,62.557,3.506,46.152,46.152,0,0,1,86.935,27.319a45.125,45.125,0,0,1,3.866,17.5" transform="translate(245.018 0)" fill="#d9f6ff"/>
            <path id="Trazado_833250" d="M31.542,0h-16.9A14.486,14.486,0,0,0,4.335,4.261a14.331,14.331,0,0,0-4.184,10.3h0L.29,28.053H8.77L8.618,14.566a6.1,6.1,0,0,1,3.724-5.688,6.179,6.179,0,0,1,2.413-.485H31.668a6.271,6.271,0,0,1,2.421.484,6.339,6.339,0,0,1,3.352,3.283,6.182,6.182,0,0,1,.523,2.406l.2,13.487h8.48l-.208-13.487A14.646,14.646,0,0,0,45.18,8.89,14.921,14.921,0,0,0,31.542,0" transform="translate(262.63 16.197)" fill="#005afd"/>
            <path id="Trazado_833251" d="M52.895,46.381H12.71a12.307,12.307,0,0,1-4.789-.965,12.483,12.483,0,0,1-6.593-6.533A12.3,12.3,0,0,1,.319,34.108L.114,12.181A12.061,12.061,0,0,1,12.214,0H52.2a12.334,12.334,0,0,1,4.77.956,12.517,12.517,0,0,1,6.606,6.479,12.249,12.249,0,0,1,1.038,4.747l.36,21.927A12.043,12.043,0,0,1,52.895,46.381" transform="translate(253.87 43.124)" fill="#879aff"/>
            <path id="Trazado_833252" d="M56.2,12.465H4.224a4.1,4.1,0,0,1-1.6-.321,4.165,4.165,0,0,1-2.2-2.175A4.1,4.1,0,0,1,.091,8.378L.044,4.08A4.027,4.027,0,0,1,4.083,0h51.9a4.117,4.117,0,0,1,1.6.32,4.2,4.2,0,0,1,2.21,2.171,4.11,4.11,0,0,1,.348,1.589l.075,4.3A3.991,3.991,0,0,1,56.2,12.465" transform="translate(267.699 69.089)" fill="#ffb6c7"/>
            <path id="Trazado_833253" d="M56.088,12.416H4.215a4.1,4.1,0,0,1-1.592-.32A4.153,4.153,0,0,1,.428,9.93,4.079,4.079,0,0,1,.09,8.345L.044,4.064A4.017,4.017,0,0,1,4.075,0H55.868A4.116,4.116,0,0,1,57.46.319a4.183,4.183,0,0,1,2.206,2.162,4.087,4.087,0,0,1,.348,1.583l.074,4.281A3.969,3.969,0,0,1,57.671,12.1a4.035,4.035,0,0,1-1.583.32" transform="translate(267.504 51.018)" fill="#7c3eff"/>
            <path id="Trazado_833254" d="M.645,6.239a.569.569,0,0,1-.569-.562h0L.008.571a.566.566,0,0,1,.161-.4A.557.557,0,0,1,.345.045.543.543,0,0,1,.562,0,.579.579,0,0,1,.785.045.586.586,0,0,1,.969.166a.577.577,0,0,1,.125.179.551.551,0,0,1,.048.217h0v0s0,0,0,.006l.068,5.105a.584.584,0,0,1-.046.217.575.575,0,0,1-.12.179.556.556,0,0,1-.4.166h0" transform="translate(289.858 72.761)" fill="#a6c5fe"/>
            <path id="Trazado_833255" d="M5.062,3.694a.525.525,0,0,1-.075-.005.61.61,0,0,1-.072-.015c-.024-.006-.047-.014-.07-.023l-.07-.028L.318,1.069A.57.57,0,0,1,.141.928.577.577,0,0,1,.035.736.56.56,0,0,1,.009.519.539.539,0,0,1,.073.3.549.549,0,0,1,.212.129.56.56,0,0,1,.619,0,.552.552,0,0,1,.836.069L.845.075l.011,0,.011,0L.877.089,5.334,2.642a.566.566,0,0,1,.173.147.56.56,0,0,1,.115.413.569.569,0,0,1-.073.216.546.546,0,0,1-.089.116.541.541,0,0,1-.115.087.557.557,0,0,1-.134.054.59.59,0,0,1-.148.019" transform="translate(287.63 74.029)" fill="#a6c5fe"/>
            <path id="Trazado_833256" d="M.62,3.691A.579.579,0,0,1,.4,3.647a.587.587,0,0,1-.183-.121.578.578,0,0,1-.125-.179.551.551,0,0,1,.026-.5A.57.57,0,0,1,.2,2.73.582.582,0,0,1,.32,2.639L4.709.087A.579.579,0,0,1,5.337.1.588.588,0,0,1,5.5.261a.593.593,0,0,1,.082.21.577.577,0,0,1,0,.217.561.561,0,0,1-.243.359l-.009.008-.011.007-.011,0-.009,0L.905,3.62a.535.535,0,0,1-.07.033.575.575,0,0,1-.072.022.614.614,0,0,1-.072.013.624.624,0,0,1-.07,0" transform="translate(287.658 74.031)" fill="#a6c5fe"/>
            <path id="Trazado_833257" d="M.639,6.239A.569.569,0,0,1,.07,5.677h0L.007.571a.567.567,0,0,1,.161-.4A.558.558,0,0,1,.345.045.543.543,0,0,1,.562,0,.579.579,0,0,1,.785.045.586.586,0,0,1,.968.166a.577.577,0,0,1,.125.179A.55.55,0,0,1,1.14.561h0v0s0,0,0,.006L1.2,5.677a.584.584,0,0,1-.046.217.576.576,0,0,1-.12.179.556.556,0,0,1-.4.166h0" transform="translate(281.923 72.761)" fill="#a6c5fe"/>
            <path id="Trazado_833258" d="M5.059,3.694a.525.525,0,0,1-.075-.005.609.609,0,0,1-.072-.015c-.024-.006-.047-.014-.07-.023l-.07-.028L.317,1.069A.569.569,0,0,1,.141.928.577.577,0,0,1,.035.736.56.56,0,0,1,.009.519.539.539,0,0,1,.073.3.549.549,0,0,1,.212.129.56.56,0,0,1,.619,0,.551.551,0,0,1,.836.069L.845.075l.011,0,.011,0L.877.089,5.332,2.642a.565.565,0,0,1,.173.147.56.56,0,0,1,.114.413.57.57,0,0,1-.073.216.543.543,0,0,1-.2.2.558.558,0,0,1-.134.054.59.59,0,0,1-.148.019" transform="translate(279.695 74.029)" fill="#a6c5fe"/>
            <path id="Trazado_833259" d="M.617,3.669a.579.579,0,0,1-.224-.045A.586.586,0,0,1,.21,3.5a.577.577,0,0,1-.125-.179.551.551,0,0,1,.027-.5A.57.57,0,0,1,.2,2.708a.583.583,0,0,1,.117-.091L4.709.064A.568.568,0,0,1,4.924,0a.583.583,0,0,1,.217.023.575.575,0,0,1,.193.1A.555.555,0,0,1,5.478.3.6.6,0,0,1,5.541.5.579.579,0,0,1,5.528.71a.564.564,0,0,1-.235.334L.9,3.6a.533.533,0,0,1-.07.033.575.575,0,0,1-.072.022.613.613,0,0,1-.072.013.625.625,0,0,1-.071,0" transform="translate(279.723 74.054)" fill="#a6c5fe"/>
            <path id="Trazado_833260" d="M.634,6.239a.568.568,0,0,1-.569-.562h0L.007.571a.567.567,0,0,1,.161-.4A.558.558,0,0,1,.345.045.544.544,0,0,1,.562,0,.579.579,0,0,1,.785.045.585.585,0,0,1,.968.166a.576.576,0,0,1,.124.179A.55.55,0,0,1,1.14.561h0s0,0,0,0,0,0,0,.006L1.2,5.677a.57.57,0,0,1-.048.217.585.585,0,0,1-.122.179.573.573,0,0,1-.179.121.548.548,0,0,1-.217.045h0" transform="translate(273.989 72.761)" fill="#a6c5fe"/>
            <path id="Trazado_833261" d="M5.056,3.694a.525.525,0,0,1-.075-.005.61.61,0,0,1-.072-.015c-.024-.006-.047-.014-.07-.023l-.069-.028L.316,1.069A.568.568,0,0,1,.14.928.576.576,0,0,1,.034.736.56.56,0,0,1,.008.519.54.54,0,0,1,.072.3.55.55,0,0,1,.212.129.561.561,0,0,1,.619,0,.55.55,0,0,1,.836.069L.845.075l.011,0,.011,0L.877.089,5.329,2.642a.564.564,0,0,1,.173.147.559.559,0,0,1,.114.413.568.568,0,0,1-.073.216.549.549,0,0,1-.09.116.543.543,0,0,1-.115.087.559.559,0,0,1-.134.054.591.591,0,0,1-.148.019" transform="translate(271.759 74.029)" fill="#a6c5fe"/>
            <path id="Trazado_833262" d="M.614,3.691A.579.579,0,0,1,.39,3.647a.585.585,0,0,1-.183-.121.577.577,0,0,1-.124-.179.551.551,0,0,1,.027-.5A.571.571,0,0,1,.2,2.73a.583.583,0,0,1,.117-.091L4.709.087A.578.578,0,0,1,5.337.1.585.585,0,0,1,5.5.261a.591.591,0,0,1,.082.21.577.577,0,0,1,0,.217.562.562,0,0,1-.243.359l-.009.008-.011.007-.011,0-.009,0L.9,3.62a.4.4,0,0,1-.064.033.493.493,0,0,1-.07.022.6.6,0,0,1-.074.013.712.712,0,0,1-.076,0" transform="translate(271.777 74.031)" fill="#a6c5fe"/>
            <path id="Trazado_833263" d="M.655,6.239a.567.567,0,0,1-.4-.166.575.575,0,0,1-.122-.179.568.568,0,0,1-.047-.217h0L.009.571a.565.565,0,0,1,.16-.4A.556.556,0,0,1,.345.045.543.543,0,0,1,.562,0,.58.58,0,0,1,.785.045.588.588,0,0,1,.969.166a.579.579,0,0,1,.125.179.551.551,0,0,1,.048.217h0s0,0,0,0V.571l.077,5.105a.543.543,0,0,1-.042.217.555.555,0,0,1-.12.179.564.564,0,0,1-.18.121.57.57,0,0,1-.222.045h0" transform="translate(305.727 72.761)" fill="#a6c5fe"/>
            <path id="Trazado_833264" d="M5.069,3.694a.525.525,0,0,1-.075-.005.611.611,0,0,1-.072-.015c-.024-.006-.047-.014-.07-.023l-.07-.028L.32,1.069A.571.571,0,0,1,.143.928.579.579,0,0,1,.036.736.561.561,0,0,1,.01.519.538.538,0,0,1,.073.3.547.547,0,0,1,.212.129.559.559,0,0,1,.619,0,.552.552,0,0,1,.836.069L.845.075l.011,0,.011,0L.877.089,5.339,2.642a.567.567,0,0,1,.174.147.561.561,0,0,1,.115.413.569.569,0,0,1-.073.216.47.47,0,0,1-.085.116.516.516,0,0,1-.115.087.571.571,0,0,1-.137.054.606.606,0,0,1-.15.019" transform="translate(303.501 74.029)" fill="#a6c5fe"/>
            <path id="Trazado_833265" d="M.627,3.691A.58.58,0,0,1,.4,3.647a.588.588,0,0,1-.184-.121.58.58,0,0,1-.125-.179.55.55,0,0,1,.026-.5A.568.568,0,0,1,.208,2.73a.581.581,0,0,1,.117-.091L4.71.087A.579.579,0,0,1,5.337.1.59.59,0,0,1,5.5.261a.594.594,0,0,1,.082.21.577.577,0,0,1,0,.217.559.559,0,0,1-.242.359l-.009.008-.011.007-.011,0-.009,0L.912,3.62a.569.569,0,0,1-.069.033.531.531,0,0,1-.07.022A.566.566,0,0,1,.7,3.687a.674.674,0,0,1-.075,0" transform="translate(303.529 74.031)" fill="#a6c5fe"/>
            <path id="Trazado_833266" d="M.661,6.239a.567.567,0,0,1-.4-.166.575.575,0,0,1-.122-.179A.569.569,0,0,1,.09,5.677h0L.009.571A.568.568,0,0,1,.05.349.562.562,0,0,1,.169.167.555.555,0,0,1,.345.045.542.542,0,0,1,.562,0,.58.58,0,0,1,.785.045.589.589,0,0,1,.969.166a.58.58,0,0,1,.125.179.552.552,0,0,1,.048.217h0V.571l.082,5.105a.569.569,0,0,1-.047.217.582.582,0,0,1-.122.179.57.57,0,0,1-.178.121.547.547,0,0,1-.217.045h0" transform="translate(313.671 72.761)" fill="#a6c5fe"/>
            <path id="Trazado_833267" d="M5.072,3.694A.527.527,0,0,1,5,3.688a.612.612,0,0,1-.072-.015c-.024-.006-.047-.014-.07-.023l-.07-.028L.321,1.069A.573.573,0,0,1,.144.928.58.58,0,0,1,.037.736.561.561,0,0,1,.01.519.538.538,0,0,1,.074.3.547.547,0,0,1,.212.129.558.558,0,0,1,.619,0,.552.552,0,0,1,.836.069L.845.075l.011,0,.011,0L.877.089,5.341,2.642a.568.568,0,0,1,.174.147A.561.561,0,0,1,5.63,3.2a.568.568,0,0,1-.072.216.545.545,0,0,1-.089.116.539.539,0,0,1-.114.087.556.556,0,0,1-.134.054.589.589,0,0,1-.148.019" transform="translate(311.447 74.029)" fill="#a6c5fe"/>
            <path id="Trazado_833268" d="M.629,3.669a.58.58,0,0,1-.224-.045A.589.589,0,0,1,.222,3.5.58.58,0,0,1,.1,3.324a.55.55,0,0,1,.025-.5A.567.567,0,0,1,.21,2.708a.581.581,0,0,1,.117-.091L4.709.064A.567.567,0,0,1,4.924,0a.584.584,0,0,1,.217.023.577.577,0,0,1,.194.1A.558.558,0,0,1,5.479.3.6.6,0,0,1,5.543.5.578.578,0,0,1,5.53.71a.562.562,0,0,1-.233.334L.914,3.6a.566.566,0,0,1-.069.033.532.532,0,0,1-.07.022A.568.568,0,0,1,.7,3.665a.673.673,0,0,1-.075,0" transform="translate(311.465 74.054)" fill="#a6c5fe"/>
            <path id="Trazado_833269" d="M.666,6.239a.568.568,0,0,1-.4-.166.577.577,0,0,1-.122-.179A.568.568,0,0,1,.1,5.677h0L.01.571A.568.568,0,0,1,.051.349.562.562,0,0,1,.169.167.554.554,0,0,1,.346.045.542.542,0,0,1,.562,0,.581.581,0,0,1,.785.045.59.59,0,0,1,.969.166a.58.58,0,0,1,.125.179.552.552,0,0,1,.048.217h0V.571l.086,5.105a.57.57,0,0,1-.047.217.581.581,0,0,1-.121.179.569.569,0,0,1-.178.121.546.546,0,0,1-.217.045h0" transform="translate(321.605 72.761)" fill="#a6c5fe"/>
            <path id="Trazado_833270" d="M5.075,3.694A.526.526,0,0,1,5,3.688a.613.613,0,0,1-.072-.015c-.024-.006-.047-.014-.07-.023l-.07-.028L.322,1.069A.573.573,0,0,1,.145.928.579.579,0,0,1,.038.736.562.562,0,0,1,.011.519.538.538,0,0,1,.074.3.546.546,0,0,1,.212.129.555.555,0,0,1,.836.069L.845.075l.011,0,.011,0L.877.089,5.343,2.642a.569.569,0,0,1,.174.147.562.562,0,0,1,.116.413.567.567,0,0,1-.072.216.544.544,0,0,1-.089.116.539.539,0,0,1-.114.087.556.556,0,0,1-.134.054.59.59,0,0,1-.148.019" transform="translate(319.382 74.029)" fill="#a6c5fe"/>
            <path id="Trazado_833271" d="M.633,3.691a.58.58,0,0,1-.224-.045.589.589,0,0,1-.184-.121A.581.581,0,0,1,.1,3.347a.55.55,0,0,1,.025-.5A.568.568,0,0,1,.213,2.73.58.58,0,0,1,.33,2.639L4.71.087A.579.579,0,0,1,5.338.1.591.591,0,0,1,5.5.261a.6.6,0,0,1,.083.21.576.576,0,0,1,0,.217.558.558,0,0,1-.242.359l-.009.008-.011.007-.011,0-.009,0L.918,3.62a.4.4,0,0,1-.064.033.49.49,0,0,1-.07.022.6.6,0,0,1-.074.013.711.711,0,0,1-.076,0" transform="translate(319.4 74.031)" fill="#a6c5fe"/>
            <path id="Trazado_833272" d="M.65,6.239a.57.57,0,0,1-.57-.562h0L.008.571a.565.565,0,0,1,.16-.4A.556.556,0,0,1,.345.045.543.543,0,0,1,.562,0,.58.58,0,0,1,.785.045.588.588,0,0,1,.969.166a.579.579,0,0,1,.125.179.551.551,0,0,1,.048.217h0s0,0,0,0V.571l.073,5.105a.543.543,0,0,1-.042.217.557.557,0,0,1-.12.179.567.567,0,0,1-.4.166h0" transform="translate(297.792 72.761)" fill="#a6c5fe"/>
            <path id="Trazado_833273" d="M5.026,3.672a.528.528,0,0,1-.075-.005.611.611,0,0,1-.072-.015c-.024-.006-.047-.014-.07-.023L4.739,3.6.28,1.048A.562.562,0,0,1,.114.893a.573.573,0,0,1-.1-.42A.551.551,0,0,1,.1.262.538.538,0,0,1,.237.108.559.559,0,0,1,.423.019.568.568,0,0,1,.838.068L5.3,2.62a.567.567,0,0,1,.173.147.561.561,0,0,1,.115.413.569.569,0,0,1-.073.216.47.47,0,0,1-.085.116.516.516,0,0,1-.115.087.572.572,0,0,1-.137.054.606.606,0,0,1-.15.019" transform="translate(295.605 74.051)" fill="#a6c5fe"/>
            <path id="Trazado_833274" d="M.623,3.669A.58.58,0,0,1,.4,3.624.587.587,0,0,1,.216,3.5a.579.579,0,0,1-.125-.179.55.55,0,0,1,.026-.5.569.569,0,0,1,.089-.116.581.581,0,0,1,.117-.091L4.709.064A.567.567,0,0,1,4.924,0a.584.584,0,0,1,.217.023.576.576,0,0,1,.193.1A.557.557,0,0,1,5.479.3.6.6,0,0,1,5.542.5.578.578,0,0,1,5.529.71a.563.563,0,0,1-.234.334L.908,3.6A.567.567,0,0,1,.84,3.63a.534.534,0,0,1-.07.022A.568.568,0,0,1,.7,3.665a.674.674,0,0,1-.075,0" transform="translate(295.594 74.054)" fill="#a6c5fe"/>
            <path id="Trazado_833275" d="M.644,6.228a.569.569,0,0,1-.569-.562h0L.007.561A.556.556,0,0,1,.049.34.543.543,0,0,1,.169.162.557.557,0,0,1,.35.043.585.585,0,0,1,.572,0,.554.554,0,0,1,.789.045a.585.585,0,0,1,.3.3.553.553,0,0,1,.048.217l.068,5.1a.543.543,0,0,1-.042.217.557.557,0,0,1-.12.179.567.567,0,0,1-.4.166h0" transform="translate(289.278 72.21)" fill="#f7f8fc"/>
            <path id="Trazado_833276" d="M5.062,3.693a.527.527,0,0,1-.075-.005.611.611,0,0,1-.072-.015c-.024-.006-.047-.014-.07-.023l-.07-.028L.318,1.069A.57.57,0,0,1,.141.928.577.577,0,0,1,.035.736.56.56,0,0,1,.009.519.539.539,0,0,1,.073.3.548.548,0,0,1,.212.129.56.56,0,0,1,.619,0,.551.551,0,0,1,.836.069L.845.075l.011,0,.011,0L.877.089,5.333,2.641a.565.565,0,0,1,.173.147.56.56,0,0,1,.115.413.568.568,0,0,1-.073.216.583.583,0,0,1-.2.2.57.57,0,0,1-.134.056.556.556,0,0,1-.148.02" transform="translate(287.061 73.468)" fill="#f7f8fc"/>
            <path id="Trazado_833277" d="M.62,3.691A.579.579,0,0,1,.4,3.646a.587.587,0,0,1-.183-.121.577.577,0,0,1-.125-.179.551.551,0,0,1,.027-.5A.57.57,0,0,1,.2,2.73.584.584,0,0,1,.32,2.639L4.709.087A.579.579,0,0,1,5.337.1.588.588,0,0,1,5.5.261a.593.593,0,0,1,.082.21.576.576,0,0,1,0,.217.561.561,0,0,1-.243.359l-.009.007-.011.007-.011,0-.009,0L.905,3.619l-.069.028c-.023.009-.046.016-.07.023a.6.6,0,0,1-.072.015.525.525,0,0,1-.075.005" transform="translate(287.079 73.47)" fill="#f7f8fc"/>
            <path id="Trazado_833278" d="M.639,6.238A.569.569,0,0,1,.07,5.676h0L.007.571a.567.567,0,0,1,.161-.4A.557.557,0,0,1,.345.045.543.543,0,0,1,.562,0,.579.579,0,0,1,.785.045.586.586,0,0,1,.968.166a.576.576,0,0,1,.125.179A.551.551,0,0,1,1.14.561h0s0,0,0,0V.571l.064,5.1a.544.544,0,0,1-.042.217.558.558,0,0,1-.12.179.568.568,0,0,1-.4.166h0" transform="translate(281.344 72.2)" fill="#f7f8fc"/>
            <path id="Trazado_833279" d="M5.058,3.693a.525.525,0,0,1-.075-.005.611.611,0,0,1-.072-.015c-.024-.006-.047-.014-.07-.023l-.069-.028L.317,1.069A.569.569,0,0,1,.141.928.576.576,0,0,1,.034.736.56.56,0,0,1,.009.519.54.54,0,0,1,.073.3.55.55,0,0,1,.212.129.56.56,0,0,1,.619,0,.551.551,0,0,1,.836.069L.845.075l.011,0,.011,0L.877.089,5.331,2.641a.565.565,0,0,1,.173.147.56.56,0,0,1,.114.413.57.57,0,0,1-.073.216.558.558,0,0,1-.091.112.607.607,0,0,1-.117.087.594.594,0,0,1-.135.056.536.536,0,0,1-.144.02" transform="translate(279.126 73.468)" fill="#f7f8fc"/>
            <path id="Trazado_833280" d="M.617,3.691a.579.579,0,0,1-.224-.045A.586.586,0,0,1,.21,3.525a.577.577,0,0,1-.125-.179.551.551,0,0,1,.027-.5A.57.57,0,0,1,.2,2.73a.583.583,0,0,1,.117-.091L4.709.087A.578.578,0,0,1,5.337.1.587.587,0,0,1,5.5.261a.593.593,0,0,1,.082.21.577.577,0,0,1,0,.217.561.561,0,0,1-.243.359l-.009.007-.011.007-.011,0-.009,0L.9,3.619l-.069.028c-.023.009-.046.016-.07.023a.6.6,0,0,1-.072.015.526.526,0,0,1-.075.005" transform="translate(279.144 73.47)" fill="#f7f8fc"/>
            <path id="Trazado_833281" d="M.633,6.228a.568.568,0,0,1-.568-.562h0L.006.561A.556.556,0,0,1,.049.34.544.544,0,0,1,.169.162.558.558,0,0,1,.349.043.585.585,0,0,1,.572,0,.554.554,0,0,1,.789.045a.584.584,0,0,1,.3.3A.553.553,0,0,1,1.14.561l.059,5.1a.544.544,0,0,1-.042.217.558.558,0,0,1-.12.179.568.568,0,0,1-.4.166h0" transform="translate(273.411 72.21)" fill="#f7f8fc"/>
            <path id="Trazado_833282" d="M5.055,3.693a.525.525,0,0,1-.075-.005.611.611,0,0,1-.072-.015c-.024-.006-.047-.014-.07-.023l-.069-.028L.316,1.069A.568.568,0,0,1,.14.928.575.575,0,0,1,.034.736.56.56,0,0,1,.008.519.54.54,0,0,1,.072.3.55.55,0,0,1,.212.129.56.56,0,0,1,.619,0,.55.55,0,0,1,.836.069L.845.075l.011,0,.011,0L.877.089,5.329,2.641a.564.564,0,0,1,.173.147.559.559,0,0,1,.114.413.569.569,0,0,1-.073.216.491.491,0,0,1-.085.112.556.556,0,0,1-.115.087.585.585,0,0,1-.137.056.571.571,0,0,1-.15.02" transform="translate(271.181 73.468)" fill="#f7f8fc"/>
            <path id="Trazado_833283" d="M.614,3.691A.579.579,0,0,1,.39,3.646a.585.585,0,0,1-.183-.121.576.576,0,0,1-.124-.179.551.551,0,0,1,.027-.5A.571.571,0,0,1,.2,2.73a.585.585,0,0,1,.117-.091L4.709.087A.578.578,0,0,1,5.337.1.586.586,0,0,1,5.5.261a.592.592,0,0,1,.082.21.576.576,0,0,1,0,.217.562.562,0,0,1-.243.359l-.009.007-.011.007-.011,0-.009,0L.9,3.619.83,3.648c-.023.009-.046.016-.07.023a.6.6,0,0,1-.072.015.525.525,0,0,1-.075.005" transform="translate(271.209 73.47)" fill="#f7f8fc"/>
            <path id="Trazado_833284" d="M.655,6.238a.567.567,0,0,1-.4-.166.575.575,0,0,1-.122-.179.569.569,0,0,1-.046-.217h0L.009.571a.565.565,0,0,1,.16-.4A.555.555,0,0,1,.345.045.543.543,0,0,1,.562,0,.58.58,0,0,1,.785.045.588.588,0,0,1,.969.166a.578.578,0,0,1,.125.179.551.551,0,0,1,.048.217h0s0,0,0,0V.571l.077,5.1a.569.569,0,0,1-.047.217.582.582,0,0,1-.122.179.57.57,0,0,1-.178.121.547.547,0,0,1-.217.045h0" transform="translate(305.156 72.2)" fill="#f7f8fc"/>
            <path id="Trazado_833285" d="M5.068,3.693a.526.526,0,0,1-.075-.005.61.61,0,0,1-.072-.015c-.024-.006-.047-.014-.07-.023l-.07-.028L.32,1.069A.572.572,0,0,1,.143.928.578.578,0,0,1,.036.736.56.56,0,0,1,.01.519.538.538,0,0,1,.073.3.547.547,0,0,1,.212.129.559.559,0,0,1,.619,0,.552.552,0,0,1,.836.069L.845.075l.011,0,.011,0L.877.089,5.338,2.641a.567.567,0,0,1,.173.147.561.561,0,0,1,.115.413.568.568,0,0,1-.073.216.576.576,0,0,1-.089.112.583.583,0,0,1-.115.087.569.569,0,0,1-.134.056.556.556,0,0,1-.148.02" transform="translate(302.931 73.468)" fill="#f7f8fc"/>
            <path id="Trazado_833286" d="M.626,3.691A.58.58,0,0,1,.4,3.646a.587.587,0,0,1-.184-.121.578.578,0,0,1-.125-.179.55.55,0,0,1,.026-.5A.569.569,0,0,1,.208,2.73a.582.582,0,0,1,.117-.091L4.709.087A.579.579,0,0,1,5.337.1.589.589,0,0,1,5.5.261a.593.593,0,0,1,.082.21.577.577,0,0,1,0,.217.559.559,0,0,1-.242.359l-.009.007-.011.007-.011,0-.009,0L.911,3.619a.7.7,0,0,1-.064.028.687.687,0,0,1-.07.023A.634.634,0,0,1,.7,3.685a.554.554,0,0,1-.076.005" transform="translate(302.949 73.47)" fill="#f7f8fc"/>
            <path id="Trazado_833287" d="M.66,6.228a.567.567,0,0,1-.4-.166.575.575,0,0,1-.122-.179A.569.569,0,0,1,.09,5.666h0L.009.561A.555.555,0,0,1,.05.34.54.54,0,0,1,.17.162.555.555,0,0,1,.35.043.584.584,0,0,1,.572,0,.555.555,0,0,1,.79.045a.587.587,0,0,1,.3.3.555.555,0,0,1,.048.217l.081,5.1a.583.583,0,0,1-.046.217.572.572,0,0,1-.119.179.554.554,0,0,1-.4.166h0" transform="translate(313.09 72.21)" fill="#f7f8fc"/>
            <path id="Trazado_833288" d="M5.071,3.693A.527.527,0,0,1,5,3.688a.61.61,0,0,1-.072-.015c-.024-.006-.047-.014-.07-.023l-.07-.028L.321,1.069A.572.572,0,0,1,.144.928.579.579,0,0,1,.037.736.56.56,0,0,1,.011.519.537.537,0,0,1,.074.3.547.547,0,0,1,.212.129.558.558,0,0,1,.619,0,.552.552,0,0,1,.836.069L.845.075l.011,0,.011,0L.877.089,5.34,2.641a.568.568,0,0,1,.174.147A.561.561,0,0,1,5.63,3.2a.567.567,0,0,1-.072.216.581.581,0,0,1-.2.2.569.569,0,0,1-.134.056.555.555,0,0,1-.148.02" transform="translate(310.866 73.468)" fill="#f7f8fc"/>
            <path id="Trazado_833289" d="M.629,3.691a.58.58,0,0,1-.224-.045.589.589,0,0,1-.184-.121A.58.58,0,0,1,.1,3.346a.55.55,0,0,1,.025-.5A.567.567,0,0,1,.21,2.73a.58.58,0,0,1,.117-.091L4.709.087A.579.579,0,0,1,5.337.1.59.59,0,0,1,5.5.261a.594.594,0,0,1,.083.21.576.576,0,0,1,0,.217.559.559,0,0,1-.242.359l-.009.007-.011.007-.011,0-.009,0L.914,3.619c-.023.01-.046.02-.07.028S.8,3.664.772,3.67A.659.659,0,0,1,.7,3.685a.488.488,0,0,1-.07.005" transform="translate(310.895 73.47)" fill="#f7f8fc"/>
            <path id="Trazado_833290" d="M.666,6.238a.568.568,0,0,1-.4-.166.576.576,0,0,1-.122-.179.569.569,0,0,1-.047-.217h0L.01.571A.568.568,0,0,1,.051.349.562.562,0,0,1,.169.167.554.554,0,0,1,.345.045.542.542,0,0,1,.562,0,.581.581,0,0,1,.785.045.59.59,0,0,1,.969.166a.58.58,0,0,1,.125.179.553.553,0,0,1,.048.217h0s0,0,0,0V.571l.086,5.1a.542.542,0,0,1-.041.217.555.555,0,0,1-.119.179.563.563,0,0,1-.18.121.57.57,0,0,1-.222.045h0" transform="translate(321.024 72.2)" fill="#f7f8fc"/>
            <path id="Trazado_833291" d="M5.074,3.693A.526.526,0,0,1,5,3.688a.61.61,0,0,1-.072-.015c-.024-.006-.047-.014-.07-.023l-.07-.028L.321,1.069A.573.573,0,0,1,.144.928.58.58,0,0,1,.038.736.561.561,0,0,1,.011.519.537.537,0,0,1,.074.3.546.546,0,0,1,.212.129.554.554,0,0,1,.836.069L.845.075l.011,0,.011,0L.877.089,5.342,2.641a.568.568,0,0,1,.174.147.562.562,0,0,1,.044.629.488.488,0,0,1-.085.112.553.553,0,0,1-.115.087.582.582,0,0,1-.136.056.571.571,0,0,1-.15.02" transform="translate(318.802 73.468)" fill="#f7f8fc"/>
            <path id="Trazado_833292" d="M.633,3.691a.581.581,0,0,1-.224-.045.589.589,0,0,1-.184-.121A.58.58,0,0,1,.1,3.346a.55.55,0,0,1,.025-.5A.565.565,0,0,1,.213,2.73a.58.58,0,0,1,.116-.091L4.709.087A.579.579,0,0,1,5.337.1.591.591,0,0,1,5.5.261a.6.6,0,0,1,.083.21.576.576,0,0,1,0,.217.558.558,0,0,1-.242.359l-.009.007-.011.007-.011,0-.009,0L.918,3.619l-.069.028c-.023.009-.046.016-.07.023a.6.6,0,0,1-.072.015.525.525,0,0,1-.075.005" transform="translate(318.829 73.47)" fill="#f7f8fc"/>
            <path id="Trazado_833293" d="M.65,6.228a.57.57,0,0,1-.57-.562h0L.008.561A.555.555,0,0,1,.05.34.541.541,0,0,1,.17.162.556.556,0,0,1,.35.043.585.585,0,0,1,.572,0,.555.555,0,0,1,.789.045a.585.585,0,0,1,.3.3.554.554,0,0,1,.048.217l.072,5.1a.57.57,0,0,1-.048.217.583.583,0,0,1-.122.179.571.571,0,0,1-.178.121.547.547,0,0,1-.217.045h0" transform="translate(297.223 72.21)" fill="#f7f8fc"/>
            <path id="Trazado_833294" d="M5.065,3.693a.526.526,0,0,1-.075-.005.61.61,0,0,1-.072-.015c-.024-.006-.047-.014-.07-.023l-.07-.028L.319,1.069A.571.571,0,0,1,.142.928.577.577,0,0,1,.036.736.56.56,0,0,1,.009.519.539.539,0,0,1,.073.3.548.548,0,0,1,.212.129.559.559,0,0,1,.619,0,.551.551,0,0,1,.836.069L.845.075l.011,0,.011,0L.877.089,5.336,2.641a.566.566,0,0,1,.173.147.56.56,0,0,1,.115.413.567.567,0,0,1-.073.216.583.583,0,0,1-.2.2.57.57,0,0,1-.134.056.556.556,0,0,1-.148.02" transform="translate(294.996 73.468)" fill="#f7f8fc"/>
            <path id="Trazado_833295" d="M.623,3.691A.58.58,0,0,1,.4,3.646a.587.587,0,0,1-.184-.121.579.579,0,0,1-.125-.179.55.55,0,0,1,.026-.5A.568.568,0,0,1,.206,2.73a.581.581,0,0,1,.117-.091L4.709.087A.579.579,0,0,1,5.337.1.588.588,0,0,1,5.5.261a.592.592,0,0,1,.082.21.577.577,0,0,1,0,.217.56.56,0,0,1-.243.359l-.009.007-.011.007-.011,0-.009,0L.908,3.619a.7.7,0,0,1-.064.028.687.687,0,0,1-.07.023A.635.635,0,0,1,.7,3.685a.554.554,0,0,1-.076.005" transform="translate(295.014 73.47)" fill="#f7f8fc"/>
            <path id="Trazado_833296" d="M17.011,2.258H1.166a1.132,1.132,0,0,1-.441-.089,1.168,1.168,0,0,1-.612-.6,1.125,1.125,0,0,1-.1-.438A1.113,1.113,0,0,1,1.132,0H16.973a1.133,1.133,0,0,1,.441.089,1.17,1.17,0,0,1,.613.6,1.126,1.126,0,0,1,.1.438,1.111,1.111,0,0,1-1.113,1.129" transform="translate(305.485 56.658)" fill="#516dff"/>
            <path id="Trazado_833297" d="M27.759,2.258H1.157a1.13,1.13,0,0,1-.44-.089,1.162,1.162,0,0,1-.61-.6,1.123,1.123,0,0,1-.094-.438A1.108,1.108,0,0,1,.1.691,1.119,1.119,0,0,1,1.131,0h26.6a1.132,1.132,0,0,1,.44.089,1.166,1.166,0,0,1,.612.6,1.124,1.124,0,0,1,.1.438,1.108,1.108,0,0,1-.321.8,1.113,1.113,0,0,1-.794.332" transform="translate(272.662 56.658)" fill="#516dff"/>
            <path id="Trazado_833298" d="M17.009,2.258H1.165a1.132,1.132,0,0,1-.441-.089,1.168,1.168,0,0,1-.612-.6,1.125,1.125,0,0,1-.1-.438,1.107,1.107,0,0,1,.321-.8A1.112,1.112,0,0,1,1.131,0h15.84a1.133,1.133,0,0,1,.441.089,1.17,1.17,0,0,1,.613.6,1.126,1.126,0,0,1,.1.438,1.111,1.111,0,0,1-1.113,1.129" transform="translate(304.916 56.088)" fill="#dfe8fa"/>
            <path id="Trazado_833299" d="M27.758,2.258H1.157a1.13,1.13,0,0,1-.44-.089,1.161,1.161,0,0,1-.61-.6,1.122,1.122,0,0,1-.094-.438A1.107,1.107,0,0,1,.1.691,1.119,1.119,0,0,1,1.132,0H27.725a1.131,1.131,0,0,1,.44.089,1.166,1.166,0,0,1,.612.6,1.124,1.124,0,0,1,.1.438,1.108,1.108,0,0,1-.321.8,1.113,1.113,0,0,1-.794.332h0" transform="translate(272.094 56.088)" fill="#dfe8fa"/>
            <path id="Trazado_833300" d="M5.513,2.579A4.007,4.007,0,0,1,4.7,2.194,4.014,4.014,0,0,1,4,1.645,4,4,0,0,1,3.438.957a3.95,3.95,0,0,1-.4-.8A.215.215,0,0,0,2.993.075.239.239,0,0,0,2.918.022.257.257,0,0,0,2.829,0a.248.248,0,0,0-.093.012.2.2,0,0,0-.043.021.222.222,0,0,0-.038.031A.257.257,0,0,0,2.621.1.306.306,0,0,0,2.6.153a3.85,3.85,0,0,1-.379.8,3.864,3.864,0,0,1-.545.688,3.887,3.887,0,0,1-.688.549,3.907,3.907,0,0,1-.806.385A.249.249,0,0,0,.1,2.63.23.23,0,0,0,.048,2.7.22.22,0,0,0,.03,2.79a.228.228,0,0,0,.019.091.2.2,0,0,0,.021.043.219.219,0,0,0,.069.067.2.2,0,0,0,.044.02A4.006,4.006,0,0,1,1,3.4a4.015,4.015,0,0,1,.7.549,4,4,0,0,1,.561.689,3.956,3.956,0,0,1,.4.8.214.214,0,0,0,.048.079.24.24,0,0,0,.075.052.258.258,0,0,0,.09.022A.248.248,0,0,0,2.96,5.58.2.2,0,0,0,3,5.559a.22.22,0,0,0,.039-.031.259.259,0,0,0,.033-.04A.3.3,0,0,0,3.1,5.439,3.871,3.871,0,0,1,4.713,3.4a3.9,3.9,0,0,1,.806-.385A.249.249,0,0,0,5.6,2.96a.231.231,0,0,0,.051-.073A.219.219,0,0,0,5.665,2.8a.227.227,0,0,0-.019-.091.2.2,0,0,0-.021-.043A.219.219,0,0,0,5.557,2.6a.205.205,0,0,0-.044-.02" transform="translate(267.05 8.924)" fill="#00c4ff"/>
            <path id="Trazado_833301" d="M5.523,2.592a4,4,0,0,1-.816-.387,4.018,4.018,0,0,1-.7-.552A4.005,4.005,0,0,1,3.445.962a3.968,3.968,0,0,1-.4-.808A.215.215,0,0,0,3,.075.24.24,0,0,0,2.926.023.257.257,0,0,0,2.836,0a.248.248,0,0,0-.093.012A.2.2,0,0,0,2.7.033a.223.223,0,0,0-.039.031A.257.257,0,0,0,2.628.1.305.305,0,0,0,2.6.154a3.88,3.88,0,0,1-.381.808,3.894,3.894,0,0,1-.548.692,3.908,3.908,0,0,1-.691.552,3.919,3.919,0,0,1-.808.387.25.25,0,0,0-.079.052.232.232,0,0,0-.051.074A.221.221,0,0,0,.025,2.8.228.228,0,0,0,.044,2.9a.2.2,0,0,0,.021.043.219.219,0,0,0,.069.068.2.2,0,0,0,.044.021,4,4,0,0,1,.816.387,4.016,4.016,0,0,1,.7.552,4,4,0,0,1,.561.693,3.97,3.97,0,0,1,.4.808.216.216,0,0,0,.048.079.24.24,0,0,0,.075.053.257.257,0,0,0,.09.022.248.248,0,0,0,.093-.012A.2.2,0,0,0,3,5.588a.222.222,0,0,0,.039-.031.259.259,0,0,0,.033-.041A.306.306,0,0,0,3.1,5.467a3.9,3.9,0,0,1,2.428-2.44.25.25,0,0,0,.079-.052A.232.232,0,0,0,5.657,2.9a.221.221,0,0,0,.018-.087.228.228,0,0,0-.019-.092.2.2,0,0,0-.021-.038A.266.266,0,0,0,5.6,2.65a.312.312,0,0,0-.038-.032.321.321,0,0,0-.044-.026" transform="translate(250.936 32.439)" fill="#00c4ff"/>
            <path id="Trazado_833302" d="M5.533,2.585A4.035,4.035,0,0,1,4.716,2.2a4.051,4.051,0,0,1-.7-.55,4.037,4.037,0,0,1-.565-.69,3.987,3.987,0,0,1-.4-.805A.217.217,0,0,0,3,.075.241.241,0,0,0,2.922.023.259.259,0,0,0,2.832,0a.247.247,0,0,0-.093.012A.2.2,0,0,0,2.7.033a.221.221,0,0,0-.038.031A.258.258,0,0,0,2.625.1.3.3,0,0,0,2.6.154a3.837,3.837,0,0,1-.375.805,3.845,3.845,0,0,1-.543.69A3.862,3.862,0,0,1,1,2.2a3.885,3.885,0,0,1-.8.386.248.248,0,0,0-.078.052.229.229,0,0,0-.05.073A.219.219,0,0,0,.045,2.8a.228.228,0,0,0,.019.091.205.205,0,0,0,.021.043A.222.222,0,0,0,.155,3,.206.206,0,0,0,.2,3.019a4.032,4.032,0,0,1,.817.386,4.048,4.048,0,0,1,.7.55,4.034,4.034,0,0,1,.565.691,3.99,3.99,0,0,1,.4.806.217.217,0,0,0,.049.079.242.242,0,0,0,.075.052.258.258,0,0,0,.09.022.247.247,0,0,0,.093-.012.2.2,0,0,0,.043-.021.219.219,0,0,0,.038-.031A.258.258,0,0,0,3.107,5.5a.3.3,0,0,0,.026-.049,3.851,3.851,0,0,1,1.6-2.047,3.883,3.883,0,0,1,.8-.386.247.247,0,0,0,.078-.052.229.229,0,0,0,.05-.073.219.219,0,0,0,.018-.087.228.228,0,0,0-.019-.091.127.127,0,0,0-.016-.042.155.155,0,0,0-.029-.035.242.242,0,0,0-.04-.029.406.406,0,0,0-.05-.025" transform="translate(314.504 20.106)" fill="#00c4ff"/>
            <path id="Trazado_833303" d="M5.518,2.576A4.021,4.021,0,0,1,4.7,2.192,4.03,4.03,0,0,1,4,1.644,4.007,4.007,0,0,1,3.439.956a3.961,3.961,0,0,1-.4-.8A.214.214,0,0,0,2.992.075.241.241,0,0,0,2.917.022.258.258,0,0,0,2.827,0a.247.247,0,0,0-.093.012.2.2,0,0,0-.043.021.219.219,0,0,0-.038.031A.256.256,0,0,0,2.62.1a.3.3,0,0,0-.026.049,3.831,3.831,0,0,1-.376.8,3.849,3.849,0,0,1-.543.688,3.867,3.867,0,0,1-.686.548,3.891,3.891,0,0,1-.8.384.248.248,0,0,0-.078.051.23.23,0,0,0-.05.073.218.218,0,0,0-.018.086.227.227,0,0,0,.019.091.2.2,0,0,0,.021.043.22.22,0,0,0,.069.067.2.2,0,0,0,.044.02,4.018,4.018,0,0,1,.815.384,4.028,4.028,0,0,1,.7.549,4.011,4.011,0,0,1,.563.688,3.963,3.963,0,0,1,.4.8.216.216,0,0,0,.049.079.241.241,0,0,0,.075.052.258.258,0,0,0,.09.022.248.248,0,0,0,.093-.012.2.2,0,0,0,.043-.021.221.221,0,0,0,.038-.031.258.258,0,0,0,.033-.04.3.3,0,0,0,.026-.049A3.852,3.852,0,0,1,4.72,3.393a3.889,3.889,0,0,1,.8-.384A.248.248,0,0,0,5.6,2.958a.229.229,0,0,0,.05-.073A.218.218,0,0,0,5.671,2.8a.226.226,0,0,0-.019-.091.2.2,0,0,0-.021-.043A.22.22,0,0,0,5.562,2.6a.206.206,0,0,0-.044-.02" transform="translate(293.445 4.459)" fill="#7c3eff"/>
            <path id="Trazado_833304" d="M5.548,2.6a4.045,4.045,0,0,1-.82-.387,4.067,4.067,0,0,1-.706-.553A4.059,4.059,0,0,1,3.456.963a4.013,4.013,0,0,1-.4-.809A.219.219,0,0,0,3,.075.243.243,0,0,0,2.928.023.259.259,0,0,0,2.838,0a.247.247,0,0,0-.093.012A.2.2,0,0,0,2.7.033a.22.22,0,0,0-.038.031.258.258,0,0,0-.033.041.307.307,0,0,0-.026.049A3.854,3.854,0,0,1,2.23.963a3.855,3.855,0,0,1-.543.693A3.867,3.867,0,0,1,1,2.209,3.884,3.884,0,0,1,.194,2.6a.248.248,0,0,0-.078.052.23.23,0,0,0-.05.074.221.221,0,0,0-.018.087.23.23,0,0,0,.02.092.207.207,0,0,0,.021.043.222.222,0,0,0,.069.068A.206.206,0,0,0,.2,3.033a4.044,4.044,0,0,1,.819.387,4.068,4.068,0,0,1,.706.553,4.057,4.057,0,0,1,.567.694,4.017,4.017,0,0,1,.4.81.218.218,0,0,0,.049.079.243.243,0,0,0,.075.053.259.259,0,0,0,.09.022.247.247,0,0,0,.093-.012A.2.2,0,0,0,3.049,5.6a.22.22,0,0,0,.038-.031.259.259,0,0,0,.033-.041.3.3,0,0,0,.026-.049A3.866,3.866,0,0,1,5.556,3.033a.247.247,0,0,0,.078-.052.23.23,0,0,0,.05-.074A.22.22,0,0,0,5.7,2.82a.23.23,0,0,0-.02-.092.207.207,0,0,0-.021-.043.222.222,0,0,0-.069-.068A.207.207,0,0,0,5.548,2.6" transform="translate(324.434 40.315)" fill="#7c3eff"/>
            <path id="Trazado_833305" d="M91.252,44.817a45.107,45.107,0,0,1-3.707,17.566,45.9,45.9,0,0,1-42.11,27.7,44.547,44.547,0,0,1-31.9-13.306A44.222,44.222,0,0,1,.829,44.817,45.125,45.125,0,0,1,4.7,27.319,45.9,45.9,0,0,1,46.64,0,44.545,44.545,0,0,1,78.317,13.08,44.239,44.239,0,0,1,91.252,44.817" transform="translate(0.01 0)" fill="#d9f6ff"/>
            <path id="Trazado_833306" d="M36.948.257c-2.271,1.825-5.677,4.583-9.512,7.7s-8.1,6.584-12.089,9.828-7.693,6.265-10.4,8.473L.523,29.86,36.861,59.91,74,29.86l-4.327-3.606c-2.65-2.208-6.275-5.227-10.175-8.473S51.43,11.068,47.676,7.953s-7.084-5.871-9.306-7.7a1.066,1.066,0,0,0-.332-.193A1.1,1.1,0,0,0,37.666,0a1.128,1.128,0,0,0-.375.064,1.146,1.146,0,0,0-.343.193" transform="translate(8.748 17.2)" fill="#879aff"/>
            <path id="Trazado_833307" d="M49.07,64.364H2.046A2.013,2.013,0,0,1,.033,62.316l.974-60.3a2.012,2.012,0,0,1,.173-.785A2.094,2.094,0,0,1,2.28.159,2.042,2.042,0,0,1,3.072,0H49.766a2.013,2.013,0,0,1,1.859,1.236,1.98,1.98,0,0,1,.152.785l-.639,60.3a2.057,2.057,0,0,1-.17.8,2.085,2.085,0,0,1-1.1,1.088,2.052,2.052,0,0,1-.8.16" transform="translate(19.882 26.165)" fill="#ffb6c7"/>
            <path id="Trazado_833308" d="M37.1,30.051.756,0,0,43.47H73.83L74.237,0Z" transform="translate(8.514 47.059)" fill="#005afd"/>
            <path id="Trazado_833309" d="M38.034.252,73.84,29.81H0L36.6.252a1.159,1.159,0,0,1,1.1-.189,1.12,1.12,0,0,1,.34.189" transform="translate(8.514 60.719)" fill="#879aff"/>
            <path id="Trazado_833310" d="M31.7,25.88a2.93,2.93,0,0,0,2.909-3.343,2.858,2.858,0,0,0-.261-.851,2.84,2.84,0,0,0-.23-.389L19.993,1.21a2.816,2.816,0,0,0-.828-.781A2.877,2.877,0,0,0,18.131.04a2.948,2.948,0,0,0-2.174.492q-.1.068-.193.146T15.585.84q-.086.085-.166.178t-.153.191L.606,21.307A2.916,2.916,0,0,0,.078,23.47a2.869,2.869,0,0,0,.375,1.042,2.812,2.812,0,0,0,.775.839,2.9,2.9,0,0,0,1.684.539H31.7Z" transform="translate(28.599 30.655)" fill="#7c3eff"/>
            <path id="Trazado_833311" d="M2.417,0A2.368,2.368,0,0,0,1.5.185,2.406,2.406,0,0,0,.229,1.435a2.349,2.349,0,0,0-.2.911A2.3,2.3,0,0,0,.7,4a2.318,2.318,0,0,0,1.653.69,2.355,2.355,0,0,0,.916-.185A2.42,2.42,0,0,0,4.541,3.256a2.335,2.335,0,0,0,.2-.911h0A2.275,2.275,0,0,0,4.077.685a2.313,2.313,0,0,0-.743-.5A2.356,2.356,0,0,0,2.417,0h0" transform="translate(43.579 48.927)" fill="#dfe8fa"/>
            <path id="Trazado_833312" d="M4.148,0H.823A.682.682,0,0,0,.2.41.67.67,0,0,0,.142.668V.719l.57,9.75a.656.656,0,0,0,.412.581.674.674,0,0,0,.252.048H3.3a.684.684,0,0,0,.614-.381.669.669,0,0,0,.067-.248L4.81.719A.644.644,0,0,0,4.654.23a.671.671,0,0,0-.2-.158A.705.705,0,0,0,4.189,0H4.148" transform="translate(43.686 36.165)" fill="#dfe8fa"/>
            <path id="Trazado_833313" d="M4.809,1.72,3.439.334a1.114,1.114,0,0,0-.376-.25A1.152,1.152,0,0,0,2.632,0a1.17,1.17,0,0,0-.819.334h0L.395,1.72a1.159,1.159,0,0,0-.35.81,1.138,1.138,0,0,0,.076.432,1.108,1.108,0,0,0,.245.378h0L1.735,4.727a1.114,1.114,0,0,0,.376.251,1.153,1.153,0,0,0,.432.084,1.17,1.17,0,0,0,.82-.334h0L4.781,3.34a1.181,1.181,0,0,0,.26-.377,1.147,1.147,0,0,0,.094-.429,1.117,1.117,0,0,0-.326-.814h0" transform="translate(6.869 33.847)" fill="#00c4ff"/>
            <path id="Trazado_833314" d="M3.237,4.751,4.814,3.208a1,1,0,0,0,.222-.323.975.975,0,0,0,.078-.367.955.955,0,0,0-.279-.69L3.307.287A.966.966,0,0,0,2.984.072.977.977,0,0,0,2.616,0a.994.994,0,0,0-.37.072,1.008,1.008,0,0,0-.329.215L.34,1.828a1,1,0,0,0-.222.323.975.975,0,0,0-.078.367.954.954,0,0,0,.278.69L1.847,4.751a.966.966,0,0,0,.322.215.977.977,0,0,0,.368.072.994.994,0,0,0,.371-.072,1.008,1.008,0,0,0,.329-.215" transform="translate(23.592 12.555)" fill="#00c4ff"/>
            <path id="Trazado_833315" d="M3.234,4.743,4.805,3.2a1,1,0,0,0,.221-.323A.971.971,0,0,0,5.1,2.514a.955.955,0,0,0-.28-.689L3.292.287A.97.97,0,0,0,2.6,0a.992.992,0,0,0-.37.072A1,1,0,0,0,1.9.287L.332,1.825a1,1,0,0,0-.221.323.971.971,0,0,0-.077.366.955.955,0,0,0,.28.689l1.531,1.54a.934.934,0,0,0,.318.209,1,1,0,0,0,.369.07,1.029,1.029,0,0,0,.373-.07,1,1,0,0,0,.33-.209" transform="translate(46.791 5.3)" fill="#7c3eff"/>
            <path id="Rectángulo_386979" d="M.327,1.829,1.9.287A1,1,0,0,1,2.225.072.991.991,0,0,1,2.6,0a.972.972,0,0,1,.692.287h0L4.823,1.829a.965.965,0,0,1,.205,1.058,1,1,0,0,1-.221.324h0L3.237,4.754a1,1,0,0,1-.328.216.991.991,0,0,1-.37.072.973.973,0,0,1-.692-.288h0L.311,3.211A.962.962,0,0,1,.1,2.886a.975.975,0,0,1,.009-.737.958.958,0,0,1,.221-.319Z" transform="translate(62.601 15.889)" fill="#00c4ff"/>
            <path id="Rectángulo_386980" d="M.313,1.834,1.883.288A1,1,0,0,1,2.211.072.99.99,0,0,1,2.582,0a.975.975,0,0,1,.693.288l1.54,1.546a.969.969,0,0,1,.207,1.06,1,1,0,0,1-.22.324L3.233,4.766a1,1,0,0,1-.328.216.99.99,0,0,1-.371.072.975.975,0,0,1-.694-.288L.3,3.219a.972.972,0,0,1-.208-.324.988.988,0,0,1-.067-.368,1,1,0,0,1,.289-.692Z" transform="translate(79.228 27.675)" fill="#7c3eff"/>
          </g>
        </g>
      </g>
    </g>
  </g>
</svg>
