<svg xmlns="http://www.w3.org/2000/svg" width="417.716" height="271.575" viewBox="0 0 417.716 271.575">
  <g id="_3" data-name="3" transform="translate(21.155 24.349)">
    <g id="Network_00000157288462258366919780000007225392054994050439_">
      <g id="background_00000005968402223539552290000009413986211959971996_">
        <g id="Grupo_1094819" data-name="Grupo 1094819">
          <circle id="Elipse_11095" data-name="Elipse 11095" cx="79.29" cy="79.29" r="79.29" transform="translate(-21.155 135.093) rotate(-45)" fill="#d1bbff"/>
        </g>
        <g id="Grupo_1094820" data-name="Grupo 1094820">
          <circle id="Elipse_11096" data-name="Elipse 11096" cx="68.48" cy="68.48" r="68.48" transform="translate(202.872 72.495) rotate(-45)" fill="#ebe3ff"/>
        </g>
        <g id="Grupo_1094821" data-name="Grupo 1094821">
          <circle id="Elipse_11097" data-name="Elipse 11097" cx="56.83" cy="56.83" r="56.83" transform="translate(227.3 104.37)" fill="#d9f6ff"/>
        </g>
      </g>
      <g id="speech_bubble_00000128443811111852372720000002601265980196902305_">
        <path id="Trazado_836697" data-name="Trazado 836697" d="M44.02,19.3a14.552,14.552,0,0,1,4.59,28.36,4.785,4.785,0,0,0,1.64,4.57s-5.33.23-6.14-3.83h-.09a14.55,14.55,0,0,1,0-29.1Z" fill="#a6eaff"/>
      </g>
      <g id="object_00000020394386007509311700000006651757872927426180_">
        <g id="Grupo_1094919" data-name="Grupo 1094919">
          <g id="Grupo_1094829" data-name="Grupo 1094829">
            <g id="Grupo_1094828" data-name="Grupo 1094828">
              <g id="Grupo_1094823" data-name="Grupo 1094823">
                <g id="Grupo_1094822" data-name="Grupo 1094822">
                  <rect id="Rectángulo_387408" data-name="Rectángulo 387408" width="9.19" height="16.85" transform="translate(95.74 93.29)" fill="#4f99c6"/>
                </g>
              </g>
              <g id="Grupo_1094825" data-name="Grupo 1094825">
                <g id="Grupo_1094824" data-name="Grupo 1094824">
                  <path id="Trazado_836698" data-name="Trazado 836698" d="M119.53,93.29h0Z" fill="#3b6778"/>
                </g>
              </g>
              <g id="Grupo_1094827" data-name="Grupo 1094827">
                <g id="Grupo_1094826" data-name="Grupo 1094826">
                  <rect id="Rectángulo_387409" data-name="Rectángulo 387409" width="14.59" height="16.85" transform="translate(104.94 93.29)" fill="#6ab9d8"/>
                </g>
              </g>
            </g>
          </g>
          <g id="Grupo_1094837" data-name="Grupo 1094837">
            <g id="Grupo_1094836" data-name="Grupo 1094836">
              <g id="Grupo_1094831" data-name="Grupo 1094831">
                <g id="Grupo_1094830" data-name="Grupo 1094830">
                  <rect id="Rectángulo_387410" data-name="Rectángulo 387410" width="9.2" height="16.85" transform="translate(243.13 33.17)" fill="#4f99c6"/>
                </g>
              </g>
              <g id="Grupo_1094833" data-name="Grupo 1094833">
                <g id="Grupo_1094832" data-name="Grupo 1094832">
                  <path id="Trazado_836699" data-name="Trazado 836699" d="M266.92,33.17h0Z" fill="#3b6778"/>
                </g>
              </g>
              <g id="Grupo_1094835" data-name="Grupo 1094835">
                <g id="Grupo_1094834" data-name="Grupo 1094834">
                  <rect id="Rectángulo_387411" data-name="Rectángulo 387411" width="14.59" height="16.85" transform="translate(252.33 33.17)" fill="#6ab9d8"/>
                </g>
              </g>
            </g>
          </g>
          <g id="Grupo_1094845" data-name="Grupo 1094845">
            <g id="Grupo_1094844" data-name="Grupo 1094844">
              <g id="Grupo_1094839" data-name="Grupo 1094839">
                <g id="Grupo_1094838" data-name="Grupo 1094838">
                  <rect id="Rectángulo_387412" data-name="Rectángulo 387412" width="9.2" height="16.85" transform="translate(182.07 8.13)" fill="#4f99c6"/>
                </g>
              </g>
              <g id="Grupo_1094841" data-name="Grupo 1094841">
                <g id="Grupo_1094840" data-name="Grupo 1094840">
                  <path id="Trazado_836700" data-name="Trazado 836700" d="M205.86,8.13h0Z" fill="#3b6778"/>
                </g>
              </g>
              <g id="Grupo_1094843" data-name="Grupo 1094843">
                <g id="Grupo_1094842" data-name="Grupo 1094842">
                  <rect id="Rectángulo_387413" data-name="Rectángulo 387413" width="14.59" height="16.85" transform="translate(191.27 8.13)" fill="#6ab9d8"/>
                </g>
              </g>
            </g>
          </g>
          <g id="Grupo_1094853" data-name="Grupo 1094853">
            <g id="Grupo_1094852" data-name="Grupo 1094852">
              <g id="Grupo_1094847" data-name="Grupo 1094847">
                <g id="Grupo_1094846" data-name="Grupo 1094846">
                  <rect id="Rectángulo_387414" data-name="Rectángulo 387414" width="9.19" height="16.85" transform="translate(122.91 33.39)" fill="#4f99c6"/>
                </g>
              </g>
              <g id="Grupo_1094849" data-name="Grupo 1094849">
                <g id="Grupo_1094848" data-name="Grupo 1094848">
                  <path id="Trazado_836701" data-name="Trazado 836701" d="M146.7,33.39h0Z" fill="#3b6778"/>
                </g>
              </g>
              <g id="Grupo_1094851" data-name="Grupo 1094851">
                <g id="Grupo_1094850" data-name="Grupo 1094850">
                  <rect id="Rectángulo_387415" data-name="Rectángulo 387415" width="14.59" height="16.85" transform="translate(132.1 33.39)" fill="#6ab9d8"/>
                </g>
              </g>
            </g>
          </g>
          <g id="Grupo_1094861" data-name="Grupo 1094861">
            <g id="Grupo_1094860" data-name="Grupo 1094860">
              <g id="Grupo_1094855" data-name="Grupo 1094855">
                <g id="Grupo_1094854" data-name="Grupo 1094854">
                  <rect id="Rectángulo_387416" data-name="Rectángulo 387416" width="9.19" height="16.85" transform="translate(122.52 162.15)" fill="#4f99c6"/>
                </g>
              </g>
              <g id="Grupo_1094857" data-name="Grupo 1094857">
                <g id="Grupo_1094856" data-name="Grupo 1094856">
                  <path id="Trazado_836702" data-name="Trazado 836702" d="M146.3,162.15h0Z" fill="#3b6778"/>
                </g>
              </g>
              <g id="Grupo_1094859" data-name="Grupo 1094859">
                <g id="Grupo_1094858" data-name="Grupo 1094858">
                  <rect id="Rectángulo_387417" data-name="Rectángulo 387417" width="14.59" height="16.85" transform="translate(131.71 162.15)" fill="#6ab9d8"/>
                </g>
              </g>
            </g>
          </g>
          <g id="Grupo_1094869" data-name="Grupo 1094869">
            <g id="Grupo_1094868" data-name="Grupo 1094868">
              <g id="Grupo_1094863" data-name="Grupo 1094863">
                <g id="Grupo_1094862" data-name="Grupo 1094862">
                  <rect id="Rectángulo_387418" data-name="Rectángulo 387418" width="9.19" height="16.85" transform="translate(183.48 187.62)" fill="#4f99c6"/>
                </g>
              </g>
              <g id="Grupo_1094865" data-name="Grupo 1094865">
                <g id="Grupo_1094864" data-name="Grupo 1094864">
                  <path id="Trazado_836703" data-name="Trazado 836703" d="M207.26,187.62h0Z" fill="#3b6778"/>
                </g>
              </g>
              <g id="Grupo_1094867" data-name="Grupo 1094867">
                <g id="Grupo_1094866" data-name="Grupo 1094866">
                  <rect id="Rectángulo_387419" data-name="Rectángulo 387419" width="14.59" height="16.85" transform="translate(192.67 187.62)" fill="#6ab9d8"/>
                </g>
              </g>
            </g>
          </g>
          <g id="Grupo_1094877" data-name="Grupo 1094877">
            <g id="Grupo_1094876" data-name="Grupo 1094876">
              <g id="Grupo_1094871" data-name="Grupo 1094871">
                <g id="Grupo_1094870" data-name="Grupo 1094870">
                  <rect id="Rectángulo_387420" data-name="Rectángulo 387420" width="9.19" height="16.85" transform="translate(255.68 176.71)" fill="#4f99c6"/>
                </g>
              </g>
              <g id="Grupo_1094873" data-name="Grupo 1094873">
                <g id="Grupo_1094872" data-name="Grupo 1094872">
                  <path id="Trazado_836704" data-name="Trazado 836704" d="M241.08,176.71h0Z" fill="#3b6778"/>
                </g>
              </g>
              <g id="Grupo_1094875" data-name="Grupo 1094875">
                <g id="Grupo_1094874" data-name="Grupo 1094874">
                  <rect id="Rectángulo_387421" data-name="Rectángulo 387421" width="14.59" height="16.85" transform="translate(241.08 176.71)" fill="#6ab9d8"/>
                </g>
              </g>
            </g>
          </g>
          <g id="Grupo_1094885" data-name="Grupo 1094885">
            <g id="Grupo_1094884" data-name="Grupo 1094884">
              <g id="Grupo_1094879" data-name="Grupo 1094879">
                <g id="Grupo_1094878" data-name="Grupo 1094878">
                  <rect id="Rectángulo_387422" data-name="Rectángulo 387422" width="9.19" height="16.85" transform="translate(295.19 89.59)" fill="#4f99c6"/>
                </g>
              </g>
              <g id="Grupo_1094881" data-name="Grupo 1094881">
                <g id="Grupo_1094880" data-name="Grupo 1094880">
                  <path id="Trazado_836705" data-name="Trazado 836705" d="M280.6,89.59h0Z" fill="#3b6778"/>
                </g>
              </g>
              <g id="Grupo_1094883" data-name="Grupo 1094883">
                <g id="Grupo_1094882" data-name="Grupo 1094882">
                  <rect id="Rectángulo_387423" data-name="Rectángulo 387423" width="14.59" height="16.85" transform="translate(280.6 89.59)" fill="#6ab9d8"/>
                </g>
              </g>
            </g>
          </g>
          <g id="Grupo_1094898" data-name="Grupo 1094898">
            <g id="Grupo_1094886" data-name="Grupo 1094886">
              <path id="Trazado_836706" data-name="Trazado 836706" d="M249.36,135.46l-2.91-2.94,2.27-.93Z" fill="#4b86b7"/>
            </g>
            <g id="Grupo_1094887" data-name="Grupo 1094887">
              <path id="Trazado_836707" data-name="Trazado 836707" d="M168.26,158.52s3.8-2.88,4.34-3.47,1.01,3.63,1.01,3.63Z" fill="#4b86b7"/>
            </g>
            <g id="Grupo_1094888" data-name="Grupo 1094888">
              <path id="Trazado_836708" data-name="Trazado 836708" d="M141.42,116.03a10.433,10.433,0,0,0,5.79,3.09c3.26.33-2.85,3.56-2.85,3.56Z" fill="#4b86b7"/>
            </g>
            <g id="Grupo_1094889" data-name="Grupo 1094889">
              <path id="Trazado_836709" data-name="Trazado 836709" d="M239.3,70.07s-5.59-.56-7.46.11-.03-3.21-.03-3.21l5.66,1.92Z" fill="#4b86b7"/>
            </g>
            <g id="Grupo_1094890" data-name="Grupo 1094890">
              <path id="Trazado_836710" data-name="Trazado 836710" d="M164.95,63.4l1.99,3.74-4.07,1.3Z" fill="#4b86b7"/>
            </g>
            <g id="Grupo_1094891" data-name="Grupo 1094891">
              <circle id="Elipse_11098" data-name="Elipse 11098" cx="54.97" cy="54.97" r="54.97" transform="matrix(0.908, -0.42, 0.42, 0.908, 125.368, 83.065)" fill="#009ecd"/>
            </g>
            <g id="Grupo_1094892" data-name="Grupo 1094892">
              <path id="Trazado_836711" data-name="Trazado 836711" d="M225.41,123.04s-3.08-1.05-7.91,2.49c-4.01,2.94-7.64,8.55-8.72,10.78s-2.99,12.86-9.69,14.05c0,0,23.16,1.61,25.67-1.56S225.41,123.04,225.41,123.04Z" fill="#4b86b7"/>
            </g>
            <g id="Grupo_1094893" data-name="Grupo 1094893">
              <path id="Trazado_836712" data-name="Trazado 836712" d="M248.33,132.57a18.461,18.461,0,0,1-.92,2.08s-3.06-2.94-4.2-10.15-5.37-19.8-11.83-21.39-12.9,2.36-18.96,12.05-15.25,25.06-26.84,33.49-20.27,5.18-20.27,5.18-1.89-1.45-2.22-1.76c0,0,48-59.16,58.94-61.61s23.74,12.53,26.65,20.77C251.57,119.48,248.33,132.57,248.33,132.57Z" fill="#4b86b7"/>
            </g>
            <g id="Grupo_1094894" data-name="Grupo 1094894">
              <path id="Trazado_836713" data-name="Trazado 836713" d="M219.14,66.1c-12.05,4.44-24.61,17.5-45.87,15.47-9.75-.93-13.26-5.49-14.22-10.16A54.636,54.636,0,0,0,146.28,92.2a53.521,53.521,0,0,0-1.77,6.56c4.26,5.08,14.51,10.06,25.36,6.04,19.02-7.04,41.32-25.34,49.45-30.07,10.84-6.3,16-4.88,16-4.88s.39.11.99.29a55.148,55.148,0,0,0-9.06-7.01C224.78,64.04,222.05,65.03,219.14,66.1Z" fill="#4b86b7"/>
            </g>
            <g id="Grupo_1094895" data-name="Grupo 1094895">
              <path id="Trazado_836714" data-name="Trazado 836714" d="M165.45,100.05c26.76-3.45,50.5-30.65,63.17-31.54a23.49,23.49,0,0,1,10.68,1.57,56.838,56.838,0,0,0-13.84-10.49c-15.77-.28-36.53,18.47-52.32,16.59-9.22-1.1-9.74-7.24-8.18-12.77a56.816,56.816,0,0,0-20.44,27.02C146.8,96.36,152.39,101.73,165.45,100.05Z" fill="#00c4ff"/>
            </g>
            <g id="Grupo_1094896" data-name="Grupo 1094896">
              <path id="Trazado_836715" data-name="Trazado 836715" d="M193.23,138.8c19.28-25.37,18.85-42.95,36.44-40.73,14.76,1.86,15.02,26.09,19.68,37.4a59.333,59.333,0,0,0,3.03-7.22,57.08,57.08,0,0,0-7.09-50.87c-4.9-2.59-10.82-4.39-16.9-3.17-15.1,3.03-21.34,18.26-35.22,35.26-11.66,14.28-39.38,25.29-51.76,6.56a57.34,57.34,0,0,0,16.63,34.48C165.99,153.73,180.26,155.87,193.23,138.8Z" fill="#00c4ff"/>
            </g>
            <g id="Grupo_1094897" data-name="Grupo 1094897">
              <path id="Trazado_836716" data-name="Trazado 836716" d="M240.98,131.33c-14.22-22.18-30.45,4.88-30.45,4.88-7.22,23.14-18,10.94-18,10.94-7.25,8.89-17.5,11.02-24.27,11.36a57.138,57.138,0,0,0,74-12.17C244.11,141.31,244.09,136.19,240.98,131.33Z" fill="#00c4ff"/>
            </g>
          </g>
          <g id="Grupo_1094899" data-name="Grupo 1094899">
            <path id="Trazado_836717" data-name="Trazado 836717" d="M122.52,92.46a.489.489,0,0,1-.44-.29.472.472,0,0,1,.25-.63c.58-.25,1.17-.5,1.78-.73a.478.478,0,1,1,.35.89q-.9.345-1.74.72A.544.544,0,0,1,122.52,92.46Zm3.55-1.38a.471.471,0,0,1-.45-.32.48.48,0,0,1,.3-.61c.6-.2,1.21-.4,1.83-.59a.475.475,0,1,1,.27.91c-.61.18-1.21.38-1.8.58A.4.4,0,0,1,126.07,91.08Zm3.65-1.1a.478.478,0,0,1-.12-.94c.61-.16,1.24-.31,1.87-.45a.493.493,0,0,1,.57.36.48.48,0,0,1-.36.57c-.62.14-1.24.28-1.84.44A.254.254,0,0,1,129.72,89.98Zm3.73-.81a.474.474,0,0,1-.09-.94c.57-.1,1.14-.2,1.73-.28a.475.475,0,0,1,.14.94c-.57.09-1.14.18-1.7.28Z" fill="#474f50"/>
          </g>
          <g id="Grupo_1094900" data-name="Grupo 1094900">
            <path id="Trazado_836718" data-name="Trazado 836718" d="M143.34,110.71h-.06l-1.9-.24a.479.479,0,0,1,.13-.95q.93.12,1.89.24a.467.467,0,0,1,.41.53A.475.475,0,0,1,143.34,110.71Zm-3.78-.5h-.07q-.96-.135-1.89-.27a.475.475,0,0,1,.14-.94l1.88.27a.489.489,0,0,1,.41.54A.474.474,0,0,1,139.56,110.21Zm-3.78-.55a.17.17,0,0,1-.07-.01q-.96-.15-1.89-.3a.477.477,0,0,1-.39-.55.465.465,0,0,1,.55-.39c.62.1,1.24.2,1.88.3a.474.474,0,0,1,.4.54A.484.484,0,0,1,135.78,109.66Zm-3.76-.62a.22.22,0,0,1-.08-.01c-.64-.11-1.27-.22-1.88-.34a.479.479,0,1,1,.18-.94c.61.11,1.24.23,1.87.34a.477.477,0,0,1,.39.55A.5.5,0,0,1,132.02,109.04Zm-3.75-.7a.277.277,0,0,1-.09-.01c-.64-.13-1.26-.25-1.88-.38a.481.481,0,0,1-.37-.57.486.486,0,0,1,.57-.37c.61.13,1.23.26,1.86.38a.478.478,0,0,1,.38.56A.489.489,0,0,1,128.27,108.34Zm-3.73-.79a.448.448,0,0,1-.11-.01c-.64-.14-1.26-.29-1.87-.44a.479.479,0,0,1,.23-.93c.6.15,1.22.29,1.85.44a.476.476,0,0,1-.1.94Zm-3.71-.92a.5.5,0,0,1-.12-.02c-.64-.17-1.25-.34-1.85-.52a.475.475,0,1,1,.27-.91q.885.255,1.83.51a.478.478,0,0,1-.13.94Zm-3.65-1.08a.772.772,0,0,1-.15-.02c-.64-.21-1.24-.42-1.82-.63a.475.475,0,1,1,.33-.89c.57.21,1.16.41,1.79.62a.479.479,0,0,1,.31.6A.493.493,0,0,1,117.18,105.55Zm-3.58-1.32a.433.433,0,0,1-.19-.04c-.49-.21-.95-.42-1.39-.63a.479.479,0,0,1,.42-.86c.42.21.87.41,1.34.61a.482.482,0,0,1,.25.63A.455.455,0,0,1,113.6,104.23Z" fill="#474f50"/>
          </g>
          <g id="Grupo_1094901" data-name="Grupo 1094901">
            <path id="Trazado_836719" data-name="Trazado 836719" d="M198.57,113.75h-1.91a.475.475,0,0,1,.01-.95h1.91a.48.48,0,0,1,.48.48A.508.508,0,0,1,198.57,113.75Zm1.9-.01a.48.48,0,0,1-.01-.96l1.91-.01h0a.485.485,0,0,1,.48.47.478.478,0,0,1-.47.48l-1.91.02Zm-5.72-.01h0l-1.91-.01a.475.475,0,0,1,.01-.95h0l1.91.01a.472.472,0,0,1,.47.48A.478.478,0,0,1,194.75,113.73Zm9.54-.01a.485.485,0,0,1-.48-.47.478.478,0,0,1,.47-.48l1.91-.02h.01a.485.485,0,0,1,.48.47.478.478,0,0,1-.47.48l-1.92.02Zm-13.35-.02h0l-1.91-.03a.475.475,0,0,1,.01-.95h.01l1.91.03a.478.478,0,0,1,.47.48A.5.5,0,0,1,190.94,113.7Zm17.16-.04a.48.48,0,0,1-.01-.96l1.91-.04h.01a.48.48,0,0,1,.01.96l-1.92.04Zm-20.98-.03h0l-1.92-.04a.487.487,0,0,1-.47-.49.534.534,0,0,1,.49-.47l1.9.04a.487.487,0,0,1,.47.49A.463.463,0,0,1,187.12,113.63Zm24.8-.05a.483.483,0,0,1-.48-.46.478.478,0,0,1,.46-.49l1.91-.05a.486.486,0,0,1,.49.46.478.478,0,0,1-.46.49l-1.91.05Zm-28.61-.04h-.01l-1.91-.06a.478.478,0,0,1-.46-.49.507.507,0,0,1,.49-.46l1.91.06a.475.475,0,0,1-.02.95Zm32.42-.06a.475.475,0,0,1-.02-.95l1.9-.06a.485.485,0,0,1,.49.46.478.478,0,0,1-.46.49l-1.91.06Zm-36.23-.06h-.02l-1.91-.07a.48.48,0,0,1,.02-.96h.02l1.9.07a.48.48,0,0,1-.01.96Zm40.04-.08a.476.476,0,0,1-.48-.46.487.487,0,0,1,.46-.5l1.9-.08a.463.463,0,0,1,.5.46.48.48,0,0,1-.46.5l-1.91.08Zm-43.86-.06h-.02l-1.91-.08a.466.466,0,0,1-.45-.5.435.435,0,0,1,.5-.45l1.9.08a.481.481,0,0,1,.46.5A.475.475,0,0,1,175.68,113.28Zm47.67-.1a.488.488,0,0,1-.48-.45.479.479,0,0,1,.45-.5l1.9-.09a.45.45,0,0,1,.5.45.479.479,0,0,1-.45.5l-1.91.09Zm-51.48-.08h-.02l-1.91-.1a.479.479,0,0,1-.45-.5.461.461,0,0,1,.5-.45l1.9.1a.472.472,0,0,1,.45.5A.459.459,0,0,1,171.87,113.1Zm55.29-.11a.488.488,0,0,1-.48-.45.479.479,0,0,1,.45-.5l1.9-.11a.454.454,0,0,1,.5.45.472.472,0,0,1-.45.5l-1.91.11Zm-59.1-.09h-.03l-1.91-.11a.488.488,0,0,1-.45-.51.476.476,0,0,1,.51-.45l1.9.11a.479.479,0,0,1,.45.5A.474.474,0,0,1,168.06,112.9Zm62.91-.13a.48.48,0,0,1-.03-.96l1.9-.12a.476.476,0,0,1,.07.95l-1.91.12A.037.037,0,0,1,230.97,112.77Zm-66.71-.11h-.03c-.64-.04-1.27-.09-1.9-.13a.479.479,0,0,1-.44-.51.484.484,0,0,1,.51-.44c.63.04,1.26.09,1.9.13a.473.473,0,0,1,.44.51A.48.48,0,0,1,164.26,112.66Zm70.52-.15a.464.464,0,0,1-.47-.44.479.479,0,0,1,.44-.51l1.9-.14a.493.493,0,0,1,.51.44.479.479,0,0,1-.44.51l-1.9.14Zm-74.33-.12h-.04l-1.9-.15a.479.479,0,0,1-.44-.51.493.493,0,0,1,.51-.44l1.9.15a.479.479,0,0,1,.44.51A.464.464,0,0,1,160.45,112.39Zm78.13-.17a.476.476,0,0,1-.03-.95c.64-.05,1.27-.1,1.9-.16a.493.493,0,0,1,.52.43.487.487,0,0,1-.43.52c-.63.05-1.26.11-1.9.16Zm-81.93-.13h-.04c-.64-.05-1.27-.11-1.9-.17a.477.477,0,0,1,.09-.95c.63.06,1.26.11,1.9.17a.465.465,0,0,1,.43.51A.487.487,0,0,1,156.65,112.09Zm85.73-.19a.477.477,0,0,1-.47-.43.487.487,0,0,1,.43-.52l1.9-.18a.481.481,0,0,1,.52.43.474.474,0,0,1-.43.52l-1.9.18Zm-89.53-.15h-.05c-.64-.06-1.27-.12-1.9-.19a.477.477,0,0,1,.09-.95l1.9.18a.487.487,0,0,1,.43.52A.477.477,0,0,1,152.85,111.75Zm93.33-.21a.476.476,0,0,1-.04-.95c.64-.06,1.27-.13,1.89-.2a.478.478,0,0,1,.52.42.466.466,0,0,1-.42.52c-.63.07-1.26.13-1.9.2A.434.434,0,0,0,246.18,111.54Zm-97.13-.17H149l-1.9-.21a.478.478,0,0,1,.11-.95c.62.07,1.26.14,1.89.21a.477.477,0,0,1-.05.95Zm100.92-.24a.468.468,0,0,1-.47-.42.481.481,0,0,1,.42-.53c.64-.07,1.27-.15,1.89-.22a.467.467,0,0,1,.53.42.481.481,0,0,1-.42.53c-.63.08-1.26.15-1.9.22Zm-104.71-.19h-.06c-.64-.08-1.27-.15-1.9-.23a.467.467,0,0,1-.41-.53.46.46,0,0,1,.53-.41c.62.08,1.25.15,1.89.23a.481.481,0,0,1,.42.53A.467.467,0,0,1,145.26,110.94Zm108.5-.26a.477.477,0,0,1-.06-.95q.96-.12,1.89-.24a.479.479,0,1,1,.13.95c-.62.08-1.26.16-1.89.24Z" fill="#fff"/>
          </g>
          <g id="Grupo_1094902" data-name="Grupo 1094902">
            <path id="Trazado_836720" data-name="Trazado 836720" d="M256.15,110.37a.474.474,0,0,1-.47-.41.482.482,0,0,1,.41-.54c.64-.09,1.27-.17,1.89-.26a.48.48,0,0,1,.54.41.475.475,0,0,1-.41.54c-.62.09-1.25.18-1.89.26Zm3.77-.54a.478.478,0,0,1-.07-.95c.64-.09,1.26-.19,1.88-.29a.481.481,0,0,1,.15.95c-.62.1-1.25.2-1.89.29Zm3.77-.6a.472.472,0,0,1-.47-.4.477.477,0,0,1,.39-.55c.64-.11,1.26-.22,1.87-.33a.478.478,0,0,1,.55.38.47.47,0,0,1-.38.55q-.93.165-1.89.33C263.75,109.23,263.72,109.23,263.69,109.23Zm3.76-.67a.489.489,0,0,1-.47-.39.478.478,0,0,1,.38-.56c.63-.12,1.26-.24,1.87-.37a.476.476,0,0,1,.56.37.471.471,0,0,1-.37.56c-.61.12-1.24.25-1.88.37A.149.149,0,0,1,267.45,108.56Zm3.74-.76a.481.481,0,0,1-.11-.95c.63-.14,1.25-.28,1.85-.42a.473.473,0,1,1,.22.92c-.61.14-1.23.29-1.87.42A.161.161,0,0,1,271.19,107.8Zm3.71-.88a.469.469,0,0,1-.46-.36.475.475,0,0,1,.34-.58c.63-.16,1.24-.32,1.83-.49a.478.478,0,0,1,.26.92c-.6.17-1.22.33-1.85.49A.254.254,0,0,1,274.9,106.92Zm3.68-1.02a.48.48,0,0,1-.14-.94c.63-.19,1.23-.38,1.8-.58a.481.481,0,0,1,.31.91c-.58.2-1.19.4-1.83.59A.365.365,0,0,1,278.58,105.9Zm3.6-1.23a.476.476,0,0,1-.17-.92c.62-.24,1.19-.48,1.73-.73a.477.477,0,0,1,.39.87c-.55.25-1.15.5-1.78.75A.467.467,0,0,1,282.18,104.67Zm3.47-1.6a.491.491,0,0,1-.42-.24.476.476,0,0,1,.18-.65,13.737,13.737,0,0,0,1.54-1,.478.478,0,1,1,.58.76,14.309,14.309,0,0,1-1.65,1.08A.682.682,0,0,1,285.65,103.07Zm2.94-2.37a.48.48,0,0,1-.39-.76,2.5,2.5,0,0,0,.54-1.47.48.48,0,0,1,.96,0,3.424,3.424,0,0,1-.72,2.03A.488.488,0,0,1,288.59,100.7Z" fill="#474f50"/>
          </g>
          <g id="Grupo_1094903" data-name="Grupo 1094903">
            <path id="Trazado_836721" data-name="Trazado 836721" d="M275.05,91a.487.487,0,0,1-.12-.01c-.6-.15-1.21-.3-1.84-.45a.471.471,0,0,1-.35-.57.459.459,0,0,1,.57-.35c.64.15,1.26.3,1.86.46a.463.463,0,0,1,.34.58A.486.486,0,0,1,275.05,91Zm-3.71-.88a.34.34,0,0,1-.1-.01q-.915-.195-1.86-.39a.475.475,0,0,1,.19-.93c.64.13,1.26.26,1.87.4a.47.47,0,0,1-.1.93Zm-3.74-.77a.277.277,0,0,1-.09-.01c-.61-.12-1.24-.23-1.87-.35a.468.468,0,0,1-.38-.55.473.473,0,0,1,.55-.38c.64.11,1.26.23,1.88.35a.478.478,0,0,1,.38.56A.464.464,0,0,1,267.6,89.35Zm-3.75-.67a.22.22,0,0,1-.08-.01c-.62-.11-1.24-.21-1.88-.31a.484.484,0,0,1-.4-.55.479.479,0,0,1,.55-.4c.64.1,1.27.21,1.89.31a.484.484,0,0,1-.08.96Z" fill="#474f50"/>
          </g>
          <g id="Grupo_1094904" data-name="Grupo 1094904">
            <path id="Trazado_836722" data-name="Trazado 836722" d="M185.42,46.49h-.07a.474.474,0,0,1-.4-.54l.2-1.34a.48.48,0,0,1,.54-.4.474.474,0,0,1,.4.54l-.2,1.33A.474.474,0,0,1,185.42,46.49Zm.5-3.22a.22.22,0,0,1-.08-.01.484.484,0,0,1-.4-.55c.1-.64.21-1.27.31-1.89a.47.47,0,0,1,.55-.39.477.477,0,0,1,.39.55c-.11.62-.21,1.24-.31,1.88A.456.456,0,0,1,185.92,43.27Zm.64-3.76a.277.277,0,0,1-.09-.01.473.473,0,0,1-.38-.55c.12-.64.23-1.27.35-1.88a.483.483,0,0,1,.56-.38.478.478,0,0,1,.38.56c-.12.61-.24,1.23-.35,1.87A.473.473,0,0,1,186.56,39.51Zm.73-3.74a.34.34,0,0,1-.1-.01.476.476,0,0,1-.37-.56c.13-.64.27-1.26.4-1.87a.477.477,0,0,1,.93.21c-.14.61-.27,1.23-.4,1.86A.472.472,0,0,1,187.29,35.77Zm.83-3.73a.41.41,0,0,1-.11-.01.476.476,0,0,1-.35-.58c.15-.64.31-1.26.46-1.86a.475.475,0,1,1,.92.24c-.16.6-.31,1.21-.46,1.84A.468.468,0,0,1,188.12,32.04Zm.96-3.69a.585.585,0,0,1-.13-.02.484.484,0,0,1-.33-.59c.18-.64.36-1.25.55-1.84a.478.478,0,0,1,.91.29c-.18.58-.36,1.19-.54,1.81A.469.469,0,0,1,189.08,28.35Z" fill="#474f50"/>
          </g>
          <g id="Grupo_1094905" data-name="Grupo 1094905">
            <path id="Trazado_836723" data-name="Trazado 836723" d="M208.71,56.39a.468.468,0,0,1-.47-.42q-.105-.96-.21-1.89a.481.481,0,0,1,.42-.53.489.489,0,0,1,.53.42c.07.63.14,1.26.21,1.9a.481.481,0,0,1-.42.53A.127.127,0,0,0,208.71,56.39Zm-.44-3.79a.475.475,0,0,1-.47-.42c-.08-.64-.16-1.26-.24-1.89a.474.474,0,0,1,.41-.53.468.468,0,0,1,.53.41c.08.63.16,1.26.24,1.9a.474.474,0,0,1-.42.53Zm-.49-3.78a.474.474,0,0,1-.47-.41c-.09-.64-.18-1.26-.27-1.89a.474.474,0,0,1,.4-.54.494.494,0,0,1,.54.4q.135.93.27,1.89a.482.482,0,0,1-.41.54A.127.127,0,0,1,207.78,48.82Zm-.55-3.78a.482.482,0,0,1-.47-.4c-.1-.64-.2-1.26-.3-1.88a.477.477,0,0,1,.94-.16q.15.93.3,1.89a.474.474,0,0,1-.4.54A.148.148,0,0,1,207.23,45.04Zm-.61-3.76a.472.472,0,0,1-.47-.4c-.11-.63-.22-1.26-.33-1.87a.463.463,0,0,1,.38-.55.475.475,0,0,1,.55.38c.11.62.22,1.25.33,1.88a.477.477,0,0,1-.39.55C206.67,41.27,206.65,41.28,206.62,41.28Zm-.69-3.76a.489.489,0,0,1-.47-.39c-.12-.63-.25-1.26-.38-1.86a.471.471,0,0,1,.37-.56.464.464,0,0,1,.56.37c.13.61.25,1.24.38,1.88a.478.478,0,0,1-.38.56Zm-.77-3.73a.481.481,0,0,1-.47-.37c-.14-.63-.28-1.25-.43-1.85a.479.479,0,0,1,.93-.23c.15.61.29,1.23.43,1.87a.48.48,0,0,1-.36.57A.34.34,0,0,1,205.16,33.79Zm-.9-3.71a.469.469,0,0,1-.46-.36c-.16-.63-.33-1.24-.5-1.83a.476.476,0,0,1,.33-.59.468.468,0,0,1,.59.33c.17.6.34,1.21.51,1.85a.47.47,0,0,1-.34.58A.318.318,0,0,1,204.26,30.08Zm-1.05-3.67a.471.471,0,0,1-.45-.33c-.2-.62-.4-1.22-.6-1.79a.478.478,0,1,1,.9-.32c.2.58.41,1.19.61,1.82a.479.479,0,0,1-.31.6A.389.389,0,0,1,203.21,26.41Zm-1.28-3.59a.463.463,0,0,1-.44-.3c-.25-.61-.5-1.19-.76-1.72a.479.479,0,0,1,.86-.42c.26.55.53,1.14.79,1.77a.479.479,0,0,1-.26.62A.361.361,0,0,1,201.93,22.82Zm-1.68-3.42a.477.477,0,0,1-.41-.23,10.182,10.182,0,0,0-1.07-1.47.475.475,0,1,1,.71-.63,12.213,12.213,0,0,1,1.17,1.61.475.475,0,0,1-.16.66A.5.5,0,0,1,200.25,19.4Zm-2.58-2.73a.585.585,0,0,1-.22-.05,2.263,2.263,0,0,0-1.01-.26h0a.48.48,0,0,1,0-.96h.01a3.164,3.164,0,0,1,1.44.36.481.481,0,0,1,.21.64A.5.5,0,0,1,197.67,16.67Z" fill="#474f50"/>
          </g>
          <g id="Grupo_1094906" data-name="Grupo 1094906">
            <path id="Trazado_836724" data-name="Trazado 836724" d="M207.61,166.74h-.07a.489.489,0,0,1-.41-.54c.09-.62.18-1.25.26-1.89a.469.469,0,0,1,.54-.41.489.489,0,0,1,.41.54c-.09.64-.17,1.27-.26,1.89A.481.481,0,0,1,207.61,166.74Zm.5-3.78h-.06a.467.467,0,0,1-.41-.53c.08-.62.16-1.26.23-1.89a.478.478,0,1,1,.95.11c-.08.64-.16,1.27-.23,1.9A.485.485,0,0,1,208.11,162.96Zm.46-3.79h-.05a.481.481,0,0,1-.42-.53c.07-.62.14-1.26.21-1.89a.478.478,0,0,1,.95.11c-.07.64-.14,1.27-.21,1.9A.485.485,0,0,1,208.57,159.17Zm.41-3.79h-.05a.487.487,0,0,1-.43-.52c.06-.63.13-1.26.19-1.9a.477.477,0,0,1,.95.09c-.06.64-.13,1.27-.19,1.9A.469.469,0,0,1,208.98,155.38Zm.37-3.8h-.04a.474.474,0,0,1-.43-.52c.06-.63.11-1.26.17-1.9a.481.481,0,0,1,.52-.43.468.468,0,0,1,.43.52c-.06.64-.11,1.27-.17,1.9A.485.485,0,0,1,209.35,151.58Zm.33-3.8h-.04a.479.479,0,0,1-.44-.51l.15-1.9a.471.471,0,0,1,.51-.44.479.479,0,0,1,.44.51l-.15,1.9A.477.477,0,0,1,209.68,147.78Zm.29-3.8h-.04a.479.479,0,0,1-.44-.51c.05-.63.09-1.26.13-1.9a.476.476,0,0,1,.95.07c-.04.64-.09,1.27-.13,1.91A.462.462,0,0,1,209.97,143.98Zm.26-3.81h-.03a.488.488,0,0,1-.45-.51c.04-.63.08-1.26.12-1.9a.46.46,0,0,1,.5-.45.479.479,0,0,1,.45.5c-.04.64-.08,1.27-.12,1.91A.465.465,0,0,1,210.23,140.17Zm.23-3.81h-.03a.479.479,0,0,1-.45-.5l.1-1.9a.455.455,0,0,1,.5-.45.472.472,0,0,1,.45.5l-.1,1.91A.464.464,0,0,1,210.46,136.36Zm.19-3.81h-.02a.472.472,0,0,1-.45-.5l.09-1.9a.463.463,0,0,1,.5-.46.481.481,0,0,1,.46.5l-.09,1.91A.5.5,0,0,1,210.65,132.55Zm.17-3.81h-.02a.481.481,0,0,1-.46-.5l.07-1.9a.466.466,0,0,1,.49-.46.478.478,0,0,1,.46.49l-.07,1.91A.474.474,0,0,1,210.82,128.74Zm.14-3.81h-.02a.478.478,0,0,1-.46-.49l.06-1.91a.472.472,0,0,1,.49-.46.478.478,0,0,1,.46.49l-.06,1.91A.474.474,0,0,1,210.96,124.93Zm.1-3.81h-.01a.478.478,0,0,1-.46-.49l.04-1.91a.485.485,0,0,1,.48-.47h.01a.487.487,0,0,1,.47.49l-.04,1.91A.5.5,0,0,1,211.06,121.12Zm.09-3.82h0a.482.482,0,0,1-.48-.49l.03-1.91a.478.478,0,0,1,.48-.47h.01a.478.478,0,0,1,.47.48l-.03,1.91A.487.487,0,0,1,211.15,117.3Zm.05-3.81h0a.48.48,0,0,1-.48-.48l.02-1.91a.478.478,0,0,1,.48-.47h0a.478.478,0,0,1,.47.48l-.02,1.91A.463.463,0,0,1,211.2,113.49Zm.03-3.82h0a.48.48,0,0,1-.48-.48l.01-1.9a.48.48,0,0,1,.48-.48h0a.48.48,0,0,1,.48.48l-.01,1.91A.472.472,0,0,1,211.23,109.67Zm.01-3.81a.48.48,0,0,1-.48-.48l-.01-1.91a.478.478,0,0,1,.47-.48h0a.478.478,0,0,1,.48.47l.01,1.91a.48.48,0,0,1-.47.49Zm-.03-3.83a.485.485,0,0,1-.48-.47l-.02-1.9a.478.478,0,0,1,.47-.48h.01a.485.485,0,0,1,.48.47l.02,1.91a.472.472,0,0,1-.48.47Zm-.04-3.81a.485.485,0,0,1-.48-.47l-.03-1.91a.487.487,0,0,1,.47-.49.468.468,0,0,1,.49.47l.03,1.91a.482.482,0,0,1-.48.49Zm-.08-3.81a.485.485,0,0,1-.48-.47l-.05-1.91a.478.478,0,0,1,.46-.49h.01a.483.483,0,0,1,.48.46l.05,1.91a.48.48,0,0,1-.47.49C211.1,94.41,211.1,94.41,211.09,94.41Zm-.1-3.82a.476.476,0,0,1-.48-.46l-.06-1.91a.478.478,0,0,1,.46-.49.5.5,0,0,1,.49.46l.06,1.91a.478.478,0,0,1-.46.49Zm-.13-3.81a.476.476,0,0,1-.48-.46l-.08-1.9a.48.48,0,0,1,.46-.5.494.494,0,0,1,.5.46l.08,1.91a.478.478,0,0,1-.46.49Zm-.15-3.81a.49.49,0,0,1-.48-.46l-.09-1.9a.479.479,0,0,1,.45-.5.445.445,0,0,1,.5.45l.09,1.91a.479.479,0,0,1-.45.5Zm-.19-3.81a.488.488,0,0,1-.48-.45l-.1-1.9a.479.479,0,0,1,.45-.5.461.461,0,0,1,.5.45l.1,1.91a.479.479,0,0,1-.45.5C210.54,79.16,210.53,79.16,210.52,79.16Zm-.21-3.81a.481.481,0,0,1-.48-.45l-.12-1.9a.48.48,0,0,1,.45-.51.5.5,0,0,1,.51.45l.12,1.91a.466.466,0,0,1-.45.5Zm-.25-3.81a.464.464,0,0,1-.47-.44l-.14-1.9a.476.476,0,1,1,.95-.07l.14,1.9a.479.479,0,0,1-.44.51Zm-.29-3.8a.47.47,0,0,1-.47-.44c-.05-.64-.1-1.27-.15-1.9a.487.487,0,0,1,.43-.52.493.493,0,0,1,.52.43c.05.63.1,1.27.15,1.9a.479.479,0,0,1-.44.51C209.8,67.74,209.79,67.74,209.77,67.74Zm-.31-3.8a.477.477,0,0,1-.47-.43l-.17-1.9a.481.481,0,0,1,.43-.52.475.475,0,0,1,.52.43l.17,1.9a.487.487,0,0,1-.43.52Zm-.36-3.8a.469.469,0,0,1-.47-.43l-.19-1.9a.466.466,0,0,1,.42-.52.46.46,0,0,1,.52.42l.19,1.9a.474.474,0,0,1-.43.52C209.13,60.14,209.12,60.14,209.1,60.14Z" fill="#fff"/>
          </g>
          <g id="Grupo_1094907" data-name="Grupo 1094907">
            <path id="Trazado_836725" data-name="Trazado 836725" d="M199.97,195.34a.5.5,0,0,1-.26-.08.471.471,0,0,1-.13-.66c.31-.47.62-1.01.93-1.6a.476.476,0,1,1,.85.43,16.112,16.112,0,0,1-.98,1.69A.5.5,0,0,1,199.97,195.34Zm1.76-3.37a.433.433,0,0,1-.19-.04.466.466,0,0,1-.25-.62c.23-.55.46-1.13.69-1.75a.475.475,0,1,1,.89.33c-.23.63-.47,1.23-.71,1.8A.471.471,0,0,1,201.73,191.97Zm1.32-3.58a.771.771,0,0,1-.15-.02.479.479,0,0,1-.31-.6c.19-.58.38-1.18.56-1.81a.475.475,0,1,1,.91.27c-.19.64-.38,1.25-.57,1.84A.453.453,0,0,1,203.05,188.39Zm1.08-3.66a.5.5,0,0,1-.12-.02.471.471,0,0,1-.34-.58c.16-.59.32-1.21.47-1.84a.479.479,0,0,1,.93.23q-.24.96-.48,1.86A.48.48,0,0,1,204.13,184.73Zm.91-3.7a.449.449,0,0,1-.11-.01.472.472,0,0,1-.36-.57c.14-.61.27-1.22.41-1.86a.481.481,0,1,1,.94.2c-.14.64-.27,1.26-.41,1.87A.481.481,0,0,1,205.04,181.03Zm.8-3.73a.277.277,0,0,1-.09-.01.478.478,0,0,1-.38-.56c.12-.61.24-1.23.36-1.87a.479.479,0,0,1,.94.18c-.12.64-.24,1.26-.36,1.88A.49.49,0,0,1,205.84,177.3Zm.69-3.76a.22.22,0,0,1-.08-.01.477.477,0,0,1-.39-.55c.11-.62.21-1.24.32-1.88a.477.477,0,1,1,.94.16c-.1.64-.21,1.27-.32,1.88A.472.472,0,0,1,206.53,173.54Zm.62-3.76a.148.148,0,0,1-.07-.01.474.474,0,0,1-.4-.54c.1-.62.19-1.25.28-1.88a.475.475,0,1,1,.94.14c-.09.64-.19,1.27-.29,1.89A.456.456,0,0,1,207.15,169.78Z" fill="#474f50"/>
          </g>
          <g id="Grupo_1094908" data-name="Grupo 1094908">
            <path id="Trazado_836726" data-name="Trazado 836726" d="M188.49,183.78a.469.469,0,0,1-.46-.36c-.15-.6-.31-1.22-.46-1.86a.473.473,0,0,1,.35-.57.466.466,0,0,1,.57.35c.15.63.3,1.25.45,1.84a.475.475,0,0,1-.34.58A.359.359,0,0,1,188.49,183.78Zm-.88-3.72a.481.481,0,0,1-.47-.37c-.14-.61-.27-1.24-.4-1.87a.471.471,0,0,1,.37-.56.476.476,0,0,1,.56.37q.2.945.39,1.86a.48.48,0,0,1-.36.57Zm-.76-3.73a.489.489,0,0,1-.47-.39c-.12-.62-.23-1.24-.35-1.88a.473.473,0,1,1,.93-.17c.11.63.23,1.26.35,1.87a.478.478,0,0,1-.38.56A.2.2,0,0,1,186.85,176.33Zm-.68-3.76a.472.472,0,0,1-.47-.4c-.1-.62-.21-1.25-.31-1.89a.49.49,0,0,1,.4-.55.484.484,0,0,1,.55.4c.1.64.2,1.26.31,1.88a.477.477,0,0,1-.39.55A.309.309,0,0,1,186.17,172.57Z" fill="#474f50"/>
          </g>
          <g id="Grupo_1094909" data-name="Grupo 1094909">
            <path id="Trazado_836727" data-name="Trazado 836727" d="M145.98,72.36a.475.475,0,0,1-.41-.24c-.32-.56-.64-1.11-.94-1.66a.477.477,0,1,1,.83-.47c.31.55.62,1.1.94,1.65a.476.476,0,0,1-.18.65A.4.4,0,0,1,145.98,72.36Zm-1.86-3.32a.48.48,0,0,1-.42-.25c-.31-.57-.62-1.13-.91-1.68a.479.479,0,1,1,.84-.46c.3.55.6,1.11.91,1.67a.479.479,0,0,1-.19.65A.435.435,0,0,1,144.12,69.04Zm-1.81-3.36a.46.46,0,0,1-.42-.26l-.88-1.7a.472.472,0,0,1,.21-.64.481.481,0,0,1,.64.21c.28.56.57,1.12.87,1.69a.477.477,0,0,1-.2.64A.428.428,0,0,1,142.31,65.68Zm-1.72-3.41a.473.473,0,0,1-.43-.27c-.29-.59-.56-1.16-.83-1.73a.474.474,0,1,1,.86-.4c.26.56.54,1.13.82,1.71a.473.473,0,0,1-.22.64A.351.351,0,0,1,140.59,62.27Zm-1.62-3.45a.5.5,0,0,1-.44-.28c-.27-.6-.52-1.19-.76-1.76a.473.473,0,1,1,.87-.37c.24.57.49,1.15.76,1.74a.476.476,0,0,1-.24.63A.433.433,0,0,1,138.97,58.82Zm-1.48-3.52a.463.463,0,0,1-.44-.3c-.24-.62-.47-1.22-.67-1.8a.478.478,0,1,1,.9-.32q.3.855.66,1.77a.48.48,0,0,1-.27.62A.566.566,0,0,1,137.49,55.3Z" fill="#474f50"/>
          </g>
          <g id="Grupo_1094910" data-name="Grupo 1094910">
            <path id="Trazado_836728" data-name="Trazado 836728" d="M168.27,63.87a.513.513,0,0,1-.34-.14l-1.36-1.33a.474.474,0,0,1,.66-.68c.45.44.91.89,1.36,1.34a.465.465,0,0,1,0,.67A.431.431,0,0,1,168.27,63.87Zm-2.73-2.66a.46.46,0,0,1-.33-.13c-.46-.45-.92-.88-1.38-1.32a.474.474,0,1,1,.65-.69q.69.645,1.38,1.32a.465.465,0,0,1,.01.67A.427.427,0,0,1,165.54,61.21Zm-2.77-2.63a.438.438,0,0,1-.32-.13c-.47-.44-.94-.87-1.4-1.29a.474.474,0,1,1,.64-.7c.46.42.93.86,1.4,1.3a.474.474,0,0,1,.02.67A.463.463,0,0,1,162.77,58.58Zm-2.82-2.57a.49.49,0,0,1-.32-.12c-.48-.43-.95-.85-1.42-1.26a.475.475,0,0,1,.63-.71c.47.42.95.84,1.43,1.27a.475.475,0,0,1,.04.67A.553.553,0,0,1,159.95,56.01Zm-2.86-2.52a.465.465,0,0,1-.31-.12c-.49-.42-.97-.83-1.45-1.23a.476.476,0,0,1,.61-.73c.48.4.97.81,1.46,1.24a.475.475,0,0,1,.05.67A.491.491,0,0,1,157.09,53.49Zm-2.93-2.45a.482.482,0,0,1-.3-.11c-.5-.41-1-.8-1.48-1.19a.477.477,0,0,1,.59-.75c.49.39.99.79,1.49,1.2a.477.477,0,0,1,.07.67A.459.459,0,0,1,154.16,51.04Zm-3-2.36a.464.464,0,0,1-.29-.1c-.52-.39-1.03-.77-1.52-1.13a.473.473,0,1,1,.55-.77c.5.36,1.02.74,1.54,1.14a.478.478,0,0,1,.09.67A.442.442,0,0,1,151.16,48.68Zm-3.09-2.23a.53.53,0,0,1-.27-.08c-.54-.37-1.07-.71-1.58-1.04a.479.479,0,0,1,.51-.81c.52.33,1.06.68,1.61,1.06a.48.48,0,0,1,.13.66A.489.489,0,0,1,148.07,46.45Zm-3.23-2.03a.533.533,0,0,1-.24-.06c-.57-.33-1.13-.62-1.66-.88a.479.479,0,1,1,.42-.86c.55.27,1.12.57,1.71.91a.476.476,0,0,1,.18.65A.463.463,0,0,1,144.84,44.42Zm-3.43-1.67a.508.508,0,0,1-.17-.03,10.129,10.129,0,0,0-1.4-.44.479.479,0,1,1,.23-.93,14.4,14.4,0,0,1,1.51.48.481.481,0,0,1,.28.62A.476.476,0,0,1,141.41,42.75Z" fill="#474f50"/>
          </g>
          <g id="Grupo_1094911" data-name="Grupo 1094911">
            <path id="Trazado_836729" data-name="Trazado 836729" d="M237.48,151.95a.477.477,0,0,1-.41-.23c-.32-.54-.65-1.08-.98-1.63a.47.47,0,0,1,.16-.65.481.481,0,0,1,.65.16c.33.55.66,1.1.98,1.64a.464.464,0,0,1-.17.65A.414.414,0,0,1,237.48,151.95Zm-1.97-3.27a.477.477,0,0,1-.41-.23c-.33-.54-.66-1.08-1-1.62a.479.479,0,0,1,.81-.51c.34.54.67,1.09,1,1.63a.477.477,0,0,1-.16.66A.4.4,0,0,1,235.51,148.68Zm-2.01-3.24a.473.473,0,0,1-.4-.22c-.34-.53-.68-1.07-1.02-1.61a.479.479,0,0,1,.81-.51c.34.54.69,1.08,1.02,1.61a.483.483,0,0,1-.15.66A.536.536,0,0,1,233.5,145.44Zm-2.05-3.21a.473.473,0,0,1-.4-.22l-1.04-1.6a.477.477,0,1,1,.8-.52l1.04,1.6a.481.481,0,0,1-.14.66A.556.556,0,0,1,231.45,142.23Zm-2.09-3.2a.5.5,0,0,1-.4-.21l-1.05-1.59a.476.476,0,0,1,.79-.53l1.06,1.59a.472.472,0,0,1-.14.66A.42.42,0,0,1,229.36,139.03Zm-2.12-3.17a.489.489,0,0,1-.4-.21c-.35-.52-.71-1.05-1.07-1.58a.476.476,0,1,1,.79-.53c.36.53.72,1.06,1.07,1.58a.475.475,0,0,1-.39.74Zm-2.14-3.15a.459.459,0,0,1-.39-.21l-1.08-1.57a.474.474,0,1,1,.78-.54l1.08,1.57a.478.478,0,0,1-.12.66A.484.484,0,0,1,225.1,132.71Zm-2.18-3.14a.474.474,0,0,1-.39-.2l-1.09-1.56a.473.473,0,1,1,.77-.55l1.1,1.56a.469.469,0,0,1-.12.66A.439.439,0,0,1,222.92,129.57Zm-2.2-3.12a.474.474,0,0,1-.39-.2l-1.11-1.55a.491.491,0,0,1,.11-.67.482.482,0,0,1,.67.11l1.11,1.55a.476.476,0,0,1-.11.66A.419.419,0,0,1,220.72,126.45Zm-2.22-3.09a.488.488,0,0,1-.39-.2l-1.12-1.54a.479.479,0,0,1,.77-.57l1.12,1.54a.482.482,0,0,1-.11.67A.394.394,0,0,1,218.5,123.36Zm-2.25-3.09a.474.474,0,0,1-.38-.19l-1.13-1.53a.479.479,0,0,1,.77-.57l1.13,1.54a.48.48,0,0,1-.1.67A.6.6,0,0,1,216.25,120.27Zm-2.27-3.06a.474.474,0,0,1-.38-.19l-1.14-1.53a.48.48,0,0,1,.1-.67.471.471,0,0,1,.67.1l1.14,1.53a.48.48,0,0,1-.1.67A.521.521,0,0,1,213.98,117.21Zm-2.29-3.05a.488.488,0,0,1-.38-.19l-1.15-1.52a.478.478,0,0,1,.76-.58l1.16,1.52a.478.478,0,0,1-.09.67A.513.513,0,0,1,211.69,114.16Zm-2.32-3.03a.473.473,0,0,1-.38-.19l-1.16-1.51a.478.478,0,0,1,.76-.58l1.16,1.51a.478.478,0,0,1-.09.67A.484.484,0,0,1,209.37,111.13Zm-2.33-3.02a.493.493,0,0,1-.38-.18l-1.17-1.5a.477.477,0,1,1,.75-.59l1.18,1.5a.486.486,0,0,1-.08.67A.513.513,0,0,1,207.04,108.11Zm-2.36-3a.459.459,0,0,1-.37-.18l-1.18-1.49a.477.477,0,1,1,.75-.59l1.19,1.5a.477.477,0,0,1-.08.67A.586.586,0,0,1,204.68,105.11Zm-2.37-2.99a.459.459,0,0,1-.37-.18l-1.19-1.49a.476.476,0,0,1,.74-.6l1.2,1.49a.486.486,0,0,1-.07.67A.491.491,0,0,1,202.31,102.12Zm-2.39-2.97a.459.459,0,0,1-.37-.18l-1.2-1.48a.476.476,0,0,1,.74-.6l1.21,1.48a.468.468,0,0,1-.07.67A.491.491,0,0,1,199.92,99.15ZM197.5,96.2a.5.5,0,0,1-.37-.17l-1.22-1.47a.476.476,0,0,1,.73-.61l1.22,1.47a.476.476,0,0,1-.06.67A.43.43,0,0,1,197.5,96.2Zm-2.44-2.93a.5.5,0,0,1-.37-.17l-1.22-1.46a.476.476,0,0,1,.73-.61l1.23,1.46a.476.476,0,0,1-.06.67A.51.51,0,0,1,195.06,93.27Zm-2.46-2.92a.46.46,0,0,1-.36-.17l-1.23-1.45a.475.475,0,1,1,.72-.62l1.24,1.45a.486.486,0,0,1-.37.79Zm-2.47-2.9a.475.475,0,0,1-.36-.17l-1.25-1.44a.475.475,0,1,1,.72-.62l1.25,1.44a.475.475,0,0,1-.05.67A.465.465,0,0,1,190.13,87.45Zm-2.5-2.88a.48.48,0,0,1-.36-.16l-1.26-1.43a.475.475,0,1,1,.71-.63l1.26,1.43a.484.484,0,0,1-.04.67A.465.465,0,0,1,187.63,84.57Zm-2.53-2.86a.48.48,0,0,1-.36-.16l-1.27-1.42a.475.475,0,1,1,.71-.63l1.27,1.42a.465.465,0,0,1-.04.67A.43.43,0,0,1,185.1,81.71Zm-2.54-2.84a.445.445,0,0,1-.35-.16l-1.28-1.41a.474.474,0,0,1,.7-.64l1.28,1.41a.474.474,0,0,1-.03.67A.454.454,0,0,1,182.56,78.87Zm-2.57-2.82a.469.469,0,0,1-.35-.15l-1.29-1.4a.474.474,0,1,1,.7-.64l1.3,1.4a.465.465,0,0,1-.03.67A.537.537,0,0,1,179.99,76.05Zm-2.6-2.8a.485.485,0,0,1-.35-.15l-1.31-1.39a.474.474,0,0,1,.69-.65l1.31,1.39a.474.474,0,0,1-.02.67A.422.422,0,0,1,177.39,73.25Zm-2.62-2.77a.448.448,0,0,1-.34-.15c-.44-.46-.88-.92-1.32-1.37a.474.474,0,1,1,.68-.66q.66.675,1.32,1.38a.474.474,0,0,1-.01.67A.46.46,0,0,1,174.77,70.48Zm-2.65-2.74a.494.494,0,0,1-.34-.14c-.45-.46-.89-.91-1.34-1.36a.474.474,0,0,1,.67-.67c.44.45.89.9,1.34,1.36a.474.474,0,0,1-.01.67A.4.4,0,0,1,172.12,67.74Zm-2.69-2.71a.513.513,0,0,1-.34-.14l-1.17-1.16a.474.474,0,0,1,.67-.67l1.17,1.16a.465.465,0,0,1,0,.67A.437.437,0,0,1,169.43,65.03Z" fill="#fff"/>
          </g>
          <g id="Grupo_1094912" data-name="Grupo 1094912">
            <path id="Trazado_836730" data-name="Trazado 836730" d="M248.15,172.92a.5.5,0,0,1-.45-.31c-.22-.57-.45-1.16-.7-1.76a.475.475,0,0,1,.88-.36c.25.61.49,1.21.71,1.79a.47.47,0,0,1-.28.61A.381.381,0,0,1,248.15,172.92Zm-1.45-3.53a.5.5,0,0,1-.44-.28c-.25-.56-.51-1.14-.78-1.73a.474.474,0,0,1,.86-.4c.28.6.54,1.18.79,1.75a.476.476,0,0,1-.24.63A.628.628,0,0,1,246.7,169.39Zm-1.6-3.46a.473.473,0,0,1-.43-.27c-.27-.56-.55-1.13-.84-1.7a.476.476,0,0,1,.85-.43c.29.58.57,1.15.85,1.72a.491.491,0,0,1-.22.64A.779.779,0,0,1,245.1,165.93Zm-1.71-3.41a.46.46,0,0,1-.42-.26c-.29-.55-.58-1.12-.88-1.68a.481.481,0,0,1,.85-.45c.31.57.6,1.14.89,1.69a.477.477,0,0,1-.2.64A.6.6,0,0,1,243.39,162.52Zm-1.79-3.37a.48.48,0,0,1-.42-.25c-.3-.55-.61-1.1-.92-1.67a.477.477,0,0,1,.83-.47c.32.56.62,1.12.92,1.67a.479.479,0,0,1-.19.65A.36.36,0,0,1,241.6,159.15Zm-1.86-3.33a.475.475,0,0,1-.41-.24c-.31-.54-.63-1.1-.95-1.65a.475.475,0,0,1,.82-.48c.32.56.64,1.11.95,1.66a.476.476,0,0,1-.18.65A.465.465,0,0,1,239.74,155.82Zm-1.92-3.3a.477.477,0,0,1-.41-.23l-.34-.57a.475.475,0,1,1,.82-.48l.34.57a.467.467,0,0,1-.41.71Z" fill="#474f50"/>
          </g>
          <g id="Grupo_1094913" data-name="Grupo 1094913">
            <path id="Trazado_836731" data-name="Trazado 836731" d="M247.12,185.61a7.158,7.158,0,0,1-1.64-.21.473.473,0,0,1,.22-.92,5.87,5.87,0,0,0,1.74.17.485.485,0,0,1,.51.44.472.472,0,0,1-.44.51C247.39,185.61,247.25,185.61,247.12,185.61Zm-3.34-.78a.566.566,0,0,1-.18-.03,18.006,18.006,0,0,1-1.77-.81.481.481,0,0,1-.21-.64.472.472,0,0,1,.64-.21c.59.3,1.16.56,1.7.77a.489.489,0,0,1,.27.62A.507.507,0,0,1,243.78,184.83Zm-3.41-1.7a.533.533,0,0,1-.24-.06c-.53-.31-1.08-.64-1.64-1.01a.477.477,0,0,1,.52-.8c.55.35,1.09.68,1.61.98a.464.464,0,0,1,.17.65A.493.493,0,0,1,240.37,183.13Zm-3.22-2.05a.53.53,0,0,1-.27-.08c-.51-.35-1.03-.72-1.57-1.11a.48.48,0,1,1,.56-.78c.53.38,1.04.75,1.55,1.09a.47.47,0,0,1,.12.66A.447.447,0,0,1,237.15,181.08Zm-3.09-2.24a.464.464,0,0,1-.29-.1c-.5-.38-1-.77-1.51-1.18a.477.477,0,0,1,.59-.75c.51.4,1.01.79,1.5,1.16a.478.478,0,0,1,.09.67A.433.433,0,0,1,234.06,178.84Zm-2.99-2.36a.482.482,0,0,1-.3-.11c-.48-.4-.98-.8-1.47-1.22a.476.476,0,1,1,.61-.73c.5.42.98.82,1.46,1.21a.487.487,0,0,1,.07.67A.473.473,0,0,1,231.07,176.48Zm-2.92-2.46a.465.465,0,0,1-.31-.12c-.47-.41-.96-.83-1.44-1.26a.475.475,0,1,1,.63-.71c.48.43.96.84,1.43,1.25a.475.475,0,0,1,.05.67A.444.444,0,0,1,228.15,174.02Zm-2.86-2.52a.49.49,0,0,1-.32-.12q-.705-.63-1.41-1.29a.475.475,0,0,1-.03-.67.484.484,0,0,1,.67-.03c.47.43.94.86,1.41,1.28a.475.475,0,0,1-.32.83Z" fill="#474f50"/>
          </g>
          <g id="Grupo_1094914" data-name="Grupo 1094914">
            <path id="Trazado_836732" data-name="Trazado 836732" d="M230.73,56.04a.488.488,0,0,1-.38-.19.478.478,0,0,1,.09-.67c.51-.39,1.02-.77,1.52-1.15a.478.478,0,0,1,.58.76c-.5.38-1.01.76-1.52,1.15A.464.464,0,0,1,230.73,56.04Zm3.05-2.29a.474.474,0,0,1-.38-.19.48.48,0,0,1,.1-.67c.52-.38,1.04-.76,1.54-1.13a.473.473,0,0,1,.67.11.482.482,0,0,1-.11.67c-.51.37-1.02.74-1.54,1.12A.468.468,0,0,1,233.78,53.75Zm3.09-2.23a.474.474,0,0,1-.39-.2.469.469,0,0,1,.12-.66c.53-.37,1.05-.74,1.57-1.09a.474.474,0,0,1,.54.78c-.51.35-1.03.72-1.56,1.09A.538.538,0,0,1,236.87,51.52Zm3.15-2.16a.489.489,0,0,1-.4-.21.471.471,0,0,1,.13-.66c.54-.36,1.08-.71,1.6-1.05a.477.477,0,1,1,.52.8c-.52.34-1.05.68-1.59,1.04A.5.5,0,0,1,240.02,49.36Z" fill="#474f50"/>
          </g>
          <g id="Grupo_1094915" data-name="Grupo 1094915">
            <path id="Trazado_836733" data-name="Trazado 836733" d="M242.67,76.55a.464.464,0,0,1-.29-.1.478.478,0,0,1-.09-.67c.39-.51.77-1.02,1.15-1.52a.478.478,0,1,1,.76.58c-.38.5-.76,1.01-1.15,1.52A.488.488,0,0,1,242.67,76.55Zm2.29-3.05a.468.468,0,0,1-.28-.09.478.478,0,0,1-.1-.67c.38-.52.76-1.03,1.13-1.53a.479.479,0,0,1,.77.57c-.37.51-.75,1.02-1.13,1.54A.532.532,0,0,1,244.96,73.5Zm2.25-3.08a.49.49,0,0,1-.28-.09.477.477,0,0,1-.11-.66c.37-.52.74-1.04,1.1-1.55a.474.474,0,1,1,.78.54c-.36.52-.73,1.03-1.11,1.56A.444.444,0,0,1,247.21,70.42Zm2.2-3.12a.53.53,0,0,1-.27-.08.47.47,0,0,1-.12-.66c.37-.53.72-1.05,1.07-1.57a.476.476,0,0,1,.79.53c-.35.52-.71,1.05-1.08,1.58A.474.474,0,0,1,249.41,67.3Zm2.13-3.16a.5.5,0,0,1-.26-.08.483.483,0,0,1-.14-.66c.35-.54.7-1.07,1.04-1.6a.477.477,0,0,1,.8.52c-.34.53-.69,1.06-1.04,1.6A.473.473,0,0,1,251.54,64.14Zm2.06-3.22a.451.451,0,0,1-.25-.07.481.481,0,0,1-.15-.66q.51-.825.99-1.62a.473.473,0,0,1,.81.49c-.32.54-.65,1.08-1,1.64A.461.461,0,0,1,253.6,60.92Zm1.96-3.27a.533.533,0,0,1-.24-.06.476.476,0,0,1-.18-.65c.32-.56.63-1.12.92-1.66a.479.479,0,0,1,.84.46c-.3.55-.61,1.11-.94,1.68A.47.47,0,0,1,255.56,57.65Zm1.82-3.36a.585.585,0,0,1-.22-.05.481.481,0,0,1-.21-.64c.3-.58.57-1.15.83-1.7a.474.474,0,0,1,.86.4c-.26.56-.54,1.13-.84,1.73A.46.46,0,0,1,257.38,54.29Zm1.6-3.46a.392.392,0,0,1-.18-.04.479.479,0,0,1-.26-.62c.25-.61.48-1.2.66-1.75a.481.481,0,1,1,.91.31c-.2.58-.43,1.18-.69,1.81A.468.468,0,0,1,258.98,50.83Zm1.22-3.61a.41.41,0,0,1-.11-.01.476.476,0,0,1-.35-.58,11.232,11.232,0,0,0,.3-1.8.5.5,0,0,1,.51-.44.479.479,0,0,1,.44.51,12.052,12.052,0,0,1-.32,1.96A.489.489,0,0,1,260.2,47.22Zm.17-3.77a.48.48,0,0,1-.46-.35,2.306,2.306,0,0,0-.6-1.06.474.474,0,1,1,.66-.68,3.3,3.3,0,0,1,.85,1.48.484.484,0,0,1-.33.59A.254.254,0,0,1,260.37,43.45Z" fill="#474f50"/>
          </g>
          <g id="Grupo_1094916" data-name="Grupo 1094916">
            <path id="Trazado_836734" data-name="Trazado 836734" d="M166.08,154.86a.459.459,0,0,1-.37-.18.477.477,0,0,1,.08-.67c.49-.39.99-.79,1.48-1.19a.476.476,0,1,1,.6.74c-.5.41-1,.8-1.49,1.2A.472.472,0,0,1,166.08,154.86Zm2.97-2.39a.473.473,0,0,1-.37-.18.468.468,0,0,1,.07-.67l1.47-1.21a.476.476,0,1,1,.61.73l-1.48,1.21A.441.441,0,0,1,169.05,152.47Zm2.94-2.44a.5.5,0,0,1-.37-.17.476.476,0,0,1,.06-.67l1.46-1.23a.476.476,0,0,1,.61.73l-1.46,1.23A.447.447,0,0,1,171.99,150.03Zm2.91-2.46a.48.48,0,0,1-.31-.84l1.45-1.24a.475.475,0,0,1,.62.72l-1.45,1.24A.465.465,0,0,1,174.9,147.57Zm2.88-2.5a.465.465,0,0,1-.36-.16.475.475,0,0,1,.05-.67l1.43-1.26a.475.475,0,0,1,.63.71l-1.44,1.26A.43.43,0,0,1,177.78,145.07Zm2.87-2.52a.48.48,0,0,1-.36-.16.474.474,0,0,1,.04-.67l1.42-1.27a.475.475,0,0,1,.67.04.465.465,0,0,1-.04.67l-1.42,1.27A.465.465,0,0,1,180.65,142.55Zm2.84-2.54a.445.445,0,0,1-.35-.16.474.474,0,0,1,.03-.67l1.41-1.28a.474.474,0,1,1,.64.7l-1.41,1.28A.5.5,0,0,1,183.49,140.01Zm2.82-2.58a.47.47,0,0,1-.32-.82l1.4-1.29a.474.474,0,1,1,.64.7l-1.4,1.3A.539.539,0,0,1,186.31,137.43Zm2.79-2.59a.485.485,0,0,1-.35-.15.474.474,0,0,1,.02-.67l1.39-1.3a.474.474,0,1,1,.65.69l-1.39,1.31A.454.454,0,0,1,189.1,134.84Zm2.78-2.61a.485.485,0,0,1-.35-.15.474.474,0,0,1,.02-.67l1.38-1.31a.465.465,0,0,1,.67.02.474.474,0,0,1-.02.67l-1.38,1.31A.463.463,0,0,1,191.88,132.23Zm2.76-2.64a.464.464,0,0,1-.34-.15.474.474,0,0,1,.01-.67l1.37-1.32a.474.474,0,0,1,.66.68l-1.37,1.33A.46.46,0,0,1,194.64,129.59Zm2.74-2.65a.494.494,0,0,1-.34-.14.474.474,0,0,1,.01-.67l1.36-1.33a.474.474,0,0,1,.66.68l-1.36,1.34A.555.555,0,0,1,197.38,126.94Zm2.72-2.68a.494.494,0,0,1-.34-.14.474.474,0,0,1,0-.67l1.35-1.34a.474.474,0,0,1,.67.67l-1.35,1.35A.46.46,0,0,1,200.1,124.26Zm2.7-2.69a.513.513,0,0,1-.34-.14.465.465,0,0,1,0-.67l1.34-1.35.68.67-1.34,1.35A.513.513,0,0,1,202.8,121.57Zm2.68-2.71a.48.48,0,0,1-.34-.81l1.33-1.36a.474.474,0,1,1,.68.66l-1.34,1.36A.413.413,0,0,1,205.48,118.86Zm2.67-2.74a.46.46,0,0,1-.33-.13.474.474,0,0,1-.01-.67l1.32-1.37a.474.474,0,0,1,.67-.01.465.465,0,0,1,.01.67l-1.33,1.37A.437.437,0,0,1,208.15,116.12Zm2.65-2.74a.47.47,0,0,1-.34-.8l1.32-1.38a.474.474,0,0,1,.69.65l-1.32,1.38A.5.5,0,0,1,210.8,113.38Zm2.62-2.77a.475.475,0,0,1-.35-.8l1.3-1.39a.474.474,0,0,1,.69.65l-1.31,1.39A.4.4,0,0,1,213.42,110.61Zm2.61-2.78a.438.438,0,0,1-.32-.13.474.474,0,0,1-.02-.67l1.3-1.4a.474.474,0,1,1,.7.64l-1.3,1.4A.519.519,0,0,1,216.03,107.83Zm2.59-2.81a.438.438,0,0,1-.32-.13.475.475,0,0,1-.03-.67l1.28-1.41a.474.474,0,1,1,.7.64l-1.29,1.41A.412.412,0,0,1,218.62,105.02Zm2.57-2.82a.49.49,0,0,1-.32-.12.466.466,0,0,1-.03-.67l1.28-1.42a.475.475,0,1,1,.71.63l-1.28,1.42A.48.48,0,0,1,221.19,102.2Zm2.54-2.84a.49.49,0,0,1-.32-.12.475.475,0,0,1-.04-.67l1.26-1.43a.475.475,0,1,1,.71.63l-1.27,1.43A.388.388,0,0,1,223.73,99.36Zm2.53-2.86a.475.475,0,0,1-.35-.79l1.25-1.44a.475.475,0,0,1,.72.62l-1.25,1.44A.491.491,0,0,1,226.26,96.5Zm2.5-2.88a.465.465,0,0,1-.31-.12.475.475,0,0,1-.05-.67l1.24-1.45a.475.475,0,0,1,.72.62l-1.24,1.45A.444.444,0,0,1,228.76,93.62Zm2.48-2.9a.51.51,0,0,1-.31-.11.476.476,0,0,1-.06-.67c.41-.49.82-.97,1.23-1.46a.476.476,0,1,1,.73.61c-.41.49-.82.97-1.23,1.46A.475.475,0,0,1,231.24,90.72Zm2.45-2.92a.462.462,0,0,1-.3-.11.476.476,0,0,1-.06-.67l1.21-1.47a.476.476,0,0,1,.74.6l-1.22,1.47A.473.473,0,0,1,233.69,87.8Zm2.42-2.95a.482.482,0,0,1-.3-.11.477.477,0,0,1-.07-.67c.4-.5.8-.99,1.2-1.48a.468.468,0,0,1,.67-.07.477.477,0,0,1,.07.67c-.4.49-.8.99-1.2,1.48A.459.459,0,0,1,236.11,84.85Zm2.4-2.97a.492.492,0,0,1-.3-.1.477.477,0,0,1-.08-.67c.4-.5.79-1,1.18-1.49a.477.477,0,0,1,.75.59c-.39.5-.79,1-1.19,1.5A.446.446,0,0,1,238.51,81.88Zm2.36-2.99a.445.445,0,0,1-.29-.1.468.468,0,0,1-.08-.67l1.17-1.51a.487.487,0,0,1,.67-.09.478.478,0,0,1,.09.67l-1.17,1.51A.54.54,0,0,1,240.87,78.89Z" fill="#fff"/>
          </g>
          <g id="Grupo_1094917" data-name="Grupo 1094917">
            <path id="Trazado_836735" data-name="Trazado 836735" d="M140.33,171.73a.463.463,0,0,1-.44-.3.475.475,0,0,1,.27-.62c.55-.22,1.13-.47,1.73-.75a.474.474,0,1,1,.4.86c-.62.29-1.21.54-1.77.77A.719.719,0,0,1,140.33,171.73Zm3.46-1.6a.46.46,0,0,1-.42-.26.472.472,0,0,1,.21-.64c.54-.28,1.1-.57,1.67-.89a.479.479,0,1,1,.46.84c-.58.32-1.15.62-1.7.91A.851.851,0,0,1,143.79,170.13Zm3.34-1.84a.466.466,0,0,1-.41-.24.473.473,0,0,1,.17-.65c.53-.31,1.07-.64,1.63-.98a.48.48,0,1,1,.5.82c-.56.34-1.11.67-1.64.99A.573.573,0,0,1,147.13,168.29Zm3.25-2a.473.473,0,0,1-.4-.22.481.481,0,0,1,.14-.66c.52-.33,1.05-.68,1.59-1.04a.464.464,0,0,1,.66.14.474.474,0,0,1-.14.66c-.54.36-1.08.71-1.6,1.04A.375.375,0,0,1,150.38,166.29Zm3.18-2.1a.459.459,0,0,1-.39-.21.478.478,0,0,1,.12-.66c.51-.35,1.04-.71,1.56-1.08a.474.474,0,1,1,.54.78c-.53.37-1.06.74-1.57,1.09A.469.469,0,0,1,153.56,164.19Zm3.13-2.19a.488.488,0,0,1-.39-.2.477.477,0,0,1,.11-.66c.51-.36,1.02-.74,1.54-1.12a.479.479,0,1,1,.57.77c-.52.38-1.04.75-1.55,1.12A.514.514,0,0,1,156.69,162Zm3.07-2.26a.474.474,0,0,1-.38-.19.48.48,0,0,1,.1-.67c.5-.38,1.01-.76,1.52-1.15a.478.478,0,0,1,.58.76c-.51.39-1.02.77-1.53,1.15A.464.464,0,0,1,159.76,159.74Zm3.04-2.3a.473.473,0,0,1-.38-.19.478.478,0,0,1,.09-.67q.75-.57,1.5-1.17a.477.477,0,1,1,.59.75c-.51.4-1.01.79-1.51,1.17A.456.456,0,0,1,162.8,157.44Zm3-2.36a.459.459,0,0,1-.37-.18.477.477,0,0,1,.08-.67l.28-.22a.477.477,0,0,1,.59.75l-.28.22A.472.472,0,0,1,165.8,155.08Z" fill="#474f50"/>
          </g>
          <g id="Grupo_1094918" data-name="Grupo 1094918">
            <path id="Trazado_836736" data-name="Trazado 836736" d="M135.7,158.81a.428.428,0,0,1-.22-.06.486.486,0,0,1-.2-.65l.39-.71a.479.479,0,0,1,.84.46l-.38.7A.505.505,0,0,1,135.7,158.81Zm1.32-2.37a.533.533,0,0,1-.24-.06.476.476,0,0,1-.18-.65c.31-.54.64-1.09.97-1.65a.473.473,0,1,1,.81.49c-.33.56-.66,1.1-.96,1.64A.47.47,0,0,1,137.02,156.44Zm1.96-3.27a.451.451,0,0,1-.25-.07.481.481,0,0,1-.15-.66q.5-.795,1.02-1.62a.481.481,0,0,1,.66-.14.472.472,0,0,1,.14.66c-.35.54-.69,1.08-1.02,1.61A.461.461,0,0,1,138.98,153.17Zm2.06-3.21a.5.5,0,0,1-.26-.08.481.481,0,0,1-.14-.66c.35-.52.7-1.05,1.06-1.59a.482.482,0,0,1,.66-.13.471.471,0,0,1,.13.66c-.36.53-.71,1.06-1.06,1.58A.445.445,0,0,1,141.04,149.96Zm2.14-3.16a.53.53,0,0,1-.27-.08.47.47,0,0,1-.12-.66c.36-.52.72-1.04,1.1-1.57a.473.473,0,1,1,.77.55c-.37.53-.73,1.05-1.09,1.56A.474.474,0,0,1,143.18,146.8Z" fill="#474f50"/>
          </g>
        </g>
        <g id="Grupo_1094920" data-name="Grupo 1094920">
          <path id="Trazado_836737" data-name="Trazado 836737" d="M178.89,193.81l-1.8.64a.478.478,0,0,1-.32-.9l1.8-.64a.478.478,0,1,1,.32.9Zm-3.59,1.29-1.8.64a.478.478,0,1,1-.32-.9l1.8-.64a.478.478,0,1,1,.32.9Zm-3.59,1.28-1.8.64a.478.478,0,0,1-.32-.9l1.8-.64a.478.478,0,1,1,.32.9Zm-3.59,1.29-1.8.64a.478.478,0,1,1-.32-.9l1.8-.64a.478.478,0,1,1,.32.9Zm-3.59,1.28-1.8.64a.478.478,0,1,1-.32-.9l1.8-.64a.478.478,0,1,1,.32.9Zm-3.59,1.29-1.8.64a.478.478,0,1,1-.32-.9l1.8-.64a.475.475,0,0,1,.61.29A.483.483,0,0,1,160.94,200.24Zm-3.59,1.29-1.8.64a.478.478,0,1,1-.32-.9l1.8-.64a.475.475,0,0,1,.61.29A.492.492,0,0,1,157.35,201.53Zm-3.59,1.28-1.8.64a.478.478,0,0,1-.32-.9l1.8-.64a.475.475,0,0,1,.61.29A.488.488,0,0,1,153.76,202.81Zm-3.6,1.29-1.8.64a.478.478,0,1,1-.32-.9l1.8-.64a.478.478,0,0,1,.32.9Zm-3.59,1.29-1.8.64a.478.478,0,0,1-.32-.9l1.8-.64a.478.478,0,1,1,.32.9Zm-3.59,1.27h0c-.62.21-1.23.4-1.84.59a.479.479,0,0,1-.6-.31.471.471,0,0,1,.31-.6c.6-.19,1.2-.38,1.8-.58a.474.474,0,0,1,.6.3A.458.458,0,0,1,142.98,206.66Zm-3.65,1.12c-.01,0-.02.01-.03.01-.62.17-1.23.34-1.85.49a.486.486,0,0,1-.58-.35.494.494,0,0,1,.35-.58c.61-.15,1.22-.32,1.83-.49a.484.484,0,0,1,.59.33A.5.5,0,0,1,139.33,207.78Zm-3.69.93c-.02.01-.04.01-.06.02-.62.14-1.25.27-1.88.4a.479.479,0,0,1-.56-.37.484.484,0,0,1,.37-.56c.62-.12,1.24-.26,1.85-.4a.472.472,0,0,1,.57.36A.46.46,0,0,1,135.64,208.71Zm-3.74.75a.235.235,0,0,1-.08.02q-.945.165-1.89.3a.474.474,0,0,1-.54-.4.482.482,0,0,1,.4-.54c.62-.09,1.25-.19,1.87-.3a.47.47,0,0,1,.55.39A.486.486,0,0,1,131.9,209.46Zm-3.77.56a.356.356,0,0,1-.1.02c-.64.08-1.27.15-1.91.21a.474.474,0,0,1-.52-.43.467.467,0,0,1,.43-.52c.63-.06,1.26-.13,1.88-.21a.482.482,0,0,1,.22.93Zm-3.8.36c-.04.01-.08.02-.13.03-.64.04-1.28.08-1.92.11a.476.476,0,0,1-.05-.95c.63-.03,1.26-.07,1.89-.11a.479.479,0,0,1,.51.44A.451.451,0,0,1,124.33,210.38Zm-3.82.18a.4.4,0,0,1-.15.03c-.64.01-1.28.02-1.93.01a.472.472,0,0,1-.47-.48.478.478,0,0,1,.48-.47c.63,0,1.27,0,1.9-.01a.473.473,0,0,1,.17.92Zm-3.82-.02a.484.484,0,0,1-.18.03q-.96-.03-1.92-.09a.476.476,0,0,1,.05-.95c.63.04,1.26.06,1.9.09a.475.475,0,0,1,.15.92Zm-3.82-.22a.645.645,0,0,1-.2.03c-.64-.05-1.28-.11-1.91-.18a.473.473,0,0,1,.1-.94q.945.105,1.89.18a.479.479,0,0,1,.44.51A.491.491,0,0,1,112.87,210.32Zm-3.8-.41a.416.416,0,0,1-.22.02c-.64-.08-1.27-.18-1.9-.28a.481.481,0,1,1,.15-.95c.63.1,1.25.19,1.88.28a.483.483,0,0,1,.41.54A.5.5,0,0,1,109.07,209.91Zm-3.77-.6a.424.424,0,0,1-.25.02c-.63-.12-1.26-.24-1.89-.38a.486.486,0,0,1-.37-.57.481.481,0,0,1,.57-.37c.62.13,1.24.26,1.86.37a.488.488,0,0,1,.08.93Zm-3.74-.8a.492.492,0,0,1-.27.02c-.62-.15-1.25-.31-1.86-.47a.479.479,0,0,1-.34-.58.471.471,0,0,1,.58-.34c.61.16,1.22.32,1.84.46a.471.471,0,0,1,.35.57A.436.436,0,0,1,101.56,208.51Zm-3.69-.97a.477.477,0,0,1-.29.01c-.61-.18-1.23-.37-1.84-.56a.478.478,0,0,1,.29-.91c.6.19,1.21.38,1.81.56a.475.475,0,0,1,.03.9Zm-3.63-1.17a.442.442,0,0,1-.32,0c-.61-.21-1.21-.43-1.81-.65a.475.475,0,1,1,.33-.89c.59.22,1.18.44,1.78.65a.475.475,0,0,1,.29.61A.419.419,0,0,1,94.24,206.37Zm-3.57-1.34a.446.446,0,0,1-.34-.01c-.59-.24-1.18-.49-1.77-.74a.479.479,0,0,1,.38-.88c.58.25,1.16.5,1.75.73a.486.486,0,0,1-.02.9Zm-3.5-1.52a.455.455,0,0,1-.36-.02c-.58-.27-1.16-.55-1.73-.83a.479.479,0,1,1,.42-.86c.57.28,1.14.55,1.71.82a.472.472,0,0,1,.23.63A.461.461,0,0,1,87.17,203.51Zm-3.42-1.7a.462.462,0,0,1-.38-.03c-.57-.3-1.13-.6-1.69-.92a.477.477,0,1,1,.47-.83c.55.31,1.1.61,1.66.9a.477.477,0,0,1,.2.64A.41.41,0,0,1,83.75,201.81Zm-3.32-1.86a.438.438,0,0,1-.4-.04c-.55-.33-1.1-.66-1.64-1a.479.479,0,1,1,.51-.81q.795.51,1.62.99a.475.475,0,0,1,.17.65A.58.58,0,0,1,80.43,199.95Zm-3.23-2.02a.452.452,0,0,1-.42-.05c-.53-.35-1.06-.71-1.58-1.08a.471.471,0,0,1-.12-.66.479.479,0,0,1,.66-.12c.52.36,1.04.72,1.56,1.07a.474.474,0,0,1-.1.84Zm-3.12-2.19a.47.47,0,0,1-.44-.07c-.51-.38-1.02-.77-1.53-1.16a.477.477,0,1,1,.59-.75c.5.39,1,.77,1.51,1.14a.481.481,0,0,1-.13.84Zm-3-2.34a.481.481,0,0,1-.46-.08q-.735-.6-1.47-1.23a.475.475,0,0,1,.62-.72c.48.41.96.82,1.45,1.22a.487.487,0,0,1,.07.67A.412.412,0,0,1,71.08,193.4Zm-2.88-2.48a.453.453,0,0,1-.48-.1c-.47-.43-.94-.86-1.4-1.3a.474.474,0,0,1,.65-.69c.46.44.92.86,1.38,1.29a.487.487,0,0,1-.15.8Zm-2.75-2.63a.491.491,0,0,1-.5-.11c-.45-.45-.89-.91-1.33-1.37a.474.474,0,1,1,.69-.65q.645.69,1.32,1.35a.465.465,0,0,1,0,.67A.582.582,0,0,1,65.45,188.29Zm-2.62-2.76a.489.489,0,0,1-.52-.13c-.43-.48-.85-.96-1.27-1.44a.475.475,0,1,1,.72-.62c.41.48.83.96,1.25,1.42a.465.465,0,0,1-.04.67A.243.243,0,0,1,62.83,185.53Zm-2.48-2.89a.47.47,0,0,1-.53-.15c-.4-.5-.8-1-1.19-1.51a.478.478,0,0,1,.76-.58c.39.5.78,1,1.18,1.49a.468.468,0,0,1-.07.67A1.1,1.1,0,0,1,60.35,182.64Zm-2.32-3.02a.479.479,0,0,1-.55-.17q-.57-.78-1.11-1.56a.474.474,0,0,1,.78-.54c.36.52.73,1.03,1.1,1.54a.48.48,0,0,1-.1.67Zm-2.18-3.14a.48.48,0,0,1-.56-.19c-.35-.53-.69-1.07-1.03-1.62a.483.483,0,0,1,.15-.66.49.49,0,0,1,.66.15c.33.54.67,1.07,1.02,1.6a.481.481,0,0,1-.14.66A.207.207,0,0,1,55.85,176.48Zm-2-3.24a.474.474,0,0,1-.57-.21c-.32-.55-.64-1.11-.95-1.67a.479.479,0,1,1,.84-.46c.31.55.62,1.1.94,1.65a.473.473,0,0,1-.17.65C53.9,173.22,53.87,173.23,53.85,173.24ZM52,169.9a.477.477,0,0,1-.58-.23c-.29-.57-.58-1.14-.86-1.71a.473.473,0,0,1,.22-.64.485.485,0,0,1,.64.22c.28.57.56,1.13.85,1.69a.477.477,0,0,1-.2.64A.362.362,0,0,1,52,169.9Zm-1.67-3.43a.47.47,0,0,1-.59-.25c-.27-.58-.52-1.17-.78-1.75a.489.489,0,0,1,.25-.63.469.469,0,0,1,.63.25c.25.58.5,1.16.77,1.73a.48.48,0,0,1-.23.63C50.36,166.46,50.35,166.47,50.33,166.47Zm-1.5-3.5a.466.466,0,0,1-.6-.27c-.24-.59-.46-1.19-.69-1.79a.47.47,0,0,1,.28-.61.5.5,0,0,1,.61.28c.22.59.45,1.18.68,1.77a.475.475,0,0,1-.27.62C48.85,162.96,48.84,162.96,48.83,162.97Zm-1.32-3.58h0a.475.475,0,0,1-.61-.29c-.21-.61-.41-1.21-.6-1.82a.488.488,0,0,1,.31-.6.479.479,0,0,1,.6.31c.19.6.39,1.2.59,1.8A.464.464,0,0,1,47.51,159.39Zm-1.14-3.64c-.01,0-.02.01-.03.01a.476.476,0,0,1-.59-.33c-.18-.62-.35-1.23-.51-1.85a.475.475,0,0,1,.92-.24c.16.61.32,1.22.5,1.83A.455.455,0,0,1,46.37,155.75Zm-.96-3.69c-.02.01-.04.01-.05.02a.472.472,0,0,1-.57-.36c-.15-.63-.28-1.25-.41-1.87a.479.479,0,0,1,.37-.56.471.471,0,0,1,.56.37c.13.62.26,1.23.41,1.85A.478.478,0,0,1,45.41,152.06Zm-.77-3.73a.188.188,0,0,1-.08.02.47.47,0,0,1-.55-.39c-.11-.63-.22-1.26-.32-1.89a.475.475,0,0,1,.94-.14c.1.62.2,1.25.31,1.87A.458.458,0,0,1,44.64,148.33Zm-.58-3.77a.355.355,0,0,1-.1.02.474.474,0,0,1-.53-.41c-.08-.64-.15-1.27-.22-1.91a.472.472,0,0,1,.42-.52.466.466,0,0,1,.52.42c.06.63.14,1.26.22,1.88A.482.482,0,0,1,44.06,144.56Zm-.39-3.79-.12.03a.479.479,0,0,1-.51-.44q-.075-.96-.12-1.92a.476.476,0,0,1,.95-.05c.03.63.07,1.26.12,1.9A.5.5,0,0,1,43.67,140.77Zm-.2-3.82a.4.4,0,0,1-.15.03.478.478,0,0,1-.49-.46q-.03-.96-.03-1.92a.487.487,0,0,1,.48-.48.48.48,0,0,1,.48.48c0,.63.01,1.27.02,1.9A.462.462,0,0,1,43.47,136.95Zm0-3.83a.467.467,0,0,1-.17.03.494.494,0,0,1-.47-.49c.02-.64.04-1.28.07-1.92a.479.479,0,0,1,.5-.45.472.472,0,0,1,.45.5c-.03.63-.06,1.26-.07,1.9A.454.454,0,0,1,43.47,133.12Zm.19-3.82a.645.645,0,0,1-.2.03.479.479,0,0,1-.44-.51c.05-.64.11-1.28.17-1.91a.477.477,0,0,1,.95.09c-.06.63-.12,1.26-.17,1.89A.466.466,0,0,1,43.66,129.3Zm.39-3.8a.534.534,0,0,1-.22.02.467.467,0,0,1-.41-.53c.08-.64.17-1.27.27-1.9a.48.48,0,0,1,.54-.4.474.474,0,0,1,.4.54c-.1.63-.18,1.25-.26,1.88A.516.516,0,0,1,44.05,125.5Zm.57-3.77a.4.4,0,0,1-.24.02.482.482,0,0,1-.39-.55q.165-.945.36-1.89a.475.475,0,1,1,.93.19q-.2.93-.36,1.86A.445.445,0,0,1,44.62,121.73Zm.77-3.74a.492.492,0,0,1-.27.02.477.477,0,0,1-.36-.57c.15-.62.3-1.25.46-1.87a.475.475,0,0,1,.92.24c-.16.61-.31,1.23-.45,1.84A.468.468,0,0,1,45.39,117.99Zm.96-3.7a.477.477,0,0,1-.29.01.484.484,0,0,1-.33-.59c.18-.62.36-1.23.55-1.84a.478.478,0,0,1,.91.29c-.19.6-.37,1.21-.54,1.82A.487.487,0,0,1,46.35,114.29Zm1.14-3.64a.415.415,0,0,1-.31,0,.478.478,0,0,1-.3-.6c.21-.61.42-1.21.64-1.81a.475.475,0,0,1,.89.33c-.22.59-.43,1.19-.63,1.79A.489.489,0,0,1,47.49,110.65Zm1.32-3.58a.447.447,0,0,1-.34-.01.492.492,0,0,1-.27-.62c.24-.59.48-1.19.73-1.77a.479.479,0,0,1,.88.38c-.25.58-.49,1.17-.72,1.75A.466.466,0,0,1,48.81,107.07Zm1.5-3.51a.5.5,0,0,1-.36-.01.484.484,0,0,1-.24-.63c.27-.58.54-1.16.82-1.74a.479.479,0,1,1,.86.42q-.42.855-.81,1.71A.469.469,0,0,1,50.31,103.56Zm1.67-3.42a.462.462,0,0,1-.38-.03.469.469,0,0,1-.2-.64c.29-.57.6-1.13.91-1.69a.479.479,0,1,1,.84.46c-.31.55-.6,1.11-.89,1.67A.611.611,0,0,1,51.98,100.14Zm1.84-3.34a.44.44,0,0,1-.4-.04.475.475,0,0,1-.17-.65c.32-.55.65-1.1.99-1.64a.479.479,0,1,1,.81.51c-.33.54-.66,1.08-.98,1.62A.546.546,0,0,1,53.82,96.8Zm2.01-3.24a.452.452,0,0,1-.42-.05.481.481,0,0,1-.14-.66c.35-.53.71-1.06,1.07-1.59a.474.474,0,1,1,.78.54c-.36.52-.71,1.04-1.06,1.57A.427.427,0,0,1,55.83,93.56Zm2.16-3.13a.5.5,0,0,1-.44-.06.478.478,0,0,1-.1-.67c.38-.52.76-1.03,1.15-1.53a.478.478,0,0,1,.76.58c-.38.5-.76,1.01-1.13,1.51A.661.661,0,0,1,57.99,90.43Zm2.32-3.03a.477.477,0,0,1-.53-.75c.4-.5.81-.99,1.22-1.47a.476.476,0,0,1,.73.61c-.41.48-.81.97-1.21,1.46A.378.378,0,0,1,60.31,87.4Zm2.47-2.89a.475.475,0,0,1-.52-.76c.43-.47.86-.95,1.3-1.41a.474.474,0,1,1,.69.65c-.43.46-.86.92-1.28,1.39A.5.5,0,0,1,62.78,84.51Zm2.61-2.77a.491.491,0,0,1-.5-.11.465.465,0,0,1,0-.67c.45-.45.9-.9,1.36-1.34a.474.474,0,0,1,.66.68c-.46.44-.9.88-1.35,1.33A.619.619,0,0,1,65.39,81.74Zm2.74-2.63a.468.468,0,0,1-.51-.13.474.474,0,0,1,.03-.67c.47-.43.95-.85,1.43-1.27a.475.475,0,0,1,.62.72c-.48.41-.95.83-1.41,1.25A.624.624,0,0,1,68.13,79.11Zm2.88-2.49a.474.474,0,0,1-.53-.15.468.468,0,0,1,.07-.67q.735-.615,1.5-1.2a.477.477,0,0,1,.59.75c-.5.39-.99.78-1.48,1.19A1.094,1.094,0,0,1,71.01,76.62Zm3-2.35a.46.46,0,0,1-.54-.17.48.48,0,0,1,.1-.67c.51-.38,1.03-.75,1.56-1.12a.474.474,0,1,1,.54.78c-.52.36-1.03.73-1.54,1.11A.346.346,0,0,1,74.01,74.27Zm3.12-2.19a.493.493,0,0,1-.56-.18.469.469,0,0,1,.13-.66c.53-.35,1.07-.7,1.61-1.04a.479.479,0,1,1,.51.81c-.53.34-1.06.68-1.59,1.03A.689.689,0,0,0,77.13,72.08Zm3.22-2.03a.476.476,0,0,1-.4-.86l.65-.38a.473.473,0,0,1,.65.17.482.482,0,0,1-.17.65l-.65.38A.2.2,0,0,1,80.35,70.05Z" fill="#474f50"/>
        </g>
        <g id="Grupo_1094921" data-name="Grupo 1094921">
          <path id="Trazado_836738" data-name="Trazado 836738" d="M279.3,189.61h-1.91a.48.48,0,1,1,0-.96h1.91a.48.48,0,0,1,.48.48A.487.487,0,0,1,279.3,189.61Zm-3.82,0h-1.91a.48.48,0,1,1,0-.96h1.91a.48.48,0,0,1,.48.48A.474.474,0,0,1,275.48,189.61Zm-3.81,0h-1.91a.48.48,0,1,1,0-.96h1.91a.48.48,0,1,1,0,.96Zm-3.82,0h-1.91a.48.48,0,1,1,0-.96h1.91a.48.48,0,0,1,.48.48A.474.474,0,0,1,267.85,189.61Zm13.35,0a.48.48,0,0,1-.01-.96q.945-.015,1.89-.06a.44.44,0,0,1,.5.45.479.479,0,0,1-.45.5c-.63.03-1.27.06-1.93.07Zm3.81-.2a.477.477,0,0,1-.47-.44.471.471,0,0,1,.43-.51c.63-.05,1.26-.12,1.88-.19a.48.48,0,0,1,.53.42.474.474,0,0,1-.42.53c-.64.08-1.27.14-1.91.2A.06.06,0,0,0,285.01,189.41Zm3.79-.45a.482.482,0,0,1-.47-.4.474.474,0,0,1,.4-.54c.62-.1,1.25-.2,1.86-.32a.483.483,0,0,1,.56.38.478.478,0,0,1-.38.56c-.63.12-1.26.23-1.9.33A.17.17,0,0,0,288.8,188.96Zm3.74-.71a.462.462,0,0,1-.46-.37.472.472,0,0,1,.36-.57c.62-.14,1.23-.29,1.84-.45a.47.47,0,0,1,.58.34.463.463,0,0,1-.34.58c-.62.16-1.24.31-1.87.46A.41.41,0,0,1,292.54,188.25Zm3.69-.97a.48.48,0,0,1-.46-.34.47.47,0,0,1,.32-.59q.9-.27,1.8-.57a.474.474,0,0,1,.3.9c-.61.21-1.22.4-1.83.58A.275.275,0,0,1,296.23,187.28Zm3.62-1.22a.5.5,0,0,1-.45-.31.47.47,0,0,1,.28-.61c.59-.22,1.18-.46,1.76-.7a.475.475,0,1,1,.36.88c-.59.25-1.19.48-1.79.71A.414.414,0,0,1,299.85,186.06Zm3.53-1.47a.466.466,0,0,1-.43-.28.476.476,0,0,1,.24-.63c.58-.26,1.14-.53,1.71-.82a.476.476,0,0,1,.43.85c-.57.29-1.15.56-1.74.83A.43.43,0,0,1,303.38,184.59Zm3.41-1.71a.48.48,0,0,1-.23-.9q.825-.45,1.65-.93a.475.475,0,1,1,.48.82c-.55.33-1.11.64-1.68.95A.334.334,0,0,1,306.79,182.88Zm3.29-1.93a.476.476,0,0,1-.25-.88c.53-.34,1.06-.69,1.58-1.04a.474.474,0,0,1,.54.78c-.53.36-1.06.72-1.61,1.06A.5.5,0,0,1,310.08,180.95Zm3.15-2.16a.474.474,0,0,1-.38-.19.48.48,0,0,1,.1-.67c.51-.37,1.01-.76,1.5-1.15a.477.477,0,0,1,.59.75q-.75.6-1.53,1.17A.468.468,0,0,1,313.23,178.79Zm2.99-2.37a.46.46,0,0,1-.36-.17.467.467,0,0,1,.06-.67c.48-.41.95-.83,1.42-1.25a.474.474,0,1,1,.64.7c-.47.43-.96.85-1.45,1.27A.465.465,0,0,1,316.22,176.42Zm2.83-2.57a.494.494,0,0,1-.34-.14.474.474,0,0,1,.01-.67c.45-.44.9-.89,1.33-1.34a.474.474,0,0,1,.68.66c-.44.46-.9.92-1.35,1.37A.5.5,0,0,1,319.05,173.85Zm2.63-2.75a.49.49,0,0,1-.32-.12.475.475,0,0,1-.04-.67c.42-.47.83-.95,1.24-1.43a.476.476,0,0,1,.73.61c-.41.49-.83.98-1.26,1.45A.431.431,0,0,1,321.68,171.1Zm2.45-2.92a.445.445,0,0,1-.29-.1.477.477,0,0,1-.08-.67c.39-.5.77-1,1.14-1.51a.48.48,0,1,1,.78.56c-.38.52-.76,1.03-1.16,1.53A.506.506,0,0,1,324.13,168.18Zm2.24-3.08a.53.53,0,0,1-.27-.08.471.471,0,0,1-.13-.66c.35-.52.69-1.05,1.03-1.58a.479.479,0,0,1,.81.51c-.34.54-.69,1.08-1.05,1.61A.474.474,0,0,1,326.37,165.1Zm2.02-3.23a.533.533,0,0,1-.24-.06.464.464,0,0,1-.17-.65c.32-.54.62-1.09.92-1.65a.479.479,0,1,1,.84.46q-.45.84-.93,1.68A.5.5,0,0,1,328.39,161.87Zm1.8-3.35a.537.537,0,0,1-.21-.05.482.482,0,0,1-.22-.64c.28-.56.54-1.13.8-1.71a.484.484,0,0,1,.63-.24.476.476,0,0,1,.24.63c-.26.58-.54,1.16-.82,1.73A.452.452,0,0,1,330.19,158.52Zm1.56-3.47a.392.392,0,0,1-.18-.04.479.479,0,0,1-.26-.62c.24-.58.47-1.17.69-1.76a.475.475,0,1,1,.89.33c-.22.6-.46,1.2-.7,1.79A.463.463,0,0,1,331.75,155.05Zm1.32-3.57a.771.771,0,0,1-.15-.02.466.466,0,0,1-.3-.6c.2-.6.38-1.2.56-1.81a.478.478,0,0,1,.59-.32.47.47,0,0,1,.32.59c-.18.62-.37,1.23-.57,1.84A.475.475,0,0,1,333.07,151.48Zm1.08-3.66a.487.487,0,0,1-.12-.01.467.467,0,0,1-.34-.58c.16-.61.3-1.22.44-1.84a.477.477,0,1,1,.93.21c-.14.63-.29,1.25-.45,1.87A.48.48,0,0,1,334.15,147.82Zm.81-3.72a.277.277,0,0,1-.09-.01.478.478,0,0,1-.38-.56c.11-.62.22-1.24.31-1.86a.48.48,0,0,1,.54-.4.474.474,0,0,1,.4.54c-.09.64-.2,1.27-.31,1.9A.482.482,0,0,1,334.96,144.1Zm.56-3.78h-.05a.481.481,0,0,1-.42-.53c.07-.62.13-1.25.18-1.88a.507.507,0,0,1,.51-.44.479.479,0,0,1,.44.51c-.05.64-.11,1.28-.18,1.91A.485.485,0,0,1,335.52,140.32Zm.3-3.8h-.02a.466.466,0,0,1-.45-.5c.03-.63.05-1.26.05-1.89a.478.478,0,0,1,.48-.47h.01a.478.478,0,0,1,.47.48c-.01.64-.03,1.29-.05,1.92A.492.492,0,0,1,335.82,136.52Zm.06-3.81a.48.48,0,0,1-.48-.48v-1.91a.48.48,0,0,1,.96,0v1.91A.48.48,0,0,1,335.88,132.71Zm0-3.81a.48.48,0,0,1-.48-.48v-1.91a.48.48,0,0,1,.96,0v1.91A.487.487,0,0,1,335.88,128.9Zm0-3.82a.48.48,0,0,1-.48-.48v-1.91a.48.48,0,0,1,.96,0v1.91A.48.48,0,0,1,335.88,125.08Zm0-3.81a.48.48,0,0,1-.48-.48v-1.91a.48.48,0,0,1,.96,0v1.91A.487.487,0,0,1,335.88,121.27Zm0-3.82a.48.48,0,0,1-.48-.48v-1.91a.48.48,0,0,1,.96,0v1.91A.48.48,0,0,1,335.88,117.45Zm0-3.81a.48.48,0,0,1-.48-.48v-.31a.48.48,0,0,1,.96,0v.31A.48.48,0,0,1,335.88,113.64Z" fill="#474f50"/>
        </g>
      </g>
      <g id="man_wear_blue_tshirt_00000140719181477137975980000015999467738492191650_">
        <g id="Grupo_1094922" data-name="Grupo 1094922">
          <path id="Trazado_836739" data-name="Trazado 836739" d="M117.5,114.8l-5.67,4.63,9.79,9.45s4.48-1.36,3.98-4.88Z" fill="#f99680"/>
        </g>
        <g id="Grupo_1094923" data-name="Grupo 1094923">
          <path id="Trazado_836740" data-name="Trazado 836740" d="M79.62,34.74c-1.56-3.16-5.08-4.73-8.63-1.11s-8.83,10.13-10.8,16.81l1.86,21.69,19.22-7s1.53-11.64,1.99-13.02,1.72.74,1.72.74l8.05-5.11s-4.39-6.9-5.93-7.84a26.32,26.32,0,0,0-2.79-1.49Z" fill="#1e5af9"/>
        </g>
        <g id="Grupo_1094924" data-name="Grupo 1094924">
          <path id="Trazado_836741" data-name="Trazado 836741" d="M83.17,128.03s-2.2,10.33-1.56,12.12c0,0-5.07-1.69-5.06-1.87a96.365,96.365,0,0,1,.41-12.68Z" fill="#f99680"/>
        </g>
        <g id="Grupo_1094925" data-name="Grupo 1094925">
          <path id="Trazado_836742" data-name="Trazado 836742" d="M117.5,114.8a9.838,9.838,0,0,1-2.01,8.17l-3.66-3.54Z" fill="#d35971"/>
        </g>
        <g id="Grupo_1094926" data-name="Grupo 1094926">
          <path id="Trazado_836743" data-name="Trazado 836743" d="M83.17,128.03s-1.86,1.65-6.46.03l.25-2.47Z" fill="#d35971"/>
        </g>
        <g id="Grupo_1094927" data-name="Grupo 1094927">
          <path id="Trazado_836744" data-name="Trazado 836744" d="M58.67,74.75s-2.72,15,6.43,17.87,25.94,2.84,31,11.17,13.67,15.48,15.73,15.65,6.24-2.96,5.67-4.63-8.09-15.22-10.44-19.98-3.59-8.11-6.52-10.76S87.02,71.75,80.87,71.02,58.67,74.75,58.67,74.75Z" fill="#474f50"/>
        </g>
        <g id="Grupo_1094928" data-name="Grupo 1094928">
          <path id="Trazado_836745" data-name="Trazado 836745" d="M60.31,88.74s9.64,13.62,12.78,18.86,2.31,15.14,3.87,18,6.21,2.43,6.21,2.43,3.73-13.57,2.18-19.64A117.01,117.01,0,0,1,82.97,95.8Z" fill="#474f50"/>
        </g>
        <g id="Grupo_1094929" data-name="Grupo 1094929">
          <path id="Trazado_836746" data-name="Trazado 836746" d="M94.35,32.48a4.615,4.615,0,0,0-6.29-6.37,2.559,2.559,0,0,0-.77-.73,2.585,2.585,0,1,0-2.68,4.42,2.289,2.289,0,0,0,.71.28.01.01,0,0,1-.01.01s-2.62,4.83-5.68,4.65c0,0-.12,3.43,4.69,3.67,0,0,.21-1.77,1.69-2.11.18.21.36.42.55.64,1.53,1.75,6.87-3.36,6.87-3.36h0A5.219,5.219,0,0,0,94.35,32.48Z" fill="#f99680"/>
        </g>
        <g id="Grupo_1094930" data-name="Grupo 1094930">
          <path id="Trazado_836747" data-name="Trazado 836747" d="M92.69,47.95s2.91,6.72,3.67,6.74,5.23-1.11,12-4.87,8.12-6.08,8.89-7.66,2.6-3.54,3.03-4.88a1.029,1.029,0,0,1,.51,1.59c-.62,1.23-1.33,3.03.45,2.84s7.23-2.2,8.17-1.43-4.79,2.4-4.93,2.83,7.13-.98,6.79.1-6.2,1.67-6.45,1.97,6.45.98,6.46,1.81-6.26-.67-6.76-.27,3.02,2.73,2.64,3.46-4.45-2.9-5.91-2.82S115.13,51,110.22,55.7,95.4,65.64,91.64,62.66s-6.55-9.88-6.55-9.88Z" fill="#f99680"/>
        </g>
        <g id="Grupo_1094931" data-name="Grupo 1094931">
          <path id="Trazado_836748" data-name="Trazado 836748" d="M69.49,51.16s-4.63,11.88-4.32,13.42c0,0,2.18,3.05,8.23,1.16s11.46-.04,14.72,1.55,6.62-.78,6.62-.78,1.5,2.74-3.13,3.57c0,0,.33,1.45,2.55,2.89a26.927,26.927,0,0,0,6.59,2.47s-.57,1.73-2.96,1.07a30.142,30.142,0,0,1-5.2-2.19s3.21,3.1,3.9,4.01a9.642,9.642,0,0,1,1.11,3.08s-1.09.68-2.68-1.92a9.974,9.974,0,0,0-3.75-3.63s1.09,2.2,1.81,3.34a11.85,11.85,0,0,1,1.14,2.55s-1.21.93-2.26-1.44a19.746,19.746,0,0,0-2.71-4.28l.15,4.93s-1.16.41-1.27-.77-.98-4.08-2.08-5.01-3.37-2.88-4.07-3.63-2.49-1.07-4.9.16-16.91,5.15-20.22,2.18S60.2,50.43,60.2,50.43Z" fill="#f99680"/>
        </g>
        <g id="Grupo_1094932" data-name="Grupo 1094932">
          <path id="Trazado_836749" data-name="Trazado 836749" d="M69.49,51.16l.78-.1,2.08-5.32s4.31,8.54-5.64,12.98Z" fill="#1e3bf9"/>
        </g>
        <g id="Grupo_1094933" data-name="Grupo 1094933">
          <path id="Trazado_836750" data-name="Trazado 836750" d="M83.26,52.1c.41-2.46,1.38-2.88,1.3.15C84.57,52.25,83.74,51.21,83.26,52.1Z" fill="#1e3bf9"/>
        </g>
        <g id="Grupo_1094934" data-name="Grupo 1094934">
          <path id="Trazado_836751" data-name="Trazado 836751" d="M93.03,47.73l-8.05,5.11.43.84,8.09-5.09Z" fill="#f0cfbd"/>
        </g>
        <g id="Grupo_1094935" data-name="Grupo 1094935">
          <path id="Trazado_836752" data-name="Trazado 836752" d="M60.19,50.43l-.37,1.17,10.2.74.25-1.29Z" fill="#f0cfbd"/>
        </g>
        <g id="Grupo_1094936" data-name="Grupo 1094936">
          <path id="Trazado_836753" data-name="Trazado 836753" d="M83.04,96.37c-4.17-.5-9.49-1.56-11.82-2.78,0,0,4.37,9.65,12.65,7.99Z" fill="#303535"/>
        </g>
        <g id="Grupo_1094937" data-name="Grupo 1094937">
          <path id="Trazado_836754" data-name="Trazado 836754" d="M76.55,138.27,74.37,149.2l16.18,3.5a3.767,3.767,0,0,0-2.3-4.19c-2.98-1.43-5.76-3.41-6.64-8.36C81.61,140.15,80.74,138.66,76.55,138.27Z" fill="#474f50"/>
        </g>
        <g id="Grupo_1094938" data-name="Grupo 1094938">
          <path id="Trazado_836755" data-name="Trazado 836755" d="M121.61,128.88l8.88,10.17L147.27,126a10.938,10.938,0,0,0-7.75-1.06c-4.28.95-11.15,2.21-13.93-.95A5.353,5.353,0,0,1,121.61,128.88Z" fill="#474f50"/>
        </g>
        <g id="Grupo_1094939" data-name="Grupo 1094939">
          <path id="Trazado_836756" data-name="Trazado 836756" d="M59.82,51.6s2.74,3.26,8.45,2.87l.81-2.2Z" fill="#d35971"/>
        </g>
        <g id="Grupo_1094940" data-name="Grupo 1094940">
          <path id="Trazado_836757" data-name="Trazado 836757" d="M93.09,48.85s-1.11,4.26-6.61,6.84l-1.07-2.01Z" fill="#d35971"/>
        </g>
        <g id="Grupo_1094941" data-name="Grupo 1094941">
          <path id="Trazado_836758" data-name="Trazado 836758" d="M85.99,36.3c-1.24-1.3-.57-3.84-.57-3.84s-2.61,2.2-.56,4.58A1.614,1.614,0,0,1,85.99,36.3Z" fill="#d35971"/>
        </g>
        <g id="Grupo_1094942" data-name="Grupo 1094942">
          <path id="Trazado_836759" data-name="Trazado 836759" d="M86.23,28.59s1.52-2.68-1-2.67Z" fill="#d35971"/>
        </g>
        <g id="Grupo_1094943" data-name="Grupo 1094943">
          <path id="Trazado_836760" data-name="Trazado 836760" d="M89.31,32.38c-.29.23-.8.07-1.15-.35s-.4-.96-.11-1.2.8-.07,1.15.35S89.6,32.15,89.31,32.38Z" fill="#d35971"/>
        </g>
        <g id="Grupo_1094944" data-name="Grupo 1094944">
          <path id="Trazado_836761" data-name="Trazado 836761" d="M91.47,35.18c-.21.17-.61.03-.89-.31s-.33-.76-.12-.93.61-.03.89.31S91.68,35.01,91.47,35.18Z" fill="#d35971"/>
        </g>
        <g id="Grupo_1094945" data-name="Grupo 1094945">
          <path id="Trazado_836762" data-name="Trazado 836762" d="M85.78,25a7.037,7.037,0,0,1,2.34-4.71c2.16-1.65,4.58,1.45,4.58,1.45s1.54-1.89,3.04-1.47a3.919,3.919,0,0,1,2.2,1.72,3.667,3.667,0,0,1,4.01,1.55,3.051,3.051,0,0,1-.68,4.07s.58.59-.28,1.46c0,0,1.24,2.75-2.73,3.49,0,0-2.03,2.76-4.83,1l.72-.82a1.739,1.739,0,0,1-1.32-1.86,2.458,2.458,0,0,1,1.19-1.96s-1.79-.22-1.92-1.74a6.09,6.09,0,0,1-2.27-.71c-.84-.56-2.03,1.07-2.03,1.07L87.19,27l.87-.9A3.652,3.652,0,0,0,85.78,25Z" fill="#474f50"/>
        </g>
        <g id="Grupo_1094946" data-name="Grupo 1094946">
          <path id="Trazado_836763" data-name="Trazado 836763" d="M90.35,30.57a.444.444,0,1,1-.15-.61A.442.442,0,0,1,90.35,30.57Z" fill="#474f50"/>
        </g>
        <g id="Grupo_1094947" data-name="Grupo 1094947">
          <path id="Trazado_836764" data-name="Trazado 836764" d="M92.73,33.87a.444.444,0,1,1-.15-.61A.451.451,0,0,1,92.73,33.87Z" fill="#474f50"/>
        </g>
      </g>
      <g id="woman_wear_yellow_tshirt_00000076591076315891025840000000068180669176023939_">
        <g id="Grupo_1094948" data-name="Grupo 1094948">
          <path id="Trazado_836765" data-name="Trazado 836765" d="M316.19,138.89l8.82,10.12,3.6-4.48s-4.82-7.64-5.76-9.21A9.3,9.3,0,0,1,316.19,138.89Z" fill="#f99680"/>
        </g>
        <g id="Grupo_1094949" data-name="Grupo 1094949">
          <path id="Trazado_836766" data-name="Trazado 836766" d="M345.46,113.03s-1.29,4.96-2.99,6.05l10.59,4.31s2.56-4.02.89-5.77Z" fill="#f99680"/>
        </g>
        <g id="Grupo_1094950" data-name="Grupo 1094950">
          <path id="Trazado_836767" data-name="Trazado 836767" d="M292.43,17.45s-3.07-1.38-3.33,1.68,1.69,4.12.23,8.68.56,7.88,4.59,9.49,23.52-5.88,23.52-5.88,5.07-2.53,5.44-7.6-6.73-7.75-10.3-4.98-6.53-.01-9.69-2.49C299.75,13.89,294.15,12.4,292.43,17.45Z" fill="#1e5af9" opacity="0.6"/>
        </g>
        <g id="Grupo_1094951" data-name="Grupo 1094951">
          <path id="Trazado_836768" data-name="Trazado 836768" d="M322.86,135.33a10.816,10.816,0,0,1-4.47,6.08l-2.19-2.52Z" fill="#d35971"/>
        </g>
        <g id="Grupo_1094952" data-name="Grupo 1094952">
          <path id="Trazado_836769" data-name="Trazado 836769" d="M345.46,113.03a7.021,7.021,0,0,1,.07,7.29l-3.06-1.24Z" fill="#d35971"/>
        </g>
        <g id="Grupo_1094953" data-name="Grupo 1094953">
          <path id="Trazado_836770" data-name="Trazado 836770" d="M306.51,62.21c-1.9,9.54-5.27,31.94-4.05,44.52s12.09,31.23,13.73,32.16,5.89-2.29,6.66-3.56,1.23-7.72-1.12-11.94-6.93-16.56-5.74-20.94c0,0,5.35,9,12.54,13.01s12.3,4.18,13.94,3.62a5.539,5.539,0,0,0,2.99-6.05c-.7-2.66-10.87-8.58-12.61-10.87s-5.56-13.35-3.38-21.88.03-16.71-2.09-19.51S306.51,62.21,306.51,62.21Z" fill="#00c4ff"/>
        </g>
        <g id="Grupo_1094954" data-name="Grupo 1094954">
          <path id="Trazado_836771" data-name="Trazado 836771" d="M300.39,33.1c-2.28-1.13-5.38-1.05-5.91,1.46s-2.49,12.6-2.49,12.6l-6.85-5.44-3.34,6.49s12.04,11.93,13.69,11.26,4.35-12.05,4.35-12.05.04,1.25,2.22,3.92,4.4,9.02,3.91,10.6c0,0,3.48,1.91,9.61,1.58s13.12-3.28,13.12-3.28-3.4-4.55-6.54-8.65-5.37-11.28-5.37-11.28,13.32,2.93,14.48,2.51,2.91-9.71,2.91-9.71l-4.15-10.67s-3.06,12.2-3.69,12.04-14.51-5.11-16.25-5.47-3.12,1.67-3.12,1.67Z" fill="#6e40fc"/>
        </g>
        <g id="Grupo_1094955" data-name="Grupo 1094955">
          <path id="Trazado_836772" data-name="Trazado 836772" d="M329.06,19.9l9.77,25.17,17.12-6.41-8.07-24.13Z" fill="#a6eaff"/>
        </g>
        <g id="Grupo_1094956" data-name="Grupo 1094956">
          <path id="Trazado_836773" data-name="Trazado 836773" d="M305.28,30a40.243,40.243,0,0,1-3.39-5.36,2.319,2.319,0,1,0-1.67-3.8,4.709,4.709,0,1,0-7.51,5.46h0a.186.186,0,0,0,.04.03,3.268,3.268,0,0,0,.35.3c1.2,1.03,4.9,4.14,5.78,4a1.7,1.7,0,0,0,.84-.53s2.34,2.62.66,2.99c0,0,1.6,1.91,3.12,1.27s3.47-3.67,3.47-3.67A2.106,2.106,0,0,1,305.28,30Z" fill="#f99680"/>
        </g>
        <g id="Grupo_1094957" data-name="Grupo 1094957">
          <path id="Trazado_836774" data-name="Trazado 836774" d="M284.79,42.4s-6.33-4.56-7.16-4.63-4.25-.27-4.61.63a40.15,40.15,0,0,0-1.69,6.11,28.377,28.377,0,0,0,.29,4.48s1.08.11,1.18-1.77a12.563,12.563,0,0,1,.65-3.7s3.05,1.77,3.57,1.52,1.5-.84,2.29-.19,2.95,2.32,2.95,2.32Z" fill="#f99680"/>
        </g>
        <g id="Grupo_1094958" data-name="Grupo 1094958">
          <path id="Trazado_836775" data-name="Trazado 836775" d="M329.62,23.39c-.98-.99-1.65-2.75-2.97-3.78s-1.6-1.05-1.6-1.05a1.058,1.058,0,0,1,1.48-.83,20.689,20.689,0,0,1,2.38.97s-.94-2.81-.12-3.12a1.452,1.452,0,0,1,1.94,1.08s.83-.7,1.39.12c0,0,.52-.92,1.45.32a1.168,1.168,0,0,1,1.81.41c.67,1.26,1.47,3.57.99,3.77s-1.96-2.48-1.96-2.48,1.04,3.64.49,3.67-2.02-3.44-2.02-3.44,1.42,3.7.4,3.88-2.03-3.65-2.03-3.65.63,2.34.3,2.55-1.83-1.34-1.83-1.34S330.54,22.48,329.62,23.39Z" fill="#f99680"/>
        </g>
        <g id="Grupo_1094959" data-name="Grupo 1094959">
          <path id="Trazado_836776" data-name="Trazado 836776" d="M328.62,144.54l8.93,9.58-11.88,14.89s-2.72-.87-.95-5.45,5.19-7.96-.11-15A19.9,19.9,0,0,0,328.62,144.54Z" fill="#474f50"/>
        </g>
        <g id="Grupo_1094960" data-name="Grupo 1094960">
          <path id="Trazado_836777" data-name="Trazado 836777" d="M353.96,117.62c3.39,1.57,15.05,4.06,15.05,4.06l-9.03,20.76s-3.4-2.04-2.26-6.79,2.26-8.65-5.33-12.54C352.39,123.11,355.19,120.77,353.96,117.62Z" fill="#474f50"/>
        </g>
        <g id="Grupo_1094961" data-name="Grupo 1094961">
          <path id="Trazado_836778" data-name="Trazado 836778" d="M292.91,19.38s7.3,4.5,9.94.79l-3.32-2.43-7.09.63-2.55,3.77,1.83,3.77,1.02.42s1.08-4.01.4-6.33" fill="#5790fe"/>
        </g>
        <g id="Grupo_1094962" data-name="Grupo 1094962">
          <path id="Trazado_836779" data-name="Trazado 836779" d="M299.72,30.1a13.1,13.1,0,0,0,1.85-3.8,3.877,3.877,0,0,1-.97,5.02Z" fill="#d35971"/>
        </g>
        <g id="Grupo_1094963" data-name="Grupo 1094963">
          <path id="Trazado_836780" data-name="Trazado 836780" d="M302.15,23.73s-1.35-2.17.93-2.45Z" fill="#d35971"/>
        </g>
        <g id="Grupo_1094964" data-name="Grupo 1094964">
          <path id="Trazado_836781" data-name="Trazado 836781" d="M297.81,24.28c-.31.31-.38.74-.17.94s.63.12.94-.19.38-.74.17-.94S298.12,23.97,297.81,24.28Z" fill="#d35971"/>
        </g>
        <g id="Grupo_1094965" data-name="Grupo 1094965">
          <path id="Trazado_836782" data-name="Trazado 836782" d="M295.19,26.86c-.31.31-.38.74-.17.94s.63.12.94-.19.38-.74.17-.94S295.5,26.54,295.19,26.86Z" fill="#d35971"/>
        </g>
        <g id="Grupo_1094966" data-name="Grupo 1094966">
          <path id="Trazado_836783" data-name="Trazado 836783" d="M284.79,42.4s-2.57-.13-4.17,3.5l1.68,1.31Z" fill="#d35971"/>
        </g>
        <g id="Grupo_1094967" data-name="Grupo 1094967">
          <path id="Trazado_836784" data-name="Trazado 836784" d="M316,102.45c-2.28-5.1-2.81-10.86-1.58-14.39,0,0-12.85,9.71,1.5,17.85A12.057,12.057,0,0,1,316,102.45Z" fill="#009ecd"/>
        </g>
        <g id="Grupo_1094968" data-name="Grupo 1094968">
          <path id="Trazado_836785" data-name="Trazado 836785" d="M294.63,26.39a.377.377,0,1,1-.21-.49A.365.365,0,0,1,294.63,26.39Z" fill="#474f50"/>
        </g>
        <g id="Grupo_1094969" data-name="Grupo 1094969">
          <path id="Trazado_836786" data-name="Trazado 836786" d="M297.34,23.9a.377.377,0,1,1-.21-.49A.38.38,0,0,1,297.34,23.9Z" fill="#474f50"/>
        </g>
        <g id="Grupo_1094970" data-name="Grupo 1094970">
          <path id="Trazado_836787" data-name="Trazado 836787" d="M299.84,47.43a11.055,11.055,0,0,1,.51-4.9s-5.28,3.19-1.44,8.52Z" fill="#534893"/>
        </g>
        <g id="Grupo_1094971" data-name="Grupo 1094971">
          <path id="Trazado_836788" data-name="Trazado 836788" d="M316.79,40.33c.13-3.23,5.7-2.24,6.52,1.36Z" fill="#534893"/>
        </g>
        <g id="Grupo_1094972" data-name="Grupo 1094972">
          <path id="Trazado_836789" data-name="Trazado 836789" d="M330.04,22.45s-3.31,8.38,4.15,10.67Z" fill="#534893"/>
        </g>
      </g>
      <g id="man_wear_red_tshirt_00000107575828358095942420000018123717004469706627_">
        <g id="Grupo_1094973" data-name="Grupo 1094973">
          <path id="Trazado_836790" data-name="Trazado 836790" d="M197.57,179.8s-11.38,7.67-14.34,8.25l2.9,4.53s10.39-3.72,13.65-5.57A7.633,7.633,0,0,1,197.57,179.8Z" fill="#f99680"/>
        </g>
        <g id="Grupo_1094974" data-name="Grupo 1094974">
          <path id="Trazado_836791" data-name="Trazado 836791" d="M189.79,206.22l14.23-7.14s-.41,4.88,2.61,5.92c0,0-8.42,3.54-13.18,5.05C193.45,210.05,190.89,210.4,189.79,206.22Z" fill="#f99680"/>
        </g>
        <g id="Grupo_1094975" data-name="Grupo 1094975">
          <path id="Trazado_836792" data-name="Trazado 836792" d="M197.57,179.8s-2.7,3.15-1.12,8.78l3.32-1.58Z" fill="#d35971"/>
        </g>
        <g id="Grupo_1094976" data-name="Grupo 1094976">
          <path id="Trazado_836793" data-name="Trazado 836793" d="M204.01,199.08s-2.99,4.28-1.12,7.45l3.73-1.53Z" fill="#d35971"/>
        </g>
        <g id="Grupo_1094977" data-name="Grupo 1094977">
          <path id="Trazado_836794" data-name="Trazado 836794" d="M265.33,189.77s-5.05,11.16-12.59,12.67-15.19-6.23-19.83-5.47-12.8,4.49-16.75,6.11a34.636,34.636,0,0,1-9.52,1.92s-3.72-.81-2.61-5.92c0,0,.41-1.34,4.36-3.89s15.39-10.74,15.39-10.74a26.114,26.114,0,0,0-7.9.46c-3.77.93-12.66,4.12-16.09,2.09s-2.21-7.2-2.21-7.2a53.421,53.421,0,0,1,6.79-5.05c4.12-2.61,10.68-6.91,13.41-6.33s22.12,6.68,23.52,7.03,10.39-3.19,10.39-3.19Z" fill="#0046cc"/>
        </g>
        <g id="Grupo_1094978" data-name="Grupo 1094978">
          <path id="Trazado_836795" data-name="Trazado 836795" d="M260.04,147.76l-4.14,9.06s-3.66-.83-4.22-1.52-6.62-13.02-7.49-15.11a2.623,2.623,0,0,0-3.12-1.47.743.743,0,0,1,.15.96,8.408,8.408,0,0,0-2.44-.61,1.112,1.112,0,0,1-1.02-1.42c.12-.44.32-2.26.32-2.26a7.673,7.673,0,0,0-2.55.32c-.87.38-1.48,1.51-2.44,1.57s-.99-.44-.99-.44a13.9,13.9,0,0,1,2.99-2.53,14.367,14.367,0,0,1,5.69-1.71c1.13.09,4.14.2,5.29,1.6s9.08,11.56,10.59,12.66A5.434,5.434,0,0,0,260.04,147.76Z" fill="#f99680"/>
        </g>
        <g id="Grupo_1094979" data-name="Grupo 1094979">
          <path id="Trazado_836796" data-name="Trazado 836796" d="M280.61,146c2.29-.77,8.78-.07,7.82,5.42s-6.53,19.25-6.53,19.25l-9.89-4.34-4.18,13.4-2.09,1.09L252.12,169.9s6.17-6.28,7.92-8.76,1.65-2.61,1-3.01-5.53-.87-5.53-.87l4.53-9.49a19.261,19.261,0,0,0,5.84-.91c2.61-.96,7.72-5.17,9.57-2.67C275.44,144.17,276.5,146.75,280.61,146Z" fill="#01c3fd"/>
        </g>
        <g id="Grupo_1094980" data-name="Grupo 1094980">
          <path id="Trazado_836797" data-name="Trazado 836797" d="M286.13,134.44a3.542,3.542,0,0,0,.02-.46,4.647,4.647,0,0,0-8.52-2.57h0s-3.33,4.72-2.87,7.22c.18.95,1.2,1.44,2.53,1.6h0s-.35,3.19-1.86,3.95c0,0,.9,2.7,5.17,1.83,0,0,.6-5.84,3.61-6.95v-.01a2.5,2.5,0,0,0,1.3.37,2.528,2.528,0,0,0,.62-4.98Z" fill="#f99680"/>
        </g>
        <g id="Grupo_1094981" data-name="Grupo 1094981">
          <path id="Trazado_836798" data-name="Trazado 836798" d="M272.01,166.32s-5.11,11.9-5.81,11.9-3.6-3.25-7.03-5.95-10.86-2.76-11.61-2.47-3.25,1.8-3.48,2.47-.17,3.4.23,3.4,4.41.23,4.41.23a2.882,2.882,0,0,0,.58-1.45s1.68.29,2.09-.06,2.61,1.51,5.11,5.34,8.3,10.63,10.22,10.68,7.9-8.01,10.22-11.44a66.277,66.277,0,0,0,4.59-8.59Z" fill="#f99680"/>
        </g>
        <g id="Grupo_1094982" data-name="Grupo 1094982">
          <path id="Trazado_836799" data-name="Trazado 836799" d="M193.45,210.05l-10.42,6.3-8.48-13.65a4.991,4.991,0,0,1,4.96,1.19c2.32,2.18,5.14,4.53,10.28,2.32A7.172,7.172,0,0,0,193.45,210.05Z" fill="#474f50"/>
        </g>
        <g id="Grupo_1094983" data-name="Grupo 1094983">
          <path id="Trazado_836800" data-name="Trazado 836800" d="M186.4,192.48l-11.53,6.19L163.4,186.19s2.45-2.21,5.89.17a15.7,15.7,0,0,0,14.26,1.6A13.6,13.6,0,0,0,186.4,192.48Z" fill="#474f50"/>
        </g>
        <g id="Grupo_1094984" data-name="Grupo 1094984">
          <path id="Trazado_836801" data-name="Trazado 836801" d="M286.13,134.44a5.018,5.018,0,0,0-1.33,2.12,9.2,9.2,0,0,1,.11-3.27,3.528,3.528,0,0,1-1.07-2.16s-1.42,2.09-3.42,0c0,0-.75,1.54-2.78.27l-.39.59a.957.957,0,0,1-.38-1.03,3.578,3.578,0,0,1-2.26-3.03,3.069,3.069,0,0,1,1.92-2.96s-.28-1.09,1.09-1.26a2.8,2.8,0,0,1,2.09-3.33,3.49,3.49,0,0,1,4.07,1.74,1.23,1.23,0,0,1,1.5.91,3.52,3.52,0,0,1,3.2.85c1.37,1.35-.13,4.22-.13,4.22s3.22,2.22,3.53,3.44-3.93,4.63-3.93,4.63A2.736,2.736,0,0,0,286.13,134.44Z" fill="#474f50"/>
        </g>
        <g id="Grupo_1094985" data-name="Grupo 1094985">
          <path id="Trazado_836802" data-name="Trazado 836802" d="M260.04,147.76l-4.53,9.49,1.72.19,4.32-9.74C261.54,147.7,260.42,147.74,260.04,147.76Z" fill="#f0cfbd"/>
        </g>
        <g id="Grupo_1094986" data-name="Grupo 1094986">
          <path id="Trazado_836803" data-name="Trazado 836803" d="M272.01,166.32l.56-1.16,9.92,4.02-.59,1.48Z" fill="#f0cfbd"/>
        </g>
        <g id="Grupo_1094987" data-name="Grupo 1094987">
          <path id="Trazado_836804" data-name="Trazado 836804" d="M261.39,158.98c.68-1.29,1.8-2.87-1.79-1.21C259.6,157.77,261.7,158.02,261.39,158.98Z" fill="#4f99c6"/>
        </g>
        <g id="Grupo_1094988" data-name="Grupo 1094988">
          <path id="Trazado_836805" data-name="Trazado 836805" d="M272.01,166.32l4.41-9.51C276.43,156.82,268.65,159.18,272.01,166.32Z" fill="#4f99c6"/>
        </g>
        <g id="Grupo_1094989" data-name="Grupo 1094989">
          <path id="Trazado_836806" data-name="Trazado 836806" d="M277.3,140.22a6.323,6.323,0,0,0,4.09-.43,4.082,4.082,0,0,1-4.6,2.57A12.8,12.8,0,0,0,277.3,140.22Z" fill="#d35971"/>
        </g>
        <g id="Grupo_1094990" data-name="Grupo 1094990">
          <path id="Trazado_836807" data-name="Trazado 836807" d="M284.91,137.75s.48-2.32,2.26-1.19Z" fill="#d35971"/>
        </g>
        <g id="Grupo_1094991" data-name="Grupo 1094991">
          <path id="Trazado_836808" data-name="Trazado 836808" d="M280.83,136.33c-.14.28-.64.31-1.11.07s-.74-.66-.6-.94.64-.31,1.11-.07S280.98,136.06,280.83,136.33Z" fill="#d35971"/>
        </g>
        <g id="Grupo_1094992" data-name="Grupo 1094992">
          <path id="Trazado_836809" data-name="Trazado 836809" d="M277.76,134.76c-.12.23-.55.25-.96.04s-.65-.57-.53-.8.55-.25.96-.04S277.88,134.53,277.76,134.76Z" fill="#d35971"/>
        </g>
        <g id="Grupo_1094993" data-name="Grupo 1094993">
          <path id="Trazado_836810" data-name="Trazado 836810" d="M281.25,134.27a.4.4,0,1,1-.4-.4A.4.4,0,0,1,281.25,134.27Z" fill="#474f50"/>
        </g>
        <g id="Grupo_1094994" data-name="Grupo 1094994">
          <path id="Trazado_836811" data-name="Trazado 836811" d="M278.15,132.95a.4.4,0,1,1-.4-.4A.4.4,0,0,1,278.15,132.95Z" fill="#474f50"/>
        </g>
        <g id="Grupo_1094995" data-name="Grupo 1094995">
          <path id="Trazado_836812" data-name="Trazado 836812" d="M281.49,170.49s-6.44,2.46-10.9-.92l1.42-3.24Z" fill="#d35971"/>
        </g>
        <g id="Grupo_1094996" data-name="Grupo 1094996">
          <path id="Trazado_836813" data-name="Trazado 836813" d="M260.04,147.76l-4.3,9.02-1.99-.54C253.74,156.24,254.85,151.94,260.04,147.76Z" fill="#d35971"/>
        </g>
        <g id="Grupo_1094997" data-name="Grupo 1094997">
          <path id="Trazado_836814" data-name="Trazado 836814" d="M223.76,184.44c2.96-2.15,8.19-5.23,8.19-5.23s-10.22-4.3-14.17,5.23A23.243,23.243,0,0,1,223.76,184.44Z" fill="#039"/>
        </g>
      </g>
    </g>
  </g>
</svg>
