<svg xmlns="http://www.w3.org/2000/svg" width="122.04" height="122.04" viewBox="0 0 122.04 122.04">
  <g id="_4" data-name="4" transform="translate(-9.1 -6.66)">
    <g id="Grupo_1095055" data-name="Grupo 1095055">
      <circle id="Elipse_11101" data-name="Elipse 11101" cx="61.02" cy="61.02" r="61.02" transform="translate(9.1 6.66)" fill="#005afd"/>
      <g id="Grupo_1095054" data-name="Grupo 1095054">
        <g id="Grupo_1095052" data-name="Grupo 1095052">
          <g id="Grupo_1095051" data-name="Grupo 1095051">
            <path id="Trazado_837054" data-name="Trazado 837054" d="M97.68,30.98H63.01c-24.64,0-28.39,1.33-28.39,26.16v45.27a8.008,8.008,0,0,0,8.01,8.01H97.68a8.015,8.015,0,0,0,8.01-8.01V38.99A8.008,8.008,0,0,0,97.68,30.98Z" fill="#fff"/>
            <g id="Grupo_1095050" data-name="Grupo 1095050">
              <g id="Grupo_1095049" data-name="Grupo 1095049">
                <g id="Grupo_1095048" data-name="Grupo 1095048">
                  <path id="Trazado_837055" data-name="Trazado 837055" d="M98.18,61.68l-1.66-9.51L88.5,57.72l3.48,1.42L87.07,70.37a4.024,4.024,0,0,0-1.14.12,3.948,3.948,0,0,0-1.69,1l-9.77-3.91a3.849,3.849,0,0,0-.13-1.06,3.923,3.923,0,0,0-7.56,2.1,3.835,3.835,0,0,0,1.61,2.19l-1.72,8.48c-.12.02-.24.03-.36.06a3.911,3.911,0,0,0-1.84,1.15l-5.83-2.14a4.161,4.161,0,0,0-.13-.91,3.923,3.923,0,1,0-7.56,2.1,3.756,3.756,0,0,0,.64,1.28L46.5,89.26a3.752,3.752,0,0,0-1.66.09,3.923,3.923,0,1,0,4.83,2.73,3.756,3.756,0,0,0-.64-1.28l5.09-8.43a3.858,3.858,0,0,0,3.49-1.23l5.83,2.14a3.991,3.991,0,0,0,.13.9,3.923,3.923,0,1,0,5.99-4.27l1.73-8.51c.11-.02.21-.03.32-.06a3.858,3.858,0,0,0,1.72-1.03l9.75,3.9a3.789,3.789,0,0,0,.12,1.1,3.923,3.923,0,0,0,7.56-2.1,3.847,3.847,0,0,0-.97-1.66l4.93-11.3Z" fill="#00c4ff"/>
                  <path id="Trazado_837056" data-name="Trazado 837056" d="M79.4,85.49H97.6a1.129,1.129,0,0,0,1.13-1.13V84a1.129,1.129,0,0,0-1.13-1.13H79.4A1.129,1.129,0,0,0,78.27,84v.36A1.122,1.122,0,0,0,79.4,85.49Z" fill="#a6c5fe"/>
                  <path id="Trazado_837057" data-name="Trazado 837057" d="M79.58,91.37H97.42a1.308,1.308,0,0,0,1.31-1.31h0a1.308,1.308,0,0,0-1.31-1.31H79.58a1.308,1.308,0,0,0-1.31,1.31h0A1.3,1.3,0,0,0,79.58,91.37Z" fill="#a6c5fe"/>
                  <path id="Trazado_837058" data-name="Trazado 837058" d="M63.4,97.25H97.6a1.129,1.129,0,0,0,1.13-1.13v-.36a1.129,1.129,0,0,0-1.13-1.13H63.4a1.129,1.129,0,0,0-1.13,1.13v.36A1.116,1.116,0,0,0,63.4,97.25Z" fill="#a6c5fe"/>
                  <path id="Trazado_837059" data-name="Trazado 837059" d="M63.48,103.32H89.64a1.218,1.218,0,0,0,1.22-1.22v-.38a1.218,1.218,0,0,0-1.22-1.22H63.48a1.218,1.218,0,0,0-1.22,1.22v.38A1.218,1.218,0,0,0,63.48,103.32Z" fill="#a6c5fe"/>
                </g>
              </g>
            </g>
          </g>
        </g>
        <g id="Grupo_1095053" data-name="Grupo 1095053">
          <path id="Trazado_837060" data-name="Trazado 837060" d="M75.09,50.17a23.88,23.88,0,0,0,0-6.32L71.4,43.4a20.735,20.735,0,0,0-.92-3.44l2.98-2.24a24.1,24.1,0,0,0-3.15-5.46l-3.42,1.46a21.761,21.761,0,0,0-2.58-2.59l1.46-3.42a24.87,24.87,0,0,0-5.46-3.15l-2.24,2.98a19.78,19.78,0,0,0-3.44-.91l-.44-3.7a23.88,23.88,0,0,0-6.32,0l-.44,3.7a19.318,19.318,0,0,0-3.44.91l-2.24-2.98a24.87,24.87,0,0,0-5.46,3.15l1.46,3.42a21.762,21.762,0,0,0-2.58,2.59l-3.43-1.46a24.642,24.642,0,0,0-3.15,5.46l2.98,2.23a20.942,20.942,0,0,0-.91,3.46l-3.7.44a23.88,23.88,0,0,0,0,6.32l3.7.44a20.974,20.974,0,0,0,.91,3.44l-2.98,2.23a24.486,24.486,0,0,0,3.15,5.47l3.43-1.47a19.732,19.732,0,0,0,2.58,2.59l-1.46,3.42a23.727,23.727,0,0,0,5.46,3.15l2.24-2.98a19.565,19.565,0,0,0,3.44.92l.44,3.69a23.88,23.88,0,0,0,6.32,0l.44-3.69a19.8,19.8,0,0,0,3.44-.92l2.24,2.98a24.477,24.477,0,0,0,5.46-3.15l-1.46-3.42a20.365,20.365,0,0,0,2.58-2.59l3.42,1.47a23.948,23.948,0,0,0,3.15-5.47l-2.98-2.23a21,21,0,0,0,.92-3.44ZM51,62.37A15.365,15.365,0,1,1,66.36,47.01,15.36,15.36,0,0,1,51,62.37Z" fill="#039"/>
        </g>
        <path id="Trazado_837061" data-name="Trazado 837061" d="M51,49.01a2,2,0,0,1-1.96-1.55,1.962,1.962,0,0,1,.05-1.05l-4.44-8.09-1.12-2.47-.03-.1a.628.628,0,0,1,.07-.58.659.659,0,0,1,.53-.28.609.609,0,0,1,.47.21l.05.06,1.66,2.14L51.34,45c.01,0,.01,0,.02.01l5.26-2.84a5.012,5.012,0,0,1,1.52-.54.57.57,0,0,1,.13-.01.671.671,0,0,1,.59.36.661.661,0,0,1-.04.69,5.6,5.6,0,0,1-1.11,1.17L52.96,47.5a1.985,1.985,0,0,1-1.47,1.46A3.014,3.014,0,0,1,51,49.01Z" fill="#00c4ff"/>
      </g>
    </g>
  </g>
</svg>
