<svg xmlns="http://www.w3.org/2000/svg" width="504.78" height="335.3" viewBox="0 0 504.78 335.3">
  <g id="_5" data-name="5" transform="translate(-5.53 -8.57)">
    <g id="Grupo_1095047" data-name="Grupo 1095047" transform="translate(5.53 8.57)">
      <g id="Grupo_1094998" data-name="Grupo 1094998" transform="translate(206.8)">
        <path id="Trazado_836815" data-name="Trazado 836815" d="M312.96,10.18s2.85,50.98,10.65,85.41c0,0-44.63,6.74-87.76,2.94,0,0-13.07-.38-20.48-1.14V12.65Z" transform="translate(-212.33 -8.57)" fill="#c4d0fe"/>
        <path id="Trazado_836816" data-name="Trazado 836816" d="M312.96,10.18s-2.28,50.79,7.8,81.61c0,0-44.82,6.47-87.95,2.66,0,0-13.07-.38-20.48-1.14V8.57Z" transform="translate(-212.33 -8.57)" fill="#f1f4fe"/>
        <path id="Trazado_836817" data-name="Trazado 836817" d="M297.57,30.73a.794.794,0,0,1-.5-.06l-6.66-3.05a5.34,5.34,0,0,0-6.23,1.25l-1.91,2.06a6.931,6.931,0,0,1-8.11,1.62l-2.55-1.17a5.34,5.34,0,0,0-6.23,1.25l-1.61,1.74a6.956,6.956,0,0,1-8.7,1.32l-.53-.3a5.344,5.344,0,0,0-6.69,1.01l-1.61,1.74a6.928,6.928,0,0,1-8.11,1.62l-2.55-1.17a5.34,5.34,0,0,0-6.23,1.25l-4.97,5.38a.83.83,0,0,1-1.19.02.888.888,0,0,1-.03-1.23l4.97-5.38a6.931,6.931,0,0,1,8.11-1.62l2.55,1.17a5.325,5.325,0,0,0,6.23-1.25l1.61-1.74a6.956,6.956,0,0,1,8.7-1.32l.53.3a5.344,5.344,0,0,0,6.69-1.01l1.61-1.74a6.931,6.931,0,0,1,8.11-1.62l2.55,1.17a5.34,5.34,0,0,0,6.23-1.25l1.91-2.06a6.931,6.931,0,0,1,8.11-1.62l6.66,3.05a.894.894,0,0,1,.44,1.15A.825.825,0,0,1,297.57,30.73Z" transform="translate(-212.33 -8.57)" fill="#005afd"/>
        <path id="Trazado_836818" data-name="Trazado 836818" d="M302.78,56.75a.794.794,0,0,1-.5-.06l-6.66-3.05a5.34,5.34,0,0,0-6.23,1.25l-1.91,2.06a6.931,6.931,0,0,1-8.11,1.62l-2.55-1.17a5.34,5.34,0,0,0-6.23,1.25l-1.61,1.74a6.956,6.956,0,0,1-8.7,1.32l-.53-.3a5.344,5.344,0,0,0-6.69,1.01l-1.61,1.74a6.928,6.928,0,0,1-8.11,1.62l-2.55-1.17a5.34,5.34,0,0,0-6.23,1.25l-4.97,5.38a.83.83,0,0,1-1.19.02.888.888,0,0,1-.03-1.23l4.97-5.38a6.931,6.931,0,0,1,8.11-1.62L244,64.2a5.34,5.34,0,0,0,6.23-1.25l1.61-1.74a6.956,6.956,0,0,1,8.7-1.32l.53.3a5.344,5.344,0,0,0,6.69-1.01l1.61-1.74a6.931,6.931,0,0,1,8.11-1.62l2.55,1.17a5.34,5.34,0,0,0,6.23-1.25l1.91-2.06a6.931,6.931,0,0,1,8.11-1.62l6.66,3.05a.894.894,0,0,1,.44,1.15A.825.825,0,0,1,302.78,56.75Z" transform="translate(-212.33 -8.57)" fill="#005afd"/>
        <path id="Trazado_836819" data-name="Trazado 836819" d="M226.56,58.5a.828.828,0,0,1-.75-.23.888.888,0,0,1-.03-1.23l4.97-5.38a6.931,6.931,0,0,1,8.11-1.62l2.55,1.17a5.34,5.34,0,0,0,6.23-1.25l1.61-1.74a6.956,6.956,0,0,1,8.7-1.32l.53.3a5.344,5.344,0,0,0,6.69-1.01l1.61-1.74a6.931,6.931,0,0,1,8.11-1.62.894.894,0,0,1,.44,1.15.813.813,0,0,1-1.1.44A5.34,5.34,0,0,0,268,45.67l-1.61,1.74a6.956,6.956,0,0,1-8.7,1.32l-.53-.3a5.344,5.344,0,0,0-6.69,1.01l-1.61,1.74a6.928,6.928,0,0,1-8.11,1.62l-2.55-1.17a5.34,5.34,0,0,0-6.23,1.25L227,58.25A.785.785,0,0,1,226.56,58.5Z" transform="translate(-212.33 -8.57)" fill="#005afd"/>
      </g>
      <g id="Grupo_1095002" data-name="Grupo 1095002" transform="translate(27 141.02)">
        <g id="Grupo_1094999" data-name="Grupo 1094999" transform="translate(102.54)">
          <path id="Trazado_836820" data-name="Trazado 836820" d="M168.12,322.75H147.07a12.035,12.035,0,0,1-12-12V161.59a12.035,12.035,0,0,1,12-12h21.05a12.035,12.035,0,0,1,12,12V310.75A12.035,12.035,0,0,1,168.12,322.75Z" transform="translate(-135.07 -149.59)" fill="#c4d0fe"/>
          <path id="Trazado_836821" data-name="Trazado 836821" d="M175.08,149.59h-9.23a5.083,5.083,0,0,1,5.03,5.11V317.63a5.09,5.09,0,0,1-5.03,5.11h9.23a5.083,5.083,0,0,0,5.03-5.11V154.71A5.079,5.079,0,0,0,175.08,149.59Z" transform="translate(-135.07 -149.59)" fill="#acbdff"/>
        </g>
        <g id="Grupo_1095000" data-name="Grupo 1095000" transform="translate(50.27 54.62)">
          <path id="Trazado_836822" data-name="Trazado 836822" d="M115.85,322.75H94.8a12.035,12.035,0,0,1-12-12V216.21a12.035,12.035,0,0,1,12-12h21.05a12.035,12.035,0,0,1,12,12v94.54A12.035,12.035,0,0,1,115.85,322.75Z" transform="translate(-82.8 -204.21)" fill="#c4d0fe"/>
          <path id="Trazado_836823" data-name="Trazado 836823" d="M122.82,204.21h-9.83a5.083,5.083,0,0,1,5.03,5.11V317.63a5.09,5.09,0,0,1-5.03,5.11h9.83a5.083,5.083,0,0,0,5.03-5.11V209.33A5.086,5.086,0,0,0,122.82,204.21Z" transform="translate(-82.8 -204.21)" fill="#acbdff"/>
        </g>
        <g id="Grupo_1095001" data-name="Grupo 1095001" transform="translate(0 113.89)">
          <path id="Trazado_836824" data-name="Trazado 836824" d="M65.58,322.75H44.53a12.035,12.035,0,0,1-12-12V275.48a12.035,12.035,0,0,1,12-12H65.58a12.035,12.035,0,0,1,12,12v35.27A12.035,12.035,0,0,1,65.58,322.75Z" transform="translate(-32.53 -263.48)" fill="#c4d0fe"/>
          <path id="Trazado_836825" data-name="Trazado 836825" d="M72.55,263.48H64.16a5.083,5.083,0,0,1,5.03,5.11v49.04a5.09,5.09,0,0,1-5.03,5.11h8.39a5.083,5.083,0,0,0,5.03-5.11V268.6A5.086,5.086,0,0,0,72.55,263.48Z" transform="translate(-32.53 -263.48)" fill="#acbdff"/>
        </g>
      </g>
      <g id="Grupo_1095005" data-name="Grupo 1095005" transform="translate(133.85 223)">
        <path id="Trazado_836826" data-name="Trazado 836826" d="M154.65,231.57s-5.23,15.73-15.26,20.19c0,0,14.49.24,23.89-2.2,0,0,11.44-9.97,11.8-17.36Z" transform="translate(-139.38 -231.57)" fill="#5e82ff"/>
        <path id="Trazado_836827" data-name="Trazado 836827" d="M155.32,232.58s-5.9,14.72-15.94,19.18c0,0,8.2,6.76,24.29-.82,7.74-3.64,11.04-11.36,11.4-18.74Z" transform="translate(-139.38 -231.57)" fill="#fff"/>
        <path id="Trazado_836828" data-name="Trazado 836828" d="M157.23,253.3s4.3-1.25,5.64-4.2a9.747,9.747,0,0,0,6.5-2.24S166.53,252.2,157.23,253.3Z" transform="translate(-139.38 -231.57)" fill="#cbd6fe"/>
        <g id="Grupo_1095003" data-name="Grupo 1095003" transform="translate(14.512 4.726)">
          <path id="Trazado_836829" data-name="Trazado 836829" d="M168.28,238.96a2.432,2.432,0,0,1-.38-.03,2.021,2.021,0,0,1-1.51-1.17,1.692,1.692,0,0,0-1.46-1.03,3.437,3.437,0,0,0-2.35.96,2.913,2.913,0,0,1-2.08.86,2.3,2.3,0,0,1-1.54-.99,2.125,2.125,0,0,0-1.28-.89c-1.35-.29-3.48,1.73-3.5,1.75a.17.17,0,1,1-.23-.25c.09-.09,2.29-2.16,3.81-1.84a2.436,2.436,0,0,1,1.47,1.01,1.947,1.947,0,0,0,1.32.87,2.657,2.657,0,0,0,1.82-.8,3.729,3.729,0,0,1,2.59-1.03,2.008,2.008,0,0,1,1.71,1.19,1.706,1.706,0,0,0,1.28,1.01c1.61.29,3.56-1.78,3.58-1.8a.17.17,0,0,1,.25.23C171.71,237.12,169.96,238.96,168.28,238.96Z" transform="translate(-153.892 -236.296)" fill="#5478ff"/>
        </g>
        <g id="Grupo_1095004" data-name="Grupo 1095004" transform="translate(12.472 8.826)">
          <path id="Trazado_836830" data-name="Trazado 836830" d="M166.24,243.06a2.432,2.432,0,0,1-.38-.03,2.021,2.021,0,0,1-1.51-1.17,1.692,1.692,0,0,0-1.46-1.03,3.374,3.374,0,0,0-2.35.96,2.913,2.913,0,0,1-2.08.86,2.3,2.3,0,0,1-1.54-.99,2.125,2.125,0,0,0-1.28-.89c-1.35-.29-3.48,1.73-3.5,1.75a.172.172,0,0,1-.24-.01.163.163,0,0,1,.01-.24c.09-.09,2.29-2.16,3.81-1.84a2.436,2.436,0,0,1,1.47,1.01,1.947,1.947,0,0,0,1.32.87,2.657,2.657,0,0,0,1.82-.8,3.729,3.729,0,0,1,2.59-1.03,2.008,2.008,0,0,1,1.71,1.19,1.706,1.706,0,0,0,1.28,1.01c1.61.29,3.56-1.78,3.58-1.8a.17.17,0,1,1,.25.23C169.67,241.22,167.93,243.06,166.24,243.06Z" transform="translate(-151.852 -240.396)" fill="#5478ff"/>
        </g>
      </g>
      <g id="Grupo_1095009" data-name="Grupo 1095009" transform="translate(103.82 252.84)">
        <path id="Trazado_836831" data-name="Trazado 836831" d="M109.35,264.56l17.81-1.78a139.984,139.984,0,0,0,14.37,13.42L121.9,288.75S111.01,274.39,109.35,264.56Z" transform="translate(-109.35 -261.41)" fill="#5e82ff"/>
        <path id="Trazado_836832" data-name="Trazado 836832" d="M109.35,264.56l17.81-3.15a95.5,95.5,0,0,0,14.37,14.79L121.9,287.38S112.21,274.26,109.35,264.56Z" transform="translate(-109.35 -261.41)" fill="#fff"/>
        <g id="Grupo_1095006" data-name="Grupo 1095006" transform="translate(3.69 2.756)">
          <path id="Trazado_836833" data-name="Trazado 836833" d="M113.21,270.19a.127.127,0,0,1-.06-.01.17.17,0,0,1-.1-.22c.03-.09.84-2.14,2.36-2.56a2.906,2.906,0,0,1,1.91.21,3.1,3.1,0,0,0,2.1.19,2.868,2.868,0,0,0,1.62-1.3,2.471,2.471,0,0,1,1.35-1.13,2.778,2.778,0,0,1,1.94.26,2.13,2.13,0,0,0,1.16.27,2.6,2.6,0,0,0,2.07-1.61.171.171,0,0,1,.33.09,2.927,2.927,0,0,1-2.35,1.86,2.566,2.566,0,0,1-1.34-.3,2.408,2.408,0,0,0-1.72-.25,2.148,2.148,0,0,0-1.16,1,3.134,3.134,0,0,1-1.8,1.43,3.407,3.407,0,0,1-2.31-.2,2.654,2.654,0,0,0-1.7-.2c-1.35.38-2.12,2.33-2.13,2.35A.18.18,0,0,1,113.21,270.19Z" transform="translate(-113.04 -264.166)" fill="#5478ff"/>
        </g>
        <g id="Grupo_1095007" data-name="Grupo 1095007" transform="translate(5.24 5.596)">
          <path id="Trazado_836834" data-name="Trazado 836834" d="M114.76,273.03a.127.127,0,0,1-.06-.01.17.17,0,0,1-.1-.22c.03-.09.84-2.14,2.36-2.56a2.906,2.906,0,0,1,1.91.21,3.1,3.1,0,0,0,2.1.19,2.868,2.868,0,0,0,1.62-1.3,2.471,2.471,0,0,1,1.35-1.13,2.778,2.778,0,0,1,1.94.26,2.13,2.13,0,0,0,1.16.27,2.623,2.623,0,0,0,2.07-1.61.171.171,0,0,1,.33.09,2.927,2.927,0,0,1-2.35,1.86,2.566,2.566,0,0,1-1.34-.3,2.408,2.408,0,0,0-1.72-.25,2.148,2.148,0,0,0-1.16,1,3.134,3.134,0,0,1-1.8,1.43,3.407,3.407,0,0,1-2.31-.2,2.654,2.654,0,0,0-1.7-.2c-1.35.38-2.12,2.33-2.13,2.35A.189.189,0,0,1,114.76,273.03Z" transform="translate(-114.59 -267.006)" fill="#5478ff"/>
        </g>
        <g id="Grupo_1095008" data-name="Grupo 1095008" transform="translate(7.66 10.492)">
          <path id="Trazado_836835" data-name="Trazado 836835" d="M117.18,276.73a.127.127,0,0,1-.06-.01.17.17,0,0,1-.1-.22c.03-.09.84-2.14,2.36-2.56a2.906,2.906,0,0,1,1.91.21,3.158,3.158,0,0,0,2.1.19,2.868,2.868,0,0,0,1.62-1.3,2.471,2.471,0,0,1,1.35-1.13.171.171,0,1,1,.09.33,2.148,2.148,0,0,0-1.16,1,3.134,3.134,0,0,1-1.8,1.43,3.407,3.407,0,0,1-2.31-.2,2.662,2.662,0,0,0-1.7-.2c-1.35.38-2.12,2.33-2.13,2.35A.208.208,0,0,1,117.18,276.73Z" transform="translate(-117.01 -271.902)" fill="#5478ff"/>
        </g>
      </g>
      <path id="Trazado_836836" data-name="Trazado 836836" d="M481.33,191.59l13.51-16.05-10.23-12.07a52.4,52.4,0,0,0,3.77-10.24l15.51-2.64.03-20.98-15.42-2.64a54.888,54.888,0,0,0-3.77-10.46l10.06-11.79L481.31,88.6l-13.36,7.8a53.345,53.345,0,0,0-9.73-5.64l.16-15.37-.6-.09L437.7,71.68l-5.22,14.55a52.47,52.47,0,0,0-11.06,1.97l-9.89-11.98L393.46,86.7l5.42,14.6a53.552,53.552,0,0,0-7.13,8.56l-15.36-2.92-7.19,19.69,13.67,7.83a51.86,51.86,0,0,0-.04,10.93l-13.65,7.73,7.15,19.75,15.62-2.82a54.8,54.8,0,0,0,6.99,8.29l-5.51,14.84,18.16,10.53,5.19-6.24,4.94-5.99c1.67.48,3.4.87,5.13,1.19s3.66.55,5.48.7l5.32,14.98,20.69-3.59.02-15.78a53.777,53.777,0,0,0,9.34-5.38Zm-50.36-21.75a30.892,30.892,0,1,1,10.7-60.85,34.467,34.467,0,0,1,4.25,1.11,30.874,30.874,0,0,1-14.95,59.74Z" transform="translate(-5.53 -8.57)" fill="#d1bbff"/>
      <path id="Trazado_836837" data-name="Trazado 836837" d="M207.14,104.66l-8.03-30.24-34.09,4.13,1.35,11.16,16.77-2.03-33.22,40.61-49.18-2.79L50.15,185.53l8.6,7.25,46.97-55.74,49.28,2.8,37.63-46,3.65,13.71Z" transform="translate(-5.53 -8.57)" fill="#01c3fd"/>
      <path id="Trazado_836838" data-name="Trazado 836838" d="M357.02,275.48l16.25-22.47-14.62-14.93a72.07,72.07,0,0,0,3.95-13.88l20.16-4.89-2-27.72-20.51-2.05a72.742,72.742,0,0,0-6-13.43l12.13-16.52-19.32-19.97-16.87,11.6a70.506,70.506,0,0,0-13.36-6.5l-1.42-20.22-.78-.07-26.84-2.82-5.45,19.68a71.792,71.792,0,0,0-14.42,3.67l-14.1-14.74-22.97,15.55,8.49,18.78a68.49,68.49,0,0,0-8.57,11.99l-20.42-2.28-7.58,26.67,18.78,9.02a71.444,71.444,0,0,0,1.11,14.45l-17.28,11.54,11.33,25.36,20.27-5.15a73.1,73.1,0,0,0,10.05,10.31l-5.85,20.09,24.99,11.76,6.24-8.74,5.99-8.42c2.27.45,4.57.82,6.88,1.05a68.124,68.124,0,0,0,7.28.37l8.46,19.25,26.92-6.76-1.45-20.97a74.19,74.19,0,0,0,11.8-8Zm-68.64-16.64a50.727,50.727,0,0,1-7.14-1.33,48.244,48.244,0,0,1,17.09-94.69,46.811,46.811,0,0,1,6.74,1.27,48.245,48.245,0,0,1-16.69,94.75Z" transform="translate(-5.53 -8.57)" fill="#005afd"/>
      <path id="Trazado_836839" data-name="Trazado 836839" d="M369.46,102.06,375.65,89l-8.93-6.25a34.979,34.979,0,0,0,.7-7.5l9.9-4.47-3.67-14.01-10.74.92a37.443,37.443,0,0,0-4.35-6.31l4.66-9.62L351.4,33.35l-7.55,7.56a37.084,37.084,0,0,0-7.45-2.06l-2.64-10.29-.41.03-14.02,1.13-.92,10.6a37.668,37.668,0,0,0-7.03,3.25l-8.7-6.24L292.39,47.48l6.16,8.8a36.306,36.306,0,0,0-3.26,6.94l-10.68.79-1.35,14.41,10.48,2.81a36.112,36.112,0,0,0,1.89,7.3l-7.76,7.54L296.11,108l9.92-4.62a36.97,36.97,0,0,0,6.11,4.3l-1.09,10.85,13.96,3.86,2.37-5.07,2.24-4.86c1.21.01,2.42-.01,3.64-.12a36.856,36.856,0,0,0,3.78-.49l6.16,9.05,13.16-6.01-2.84-10.62a37.432,37.432,0,0,0,5.31-5.22Zm-37.23-3.6a24.189,24.189,0,0,1-3.51-.01,23.079,23.079,0,0,1-.25-45.98,22.443,22.443,0,0,1,3.28,0,23.083,23.083,0,0,1,.44,46.01Z" transform="translate(-5.53 -8.57)" fill="#00c4ff"/>
      <path id="Trazado_836840" data-name="Trazado 836840" d="M175.96,29.16h-9.21V19.95a2.4,2.4,0,1,0-4.8,0v9.21h-9.21a2.4,2.4,0,0,0,0,4.8h9.21v9.21a2.4,2.4,0,1,0,4.8,0V33.96h9.21a2.4,2.4,0,0,0,0-4.8Z" transform="translate(-5.53 -8.57)" fill="#c4d0fe"/>
      <path id="Trazado_836841" data-name="Trazado 836841" d="M194.41,53.09h-5.95V47.14a1.55,1.55,0,0,0-3.1,0v5.95h-5.95a1.55,1.55,0,1,0,0,3.1h5.95v5.95a1.55,1.55,0,0,0,3.1,0V56.2h5.95a1.555,1.555,0,0,0,0-3.11Z" transform="translate(-5.53 -8.57)" fill="#c4d0fe"/>
      <path id="Trazado_836842" data-name="Trazado 836842" d="M430.35,25.62h-9.21V16.41a2.4,2.4,0,1,0-4.8,0v9.21h-9.21a2.4,2.4,0,0,0,0,4.8h9.21v9.21a2.4,2.4,0,1,0,4.8,0V30.42h9.21a2.4,2.4,0,0,0,0-4.8Z" transform="translate(-5.53 -8.57)" fill="#c4d0fe"/>
      <path id="Trazado_836843" data-name="Trazado 836843" d="M437.48,48.99h-5.95V43.04a1.55,1.55,0,1,0-3.1,0v5.95h-5.95a1.55,1.55,0,0,0,0,3.1h5.95v5.95a1.55,1.55,0,1,0,3.1,0V52.09h5.95a1.55,1.55,0,0,0,0-3.1Z" transform="translate(-5.53 -8.57)" fill="#c4d0fe"/>
      <path id="Trazado_836844" data-name="Trazado 836844" d="M240.56,317.18h-5.95v-5.95a1.55,1.55,0,0,0-3.1,0v5.95h-5.95a1.55,1.55,0,1,0,0,3.1h5.95v5.95a1.55,1.55,0,0,0,3.1,0v-5.95h5.95a1.55,1.55,0,1,0,0-3.1Z" transform="translate(-5.53 -8.57)" fill="#c4d0fe"/>
      <path id="Trazado_836845" data-name="Trazado 836845" d="M205.56,303.2h-5.95v-5.95a1.55,1.55,0,0,0-3.1,0v5.95h-5.95a1.55,1.55,0,1,0,0,3.1h5.95v5.95a1.55,1.55,0,0,0,3.1,0V306.3h5.95a1.55,1.55,0,1,0,0-3.1Z" transform="translate(-5.53 -8.57)" fill="#c4d0fe"/>
      <g id="Grupo_1095019" data-name="Grupo 1095019" transform="translate(176.064 111.966)">
        <path id="Trazado_836846" data-name="Trazado 836846" d="M281.13,152.94l5.68,3.43-4.51,3.26s-6.26,23.9-2,30.09c0,0-7,4.29-14.22,1.63S281.13,152.94,281.13,152.94Z" transform="translate(-181.594 -120.536)" fill="#009ecd"/>
        <path id="Trazado_836847" data-name="Trazado 836847" d="M277.68,146.81l-8.54-1.42.04,6.22,4.75,2.07Z" transform="translate(-181.594 -120.536)" fill="#d1385c"/>
        <path id="Trazado_836848" data-name="Trazado 836848" d="M280.84,162.37l-.25-2.55,3.64-8.16-7.78-5.77-3.66,7.05s-3.2,2.29-1.65,3.94S278.23,163.7,280.84,162.37Z" transform="translate(-181.594 -120.536)" fill="#ffac9e"/>
        <g id="Grupo_1095012" data-name="Grupo 1095012" transform="translate(112.216 120.574)">
          <path id="Trazado_836849" data-name="Trazado 836849" d="M298.89,241.11l4.91,7.38-4.02,3.37-5.97-6.64Z" transform="translate(-293.81 -241.11)" fill="#ffac9e"/>
          <path id="Trazado_836850" data-name="Trazado 836850" d="M303.13,260.05s14.17-7.23,17.64-16.52l-1.52-1.12s-1.97,7.97-17.06,15.46Z" transform="translate(-293.81 -241.11)" fill="#c4d0fe"/>
          <path id="Trazado_836851" data-name="Trazado 836851" d="M301.55,254.18l-4.27-5.02,4.82-3.4,4.14,4.89S305.73,255.81,301.55,254.18Z" transform="translate(-293.81 -241.11)" fill="#e3e9fe"/>
          <path id="Trazado_836852" data-name="Trazado 836852" d="M306.14,247.09s2.22,1.07,6.17-2.05,5.77-3.08,6.93-2.63c0,0,1.54,3.07-6.24,9.11s-10.61,6.84-10.61,6.84a16,16,0,0,1-2.45-3.55c-1.03-2.07-2.06-3.11,2.01-3.19s1.19-2.39.68-3.54S302.21,245.83,306.14,247.09Z" transform="translate(-293.81 -241.11)" fill="#d1385c"/>
          <g id="Grupo_1095010" data-name="Grupo 1095010" transform="translate(12.39 5.37)">
            <path id="Trazado_836853" data-name="Trazado 836853" d="M306.58,249.83h-.03a.388.388,0,0,1-.35-.41l.21-2.59a.381.381,0,1,1,.76.06l-.21,2.59A.388.388,0,0,1,306.58,249.83Z" transform="translate(-306.2 -246.48)" fill="#fff"/>
          </g>
          <g id="Grupo_1095011" data-name="Grupo 1095011" transform="translate(14.47 5)">
            <path id="Trazado_836854" data-name="Trazado 836854" d="M308.66,249.46h-.03a.388.388,0,0,1-.35-.41l.21-2.59a.381.381,0,0,1,.76.06l-.21,2.59A.381.381,0,0,1,308.66,249.46Z" transform="translate(-308.28 -246.11)" fill="#fff"/>
          </g>
        </g>
        <path id="Trazado_836855" data-name="Trazado 836855" d="M258.22,201.29l14.01,21.34,2.01.32.33,1.56s6.42,10.61,10.27,13.36a27.033,27.033,0,0,1,6.49,7.21l.29,1.41,2.2.63.17,1.56,1.04.77,5.85-6.18-15.59-23.58-1.51-3.16-13.32-25-23.35-4.26-.38,1.58Z" transform="translate(-181.594 -120.536)" fill="#87a1fd"/>
        <path id="Trazado_836856" data-name="Trazado 836856" d="M232.81,194.15s.63,2.27,16.45,0l2.99-5.29C252.24,188.86,233.5,190.62,232.81,194.15Z" transform="translate(-181.594 -120.536)" fill="#d1385c"/>
        <g id="Grupo_1095015" data-name="Grupo 1095015" transform="translate(0 81.584)">
          <path id="Trazado_836857" data-name="Trazado 836857" d="M201.26,214.84l-8.33-3.02,1.24-5.1,8.74,1.81Z" transform="translate(-181.594 -202.12)" fill="#ffac9e"/>
          <path id="Trazado_836858" data-name="Trazado 836858" d="M186.61,202.12s-7.11,14.23-4.4,23.76h1.89s-3.14-7.58,4.56-22.57Z" transform="translate(-181.594 -202.12)" fill="#c4d0fe"/>
          <path id="Trazado_836859" data-name="Trazado 836859" d="M192.39,206.17l6.42,1.51-1.87,5.6-6.24-1.48C190.71,211.8,188.06,207.34,192.39,206.17Z" transform="translate(-181.594 -202.12)" fill="#e3e9fe"/>
          <path id="Trazado_836860" data-name="Trazado 836860" d="M191.88,214.34s-2.43.46-3.75,5.31-2.81,5.91-4.02,6.23c0,0-3.06-1.56-.38-11.03s4.48-11.8,4.48-11.8a15.968,15.968,0,0,1,4.08,1.41c2.06,1.05,3.5,1.28.27,3.75s.46,2.63,1.56,3.25S195.79,213.01,191.88,214.34Z" transform="translate(-181.594 -202.12)" fill="#d1385c"/>
          <g id="Grupo_1095013" data-name="Grupo 1095013" transform="translate(8.15 10.194)">
            <path id="Trazado_836861" data-name="Trazado 836861" d="M191.49,215.28a.36.36,0,0,1-.32-.18l-1.37-2.21a.377.377,0,0,1,.64-.4l1.37,2.21a.383.383,0,0,1-.12.52A.3.3,0,0,1,191.49,215.28Z" transform="translate(-189.744 -212.314)" fill="#fff"/>
          </g>
          <g id="Grupo_1095014" data-name="Grupo 1095014" transform="translate(6.7 11.744)">
            <path id="Trazado_836862" data-name="Trazado 836862" d="M190.04,216.83a.36.36,0,0,1-.32-.18l-1.37-2.21a.377.377,0,0,1,.64-.4l1.37,2.21a.383.383,0,0,1-.12.52A.414.414,0,0,1,190.04,216.83Z" transform="translate(-188.294 -213.864)" fill="#fff"/>
          </g>
        </g>
        <path id="Trazado_836863" data-name="Trazado 836863" d="M227.96,216.03l1.16.49-.07-.72,1.47-.73,1.19.78c2.34-8.04,15-26.99,15-26.99l14.71,13.5L232.44,231l-24.49-11.13-1.42.37-6.04-2.29,1.05-10.39,2.24-.05.96,2.01s.71-1.33.87-1.33,3.11.5,3.11.5l.46,2.2C209.18,210.91,225.21,213.84,227.96,216.03Z" transform="translate(-181.594 -120.536)" fill="#87a1fd"/>
        <path id="Trazado_836864" data-name="Trazado 836864" d="M259.91,203.86h0l12.32,18.77,2.01.32.33,1.56s6.42,10.61,10.27,13.36a18.688,18.688,0,0,1,2.14,1.8h0c-9.79-12.04-24.36-37.55-24.36-37.55Z" transform="translate(-181.594 -120.536)" fill="#5a7ee2"/>
        <g id="Grupo_1095016" data-name="Grupo 1095016" transform="translate(21.706 67.217)">
          <path id="Trazado_836865" data-name="Trazado 836865" d="M229.29,219.97l-.19-.07c-.16-.06-15.77-6.12-20.51-5.48l-.13.02-.84-1.58-2.29-.39-1.65.06v4.9a.19.19,0,1,1-.38,0v-5.26l2.06-.08,2.51.43.81,1.51c4.73-.51,18.5,4.72,20.37,5.44l.53-1.75,2.12-.28,1.47,1.51c4.18-10.21,17.22-30.9,17.36-31.11a.189.189,0,1,1,.32.2c-.13.21-13.39,21.24-17.43,31.32l-.11.27-1.74-1.79-1.68.22Z" transform="translate(-203.3 -187.753)" fill="#272c6a"/>
        </g>
        <path id="Trazado_836866" data-name="Trazado 836866" d="M271.13,190.03c-.89,2.61-3.16,4.12-7.28,4.12-3.81,0-11.66-6.33-13.18-9.35s20.46-31.31,20.46-31.31,4.63,8.94,9.71,8.88C280.84,162.37,273.52,183.05,271.13,190.03Z" transform="translate(-181.594 -120.536)" fill="#e3e9fe"/>
        <path id="Trazado_836867" data-name="Trazado 836867" d="M246.71,179.69l3.96-2.32-.08-13.66,16.98,1.14,3.55-11.37s-1.89-2.67-27.02,2.83C244.11,156.32,238.67,163.66,246.71,179.69Z" transform="translate(-181.594 -120.536)" fill="#009ecd"/>
        <path id="Trazado_836868" data-name="Trazado 836868" d="M232.81,194.15s12.06-5.81,28.61,1.47l12.51-37.85v-4.09l-4.79-8.29-1.64,6.03a107.089,107.089,0,0,0-12.14,10.22C246.71,170.05,238.19,177.67,232.81,194.15Z" transform="translate(-181.594 -120.536)" fill="#a6eaff"/>
        <path id="Trazado_836869" data-name="Trazado 836869" d="M251.71,166.82s-7.47,8.6-8.23,14.06a34.08,34.08,0,0,0,19.77,6.26l-14.31-7.44Z" transform="translate(-181.594 -120.536)" fill="#009ecd"/>
        <path id="Trazado_836870" data-name="Trazado 836870" d="M259.24,177.74l11.45-10.46s-2.52-11.29-5.59-11c-6.72.64-11.82,3.72-19.05,23.33Z" transform="translate(-181.594 -120.536)" fill="#a6eaff"/>
        <path id="Trazado_836871" data-name="Trazado 836871" d="M274.7,142.5s6.59,16.62,17.86,10.16c0,0,4.05-3.92-3.57-22.32,0,0-7.21-6.59-14.28,5.29A8.18,8.18,0,0,0,274.7,142.5Z" transform="translate(-181.594 -120.536)" fill="#ffac9e"/>
        <path id="Trazado_836872" data-name="Trazado 836872" d="M276.75,140.91s4.07.85,6.41-5.38c0,0,5.21,1.33,7.81,0l-.69-2.43-7.98-.38Z" transform="translate(-181.594 -120.536)" fill="#e07972"/>
        <path id="Trazado_836873" data-name="Trazado 836873" d="M284.91,120.9s9.35,5.2,5.36,12.2c-.55.96-5.03,1.72-7.67.71,0,0-2.51,6.38-5.86,7.1,0,0,3.13,4.54.04,7.85s-5.77.96-5.77.96a2.5,2.5,0,0,0,3.01-1.38s-7.46-1.21-8.31-8.29,3.55-4.95,3.55-4.95-3.24-5.18-.73-7.97a4.275,4.275,0,0,1,5.19-1.33s.73-6.9,4.75-4.9,5.32,4.41,6.59,7.18C285.08,128.08,288.34,126.1,284.91,120.9Z" transform="translate(-181.594 -120.536)" fill="#5e1212"/>
        <path id="Trazado_836874" data-name="Trazado 836874" d="M288.64,124.94s3.34,6.41-3.06,8.05A8.517,8.517,0,0,0,288.64,124.94Z" transform="translate(-181.594 -120.536)" fill="#fff"/>
        <path id="Trazado_836875" data-name="Trazado 836875" d="M273.59,128.26s-3.07,4.74,2.36,8.93C275.95,137.19,267.27,131.83,273.59,128.26Z" transform="translate(-181.594 -120.536)" fill="#fff"/>
        <path id="Trazado_836876" data-name="Trazado 836876" d="M278.02,143.74s-2.37-1.09-2.85.94a3.919,3.919,0,0,0,4.55,4.35Z" transform="translate(-181.594 -120.536)" fill="#ffac9e"/>
        <path id="Trazado_836877" data-name="Trazado 836877" d="M278.99,149.53l2.83,7.52,1.71-3.83A11.2,11.2,0,0,1,278.99,149.53Z" transform="translate(-181.594 -120.536)" fill="#e07972"/>
        <path id="Trazado_836878" data-name="Trazado 836878" d="M285.1,137.36s-3.83,1.9-4.31,5.2a30.043,30.043,0,0,1,4.74-3.75Z" transform="translate(-181.594 -120.536)" fill="#5e1212"/>
        <path id="Trazado_836879" data-name="Trazado 836879" d="M285.81,141.18a1.79,1.79,0,0,0-1.05-.07,2.275,2.275,0,0,0-1.81,2.34c.24-.27.42-.52.63-.75a5.153,5.153,0,0,1,.63-.61A7.138,7.138,0,0,1,285.81,141.18Z" transform="translate(-181.594 -120.536)" fill="#511f1f"/>
        <g id="Grupo_1095017" data-name="Grupo 1095017" transform="translate(103.346 27.693)">
          <path id="Trazado_836880" data-name="Trazado 836880" d="M284.94,148.97c.05.41,1.56,1.3,2.92,1.31s2.47-.44,2.47-1.01-1.1-1.03-2.46-1.04A8.014,8.014,0,0,0,284.94,148.97Z" transform="translate(-284.94 -148.23)" fill="#e07972"/>
          <path id="Trazado_836881" data-name="Trazado 836881" d="M290.2,148.93a3.452,3.452,0,0,1-2.13.53c-1.21-.01-2.19-.36-2.25-.79a4.081,4.081,0,0,1,2.05-.44A3.3,3.3,0,0,1,290.2,148.93Z" transform="translate(-284.94 -148.23)" fill="#fff"/>
        </g>
        <path id="Trazado_836882" data-name="Trazado 836882" d="M284.13,142.38a.658.658,0,1,0,.44-.82A.65.65,0,0,0,284.13,142.38Z" transform="translate(-181.594 -120.536)" fill="#511f1f"/>
        <path id="Trazado_836883" data-name="Trazado 836883" d="M292.3,139.14a1.689,1.689,0,0,0-.94-.15,2.1,2.1,0,0,0-.92.34,2.031,2.031,0,0,0-.91,1.64c.24-.22.42-.44.63-.63a5.658,5.658,0,0,1,.62-.5A6.906,6.906,0,0,1,292.3,139.14Z" transform="translate(-181.594 -120.536)" fill="#511f1f"/>
        <path id="Trazado_836884" data-name="Trazado 836884" d="M290.68,140.09a.6.6,0,1,0,.47-.71A.6.6,0,0,0,290.68,140.09Z" transform="translate(-181.594 -120.536)" fill="#511f1f"/>
        <path id="Trazado_836885" data-name="Trazado 836885" d="M279.77,147.94c.37,1,1.81,1.39,3.21.86s2.23-1.76,1.86-2.75-1.81-1.39-3.21-.86S279.4,146.94,279.77,147.94Z" transform="translate(-181.594 -120.536)" fill="#ff8686"/>
        <path id="Trazado_836886" data-name="Trazado 836886" d="M293.4,144.99c-.15-1.09-.38-2.31-.71-3.7-1.23.57-1.93,1.7-1.58,2.63A2.066,2.066,0,0,0,293.4,144.99Z" transform="translate(-181.594 -120.536)" fill="#ff8686"/>
        <path id="Trazado_836887" data-name="Trazado 836887" d="M291.31,136.37a10.675,10.675,0,0,0-2.72.43l.71,1.34a24.036,24.036,0,0,1,2.44-.43C291.61,137.28,291.46,136.83,291.31,136.37Z" transform="translate(-181.594 -120.536)" fill="#5e1212"/>
        <g id="Grupo_1095018" data-name="Grupo 1095018" transform="translate(79.956 42.004)">
          <rect id="Rectángulo_387424" data-name="Rectángulo 387424" width="17.83" height="25.4" transform="translate(13.523 0.065) rotate(26.501)" fill="#c4d0fe"/>
          <path id="Trazado_836888" data-name="Trazado 836888" d="M262.15,190.64l.37-27.61,19.98-.49.23,9.47-2.58,3.16.34,15.05Z" transform="translate(-261.55 -162.54)" fill="#87a1fd"/>
          <path id="Trazado_836889" data-name="Trazado 836889" d="M262.2,189.64l-.65-26.56,18.91-.47.23,9.48-2.44,3.16.34,13.99Z" transform="translate(-261.55 -162.54)" fill="#fff"/>
          <path id="Trazado_836890" data-name="Trazado 836890" d="M264.01,167.47a.26.26,0,0,0,.09.16.279.279,0,0,0,.18.06l10.31-.22a.257.257,0,0,0,.18-.07.214.214,0,0,0,.08-.17.26.26,0,0,0-.09-.16.279.279,0,0,0-.18-.06l-10.31.22a.257.257,0,0,0-.18.07A.247.247,0,0,0,264.01,167.47Z" transform="translate(-261.55 -162.54)" fill="#87a1fd"/>
          <path id="Trazado_836891" data-name="Trazado 836891" d="M263.98,166.26a.26.26,0,0,0,.09.16.279.279,0,0,0,.18.06l10.31-.22a.257.257,0,0,0,.18-.07.214.214,0,0,0,.08-.17.315.315,0,0,0-.09-.17.279.279,0,0,0-.18-.06l-10.31.22a.257.257,0,0,0-.18.07A.25.25,0,0,0,263.98,166.26Z" transform="translate(-261.55 -162.54)" fill="#87a1fd"/>
          <path id="Trazado_836892" data-name="Trazado 836892" d="M264.03,168.72c0,.13.08.23.16.23l2.46-.05c.09,0,.16-.11.15-.23s-.08-.23-.16-.22l-2.46.05C264.1,168.49,264.03,168.59,264.03,168.72Z" transform="translate(-261.55 -162.54)" fill="#87a1fd"/>
          <path id="Trazado_836893" data-name="Trazado 836893" d="M287.95,173.38a2.245,2.245,0,1,1-1.01-3.01A2.246,2.246,0,0,1,287.95,173.38Z" transform="translate(-261.55 -162.54)" fill="#87a1fd"/>
        </g>
        <path id="Trazado_836894" data-name="Trazado 836894" d="M281.88,182.32l1.9-3.98,2.44-2.63-.2,1.68-.28,2.31,1.47-1.62s.99,1.52.66,2.48-.37,2.47-.9,3.46-.25,1.87-1,2.52-6.01,1.24-6.01,1.24Z" transform="translate(-181.594 -120.536)" fill="#ffac9e"/>
        <path id="Trazado_836895" data-name="Trazado 836895" d="M282.07,182.79l-22.05-8.82-13.97,5.64s15.02,11.36,34.88,8.2Z" transform="translate(-181.594 -120.536)" fill="#a6eaff"/>
      </g>
      <g id="Grupo_1095023" data-name="Grupo 1095023" transform="translate(127.84 171.47)">
        <path id="Trazado_836896" data-name="Trazado 836896" d="M133.37,198.92s6.42,1.23,4.91,9.55c0,0,18.12-.58,27.33-10.96,0,0-1.58-13.41-6.33-17.47C159.28,180.04,142.37,194.1,133.37,198.92Z" transform="translate(-133.37 -180.04)" fill="#5e82ff"/>
        <path id="Trazado_836897" data-name="Trazado 836897" d="M133.37,198.92s5.7,1.96,4.18,10.28c0,0,18.84-.62,28.05-11,0,0-1.58-13.41-6.33-17.47C159.28,180.73,142.37,194.1,133.37,198.92Z" transform="translate(-133.37 -180.04)" fill="#fff"/>
        <path id="Trazado_836898" data-name="Trazado 836898" d="M133.83,208.16s6.45,1.76,18.3-1.81l-12.17,4.31Z" transform="translate(-133.37 -180.04)" fill="#cbd6fe"/>
        <g id="Grupo_1095020" data-name="Grupo 1095020" transform="translate(21.859 6.061)">
          <path id="Trazado_836899" data-name="Trazado 836899" d="M162.24,197.67h-.02a2.751,2.751,0,0,1-2.07-1,2.157,2.157,0,0,1-.21-1.79,3.449,3.449,0,0,1,.21-.51,1.676,1.676,0,0,0-.05-2.02,1.627,1.627,0,0,0-1.09-.48c-.62-.12-1.32-.25-1.58-1.08a1.965,1.965,0,0,1,.27-1.64,1.813,1.813,0,0,0,.22-1.62c-.48-1.33-2.48-1.06-2.5-1.06a.172.172,0,0,1-.05-.34c.09-.01,2.29-.31,2.87,1.28a2.136,2.136,0,0,1-.24,1.9,1.619,1.619,0,0,0-.24,1.38c.2.64.72.74,1.32.85a1.9,1.9,0,0,1,1.3.61,2.02,2.02,0,0,1,.08,2.38,3.151,3.151,0,0,0-.19.45,1.827,1.827,0,0,0,.16,1.51,2.481,2.481,0,0,0,1.83.86.177.177,0,0,1,.15.19A.174.174,0,0,1,162.24,197.67Z" transform="translate(-155.229 -186.101)" fill="#5478ff"/>
        </g>
        <g id="Grupo_1095021" data-name="Grupo 1095021" transform="translate(18.359 9.013)">
          <path id="Trazado_836900" data-name="Trazado 836900" d="M158.76,200.03a2.507,2.507,0,0,1-2.01-.93,1.744,1.744,0,0,1-.4-1.51,3.169,3.169,0,0,1,.38-.81c.32-.55.57-.99.14-1.68a2.311,2.311,0,0,0-1.32-.87,2.538,2.538,0,0,1-1.51-1.04,1.038,1.038,0,0,1,.05-1.14,2.08,2.08,0,0,0,.19-1.55c-.3-1.29-2.34-1.09-2.36-1.09a.171.171,0,1,1-.04-.34c.1-.01,2.35-.24,2.73,1.35a2.379,2.379,0,0,1-.22,1.77c-.15.32-.25.52-.06.82a2.25,2.25,0,0,0,1.34.9,2.584,2.584,0,0,1,1.5,1.01,1.756,1.756,0,0,1-.13,2.04,4.076,4.076,0,0,0-.35.73,1.426,1.426,0,0,0,.34,1.21,2.234,2.234,0,0,0,1.88.8.176.176,0,0,1,.18.16.183.183,0,0,1-.16.18A1.085,1.085,0,0,0,158.76,200.03Z" transform="translate(-151.729 -189.053)" fill="#5478ff"/>
        </g>
        <g id="Grupo_1095022" data-name="Grupo 1095022" transform="translate(14.839 11.133)">
          <path id="Trazado_836901" data-name="Trazado 836901" d="M153.5,197.3a.19.19,0,0,1-.15-.08,2.311,2.311,0,0,0-1.32-.87,2.538,2.538,0,0,1-1.51-1.04,1.038,1.038,0,0,1,.05-1.14,2.08,2.08,0,0,0,.19-1.55c-.3-1.29-2.34-1.09-2.36-1.09a.171.171,0,0,1-.19-.15.177.177,0,0,1,.15-.19c.1-.01,2.35-.24,2.73,1.35a2.379,2.379,0,0,1-.22,1.77c-.15.32-.25.52-.06.82a2.25,2.25,0,0,0,1.34.9,2.584,2.584,0,0,1,1.5,1.01.175.175,0,0,1-.05.24A.2.2,0,0,1,153.5,197.3Z" transform="translate(-148.209 -191.173)" fill="#5478ff"/>
        </g>
      </g>
      <g id="Grupo_1095025" data-name="Grupo 1095025" transform="translate(318.92 10.29)">
        <path id="Trazado_836902" data-name="Trazado 836902" d="M390.2,39.1l-.39-.87a.474.474,0,0,0-.86.4c.13.29.26.57.39.86a.472.472,0,1,0,.86-.39Zm1.23,2.93c-.11-.29-.23-.59-.35-.89a.475.475,0,0,0-.88.36c.12.29.24.58.35.87a.472.472,0,1,0,.88-.34Zm1.07,2.99c-.1-.3-.2-.6-.31-.91a.478.478,0,0,0-.9.32c.1.3.2.6.3.89a.466.466,0,0,0,.6.3.471.471,0,0,0,.31-.6Zm.89,3.06c-.08-.31-.16-.61-.25-.93a.478.478,0,1,0-.92.26c.08.3.16.61.24.9a.47.47,0,0,0,.58.34.455.455,0,0,0,.35-.57Zm.66,3.13c-.05-.31-.11-.63-.17-.94a.479.479,0,0,0-.94.18c.06.31.11.62.16.92a.477.477,0,0,0,.55.39.482.482,0,0,0,.4-.55Zm.36,3.17c-.02-.32-.04-.64-.07-.96a.477.477,0,1,0-.95.09c.03.31.05.62.07.93a.479.479,0,0,0,.5.45.488.488,0,0,0,.45-.51Zm-.02,3.21c.02-.32.04-.64.05-.96a.475.475,0,1,0-.95-.03c-.01.31-.03.62-.05.92a.476.476,0,1,0,.95.07Zm-.48,3.17c.07-.31.14-.63.2-.95a.473.473,0,1,0-.93-.17c-.06.31-.12.61-.19.9a.473.473,0,0,0,.35.57.463.463,0,0,0,.57-.35Zm-1,3.06q.2-.45.36-.9a.475.475,0,1,0-.89-.33c-.11.29-.22.57-.34.85a.474.474,0,0,0,.25.62.452.452,0,0,0,.62-.24Zm-1.53,2.84c.18-.27.35-.54.51-.82a.475.475,0,0,0-.82-.48c-.15.26-.32.53-.48.78a.483.483,0,0,0,.14.66.471.471,0,0,0,.65-.14ZM389.4,69.2c.22-.24.43-.48.64-.73a.476.476,0,0,0-.73-.61c-.2.24-.4.47-.61.7a.475.475,0,0,0,.03.67.484.484,0,0,0,.67-.03Zm-2.33,2.21c.25-.21.49-.42.73-.63a.475.475,0,1,0-.63-.71c-.23.21-.46.41-.7.61a.476.476,0,0,0-.06.67A.463.463,0,0,0,387.07,71.41Zm-2.56,1.91c.27-.18.53-.36.79-.54a.473.473,0,0,0-.55-.77c-.25.18-.51.36-.77.53a.471.471,0,0,0-.13.66.476.476,0,0,0,.66.12Zm-2.73,1.66c.28-.16.56-.31.83-.47a.475.475,0,1,0-.48-.82c-.27.16-.54.31-.81.46a.476.476,0,0,0-.18.65.464.464,0,0,0,.64.18Zm-2.84,1.46c.29-.14.57-.28.86-.42a.476.476,0,0,0-.43-.85c-.28.14-.56.28-.84.41a.462.462,0,0,0-.22.63A.475.475,0,0,0,378.94,76.44Zm-2.9,1.3c.29-.12.59-.25.88-.38a.479.479,0,1,0-.38-.88c-.29.12-.57.25-.87.37a.466.466,0,0,0-.25.62A.475.475,0,0,0,376.04,77.74Zm-2.94,1.18c.3-.11.59-.23.89-.34a.478.478,0,0,0-.35-.89c-.29.11-.58.23-.88.34a.461.461,0,0,0-.27.61A.47.47,0,0,0,373.1,78.92Zm-2.98,1.09c.3-.11.6-.21.89-.32a.478.478,0,1,0-.32-.9c-.3.11-.59.21-.89.32a.478.478,0,1,0,.32.9Zm-2.99,1.04c.3-.1.6-.2.9-.31a.474.474,0,0,0-.3-.9c-.3.1-.6.2-.89.31a.474.474,0,0,0-.3.6A.459.459,0,0,0,367.13,81.05Zm-3,1,.9-.3a.474.474,0,0,0-.3-.9l-.9.3a.474.474,0,0,0,.3.9Zm-3.01.99.9-.3a.474.474,0,0,0-.3-.9l-.9.3a.474.474,0,0,0-.3.6.482.482,0,0,0,.6.3Zm-2.99,1,.9-.3a.474.474,0,0,0-.3-.9l-.9.3a.474.474,0,0,0-.3.6.466.466,0,0,0,.6.3Zm-2.98,1.03c.3-.1.59-.21.89-.31a.478.478,0,1,0-.32-.9c-.3.1-.6.21-.89.31a.478.478,0,1,0,.32.9Zm-2.95,1.08c.29-.11.59-.22.88-.33a.475.475,0,0,0-.33-.89c-.3.11-.59.22-.89.33a.474.474,0,0,0-.28.61.485.485,0,0,0,.62.28Zm-2.93,1.15.87-.36a.475.475,0,1,0-.36-.88c-.3.12-.59.24-.88.36a.479.479,0,0,0-.26.62.485.485,0,0,0,.63.26Zm-2.88,1.25c.28-.13.57-.26.86-.39a.477.477,0,0,0-.39-.87l-.87.39a.479.479,0,0,0,.4.87Zm-2.81,1.39c.28-.14.55-.29.84-.43a.476.476,0,0,0-.43-.85c-.29.14-.57.29-.85.44a.474.474,0,1,0,.44.84Zm-2.72,1.53c.27-.16.53-.32.8-.48a.475.475,0,1,0-.48-.82c-.28.16-.55.32-.82.49a.483.483,0,0,0-.16.65.477.477,0,0,0,.66.16Zm-2.59,1.74c.25-.18.5-.36.76-.54a.474.474,0,0,0-.54-.78c-.26.18-.52.37-.78.56a.468.468,0,0,0-.1.66.475.475,0,0,0,.66.1Zm-2.45,1.93.72-.6a.476.476,0,1,0-.6-.74c-.25.2-.5.41-.74.61a.479.479,0,1,0,.62.73Zm-2.32,2.09c.22-.21.45-.43.68-.64a.474.474,0,1,0-.64-.7c-.24.22-.47.44-.7.66a.474.474,0,1,0,.66.68Zm-2.15,2.25q.3-.345.63-.69a.474.474,0,0,0-.7-.64c-.22.24-.43.48-.64.71a.483.483,0,0,0,.04.67A.476.476,0,0,0,331.35,99.48Zm-1.93,2.43c.18-.25.36-.5.55-.75a.478.478,0,0,0-.76-.58c-.2.26-.39.52-.57.77a.477.477,0,0,0,.11.66.462.462,0,0,0,.67-.1Zm-1.65,2.62c.15-.27.3-.54.46-.81a.475.475,0,0,0-.82-.48q-.255.42-.48.84a.476.476,0,0,0,.84.45Zm-1.27,2.81c.1-.29.22-.57.34-.86a.473.473,0,1,0-.87-.37c-.13.3-.24.6-.35.9a.478.478,0,0,0,.28.61.455.455,0,0,0,.6-.28Zm-.81,2.96c.06-.3.12-.6.19-.9a.473.473,0,0,0-.92-.22c-.08.32-.14.63-.2.95a.463.463,0,0,0,.38.55.473.473,0,0,0,.55-.38Zm-.29,3.06c0-.3.01-.61.03-.92a.476.476,0,0,0-.95-.05c-.02.33-.03.65-.03.97a.478.478,0,0,0,.47.48.487.487,0,0,0,.48-.48Zm.26,3.05c-.05-.3-.1-.61-.13-.91a.478.478,0,0,0-.95.11c.04.32.09.64.14.96a.477.477,0,0,0,.55.39A.47.47,0,0,0,325.66,116.41Zm.77,2.98c-.1-.29-.19-.58-.28-.88a.475.475,0,0,0-.91.27c.09.31.19.62.29.92a.468.468,0,0,0,.6.29.458.458,0,0,0,.3-.6Zm1.21,2.84c-.14-.27-.27-.55-.4-.84a.474.474,0,0,0-.86.4l.42.87a.472.472,0,1,0,.84-.43Zm1.57,2.67c-.17-.26-.34-.52-.5-.78a.472.472,0,1,0-.8.5c.17.27.34.54.52.81a.471.471,0,0,0,.66.13A.476.476,0,0,0,329.21,124.9Zm1.86,2.5c-.19-.24-.39-.48-.58-.73a.477.477,0,1,0-.75.59q.3.39.6.75a.487.487,0,0,0,.67.07.509.509,0,0,0,.06-.68Zm2.08,2.32c-.21-.22-.43-.44-.65-.68a.474.474,0,1,0-.69.65q.33.36.66.69a.474.474,0,1,0,.68-.66Zm2.27,2.13c-.22-.19-.46-.4-.7-.62a.474.474,0,1,0-.64.7c.25.23.49.44.72.64a.475.475,0,0,0,.62-.72Z" transform="translate(-324.45 -18.86)" fill="#7c3eff"/>
        <g id="Grupo_1095024" data-name="Grupo 1095024" transform="translate(45.28)">
          <path id="Trazado_836903" data-name="Trazado 836903" d="M387.64,32.27,369.73,18.86l14.54,19.77Z" transform="translate(-369.73 -18.86)" fill="#d1bbff"/>
          <path id="Trazado_836904" data-name="Trazado 836904" d="M384.27,38.63l.31-5.15L369.73,18.86Z" transform="translate(-369.73 -18.86)" fill="#7c3eff"/>
          <path id="Trazado_836905" data-name="Trazado 836905" d="M369.73,18.86l28.92,8.89-11.01,4.52Z" transform="translate(-369.73 -18.86)" fill="#7c3eff"/>
          <path id="Trazado_836906" data-name="Trazado 836906" d="M369.73,18.86l.56.63.37.42,13.92,13.57-9.95,9.95Z" transform="translate(-369.73 -18.86)" fill="#7c3eff"/>
        </g>
      </g>
      <g id="Grupo_1095027" data-name="Grupo 1095027" transform="translate(0 188.09)">
        <path id="Trazado_836907" data-name="Trazado 836907" d="M19.42,225.25a.482.482,0,0,0,.39-.55c-.05-.31-.11-.62-.16-.93a.477.477,0,1,0-.94.16c.05.32.1.63.16.94A.468.468,0,0,0,19.42,225.25Zm.07,2.73a.477.477,0,1,0,.93-.21c-.07-.3-.13-.61-.2-.92a.471.471,0,0,0-.56-.37.476.476,0,0,0-.37.56c.06.33.13.64.2.94Zm.77,3.09a.478.478,0,0,0,.92-.26c-.08-.3-.17-.6-.25-.91a.475.475,0,0,0-.92.24c.08.32.17.63.25.93Zm.97,3.04a.478.478,0,0,0,.9-.32c-.1-.29-.21-.59-.31-.89a.474.474,0,1,0-.9.3c.1.31.2.61.31.91Zm1.19,2.96a.477.477,0,1,0,.87-.39c-.13-.28-.25-.56-.38-.85a.473.473,0,0,0-.87.37c.13.29.25.58.38.87Zm1.48,2.83a.475.475,0,0,0,.82-.48c-.16-.26-.31-.53-.46-.81a.479.479,0,1,0-.84.46c.16.28.32.56.48.83Zm1.8,2.65a.477.477,0,1,0,.75-.59c-.19-.24-.37-.49-.55-.74a.473.473,0,1,0-.77.55,9.2,9.2,0,0,0,.57.78Zm2.17,2.37a.474.474,0,0,0,.65-.69c-.22-.21-.44-.42-.66-.64a.474.474,0,0,0-.68.66c.22.23.45.46.69.67Zm2.53,1.99a.477.477,0,0,0,.52-.8c-.26-.17-.51-.34-.76-.52a.472.472,0,0,0-.56.76c.27.2.53.38.8.56Zm2.85,1.5a.473.473,0,1,0,.37-.87c-.28-.12-.56-.25-.84-.38a.479.479,0,1,0-.42.86c.3.13.59.27.89.39Zm3.06,1a.473.473,0,0,0,.22-.92c-.3-.07-.6-.15-.89-.24a.475.475,0,0,0-.27.91c.31.09.62.18.94.25Zm3.69.12a.466.466,0,0,0-.42-.52c-.31-.03-.62-.07-.92-.11a.475.475,0,1,0-.14.94c.32.05.64.08.96.12A.487.487,0,0,0,40,249.53Zm2.67.58a.475.475,0,1,0-.01-.95c-.31,0-.62,0-.93-.01a.475.475,0,0,0-.03.95c.33.01.65.01.97.01Zm3.19-.14a.465.465,0,0,0,.43-.51.47.47,0,0,0-.51-.43c-.31.03-.62.05-.93.07a.476.476,0,1,0,.05.95c.32-.03.64-.05.96-.08Zm3.57-.91a.474.474,0,0,0-.54-.4c-.31.05-.62.09-.93.13a.474.474,0,0,0,.12.94c.31-.04.63-.08.95-.13A.482.482,0,0,0,49.43,249.06Zm3.11-.56a.478.478,0,0,0-.56-.38c-.31.06-.62.12-.93.17a.473.473,0,0,0,.17.93c.31-.06.62-.12.94-.18A.449.449,0,0,0,52.54,248.5Zm3.08-.67a.472.472,0,0,0-.57-.36l-.92.21a.477.477,0,0,0,.21.93l.93-.21A.473.473,0,0,0,55.62,247.83Zm2.72-.18a.475.475,0,1,0-.24-.92c-.31.08-.61.15-.92.23a.479.479,0,0,0,.23.93q.48-.12.93-.24Zm3.4-1.39a.473.473,0,0,0-.58-.33c-.3.08-.61.16-.91.25a.475.475,0,1,0,.24.92c.31-.08.61-.16.92-.25A.479.479,0,0,0,61.74,246.26Zm2.72-.25a.478.478,0,1,0-.26-.92c-.3.08-.61.17-.91.25a.478.478,0,1,0,.26.92c.3-.08.6-.17.91-.25Zm3.04-.85a.478.478,0,1,0-.26-.92c-.31.09-.61.17-.92.26a.478.478,0,0,0,.26.92c.31-.09.62-.18.92-.26Zm3.05-.84a.472.472,0,0,0-.25-.91c-.31.08-.61.17-.92.25a.472.472,0,0,0,.25.91c.31-.09.61-.17.92-.25Zm3.04-.81a.475.475,0,0,0-.24-.92l-.92.24a.475.475,0,1,0,.24.92c.31-.08.62-.16.92-.24Zm3.06-.75a.473.473,0,0,0-.22-.92c-.31.07-.62.15-.93.22a.471.471,0,0,0-.35.57.478.478,0,0,0,.57.35c.32-.08.62-.15.93-.22Zm3.07-.67a.475.475,0,1,0-.19-.93c-.31.06-.62.13-.93.19a.475.475,0,1,0,.19.93c.31-.07.62-.13.93-.19Zm3.09-.57a.477.477,0,1,0-.16-.94c-.31.05-.63.1-.94.16a.477.477,0,0,0,.16.94c.32-.05.63-.11.94-.16Zm3.1-.42a.473.473,0,0,0-.1-.94c-.32.03-.63.07-.95.11a.474.474,0,0,0,.12.94c.31-.04.62-.07.93-.11Zm3.12-.23a.48.48,0,0,0-.04-.96c-.32.01-.64.03-.96.05a.471.471,0,1,0,.06.94c.32,0,.63-.02.94-.03Zm3.11-.01a.475.475,0,0,0,.03-.95l-.96-.03a.475.475,0,1,0-.01.95l.94.03Zm3.12.24a.473.473,0,0,0,.1-.94c-.31-.03-.63-.07-.95-.09a.477.477,0,1,0-.09.95c.32.02.63.05.94.08Zm3.09.44a.473.473,0,0,0,.17-.93c-.31-.06-.62-.11-.94-.16a.475.475,0,1,0-.14.94c.3.05.6.1.91.15Zm3.62.34a.471.471,0,0,0-.34-.58c-.3-.08-.61-.16-.93-.23a.473.473,0,0,0-.22.92c.31.07.61.15.91.23A.488.488,0,0,0,101.97,241.88Zm2.38,1.28a.475.475,0,0,0,.33-.89c-.3-.11-.6-.22-.91-.32a.474.474,0,0,0-.3.9c.3.09.59.2.88.31Zm2.82,1.26a.474.474,0,0,0,.44-.84c-.28-.15-.57-.29-.86-.43a.474.474,0,1,0-.4.86c.28.13.55.27.82.41Zm2.62,1.62a.472.472,0,0,0,.56-.76c-.26-.19-.52-.37-.8-.55a.477.477,0,1,0-.52.8,8.389,8.389,0,0,1,.76.51Zm2.33,2.01a.474.474,0,0,0,.68-.66c-.22-.23-.46-.45-.7-.68a.474.474,0,0,0-.64.7c.23.2.45.42.66.64Zm1.94,2.37a.476.476,0,1,0,.79-.53c-.18-.27-.37-.53-.57-.79a.478.478,0,1,0-.76.58c.19.24.37.49.54.74Zm2.11,2.92a.476.476,0,0,0,.24-.63c-.13-.29-.27-.59-.42-.88a.476.476,0,1,0-.85.43c.14.28.27.55.4.83A.472.472,0,0,0,116.17,253.34Zm.39,2.67a.475.475,0,0,0,.92-.24q-.12-.465-.27-.93a.478.478,0,1,0-.91.29c.1.28.18.58.26.88Zm.58,3.03a.474.474,0,0,0,.94-.12c-.04-.32-.08-.64-.13-.96a.477.477,0,1,0-.94.16c.05.31.09.61.13.92Zm.66,3.57a.466.466,0,0,0,.47-.48c0-.32-.01-.64-.02-.96a.475.475,0,0,0-.95.03c.01.31.02.62.02.93A.487.487,0,0,0,117.8,262.61Zm-.62,2.63a.477.477,0,0,0,.95.09c.03-.31.06-.63.08-.96a.476.476,0,1,0-.95-.07c-.03.32-.05.63-.08.94Zm-.06,3.64a.463.463,0,0,0,.55-.38c.06-.31.11-.62.16-.95a.477.477,0,1,0-.94-.16c-.05.32-.1.62-.16.92A.5.5,0,0,0,117.12,268.88Zm-1.08,2.48a.472.472,0,0,0,.91.25q.12-.435.24-.93a.479.479,0,0,0-.93-.23c-.06.33-.14.63-.22.91Z" transform="translate(-5.53 -196.66)" fill="#7c3eff"/>
        <g id="Grupo_1095026" data-name="Grupo 1095026">
          <path id="Trazado_836908" data-name="Trazado 836908" d="M17.2,217.76l7.4-21.1-1.06,24.52Z" transform="translate(-5.53 -196.66)" fill="#d1bbff"/>
          <path id="Trazado_836909" data-name="Trazado 836909" d="M23.54,221.18l-3.13-4.11,4.19-20.41Z" transform="translate(-5.53 -196.66)" fill="#7c3eff"/>
          <path id="Trazado_836910" data-name="Trazado 836910" d="M24.6,196.66,5.53,220.15l11.67-2.39Z" transform="translate(-5.53 -196.66)" fill="#7c3eff"/>
          <path id="Trazado_836911" data-name="Trazado 836911" d="M24.6,196.66l-.12.83-.07.56-4,19.02,13.8,2.72Z" transform="translate(-5.53 -196.66)" fill="#7c3eff"/>
        </g>
      </g>
      <g id="Grupo_1095034" data-name="Grupo 1095034" transform="translate(399.358 71.55)">
        <g id="Grupo_1095028" data-name="Grupo 1095028" transform="translate(23.389 26.009)">
          <path id="Trazado_836912" data-name="Trazado 836912" d="M444.51,117.35s-4.85-5.36-14.44-2.54c-5.25,1.54,2.5,7.12,4.53,7.19S448.24,122.21,444.51,117.35Z" transform="translate(-428.277 -106.129)" fill="#ffbaa1"/>
          <path id="Trazado_836913" data-name="Trazado 836913" d="M434.96,118.65l.3.11a4.327,4.327,0,0,0,5.57-2.62l1.44-3.98a4.437,4.437,0,0,0-2.58-5.65l-.3-.11a4.327,4.327,0,0,0-5.57,2.62l-1.77,4.94C431.48,115.66,432.72,117.82,434.96,118.65Z" transform="translate(-428.277 -106.129)" fill="#ffbaa1"/>
          <path id="Trazado_836914" data-name="Trazado 836914" d="M434.07,107.38s2,5.44,5.49,6.74l-.86,2.36,6.47,1.9a8.3,8.3,0,0,0-4-3.19l1.22-3.37Z" transform="translate(-428.277 -106.129)" fill="#e27a61"/>
        </g>
        <g id="Grupo_1095030" data-name="Grupo 1095030" transform="translate(25.976)">
          <path id="Trazado_836915" data-name="Trazado 836915" d="M452.66,90.68s4.23,4.62-2.6,13.19l-3.82-10.21Z" transform="translate(-430.864 -80.12)" fill="#511f1f"/>
          <path id="Trazado_836916" data-name="Trazado 836916" d="M444.22,88.45h0a9,9,0,0,1,7.27,10.34l-.97,5.9a8.884,8.884,0,0,1-10.19,7.37h0a9,9,0,0,1-7.27-10.34l.97-5.9A8.879,8.879,0,0,1,444.22,88.45Z" transform="translate(-430.864 -80.12)" fill="#ffbaa1"/>
          <path id="Trazado_836917" data-name="Trazado 836917" d="M435.39,102.22c-.04.87.91,1.61,2.11,1.66s2.2-.61,2.23-1.48-.91-1.61-2.11-1.66S435.42,101.36,435.39,102.22Z" transform="translate(-430.864 -80.12)" fill="#f89f83"/>
          <path id="Trazado_836918" data-name="Trazado 836918" d="M446.07,103.47c-.3.82.38,1.82,1.5,2.24a1.92,1.92,0,0,0,2.57-.72c.3-.82-.38-1.82-1.5-2.24A1.92,1.92,0,0,0,446.07,103.47Z" transform="translate(-430.864 -80.12)" fill="#f89f83"/>
          <path id="Trazado_836919" data-name="Trazado 836919" d="M450.12,95.93s.93,12.77-5.21,15.67c0,0,3.82-.35,5.22-5.4s2.53-9.99.59-12.81l-14.27.13S444.76,97.96,450.12,95.93Z" transform="translate(-430.864 -80.12)" fill="#e27a61"/>
          <path id="Trazado_836920" data-name="Trazado 836920" d="M451.28,81.64c.44.48,4.49,6.54.08,11.15s-10.45,2.36-12.87,1.46-2.26.55-2.7,1.78-.73,3.9-1.77,4.9a3.041,3.041,0,0,0-1.09,1.81s-1.93-2.94-1.87-5-1.48-9.37,3.33-9.19c0,0,.41-3.26,2.67-3.81s9.35,2.84,11.06,0,.97-4.62.97-4.62A6.582,6.582,0,0,1,451.28,81.64Z" transform="translate(-430.864 -80.12)" fill="#843636"/>
          <path id="Trazado_836921" data-name="Trazado 836921" d="M434.38,88.55s.42-3.26,2.67-3.81c1.22-.3,3.85.55,6.28.95-1.28-.18-5.55-.65-6.93,1.03-1.63,1.98-1.3,2.97-1.3,2.97a2.456,2.456,0,0,0-2.87.99c-1.03,1.65.27,7.59.27,7.59l-.42,2.97a8.11,8.11,0,0,1-1.02-3.5C431.11,95.68,429.57,88.37,434.38,88.55Z" transform="translate(-430.864 -80.12)" fill="#511f1f"/>
          <path id="Trazado_836922" data-name="Trazado 836922" d="M435.02,99.3s.53-1.46-1.63-2.26-2.16,5.98-.01,6.78Z" transform="translate(-430.864 -80.12)" fill="#ffbaa1"/>
          <path id="Trazado_836923" data-name="Trazado 836923" d="M443.31,97.53s-4.22-.81-6.52,1.39a31.293,31.293,0,0,1,6.04-.04Z" transform="translate(-430.864 -80.12)" fill="#843636"/>
          <path id="Trazado_836924" data-name="Trazado 836924" d="M447.04,98.15l-.49,1.35s3.56.56,4.64,1.73C451.19,101.23,451.26,98.96,447.04,98.15Z" transform="translate(-430.864 -80.12)" fill="#843636"/>
          <path id="Trazado_836925" data-name="Trazado 836925" d="M442.34,100.22a1.877,1.877,0,0,0-.83-.72,2.334,2.334,0,0,0-2.97.83c.37-.07.68-.17.99-.23a4.808,4.808,0,0,1,.91-.11A6.605,6.605,0,0,1,442.34,100.22Z" transform="translate(-430.864 -80.12)" fill="#511f1f"/>
          <path id="Trazado_836926" data-name="Trazado 836926" d="M450.13,102.29a1.937,1.937,0,0,0-.53-.97,2.369,2.369,0,0,0-.95-.6,2.283,2.283,0,0,0-2.12.34c.37.06.7.07,1.01.13a5.028,5.028,0,0,1,.89.21A6.974,6.974,0,0,1,450.13,102.29Z" transform="translate(-430.864 -80.12)" fill="#511f1f"/>
          <g id="Grupo_1095029" data-name="Grupo 1095029" transform="translate(8.196 24.43)">
            <path id="Trazado_836927" data-name="Trazado 836927" d="M444.46,107.9l-5.4-3.35a4.329,4.329,0,0,0,1.47,3.23C442.07,109.02,444.46,107.9,444.46,107.9Z" transform="translate(-439.06 -104.55)" fill="#ff5a61"/>
            <path id="Trazado_836928" data-name="Trazado 836928" d="M439.19,105.57a4.388,4.388,0,0,1-.13-1.02l5.01,3.11a2.9,2.9,0,0,1-2.16-.04A7.382,7.382,0,0,1,439.19,105.57Z" transform="translate(-439.06 -104.55)" fill="#fff"/>
          </g>
        </g>
        <path id="Trazado_836929" data-name="Trazado 836929" d="M450.39,82.11s4.33,6.66-2.06,10.59C448.32,92.69,451.36,90.02,450.39,82.11Z" transform="translate(-404.888 -80.12)" fill="#fff"/>
        <path id="Trazado_836930" data-name="Trazado 836930" d="M434.12,89.69a2.339,2.339,0,0,0-2.28,1.98,16.348,16.348,0,0,0,.33,4.95S432.17,90.35,434.12,89.69Z" transform="translate(-404.888 -80.12)" fill="#fff"/>
        <path id="Trazado_836931" data-name="Trazado 836931" d="M450.38,117.07s7.33,1.13,13.34,22.76l-7.81,3.3-7.48-12.53Z" transform="translate(-404.888 -80.12)" fill="#6e40fc"/>
        <path id="Trazado_836932" data-name="Trazado 836932" d="M451.69,119.71l.25,3.23s-1.73,15.4-1.73,19.77-.69,7.87-.52,9.8a30.554,30.554,0,0,0,.52,3.5s-1.38,3.5-12.08,2.8-12.52-1.56-12.52-1.56l-2.84-23.46-7.08,10.64-10.15,1.97s7.9-23.69,16.23-28.67c2.88-1.72,8.46-2.97,8.46-2.97s1.06,8.11,9.76,6.27c7.42-1.57,2.23-5.37,2.23-5.37l8.46,1.41Z" transform="translate(-404.888 -80.12)" fill="#6e40fc"/>
        <path id="Trazado_836933" data-name="Trazado 836933" d="M438.34,123.73a10.457,10.457,0,0,0,5.63-1.61.283.283,0,1,0-.3-.48,10.815,10.815,0,0,1-10,.54c-2.06-.89-3.65-2.32-3.89-3.48a.28.28,0,1,0-.55.11c.27,1.35,1.96,2.92,4.21,3.89A12.634,12.634,0,0,0,438.34,123.73Z" transform="translate(-404.888 -80.12)" fill="#48219b"/>
        <path id="Trazado_836934" data-name="Trazado 836934" d="M404.91,146.93c-.3,3.32,2.51,6.28,6.27,6.62s7.04-2.08,7.34-5.4-2.51-6.28-6.27-6.62S405.21,143.61,404.91,146.93Z" transform="translate(-404.888 -80.12)" fill="#d1bbff"/>
        <path id="Trazado_836935" data-name="Trazado 836935" d="M409.34,144.02s3.56-2.17,11.59,4.02,11.88,6.5,11.88,6.5l-.89,2.79s-22-1.96-24.31-7.85A4.231,4.231,0,0,1,409.34,144.02Z" transform="translate(-404.888 -80.12)" fill="#ffbaa1"/>
        <path id="Trazado_836936" data-name="Trazado 836936" d="M485.29,141.18a26.575,26.575,0,0,1,4.79,1.46c1.37.73-4.45,15.32-13.69,17.15s-16.09,6.2-23.62,5.11a18.54,18.54,0,0,1-11.64-6.93S456.2,144.1,485.29,141.18Z" transform="translate(-404.888 -80.12)" fill="#283682"/>
        <path id="Trazado_836937" data-name="Trazado 836937" d="M448.67,159.42s21.91,2.55,24.3,10.58,3.08,41.96,4.79,48.16c0,0-3.42,1.46-5.82,0,0,0-9.93-31.74-9.58-40.5,0,0-11.3-4.38-21.22-5.47s-17.55-3.06-15.53-14.95Z" transform="translate(-404.888 -80.12)" fill="#2f3e97"/>
        <path id="Trazado_836938" data-name="Trazado 836938" d="M462.36,177.66s-11.3-4.38-21.22-5.47-17.74-3.31-15.72-15.2l2.18.29.53.23s-3.08,8.47,3.77,10.3,29.44,5.47,30.81,8.03,9.24,42.32,9.24,42.32S462.02,186.42,462.36,177.66Z" transform="translate(-404.888 -80.12)" fill="#283682"/>
        <path id="Trazado_836939" data-name="Trazado 836939" d="M429.95,155.04s6.35-2.12,8.21-2.12,7.15,4.76,7.15,4.76-7.94.26-10.32,0-5.56-.53-6.09-1.32S429.95,155.04,429.95,155.04Z" transform="translate(-404.888 -80.12)" fill="#ffbaa1"/>
        <path id="Trazado_836940" data-name="Trazado 836940" d="M437.4,158.95h29.92l12.19-19.78a.867.867,0,0,0-.72-1.33H450.88a.83.83,0,0,0-.72.41Z" transform="translate(-404.888 -80.12)" fill="#5765b5"/>
        <path id="Trazado_836941" data-name="Trazado 836941" d="M428.3,158.95h27.97a.657.657,0,0,0,.65-.66v-.33a.657.657,0,0,0-.65-.66H428.3a.657.657,0,0,0-.65.66v.33A.651.651,0,0,0,428.3,158.95Z" transform="translate(-404.888 -80.12)" fill="#5765b5"/>
        <g id="Grupo_1095031" data-name="Grupo 1095031" transform="translate(37.974 104.19)">
          <path id="Trazado_836942" data-name="Trazado 836942" d="M454.96,184.31l4.52,4.1a13.273,13.273,0,0,0-3.48,6.42,14.136,14.136,0,0,0-.38,2.83,25.443,25.443,0,0,1-.56,5.42,14.351,14.351,0,0,0-3.45-3.44s-4.83-4.49-7.59-7.14Z" transform="translate(-442.862 -184.31)" fill="#ff5475"/>
          <path id="Trazado_836943" data-name="Trazado 836943" d="M455.06,203.09s2.62-4.11-2.89-8.73-8.15-1.85-8.15-1.85Z" transform="translate(-442.862 -184.31)" fill="#fff"/>
          <path id="Trazado_836944" data-name="Trazado 836944" d="M443.22,193.64l10.74,10.29a1.156,1.156,0,0,0,1.64-.04h0a1.156,1.156,0,0,0-.04-1.64l-10.74-10.29a1.156,1.156,0,0,0-1.64.04h0A1.165,1.165,0,0,0,443.22,193.64Z" transform="translate(-442.862 -184.31)" fill="#fff"/>
          <path id="Trazado_836945" data-name="Trazado 836945" d="M456.81,190.49a.267.267,0,0,0,.2-.09.284.284,0,0,0-.01-.4l-2.76-2.65a.283.283,0,1,0-.39.41l2.76,2.65A.317.317,0,0,0,456.81,190.49Z" transform="translate(-442.862 -184.31)" fill="#fff"/>
          <path id="Trazado_836946" data-name="Trazado 836946" d="M455.82,191.52a.267.267,0,0,0,.2-.09.284.284,0,0,0-.01-.4l-2.76-2.65a.283.283,0,1,0-.39.41l2.76,2.65A.271.271,0,0,0,455.82,191.52Z" transform="translate(-442.862 -184.31)" fill="#fff"/>
          <path id="Trazado_836947" data-name="Trazado 836947" d="M454.83,192.56a.267.267,0,0,0,.2-.09.284.284,0,0,0-.01-.4l-2.76-2.65a.283.283,0,1,0-.39.41l2.76,2.65A.318.318,0,0,0,454.83,192.56Z" transform="translate(-442.862 -184.31)" fill="#fff"/>
        </g>
        <path id="Trazado_836948" data-name="Trazado 836948" d="M490.04,142.64c2.26,1.48,3.04,7.66-7.78,21.89a225.83,225.83,0,0,1-24.02,26.27l-4.74-5.47s10.02-12.65,16.24-23.35S480.57,136.44,490.04,142.64Z" transform="translate(-404.888 -80.12)" fill="#3747a3"/>
        <path id="Trazado_836949" data-name="Trazado 836949" d="M424.69,130.92l.03,18.86-1.98-15.89,1.13-1.59Z" transform="translate(-404.888 -80.12)" fill="#48219b"/>
        <g id="Grupo_1095033" data-name="Grupo 1095033" transform="translate(63.871 135.82)">
          <g id="Grupo_1095032" data-name="Grupo 1095032" transform="translate(0 0)">
            <path id="Trazado_836950" data-name="Trazado 836950" d="M477.26,215.94s6.71,8.07,12.07,8.31,7.34,4.08,6.78,4.6l-26.27-1.16s-1.7-2.94,2.01-11.55Z" transform="translate(-468.759 -215.94)" fill="#ff5475"/>
            <path id="Trazado_836951" data-name="Trazado 836951" d="M469.5,228.74l26.87,1.19a.773.773,0,0,0,.81-.74v-.06a.773.773,0,0,0-.74-.81l-26.87-1.19a.773.773,0,0,0-.81.74v.06A.767.767,0,0,0,469.5,228.74Z" transform="translate(-468.759 -215.94)" fill="#fff"/>
          </g>
          <path id="Trazado_836952" data-name="Trazado 836952" d="M489.04,224.23l-.06,4.43,7.34.46s.61-2.92-3.07-4.13C489.8,223.85,489.04,224.23,489.04,224.23Z" transform="translate(-468.759 -215.94)" fill="#fff"/>
        </g>
        <path id="Trazado_836953" data-name="Trazado 836953" d="M478.87,219.93h3.57a.28.28,0,0,0,.28-.28.286.286,0,0,0-.28-.28h-3.57a.28.28,0,1,0,0,.56Z" transform="translate(-404.888 -80.12)" fill="#fff"/>
        <path id="Trazado_836954" data-name="Trazado 836954" d="M479.76,221.27h3.57a.28.28,0,0,0,.28-.28.286.286,0,0,0-.28-.28h-3.57a.28.28,0,0,0-.28.28A.286.286,0,0,0,479.76,221.27Z" transform="translate(-404.888 -80.12)" fill="#fff"/>
        <path id="Trazado_836955" data-name="Trazado 836955" d="M481.1,222.61h3.57a.28.28,0,1,0,0-.56H481.1a.28.28,0,0,0-.28.28A.286.286,0,0,0,481.1,222.61Z" transform="translate(-404.888 -80.12)" fill="#fff"/>
      </g>
      <g id="Grupo_1095043" data-name="Grupo 1095043" transform="translate(78.179 40.247)">
        <g id="Grupo_1095038" data-name="Grupo 1095038" transform="translate(14.761 138.973)">
          <path id="Trazado_836956" data-name="Trazado 836956" d="M111.98,202.51s-1.5-.15-5.14-2.09a33.945,33.945,0,0,1-7.59-5.74c-.22-.21-.78-.94-.78-.94s.45-.38,1.22-1.09a55.54,55.54,0,0,0,7.42,5.81,17.4,17.4,0,0,0,5.53,2.47Z" transform="translate(-98.47 -187.79)" fill="#ff5475"/>
          <path id="Trazado_836957" data-name="Trazado 836957" d="M105.68,189.38a25.632,25.632,0,0,1,.52,3.8c.08,1.59.25,2.16,2.03,3.44,1.62,1.17,3.81,1.13,4.31,3.03.31,1.18-.06,1.59-.06,1.59s-2.74.19-6.6-2.73c-3.8-2.87-5.43-3.89-6.49-5.55a16.218,16.218,0,0,1,3.35-5.17Z" transform="translate(-98.47 -187.79)" fill="#f53b5f"/>
          <g id="Grupo_1095035" data-name="Grupo 1095035" transform="translate(6.728 3.188)">
            <path id="Trazado_836958" data-name="Trazado 836958" d="M107.07,192.62a.407.407,0,0,1-.18-.05l-1.53-.96a.341.341,0,1,1,.36-.58l1.53.96a.341.341,0,0,1,.11.47A.362.362,0,0,1,107.07,192.62Z" transform="translate(-105.198 -190.978)" fill="#fff"/>
          </g>
          <g id="Grupo_1095036" data-name="Grupo 1095036" transform="translate(6.548 4.228)">
            <path id="Trazado_836959" data-name="Trazado 836959" d="M106.89,193.66a.407.407,0,0,1-.18-.05l-1.53-.96a.341.341,0,1,1,.36-.58l1.53.96a.341.341,0,0,1,.11.47A.362.362,0,0,1,106.89,193.66Z" transform="translate(-105.018 -192.018)" fill="#fff"/>
          </g>
          <g id="Grupo_1095037" data-name="Grupo 1095037" transform="translate(6.368 5.258)">
            <path id="Trazado_836960" data-name="Trazado 836960" d="M106.71,194.69a.407.407,0,0,1-.18-.05l-1.53-.96a.341.341,0,1,1,.36-.58l1.53.96a.341.341,0,0,1,.11.47A.337.337,0,0,1,106.71,194.69Z" transform="translate(-104.838 -193.048)" fill="#fff"/>
          </g>
        </g>
        <path id="Trazado_836961" data-name="Trazado 836961" d="M105.72,123.18s14.08,10.44,22.57,31.36c0,0-.75,4.86-10.18,12.8s-12.2,22.26-12.2,22.26l-3.07-1.78s4.02-25.56,15.75-33.51c0,0,0-.77-2.56-2.29s-9.94-5.63-14.04-10.73Z" transform="translate(-83.709 -48.817)" fill="#5478ff"/>
        <path id="Trazado_836962" data-name="Trazado 836962" d="M107.35,112.94l-14.05-.51s-4.85,8.94-5.88,11.75,2.55,5.88,2.55,5.88c-2.3,3.58,3.07,24.01,3.07,24.01s-.51,3.83-1.02,11.75,6.39,29.38,6.39,29.38c1.53,2.04,4.09.51,4.09.51-1.02-3.07-2.16-38.68-1.28-41.13,3.32-9.2,4.6-25.29,4.6-25.29,2.26-4.72,2.55-11.75,2.55-11.75A25.933,25.933,0,0,0,107.35,112.94Z" transform="translate(-83.709 -48.817)" fill="#6d8cff"/>
        <path id="Trazado_836963" data-name="Trazado 836963" d="M91.38,116.03c1.07-2.03,1.92-3.6,1.92-3.6l14.05.51a5.261,5.261,0,0,1,.33.98,4.523,4.523,0,0,1-4.87,2.08C95.09,114.82,93.69,116.05,91.38,116.03Z" transform="translate(-83.709 -48.817)" fill="#5478ff"/>
        <path id="Trazado_836964" data-name="Trazado 836964" d="M134.36,108.78s2.79,1.61,4.34,1.54,4.98-3.41,5.41-4.23c1.01-1.94.24-2.65.24-2.65s-4.72,1.34-6.49,1.12-3.42,2.16-3.42,2.16Z" transform="translate(-83.709 -48.817)" fill="#ffac9e"/>
        <path id="Trazado_836965" data-name="Trazado 836965" d="M100.71,81.26,118.08,104l16.86,1.79.25,2.81-19.92,2.29-10.42-10.81Z" transform="translate(-83.709 -48.817)" fill="#ffac9e"/>
        <path id="Trazado_836966" data-name="Trazado 836966" d="M102.75,79.98s4.53,7.41,8.69,10.73,2.42,9.45-1.5,9.71c0,0,1.96,14.82-6.36,13.54s-9.3.26-11.99,0-4.4-7.41-3.91-12.01-.49-22.74,2.2-23.76S97.86,74.87,102.75,79.98Z" transform="translate(-83.709 -48.817)" fill="#d6dfff"/>
        <path id="Trazado_836967" data-name="Trazado 836967" d="M105.05,82.79s-5.14-.7-7.42-3.67S91,76.66,91,76.66a6.591,6.591,0,0,1,4.6-1.28C98.41,75.64,100.5,76.51,105.05,82.79Z" transform="translate(-83.709 -48.817)" fill="#ffbdb3"/>
        <path id="Trazado_836968" data-name="Trazado 836968" d="M87.93,101.95c.23-2.14.14-7.19.25-12.1,1.33-5.65,2.64-10.72,5.63-11.15,3.58-.51,4.6,4.02,4.6,5.88,0,5.11-2.04,8.69,1.02,12.26,2.26,2.64,4.97,7.58-1.53,6.13-2.3-.51-3.32,1.79-8.43,3.83a9.286,9.286,0,0,1-1.31.42A19.769,19.769,0,0,1,87.93,101.95Z" transform="translate(-83.709 -48.817)" fill="#abbdff"/>
        <path id="Trazado_836969" data-name="Trazado 836969" d="M113.22,98.12s-3.52,2.72-6.8.2c0,0,4.04,6.56-.86,15.64,0,0,3.63,0,4.46-6.9.18-1.54.19-6.22.19-6.22A5.59,5.59,0,0,0,113.22,98.12Z" transform="translate(-83.709 -48.817)" fill="#abbdff"/>
        <path id="Trazado_836970" data-name="Trazado 836970" d="M134.21,113.21l.46.38a.884.884,0,0,0,1.23-.13l14.62-18.03a.884.884,0,0,0-.13-1.23l-.46-.38a.884.884,0,0,0-1.23.13l-14.62,18.03A.883.883,0,0,0,134.21,113.21Z" transform="translate(-83.709 -48.817)" fill="#434f97"/>
        <path id="Trazado_836971" data-name="Trazado 836971" d="M111.22,112.53v.6a.879.879,0,0,0,.88.87l23.21-.11a.879.879,0,0,0,.87-.88v-.6a.879.879,0,0,0-.88-.87l-23.21.11A.892.892,0,0,0,111.22,112.53Z" transform="translate(-83.709 -48.817)" fill="#434f97"/>
        <path id="Trazado_836972" data-name="Trazado 836972" d="M92.27,98.38s17.37,10.73,21.97,13.03l-.77,2.81s-14.82-2.3-21.97-6.64S92.27,98.38,92.27,98.38Z" transform="translate(-83.709 -48.817)" fill="#ffbdb3"/>
        <path id="Trazado_836973" data-name="Trazado 836973" d="M98.41,82.03c0-1.85-2.04-6.64-6.64-5.36-4.46,1.24-3.07,9.45-4.6,15.58s-4.09,7.66-3.32,9.71.26,6.13,5.36,4.09,6.13-4.34,8.43-3.83,4.09-1.28,1.02-4.85C95.6,93.78,98.41,87.14,98.41,82.03Z" transform="translate(-83.709 -48.817)" fill="#d6dfff"/>
        <path id="Trazado_836974" data-name="Trazado 836974" d="M113.99,111.15a7.155,7.155,0,0,1,3.16-1.31,6.056,6.056,0,0,0,4.11-1.44s1.08-.68,1.05.13a3.652,3.652,0,0,1-1.72,2.35c-.66.29-1.56.5-1.89.64a1.258,1.258,0,0,0-.51.62s2.59,1.81,3.73,1.7,5.72-1.37,6.2-1.18.2.9-.79,1.34c0,0-1.5,1.07-2.35,1.84a5.857,5.857,0,0,1-5.57,1.7,24.721,24.721,0,0,1-6.31-3.51Z" transform="translate(-83.709 -48.817)" fill="#ffbdb3"/>
        <path id="Trazado_836975" data-name="Trazado 836975" d="M98.41,194.95s-6.9-21.2-6.39-29.12,1.02-11.75,1.02-11.75-5.36-20.44-3.07-24.01c0,0-3.22-2.76-2.67-5.45.02.12.96,4.94,7.02,5.19,0,0-3.58.77-3.83,4.09s3.83,20.18,3.83,20.18-1.79,7.92-1.53,12.26S98.41,194.95,98.41,194.95Z" transform="translate(-83.709 -48.817)" fill="#5478ff"/>
        <path id="Trazado_836976" data-name="Trazado 836976" d="M134.68,107.45a5.043,5.043,0,0,0,3.91-2.55c.99-1.81,1.95-.77,3.12-2.18s.98-1.95.16-1.54-3.2.9-3.8,1.6-3.07,1.94-3.44,2.93A2.2,2.2,0,0,0,134.68,107.45Z" transform="translate(-83.709 -48.817)" fill="#ffac9e"/>
        <path id="Trazado_836977" data-name="Trazado 836977" d="M95.12,76.22h0a3.416,3.416,0,0,0,4.19-2.38l1.24-5.06a3.422,3.422,0,0,0-2.61-4.05h0a3.416,3.416,0,0,0-4.19,2.38l-1.24,5.06A3.415,3.415,0,0,0,95.12,76.22Z" transform="translate(-83.709 -48.817)" fill="#ffbdb3"/>
        <path id="Trazado_836978" data-name="Trazado 836978" d="M100.07,71.01l-4.66-2.18s1.72,2.98,3,3.49l.26,3.83Z" transform="translate(-83.709 -48.817)" fill="#e07972"/>
        <path id="Trazado_836979" data-name="Trazado 836979" d="M107.07,55.95s1.81,12.25-3.85,16.33c0,0-2.41.31-7.28-2.57-4.02-2.37-4.43-12.77-2.8-14.02S105.08,47.36,107.07,55.95Z" transform="translate(-83.709 -48.817)" fill="#ffbdb3"/>
        <path id="Trazado_836980" data-name="Trazado 836980" d="M107.09,56.73a4.5,4.5,0,0,1-3.32,3.07c-2.81.77-4.09,1.28-4.34,2.04a1.625,1.625,0,0,1-.26-1.53c.26-1.02.26-2.3.77-2.55,0,0-3.52,2.56-4.19,5.37,0,0,.61-4.58,4.19-6.64a48.837,48.837,0,0,1,6.39-3.12A12,12,0,0,1,107.09,56.73Z" transform="translate(-83.709 -48.817)" fill="#e07972"/>
        <path id="Trazado_836981" data-name="Trazado 836981" d="M102.68,50.95s6.45-2.14,6.96,5.75a7.617,7.617,0,0,1-1.28,3.87s.79-1.62-1.53-5.36c0,0,.94,2.47-3.64,3.25-4.39.75-4.39,3.75-4.39,3.75a5.618,5.618,0,0,1,.52-4.25,10.612,10.612,0,0,0,1.03-3.5s1.29,2-1.55,3.5c-2.9,1.53-5.16,10.75-2.58,13.75s4.9,1.5,6.45,5c1.32,2.99-.52,4-.77,8s2.32,5.25,2.32,5.25-4.91-.3-5.93-7.25c-1.03-7-7.04-4.67-7.91-3.71s-1.9,2.96-2.15,9.96c0,0,.11-1.31-1.55-4.25-1.55-2.75-3.35-5,.26-12.25,3.28-6.59-2.06-17,3.61-21.5C94.27,48.01,99.59,48.2,102.68,50.95Z" transform="translate(-83.709 -48.817)" fill="#283682"/>
        <path id="Trazado_836982" data-name="Trazado 836982" d="M95.8,64.24s-1.9-2.26-2.92-.35,2.41,3.96,3.18,3.85Z" transform="translate(-83.709 -48.817)" fill="#ffbdb3"/>
        <path id="Trazado_836983" data-name="Trazado 836983" d="M102.49,195.46a20.945,20.945,0,0,0,3.32,4.34c1.06.88,4.09.26,6.13.77a3.418,3.418,0,0,1,2.3,2.04,54.6,54.6,0,0,1-10.22,0,42.829,42.829,0,0,0-7.66-.26,35.426,35.426,0,0,1,2.04-7.15Z" transform="translate(-83.709 -48.817)" fill="#ff5475"/>
        <g id="Grupo_1095039" data-name="Grupo 1095039" transform="translate(18.441 147.833)">
          <path id="Trazado_836984" data-name="Trazado 836984" d="M104.28,197.33h-1.79a.34.34,0,0,1,0-.68h1.79a.34.34,0,0,1,0,.68Z" transform="translate(-102.15 -196.65)" fill="#fff"/>
        </g>
        <g id="Grupo_1095040" data-name="Grupo 1095040" transform="translate(18.951 148.853)">
          <path id="Trazado_836985" data-name="Trazado 836985" d="M104.79,198.35H103a.34.34,0,0,1,0-.68h1.79a.34.34,0,1,1,0,.68Z" transform="translate(-102.66 -197.67)" fill="#fff"/>
        </g>
        <g id="Grupo_1095041" data-name="Grupo 1095041" transform="translate(19.461 149.883)">
          <path id="Trazado_836986" data-name="Trazado 836986" d="M105.3,199.38h-1.79a.34.34,0,0,1,0-.68h1.79a.34.34,0,1,1,0,.68Z" transform="translate(-103.17 -198.7)" fill="#fff"/>
        </g>
        <path id="Trazado_836987" data-name="Trazado 836987" d="M114.25,203.38v-.77a72.278,72.278,0,0,1-7.66,0c-2.04-.26-8.43-.51-9.2-.51a2.457,2.457,0,0,0-1.03.14l.01.88C96.36,203.12,112.46,204.14,114.25,203.38Z" transform="translate(-83.709 -48.817)" fill="#d6dfff"/>
        <path id="Trazado_836988" data-name="Trazado 836988" d="M96.62,65.06c0,.76.86,1.38,1.92,1.38s1.92-.62,1.92-1.38-.86-1.38-1.92-1.38S96.62,64.29,96.62,65.06Z" transform="translate(-83.709 -48.817)" fill="#ff8686"/>
        <path id="Trazado_836989" data-name="Trazado 836989" d="M105.56,68.13a1.409,1.409,0,0,1-1.49.85,6.785,6.785,0,0,1-2.38-1.41S103.76,67.97,105.56,68.13Z" transform="translate(-83.709 -48.817)" fill="#ff8686"/>
        <path id="Trazado_836990" data-name="Trazado 836990" d="M104.54,69.76a2.634,2.634,0,0,1-2.04-.51s.51,1.02,1.02,1.02A1.318,1.318,0,0,0,104.54,69.76Z" transform="translate(-83.709 -48.817)" fill="#e07972"/>
        <path id="Trazado_836991" data-name="Trazado 836991" d="M107.6,60.87s0,.87-.77.87a1.36,1.36,0,0,0-1.02.29s-.03-.87,1.02-.87C107.6,61.16,107.6,60.87,107.6,60.87Z" transform="translate(-83.709 -48.817)" fill="#283682"/>
        <circle id="Elipse_11099" data-name="Elipse 11099" cx="0.51" cy="0.51" r="0.51" transform="translate(22.621 12.773)" fill="#283682"/>
        <path id="Trazado_836992" data-name="Trazado 836992" d="M102.84,60.87s0,.87-1.16.87a6.322,6.322,0,0,0-1.74.29,2.088,2.088,0,0,1,1.74-.87A1.7,1.7,0,0,0,102.84,60.87Z" transform="translate(-83.709 -48.817)" fill="#283682"/>
        <circle id="Elipse_11100" data-name="Elipse 11100" cx="0.58" cy="0.58" r="0.58" transform="translate(17.391 12.633)" fill="#283682"/>
        <path id="Trazado_836993" data-name="Trazado 836993" d="M103.26,59.54s.26.51-.77.77a8.884,8.884,0,0,0-3.07,1.02C99.43,61.33,99.94,59.54,103.26,59.54Z" transform="translate(-83.709 -48.817)" fill="#283682"/>
        <path id="Trazado_836994" data-name="Trazado 836994" d="M105.81,59.54a.916.916,0,0,0,.51.77,2.06,2.06,0,0,0,1,.22l.02-.62C107.35,59.92,106.33,59.29,105.81,59.54Z" transform="translate(-83.709 -48.817)" fill="#283682"/>
        <path id="Trazado_836995" data-name="Trazado 836995" d="M97.13,50.35s-5.62.26-6.9,4.09-1.02,5.62-1.02,5.62S86.14,49.84,97.13,50.35Z" transform="translate(-83.709 -48.817)" fill="#fff"/>
        <g id="Grupo_1095042" data-name="Grupo 1095042" transform="translate(4.152 19.923)">
          <path id="Trazado_836996" data-name="Trazado 836996" d="M88.09,87.96c-.26-2.99-.53-9.29.6-11.56,1.28-2.55,1.28-7.66,1.28-7.66s.26,6.13,4.85,7.41,4.6,5.11,5.36,8.94a6.466,6.466,0,0,0,3.71,4.81c-1.11-.21-4.74-1.34-5.61-7.2-1.03-7-7.04-4.67-7.91-3.71s-1.89,2.96-2.15,9.94A2.63,2.63,0,0,0,88.09,87.96Z" transform="translate(-87.861 -68.74)" fill="#1b2766"/>
          <path id="Trazado_836997" data-name="Trazado 836997" d="M88.24,88.93v0Z" transform="translate(-87.861 -68.74)" fill="#1b2766"/>
        </g>
      </g>
      <g id="Grupo_1095044" data-name="Grupo 1095044" transform="translate(421.2 243.16)">
        <path id="Trazado_836998" data-name="Trazado 836998" d="M506.23,286.34l-75.21.47a4.121,4.121,0,0,1-4.13-4.08l-.16-26.4a4.121,4.121,0,0,1,4.08-4.13l75.21-.47a4.121,4.121,0,0,1,4.13,4.08l.16,26.4A4.127,4.127,0,0,1,506.23,286.34Z" transform="translate(-426.73 -251.73)" fill="#01c3fd"/>
        <path id="Trazado_836999" data-name="Trazado 836999" d="M435.49,269.81a1.6,1.6,0,0,0,.55,1.05,1.578,1.578,0,0,0,1.12.38l65.06-.4a1.633,1.633,0,0,0,1.12-.39,1.284,1.284,0,0,0-.01-2.1,1.578,1.578,0,0,0-1.12-.38l-65.06.4a1.6,1.6,0,0,0-1.12.4A1.519,1.519,0,0,0,435.49,269.81Z" transform="translate(-426.73 -251.73)" fill="#fff"/>
        <path id="Trazado_837000" data-name="Trazado 837000" d="M435.44,262.14a1.6,1.6,0,0,0,.55,1.05,1.578,1.578,0,0,0,1.12.38l65.06-.4a1.612,1.612,0,0,0,1.66-1.45,1.594,1.594,0,0,0-1.67-1.43l-65.06.4a1.6,1.6,0,0,0-1.12.4A1.563,1.563,0,0,0,435.44,262.14Z" transform="translate(-426.73 -251.73)" fill="#fff"/>
        <path id="Trazado_837001" data-name="Trazado 837001" d="M435.54,277.69c.01.8.46,1.44,1.02,1.44l15.55-.1c.56,0,1-.65,1-1.45s-.46-1.44-1.02-1.43l-15.55.1C435.98,276.24,435.53,276.9,435.54,277.69Z" transform="translate(-426.73 -251.73)" fill="#fff"/>
      </g>
      <g id="Grupo_1095046" data-name="Grupo 1095046" transform="translate(323.273 145.887)">
        <g id="Grupo_1095045" data-name="Grupo 1095045" transform="translate(0 26.906)">
          <path id="Trazado_837002" data-name="Trazado 837002" d="M381.98,343.87a1.6,1.6,0,0,1-1.53-1.12L328.88,183.47a1.613,1.613,0,0,1,3.07-.99l51.57,159.28a1.611,1.611,0,0,1-1.04,2.03A1.8,1.8,0,0,1,381.98,343.87Z" transform="translate(-328.803 -181.363)" fill="#039"/>
          <path id="Trazado_837003" data-name="Trazado 837003" d="M428.98,343.87a1.6,1.6,0,0,1-1.53-1.12L375.88,183.47a1.613,1.613,0,0,1,3.07-.99l51.57,159.28a1.611,1.611,0,0,1-1.04,2.03A1.8,1.8,0,0,1,428.98,343.87Z" transform="translate(-328.803 -181.363)" fill="#039"/>
          <path id="Trazado_837004" data-name="Trazado 837004" d="M381.98,203.36H336.27a1.61,1.61,0,0,1,0-3.22h45.71a1.61,1.61,0,0,1,0,3.22Z" transform="translate(-328.803 -181.363)" fill="#039"/>
          <path id="Trazado_837005" data-name="Trazado 837005" d="M388.15,220.01H342.44a1.61,1.61,0,0,1,0-3.22h45.71a1.61,1.61,0,0,1,0,3.22Z" transform="translate(-328.803 -181.363)" fill="#039"/>
          <path id="Trazado_837006" data-name="Trazado 837006" d="M393.79,235.06H348.08a1.61,1.61,0,0,1,0-3.22h45.71a1.61,1.61,0,0,1,0,3.22Z" transform="translate(-328.803 -181.363)" fill="#039"/>
          <path id="Trazado_837007" data-name="Trazado 837007" d="M397.55,250.1H351.84a1.61,1.61,0,0,1,0-3.22h45.71a1.61,1.61,0,0,1,0,3.22Z" transform="translate(-328.803 -181.363)" fill="#039"/>
          <path id="Trazado_837008" data-name="Trazado 837008" d="M402.39,264.87H356.68a1.61,1.61,0,0,1,0-3.22h45.71a1.61,1.61,0,0,1,0,3.22Z" transform="translate(-328.803 -181.363)" fill="#039"/>
          <path id="Trazado_837009" data-name="Trazado 837009" d="M407.22,280.18H361.51a1.61,1.61,0,1,1,0-3.22h45.71a1.61,1.61,0,1,1,0,3.22Z" transform="translate(-328.803 -181.363)" fill="#039"/>
          <path id="Trazado_837010" data-name="Trazado 837010" d="M413.4,295.49H367.7a1.61,1.61,0,0,1,0-3.22h45.71a1.61,1.61,0,1,1-.01,3.22Z" transform="translate(-328.803 -181.363)" fill="#039"/>
          <path id="Trazado_837011" data-name="Trazado 837011" d="M417.7,311.87H371.99a1.61,1.61,0,0,1,0-3.22H417.7a1.61,1.61,0,0,1,0,3.22Z" transform="translate(-328.803 -181.363)" fill="#039"/>
        </g>
        <path id="Trazado_837012" data-name="Trazado 837012" d="M398.63,197.75s2.15,15.31,3.49,17.46,5.1,7.25,16.12,12.36c0,0,3.22,3.22,5.1,3.49a10.4,10.4,0,0,1,2.95.81s1.34,1.61,2.15,1.34l-1.34-2.69-2.42-.81h2.95a4.028,4.028,0,0,0,1.88,1.34c1.07.27,1.34-.27,1.34-.27s.81,0,1.07-.27l-3.02-2.55-2.89-.67,3.22-.54s.81,1.17,1.75,1.12a4.64,4.64,0,0,0-1.6-1.99c-.95-.48-3.1.06-3.64.06s-3.49-.54-5.1-.81-13.43-12.09-13.43-12.09l-1.88-16.12Z" transform="translate(-328.803 -154.457)" fill="#ffbdb3"/>
        <path id="Trazado_837013" data-name="Trazado 837013" d="M373.65,188.08l-4.83,12.09-5.64-1.88-2.69,1.61a45.816,45.816,0,0,0,8.86,6.71,2.9,2.9,0,0,0,2.15.54c1.08-.27,6.98-12.89,6.71-15.31Z" transform="translate(-328.803 -154.457)" fill="#ffbdb3"/>
        <path id="Trazado_837014" data-name="Trazado 837014" d="M355.92,200.17l2.42-2.15s3.04-.6,4.03-.27c1.61.54,1.88,1.07,1.88,1.07l-3.37,1.45Z" transform="translate(-328.803 -154.457)" fill="#ffbdb3"/>
        <path id="Trazado_837015" data-name="Trazado 837015" d="M379.37,178.47s-3.27.45-5.84,8.21c0,0,.89,5.57,4.95,7.1l3.5-1.92Z" transform="translate(-328.803 -154.457)" fill="#d6dfff"/>
        <path id="Trazado_837016" data-name="Trazado 837016" d="M373.61,184.77s4.35,6.82,5.94,8.9l-2,1.62s-5.21-4.35-5.53-7.93Z" transform="translate(-328.803 -154.457)" fill="#f2f4ff"/>
        <path id="Trazado_837017" data-name="Trazado 837017" d="M391.88,183.31h0c-1.86-.48-2.91-2.7-2.33-4.94l1.66-6.44c.58-2.24,2.57-3.67,4.43-3.19h0c1.86.48,2.91,2.7,2.33,4.94l-1.66,6.44C395.73,182.35,393.74,183.79,391.88,183.31Z" transform="translate(-328.803 -154.457)" fill="#ffbdb3"/>
        <path id="Trazado_837018" data-name="Trazado 837018" d="M393.82,170.09s-2.2,3.9.53,6.61a7.617,7.617,0,0,0,1.6,1.1l.27,3.03,1.08-4.68Z" transform="translate(-328.803 -154.457)" fill="#e07972"/>
        <path id="Trazado_837019" data-name="Trazado 837019" d="M398.63,216.22s4.03,5.71,3.76,9.47-4.83,27.58-4.97,30.71,1.75,10.92-.67,18.44-2.95,22.29-2.95,22.29l-5.1.54s-1.61-24.44,0-37.6-2.42-26.86-2.42-26.86-12.89,9.13-18,9.94c0,0,3.22,1.61,5.37,6.98s4.83,13.7,6.98,16.12l-4.83,1.88s-7.52-12.36-12.36-16.65-6.98-8.86-6.45-11.28,20.34-23.01,20.34-23.01Z" transform="translate(-328.803 -154.457)" fill="#2f3e97"/>
        <path id="Trazado_837020" data-name="Trazado 837020" d="M378.22,182.71s-.81,15.58-.54,22.02a40.247,40.247,0,0,1-1.07,11.28s4.57,8.59,13.43,8.06,9.4-6.71,9.4-6.71-5.91-8.06-5.64-11.01l10.48-16.92s-2.15-5.64-7.25-7.52-14.94-3.94-17.19-3.49C378.48,178.68,378.22,182.71,378.22,182.71Z" transform="translate(-328.803 -154.457)" fill="#d6dfff"/>
        <path id="Trazado_837021" data-name="Trazado 837021" d="M397.82,178.95l1.3,4.03s-8.11.98-13.03-3.94l2.87-2.77A8.951,8.951,0,0,0,397.82,178.95Z" transform="translate(-328.803 -154.457)" fill="#f2f4ff"/>
        <path id="Trazado_837022" data-name="Trazado 837022" d="M402.55,186.36a16.417,16.417,0,0,1,3.06,8.17v4.83a18.857,18.857,0,0,1-6.71,1.61l-1.07-4.03Z" transform="translate(-328.803 -154.457)" fill="#d6dfff"/>
        <path id="Trazado_837023" data-name="Trazado 837023" d="M398.36,200.44a75.29,75.29,0,0,1,7.79-2.15v2.95a20.128,20.128,0,0,1-7.52,1.61Z" transform="translate(-328.803 -154.457)" fill="#f2f4ff"/>
        <path id="Trazado_837024" data-name="Trazado 837024" d="M392.99,169.28s-1.34,8.59,8.06,9.67c0,0,8.06-8.86,4.83-17.46S386,156.39,392.99,169.28Z" transform="translate(-328.803 -154.457)" fill="#ffbdb3"/>
        <path id="Trazado_837025" data-name="Trazado 837025" d="M394.06,168.48a8.6,8.6,0,0,0,6.98-7.25s5.1,3.76,5.91,6.45c0,0,.54-5.37-2.42-6.98s-4.3-1.61-4.3-1.61S397.55,166.86,394.06,168.48Z" transform="translate(-328.803 -154.457)" fill="#e07972"/>
        <path id="Trazado_837026" data-name="Trazado 837026" d="M404.54,158.27s-3.77-5.13-9.67-3.49c-4.83,1.34-6.71,4.57-6.98,7.25s-.54,4.03-2.69,5.1c0,0,1.34.81,2.15.27,0,0-1.07,2.69.54,4.57s1.07,3.22.54,3.49c0,0,2.69,0,2.95-1.07s-1.07-3.22-.81-5.37,4.03-6.71,6.45-8.06A43.35,43.35,0,0,1,404.54,158.27Z" transform="translate(-328.803 -154.457)" fill="#ff6985"/>
        <path id="Trazado_837027" data-name="Trazado 837027" d="M396.21,159.07a7.015,7.015,0,0,0-6.71,6.18,9.959,9.959,0,0,0,1.89,7.87A12.577,12.577,0,0,1,396.21,159.07Z" transform="translate(-328.803 -154.457)" fill="#f53b5f"/>
        <path id="Trazado_837028" data-name="Trazado 837028" d="M400.24,159.88s4.3.81,6.45,6.18c0,0,1.61-6.45-4.83-7.52A2.692,2.692,0,0,0,400.24,159.88Z" transform="translate(-328.803 -154.457)" fill="#f53b5f"/>
        <path id="Trazado_837029" data-name="Trazado 837029" d="M400.51,159.34s-.27,8.59-6.71,9.4c0,0-3.49,1.34-1.61,5.1a7.029,7.029,0,0,1-2.69-5.91C389.76,163.64,392.18,157.46,400.51,159.34Z" transform="translate(-328.803 -154.457)" fill="#ff6985"/>
        <path id="Trazado_837030" data-name="Trazado 837030" d="M400.24,159.88s1.61-4.3,6.98-1.61c3.8,1.9,2.95,5.91,1.88,8.33s-3.76,4.3-2.42,6.71c0,0-1.31-.68-1.33-1.41,0,0,1.77-4.85,1.15-7.76S401.85,159.07,400.24,159.88Z" transform="translate(-328.803 -154.457)" fill="#ff6985"/>
        <path id="Trazado_837031" data-name="Trazado 837031" d="M394.53,168.64s-1.54-2.59-2.89.1,1.58,3.69,1.58,3.69Z" transform="translate(-328.803 -154.457)" fill="#ffbdb3"/>
        <path id="Trazado_837032" data-name="Trazado 837032" d="M404.81,158.27s3.45.56,4.3,2.69a4.31,4.31,0,0,1-.27,4.3A6.654,6.654,0,0,0,404.81,158.27Z" transform="translate(-328.803 -154.457)" fill="#fff"/>
        <path id="Trazado_837033" data-name="Trazado 837033" d="M395.94,155.85s-5.64-.27-6.45,4.57C389.5,160.42,390.57,158,395.94,155.85Z" transform="translate(-328.803 -154.457)" fill="#fff"/>
        <path id="Trazado_837034" data-name="Trazado 837034" d="M386.27,309.49s-4.83-.81.81-2.95a7.122,7.122,0,0,0,1.61-4.03v-5.17l5.12-.67,1,2.7-1.29,9.58Z" transform="translate(-328.803 -154.457)" fill="#f53b5f"/>
        <path id="Trazado_837035" data-name="Trazado 837035" d="M394.87,299.55c-.27-1.34-2.81-2.48-4.03.27-1.07,2.42-.54,4.03-1.34,5.91a8.521,8.521,0,0,1-3.22,3.76s6.76.38,8.06-.27C394.87,308.95,395.53,302.85,394.87,299.55Z" transform="translate(-328.803 -154.457)" fill="#d6dfff"/>
        <path id="Trazado_837036" data-name="Trazado 837036" d="M398.63,198.51s-5.1,4.35-5.64,7.57c-.48,2.85,5.64,10.21,5.64,10.21s-3.76-6.71-3.76-9.13S398.63,198.51,398.63,198.51Z" transform="translate(-328.803 -154.457)" fill="#bdcbff"/>
        <path id="Trazado_837037" data-name="Trazado 837037" d="M386.27,233.21a14.847,14.847,0,0,0,9.4.27s-4.3,2.15-4.57,11.82-.54,13.97-1.07,17.46-.45,30.93.04,34.4l-1.38.25s-1.07-29.01-.81-34.92S387.88,250.4,386.27,233.21Z" transform="translate(-328.803 -154.457)" fill="#283682"/>
        <path id="Trazado_837038" data-name="Trazado 837038" d="M375.8,268.12a11.4,11.4,0,0,1-1.88,5.1c-1.61,2.15-4.57.81-5.1,3.76a51.612,51.612,0,0,0,6.71,0c2.42-.27,7.25-7.52,7.25-7.52a20.291,20.291,0,0,0-2.36-3.48Z" transform="translate(-328.803 -154.457)" fill="#f53b5f"/>
        <path id="Trazado_837039" data-name="Trazado 837039" d="M382.24,271.88s1.34-2.15.54-2.42-2.42.27-3.76,2.95-2.69,3.76-5.64,4.03a18.27,18.27,0,0,1-4.43,0,1.9,1.9,0,0,0-.14.81,54.393,54.393,0,0,0,6.71,0C377.64,276.83,380.1,275.11,382.24,271.88Z" transform="translate(-328.803 -154.457)" fill="#d6dfff"/>
        <path id="Trazado_837040" data-name="Trazado 837040" d="M384.81,234.22s-15.99,8.39-20.02,8.39c0,0,2.15,0,5.91,5.37s7.79,14.77,7.79,14.77-4.03-16.65-10.21-19.61C368.28,243.14,372.6,243.02,384.81,234.22Z" transform="translate(-328.803 -154.457)" fill="#283682"/>
        <path id="Trazado_837041" data-name="Trazado 837041" d="M398.03,173.53s-.31,2.05,2.48,2.89l1.18-1.57S400.3,174.43,398.03,173.53Z" transform="translate(-328.803 -154.457)" fill="#de666d"/>
        <path id="Trazado_837042" data-name="Trazado 837042" d="M398.03,173.53a2.2,2.2,0,0,0,.11.92,3.611,3.611,0,0,0,1.56.68,3.431,3.431,0,0,0,1.86-.1l.13-.18S400.3,174.43,398.03,173.53Z" transform="translate(-328.803 -154.457)" fill="#fff"/>
        <path id="Trazado_837043" data-name="Trazado 837043" d="M401.29,170.25a.43.43,0,1,1-.43-.43A.427.427,0,0,1,401.29,170.25Z" transform="translate(-328.803 -154.457)" fill="#e07972"/>
        <path id="Trazado_837044" data-name="Trazado 837044" d="M399.3,171a.43.43,0,1,1-.43-.43A.427.427,0,0,1,399.3,171Z" transform="translate(-328.803 -154.457)" fill="#e07972"/>
        <path id="Trazado_837045" data-name="Trazado 837045" d="M402.52,171.27a.43.43,0,1,1-.43-.43A.427.427,0,0,1,402.52,171.27Z" transform="translate(-328.803 -154.457)" fill="#e07972"/>
        <path id="Trazado_837046" data-name="Trazado 837046" d="M404.94,171.54a.43.43,0,1,1-.43-.43A.421.421,0,0,1,404.94,171.54Z" transform="translate(-328.803 -154.457)" fill="#e07972"/>
        <path id="Trazado_837047" data-name="Trazado 837047" d="M403.86,170.46a.43.43,0,1,1-.43-.43A.427.427,0,0,1,403.86,170.46Z" transform="translate(-328.803 -154.457)" fill="#e07972"/>
        <path id="Trazado_837048" data-name="Trazado 837048" d="M404,169.06a1.79,1.79,0,0,1,2.05-1.11s.88.37,1.17,0a1.257,1.257,0,0,1-1.17.74C405.17,168.69,404.29,168.69,404,169.06Z" transform="translate(-328.803 -154.457)" fill="#2f3e97"/>
        <path id="Trazado_837049" data-name="Trazado 837049" d="M406.15,168.74a.54.54,0,1,1-.54-.54A.544.544,0,0,1,406.15,168.74Z" transform="translate(-328.803 -154.457)" fill="#2f3e97"/>
        <path id="Trazado_837050" data-name="Trazado 837050" d="M397.55,168.79a1.79,1.79,0,0,1,2.05-1.11s.88.37,1.17,0a1.257,1.257,0,0,1-1.17.74C398.73,168.42,397.85,168.42,397.55,168.79Z" transform="translate(-328.803 -154.457)" fill="#2f3e97"/>
        <path id="Trazado_837051" data-name="Trazado 837051" d="M399.7,168.48a.54.54,0,1,1-.54-.54A.538.538,0,0,1,399.7,168.48Z" transform="translate(-328.803 -154.457)" fill="#2f3e97"/>
        <path id="Trazado_837052" data-name="Trazado 837052" d="M396.98,167.29a4.217,4.217,0,0,1,1.92-.72c.8.04,2.13.37,2.43-.15l.29-.52a14.456,14.456,0,0,0-2.96.13A4.456,4.456,0,0,0,396.98,167.29Z" transform="translate(-328.803 -154.457)" fill="#f53b5f"/>
        <path id="Trazado_837053" data-name="Trazado 837053" d="M404.27,166.06a.836.836,0,0,0,.27.54s1.1.42,1.34.54c.54.27.58.49.58.49a1.919,1.919,0,0,0-.04-.49C406.15,166.6,405.88,166.33,404.27,166.06Z" transform="translate(-328.803 -154.457)" fill="#f53b5f"/>
      </g>
    </g>
  </g>
</svg>
