<svg xmlns="http://www.w3.org/2000/svg" xmlns:xlink="http://www.w3.org/1999/xlink" width="395.892" height="418.605" viewBox="0 0 395.892 418.605">
  <defs>
    <linearGradient id="linear-gradient" x1="-5.202" y1="0.5" x2="-4.202" y2="0.5" gradientUnits="objectBoundingBox">
      <stop offset="0" stop-color="#4d4d4d"/>
      <stop offset="0.688" stop-color="#404144"/>
      <stop offset="1" stop-color="#393a3e"/>
    </linearGradient>
    <linearGradient id="linear-gradient-2" x1="33.256" y1="12.475" x2="34.256" y2="12.475" gradientUnits="objectBoundingBox">
      <stop offset="0" stop-color="#29c1fd"/>
      <stop offset="0.267" stop-color="#21c1f0"/>
      <stop offset="0.755" stop-color="#0cc0cf"/>
      <stop offset="1" stop-color="#00bfbc"/>
    </linearGradient>
  </defs>
  <g id="_6" data-name="6" transform="translate(-8.794 -5.39)">
    <g id="Grupo_1095402" data-name="Grupo 1095402" transform="translate(8.794 5.39)">
      <g id="Grupo_1095058" data-name="Grupo 1095058" transform="translate(178.167)">
        <g id="Grupo_1095057" data-name="Grupo 1095057">
          <g id="Grupo_1095056" data-name="Grupo 1095056">
            <path id="Trazado_837062" data-name="Trazado 837062" d="M194.466,31.2h3.848a15.557,15.557,0,0,1,15.557-15.557,15.38,15.38,0,0,1,6.11,1.249A20.686,20.686,0,0,1,258.558,31.2h.921a11.593,11.593,0,0,1,11.6,11.6h0a11.593,11.593,0,0,1-11.6,11.6H194.466a11.593,11.593,0,0,1-11.6-11.6h0A11.593,11.593,0,0,1,194.466,31.2Z" transform="translate(-182.87 -5.39)" fill="#d9f6ff"/>
          </g>
        </g>
        <path id="Trazado_837063" data-name="Trazado 837063" d="M210.29,48.588a16.028,16.028,0,1,1,21.9,14.912v5.783H220.464V63.5A16.032,16.032,0,0,1,210.29,48.588Z" transform="translate(-182.226 -4.751)" fill="#00c4ff"/>
        <path id="Trazado_837064" data-name="Trazado 837064" d="M225.46,73.691H226.7a5.248,5.248,0,0,0,5.251-5.251H220.22A5.246,5.246,0,0,0,225.46,73.691Z" transform="translate(-181.992 -3.908)" fill="url(#linear-gradient)"/>
        <circle id="Elipse_11102" data-name="Elipse 11102" cx="2.682" cy="2.682" r="2.682" transform="translate(47.327 36.498)" fill="#f7f7f7"/>
      </g>
      <path id="Trazado_837065" data-name="Trazado 837065" d="M331.2,323.519s110.641-1.453,60.284,37.184-119.33,15.281-159.431,34.154-111.347,37.747-156.156,0-95.135-75.34-40.316-76.763S331.2,323.519,331.2,323.519Z" transform="translate(-8.728 1.955)" fill="#d9f6ff"/>
      <g id="Grupo_1095386" data-name="Grupo 1095386" transform="translate(0 50.619)">
        <g id="Grupo_1095059" data-name="Grupo 1095059" transform="translate(103.615 283.657)">
          <ellipse id="Elipse_11103" data-name="Elipse 11103" cx="39.865" cy="7.574" rx="39.865" ry="7.574" transform="translate(0 0)" fill="#a6c5fe"/>
        </g>
        <g id="Grupo_1095060" data-name="Grupo 1095060" transform="translate(316.923 280.31)">
          <ellipse id="Elipse_11104" data-name="Elipse 11104" cx="35.782" cy="3.787" rx="35.782" ry="3.787" transform="translate(0 0)" fill="#a6c5fe"/>
        </g>
        <g id="Grupo_1095061" data-name="Grupo 1095061" transform="translate(287.098 279.113)">
          <ellipse id="Elipse_11105" data-name="Elipse 11105" cx="16.867" cy="2.211" rx="16.867" ry="2.211" fill="#a6c5fe"/>
        </g>
        <g id="Grupo_1095062" data-name="Grupo 1095062">
          <path id="Trazado_837066" data-name="Trazado 837066" d="M42.668,237s-24.37-34.339-13.981-58.81,47.931-22.108,47.931-22.108c25.567-9.478,23.172-24.073,24.37-33.151s-10.389-44.6,29.16-63.549,81.481,26.836,96.67,38.289,35.147,7.5,44.338-1.187,18.392-15.086,32.752-9.078c23.234,9.723,7.953,40.111,47.583,67.694,43.407,30.214,45.935,83.088,45.935,83.088s-.563-.2-.532.154c6.346,76.681-46.508,96.025-46.508,96.025l-336.6-3.163C-6.737,276.213,42.668,237,42.668,237Z" transform="translate(-8.794 -54.847)" fill="#d1bbff"/>
        </g>
        <g id="Grupo_1095065" data-name="Grupo 1095065" transform="translate(126.429 31.282)">
          <g id="Grupo_1095063" data-name="Grupo 1095063" transform="translate(0.041)">
            <path id="Trazado_837067" data-name="Trazado 837067" d="M274.729,287.838H132.36V85.41H290.379V274.656C290.379,281.933,283.368,287.838,274.729,287.838Z" transform="translate(-132.36 -85.41)" fill="#f6f7f7"/>
          </g>
          <g id="Grupo_1095064" data-name="Grupo 1095064">
            <rect id="Rectángulo_387425" data-name="Rectángulo 387425" width="157.753" height="9.396" fill="#005afd"/>
          </g>
        </g>
        <g id="Grupo_1095068" data-name="Grupo 1095068" transform="translate(160.788 127.102)">
          <g id="Grupo_1095067" data-name="Grupo 1095067">
            <g id="Grupo_1095066" data-name="Grupo 1095066">
              <path id="Trazado_837068" data-name="Trazado 837068" d="M246.675,181.4c2.129,0,2.129-2.375,0-2.375H167.487c-2.129,0-2.129,2.375,0,2.375h79.188Z" transform="translate(-165.89 -179.03)" fill="#d1bbff"/>
            </g>
          </g>
        </g>
        <g id="Grupo_1095074" data-name="Grupo 1095074" transform="translate(146.639 59.418)">
          <g id="Grupo_1095069" data-name="Grupo 1095069" transform="translate(6.626)">
            <path id="Trazado_837069" data-name="Trazado 837069" d="M179.88,112.9a28.324,28.324,0,0,0-21.34,9.631l21.34,18.27,21.34-18.27A28.324,28.324,0,0,0,179.88,112.9Z" transform="translate(-158.54 -112.9)" fill="#a6c5fe"/>
          </g>
          <g id="Grupo_1095070" data-name="Grupo 1095070" transform="translate(30.003 23.817)">
            <path id="Trazado_837070" data-name="Trazado 837070" d="M209.322,136.17l-27.942,3.971v27.9a28.053,28.053,0,0,0,28.238-27.9A29.84,29.84,0,0,0,209.322,136.17Z" transform="translate(-181.38 -136.17)" fill="#00c4ff"/>
          </g>
          <g id="Grupo_1095071" data-name="Grupo 1095071" transform="translate(0 9.723)">
            <path id="Trazado_837071" data-name="Trazado 837071" d="M158.723,122.4a27.651,27.651,0,0,0,3.388,39.313,29.323,29.323,0,0,0,3.255,2.344l14.943-23.674Z" transform="translate(-152.066 -122.4)" fill="#005afd"/>
          </g>
          <g id="Grupo_1095072" data-name="Grupo 1095072" transform="translate(12.941 27.747)">
            <path id="Trazado_837072" data-name="Trazado 837072" d="M179.97,167.911a28.281,28.281,0,0,1-15.26-4.432l15.271-23.469Z" transform="translate(-164.71 -140.01)" fill="#7c3eff"/>
          </g>
          <g id="Grupo_1095073" data-name="Grupo 1095073" transform="translate(31.425 7.983)">
            <path id="Trazado_837073" data-name="Trazado 837073" d="M210.722,135a27.551,27.551,0,0,0-6.612-14.3l-21.34,18.27Z" transform="translate(-182.77 -120.7)" fill="#d1bbff"/>
          </g>
        </g>
        <g id="Grupo_1095081" data-name="Grupo 1095081" transform="translate(130.431 34.618)">
          <g id="Grupo_1095076" data-name="Grupo 1095076">
            <g id="Grupo_1095075" data-name="Grupo 1095075">
              <path id="Trazado_837074" data-name="Trazado 837074" d="M138.257,92.682a2.006,2.006,0,1,1,2.027-2.006A2.02,2.02,0,0,1,138.257,92.682Zm0-3.674a1.668,1.668,0,1,0,1.689,1.668A1.68,1.68,0,0,0,138.257,89.008Z" transform="translate(-136.23 -88.67)" fill="#fff"/>
            </g>
          </g>
          <g id="Grupo_1095078" data-name="Grupo 1095078" transform="translate(6.254)">
            <g id="Grupo_1095077" data-name="Grupo 1095077">
              <path id="Trazado_837075" data-name="Trazado 837075" d="M144.367,92.682a2.006,2.006,0,1,1,2.027-2.006A2.02,2.02,0,0,1,144.367,92.682Zm0-3.674a1.668,1.668,0,1,0,1.689,1.668A1.68,1.68,0,0,0,144.367,89.008Z" transform="translate(-142.34 -88.67)" fill="#fff"/>
            </g>
          </g>
          <g id="Grupo_1095080" data-name="Grupo 1095080" transform="translate(12.507)">
            <g id="Grupo_1095079" data-name="Grupo 1095079">
              <path id="Trazado_837076" data-name="Trazado 837076" d="M150.477,92.682a2.006,2.006,0,1,1,2.027-2.006A2.02,2.02,0,0,1,150.477,92.682Zm0-3.674a1.668,1.668,0,1,0,1.689,1.668A1.68,1.68,0,0,0,150.477,89.008Z" transform="translate(-148.45 -88.67)" fill="#fff"/>
            </g>
          </g>
        </g>
        <g id="Grupo_1095083" data-name="Grupo 1095083" transform="translate(21.776 62.969)">
          <g id="Grupo_1095082" data-name="Grupo 1095082">
            <path id="Trazado_837077" data-name="Trazado 837077" d="M135.051,277.418H30.07V116.37H148.684V263.949A13.548,13.548,0,0,1,135.051,277.418Z" transform="translate(-30.07 -116.37)" fill="#a6c5fe"/>
          </g>
        </g>
        <g id="Grupo_1095084" data-name="Grupo 1095084" transform="translate(34.293 75.763)">
          <rect id="Rectángulo_387426" data-name="Rectángulo 387426" width="96.015" height="59.998" transform="translate(0.072 0.061)" fill="#fff"/>
          <path id="Trazado_837078" data-name="Trazado 837078" d="M138.458,189H42.3V128.87h96.158Zm-96.015-.133h95.882V129H42.443Z" transform="translate(-42.3 -128.87)" fill="#384ea0"/>
        </g>
        <g id="Grupo_1095085" data-name="Grupo 1095085" transform="translate(35.931 144.972)">
          <rect id="Rectángulo_387427" data-name="Rectángulo 387427" width="7.216" height="7.134" fill="#005afd"/>
        </g>
        <g id="Grupo_1095086" data-name="Grupo 1095086" transform="translate(35.931 155.514)">
          <rect id="Rectángulo_387428" data-name="Rectángulo 387428" width="7.216" height="7.134" fill="#d9f6ff"/>
        </g>
        <g id="Grupo_1095087" data-name="Grupo 1095087" transform="translate(49.113 147.142)">
          <rect id="Rectángulo_387429" data-name="Rectángulo 387429" width="21.023" height="2.17" fill="#f6f7f7"/>
        </g>
        <g id="Grupo_1095088" data-name="Grupo 1095088" transform="translate(48.796 158.616)">
          <rect id="Rectángulo_387430" data-name="Rectángulo 387430" width="21.023" height="2.17" fill="#f6f7f7"/>
        </g>
        <g id="Grupo_1095089" data-name="Grupo 1095089" transform="translate(36.872 174.807)">
          <rect id="Rectángulo_387431" data-name="Rectángulo 387431" width="91.624" height="2.344" fill="#f6f7f7"/>
        </g>
        <g id="Grupo_1095090" data-name="Grupo 1095090" transform="translate(36.872 181.624)">
          <rect id="Rectángulo_387432" data-name="Rectángulo 387432" width="40.797" height="32.128" fill="#005afd"/>
        </g>
        <g id="Grupo_1095091" data-name="Grupo 1095091" transform="translate(83.943 181.931)">
          <rect id="Rectángulo_387433" data-name="Rectángulo 387433" width="44.553" height="13.991" fill="#ffb6c7"/>
        </g>
        <g id="Grupo_1095092" data-name="Grupo 1095092" transform="translate(83.472 199.607)">
          <rect id="Rectángulo_387434" data-name="Rectángulo 387434" width="44.553" height="13.991" fill="#d9f6ff"/>
        </g>
        <g id="Grupo_1095100" data-name="Grupo 1095100" transform="translate(47.906 230.578)">
          <g id="Grupo_1095095" data-name="Grupo 1095095">
            <g id="Grupo_1095093" data-name="Grupo 1095093">
              <path id="Trazado_837079" data-name="Trazado 837079" d="M116.458,326.136H55.6V280.13h56.989l12.2,13.746v22.763C124.8,321.889,121.063,326.136,116.458,326.136Z" transform="translate(-55.6 -280.13)" fill="#153e67"/>
            </g>
            <g id="Grupo_1095094" data-name="Grupo 1095094" transform="translate(56.897 0)">
              <path id="Trazado_837080" data-name="Trazado 837080" d="M123.441,293.988l-12.251.328V280.13Z" transform="translate(-111.19 -280.13)" fill="#f5a2aa"/>
            </g>
          </g>
          <g id="Grupo_1095099" data-name="Grupo 1095099" transform="translate(10.542 11.944)">
            <g id="Grupo_1095096" data-name="Grupo 1095096" transform="translate(6.151)">
              <rect id="Rectángulo_387435" data-name="Rectángulo 387435" width="38.821" height="1.975" fill="#5cb6dd"/>
            </g>
            <g id="Grupo_1095097" data-name="Grupo 1095097" transform="translate(0 9.529)">
              <rect id="Rectángulo_387436" data-name="Rectángulo 387436" width="44.973" height="1.975" fill="#5cb6dd"/>
            </g>
            <g id="Grupo_1095098" data-name="Grupo 1095098" transform="translate(0 19.058)">
              <rect id="Rectángulo_387437" data-name="Rectángulo 387437" width="44.973" height="1.975" fill="#5cb6dd"/>
            </g>
          </g>
        </g>
        <g id="Grupo_1095102" data-name="Grupo 1095102" transform="translate(34.191 75.057)">
          <g id="Grupo_1095101" data-name="Grupo 1095101">
            <path id="Trazado_837081" data-name="Trazado 837081" d="M138.491,189.1H42.2V128.18h96.291Zm-95.738-.553h95.186V128.722H42.753v59.824Z" transform="translate(-42.2 -128.18)" fill="#005afd"/>
          </g>
        </g>
        <g id="Grupo_1095104" data-name="Grupo 1095104" transform="translate(34.577 87.535)">
          <g id="Grupo_1095103" data-name="Grupo 1095103" transform="translate(0 0)">
            <rect id="Rectángulo_387438" data-name="Rectángulo 387438" width="0.553" height="95.452" transform="translate(0 0.553) rotate(-89.932)" fill="#005afd"/>
          </g>
        </g>
        <g id="Grupo_1095106" data-name="Grupo 1095106" transform="translate(34.123 99.788)">
          <g id="Grupo_1095105" data-name="Grupo 1095105" transform="translate(0 0)">
            <rect id="Rectángulo_387439" data-name="Rectángulo 387439" width="0.553" height="96.138" transform="translate(0 0.553) rotate(-89.933)" fill="#005afd"/>
          </g>
        </g>
        <g id="Grupo_1095108" data-name="Grupo 1095108" transform="translate(34.805 111.704)">
          <g id="Grupo_1095107" data-name="Grupo 1095107" transform="translate(0 0)">
            <rect id="Rectángulo_387440" data-name="Rectángulo 387440" width="0.553" height="95.8" transform="translate(0 0.553) rotate(-89.933)" fill="#005afd"/>
          </g>
        </g>
        <g id="Grupo_1095110" data-name="Grupo 1095110" transform="translate(34.579 122.954)">
          <g id="Grupo_1095109" data-name="Grupo 1095109" transform="translate(0 0)">
            <rect id="Rectángulo_387441" data-name="Rectángulo 387441" width="95.687" height="0.553" transform="translate(0 0.337) rotate(-0.202)" fill="#005afd"/>
          </g>
        </g>
        <g id="Grupo_1095112" data-name="Grupo 1095112" transform="translate(50.228 75.108)">
          <g id="Grupo_1095111" data-name="Grupo 1095111" transform="translate(0 0)">
            <rect id="Rectángulo_387442" data-name="Rectángulo 387442" width="0.553" height="60.489" transform="matrix(1, -0.004, 0.004, 1, 0, 0.002)" fill="#005afd"/>
          </g>
        </g>
        <g id="Grupo_1095114" data-name="Grupo 1095114" transform="translate(66.047 75.333)">
          <g id="Grupo_1095113" data-name="Grupo 1095113" transform="translate(0 0)">
            <rect id="Rectángulo_387443" data-name="Rectángulo 387443" width="0.553" height="60.264" transform="translate(0 0.001) rotate(-0.108)" fill="#005afd"/>
          </g>
        </g>
        <g id="Grupo_1095116" data-name="Grupo 1095116" transform="translate(82.316 75.221)">
          <g id="Grupo_1095115" data-name="Grupo 1095115">
            <rect id="Rectángulo_387444" data-name="Rectángulo 387444" width="0.553" height="60.376" fill="#005afd"/>
          </g>
        </g>
        <g id="Grupo_1095118" data-name="Grupo 1095118" transform="translate(97.454 75.448)">
          <g id="Grupo_1095117" data-name="Grupo 1095117" transform="translate(0 0)">
            <rect id="Rectángulo_387445" data-name="Rectángulo 387445" width="0.553" height="60.264" transform="translate(0 0.004) rotate(-0.433)" fill="#005afd"/>
          </g>
        </g>
        <g id="Grupo_1095120" data-name="Grupo 1095120" transform="translate(113.261 75.109)">
          <g id="Grupo_1095119" data-name="Grupo 1095119" transform="translate(0 0)">
            <rect id="Rectángulo_387446" data-name="Rectángulo 387446" width="0.553" height="60.489" transform="matrix(1, -0.006, 0.006, 1, 0, 0.003)" fill="#005afd"/>
          </g>
        </g>
        <g id="Grupo_1095121" data-name="Grupo 1095121" transform="translate(34.068 74.74)">
          <path id="Trazado_837082" data-name="Trazado 837082" d="M42.571,186l-.184-1.085a.49.49,0,0,0-.307.174c.86-1.218,10.061-26.908,16.028-43.888l.287-.829,15.813,15.629L90.451,127.87l16.12,23.663,15.567-10.215,16.468,21.545-.88.665L121.883,142.8l-15.608,10.245-15.741-23.1L74.464,157.8l-15.588-15.4c-.972,2.763-4.237,12.016-7.533,21.176C43.318,185.882,43.052,185.923,42.571,186Z" transform="translate(-42.08 -127.87)" fill="#ff2c60"/>
        </g>
        <g id="Grupo_1095122" data-name="Grupo 1095122" transform="translate(33.955 75.067)">
          <path id="Trazado_837083" data-name="Trazado 837083" d="M58.837,186.509,41.97,146.879l1.023-.43,15.67,36.826,15.608-51.349,16.212,42.066L105.7,132.755l16.151,23.981,15.885-28.545.972.522-16.775,30.142L106,135.17,90.5,177.124l-16.11-41.8Z" transform="translate(-41.97 -128.19)" fill="#00c4ff"/>
        </g>
        <g id="diagram_1_" transform="translate(150.154 150.274)">
          <g id="Grupo_1095133" data-name="Grupo 1095133" transform="translate(14.7 18.3)">
            <g id="Grupo_1095126" data-name="Grupo 1095126" transform="translate(0 55.198)">
              <g id="Grupo_1095125" data-name="Grupo 1095125">
                <g id="Grupo_1095124" data-name="Grupo 1095124">
                  <g id="Grupo_1095123" data-name="Grupo 1095123">
                    <path id="Trazado_837084" data-name="Trazado 837084" d="M266.407,273.48H170.638c-1.034,0-1.034,2.477,0,2.477h95.769c1.034,0,1.034-2.477,0-2.477Z" transform="translate(-169.863 -273.48)" fill="#005686"/>
                  </g>
                </g>
              </g>
            </g>
            <g id="Grupo_1095132" data-name="Grupo 1095132" transform="translate(6.22)">
              <g id="Grupo_1095127" data-name="Grupo 1095127" transform="translate(0 24.349)">
                <path id="Trazado_837085" data-name="Trazado 837085" d="M184.456,244.108a6.921,6.921,0,0,1-3.756,1.116,7.126,7.126,0,0,1-4.759-1.883V272.6h9.529V244.886Z" transform="translate(-175.94 -243.34)" fill="#00c4ff"/>
              </g>
              <g id="Grupo_1095128" data-name="Grupo 1095128" transform="translate(18.843 38.453)">
                <path id="Trazado_837086" data-name="Trazado 837086" d="M199.109,259.013a7.126,7.126,0,0,1-4.759-1.883v15.138h9.529V257.12A7.132,7.132,0,0,1,199.109,259.013Z" transform="translate(-194.35 -257.12)" fill="#7c3eff"/>
              </g>
              <g id="Grupo_1095129" data-name="Grupo 1095129" transform="translate(56.528 30.736)">
                <path id="Trazado_837087" data-name="Trazado 837087" d="M235.929,251.463a7.126,7.126,0,0,1-4.759-1.883v22.875H240.7V249.58A7.172,7.172,0,0,1,235.929,251.463Z" transform="translate(-231.17 -249.58)" fill="#7c3eff"/>
              </g>
              <g id="Grupo_1095130" data-name="Grupo 1095130" transform="translate(75.361)">
                <path id="Trazado_837088" data-name="Trazado 837088" d="M254.34,221.423a6.92,6.92,0,0,1-1.648-.2l-3.122,5.353v46.59H259.1V219.55A7.166,7.166,0,0,1,254.34,221.423Z" transform="translate(-249.57 -219.55)" fill="#00c4ff"/>
              </g>
              <g id="Grupo_1095131" data-name="Grupo 1095131" transform="translate(37.685 16.263)">
                <path id="Trazado_837089" data-name="Trazado 837089" d="M220.232,235.44a6.72,6.72,0,0,1-2.712.573,6.254,6.254,0,0,1-1.31-.133l-3.449,4.094v32.814h9.529v-35.71Z" transform="translate(-212.76 -235.44)" fill="#00c4ff"/>
              </g>
            </g>
          </g>
          <g id="Grupo_1095155" data-name="Grupo 1095155">
            <g id="Grupo_1095135" data-name="Grupo 1095135" transform="translate(26.611 8.444)">
              <g id="Grupo_1095134" data-name="Grupo 1095134">
                <path id="Trazado_837090" data-name="Trazado 837090" d="M236.81,241.475l-18.648-15.608-18.873,23.551L181.5,234.975v3.111l18.034,14.636,18.812-23.479L237.373,245.2l18.566-30.47v-4.81Z" transform="translate(-181.5 -209.92)" fill="#153e67"/>
              </g>
            </g>
            <g id="Grupo_1095137" data-name="Grupo 1095137" transform="translate(21.258 30.193)">
              <g id="Grupo_1095136" data-name="Grupo 1095136">
                <path id="Trazado_837091" data-name="Trazado 837091" d="M176.27,235.54a4.422,4.422,0,1,1,4.422,4.37A4.4,4.4,0,0,1,176.27,235.54Z" transform="translate(-176.27 -231.17)" fill="#1e657e"/>
              </g>
            </g>
            <g id="Grupo_1095139" data-name="Grupo 1095139" transform="translate(40.091 44.666)">
              <g id="Grupo_1095138" data-name="Grupo 1095138">
                <path id="Trazado_837092" data-name="Trazado 837092" d="M194.67,249.68a4.422,4.422,0,1,1,4.422,4.37A4.4,4.4,0,0,1,194.67,249.68Z" transform="translate(-194.67 -245.31)" fill="#1e657e"/>
              </g>
            </g>
            <g id="Grupo_1095141" data-name="Grupo 1095141" transform="translate(58.933 22.251)">
              <g id="Grupo_1095140" data-name="Grupo 1095140">
                <path id="Trazado_837093" data-name="Trazado 837093" d="M213.08,227.78a4.422,4.422,0,1,1,4.422,4.37A4.4,4.4,0,0,1,213.08,227.78Z" transform="translate(-213.08 -223.41)" fill="#1e657e"/>
              </g>
            </g>
            <g id="Grupo_1095143" data-name="Grupo 1095143" transform="translate(77.776 36.713)">
              <g id="Grupo_1095142" data-name="Grupo 1095142">
                <path id="Trazado_837094" data-name="Trazado 837094" d="M231.49,241.91a4.422,4.422,0,1,1,4.422,4.37A4.4,4.4,0,0,1,231.49,241.91Z" transform="translate(-231.49 -237.54)" fill="#1e657e"/>
              </g>
            </g>
            <g id="Grupo_1095145" data-name="Grupo 1095145" transform="translate(96.619 6.745)">
              <g id="Grupo_1095144" data-name="Grupo 1095144">
                <path id="Trazado_837095" data-name="Trazado 837095" d="M249.9,212.63a4.422,4.422,0,1,1,4.422,4.37A4.4,4.4,0,0,1,249.9,212.63Z" transform="translate(-249.9 -208.26)" fill="#1e657e"/>
              </g>
            </g>
            <g id="Grupo_1095148" data-name="Grupo 1095148" transform="translate(43.601 2.467)">
              <g id="Grupo_1095147" data-name="Grupo 1095147">
                <g id="Grupo_1095146" data-name="Grupo 1095146">
                  <path id="Trazado_837096" data-name="Trazado 837096" d="M215.725,219.617a.641.641,0,0,1-.522-.276l-9.426-14.012h-7.042a.624.624,0,1,1,0-1.249h7.717l9.805,14.564a.614.614,0,0,1-.174.86A.7.7,0,0,1,215.725,219.617Z" transform="translate(-198.1 -204.08)" fill="#005686"/>
                </g>
              </g>
            </g>
            <g id="Grupo_1095151" data-name="Grupo 1095151" transform="translate(87.162 1.658)">
              <g id="Grupo_1095150" data-name="Grupo 1095150">
                <g id="Grupo_1095149" data-name="Grupo 1095149">
                  <path id="Trazado_837097" data-name="Trazado 837097" d="M251.509,208.479a.627.627,0,0,1-.512-.266l-2.651-3.674h-7.062a.62.62,0,0,1-.624-.624.627.627,0,0,1,.624-.624h7.707l3.03,4.186a.624.624,0,0,1-.143.87A.584.584,0,0,1,251.509,208.479Z" transform="translate(-240.66 -203.29)" fill="#005686"/>
                </g>
              </g>
            </g>
            <g id="Grupo_1095154" data-name="Grupo 1095154" transform="translate(6.735 23.172)">
              <g id="Grupo_1095153" data-name="Grupo 1095153">
                <g id="Grupo_1095152" data-name="Grupo 1095152">
                  <path id="Trazado_837098" data-name="Trazado 837098" d="M175,232.733a.616.616,0,0,1-.522-.276l-4.718-6.9H162.7a.62.62,0,0,1-.624-.624.627.627,0,0,1,.624-.624h7.717l5.087,7.441a.605.605,0,0,1-.174.86A.462.462,0,0,1,175,232.733Z" transform="translate(-162.08 -224.31)" fill="#005686"/>
                </g>
              </g>
            </g>
            <circle id="Elipse_11106" data-name="Elipse 11106" cx="2.467" cy="2.467" r="2.467" transform="translate(79.966)" fill="#005686"/>
            <circle id="Elipse_11107" data-name="Elipse 11107" cx="2.467" cy="2.467" r="2.467" transform="translate(34.758 0.471)" fill="#005686"/>
            <circle id="Elipse_11108" data-name="Elipse 11108" cx="2.467" cy="2.467" r="2.467" transform="translate(0 21.801)" fill="#005686"/>
          </g>
        </g>
        <g id="Grupo_1095156" data-name="Grupo 1095156" transform="translate(220.151 75.538)">
          <path id="Trazado_837099" data-name="Trazado 837099" d="M262.108,132.437H224.177a.286.286,0,0,1-.287-.287v-3.214a.286.286,0,0,1,.287-.287h37.931a.286.286,0,0,1,.287.287v3.214A.293.293,0,0,1,262.108,132.437Z" transform="translate(-223.89 -128.65)" fill="#005afd"/>
        </g>
        <g id="Grupo_1095157" data-name="Grupo 1095157" transform="translate(220.233 80.676)">
          <path id="Trazado_837100" data-name="Trazado 837100" d="M253.467,136.781H224.205a.232.232,0,0,1-.235-.235v-2.641a.232.232,0,0,1,.235-.235h29.252a.232.232,0,0,1,.235.235v2.641A.223.223,0,0,1,253.467,136.781Z" transform="translate(-223.97 -133.67)" fill="#005afd"/>
        </g>
        <g id="Grupo_1095158" data-name="Grupo 1095158" transform="translate(220.151 85.384)">
          <path id="Trazado_837101" data-name="Trazado 837101" d="M235.067,141.3H225.4a1.511,1.511,0,0,1-1.515-1.515h0a1.511,1.511,0,0,1,1.515-1.515h9.662a1.511,1.511,0,0,1,1.515,1.515h0A1.511,1.511,0,0,1,235.067,141.3Z" transform="translate(-223.89 -138.27)" fill="#005afd"/>
        </g>
        <g id="Grupo_1095159" data-name="Grupo 1095159" transform="translate(220.243 89.846)">
          <path id="Trazado_837102" data-name="Trazado 837102" d="M232.3,145.741h-6.765a1.555,1.555,0,0,1-1.556-1.556h0a1.555,1.555,0,0,1,1.556-1.556H232.3a1.555,1.555,0,0,1,1.556,1.556h0A1.555,1.555,0,0,1,232.3,145.741Z" transform="translate(-223.98 -142.63)" fill="#005afd"/>
        </g>
        <g id="Grupo_1095160" data-name="Grupo 1095160" transform="translate(220.028 94.77)">
          <path id="Trazado_837103" data-name="Trazado 837103" d="M258.774,162.209h-30.91a4.093,4.093,0,0,1-4.094-4.094v-6.581a4.093,4.093,0,0,1,4.094-4.094h30.91a4.093,4.093,0,0,1,4.094,4.094v6.581A4.093,4.093,0,0,1,258.774,162.209Z" transform="translate(-223.77 -147.44)" fill="#7c3eff"/>
        </g>
        <g id="Grupo_1095166" data-name="Grupo 1095166" transform="translate(195.71 231.11)">
          <g id="Grupo_1095161" data-name="Grupo 1095161">
            <path id="Trazado_837104" data-name="Trazado 837104" d="M205.516,306.606h57.378A5.508,5.508,0,0,0,268.4,301.1V286.156a5.508,5.508,0,0,0-5.506-5.506H205.516a5.508,5.508,0,0,0-5.506,5.506V301.1A5.5,5.5,0,0,0,205.516,306.606Z" transform="translate(-200.01 -280.65)" fill="#7c3eff"/>
          </g>
          <g id="Grupo_1095162" data-name="Grupo 1095162" transform="translate(7.968 5.868)">
            <rect id="Rectángulo_387447" data-name="Rectángulo 387447" width="36.723" height="2.221" transform="translate(36.723 2.221) rotate(180)" fill="#f9f9fa"/>
          </g>
          <g id="Grupo_1095163" data-name="Grupo 1095163" transform="translate(7.968 11.746)">
            <rect id="Rectángulo_387448" data-name="Rectángulo 387448" width="36.836" height="2.999" transform="translate(36.836 2.999) rotate(180)" fill="#f9f9fa"/>
          </g>
          <g id="Grupo_1095164" data-name="Grupo 1095164" transform="translate(8.188 18.402)">
            <rect id="Rectángulo_387449" data-name="Rectángulo 387449" width="51.104" height="2.886" transform="translate(51.104 2.886) rotate(180)" fill="#f9f9fa"/>
          </g>
          <g id="Grupo_1095165" data-name="Grupo 1095165" transform="translate(48.401 4.759)">
            <ellipse id="Elipse_11109" data-name="Elipse 11109" cx="5.732" cy="5.66" rx="5.732" ry="5.66" fill="#f9f9fa"/>
          </g>
        </g>
        <g id="Grupo_1095250" data-name="Grupo 1095250" transform="translate(65.134 122.435)">
          <g id="Grupo_1095167" data-name="Grupo 1095167" transform="translate(0 8.024)">
            <path id="Trazado_837105" data-name="Trazado 837105" d="M82.01,182.31s-10.982,17.338-9.426,27.6l2.723-.113,1.822-5.046-.45,5.158,26.017-4.585-.921-11.678Z" transform="translate(-72.433 -182.31)" fill="#153e67"/>
          </g>
          <g id="Grupo_1095171" data-name="Grupo 1095171" transform="translate(78.367 149.892)">
            <path id="Trazado_837106" data-name="Trazado 837106" d="M169.245,335.853a14.733,14.733,0,0,1-8.413-3.163c-.164-.143-2.692-11.77-2.692-11.77L149,325.075l3.265,7.6a2.686,2.686,0,0,1,.266,1.822s10.992,3.091,12.374,3.06,5.384-1.689,5.384-1.689Z" transform="translate(-149 -320.92)" fill="#e9a59a"/>
            <g id="Grupo_1095170" data-name="Grupo 1095170" transform="translate(3.311 13.009)">
              <g id="Grupo_1095168" data-name="Grupo 1095168">
                <path id="Trazado_837107" data-name="Trazado 837107" d="M152.373,333.63s10.122,3.664,12.732,3.193a18.484,18.484,0,0,0,4-1.105s7.062.614,8.157.225c0,0-2.129,4.462-10.839,5.691l-7.758-1.433s-1.771-.215-1.31.87,1.157,3.245,1.157,3.245l-2.508.778-3.3-5.65C152.721,339.454,151.923,335.554,152.373,333.63Z" transform="translate(-152.235 -333.63)" fill="#18365f"/>
              </g>
              <g id="Grupo_1095169" data-name="Grupo 1095169" transform="translate(0.005 0.01)">
                <path id="Trazado_837108" data-name="Trazado 837108" d="M169.107,335.728a18.732,18.732,0,0,1-4,1.105c-2.61.471-12.732-3.193-12.732-3.193a7.1,7.1,0,0,0-.133,1.32c1.105.389,10.317,3.592,12.466,3.163a65.06,65.06,0,0,0,6.97-2.2C170.243,335.82,169.107,335.728,169.107,335.728Z" transform="translate(-152.24 -333.64)" fill="#0e4873"/>
              </g>
            </g>
          </g>
          <g id="Grupo_1095175" data-name="Grupo 1095175" transform="translate(42.401 147.999)">
            <path id="Trazado_837109" data-name="Trazado 837109" d="M125.511,331.475c-.031-.215,5.138-9,5.138-9l-9.14-3.408-2.467,6.909a2.75,2.75,0,0,1-.993,1.545s6.274,9.355,7.339,10.225,5.169,2.17,5.169,2.17l-.768-.675A14.357,14.357,0,0,1,125.511,331.475Z" transform="translate(-113.762 -319.07)" fill="#e89994"/>
            <g id="Grupo_1095174" data-name="Grupo 1095174" transform="translate(0 7.881)">
              <g id="Grupo_1095172" data-name="Grupo 1095172" transform="translate(0 0.01)">
                <path id="Trazado_837110" data-name="Trazado 837110" d="M118.63,326.78s5.24,9.242,7.513,10.552a18.626,18.626,0,0,0,3.746,1.73s4.933,4.974,6.008,5.394c0,0-4.524,2.006-11.9-2.63l-4.913-6.039s-1.2-1.29-1.556-.184-1.259,3.183-1.259,3.183l-2.405-1.013,1.208-6.366C115.078,331.4,117.033,327.947,118.63,326.78Z" transform="translate(-113.86 -326.78)" fill="#18365f"/>
              </g>
              <g id="Grupo_1095173" data-name="Grupo 1095173" transform="translate(3.807)">
                <path id="Trazado_837111" data-name="Trazado 837111" d="M129.8,339.052a18.626,18.626,0,0,1-3.746-1.73c-2.272-1.31-7.513-10.552-7.513-10.552a6.026,6.026,0,0,0-.962.911c.583,1,5.435,9.3,7.328,10.358a63.336,63.336,0,0,0,6.7,2.794C130.589,339.85,129.8,339.052,129.8,339.052Z" transform="translate(-117.58 -326.77)" fill="#0e4873"/>
              </g>
            </g>
          </g>
          <g id="Grupo_1095177" data-name="Grupo 1095177" transform="translate(6.374 75.545)">
            <g id="Grupo_1095176" data-name="Grupo 1095176">
              <path id="Trazado_837112" data-name="Trazado 837112" d="M78.732,264.441l-.072-.45c5.783-.911,9.57-3.009,11.238-6.233,2.231-4.319-.143-9.222-.164-9.273l.409-.2c.02.051,2.5,5.158.164,9.682C88.568,261.33,84.668,263.51,78.732,264.441Z" transform="translate(-78.66 -248.28)" fill="#231f20"/>
            </g>
          </g>
          <g id="Grupo_1095178" data-name="Grupo 1095178" transform="translate(1.539 76.886)">
            <path id="Trazado_837113" data-name="Trazado 837113" d="M127.981,283.427,150.13,263.4s-10.737-4.718-27.6-5.9l-8.577-.952-4.544-6.96-11.361,1.126-20.562.45s-4.657,14.032-3.3,18.29,3.521,9.764,9.877,12.118,43.837,2.241,43.837,2.241Z" transform="translate(-73.936 -249.59)" fill="#005afd"/>
          </g>
          <g id="Grupo_1095179" data-name="Grupo 1095179" transform="translate(4.677)">
            <path id="Trazado_837114" data-name="Trazado 837114" d="M92.189,174.47s-8.976,1.146-10.4,8.935-2.293,20.173-4.647,25.055,25.434-2.958,25.434-2.958l.3-11.5Z" transform="translate(-77.002 -174.47)" fill="#153e67"/>
          </g>
          <g id="Grupo_1095180" data-name="Grupo 1095180" transform="translate(10.8 15.811)">
            <path id="Trazado_837115" data-name="Trazado 837115" d="M85.887,193.748S81.373,205.18,83.6,207.77s18.648,5.68,16.929-9.345C98.721,182.561,85.887,193.748,85.887,193.748Z" transform="translate(-82.985 -189.918)"/>
          </g>
          <g id="Grupo_1095181" data-name="Grupo 1095181" transform="translate(27.663 30.234)">
            <path id="Trazado_837116" data-name="Trazado 837116" d="M99.46,204.01A24.968,24.968,0,0,1,116.972,218.1c3.255,7.134,7.021,12.865,8.239,17.492s-7.124,9.856-13.94-2.518S99.46,204.01,99.46,204.01Z" transform="translate(-99.46 -204.01)" fill="#7c3eff"/>
          </g>
          <g id="Grupo_1095182" data-name="Grupo 1095182" transform="translate(21.593 29.856)">
            <path id="Trazado_837117" data-name="Trazado 837117" d="M93.53,203.64l6.284,13.213,6.489,3.521s.01-3.019-.287-6.069a17.861,17.861,0,0,0-1.075-5.169c-1.525-1.443-3.122-2.784-4.36-3.787-1.034-.839-1.812-1.433-2.067-1.627-.061-.051-.092-.072-.092-.072H93.53Z" transform="translate(-93.53 -203.64)" fill="#f6f7f7"/>
          </g>
          <g id="Grupo_1095183" data-name="Grupo 1095183" transform="translate(5.476 29.835)">
            <path id="Trazado_837118" data-name="Trazado 837118" d="M78.7,248.838c11.74,2.948,19.334,3.122,24.073,2.477a23.741,23.741,0,0,0,2.733-.522c3.214-.819,4.34-1.955,4.34-1.955a18.325,18.325,0,0,1-1.238-3.091,31.38,31.38,0,0,1-1.382-8.649c-.235-5.322-.092-11.658.113-11.422.092-.092.174-.184.266-.287a7.307,7.307,0,0,0-.43-10.3,56.758,56.758,0,0,1-4.759-5.2c-.113-.143-.225-.3-.338-.45h0a27.539,27.539,0,0,1-1.883-2.917,24.577,24.577,0,0,1-1.269-2.6,2.59,2.59,0,0,1-.409,1.812l.471,2.027-1.812-1.627a16.058,16.058,0,0,1-7.42-2.518H87.227s-.379.143-.983.379a54.2,54.2,0,0,0-6.837,3.081c-5.077,11.074,3.408,20.7,2.968,30.009C81.465,246.894,78.7,248.838,78.7,248.838Z" transform="translate(-77.783 -203.62)" fill="#fff"/>
          </g>
          <g id="Grupo_1095184" data-name="Grupo 1095184" transform="translate(29.771 35.669)">
            <path id="Trazado_837119" data-name="Trazado 837119" d="M101.52,209.32h0c.082.522,4.729,29.8.706,41.872a23.735,23.735,0,0,0,2.733-.522c1.126-12.968.942-29.59-3.091-40.889-.051-.143-.1-.3-.154-.44A1.456,1.456,0,0,0,101.52,209.32Z" transform="translate(-101.52 -209.32)" fill="#f6f7f7"/>
          </g>
          <g id="Grupo_1095185" data-name="Grupo 1095185" transform="translate(27.663 30.767)">
            <path id="Trazado_837120" data-name="Trazado 837120" d="M105.54,233.372a156.657,156.657,0,0,1-.614,18.249c-.1,1.157-.225,2.272-.348,3.357-.01.082-.01.154-.02.235.113.061.225.113.338.164h0c3.152,1.423,8.209-.624,8.209-.624s-2.682-22.056-2.477-23.121c1.208-6.387-.481-15.864-5.322-21.9-.164-.2-.328-.409-.5-.614a46.039,46.039,0,0,0-5.343-4.585,30.685,30.685,0,0,1,2.293,4.913c2.139,5.783,3.245,13.019,3.644,20.46.051.85.082,1.7.113,2.549Z" transform="translate(-99.46 -204.53)" fill="#d1bbff"/>
          </g>
          <g id="Grupo_1095186" data-name="Grupo 1095186" transform="translate(2.024 30.234)">
            <path id="Trazado_837121" data-name="Trazado 837121" d="M74.41,256.117c1.545.389,3.05.727,4.534,1a46.187,46.187,0,0,0,9.437.9,22.431,22.431,0,0,0,11.8-3.255c.154-.1.307-.2.461-.3a122.133,122.133,0,0,0,2.006-13.572c.194-2.149.317-4.268.368-6.325.01-.3.01-.594.01-.89.02-.972.01-1.924-.01-2.856-.031-1.105-.082-2.17-.164-3.2-.061-.757-.133-1.484-.225-2.2a26.247,26.247,0,0,0-1.842-7.308c-.143-.3-.276-.573-.42-.839-3.9-7.267-14.053-13.265-14.053-13.265a63.4,63.4,0,0,0-7.738,3.623c-.553.89-.092,1.249-.43,2.18a15.337,15.337,0,0,0-.7,2.61c-.952,5.394.409,16.9.246,26.939a47.8,47.8,0,0,1-1.177,10.88,16.114,16.114,0,0,1-1.249,3.378,4.8,4.8,0,0,0-.235.573c-.072.184-.143.358-.2.553-.02.072-.051.143-.072.215A11.011,11.011,0,0,0,74.41,256.117Z" transform="translate(-74.41 -204.01)" fill="#d1bbff"/>
          </g>
          <g id="Grupo_1095187" data-name="Grupo 1095187" transform="translate(2.024 53.836)">
            <path id="Trazado_837122" data-name="Trazado 837122" d="M74.41,255.575c1.545.389,3.05.727,4.534,1a46.187,46.187,0,0,0,9.437.9c-1.2-4.565.522-7.635,3.06-10.1,6.121-5.947,11.535-12.251,11.566-13.357.01-.3.01-.594.01-.89.02-.972.01-1.924-.01-2.856-.031-1.105-.082-2.17-.164-3.2,0,0-14.636,15.68-19.14,15.158-2.385-.276-4.524-1.934-6.018-3.429a47.794,47.794,0,0,1-1.177,10.88,16.116,16.116,0,0,1-1.249,3.378,4.8,4.8,0,0,0-.235.573c-.072.184-.031.45-.2.553-.02.072-.051.143-.072.215C74.625,254.776,74.512,255.165,74.41,255.575Z" transform="translate(-74.41 -227.07)" fill="#7c3eff"/>
          </g>
          <g id="Grupo_1095188" data-name="Grupo 1095188" transform="translate(23.384 32.363)">
            <path id="Trazado_837123" data-name="Trazado 837123" d="M95.28,206.725l.2.061,3.081.931-1.812-1.627-.532.225c-.01,0-.01.01-.02.01Z" transform="translate(-95.28 -206.09)" fill="#bdbbdd"/>
          </g>
          <g id="Grupo_1095189" data-name="Grupo 1095189" transform="translate(13.927 27.798)">
            <path id="Trazado_837124" data-name="Trazado 837124" d="M86.04,204.066h0a95.3,95.3,0,0,0,7.154,6.53A20.053,20.053,0,0,1,95.7,206.9a4.6,4.6,0,0,1,.727-.45c.01,0,.01-.01.02-.01a4.873,4.873,0,0,1,.532-.225,16.058,16.058,0,0,1-7.42-2.518,6.83,6.83,0,0,1-2.088-2.067S86.286,202.039,86.04,204.066Z" transform="translate(-86.04 -201.63)" fill="#ebe3ff"/>
          </g>
          <g id="Grupo_1095190" data-name="Grupo 1095190" transform="translate(26.209 31.954)">
            <path id="Trazado_837125" data-name="Trazado 837125" d="M98.04,205.7l.471,2.027.85-1.433.133-.225-1.433-.379Z" transform="translate(-98.04 -205.69)" fill="#bdbbdd"/>
          </g>
          <g id="Grupo_1095191" data-name="Grupo 1095191" transform="translate(24.858 26.939)">
            <path id="Trazado_837126" data-name="Trazado 837126" d="M96.72,200.79a9.205,9.205,0,0,0,1.627,2.927s.031.02.092.072a5.79,5.79,0,0,0-1.719-3Z" transform="translate(-96.72 -200.79)" fill="#bdbbdd"/>
          </g>
          <g id="Grupo_1095192" data-name="Grupo 1095192" transform="translate(24.869 26.928)">
            <path id="Trazado_837127" data-name="Trazado 837127" d="M98.071,205.816l.02.01a9.154,9.154,0,0,1,1.3.594c.113.061.225.123.358.184s1.351.542,1.494.624a3.878,3.878,0,0,0-.072-1.822c-.563-3.06-4.329-4.6-4.442-4.626a5.9,5.9,0,0,1,1.719,3c.01.082.02.154.031.225h0A2.653,2.653,0,0,1,98.071,205.816Z" transform="translate(-96.73 -200.78)" fill="#ebe3ff"/>
          </g>
          <g id="Grupo_1095196" data-name="Grupo 1095196" transform="translate(11.425 0.007)">
            <g id="Grupo_1095194" data-name="Grupo 1095194">
              <g id="Grupo_1095193" data-name="Grupo 1095193">
                <path id="Trazado_837128" data-name="Trazado 837128" d="M106.844,187.816c-.287.553-.6,1.085-.942,1.617-.184.3-.368.583-.542.88-.921,1.494-6.069,3.326-7.431,4.442l-1.32,1.054-5.537-.583L89.588,196.4s-5.414,1.668-5.957-8.864c-.317-6.131,1.566-7.328,1.791-7.369h.01a6.76,6.76,0,0,1,.962-2.211,7.824,7.824,0,0,1,4.176-3.111,9.376,9.376,0,0,1,7.492,1.034c2.221,1.341,6.356,1.484,8.782,5.414A6.768,6.768,0,0,1,106.844,187.816Z" transform="translate(-83.595 -174.477)" fill="#153e67"/>
              </g>
            </g>
            <g id="Grupo_1095195" data-name="Grupo 1095195" transform="translate(11.625 8.027)">
              <path id="Trazado_837129" data-name="Trazado 837129" d="M101.1,190.61a16.047,16.047,0,0,1-3.429,3.961l-1.32,1.054a4.2,4.2,0,0,1-1.331-2.7c-.594-3.879,2.835-9.191,2.835-9.191s.747-1.76,1.76-1.351C102.4,183.507,101.275,190.324,101.1,190.61Z" transform="translate(-94.953 -182.32)" fill="#441312"/>
            </g>
          </g>
          <g id="Grupo_1095197" data-name="Grupo 1095197" transform="translate(24.817 5.638)">
            <path id="Trazado_837130" data-name="Trazado 837130" d="M96.68,180.922c5.22-2.784,9.938.89,8.618,7.113-1.443,6.837-8.157,5.23-8.157,5.23Z" transform="translate(-96.68 -179.978)"/>
          </g>
          <g id="Grupo_1095198" data-name="Grupo 1095198" transform="translate(16.343 5.172)">
            <path id="Trazado_837131" data-name="Trazado 837131" d="M88.4,180.871l2.559,16.089a1.83,1.83,0,0,0,1.371,1.474l7.144,1.73a1.852,1.852,0,0,0,1.7-.461l3.2-3.071a1.77,1.77,0,0,0,.532-1.566l-.092-.553-1.023-6.438-.594-3.736a5.77,5.77,0,0,0-6.591-4.749Z" transform="translate(-88.4 -179.524)" fill="#e9a59a"/>
          </g>
          <g id="Grupo_1095199" data-name="Grupo 1095199" transform="translate(30.77 15.158)">
            <path id="Trazado_837132" data-name="Trazado 837132" d="M102.5,191.4a2.233,2.233,0,0,0,1.842,2.047l-.665-4.166A2.266,2.266,0,0,0,102.5,191.4Z" transform="translate(-102.496 -189.28)" fill="#d66b5e"/>
          </g>
          <g id="Grupo_1095201" data-name="Grupo 1095201" transform="translate(27.363 11.47)">
            <g id="Grupo_1095200" data-name="Grupo 1095200">
              <path id="Trazado_837133" data-name="Trazado 837133" d="M99.559,193.07a.276.276,0,0,1-.123-.522l2.1-1.085-2.344-5.4a.273.273,0,1,1,.5-.215l2.446,5.64a.283.283,0,0,1-.123.358l-2.323,1.2A.353.353,0,0,1,99.559,193.07Z" transform="translate(-99.167 -185.677)" fill="#de7360"/>
            </g>
          </g>
          <g id="Grupo_1095203" data-name="Grupo 1095203" transform="translate(17.203 3.316)">
            <g id="Grupo_1095202" data-name="Grupo 1095202">
              <path id="Trazado_837134" data-name="Trazado 837134" d="M89.762,191.159l-.522-2.1c3.644-.9,6.018-2.456,7.072-4.616a7.544,7.544,0,0,0,.02-5.834l1.965-.9a9.7,9.7,0,0,1-.031,7.656C96.947,188.14,94.081,190.094,89.762,191.159Z" transform="translate(-89.24 -177.71)" fill="#153e67"/>
            </g>
          </g>
          <g id="Grupo_1095204" data-name="Grupo 1095204" transform="translate(13.702 3.081)">
            <path id="Trazado_837135" data-name="Trazado 837135" d="M88.174,190.427s10.133-2.8,9.969-10.9l-.87-2.047L85.82,179.691Z" transform="translate(-85.82 -177.48)" fill="#153e67"/>
          </g>
          <g id="Grupo_1095206" data-name="Grupo 1095206" transform="translate(14.791 2.17)">
            <g id="Grupo_1095205" data-name="Grupo 1095205">
              <path id="Trazado_837136" data-name="Trazado 837136" d="M87.965,189.855a1.063,1.063,0,0,1-.942-.553,1.081,1.081,0,0,1,.42-1.474,14.92,14.92,0,0,0,6.612-10.307,1.086,1.086,0,1,1,2.149.307,16.831,16.831,0,0,1-7.7,11.893A1.178,1.178,0,0,1,87.965,189.855Z" transform="translate(-86.884 -176.59)" fill="#154c7e"/>
            </g>
          </g>
          <g id="Grupo_1095207" data-name="Grupo 1095207" transform="translate(13.559 15.352)">
            <path id="Trazado_837137" data-name="Trazado 837137" d="M92.333,192.264a3.346,3.346,0,1,1-3.828-2.753A3.323,3.323,0,0,1,92.333,192.264Z" transform="translate(-85.68 -189.47)" fill="#e9a59a"/>
          </g>
          <g id="Grupo_1095208" data-name="Grupo 1095208" transform="translate(28.983 8.938)">
            <path id="Trazado_837138" data-name="Trazado 837138" d="M103.288,184.039c-.174.675-2.569.594-2.538-.051C100.8,182.9,103.554,182.964,103.288,184.039Z" transform="translate(-100.75 -183.203)" fill="#281c1c"/>
          </g>
          <g id="Grupo_1095209" data-name="Grupo 1095209" transform="translate(21.016 10.084)">
            <path id="Trazado_837139" data-name="Trazado 837139" d="M93.072,185.681c.409.573,2.61-.368,2.344-.962C94.966,183.737,92.417,184.781,93.072,185.681Z" transform="translate(-92.965 -184.323)" fill="#281c1c"/>
          </g>
          <g id="Grupo_1095210" data-name="Grupo 1095210" transform="translate(20.218 16.147)">
            <path id="Trazado_837140" data-name="Trazado 837140" d="M92.19,192.543a2.185,2.185,0,1,0,2.037-2.293A2.185,2.185,0,0,0,92.19,192.543Z" transform="translate(-92.186 -190.246)" fill="#d66b5e"/>
          </g>
          <g id="Grupo_1095211" data-name="Grupo 1095211" transform="translate(23.773 14.018)">
            <path id="Trazado_837141" data-name="Trazado 837141" d="M95.68,189.388c.1.614.471,1.064.829,1.013s.573-.6.481-1.218-.471-1.064-.829-1.013S95.588,188.774,95.68,189.388Z" transform="translate(-95.659 -188.166)" fill="#281c1c"/>
          </g>
          <g id="Grupo_1095212" data-name="Grupo 1095212" transform="translate(29.879 13.066)">
            <path id="Trazado_837142" data-name="Trazado 837142" d="M101.651,188.458c.1.614.471,1.064.829,1.013s.573-.6.481-1.218-.471-1.064-.829-1.013S101.548,187.844,101.651,188.458Z" transform="translate(-101.625 -187.236)" fill="#281c1c"/>
          </g>
          <g id="Grupo_1095213" data-name="Grupo 1095213" transform="translate(15.79 16.765)">
            <path id="Trazado_837143" data-name="Trazado 837143" d="M88.791,194.217a4.029,4.029,0,0,0-.061-1.719A4.749,4.749,0,0,0,87.86,191l.133-.154a2.529,2.529,0,0,1,1.218,1.5,2.479,2.479,0,0,1-.235,1.914Z" transform="translate(-87.86 -190.85)" fill="#d66b5e"/>
          </g>
          <g id="Grupo_1095214" data-name="Grupo 1095214" transform="translate(12.648 2.415)">
            <path id="Trazado_837144" data-name="Trazado 837144" d="M92.343,176.83s-7.011,2.671-6.223,8.454a14.454,14.454,0,0,0,3.93-3.091,10.718,10.718,0,0,1-5.261,6.172s6.274-.839,7.789-8.638l-3.326,1.2A9.99,9.99,0,0,1,92.343,176.83Z" transform="translate(-84.79 -176.83)" fill="#154c7e"/>
          </g>
          <g id="Grupo_1095215" data-name="Grupo 1095215" transform="translate(15.493 20.828)">
            <path id="Trazado_837145" data-name="Trazado 837145" d="M87.57,202a7.667,7.667,0,0,0,1.945,1.842,12.957,12.957,0,0,0,1.6.931c.061.031.123.061.194.092.133.061.266.123.4.174.2.092.42.174.645.256.174.061.348.123.532.184.082.031.164.051.246.082s.164.051.256.082a2.4,2.4,0,0,0,.256.072,21.521,21.521,0,0,0,3.306.645l1.812,1.627-.471-2.027a2.653,2.653,0,0,0,.409-1.812h0c-.041-.1-.082-.194-.123-.3a1.21,1.21,0,0,1-.235-.542,14.377,14.377,0,0,1,.051-3.777,2,2,0,0,0,.01-.328l-8.178-4.391C90.1,195.966,88.409,199.845,87.57,202Z" transform="translate(-87.57 -194.82)" fill="#e9a59a"/>
          </g>
          <g id="Grupo_1095216" data-name="Grupo 1095216" transform="translate(19.331 23.858)">
            <path id="Trazado_837146" data-name="Trazado 837146" d="M91.32,197.78s2.815,4.524,6.919,5.465a14.377,14.377,0,0,1,.051-3.777Z" transform="translate(-91.32 -197.78)" fill="#d66b5e"/>
          </g>
          <g id="Grupo_1095218" data-name="Grupo 1095218" transform="translate(26.305 20.108)">
            <g id="Grupo_1095217" data-name="Grupo 1095217">
              <path id="Trazado_837147" data-name="Trazado 837147" d="M98.406,195.451a.274.274,0,0,1-.256-.184.27.27,0,0,1,.164-.348c.113-.041,2.723-.993,3.93-.768a.275.275,0,0,1-.092.542,10.241,10.241,0,0,0-3.644.747C98.468,195.44,98.437,195.451,98.406,195.451Z" transform="translate(-98.134 -194.116)" fill="#de7360"/>
            </g>
          </g>
          <g id="Grupo_1095219" data-name="Grupo 1095219" transform="translate(50.118 91.03)">
            <path id="Trazado_837148" data-name="Trazado 837148" d="M148.635,263.41s6.52,3.869,3.449,15.486-13.766,30.541-21.5,44.881l-9.181-3.347,11.095-43.223Z" transform="translate(-121.4 -263.41)" fill="#e89994"/>
          </g>
          <g id="Grupo_1095220" data-name="Grupo 1095220" transform="translate(56.229 95.196)">
            <path id="Trazado_837149" data-name="Trazado 837149" d="M127.37,281.154l22.19,45.331,9.212-3.981-13.3-52.588s-1.023-1.934-1.7-2.272l-.43-.164Z" transform="translate(-127.37 -267.48)" fill="#e9a59a"/>
          </g>
          <g id="Grupo_1095233" data-name="Grupo 1095233" transform="translate(32.381 29.815)">
            <g id="Grupo_1095232" data-name="Grupo 1095232">
              <g id="Grupo_1095221" data-name="Grupo 1095221">
                <path id="Trazado_837150" data-name="Trazado 837150" d="M105.134,203.6l-1.064,27.092,22.22.849.573-14.636.491-12.456Z" transform="translate(-104.07 -203.6)" fill="#eff1f1"/>
              </g>
              <g id="Grupo_1095231" data-name="Grupo 1095231" transform="translate(1.501 2.509)">
                <g id="Grupo_1095222" data-name="Grupo 1095222" transform="translate(0.505 7.982)">
                  <path id="Trazado_837151" data-name="Trazado 837151" d="M106.071,213.85l-.041.911,18.884.727.041-.921Z" transform="translate(-106.03 -213.85)" fill="#c6e7ea"/>
                </g>
                <g id="Grupo_1095223" data-name="Grupo 1095223" transform="translate(0.618 5.321)">
                  <path id="Trazado_837152" data-name="Trazado 837152" d="M106.171,211.25l-.031.911,17.768.686.041-.921Z" transform="translate(-106.14 -211.25)" fill="#c6e7ea"/>
                </g>
                <g id="Grupo_1095224" data-name="Grupo 1095224" transform="translate(0.714 2.651)">
                  <rect id="Rectángulo_387450" data-name="Rectángulo 387450" width="0.921" height="18.894" transform="translate(0 0.92) rotate(-87.748)" fill="#c6e7ea"/>
                </g>
                <g id="Grupo_1095225" data-name="Grupo 1095225" transform="translate(0.836 0)">
                  <rect id="Rectángulo_387451" data-name="Rectángulo 387451" width="0.921" height="16.448" transform="translate(0 0.921) rotate(-87.805)" fill="#c6e7ea"/>
                </g>
                <g id="Grupo_1095226" data-name="Grupo 1095226" transform="translate(0.403 10.633)">
                  <path id="Trazado_837153" data-name="Trazado 837153" d="M105.93,217.351l17.778.686.031-.921-17.768-.676Z" transform="translate(-105.93 -216.44)" fill="#c6e7ea"/>
                </g>
                <g id="Grupo_1095227" data-name="Grupo 1095227" transform="translate(0.313 13.277)">
                  <rect id="Rectángulo_387452" data-name="Rectángulo 387452" width="0.921" height="18.894" transform="matrix(0.038, -0.999, 0.999, 0.038, 0, 0.921)" fill="#c6e7ea"/>
                </g>
                <g id="Grupo_1095228" data-name="Grupo 1095228" transform="translate(0.198 15.925)">
                  <path id="Trazado_837154" data-name="Trazado 837154" d="M105.73,222.531l17.215.655.031-.911-17.205-.665Z" transform="translate(-105.73 -221.61)" fill="#c6e7ea"/>
                </g>
                <g id="Grupo_1095229" data-name="Grupo 1095229" transform="translate(0.096 18.575)">
                  <path id="Trazado_837155" data-name="Trazado 837155" d="M105.63,225.121l18.873.727.041-.921-18.884-.727Z" transform="translate(-105.63 -224.2)" fill="#c6e7ea"/>
                </g>
                <g id="Grupo_1095230" data-name="Grupo 1095230" transform="translate(0 21.218)">
                  <rect id="Rectángulo_387453" data-name="Rectángulo 387453" width="0.921" height="18.894" transform="matrix(0.038, -0.999, 0.999, 0.038, 0, 0.921)" fill="#c6e7ea"/>
                </g>
              </g>
            </g>
          </g>
          <g id="Grupo_1095236" data-name="Grupo 1095236" transform="translate(29.034 37.88)">
            <g id="Grupo_1095234" data-name="Grupo 1095234">
              <path id="Trazado_837156" data-name="Trazado 837156" d="M112.929,211.48a59.881,59.881,0,0,0-7.021,2.068c-1.105.635-5.107,6.694-5.107,6.694a5.977,5.977,0,0,0,4.555,5.384,66.888,66.888,0,0,0,6.827-2.825c.829-.635,3.818-3.531,4.186-3.951s-1.351-.788-3.633.43c0,0,3.081-1.76,3.326-2.375s-.8-1.218-3.511-.061c0,0,2.211-1.638,2.528-2.436s-2.651-.542-3.94.061c0,0,2.272-1.4,2.467-2.19S112.929,211.48,112.929,211.48Z" transform="translate(-100.8 -211.48)" fill="#e9a59a"/>
            </g>
            <g id="Grupo_1095235" data-name="Grupo 1095235" transform="translate(0.01 5.21)">
              <path id="Trazado_837157" data-name="Trazado 837157" d="M100.81,220.111s1.187-1.8,2.446-3.541c.113,6.52,2.108,8.915,2.108,8.915A5.96,5.96,0,0,1,100.81,220.111Z" transform="translate(-100.81 -216.57)" fill="#d66b5e"/>
            </g>
          </g>
          <g id="Grupo_1095238" data-name="Grupo 1095238" transform="translate(43.765 44.084)">
            <g id="Grupo_1095237" data-name="Grupo 1095237">
              <path id="Trazado_837158" data-name="Trazado 837158" d="M123.92,218.553s3.633,10.573,3.306,15.987-6.97,8.024-10.163,4.544-1.331-18.965-1.331-18.965S116.92,215.575,123.92,218.553Z" transform="translate(-115.192 -217.541)" fill="#d1bbff"/>
            </g>
          </g>
          <g id="Grupo_1095246" data-name="Grupo 1095246" transform="translate(44.131 29.998)">
            <g id="Grupo_1095239" data-name="Grupo 1095239">
              <path id="Trazado_837159" data-name="Trazado 837159" d="M123.3,220.78s2.027-6.335,2.108-7.369-.8-6.632-2.385-9.048-1.341,3.439-1.341,3.439-.737-2.937-2.037-3.408.031,6.2.031,6.2-.819-4.2-1.945-4.585.1,6.5.1,6.5-.3-2.907-1.4-3.511-.9,4.575-.788,6.438-.6,4.329,1.893,5.68A4.981,4.981,0,0,0,123.3,220.78Z" transform="translate(-115.55 -203.779)" fill="#e9a59a"/>
            </g>
            <g id="Grupo_1095241" data-name="Grupo 1095241" transform="translate(1.552 6.344)">
              <g id="Grupo_1095240" data-name="Grupo 1095240">
                <path id="Trazado_837160" data-name="Trazado 837160" d="M117.582,213.839a.13.13,0,0,0,.061.01.23.23,0,0,0,.235-.225c.01-.983-.338-3.357-.348-3.449a.233.233,0,0,0-.266-.194.226.226,0,0,0-.194.266c0,.02.358,2.436.348,3.378A.221.221,0,0,0,117.582,213.839Z" transform="translate(-117.067 -209.977)" fill="#d66b5e"/>
              </g>
            </g>
            <g id="Grupo_1095243" data-name="Grupo 1095243" transform="translate(3.643 5.48)">
              <g id="Grupo_1095242" data-name="Grupo 1095242">
                <path id="Trazado_837161" data-name="Trazado 837161" d="M119.878,213.541a.13.13,0,0,0,.061.01.238.238,0,0,0,.246-.225,15.64,15.64,0,0,0-.614-4.022.236.236,0,0,0-.287-.164.229.229,0,0,0-.164.287,15.757,15.757,0,0,1,.6,3.889A.2.2,0,0,0,119.878,213.541Z" transform="translate(-119.11 -209.133)" fill="#d66b5e"/>
              </g>
            </g>
            <g id="Grupo_1095245" data-name="Grupo 1095245" transform="translate(5.904 3.787)">
              <g id="Grupo_1095244" data-name="Grupo 1095244">
                <path id="Trazado_837162" data-name="Trazado 837162" d="M122.21,212.915a.445.445,0,0,0,.051.01.233.233,0,0,0,.256-.215,14.4,14.4,0,0,0-.737-5.066.238.238,0,0,0-.3-.154.227.227,0,0,0-.154.287,14.143,14.143,0,0,1,.716,4.892A.21.21,0,0,0,122.21,212.915Z" transform="translate(-121.319 -207.479)" fill="#d66b5e"/>
              </g>
            </g>
          </g>
          <g id="Grupo_1095247" data-name="Grupo 1095247" transform="translate(12.619 40.449)">
            <path id="Trazado_837163" data-name="Trazado 837163" d="M101,219.046l-12.528,9.171c-.931.44-4.78-12.61-3.429-14.227.45,1.249,5.394,8.413,5.394,8.413S100.788,218.514,101,219.046Z" transform="translate(-84.762 -213.99)" fill="#7c3eff"/>
          </g>
          <g id="Grupo_1095248" data-name="Grupo 1095248" transform="translate(1.86 33.709)">
            <path id="Trazado_837164" data-name="Trazado 837164" d="M76.942,208.4c4.022-3.122,7.42,1.566,8.792,7.3a101.455,101.455,0,0,0,3.828,11.494,124.773,124.773,0,0,1,11.7-7.983s.276,1.515,2.671,3.644c2.948,2.62,3.111,3.03,3.111,3.03S99.838,238.218,93.2,242.844s-12.62,2.671-12.681,2.5c0,0-3.623-4.074-5.23-14.554S73.738,210.89,76.942,208.4Z" transform="translate(-74.25 -207.404)" fill="#d1bbff"/>
          </g>
          <g id="Grupo_1095249" data-name="Grupo 1095249" transform="translate(6.343 2.641)">
            <path id="Trazado_837165" data-name="Trazado 837165" d="M85.846,177.05a24.91,24.91,0,0,0-7.216,11.228l2.323-.5Z" transform="translate(-78.63 -177.05)" fill="#153e67"/>
          </g>
        </g>
        <g id="Grupo_1095307" data-name="Grupo 1095307" transform="translate(265.562 141.11)">
          <g id="Grupo_1095251" data-name="Grupo 1095251" transform="translate(19.461)">
            <path id="Trazado_837166" data-name="Trazado 837166" d="M304.352,264.959s-20.429-6.325-16.6-35.116,20-41.442,28.515-35.823,13.623,47.061,5.537,60.407S304.352,264.959,304.352,264.959Z" transform="translate(-287.273 -192.716)" fill="#009ecd"/>
          </g>
          <g id="Grupo_1095252" data-name="Grupo 1095252" transform="translate(34.383 28.345)">
            <path id="Trazado_837167" data-name="Trazado 837167" d="M308.7,220.41s-9.785,71.645-5.957,85.34l6.387-.348C309.117,305.4,302.73,269.221,308.7,220.41Z" transform="translate(-301.852 -220.41)" fill="#00769b"/>
          </g>
          <g id="Grupo_1095254" data-name="Grupo 1095254" transform="translate(40.894 11.296)">
            <g id="Grupo_1095253" data-name="Grupo 1095253" transform="translate(0 0)">
              <rect id="Rectángulo_387454" data-name="Rectángulo 387454" width="20.603" height="0.276" transform="translate(0 20.55) rotate(-85.837)" fill="#2c7e6d"/>
            </g>
          </g>
          <g id="Grupo_1095256" data-name="Grupo 1095256" transform="translate(34.125 18.908)">
            <g id="Grupo_1095255" data-name="Grupo 1095255">
              <path id="Trazado_837168" data-name="Trazado 837168" d="M307.076,232.591c-1.924-8.229-4.974-20.665-5.476-21.166l.01.01.133-.246c.133.072.45.246,3.07,10.839,1.29,5.21,2.518,10.44,2.528,10.491Z" transform="translate(-301.6 -211.19)" fill="#2c7e6d"/>
            </g>
          </g>
          <g id="Grupo_1095258" data-name="Grupo 1095258" transform="translate(40.076 25.795)">
            <g id="Grupo_1095257" data-name="Grupo 1095257" transform="translate(0 0)">
              <rect id="Rectángulo_387455" data-name="Rectángulo 387455" width="20.337" height="0.276" transform="matrix(0.67, -0.743, 0.743, 0.67, 0, 15.104)" fill="#2c7e6d"/>
            </g>
          </g>
          <g id="Grupo_1095260" data-name="Grupo 1095260" transform="translate(26.402 36.534)">
            <g id="Grupo_1095259" data-name="Grupo 1095259" transform="translate(0 0)">
              <rect id="Rectángulo_387456" data-name="Rectángulo 387456" width="0.276" height="22.466" transform="translate(0 0.134) rotate(-28.89)" fill="#2c7e6d"/>
            </g>
          </g>
          <g id="Grupo_1095262" data-name="Grupo 1095262" transform="translate(38.993 43.375)">
            <g id="Grupo_1095261" data-name="Grupo 1095261" transform="translate(0 0)">
              <rect id="Rectángulo_387457" data-name="Rectángulo 387457" width="23.428" height="0.276" transform="translate(0 18.079) rotate(-50.506)" fill="#2c7e6d"/>
            </g>
          </g>
          <g id="Grupo_1095273" data-name="Grupo 1095273" transform="translate(0 63.669)">
            <g id="Grupo_1095263" data-name="Grupo 1095263">
              <path id="Trazado_837169" data-name="Trazado 837169" d="M297.655,285.492s9.519-10.767-1.617-21.883-24.185-10.327-27.225-4.534,7.021,25.946,15.731,28.627S297.655,285.492,297.655,285.492Z" transform="translate(-268.259 -254.923)" fill="#009ecd"/>
            </g>
            <g id="Grupo_1095264" data-name="Grupo 1095264" transform="translate(13.061 13.17)">
              <path id="Trazado_837170" data-name="Trazado 837170" d="M281.02,267.79S308.88,295.343,311,302.845l-3.705,2.344S299.607,286.848,281.02,267.79Z" transform="translate(-281.02 -267.79)" fill="#2c7e6d"/>
            </g>
            <g id="Grupo_1095266" data-name="Grupo 1095266" transform="translate(13.959 6.281)">
              <g id="Grupo_1095265" data-name="Grupo 1095265">
                <path id="Trazado_837171" data-name="Trazado 837171" d="M285.431,272.646c-.01-.031-.952-2.8-1.853-5.588-1.842-5.7-1.719-5.9-1.648-6l.235.143a.032.032,0,0,0,.01-.02c-.092.491,2.057,7.072,3.521,11.381Z" transform="translate(-281.898 -261.06)" fill="#2c7e6d"/>
              </g>
            </g>
            <g id="Grupo_1095268" data-name="Grupo 1095268" transform="translate(5.209 16.887)">
              <g id="Grupo_1095267" data-name="Grupo 1095267" transform="translate(0 0)">
                <rect id="Rectángulo_387458" data-name="Rectángulo 387458" width="0.276" height="12.446" transform="translate(0 0.275) rotate(-84.065)" fill="#2c7e6d"/>
              </g>
            </g>
            <g id="Grupo_1095270" data-name="Grupo 1095270" transform="translate(23.764 11.041)">
              <g id="Grupo_1095269" data-name="Grupo 1095269" transform="translate(0 0)">
                <rect id="Rectángulo_387459" data-name="Rectángulo 387459" width="0.276" height="12.865" transform="matrix(1, -0.002, 0.002, 1, 0, 0.001)" fill="#2c7e6d"/>
              </g>
            </g>
            <g id="Grupo_1095272" data-name="Grupo 1095272" transform="translate(10.554 24.656)">
              <g id="Grupo_1095271" data-name="Grupo 1095271" transform="translate(0 0)">
                <rect id="Rectángulo_387460" data-name="Rectángulo 387460" width="0.276" height="14.186" transform="translate(0 0.273) rotate(-81.506)" fill="#2c7e6d"/>
              </g>
            </g>
          </g>
          <g id="Grupo_1095285" data-name="Grupo 1095285" transform="translate(0.719 25.166)">
            <g id="Grupo_1095274" data-name="Grupo 1095274">
              <path id="Trazado_837172" data-name="Trazado 837172" d="M294.466,268.895s-16.509,2.508-23.019-18.085.921-34.42,8.761-33.458,24.728,27.082,23.264,38.709S294.466,268.895,294.466,268.895Z" transform="translate(-268.961 -217.304)" fill="#a6eaff"/>
            </g>
            <g id="Grupo_1095275" data-name="Grupo 1095275" transform="translate(11.687 11.357)">
              <path id="Trazado_837173" data-name="Trazado 837173" d="M280.38,228.4s19.078,60.54,26.181,68.472l4.411-2.344C310.983,294.518,292.539,263,280.38,228.4Z" transform="translate(-280.38 -228.4)" fill="#6cc6b7"/>
            </g>
            <g id="Grupo_1095284" data-name="Grupo 1095284" transform="translate(6.795 14.741)">
              <g id="Grupo_1095277" data-name="Grupo 1095277" transform="translate(0 1.764)">
                <g id="Grupo_1095276" data-name="Grupo 1095276">
                  <path id="Trazado_837174" data-name="Trazado 837174" d="M286.244,246.091c-3.981-4.862-10.1-12.169-10.644-12.384h.02l.01-.276c.133.01.409.02,5.67,6.274,2.579,3.071,5.128,6.182,5.148,6.213Z" transform="translate(-275.6 -233.43)" fill="#6cc6b7"/>
                </g>
              </g>
              <g id="Grupo_1095279" data-name="Grupo 1095279" transform="translate(11.137 0)">
                <g id="Grupo_1095278" data-name="Grupo 1095278" transform="translate(0 0)">
                  <rect id="Rectángulo_387461" data-name="Rectángulo 387461" width="15.414" height="0.276" transform="matrix(0.313, -0.95, 0.95, 0.313, 0, 14.639)" fill="#6cc6b7"/>
                </g>
              </g>
              <g id="Grupo_1095281" data-name="Grupo 1095281" transform="translate(0.137 16.127)">
                <g id="Grupo_1095280" data-name="Grupo 1095280" transform="translate(0 0)">
                  <rect id="Rectángulo_387462" data-name="Rectángulo 387462" width="0.276" height="16.98" transform="matrix(0.566, -0.824, 0.824, 0.566, 0, 0.228)" fill="#6cc6b7"/>
                </g>
              </g>
              <g id="Grupo_1095283" data-name="Grupo 1095283" transform="translate(16.939 11.714)">
                <g id="Grupo_1095282" data-name="Grupo 1095282" transform="translate(0 0)">
                  <rect id="Rectángulo_387463" data-name="Rectángulo 387463" width="17.717" height="0.276" transform="translate(0 17.06) rotate(-74.353)" fill="#6cc6b7"/>
                </g>
              </g>
            </g>
          </g>
          <g id="Grupo_1095303" data-name="Grupo 1095303" transform="translate(35.65 41.13)">
            <g id="Grupo_1095288" data-name="Grupo 1095288">
              <g id="Grupo_1095286" data-name="Grupo 1095286" transform="translate(2.723)">
                <path id="Trazado_837175" data-name="Trazado 837175" d="M308.432,284.72s-12.681-20,17.113-44.185,18.126,16.826,18.126,16.826S332.5,294.842,308.432,284.72Z" transform="translate(-305.75 -232.901)" fill="#a6eaff"/>
              </g>
              <g id="Grupo_1095287" data-name="Grupo 1095287" transform="translate(0 16.344)">
                <path id="Trazado_837176" data-name="Trazado 837176" d="M303.09,293.781s12.313-28.842,30.593-44.911c0,0-21.821,25.219-26.744,47.02Z" transform="translate(-303.09 -248.87)" fill="#6cc6b7"/>
              </g>
            </g>
            <g id="Grupo_1095290" data-name="Grupo 1095290" transform="translate(20.521 9.54)">
              <g id="Grupo_1095289" data-name="Grupo 1095289" transform="translate(0 0)">
                <rect id="Rectángulo_387464" data-name="Rectángulo 387464" width="18.331" height="0.276" transform="translate(0 18.195) rotate(-83.038)" fill="#6cc6b7"/>
              </g>
            </g>
            <g id="Grupo_1095292" data-name="Grupo 1095292" transform="translate(22.49 17.841)">
              <g id="Grupo_1095291" data-name="Grupo 1095291" transform="translate(0 0)">
                <rect id="Rectángulo_387465" data-name="Rectángulo 387465" width="19.344" height="0.276" transform="matrix(0.913, -0.408, 0.408, 0.913, 0, 7.896)" fill="#6cc6b7"/>
              </g>
            </g>
            <g id="Grupo_1095294" data-name="Grupo 1095294" transform="translate(12.037 20.701)">
              <g id="Grupo_1095293" data-name="Grupo 1095293" transform="translate(0 0)">
                <rect id="Rectángulo_387466" data-name="Rectángulo 387466" width="0.276" height="17.922" transform="matrix(1, -0.029, 0.029, 1, 0, 0.008)" fill="#6cc6b7"/>
              </g>
            </g>
            <g id="Grupo_1095296" data-name="Grupo 1095296" transform="translate(14.345 32.541)">
              <g id="Grupo_1095295" data-name="Grupo 1095295" transform="translate(0 0)">
                <rect id="Rectángulo_387467" data-name="Rectángulo 387467" width="20.531" height="0.276" transform="matrix(0.974, -0.227, 0.227, 0.974, 0, 4.659)" fill="#6cc6b7"/>
              </g>
            </g>
            <g id="Grupo_1095298" data-name="Grupo 1095298" transform="translate(25.615 9.271)">
              <g id="Grupo_1095297" data-name="Grupo 1095297" transform="translate(0 0)">
                <rect id="Rectángulo_387468" data-name="Rectángulo 387468" width="15.997" height="0.276" transform="matrix(0.643, -0.766, 0.766, 0.643, 0, 12.249)" fill="#6cc6b7"/>
              </g>
            </g>
            <g id="Grupo_1095300" data-name="Grupo 1095300" transform="translate(7.481 43.586)">
              <g id="Grupo_1095299" data-name="Grupo 1095299" transform="translate(0 0)">
                <rect id="Rectángulo_387469" data-name="Rectángulo 387469" width="19.866" height="0.276" transform="translate(0 5.016) rotate(-14.625)" fill="#6cc6b7"/>
              </g>
            </g>
            <g id="Grupo_1095302" data-name="Grupo 1095302" transform="translate(4.847 34.351)">
              <g id="Grupo_1095301" data-name="Grupo 1095301" transform="translate(0 0)">
                <rect id="Rectángulo_387470" data-name="Rectángulo 387470" width="0.276" height="15.291" transform="translate(0 0.042) rotate(-8.685)" fill="#6cc6b7"/>
              </g>
            </g>
          </g>
          <g id="Grupo_1095305" data-name="Grupo 1095305" transform="translate(17.139 95.272)">
            <g id="Grupo_1095304" data-name="Grupo 1095304">
              <path id="Trazado_837177" data-name="Trazado 837177" d="M306.135,285.8H287.026c-1.31,0-2.272,1.638-1.965,3.337l6.97,39.251A2.246,2.246,0,0,0,294,330.466h22.947a2.238,2.238,0,0,0,1.965-2.078l6.97-39.251c.307-1.7-.665-3.337-1.965-3.337Z" transform="translate(-285.004 -285.8)" fill="#005afd"/>
            </g>
          </g>
          <g id="Grupo_1095306" data-name="Grupo 1095306" transform="translate(17.139 95.272)">
            <path id="Trazado_837178" data-name="Trazado 837178" d="M320.29,320.589c-.287-.358-.461-.563-.461-.563a53.7,53.7,0,0,1-16.56-2.487c-9.355-2.845-12.241-31.667-12.241-31.667l-.164-.072h-3.838c-1.31,0-2.272,1.638-1.965,3.337l6.97,39.251A2.246,2.246,0,0,0,294,330.466h22.947a2.238,2.238,0,0,0,1.965-2.078Z" transform="translate(-285.004 -285.8)" fill="#0046cc"/>
          </g>
        </g>
        <g id="Grupo_1095318" data-name="Grupo 1095318" transform="translate(322.464 259.594)">
          <g id="Grupo_1095316" data-name="Grupo 1095316">
            <g id="Grupo_1095308" data-name="Grupo 1095308" transform="translate(14.182)">
              <path id="Trazado_837179" data-name="Trazado 837179" d="M351.21,308.521l-13.5-.041,1.177,19.682,13.08-.154Z" transform="translate(-337.71 -308.48)" fill="#e9a59a" fill-rule="evenodd"/>
            </g>
            <g id="Grupo_1095315" data-name="Grupo 1095315" transform="translate(0 12.558)">
              <g id="Grupo_1095309" data-name="Grupo 1095309" transform="translate(0.014)">
                <path id="Trazado_837180" data-name="Trazado 837180" d="M351.208,333.861c-8.393.235-17.041.225-25.547.348a1.726,1.726,0,0,1-1.6-2.5c0-.01.01-.01.01-.02.061-.1.113-.2.174-.3a9.124,9.124,0,0,1,5.189-3.582c3.019-1.024,6.561-1.986,8.26-4.5a18.661,18.661,0,0,0,1.259-2.559c.542.031,2.467-.041,3.173.645.747.706.573,1.883.645,3.378,3.633-.2,4.544-3.766,9.4-3.071a59.507,59.507,0,0,1,.716,9.263c.01.379.01.757.02,1.146A1.753,1.753,0,0,1,351.208,333.861Z" transform="translate(-323.867 -320.75)" fill="#622fcf" fill-rule="evenodd"/>
              </g>
              <g id="Grupo_1095312" data-name="Grupo 1095312" transform="translate(9.679 2.704)">
                <g id="Grupo_1095310" data-name="Grupo 1095310" transform="translate(2.597)">
                  <path id="Trazado_837181" data-name="Trazado 837181" d="M340.589,325.028c-.246.563-1.586-.082-2.6-.235-.594-.092-2.016-.02-2.129-.553-.2-.962,1.924-.942,2.825-.727C339.565,323.717,340.947,324.209,340.589,325.028Z" transform="translate(-335.847 -323.392)" fill="#fff" fill-rule="evenodd"/>
                </g>
                <g id="Grupo_1095311" data-name="Grupo 1095311" transform="translate(0 1.951)">
                  <path id="Trazado_837182" data-name="Trazado 837182" d="M339.236,327.163c-.5.686-1.914-.1-2.917-.307-.522-.113-1.116-.174-1.627-.235-.491-.061-1.4.01-1.382-.409.041-.89,1.525-.983,2.559-.88C337.179,325.464,339.973,326.15,339.236,327.163Z" transform="translate(-333.31 -325.298)" fill="#fff" fill-rule="evenodd"/>
                </g>
              </g>
              <g id="Grupo_1095313" data-name="Grupo 1095313" transform="translate(0 6.161)">
                <path id="Trazado_837183" data-name="Trazado 837183" d="M332.089,326.77c-.89.317-1.8.614-2.661.9-2.241.768-4.2,1.8-5.363,3.879,0,.01-.01.01-.01.02a1.713,1.713,0,0,0,1.586,2.487c3.644-.051,7.308-.082,10.972-.113A8.447,8.447,0,0,0,332.089,326.77Z" transform="translate(-323.853 -326.77)" fill="#d1bbff"/>
              </g>
              <g id="Grupo_1095314" data-name="Grupo 1095314" transform="translate(23.077 5.148)">
                <path id="Trazado_837184" data-name="Trazado 837184" d="M346.4,333.835l4.278-.092a1.745,1.745,0,0,0,1.7-1.75c-.02-2.129-.082-4.217-.225-6.213A9.728,9.728,0,0,0,346.4,333.835Z" transform="translate(-346.4 -325.78)" fill="#d1bbff"/>
              </g>
            </g>
          </g>
          <g id="Grupo_1095317" data-name="Grupo 1095317" transform="translate(0.014 22.773)">
            <path id="Trazado_837185" data-name="Trazado 837185" d="M351.208,333.627c-8.393.235-17.041.225-25.547.348a1.726,1.726,0,0,1-1.6-2.5c0-.01.01-.01.01-.02.061-.1.113-.2.174-.3.676.348,2.426.788,7.533.931,6.786.194,17.123-.031,21.1-1.361.01.379.01.757.02,1.146A1.752,1.752,0,0,1,351.208,333.627Z" transform="translate(-323.867 -330.73)" fill="#48219b"/>
          </g>
        </g>
        <g id="Grupo_1095329" data-name="Grupo 1095329" transform="translate(354.315 259.594)">
          <g id="Grupo_1095327" data-name="Grupo 1095327">
            <g id="Grupo_1095319" data-name="Grupo 1095319" transform="translate(14.52)">
              <path id="Trazado_837186" data-name="Trazado 837186" d="M382.322,308.521l-13.162-.041.829,19.682,13.091-.154Z" transform="translate(-369.16 -308.48)" fill="#e9a59a" fill-rule="evenodd"/>
            </g>
            <g id="Grupo_1095326" data-name="Grupo 1095326" transform="translate(0 12.558)">
              <g id="Grupo_1095320" data-name="Grupo 1095320" transform="translate(0.004)">
                <path id="Trazado_837187" data-name="Trazado 837187" d="M382.318,333.861c-8.393.235-17.041.225-25.547.348a1.726,1.726,0,0,1-1.6-2.5c0-.01.01-.01.01-.02.061-.1.113-.2.174-.3a9.124,9.124,0,0,1,5.189-3.582c3.019-1.024,6.561-1.986,8.26-4.5a18.665,18.665,0,0,0,1.259-2.559c.542.031,2.467-.041,3.173.645.747.706.573,1.883.645,3.378,3.634-.2,4.544-3.766,9.4-3.071a59.5,59.5,0,0,1,.717,9.263c.01.379.01.757.02,1.146A1.739,1.739,0,0,1,382.318,333.861Z" transform="translate(-354.977 -320.75)" fill="#622fcf" fill-rule="evenodd"/>
              </g>
              <g id="Grupo_1095323" data-name="Grupo 1095323" transform="translate(9.668 2.704)">
                <g id="Grupo_1095321" data-name="Grupo 1095321" transform="translate(2.607)">
                  <path id="Trazado_837188" data-name="Trazado 837188" d="M371.709,325.028c-.246.563-1.586-.082-2.6-.235-.594-.092-2.016-.02-2.129-.553-.2-.962,1.924-.942,2.825-.727C370.685,323.717,372.067,324.209,371.709,325.028Z" transform="translate(-366.967 -323.392)" fill="#fff" fill-rule="evenodd"/>
                </g>
                <g id="Grupo_1095322" data-name="Grupo 1095322" transform="translate(0 1.951)">
                  <path id="Trazado_837189" data-name="Trazado 837189" d="M370.346,327.163c-.5.686-1.914-.1-2.917-.307-.522-.113-1.116-.174-1.627-.235-.491-.061-1.4.01-1.382-.409.041-.89,1.525-.983,2.559-.88C368.3,325.464,371.083,326.15,370.346,327.163Z" transform="translate(-364.42 -325.298)" fill="#fff" fill-rule="evenodd"/>
                </g>
              </g>
              <g id="Grupo_1095324" data-name="Grupo 1095324" transform="translate(0 6.161)">
                <path id="Trazado_837190" data-name="Trazado 837190" d="M363.209,326.77c-.89.317-1.8.614-2.661.9-2.241.768-4.2,1.8-5.363,3.879,0,.01-.01.01-.01.02a1.713,1.713,0,0,0,1.586,2.487c3.644-.051,7.308-.082,10.972-.113A8.447,8.447,0,0,0,363.209,326.77Z" transform="translate(-354.973 -326.77)" fill="#d1bbff"/>
              </g>
              <g id="Grupo_1095325" data-name="Grupo 1095325" transform="translate(23.077 5.148)">
                <path id="Trazado_837191" data-name="Trazado 837191" d="M377.52,333.835l4.278-.092a1.745,1.745,0,0,0,1.7-1.75c-.02-2.129-.082-4.217-.225-6.213A9.728,9.728,0,0,0,377.52,333.835Z" transform="translate(-377.52 -325.78)" fill="#d1bbff"/>
              </g>
            </g>
          </g>
          <g id="Grupo_1095328" data-name="Grupo 1095328" transform="translate(0.004 22.773)">
            <path id="Trazado_837192" data-name="Trazado 837192" d="M382.318,333.627c-8.393.235-17.041.225-25.547.348a1.726,1.726,0,0,1-1.6-2.5c0-.01.01-.01.01-.02.061-.1.113-.2.174-.3.676.348,2.426.788,7.533.931,6.786.194,17.123-.031,21.1-1.361.01.379.01.757.02,1.146A1.739,1.739,0,0,1,382.318,333.627Z" transform="translate(-354.977 -330.73)" fill="#48219b"/>
          </g>
        </g>
        <g id="Grupo_1095332" data-name="Grupo 1095332" transform="translate(337.823 94.248)">
          <g id="Grupo_1095331" data-name="Grupo 1095331">
            <g id="Grupo_1095330" data-name="Grupo 1095330">
              <path id="Trazado_837193" data-name="Trazado 837193" d="M340.436,148.117l.194-.358-1.576-.829-.194.358Z" transform="translate(-338.86 -146.93)" fill="#512944"/>
            </g>
          </g>
        </g>
        <g id="Grupo_1095333" data-name="Grupo 1095333" transform="translate(289.811 119.446)">
          <path id="Trazado_837194" data-name="Trazado 837194" d="M313.28,195.029,291.95,180.9l5.251-9.355,23.919,10.573C330.557,187.691,323.064,201.058,313.28,195.029Z" transform="translate(-291.95 -171.55)" fill="#00c4ff"/>
        </g>
        <g id="Grupo_1095334" data-name="Grupo 1095334" transform="translate(309.539 114.379)">
          <path id="Trazado_837195" data-name="Trazado 837195" d="M335.354,167.562a6.1,6.1,0,0,1,1.617-.727c3.941-1.085,8.679,1.679,10.583,6.161,1.453,3.429.829,6.868-1.3,8.782h0l-.031.02c-.42.379-22.722,13.848-22.722,13.848s-7.226,4.248-11.166-1.31c-3.562-5.506,2.59-10.389,2.59-10.389L334.3,168.4a5.738,5.738,0,0,1,.983-.809l.072-.031Z" transform="translate(-311.226 -166.6)" fill="#00c4ff"/>
        </g>
        <g id="Grupo_1095335" data-name="Grupo 1095335" transform="translate(331.964 167.622)">
          <path id="Trazado_837196" data-name="Trazado 837196" d="M385.492,314.88H367.018l-.942-3.674h0l-10.8-42.23-1.413,42.22-.123,3.685H335.1c-.123-1.228-.246-2.456-.358-3.674-3.05-32.353-1.914-63.375,4.882-92.586h36.59c2.006,31.729,6.9,62.526,9.027,92.648h0C385.329,312.475,385.41,313.673,385.492,314.88Z" transform="translate(-333.135 -218.62)" fill="#005afd"/>
        </g>
        <g id="Grupo_1095336" data-name="Grupo 1095336" transform="translate(341.068 177.755)">
          <path id="Trazado_837197" data-name="Trazado 837197" d="M354.875,268.785l.409-.082-7.666-37.829-.133-.031a12.658,12.658,0,0,1-5.2-2.323l-.256.328a8.5,8.5,0,0,0,4.022,5.025Z" transform="translate(-342.03 -228.52)" fill="#263b71"/>
        </g>
        <g id="Grupo_1095337" data-name="Grupo 1095337" transform="translate(331.617 108.585)">
          <path id="Trazado_837198" data-name="Trazado 837198" d="M340.006,164.758c-5.077,1.187-8.024,6.315-7.011,13.541l4.8,45.27s6.448,2.057,17.666-.5c6.192-1.412,25.076-5.24,25.076-5.24l-8.4-45.628c-1.034-7.339-7.267-12.64-15.363-10.941l-1.249.256c-4.473,4.381-7.8,4.544-10.44,2.18Z" transform="translate(-332.796 -160.939)" fill="#00c4ff"/>
        </g>
        <g id="Grupo_1095338" data-name="Grupo 1095338" transform="translate(333.576 260.168)">
          <path id="Trazado_837199" data-name="Trazado 837199" d="M353.839,309.071l-.123,3.685H335.068c-.123-1.228-.246-2.456-.358-3.674l.02-.041h19.109Z" transform="translate(-334.71 -309.04)" fill="#778cb1"/>
        </g>
        <g id="Grupo_1095339" data-name="Grupo 1095339" transform="translate(364.905 260.168)">
          <path id="Trazado_837200" data-name="Trazado 837200" d="M384.736,312.755H366.262l-.942-3.674h0l.01-.041h19.109l.041.092h0C384.572,310.35,384.654,311.548,384.736,312.755Z" transform="translate(-365.32 -309.04)" fill="#778cb1"/>
        </g>
        <g id="Grupo_1095340" data-name="Grupo 1095340" transform="translate(351.723 110.18)">
          <path id="Trazado_837201" data-name="Trazado 837201" d="M358.888,163.186c3.511-1.372,7.062-.624,9.068,1.617h0l1.617,1.822,14.053,20.286c2.334,2.845,4.514,6.663,2.2,12.374l-11.381,23.9-11.9-4.954,8.075-22.783-16.243-18.873a5.939,5.939,0,0,1-.85-1.034l-.051-.061.01-.01a6.266,6.266,0,0,1-.768-1.679C351.529,169.736,354.293,164.987,358.888,163.186Z" transform="translate(-352.441 -162.497)" fill="#00c4ff"/>
        </g>
        <g id="Grupo_1095341" data-name="Grupo 1095341" transform="translate(358.488 123.069)">
          <path id="Trazado_837202" data-name="Trazado 837202" d="M362.591,218.005l8.116-22.9L359.05,175.09l7.543,20.859L362.2,217.872Z" transform="translate(-359.05 -175.09)" fill="#009ecd"/>
        </g>
        <g id="Grupo_1095344" data-name="Grupo 1095344" transform="translate(343.663 106.56)">
          <g id="Grupo_1095343" data-name="Grupo 1095343">
            <g id="Grupo_1095342" data-name="Grupo 1095342">
              <path id="Trazado_837203" data-name="Trazado 837203" d="M344.652,165.951a2.946,2.946,0,0,0,3.4,2.958c5.251-.471,8.505-3.869,8.638-6.049,0,0-.389-1.719-.921-3.9l-11.2,2.016C344.539,162.552,344.7,164.507,344.652,165.951Z" transform="translate(-344.566 -158.96)" fill="#e9a59a"/>
            </g>
          </g>
        </g>
        <g id="Grupo_1095345" data-name="Grupo 1095345" transform="translate(343.933 99.304)">
          <path id="Trazado_837204" data-name="Trazado 837204" d="M344.83,153.446l.194,11.7a6.307,6.307,0,0,0,5.312,2.876c3.316.194,5.732-3.408,5.732-3.408l-.727-12.743Z" transform="translate(-344.83 -151.87)" fill="#e9a59a"/>
        </g>
        <g id="Grupo_1095346" data-name="Grupo 1095346" transform="translate(343.667 105.455)">
          <path id="Trazado_837205" data-name="Trazado 837205" d="M344.683,166.273a30.083,30.083,0,0,0,4.974-2.733,29.339,29.339,0,0,0,4.268-5.66l-9.355,4.012Z" transform="translate(-344.57 -157.88)" fill="#d66b5e"/>
        </g>
        <g id="Grupo_1095347" data-name="Grupo 1095347" transform="translate(336.288 89.11)">
          <path id="Trazado_837206" data-name="Trazado 837206" d="M337.36,142.186l.246,15.322a2.04,2.04,0,0,0,.921,1.679l4.258,2.856a2.114,2.114,0,0,0,2.016.184l7.789-3.357a2.064,2.064,0,0,0,1.259-1.945L353.6,141.91Z" transform="translate(-337.36 -141.91)" fill="#e9a59a"/>
        </g>
        <g id="Grupo_1095348" data-name="Grupo 1095348" transform="translate(336.421 97.481)">
          <path id="Trazado_837207" data-name="Trazado 837207" d="M337.49,150.09l.092,5.67a2.843,2.843,0,1,0-.092-5.67Z" transform="translate(-337.49 -150.089)" fill="#d66b5e"/>
        </g>
        <g id="Grupo_1095350" data-name="Grupo 1095350" transform="translate(340.105 93.285)">
          <g id="Grupo_1095349" data-name="Grupo 1095349">
            <path id="Trazado_837208" data-name="Trazado 837208" d="M341.315,153a.242.242,0,0,1-.164-.072.278.278,0,0,1-.061-.174l.573-6.561a.226.226,0,0,1,.45.041l-.553,6.315,2.108-.031a.225.225,0,0,1,0,.45l-2.354.031Z" transform="translate(-341.09 -145.989)" fill="#de7360"/>
          </g>
        </g>
        <g id="Grupo_1095351" data-name="Grupo 1095351" transform="translate(351.64 95.434)">
          <path id="Trazado_837209" data-name="Trazado 837209" d="M352.36,151.969a3.87,3.87,0,1,0,3.807-3.879A3.837,3.837,0,0,0,352.36,151.969Z" transform="translate(-352.36 -148.089)" fill="#e9a59a"/>
        </g>
        <g id="Grupo_1095352" data-name="Grupo 1095352" transform="translate(345.693 90.934)">
          <path id="Trazado_837210" data-name="Trazado 837210" d="M346.55,144.468c.031.88,2.978,1.4,3.122.6C349.9,143.731,346.509,143.076,346.55,144.468Z" transform="translate(-346.55 -143.693)" fill="#100f0e"/>
        </g>
        <g id="Grupo_1095353" data-name="Grupo 1095353" transform="translate(335.292 90.939)">
          <path id="Trazado_837211" data-name="Trazado 837211" d="M336.482,145.123c.42.7,3.04-.174,2.784-.88C338.846,143.055,335.817,144.017,336.482,145.123Z" transform="translate(-336.387 -143.697)" fill="#100f0e"/>
        </g>
        <g id="Grupo_1095354" data-name="Grupo 1095354" transform="translate(345.366 96.714)">
          <path id="Trazado_837212" data-name="Trazado 837212" d="M346.23,152.411a3.056,3.056,0,1,0,3.009-3.071A3.033,3.033,0,0,0,346.23,152.411Z" transform="translate(-346.229 -149.339)" fill="#d66b5e"/>
        </g>
        <g id="Grupo_1095355" data-name="Grupo 1095355" transform="translate(344.516 94.411)">
          <path id="Trazado_837213" data-name="Trazado 837213" d="M345.4,148.216c.02.6.338,1.1.7,1.075s.635-.522.6-1.126-.338-1.1-.7-1.075S345.38,147.6,345.4,148.216Z" transform="translate(-345.399 -147.089)" fill="#281c1c"/>
        </g>
        <g id="Grupo_1095356" data-name="Grupo 1095356" transform="translate(337.914 94.513)">
          <path id="Trazado_837214" data-name="Trazado 837214" d="M338.95,148.316c.02.6.338,1.1.7,1.075s.635-.522.6-1.126-.338-1.1-.7-1.075S338.93,147.7,338.95,148.316Z" transform="translate(-338.949 -147.189)" fill="#281c1c"/>
        </g>
        <g id="Grupo_1095361" data-name="Grupo 1095361" transform="translate(353.809 96.937)">
          <g id="Grupo_1095358" data-name="Grupo 1095358">
            <g id="Grupo_1095357" data-name="Grupo 1095357">
              <path id="Trazado_837215" data-name="Trazado 837215" d="M355.381,154.2a.257.257,0,0,1-.215-.1,3.183,3.183,0,0,1-.655-1.617c-.3-1.955,1.545-2.763,2.559-2.917a.279.279,0,0,1,.082.553h0c-.1.01-2.385.389-2.1,2.293a2.709,2.709,0,0,0,.542,1.351.277.277,0,0,1-.041.389A.344.344,0,0,1,355.381,154.2Z" transform="translate(-354.479 -149.557)" fill="#de7360"/>
            </g>
          </g>
          <g id="Grupo_1095360" data-name="Grupo 1095360" transform="translate(0.018 1.836)">
            <g id="Grupo_1095359" data-name="Grupo 1095359">
              <path id="Trazado_837216" data-name="Trazado 837216" d="M354.776,152.681a.289.289,0,0,1-.154-.041.27.27,0,0,1-.082-.379,1.8,1.8,0,0,1,2.5-.645.271.271,0,0,1,.092.379.279.279,0,0,1-.379.092,1.232,1.232,0,0,0-1.75.471A.267.267,0,0,1,354.776,152.681Z" transform="translate(-354.496 -151.351)" fill="#de7360"/>
            </g>
          </g>
        </g>
        <g id="Grupo_1095362" data-name="Grupo 1095362" transform="translate(332.765 80.072)">
          <path id="Trazado_837217" data-name="Trazado 837217" d="M337.635,137.6a2.573,2.573,0,0,1,1.453-3.818,10.964,10.964,0,0,1,7.738,0c3.981-1.044,7.482-.573,8.4,4.258a4,4,0,0,1,3.081,2.477,4.086,4.086,0,0,1-.154,3.285l-.645,1.331.3.645a3.151,3.151,0,0,1-1.259,3.992l-2.211,1.331a7.46,7.46,0,0,1-2.241-7.6c-3.449.686-4.821-.256-5.854-1.238-1.075,1.034-8,2.7-12.272.88-.461-.194,2.2-2.006,2.7-2.753C333.531,139.354,334.575,139.047,337.635,137.6Z" transform="translate(-333.918 -133.08)" fill="#26325a"/>
        </g>
        <g id="Grupo_1095363" data-name="Grupo 1095363" transform="translate(338.624 83.028)">
          <path id="Trazado_837218" data-name="Trazado 837218" d="M349.732,138.273s-1.146-1.924-2.692-2.129a3.041,3.041,0,0,0-2.508.839s-2.569-2.088-4.3-.276a1.985,1.985,0,0,0-.2,2.569s-.1-2.119,1.382-2.262a5.072,5.072,0,0,1,3.1,1.269s1.6-1.249,2.508-1.105A4.956,4.956,0,0,1,349.732,138.273Z" transform="translate(-339.642 -135.968)" fill="#485274"/>
        </g>
        <g id="Grupo_1095364" data-name="Grupo 1095364" transform="translate(352.152 86.612)">
          <path id="Trazado_837219" data-name="Trazado 837219" d="M353.351,139.47a1.822,1.822,0,0,0-.194,2.18,1.568,1.568,0,0,0,1.7.809,1.193,1.193,0,0,0,.092,1.29c.491.573,1.443-.041,1.443-.041s-1.709.276-.809-1.638c0,0-1.893-.184-2.057-1.392Z" transform="translate(-352.86 -139.47)" fill="#485274"/>
        </g>
        <g id="Grupo_1095368" data-name="Grupo 1095368" transform="translate(339.589 102.694)">
          <g id="Grupo_1095365" data-name="Grupo 1095365">
            <path id="Trazado_837220" data-name="Trazado 837220" d="M345.984,156.971a2.758,2.758,0,0,1-.276.327,3.353,3.353,0,0,1-2.753.88,2.985,2.985,0,0,1-1.218-.461,2.565,2.565,0,0,1-1.126-1.535.8.8,0,0,1,.368-.942.827.827,0,0,1,.276-.051,3.045,3.045,0,0,1,.522.072,7.342,7.342,0,0,0,2.835,0,2.636,2.636,0,0,1,.921-.061.765.765,0,0,1,.614.368A1.308,1.308,0,0,1,345.984,156.971Z" transform="translate(-340.586 -155.182)"/>
          </g>
          <g id="Grupo_1095366" data-name="Grupo 1095366" transform="translate(0.663 0)">
            <path id="Trazado_837221" data-name="Trazado 837221" d="M345.529,155.2a.927.927,0,0,1-.225.635,1.245,1.245,0,0,1-.675.307,6.218,6.218,0,0,1-2.712-.041.918.918,0,0,1-.563-.3.774.774,0,0,1-.1-.6,3.047,3.047,0,0,1,.522.072,7.342,7.342,0,0,0,2.835,0A2.432,2.432,0,0,1,345.529,155.2Z" transform="translate(-341.234 -155.182)" fill="#fff"/>
          </g>
          <g id="Grupo_1095367" data-name="Grupo 1095367" transform="translate(1.151 1.683)">
            <path id="Trazado_837222" data-name="Trazado 837222" d="M345.681,157.26a3.353,3.353,0,0,1-2.753.88,2.984,2.984,0,0,1-1.218-.461,2.42,2.42,0,0,1,1.545-.8A3.745,3.745,0,0,1,345.681,157.26Z" transform="translate(-341.71 -156.826)" fill="#d66b5e"/>
          </g>
        </g>
        <g id="Grupo_1095369" data-name="Grupo 1095369" transform="translate(320.874 124.472)">
          <path id="Trazado_837223" data-name="Trazado 837223" d="M333.927,176.46l.358,12.6L322.3,195.907l4.78-10.552Z" transform="translate(-322.3 -176.46)" fill="#009ecd"/>
        </g>
        <g id="Grupo_1095375" data-name="Grupo 1095375" transform="translate(188.946 38.716)">
          <g id="Grupo_1095370" data-name="Grupo 1095370" transform="translate(84.621 72.266)">
            <path id="Trazado_837224" data-name="Trazado 837224" d="M376.946,242.192l4.493-6.09L280.583,163.28l-4.5,6.09Z" transform="translate(-276.08 -163.28)" fill="#7c3eff"/>
          </g>
          <g id="Grupo_1095371" data-name="Grupo 1095371" transform="translate(3.764 3.568)" opacity="0.4">
            <ellipse id="Elipse_11110" data-name="Elipse 11110" cx="45.853" cy="45.31" rx="45.853" ry="45.31" fill="#fff"/>
          </g>
          <g id="Grupo_1095372" data-name="Grupo 1095372" transform="translate(2.854 2.647)" opacity="0.4">
            <path id="Trazado_837225" data-name="Trazado 837225" d="M196.19,157.97A48.647,48.647,0,0,0,203,170.641l2.723-2.692,2.743-2.712,58.524-57.828,5.465-5.4c-.174-.123-.348-.256-.522-.379a49.767,49.767,0,0,0-12.282-6.366l-3.009,2.968-3.091,3.05h0L202.29,151.931l-3.1,3.06Z" transform="translate(-196.19 -95.26)" fill="#fff"/>
          </g>
          <g id="Grupo_1095373" data-name="Grupo 1095373" transform="translate(14.235 13.905)" opacity="0.4">
            <path id="Trazado_837226" data-name="Trazado 837226" d="M207.31,175.674a48.655,48.655,0,0,0,6.428,5.425,49.717,49.717,0,0,0,12.671,6.5l3.019-2.989,3.111-3.07,50.96-50.356,3.1-3.06,3.04-3a48.43,48.43,0,0,0-12.067-18.863l-5.394,5.332-59.455,58.749-2.7,2.671Z" transform="translate(-207.31 -106.26)" fill="#fff"/>
          </g>
          <g id="Grupo_1095374" data-name="Grupo 1095374">
            <path id="Trazado_837227" data-name="Trazado 837227" d="M226.725,187.927c33.622,12.876,72.474-18.771,65.31-54.317-6.4-42.322-64.041-56.19-89.352-20.675C183.052,139,196.2,178.071,226.725,187.927Zm45.761-76.016c30.449,29.467,1.259,80.161-39.63,69.956-14.523-3.347-26.969-15.486-30.5-29.866C191.578,111.717,242.416,82.619,272.486,111.912Z" transform="translate(-193.402 -92.674)" fill="#7c3eff"/>
          </g>
        </g>
        <g id="Grupo_1095376" data-name="Grupo 1095376" transform="translate(357.763 166.159)">
          <path id="Trazado_837228" data-name="Trazado 837228" d="M372.966,221.335a15.369,15.369,0,0,1-.757,3.828c-.051.143-.123.328-.225.553-.839,2.037-3.142,7.144-3.93,6.632-.87-.573,1.136-4.688.7-4.749s-3.245,7.431-4.677,6.776c-.788-.358,2.917-6.776,2.456-6.755s-4.329,7.472-5.056,6.95c-1.269-.921,3.5-8.147,3.06-8.331s-3.541,6.806-4.473,6.131c-.768-.553,1.648-6.571,2.723-9.017a7.5,7.5,0,0,0,.491-1.617.769.769,0,0,0-.072-.082c-.993-.491-3.859,2.723-4.759,1.689-.471-.542.768-2.334,2.641-4.186l.031-.031c.491-.491,1.157-1.249,1.893-1.934Z" transform="translate(-358.342 -217.19)" fill="#fabc90"/>
        </g>
        <g id="Grupo_1095377" data-name="Grupo 1095377" transform="translate(360.504 166.169)">
          <path id="Trazado_837229" data-name="Trazado 837229" d="M372.9,221.335a15.367,15.367,0,0,1-.757,3.828c-.051.143-.123.328-.225.553-2.712-3.459-8.638-5.773-10.9-6.55l.031-.031c.491-.491,1.157-1.249,1.894-1.934Z" transform="translate(-361.02 -217.2)" fill="#d66b5e"/>
        </g>
        <g id="Grupo_1095382" data-name="Grupo 1095382" transform="translate(282.842 121.86)">
          <g id="Grupo_1095378" data-name="Grupo 1095378" transform="translate(4.783 4.394)">
            <path id="Trazado_837230" data-name="Trazado 837230" d="M293.054,180.462c-2.671,2.139-5.046-1.545-1.3-1.965l-.051.031C293.167,177.412,294.457,179.438,293.054,180.462Z" transform="translate(-289.815 -178.202)" fill="#f59271"/>
          </g>
          <g id="Grupo_1095379" data-name="Grupo 1095379" transform="translate(2.963 2.899)">
            <path id="Trazado_837231" data-name="Trazado 837231" d="M291.213,179.155c-3.47,1.842-4.473-2.794-1.105-2.17-.072.01.317-.082.246-.072C292.042,176.085,292.717,178.47,291.213,179.155Z" transform="translate(-288.036 -176.741)" fill="#f59271"/>
          </g>
          <g id="Grupo_1095380" data-name="Grupo 1095380" transform="translate(1.556 1.433)">
            <path id="Trazado_837232" data-name="Trazado 837232" d="M289.229,177.848l-1.29.246c-1.812.276-1.576-2.334-.051-2.518l1.29-.246C290.989,175.044,290.754,177.664,289.229,177.848Z" transform="translate(-286.662 -175.309)" fill="#f59271"/>
          </g>
          <g id="Grupo_1095381" data-name="Grupo 1095381">
            <path id="Trazado_837233" data-name="Trazado 837233" d="M287.709,176.448l-1.29.246c-1.812.276-1.576-2.334-.051-2.518l1.29-.246C289.469,173.644,289.224,176.254,287.709,176.448Z" transform="translate(-285.142 -173.909)" fill="#f59271"/>
          </g>
        </g>
        <g id="Grupo_1095383" data-name="Grupo 1095383" transform="translate(288.245 118.341)">
          <path id="Trazado_837234" data-name="Trazado 837234" d="M290.584,170.47s5.394.113,6.417,1.853l-1.361,2.016-5.22-3.818Z" transform="translate(-290.42 -170.47)" fill="#f59271"/>
        </g>
        <g id="Grupo_1095384" data-name="Grupo 1095384" transform="translate(121.362 217.631)">
          <path id="Trazado_837235" data-name="Trazado 837235" d="M143.337,267.48l-13.3,19.16-2.671-5.486Z" transform="translate(-127.37 -267.48)" fill="#d66b5e"/>
        </g>
        <g id="Grupo_1095385" data-name="Grupo 1095385" transform="translate(137.329 213.138)">
          <path id="Trazado_837236" data-name="Trazado 837236" d="M142.97,267.583s1.8.409,2.569,3.961l2.968-8.454Z" transform="translate(-142.97 -263.09)" fill="#d66b5e"/>
        </g>
      </g>
      <g id="Grupo_1095390" data-name="Grupo 1095390" transform="translate(33.996 3.378)">
        <g id="Grupo_1095387" data-name="Grupo 1095387" transform="translate(0 25.342)">
          <path id="Trazado_837237" data-name="Trazado 837237" d="M61.549,54.033a26.15,26.15,0,0,0,.962,7.031L45.316,71.135A45.857,45.857,0,0,1,46.892,33.45l16.929,9.918A26.146,26.146,0,0,0,61.549,54.033Z" transform="translate(-42.01 -33.45)" fill="#005afd"/>
        </g>
        <g id="Grupo_1095388" data-name="Grupo 1095388" transform="translate(10.184)">
          <path id="Trazado_837238" data-name="Trazado 837238" d="M114.087,54.615a26.366,26.366,0,0,0-44.942-18.73L51.96,25.813a45.91,45.91,0,0,1,78.359,45.9L113.125,61.646A26.15,26.15,0,0,0,114.087,54.615Z" transform="translate(-51.96 -8.69)" fill="#7c3eff"/>
        </g>
        <g id="Grupo_1095389" data-name="Grupo 1095389" transform="translate(7.891 61.748)">
          <path id="Trazado_837239" data-name="Trazado 837239" d="M87.753,79.583A26.343,26.343,0,0,0,108.848,69.02l16.919,9.918a45.894,45.894,0,0,1-76.046,0L66.639,69.02A26.427,26.427,0,0,0,87.753,79.583Z" transform="translate(-49.72 -69.02)" fill="#00c4ff"/>
        </g>
      </g>
      <g id="Grupo_1095401" data-name="Grupo 1095401" transform="translate(282.322 6.132)">
        <g id="Grupo_1095391" data-name="Grupo 1095391" transform="translate(0 0.007)">
          <rect id="Rectángulo_387471" data-name="Rectángulo 387471" width="89.086" height="113.701" transform="translate(89.086 113.701) rotate(180)" fill="#f0f9fc"/>
        </g>
        <g id="Grupo_1095392" data-name="Grupo 1095392" transform="translate(0)">
          <rect id="Rectángulo_387472" data-name="Rectángulo 387472" width="89.086" height="12.313" transform="translate(89.086 12.313) rotate(180)" fill="#005afd"/>
        </g>
        <g id="Grupo_1095393" data-name="Grupo 1095393" transform="translate(4.387 4.226)">
          <path id="Trazado_837240" data-name="Trazado 837240" d="M292.789,17.444a1.934,1.934,0,1,1-1.934-1.934A1.939,1.939,0,0,1,292.789,17.444Z" transform="translate(-288.92 -15.51)" fill="#f7f7f7"/>
        </g>
        <g id="Grupo_1095394" data-name="Grupo 1095394" transform="translate(11.726 4.226)">
          <path id="Trazado_837241" data-name="Trazado 837241" d="M299.959,17.444a1.934,1.934,0,1,1-1.934-1.934A1.939,1.939,0,0,1,299.959,17.444Z" transform="translate(-296.09 -15.51)" fill="#f7f7f7"/>
        </g>
        <g id="Grupo_1095395" data-name="Grupo 1095395" transform="translate(19.054 4.226)">
          <path id="Trazado_837242" data-name="Trazado 837242" d="M307.119,17.444a1.934,1.934,0,1,1-1.934-1.934A1.939,1.939,0,0,1,307.119,17.444Z" transform="translate(-303.25 -15.51)" fill="#f7f7f7"/>
        </g>
        <g id="Grupo_1095396" data-name="Grupo 1095396" transform="translate(26.853 4.226)">
          <path id="Trazado_837243" data-name="Trazado 837243" d="M367.234,19.379H312.8a1.939,1.939,0,0,1-1.934-1.934h0A1.939,1.939,0,0,1,312.8,15.51h54.43a1.939,1.939,0,0,1,1.934,1.934h0A1.933,1.933,0,0,1,367.234,19.379Z" transform="translate(-310.87 -15.51)" fill="#f7f7f7"/>
        </g>
        <g id="Grupo_1095400" data-name="Grupo 1095400" transform="translate(26.29 30.776)">
          <g id="Grupo_1095397" data-name="Grupo 1095397" transform="translate(28.853 11.873)">
            <path id="Trazado_837244" data-name="Trazado 837244" d="M339.441,60.092a10.815,10.815,0,0,0-.4-2.9l7.083-4.145a18.9,18.9,0,0,1-.645,15.516l-6.97-4.084A10.891,10.891,0,0,0,339.441,60.092Z" transform="translate(-338.51 -53.05)" fill="#ff2c60"/>
          </g>
          <g id="Grupo_1095398" data-name="Grupo 1095398" transform="translate(0 11.873)">
            <path id="Trazado_837245" data-name="Trazado 837245" d="M318.375,60.092A10.849,10.849,0,0,0,336.87,67.8l7.072,4.145A18.9,18.9,0,0,1,311.681,53.05l7.083,4.145A11.238,11.238,0,0,0,318.375,60.092Z" transform="translate(-310.32 -53.05)" fill="url(#linear-gradient-2)"/>
          </g>
          <g id="Grupo_1095399" data-name="Grupo 1095399" transform="translate(3.255)">
            <path id="Trazado_837246" data-name="Trazado 837246" d="M329.16,49.495a10.85,10.85,0,0,0-8.69,4.35l-6.97-4.084a18.889,18.889,0,0,1,31.3,0l-6.97,4.084A10.782,10.782,0,0,0,329.16,49.495Z" transform="translate(-313.5 -41.45)" fill="#005afd"/>
          </g>
        </g>
        <path id="Trazado_837247" data-name="Trazado 837247" d="M366.6,95.773H291.931a1.361,1.361,0,0,1-1.361-1.361h0a1.361,1.361,0,0,1,1.361-1.361H366.6a1.361,1.361,0,0,1,1.361,1.361h0A1.354,1.354,0,0,1,366.6,95.773Z" transform="translate(-284.494 -9.462)" fill="#a6c5fe"/>
        <path id="Trazado_837248" data-name="Trazado 837248" d="M366.6,102.963H291.931a1.361,1.361,0,0,1-1.361-1.361h0a1.361,1.361,0,0,1,1.361-1.361H366.6a1.361,1.361,0,0,1,1.361,1.361h0A1.361,1.361,0,0,1,366.6,102.963Z" transform="translate(-284.494 -9.293)" fill="#a6c5fe"/>
        <path id="Trazado_837249" data-name="Trazado 837249" d="M366.6,110.143H291.931a1.361,1.361,0,0,1-1.361-1.361h0a1.361,1.361,0,0,1,1.361-1.361H366.6a1.361,1.361,0,0,1,1.361,1.361h0A1.354,1.354,0,0,1,366.6,110.143Z" transform="translate(-284.494 -9.124)" fill="#a6c5fe"/>
        <path id="Trazado_837250" data-name="Trazado 837250" d="M366.6,117.333H291.931a1.361,1.361,0,0,1-1.361-1.361h0a1.361,1.361,0,0,1,1.361-1.361H366.6a1.361,1.361,0,0,1,1.361,1.361h0A1.354,1.354,0,0,1,366.6,117.333Z" transform="translate(-284.494 -8.955)" fill="#a6c5fe"/>
      </g>
    </g>
  </g>
</svg>
