<svg xmlns="http://www.w3.org/2000/svg" width="80.78" height="80.78" viewBox="0 0 80.78 80.78">
  <g id="n2" transform="translate(-1127.11 -2020.659)">
    <path id="Trazado_832002" data-name="Trazado 832002" d="M187.89,80.049a40.39,40.39,0,1,1-40.39-40.39,40.39,40.39,0,0,1,40.39,40.39" transform="translate(1020 1981)" fill="#1e5af9"/>
    <path id="Trazado_838592" data-name="Trazado 838592" d="M27.817,0H2.24V-5.538L14.022-17.924q4.355-4.959,4.355-7.879a5.481,5.481,0,0,0-1.032-3.6,3.685,3.685,0,0,0-3-1.234A3.731,3.731,0,0,0,11.2-28.988a6.777,6.777,0,0,0-1.208,4.116H1.485A12.037,12.037,0,0,1,3.172-31.1a11.828,11.828,0,0,1,4.682-4.468,13.909,13.909,0,0,1,6.7-1.611q5.941,0,9.151,2.744t3.21,7.879a11.442,11.442,0,0,1-.806,4.217,18.492,18.492,0,0,1-2.5,4.3,63.1,63.1,0,0,1-5.475,6.029L13.393-6.545H27.817Z" transform="translate(1152.572 2079.172)" fill="#fff"/>
  </g>
</svg>
