<svg xmlns="http://www.w3.org/2000/svg" width="80.78" height="80.78" viewBox="0 0 80.78 80.78">
  <g id="n6" transform="translate(1853.89 9680.341)">
    <path id="Trazado_832002" data-name="Trazado 832002" d="M187.89,80.049a40.39,40.39,0,1,1-40.39-40.39,40.39,40.39,0,0,1,40.39,40.39" transform="translate(-1961 -9720)" fill="#1e5af9"/>
    <path id="Trazado_838596" data-name="Trazado 838596" d="M22.732-37.182v6.671h-.378a12.736,12.736,0,0,0-7.817,2.278A9.619,9.619,0,0,0,10.774-21.9a9.921,9.921,0,0,1,7.25-2.819A9.254,9.254,0,0,1,25.6-21.247a14.012,14.012,0,0,1,2.819,9.113,12.831,12.831,0,0,1-1.649,6.419,11.766,11.766,0,0,1-4.607,4.569A13.238,13.238,0,0,1,15.608.5,13.681,13.681,0,0,1,8.635-1.271,12.2,12.2,0,0,1,3.852-6.344a16.7,16.7,0,0,1-1.762-7.6v-3.4A21.159,21.159,0,0,1,4.519-27.528a17.611,17.611,0,0,1,6.935-7.086,19.829,19.829,0,0,1,9.994-2.568ZM15.079-18.226a4.854,4.854,0,0,0-2.819.78,4.955,4.955,0,0,0-1.687,1.913v2.543q0,6.948,4.808,6.948a3.9,3.9,0,0,0,3.235-1.737,7.079,7.079,0,0,0,1.3-4.355,6.948,6.948,0,0,0-1.322-4.393A4.227,4.227,0,0,0,15.079-18.226Z" transform="translate(-1828.428 -9621.828)" fill="#fff"/>
  </g>
</svg>
