<svg xmlns="http://www.w3.org/2000/svg" xmlns:xlink="http://www.w3.org/1999/xlink" width="190" height="195" viewBox="0 0 190 195">
  <defs>
    <clipPath id="clip-path">
      <rect id="Rectángulo_387379" data-name="Rectángulo 387379" width="25.79" height="5.48" transform="translate(20.49 46.72)"/>
    </clipPath>
    <clipPath id="clip-path-2">
      <rect id="Rectángulo_387380" data-name="Rectángulo 387380" width="16.52" height="6.01" transform="translate(20.49 46.72)"/>
    </clipPath>
    <clipPath id="clip-path-3">
      <path id="Trazado_836437" data-name="Trazado 836437" d="M21.73,50.42s.81-.87,3.01-.27,11.97,3.09,12.27,2.49-7.69-5.67-9.43-5.83-7.1-.11-7.09.15,1.24,3.46,1.24,3.46"/>
    </clipPath>
    <linearGradient id="linear-gradient" x1="-61.131" y1="85.224" x2="-61.127" y2="85.224" gradientUnits="objectBoundingBox">
      <stop offset="0" stop-color="gray"/>
      <stop offset="1" stop-color="#d6d6d6"/>
    </linearGradient>
    <clipPath id="clip-path-4">
      <path id="Trazado_836438" data-name="Trazado 836438" d="M27.58,46.81c-1.74-.16-7.1-.11-7.09.15s1.24,3.46,1.24,3.46a2.575,2.575,0,0,1,2.21-.44,3.75,3.75,0,0,1-.04-2.2,26.935,26.935,0,0,1,7.64.87,15.2,15.2,0,0,0-3.96-1.84"/>
    </clipPath>
    <linearGradient id="linear-gradient-2" x1="-95.212" y1="157.701" x2="-95.202" y2="157.701" xlink:href="#linear-gradient"/>
    <clipPath id="clip-path-6">
      <rect id="Rectángulo_387381" data-name="Rectángulo 387381" width="8.18" height="9.87" transform="translate(20.49 46.72)"/>
    </clipPath>
  </defs>
  <g id="_12" data-name="12" transform="translate(-8.22 -7.281)">
    <g id="Grupo_1072005" transform="translate(0 0.001)">
      <path id="Rectángulo_381506" d="M18.22,7.28h170a10,10,0,0,1,10,10v175a10,10,0,0,1-10,10h-170a10,10,0,0,1-10-10v-175A10,10,0,0,1,18.22,7.28Z" fill="#e9e2fe"/>
    </g>
    <path id="Trazado_836436" data-name="Trazado 836436" d="M20.49,127.25a61.228,61.228,0,0,0-12.27,1.23v35.49a27.555,27.555,0,0,1,39.82,24.67h0a27.519,27.519,0,0,1-3.61,13.64H80.34a61.368,61.368,0,0,0-59.85-75.03Z" fill="#6e40fb" opacity="0.856"/>
    <g id="Grupo_1072675" transform="translate(27 29.789)">
      <path id="Trazado_813500" d="M76.22,7.28a68,68,0,1,0,68,68A67.994,67.994,0,0,0,76.22,7.28Z" fill="#ccbcfd"/>
    </g>
    <g id="Grupo_1093794">
      <g id="Grupo_1093793" transform="translate(0 0.001)">
        <g id="Grupo_1094556" data-name="Grupo 1094556">
          <g id="Grupo_1093792">
            <g id="Grupo_1093736" transform="translate(22.362 18.645)" opacity="0.1">
              <g id="Grupo_1093735">
                <g id="Grupo_1094536" data-name="Grupo 1094536">
                  <g id="Grupo_1093734">
                    <path id="Trazado_833441" d="M44.73,132.25c7.67-2.81,9.83-13.26,6.64-20.73S41.39,98.84,35.11,93.63,22.5,82.36,20.86,74.41c-2.29-11.14,6.21-22.58,17.07-26.15s23.04-.56,32.82,5.34c8.59,5.18,16.02,12.57,25.62,15.51,11.92,3.64,26.05.03,36.37,7a19.582,19.582,0,0,1,5.6,25.98,38.578,38.578,0,0,1-13.42,12.54,63.783,63.783,0,0,1-16.26,6.28c-5.77,1.45-11.7,2.08-17.34,4.05-.71.25-1.42.52-2.11.81-14.45,6.04-29.83,14.11-44.35,8.23Z" fill="#1e5af9"/>
                  </g>
                </g>
              </g>
            </g>
            <g id="Grupo_1093739" transform="translate(21.912 65.452)" opacity="0.1">
              <g id="Grupo_1093738">
                <g id="Grupo_1094537" data-name="Grupo 1094537">
                  <g id="Grupo_1093737">
                    <path id="Trazado_833442" d="M25.75,48.05c6.76,6.17,13.65,12.5,17.93,20.59,1.38,2.6,2.48,5.6,1.74,8.45s-4.07,5.13-6.7,3.82c-2.83-1.42-2.82-5.34-3.41-8.46-1.44-7.71-8.39-12.92-13.14-19.15a7.7,7.7,0,0,1-1.62-3.1,3.046,3.046,0,0,1,1.12-3.13,3.1,3.1,0,0,1,3.46.42,9.012,9.012,0,0,1,2.17,2.98Z" fill="#6e40fb"/>
                  </g>
                </g>
              </g>
            </g>
            <g id="Grupo_1093742" transform="translate(113.365 97.061)" opacity="0.1">
              <g id="Grupo_1093741">
                <g id="Grupo_1094538" data-name="Grupo 1094538">
                  <g id="Grupo_1093740">
                    <path id="Trazado_833443" d="M21.75,50.49a22.031,22.031,0,0,1,10.26-3.73c1.46-.14,3.28.08,3.82,1.44a2.5,2.5,0,0,1-.54,2.45,6.887,6.887,0,0,1-2.13,1.53,60.99,60.99,0,0,1-7.85,3.47,4.473,4.473,0,0,1-2.86.34,3.162,3.162,0,0,1-1.94-2.68,9.144,9.144,0,0,1,.45-3.44Z" fill="#6e40fb"/>
                  </g>
                </g>
              </g>
            </g>
            <path id="Trazado_833444" d="M116.24,138.37h0" fill="#27356b"/>
            <path id="Trazado_833445" d="M116.86,139.18h0c.07.09.14.19.22.29-.07-.09-.14-.19-.22-.29" fill="#e8eaf1"/>
            <path id="Trazado_833446" d="M117.31,139.78c-.08-.11-.16-.21-.23-.3.08.11.16.21.23.3" fill="#e8eaf1"/>
            <path id="Trazado_833447" d="M117.38,139.88a.864.864,0,0,1-.07-.1l.07.1" fill="#e8eaf1"/>
            <path id="Trazado_833448" d="M117.53,140.07l-.1-.14.1.14" fill="#e8eaf1"/>
            <path id="Trazado_833449" d="M117.43,139.93c-.02-.02-.03-.04-.05-.06.02.03.03.05.05.06" fill="#e8eaf1"/>
            <path id="Trazado_833450" d="M141.65,116.18c-7.38,0-12.88-3.8-16.38-11.3a2.493,2.493,0,0,1,0-1.86c.14-.48.18-.68.04-.91-3.33-5.56.26-9.82,3.74-13.94,3.7-4.39,7.2-8.53,4.16-14.61l-.08-.29c-.78-10.35-7.2-10.72-7.47-10.73l-.37-.02-.22-.3a47.93,47.93,0,0,0-8.34-8.44c-4.24-3.29-13.16-7.98-25.3-2.35-2.12.98-3.63,1.68-4.71,2.16-7.52,4.36-7.18,10.66-6.87,16.76.28,5.44.57,11.06-5.01,14.55a41.224,41.224,0,0,1-7.94,4.18,38.06,38.06,0,0,0-7.24,3.78c-2.81,1.75-6.54,1.84-9.25,1.91-.82.02-1.56.04-2.18.1-8.28,1.21-11.28-1.63-14.16-4.38-2.36-2.24-4.59-4.36-9.91-4.36V84.6c5.95,0,8.5,2.43,10.98,4.79,2.74,2.6,5.32,5.07,12.91,3.96.69-.07,1.47-.09,2.33-.11,2.68-.07,6.02-.15,8.47-1.68a39.768,39.768,0,0,1,7.49-3.9,40.613,40.613,0,0,0,7.69-4.05c4.81-3.01,4.57-7.71,4.28-13.16-.29-5.65-.62-11.92,5.31-16.63-.06-.24.04-.42.58-.75l-.01-.03c.03-.01.08-.03.19-.08.56-.31,1.49-.76,2.97-1.47.12-.06.25-.12.38-.18l.7-.33.06.1c.66-.3,1.41-.65,2.28-1.05,12.87-5.97,22.38-.98,26.9,2.53a49.8,49.8,0,0,1,8.44,8.48c1.63.24,7.74,1.83,8.56,11.97,3.37,6.92-.77,11.83-4.43,16.16-3.41,4.04-6.36,7.53-3.59,12.14a2.488,2.488,0,0,1,.12,2.13c-.11.38-.17.6-.08.78,3.42,7.34,8.89,10.83,16.28,10.36a22.5,22.5,0,0,0,9.12-2.18,22.373,22.373,0,0,1,3.23-1.19c2.09-.65,4.05-1.27,4.74-2.76,4-8.75,9.34-9.1,13.62-9.37,3.29-.21,5.66-.36,7.09-3.78l1.43.6c-1.8,4.31-5.16,4.53-8.42,4.73-4.27.27-8.7.56-12.31,8.47-.97,2.12-3.37,2.87-5.68,3.59a21.231,21.231,0,0,0-3.01,1.1,24.4,24.4,0,0,1-9.71,2.34c-.49.04-.96.05-1.42.05" fill="#fff"/>
            <path id="Trazado_833451" d="M140.24,61.83a14.615,14.615,0,1,1-14.61-14.62h0a14.624,14.624,0,0,1,14.61,14.62h0" fill="#005afd"/>
            <path id="Trazado_833452" d="M75.85,87.34A14.94,14.94,0,1,1,60.91,72.4,14.941,14.941,0,0,1,75.85,87.34h0" fill="#005afd"/>
            <path id="Trazado_833453" d="M73.92,87.34A13.01,13.01,0,1,1,60.91,74.33h0A13,13,0,0,1,73.92,87.34h0" fill="#fff"/>
            <path id="Trazado_833454" d="M165.14,111.18a12.665,12.665,0,1,1-12.67-12.66h.01a12.656,12.656,0,0,1,12.66,12.66" fill="#005afd"/>
            <path id="Trazado_833455" d="M163.45,111.18a10.96,10.96,0,1,1-10.96-10.96,10.964,10.964,0,0,1,10.96,10.96h0" fill="#fff"/>
            <path id="Trazado_833456" d="M93.36,52.02a5.3,5.3,0,1,1-5.3-5.3h0a5.3,5.3,0,0,1,5.3,5.3" fill="#00c4ff"/>
            <path id="Trazado_833457" d="M131.28,101.43a5.3,5.3,0,1,1-5.3-5.3,5.3,5.3,0,0,1,5.3,5.3h0" fill="#00c4ff"/>
            <path id="Trazado_833458" d="M185.95,95.37a3.65,3.65,0,1,1-3.65-3.65,3.645,3.645,0,0,1,3.65,3.65h0" fill="#00c4ff"/>
            <path id="Trazado_833459" d="M27.79,85.37a3.65,3.65,0,1,1-3.65-3.65h0a3.651,3.651,0,0,1,3.65,3.65" fill="#00c4ff"/>
            <path id="Trazado_833460" d="M137.97,151.84c-5.54-5.99-30.31-16.67-30.31-16.67l-6.46,1.06-6.46-1.06s-29.08,12.54-31.26,18.07l1.74,7.42s26.64,1.59,36.06,1.34c3.14-.09,26.67,1.08,30.49,1.1,4.84.03,8.04-.69,8.59-5.23.21-1.69.4-4.37-2.39-6.03" fill="#009ecd"/>
            <g id="Grupo_1093745" transform="translate(78.131 103.274)">
              <g id="Grupo_1093744">
                <g id="Grupo_1094539" data-name="Grupo 1094539">
                  <g id="Grupo_1093743" clip-path="url(#clip-path)">
                    <path id="Trazado_833461" d="M20.79,50.01s15.63-3.39,25.49-3.29c0,0-15.44,1.69-25.79,5.48Z" fill="#656565"/>
                  </g>
                </g>
              </g>
            </g>
            <path id="Trazado_833462" d="M112.37,156.87s10.57,2.96,11.1,1.94c1.05-2.04-9.58-7.66-12.58-8.95-1.25-.54-6.1.57-6.19,2.68-.11,2.51,7.67,4.33,7.67,4.33" fill="#5f698f"/>
            <path id="Trazado_833463" d="M103,155.38s.81-.87,3.01-.27,11.96,3.09,12.26,2.49-7.69-5.67-9.43-5.83-7.1-.11-7.09.15,1.25,3.46,1.25,3.46" fill="#f4af9f"/>
            <path id="Trazado_833464" d="M108.85,151.76c-1.74-.16-7.1-.1-7.09.15s1.24,3.46,1.24,3.46a2.575,2.575,0,0,1,2.21-.44,3.749,3.749,0,0,1-.04-2.2,26.935,26.935,0,0,1,7.64.87,15.526,15.526,0,0,0-3.96-1.84" fill="#e1708b"/>
            <g id="Grupo_1093754" transform="translate(81.27 104.952)" opacity="0.72">
              <g id="Grupo_1093753">
                <g id="Grupo_1094543" data-name="Grupo 1094543">
                  <g id="Grupo_1093752" clip-path="url(#clip-path-2)">
                    <g id="Grupo_1093747">
                      <g id="Grupo_1094540" data-name="Grupo 1094540">
                        <g id="Grupo_1093746" clip-path="url(#clip-path-3)">
                          <rect id="Rectángulo_387014" width="16.83" height="6.59" transform="translate(20.48 46.65)" fill="url(#linear-gradient)"/>
                        </g>
                      </g>
                    </g>
                    <g id="Grupo_1093749">
                      <g id="Grupo_1094541" data-name="Grupo 1094541">
                        <g id="Grupo_1093748" clip-path="url(#clip-path-4)">
                          <rect id="Rectángulo_387015" width="11.06" height="3.77" transform="translate(20.48 46.65)" fill="url(#linear-gradient-2)"/>
                        </g>
                      </g>
                    </g>
                    <g id="Grupo_1093751">
                      <g id="Grupo_1094542" data-name="Grupo 1094542">
                        <g id="Grupo_1093750" clip-path="url(#clip-path-4)">
                          <rect id="Rectángulo_387016" width="11.06" height="3.77" transform="translate(20.48 46.65)" fill="url(#linear-gradient-2)"/>
                        </g>
                      </g>
                    </g>
                  </g>
                </g>
              </g>
            </g>
            <path id="Trazado_833468" d="M62.35,157.86c-.24-1.99-.46-5.36,4.2-6.82s36.79-2,36.79-2l1.16,9.32s-24.42,5-33.44,5.05c-4.85.03-8.15-1.01-8.71-5.55" fill="#473f65"/>
            <path id="Trazado_833469" d="M62.35,157.86c-.24-1.99-.46-5.36,4.2-6.82s36.79-2,36.79-2l1.16,9.32s-24.42,5-33.44,5.05c-4.85.03-8.15-1.01-8.71-5.55" fill="#00c4ff"/>
            <path id="Trazado_833470" d="M64.23,84.07a.187.187,0,0,0-.15-.2c-.32-.11-.64-.22-.95-.35a.392.392,0,0,1-.18-.18c-.13-.3-.25-.61-.36-.92a.256.256,0,0,1,0-.21c.15-.34.32-.68.48-1.02a.214.214,0,0,0-.03-.19c-.26-.27-.53-.53-.79-.81a.158.158,0,0,0-.22-.03c-.33.16-.65.32-.99.47a.333.333,0,0,1-.22.01c-.32-.11-.63-.24-.94-.37a.353.353,0,0,1-.18-.16c-.13-.32-.25-.65-.35-.97-.04-.1-.08-.16-.2-.15-.36.01-.73.01-1.09,0a.179.179,0,0,0-.2.15c-.11.32-.23.64-.34.95a.288.288,0,0,1-.2.2c-.3.1-.6.22-.89.35a.28.28,0,0,1-.28,0c-.32-.16-.65-.31-.97-.47a.17.17,0,0,0-.23.04c-.25.26-.51.52-.77.77a.187.187,0,0,0-.04.25h0c.16.32.31.64.46.97a.332.332,0,0,1-.01.24c-.13.31-.28.61-.43.92a.392.392,0,0,1-.18.18c-.34.13-.69.25-1.03.36a.173.173,0,0,0-.15.2h0c.01.36.01.73,0,1.09a.175.175,0,0,0,.14.19q.525.165,1.05.36a.414.414,0,0,1,.18.19c.14.29.26.6.4.89a.331.331,0,0,1,.01.32c-.15.3-.29.61-.44.91a.178.178,0,0,0,.04.25c.26.25.52.51.77.77a.176.176,0,0,0,.24.04h0c.32-.15.63-.3.95-.46a.28.28,0,0,1,.28.01c.3.15.62.27.92.42a.294.294,0,0,1,.15.16c.13.35.25.7.37,1.05a.175.175,0,0,0,.19.14c.36-.01.73-.01,1.09,0a.179.179,0,0,0,.2-.15h0c.11-.35.23-.69.36-1.03a.351.351,0,0,1,.17-.17c.31-.15.63-.28.95-.41a.28.28,0,0,1,.22,0c.37.17.74.34,1.12.52.3-.3.6-.6.89-.91a.215.215,0,0,0,.02-.19c-.15-.33-.31-.66-.46-.99a.3.3,0,0,1-.01-.21c.11-.32.23-.65.36-.96a.286.286,0,0,1,.17-.17c.32-.13.65-.25.97-.36a.16.16,0,0,0,.13-.19c-.01-.37-.01-.73,0-1.09m-5.64,2.63a2.125,2.125,0,1,1,.01,0h-.01" fill="#82c1ed"/>
            <path id="Trazado_833471" d="M69.02,90.79c-.09-.25-.17-.49-.24-.74a.143.143,0,0,0-.15-.11q-.36,0-.72-.03a.26.26,0,0,1-.16-.09q-.24-.27-.45-.54a.239.239,0,0,1-.05-.14c.03-.27.07-.53.09-.8a.143.143,0,0,0-.06-.12c-.24-.13-.48-.25-.71-.37a.11.11,0,0,0-.15.03c-.18.18-.37.36-.56.54a.339.339,0,0,1-.15.06c-.24-.01-.48-.02-.72-.04a.258.258,0,0,1-.16-.07c-.16-.18-.31-.38-.46-.57a.132.132,0,0,0-.17-.06c-.24.09-.49.17-.74.24a.127.127,0,0,0-.1.15c0,.24-.01.48-.02.72a.223.223,0,0,1-.1.18,5.492,5.492,0,0,0-.52.44.2.2,0,0,1-.19.06c-.25-.04-.51-.06-.76-.1a.124.124,0,0,0-.15.08c-.11.23-.23.47-.35.69a.138.138,0,0,0,.03.18c.18.18.35.36.52.55a.235.235,0,0,1,.05.16c-.02.24-.05.48-.08.72a.38.38,0,0,1-.08.17c-.2.16-.41.32-.62.47a.132.132,0,0,0-.06.17c.09.24.17.49.24.74a.12.12,0,0,0,.13.1h0c.26,0,.53,0,.79.01a.26.26,0,0,1,.16.09c.16.17.31.35.47.51a.235.235,0,0,1,.08.21l-.09.72a.131.131,0,0,0,.08.16c.24.11.47.23.7.35a.125.125,0,0,0,.17-.03c.18-.18.36-.34.54-.52a.221.221,0,0,1,.19-.06c.24.03.48.05.72.08a.267.267,0,0,1,.14.07c.17.21.32.42.48.63a.117.117,0,0,0,.16.05c.24-.08.49-.17.74-.24a.127.127,0,0,0,.1-.15h0c0-.26,0-.52.01-.78a.247.247,0,0,1,.08-.16c.18-.17.36-.33.55-.49a.2.2,0,0,1,.15-.05c.29.03.58.07.88.1.13-.27.27-.54.4-.81a.174.174,0,0,0-.03-.14c-.17-.19-.36-.37-.53-.56a.2.2,0,0,1-.06-.14c0-.25.01-.49.03-.73a.272.272,0,0,1,.08-.16c.19-.16.38-.31.57-.46a.131.131,0,0,0,.06-.17m-3.45,2.32a1.515,1.515,0,1,1,.97-1.91,1.509,1.509,0,0,1-.97,1.91h0" fill="#d1bbff"/>
            <rect id="Rectángulo_387018" width="3.47" height="8.98" transform="translate(146.54 106.69)" fill="#005afd"/>
            <rect id="Rectángulo_387019" width="3.47" height="6.47" transform="translate(151.15 109.2)" fill="#7c3eff"/>
            <rect id="Rectángulo_387020" width="3.47" height="4.41" transform="translate(155.73 111.25)" fill="#ffb6c7"/>
            <path id="Trazado_833472" d="M125.7,61.76v-8.5h-.03a8.53,8.53,0,1,0,8.53,8.53v-.03Z" fill="#fff"/>
            <path id="Trazado_833473" d="M134.71,60.4a7.659,7.659,0,0,0-7.64-7.64V60.4Z" fill="#d1bbff"/>
            <path id="Trazado_833474" d="M69.74,147.27s-3.98,3.41-4.08,5.58-.15,2.71.36,3.36c.62.8,3.57,1.4,3.62.41,0-.07-.1-3.57.26-4.14a5.647,5.647,0,0,1,1.6-1.24,11.2,11.2,0,0,1,.39,3.05,1.12,1.12,0,0,0,.96,1.11s.78-3.03.36-4.53a3.983,3.983,0,0,1,.57-2.95Z" fill="#f4af9f"/>
            <path id="Trazado_833478" d="M133.55,147.27s3.98,3.41,4.09,5.58.15,2.71-.36,3.36c-.62.8-3.57,1.4-3.62.41,0-.07.1-3.57-.26-4.14a5.647,5.647,0,0,0-1.6-1.24,11.2,11.2,0,0,0-.39,3.05,1.12,1.12,0,0,1-.96,1.11s-.78-3.03-.36-4.53a3.983,3.983,0,0,0-.57-2.95Z" fill="#f4af9f"/>
            <path id="Trazado_833479" d="M131.41,154.3a1.12,1.12,0,0,1-.96,1.11s-.78-3.03-.36-4.53a3.983,3.983,0,0,0-.57-2.95l4.03-.67s.52.44,1.18,1.11a2.716,2.716,0,0,0-1.53,1.65,7.164,7.164,0,0,1,1.79,4.98c-.05,1.23,1.57,1.15,2.44.98a1.882,1.882,0,0,1-.16.23c-.62.8-3.57,1.39-3.62.41,0-.07.1-3.57-.26-4.14a5.647,5.647,0,0,0-1.6-1.24,11.719,11.719,0,0,0-.38,3.06" fill="none"/>
            <path id="Trazado_833482" d="M120.77,133.2c-1.45-2.46-2.59-15.7-3.81-20.49-1.28-5.02-1.52-5.84-4.72-6.72a51.582,51.582,0,0,0-6.4-1.34c-1.18-.21-6.93.02-8.12,0-1.55-.02-3.18.42-6.44,1.34-3.19.9-3.44,1.7-4.72,6.72-1.22,4.79-2.32,18.03-3.77,20.49s-14.02,13.86-14.02,13.86.2.63,2.12,1.63c2.34,1.23,2.97.78,2.97.78s14.19-10.77,15.85-14.48c.98-2.19,2.94-9.94,2.94-9.94l1.87,10.28s2.18,1.4,7.11,1.44h.29c4.93-.05,6.25-1.36,6.25-1.36l2.73-10.36s1.96,7.75,2.94,9.94c1.65,3.71,15.85,14.48,15.85,14.48a7.2,7.2,0,0,0,2.58-.89,8.317,8.317,0,0,0,2.52-1.52s-12.56-11.4-14.02-13.86" fill="#fff"/>
            <path id="Trazado_833483" d="M111.68,114.88s-2.07,5.77-9.86,5.86h-.33c-7.79-.08-9.86-5.86-9.86-5.86a23.491,23.491,0,0,0-.35,6.21,13.2,13.2,0,0,0,.23,1.64c-.3,3.19-.7,7.98-1.26,10.87,1.08-3.01,2.41-8.51,2.41-8.51l1.9,10.31s2,1.34,6.93,1.38h.27c4.93-.05,6.42-1.36,6.42-1.36l2.74-10.35s1.35,5.72,2.44,8.65c-.58-2.84-1.26-7.68-1.57-10.98a15.046,15.046,0,0,0,.23-1.64,23.125,23.125,0,0,0-.34-6.22" fill="#dadeed"/>
            <path id="Trazado_833484" d="M107.24,78.2a5.326,5.326,0,0,1-10.61,0,5.326,5.326,0,0,1,10.61,0" fill="#473f65"/>
            <path id="Trazado_833485" d="M111.96,88.03c0,6.08-4.54,11.01-10.13,11.01S91.7,94.11,91.7,88.03s4.54-11.01,10.13-11.01,10.13,4.93,10.13,11.01" fill="#473f65"/>
            <path id="Trazado_833486" d="M105.87,105.66c-1.43-1.9-1.02-8.09-1.02-8.09l-2.73-.29V97.2l-.39.04-.39-.04v.08l-2.73.29s.42,6.2-1.02,8.09a8.492,8.492,0,0,0,4.14,1.34,7.773,7.773,0,0,0,4.14-1.34" fill="#f4af9f"/>
            <path id="Trazado_833487" d="M98.61,97.63v.08c.05.9.29,6.22-1.02,7.96,0,0,1.34-.81,1.86-5.37a4.061,4.061,0,0,0,4.57.23c.54,4.36,1.83,5.15,1.83,5.15v-.04c-1.4-1.94-.99-8.05-.99-8.05l-1.09-.11-1.64-.17V97.2l-.2.02-.2.02-.39-.04v.08l-2.73.29v.06" fill="#d88676"/>
            <path id="Trazado_833488" d="M96.07,90.61s-1.78-.74-1.08,1.18a7.773,7.773,0,0,0,2.16,3.11l-.54-4.22Z" fill="#d88676"/>
            <path id="Trazado_833489" d="M107.61,90.61s1.73-.74,1.06,1.18a7.8,7.8,0,0,1-2.11,3.11l.53-4.22Z" fill="#d88676"/>
            <path id="Trazado_833490" d="M107.31,84.67l-5.53,2.36V87l-.04.01-.03-.01v.03l-5.26,2.16s-1.1,10,5.26,10.58v.01h.08v-.01c7.64-.12,5.52-15.1,5.52-15.1" fill="#fef9e5"/>
            <path id="Trazado_833491" d="M107.31,84.67l-5.53,2.36V87l-.04.01-.03-.01v.03l-5.26,2.16s-.79,7.18,2.84,9.72a10.227,10.227,0,0,1-1.88-8.56l9.39-4.39a35.179,35.179,0,0,1-.04,9.45c1.45-4.45.56-10.74.55-10.74" fill="#e1708b"/>
            <g id="Grupo_1093791" transform="translate(74.343 37.951)" opacity="0.72">
              <g id="Grupo_1093790">
                <g id="Grupo_1094555" data-name="Grupo 1094555">
                  <g id="Grupo_1093789">
                    <g id="Grupo_1093784" transform="translate(1.543 -0.001)">
                      <g id="Grupo_1094554" data-name="Grupo 1094554">
                        <path id="Trazado_836440" data-name="Trazado 836440" d="M31.42,46.72l-5.53,2.36v-.03l-.04.01-.03-.01v.03l-5.27,2.16s-1.1,10,5.27,10.58v.01l.03-.01.04.01v-.01c7.66-.12,5.54-15.1,5.53-15.1" fill="#d88676"/>
                      </g>
                    </g>
                  </g>
                </g>
              </g>
            </g>
          </g>
        </g>
      </g>
    </g>
  </g>
</svg>
