<svg xmlns="http://www.w3.org/2000/svg" width="606.962" height="361.537" viewBox="0 0 606.962 361.537">
  <g id="_13" data-name="13" transform="translate(-10.83 -5.943)">
    <g id="Grupo_1095561" data-name="Grupo 1095561">
      <circle id="Elipse_11133" data-name="Elipse 11133" cx="41.64" cy="41.64" r="41.64" transform="translate(309.64 282.32)" fill="#a6c5fe"/>
      <g id="XMLID_17_">
        <g id="XMLID_18_">
          <path id="Trazado_837587" data-name="Trazado 837587" d="M604.31,139.04,580.2,267.79,426.15,244.17l2.1-12.28,16.46-96.2L560,138.11Zm-42.34,43.09L551.7,165.26l-14.29,13.72,3.72.48-7.55,58.72,17.17,2.21,7.55-58.72Zm-7.5,68.46,5.27-2.01-4.61-3.5-.18,1.39L453.27,233.4l11.21-87.17,1.19.15-1.99-5.74-3.39,5.05,1.2.15-11.58,90.09,104.72,13.46Zm-18.2-59.49L526,174.23l-14.29,13.72,3.65.47-6.03,46.91,17.22,2.21,6.03-46.91Zm-26.09,11.76-10.27-16.87-14.29,13.72,3.81.49-4.12,32.04,17.13,2.2,4.12-32.04Zm-26.06,11.71L473.85,197.7l-14.29,13.72,3.78.49-2.21,17.2,17.08,2.2,2.21-17.2Z" fill="#dfeff3"/>
          <path id="Trazado_837588" data-name="Trazado 837588" d="M551.7,165.26l10.27,16.87-3.66-.47-7.55,58.72-17.18-2.2,7.55-58.73-3.72-.48Z" fill="#7c3eff"/>
          <path id="Trazado_837589" data-name="Trazado 837589" d="M560,138.11a206.767,206.767,0,0,1,49.56-10.34h.01l2.3.02a5.975,5.975,0,0,1,5.82,7.07L591.82,274.95a6.66,6.66,0,0,1-6.55,5.45l-24.38-2.87q-3.18,2.01-6.52,3.86l-20.79-3.86-2.2-.41-11.22-2.08-1.7-.32-11.03-2.05-1.8-.33h0l-10.71-1.99-1.46-.27h0l-10.24-1.9h0l-2.03-.38h0l-9.7-1.8-1.94-.36-9.49-1.76-1.76-.33-9.43-1.75-1.74-.32h0l-8.97-1.66-1.86-.35-8.81-1.63-1.62-.3-8.55-1.59-4.59,1.17-2.67.68-7.48,1.91-2.32.59-7.77,1.99-2.02.52h0l-8.05,2.06-2.43.62-7.98,2.04,8.55,1.83,1.72.37,9.07,1.94,1.54.33,9.28,1.99,1.98.42,70.6,15.09h0l1.81.38,11.66,2.49,1.99.43h0l11.83,2.53,2.18.47,7.63,1.63c-76.6,19.05-173.79,2.82-174.75,2.66h-.01c-6.03-1.51-10.51-2.64-12.86-3.24-13.96-3.56-16.98-13.06-17.63-17.21a2.172,2.172,0,0,1,1.64-2.44L416.5,250.54l.87-5.06h0c.13-.18,3.88-5.41,10.84-13.56l-2.1,12.28,154.05,23.62,24.11-128.75ZM420.65,301.39l32.92-10.51-45.99-9.79-31.03,9.18Z" fill="#4e5169"/>
          <path id="Trazado_837590" data-name="Trazado 837590" d="M559.74,248.58l-5.27,2.01.15-1.2L449.9,235.93l11.59-90.09-1.2-.16,3.39-5.04,1.99,5.73-1.2-.15-11.2,87.17,101.68,13.07.18-1.39Z" fill="#00c4ff"/>
          <path id="Trazado_837591" data-name="Trazado 837591" d="M558.77,282.2l-4.41,1.68-3.46-.65c1.17-.6,2.33-1.21,3.47-1.84Z" fill="#525f75"/>
          <path id="Trazado_837592" data-name="Trazado 837592" d="M533.59,277.52l20.79,3.86c-1.14.63-2.3,1.25-3.47,1.84l-21.69-4.1Z" fill="#525f75"/>
          <path id="Trazado_837593" data-name="Trazado 837593" d="M554.37,283.88l-2.36.9h0l-3.03-.58c.65-.32,1.3-.64,1.94-.98Z" fill="#4e5169"/>
          <path id="Trazado_837594" data-name="Trazado 837594" d="M552,284.79h0l2.37-.9,4.41-1.68-4.39-.82q3.345-1.845,6.52-3.86l24.38,2.87v9.06a6.831,6.831,0,0,1-4.03,6.23l-86.27,38.76a22.668,22.668,0,0,1-14.81,1.32c-25.64-6.39-108.97-27.16-143.03-35.7.96.16,98.15,16.39,174.75-2.66l4.5.96,7.79-2.97,2.07-.79,7.5-2.86,1.91-.73Z" fill="#525f75"/>
          <path id="Trazado_837595" data-name="Trazado 837595" d="M552,284.79l-16.36,6.25-1.74-.35a156.667,156.667,0,0,0,15.07-6.47Z" fill="#525f75"/>
          <path id="Trazado_837596" data-name="Trazado 837596" d="M540.22,282.55l8.75,1.66a155.594,155.594,0,0,1-15.07,6.47l-10.21-2.05,7.57-2.79,1.74-.64Z" fill="#525f75"/>
          <path id="Trazado_837597" data-name="Trazado 837597" d="M538.13,282.15l-7.16,2.61-11.72-2.28-1.81-.35-11.5-2.25,7.25-2.47,11.66,2.22,2,.37Z" fill="#525f75"/>
          <path id="Trazado_837598" data-name="Trazado 837598" d="M526,174.23l10.27,16.87-3.68-.47-6.04,46.91-17.22-2.22,6.03-46.91-3.65-.47Z" fill="#7c3eff"/>
          <path id="Trazado_837599" data-name="Trazado 837599" d="M533.74,291.76l-7.5,2.86-2.45-.5c2.76-.85,5.48-1.75,8.16-2.72Z" fill="#525f75"/>
          <path id="Trazado_837600" data-name="Trazado 837600" d="M533.74,291.76l-1.79-.36c.65-.23,1.31-.47,1.96-.72l1.74.35Z" fill="#4e5169"/>
          <path id="Trazado_837601" data-name="Trazado 837601" d="M521.77,289.34l10.18,2.05c-2.68.97-5.4,1.87-8.16,2.72l-9.59-1.99Z" fill="#525f75"/>
          <path id="Trazado_837602" data-name="Trazado 837602" d="M531.38,277.12l-4.23,1.62-11.49-2.17,4.5-1.53Z" fill="#525f75"/>
          <path id="Trazado_837603" data-name="Trazado 837603" d="M529.21,285.41l-7.65,2.79-11.77-2.36,7.66-2.72Z" fill="#525f75"/>
          <path id="Trazado_837604" data-name="Trazado 837604" d="M521.41,294.84c.8-.24,1.59-.47,2.38-.72l2.45.5-2.07.79Z" fill="#525f75"/>
          <path id="Trazado_837605" data-name="Trazado 837605" d="M521.41,294.84l2.76.57-7.79,2.97-4.5-.96Q516.71,296.235,521.41,294.84Z" fill="#525f75"/>
          <path id="Trazado_837606" data-name="Trazado 837606" d="M512.09,292.91l9.31,1.93q-4.7,1.395-9.52,2.59l-7.63-1.63Z" fill="#525f75"/>
          <path id="Trazado_837607" data-name="Trazado 837607" d="M519.34,130.04a2.03,2.03,0,1,1-2.03,2.03A2.031,2.031,0,0,1,519.34,130.04Z" fill="#a4e8fe"/>
          <path id="Trazado_837608" data-name="Trazado 837608" d="M519.63,288.91l-7.59,2.77-11.81-2.44,7.63-2.71Z" fill="#525f75"/>
          <path id="Trazado_837609" data-name="Trazado 837609" d="M517.3,132.07a2.03,2.03,0,1,0,2.03-2.03A2.031,2.031,0,0,0,517.3,132.07Zm-73.71-5.91,165.97,1.62A206.563,206.563,0,0,0,560,138.12L444.71,135.7l-16.46,96.2c-6.96,8.16-10.71,13.38-10.84,13.56l19.5-113.72A6.708,6.708,0,0,1,443.59,126.16Z" fill="#525f75"/>
          <path id="Trazado_837610" data-name="Trazado 837610" d="M518.46,274.72l-4.51,1.53-11.04-2.09,4.53-1.49Z" fill="#525f75"/>
          <path id="Trazado_837611" data-name="Trazado 837611" d="M515.63,282.76l-7.71,2.71-11.57-2.33,7.73-2.63Z" fill="#525f75"/>
          <path id="Trazado_837612" data-name="Trazado 837612" d="M511.48,277.08l-7.28,2.46-11.09-2.16,7.3-2.4Z" fill="#525f75"/>
          <path id="Trazado_837613" data-name="Trazado 837613" d="M499.91,185.99l10.27,16.87-3.62-.46-4.12,32.04-17.13-2.21,4.12-32.03-3.81-.49Z" fill="#7c3eff"/>
          <path id="Trazado_837614" data-name="Trazado 837614" d="M509.93,292.46l-7.86,2.87-11.83-2.53,7.86-2.8Z" fill="#525f75"/>
          <path id="Trazado_837615" data-name="Trazado 837615" d="M505.97,286.15l-7.67,2.69-11.62-2.4,7.72-2.63Z" fill="#525f75"/>
          <path id="Trazado_837616" data-name="Trazado 837616" d="M493.47,270.08l1.46.27-4.52,1.45,10.71,2.02,4.52-1.48h0l1.8.33-4.53,1.49,11.04,2.09,4.51-1.53,1.7.32-4.5,1.53,11.49,2.17,4.23-1.62,2.2.41-4.37,1.6,21.69,4.1c-.64.34-1.29.66-1.94.98l-8.75-1.66L533,285.21l-1.74.64-7.57,2.79,10.21,2.05c-.65.25-1.3.49-1.96.72l-10.18-2.05-7.57,2.79,9.59,1.99c-.79.25-1.59.49-2.38.72l-9.31-1.93-7.84,2.89-2.18-.47,7.86-2.87L498.1,290l-7.86,2.8h0l-1.99-.43,7.91-2.77h0l-11.64-2.42-7.92,2.7-1.81-.38,7.94-2.69-11.23-2.33-1.74-.36-10.82-2.25-1.8-.37-10.54-2.19-1.84-.38-10.11-2.1-1.71-.36-9.79-2.03-1.65-.34-9.37-1.94-7.96,2.24-1.98-.42,8-2.22-9.25-1.92L392.92,272l-1.54-.33,7.97-2.16-9.05-1.88-7.99,2.1-1.72-.37,8-2.09-8.57-1.78,2.43-.62,8.55,1.77,8.05-2.1-8.55-1.73,2.02-.52,8.55,1.72,7.79-2.03-8.58-1.67,2.32-.59,8.54,1.67,7.49-1.96-8.55-1.62,2.67-.68,8.53,1.61,4.6-1.2,1.62.3-4.59,1.2,8.82,1.67,4.57-1.24,1.86.35-4.6,1.24,8.99,1.7,4.58-1.27h0l1.74.32-4.56,1.29,9.41,1.78,4.58-1.31,1.76.33-4.6,1.32,9.52,1.8,4.57-1.35,1.94.36-4.6,1.35,9.75,1.84,4.56-1.39h0l2.03.38-4.59,1.4,10.27,1.94,4.56-1.47Zm37.5,14.68,7.16-2.62L526.85,280l-1.99-.38L513.2,277.4l-7.26,2.47,11.51,2.25,1.8.35Zm-9.41,3.44,7.66-2.8-11.76-2.29-7.66,2.72Zm-9.52,3.48,7.59-2.78-11.77-2.38-7.62,2.71Zm-4.12-6.21,7.71-2.71-11.56-2.25-7.72,2.63Zm-3.72-5.93,7.28-2.46-11.06-2.1-7.3,2.4Zm-5.9,9.3,7.67-2.69-11.58-2.34-7.72,2.63Zm-3.71-6.05,7.74-2.62L491.19,278l-7.75,2.55Zm-3.25-5.76,7.29-2.39L487.9,272.6l-7.3,2.34Zm-6.44,9.04,7.73-2.61-11.16-2.26-7.78,2.55Zm-3.22-5.87,7.74-2.54-10.78-2.1-7.73,2.47ZM479,274.62l7.37-2.31-10.3-1.96-7.42,2.26Zm-7.04,8.77,7.76-2.55-10.78-2.18-7.78,2.49Zm-2.74-5.69,7.8-2.45-10.4-2.02-7.83,2.38Zm-2.52-5.47,7.38-2.26-9.78-1.86-7.45,2.19Zm-7.32,8.56,7.85-2.47-10.44-2.11-7.92,2.41Zm-2.49-5.57,7.78-2.37-9.91-1.93-7.84,2.31Zm-1.88-5.28,7.4-2.19-9.55-1.82-7.45,2.13Zm-7.99,8.29,7.88-2.4-9.98-2.02-7.96,2.34Zm-1.88-5.36,7.79-2.31-9.65-1.88-7.82,2.24Zm-1.44-5.14,7.42-2.13-9.41-1.79-7.4,2.09Zm-8.47,8.06,7.91-2.34-9.7-1.96-7.97,2.28Zm-1.46-5.21,7.79-2.24-9.42-1.83-7.75,2.18Zm-1.28-5.03,7.44-2.07-9.02-1.71-7.49,2.01Zm-8.67,7.88,7.95-2.28-9.37-1.89-7.93,2.24Zm-1.3-5.11,7.78-2.17-9.12-1.78-7.82,2.1Zm-.85-4.88,7.43-2.02-8.84-1.68-7.47,1.96Zm-9.13,7.66,7.97-2.22-9.16-1.86-8.04,2.16Zm-.84-4.95,7.76-2.11-8.93-1.74-7.78,2.05Zm-9.99,2.71,7.98-2.17-8.97-1.81-8.03,2.11Z" fill="#4e5169"/>
          <path id="Trazado_837617" data-name="Trazado 837617" d="M505.64,272.34l-4.52,1.48-10.71-2.02,4.52-1.45Z" fill="#525f75"/>
          <path id="Trazado_837618" data-name="Trazado 837618" d="M502.33,280.17l-7.74,2.62-11.15-2.24,7.75-2.54Z" fill="#525f75"/>
          <path id="Trazado_837619" data-name="Trazado 837619" d="M498.63,274.64l-7.29,2.39-10.74-2.09,7.3-2.34Z" fill="#525f75"/>
          <path id="Trazado_837620" data-name="Trazado 837620" d="M484.51,287.18l11.64,2.42h0Z" fill="#525f75"/>
          <path id="Trazado_837621" data-name="Trazado 837621" d="M496.15,289.6l-7.91,2.77-11.65-2.49,7.92-2.7Z" fill="#525f75"/>
          <path id="Trazado_837622" data-name="Trazado 837622" d="M492.63,283.46l-7.73,2.61-11.2-2.32,7.78-2.55Z" fill="#525f75"/>
          <path id="Trazado_837623" data-name="Trazado 837623" d="M489.42,277.66l-7.74,2.54-10.77-2.16,7.73-2.48Z" fill="#525f75"/>
          <path id="Trazado_837624" data-name="Trazado 837624" d="M486.37,272.31,479,274.62l-10.35-2.01,7.42-2.26Z" fill="#525f75"/>
          <path id="Trazado_837625" data-name="Trazado 837625" d="M473.85,197.7l10.27,16.87-3.69-.47-2.21,17.2-17.08-2.2,2.21-17.2-3.78-.49Z" fill="#7c3eff"/>
          <path id="Trazado_837626" data-name="Trazado 837626" d="M483.22,268.18h.01l10.23,1.9-4.56,1.43-10.26-1.94Z" fill="#525f75"/>
          <path id="Trazado_837627" data-name="Trazado 837627" d="M482.72,286.81l-7.94,2.68h-.01l-70.6-15.09,7.96-2.24,9.37,1.94,1.65.34,9.79,2.03,1.7.36,10.11,2.1,1.84.38,10.54,2.19,1.8.37,10.82,2.25,1.74.36Z" fill="#525f75"/>
          <path id="Trazado_837628" data-name="Trazado 837628" d="M481.19,267.8l-4.56,1.39-9.75-1.84,4.61-1.35Z" fill="#525f75"/>
          <path id="Trazado_837629" data-name="Trazado 837629" d="M479.72,280.85l-7.76,2.54-10.8-2.23,7.78-2.49Z" fill="#525f75"/>
          <path id="Trazado_837630" data-name="Trazado 837630" d="M477.02,275.25l-7.8,2.45-10.43-2.1,7.83-2.38Z" fill="#525f75"/>
          <path id="Trazado_837631" data-name="Trazado 837631" d="M474.08,269.97l-7.38,2.26-9.85-1.93,7.45-2.19Z" fill="#525f75"/>
          <path id="Trazado_837632" data-name="Trazado 837632" d="M469.55,265.64l-4.57,1.35-9.52-1.8,4.59-1.31Z" fill="#525f75"/>
          <path id="Trazado_837633" data-name="Trazado 837633" d="M467.23,278.32l-7.85,2.47-10.51-2.17,7.92-2.41Z" fill="#525f75"/>
          <path id="Trazado_837634" data-name="Trazado 837634" d="M464.67,272.85l-7.78,2.37-9.97-2,7.84-2.31Z" fill="#525f75"/>
          <path id="Trazado_837635" data-name="Trazado 837635" d="M462.41,267.75l-7.4,2.19-9.6-1.87,7.45-2.13Z" fill="#525f75"/>
          <path id="Trazado_837636" data-name="Trazado 837636" d="M458.29,263.55l-4.58,1.31-9.4-1.77,4.56-1.29Z" fill="#525f75"/>
          <path id="Trazado_837637" data-name="Trazado 837637" d="M454.9,275.83l-7.88,2.4-10.07-2.08,7.96-2.34Z" fill="#525f75"/>
          <path id="Trazado_837638" data-name="Trazado 837638" d="M453.58,290.88l-32.93,10.51-44.1-11.12,31.03-9.18Z" fill="#4e5169"/>
          <path id="Trazado_837639" data-name="Trazado 837639" d="M452.93,270.56l-7.79,2.31-9.68-1.95,7.82-2.24Z" fill="#525f75"/>
          <path id="Trazado_837640" data-name="Trazado 837640" d="M451.12,265.61l-7.42,2.12-9.39-1.83,7.4-2.08Z" fill="#525f75"/>
          <path id="Trazado_837641" data-name="Trazado 837641" d="M447.12,261.48l-4.58,1.27-8.99-1.7,4.61-1.24Z" fill="#525f75"/>
          <path id="Trazado_837642" data-name="Trazado 837642" d="M443.15,273.45l-7.92,2.34-9.75-2.01,7.97-2.29Z" fill="#525f75"/>
          <path id="Trazado_837643" data-name="Trazado 837643" d="M441.57,268.35l-7.8,2.23-9.37-1.88,7.75-2.19Z" fill="#525f75"/>
          <path id="Trazado_837644" data-name="Trazado 837644" d="M439.93,263.48l-7.44,2.07-9.07-1.77,7.49-2.01Z" fill="#525f75"/>
          <path id="Trazado_837645" data-name="Trazado 837645" d="M436.3,259.47l-4.57,1.24-8.82-1.67,4.59-1.2Z" fill="#525f75"/>
          <path id="Trazado_837646" data-name="Trazado 837646" d="M431.77,271.16l-7.95,2.27-9.35-1.93,7.93-2.24Z" fill="#525f75"/>
          <path id="Trazado_837647" data-name="Trazado 837647" d="M430.31,266.16l-7.79,2.16-9.15-1.84,7.82-2.1Z" fill="#525f75"/>
          <path id="Trazado_837648" data-name="Trazado 837648" d="M429.1,261.42l-7.43,2.02-8.88-1.74,7.47-1.96Z" fill="#525f75"/>
          <path id="Trazado_837649" data-name="Trazado 837649" d="M425.87,257.53l-4.6,1.2-8.53-1.61,4.58-1.17Z" fill="#525f75"/>
          <path id="Trazado_837650" data-name="Trazado 837650" d="M420.52,268.88l-7.98,2.22-9.22-1.91,8.03-2.16Z" fill="#525f75"/>
          <path id="Trazado_837651" data-name="Trazado 837651" d="M419.45,264.04l-7.75,2.11-8.96-1.8,7.78-2.05Z" fill="#525f75"/>
          <path id="Trazado_837652" data-name="Trazado 837652" d="M418.61,259.43l-7.48,1.95-8.54-1.66,7.48-1.92Z" fill="#525f75"/>
          <path id="Trazado_837653" data-name="Trazado 837653" d="M410.19,271.75l-8,2.23-9.28-1.99,8.03-2.16Z" fill="#525f75"/>
          <path id="Trazado_837654" data-name="Trazado 837654" d="M409.69,266.69l-7.98,2.17-9.02-1.87,8.03-2.11Z" fill="#525f75"/>
          <path id="Trazado_837655" data-name="Trazado 837655" d="M408.84,261.98l-7.79,2.03-8.55-1.72,7.77-1.98Z" fill="#525f75"/>
          <path id="Trazado_837656" data-name="Trazado 837656" d="M399.34,269.5l-7.97,2.16-9.07-1.94,7.99-2.1Z" fill="#525f75"/>
          <path id="Trazado_837657" data-name="Trazado 837657" d="M390.48,262.81l8.55,1.73-8.05,2.1-8.55-1.77Z" fill="#525f75"/>
          <path id="Trazado_837658" data-name="Trazado 837658" d="M388.57,267.26l-8,2.1-8.55-1.83,7.98-2.04Z" fill="#525f75"/>
        </g>
      </g>
      <g id="Grupo_1095519" data-name="Grupo 1095519">
        <g id="Grupo_1095508" data-name="Grupo 1095508">
          <path id="Trazado_837659" data-name="Trazado 837659" d="M125.5,120.5V317.84a9.08,9.08,0,0,1-9.08,9.08H22.52a9.08,9.08,0,0,1-9.08-9.08V279.93c3.69-123.95,90.58-168.5,90.58-168.5h12.4A9.065,9.065,0,0,1,125.5,120.5Z" fill="#525f75"/>
        </g>
        <path id="Trazado_837660" data-name="Trazado 837660" d="M22.52,111.42h81.5s-86.88,44.55-90.58,168.5V120.5A9.086,9.086,0,0,1,22.52,111.42Z" fill="#4e5169"/>
        <rect id="Rectángulo_387491" data-name="Rectángulo 387491" width="98.51" height="183.47" transform="translate(20.22 134.2)" fill="#009ecd"/>
        <g id="XMLID_1_">
          <g id="Grupo_1095509" data-name="Grupo 1095509">
            <path id="Trazado_837661" data-name="Trazado 837661" d="M79.42,122.11a.187.187,0,0,1,.19.2V124a.2.2,0,0,1-.19.2H60.14a.192.192,0,0,1-.19-.2v-1.69a.2.2,0,0,1,.19-.2Z" fill="#525f75"/>
          </g>
        </g>
        <path id="Trazado_837662" data-name="Trazado 837662" d="M78.9,123.74H60.66a.423.423,0,0,1-.42-.42v-.39a.423.423,0,0,1,.42-.42H78.9a.423.423,0,0,1,.42.42v.39A.423.423,0,0,1,78.9,123.74Z" fill="#cabcff"/>
        <circle id="Elipse_11134" data-name="Elipse 11134" cx="2.12" cy="2.12" r="2.12" transform="translate(50.52 121.03)" fill="#525f75"/>
        <circle id="Elipse_11135" data-name="Elipse 11135" cx="1.77" cy="1.77" r="1.77" transform="translate(50.87 121.38)" fill="#cabcff"/>
        <path id="Trazado_837663" data-name="Trazado 837663" d="M125.5,147.3h.88c.95,0,1.73,1.06,1.73,2.36v22.42c0,1.65-.98,2.99-2.19,2.99h-.42Z" fill="#4e5169"/>
        <g id="XMLID_2_">
          <path id="Trazado_837664" data-name="Trazado 837664" d="M13.44,147.3v20.24h-.42a2.187,2.187,0,0,1-2.19-2.18V149.02a1.728,1.728,0,0,1,1.73-1.72h.88Z" fill="#525f75"/>
        </g>
        <g id="XMLID_3_">
          <path id="Trazado_837665" data-name="Trazado 837665" d="M13.44,170.75v20.24h-.42a2.187,2.187,0,0,1-2.19-2.18V172.47a1.728,1.728,0,0,1,1.73-1.72h.88Z" fill="#525f75"/>
        </g>
        <rect id="Rectángulo_387492" data-name="Rectángulo 387492" width="45.41" height="45.41" transform="translate(30.44 150.26)" fill="#fff"/>
        <rect id="Rectángulo_387493" data-name="Rectángulo 387493" width="29.14" height="2.07" transform="translate(79.62 150.26)" fill="#fff"/>
        <rect id="Rectángulo_387494" data-name="Rectángulo 387494" width="29.14" height="2.07" transform="translate(79.62 154.82)" fill="#fff"/>
        <rect id="Rectángulo_387495" data-name="Rectángulo 387495" width="29.14" height="2.07" transform="translate(79.62 161.46)" fill="#fff"/>
        <rect id="Rectángulo_387496" data-name="Rectángulo 387496" width="13.45" height="2.07" transform="translate(95.31 165.48)" fill="#fff"/>
        <rect id="Rectángulo_387497" data-name="Rectángulo 387497" width="20.1" height="2.07" transform="translate(88.66 169.49)" fill="#fff"/>
        <rect id="Rectángulo_387498" data-name="Rectángulo 387498" width="29.14" height="2.07" transform="translate(79.62 174.33)" fill="#d1bbff"/>
        <rect id="Rectángulo_387499" data-name="Rectángulo 387499" width="29.14" height="16.5" transform="translate(79.62 179.17)" fill="#a6eaff"/>
        <rect id="Rectángulo_387500" data-name="Rectángulo 387500" width="35.46" height="6.85" transform="translate(30.44 207.84)" fill="#fff"/>
        <rect id="Rectángulo_387501" data-name="Rectángulo 387501" width="45.41" height="6.85" transform="translate(30.44 221.75)" fill="#fff"/>
        <rect id="Rectángulo_387502" data-name="Rectángulo 387502" width="49.18" height="6.85" transform="translate(30.44 235.67)" fill="#fff"/>
        <g id="XMLID_4_">
          <g id="Grupo_1095510" data-name="Grupo 1095510">
            <rect id="Rectángulo_387503" data-name="Rectángulo 387503" width="35.46" height="3.42" transform="translate(30.44 249.58)" fill="#a6eaff"/>
          </g>
        </g>
        <g id="XMLID_5_">
          <g id="Grupo_1095511" data-name="Grupo 1095511">
            <rect id="Rectángulo_387504" data-name="Rectángulo 387504" width="35.46" height="3.42" transform="translate(30.44 256.48)" fill="#fff"/>
          </g>
        </g>
        <g id="XMLID_6_">
          <g id="Grupo_1095512" data-name="Grupo 1095512">
            <rect id="Rectángulo_387505" data-name="Rectángulo 387505" width="44.33" height="3.42" transform="translate(30.44 263.86)" fill="#fff"/>
          </g>
        </g>
        <g id="XMLID_7_">
          <g id="Grupo_1095513" data-name="Grupo 1095513">
            <rect id="Rectángulo_387506" data-name="Rectángulo 387506" width="35.46" height="3.42" transform="translate(30.44 271.25)" fill="#fff"/>
          </g>
        </g>
        <g id="XMLID_8_">
          <g id="Grupo_1095514" data-name="Grupo 1095514">
            <rect id="Rectángulo_387507" data-name="Rectángulo 387507" width="66.37" height="5.22" transform="translate(43.82 300.76)" fill="#d1bbff"/>
          </g>
        </g>
        <g id="XMLID_9_">
          <g id="Grupo_1095515" data-name="Grupo 1095515">
            <rect id="Rectángulo_387508" data-name="Rectángulo 387508" width="58.76" height="5.22" transform="translate(51.42 291.69)" fill="#d1bbff"/>
          </g>
        </g>
        <g id="XMLID_10_">
          <g id="Grupo_1095516" data-name="Grupo 1095516">
            <rect id="Rectángulo_387509" data-name="Rectángulo 387509" width="44.28" height="5.22" transform="translate(65.9 282.53)" fill="#fff"/>
          </g>
        </g>
        <g id="XMLID_11_">
          <g id="Grupo_1095517" data-name="Grupo 1095517">
            <rect id="Rectángulo_387510" data-name="Rectángulo 387510" width="35.41" height="5.22" transform="translate(74.77 273.37)" fill="#a6eaff"/>
          </g>
        </g>
        <g id="XMLID_12_">
          <g id="Grupo_1095518" data-name="Grupo 1095518">
            <rect id="Rectángulo_387511" data-name="Rectángulo 387511" width="25.66" height="5.22" transform="translate(84.52 264.31)" fill="#fff"/>
          </g>
        </g>
        <rect id="Rectángulo_387512" data-name="Rectángulo 387512" width="31.99" height="6.85" transform="translate(78.68 221.75)" fill="#fff"/>
        <rect id="Rectángulo_387513" data-name="Rectángulo 387513" width="42.33" height="6.85" transform="translate(68.34 207.84)" fill="#fff"/>
      </g>
      <g id="Grupo_1095523" data-name="Grupo 1095523">
        <path id="Trazado_837666" data-name="Trazado 837666" d="M585.44,69.46l2.96,3.96s-.15,3.86-4.71,3.86l-1-6.46Z" fill="#ffbdb3"/>
        <path id="Trazado_837667" data-name="Trazado 837667" d="M574.42,60.44l-1,8.32h1.4s-.3,3.21,6.51,3.21,5.11-11.53,5.11-11.53H574.42Z" fill="#ffbdb3"/>
        <g id="XMLID_22_">
          <g id="Grupo_1095520" data-name="Grupo 1095520">
            <path id="Trazado_837668" data-name="Trazado 837668" d="M589.61,59.78c6.31,1.95-4.16,9.67-4.16,9.67-2-2,1.3-3.26,1-4.81-.26-1.32-.3-.61-3.51-.61s-3.41-1.8-3.41-1.8c-4.96,4.96-11.08-1.75-9.12-3.71s3.91.7,3.91.7-.5-6.21,2.51-6.21a5.725,5.725,0,0,1,4.51,2.1s.15-2.1,4.21-2.1S589.61,59.78,589.61,59.78Z" fill="#77c2ff"/>
          </g>
        </g>
        <path id="Trazado_837669" data-name="Trazado 837669" d="M570.29,88.33s-10.41,1.37-16.02-3.94l1.2,7.22s8.84,4.68,15.23,4.83" fill="#ffbdb3"/>
        <path id="Trazado_837670" data-name="Trazado 837670" d="M582.31,64.01l1.28,1.27s.59-1.44,1.8-1.4S581.86,59.06,582.31,64.01Z" fill="#77c2ff"/>
        <path id="Trazado_837671" data-name="Trazado 837671" d="M553.52,78.43l8.97,24.7-19.24,1.41-8.02-26.11Z" fill="#e0b3df"/>
        <path id="Trazado_837672" data-name="Trazado 837672" d="M526.61,159.76l10.04-10.78,12.08-31.01-30.24,34.88Z" fill="#005afd"/>
        <path id="Trazado_837673" data-name="Trazado 837673" d="M571.11,101.73s-13.53.15-18.34-4.21c0,0,.38-9.25-.38-9.17s-1.13,5.86-3.31,5.71-7.49-6.62-9.15-5.86-.9,7.32,0,7.92,24.96,15.37,33.48,15.76Z" fill="#ffbdb3"/>
        <g id="XMLID_23_">
          <g id="Grupo_1095521" data-name="Grupo 1095521">
            <path id="Trazado_837674" data-name="Trazado 837674" d="M557.48,137.01c-4.61,10.82-17.44,34.48-17.44,34.48l-8.22-8.02s15.23-47.46,19.14-48.36,16.31-4.76,16.31-4.76l33.9-.95,2.81,6.36s-7.42,13.43-23.85,13.23S562.09,126.18,557.48,137.01Z" fill="#005afd"/>
          </g>
        </g>
        <path id="Trazado_837675" data-name="Trazado 837675" d="M588.4,73.42s23.2,16.69,15.59,42.35c0,0-6.56,2.16-17.11-4.08s-5.84-16.41-5.84-16.41-.6,1.65-10.3,1.65l-.45-8.72s10.82,1.43,13.61-6.62l4.51-6.99V73.42Z" fill="#60afe8"/>
        <path id="Trazado_837676" data-name="Trazado 837676" d="M583.69,77.27s1.85,21.75-12.58,24.46l1.8,10.07s20.05,3.36,23.45-7.07-7.97-31.32-7.97-31.32S586.72,77.25,583.69,77.27Z" fill="#77c2ff"/>
        <path id="Trazado_837677" data-name="Trazado 837677" d="M548.06,69.76l3.21,8.67H535.23Z" fill="#f97c8c"/>
        <path id="Trazado_837678" data-name="Trazado 837678" d="M540.04,171.49l-4.11,12.63-26.61-21.05,23.39,1.27Z" fill="#77c2ff"/>
        <g id="XMLID_24_">
          <g id="Grupo_1095522" data-name="Grupo 1095522">
            <path id="Trazado_837679" data-name="Trazado 837679" d="M525.9,159.17l-1.49,4.72-14.44-.78-15.08-12.07,23.6,1.8Z" fill="#60afe8"/>
          </g>
        </g>
      </g>
      <circle id="Elipse_11136" data-name="Elipse 11136" cx="41.41" cy="41.41" r="41.41" transform="translate(376 17.56)" fill="#a6eaff"/>
      <g id="Grupo_1095528" data-name="Grupo 1095528">
        <path id="Trazado_837680" data-name="Trazado 837680" d="M149.89,187.42v8.89s5.04.11,6.48-3.71a7.336,7.336,0,0,0-1.32-6.97Z" fill="#ffbdb3"/>
        <path id="Trazado_837681" data-name="Trazado 837681" d="M148.58,173.7l-4.4,7.05,1.26.48s-.29,6.18,4.93,6.18,7.83-.29,7.83-.29l2.03-8.7Z" fill="#ffbdb3"/>
        <g id="XMLID_21_">
          <g id="Grupo_1095524" data-name="Grupo 1095524">
            <path id="Trazado_837682" data-name="Trazado 837682" d="M151.05,292.5c-1.16,4.9-4.35,53.66-4.35,53.66H134.62s1.35-29.28,1.35-50.14,11.96-53.84,11.96-53.84l15.29,29.78S152.21,287.61,151.05,292.5Z" fill="#039"/>
          </g>
        </g>
        <path id="Trazado_837683" data-name="Trazado 837683" d="M171.49,239.81s5.64,13.89,3.9,27.22,19.71,77.39,19.71,77.39l-11.4.77S163.22,299.2,158,284.71s-10.07-42.54-10.07-42.54Z" fill="#0046cc"/>
        <path id="Trazado_837684" data-name="Trazado 837684" d="M123.8,210.12s-8.02-5.31-10.24-8.31-8.5-10.72-9.18-10.14,3.96,5.99,2.8,7.05-4.06,5.31.77,7.54,7.15,1.5,11.4,10.43l5.22-.83Z" fill="#ffbdb3"/>
        <path id="Trazado_837685" data-name="Trazado 837685" d="M149.89,195.39c-.14.05-.87,1.26-1.06,4.4s-2.71,17.1-2.71,22.9,1.81,19.49,1.81,19.49,15.68,1.96,24.18-2.68c0,0,4.44-14.11-.58-25.31s-15.16-21.59-15.16-21.59-2.23,4.78-4.16,4.78-2.32-1.06-2.32-1.06v-.93Z" fill="#ffb6c7"/>
        <path id="Trazado_837686" data-name="Trazado 837686" d="M149.89,196.31s6.57,17.1-5.22,20.39-20.87-6.57-20.87-6.57l-4.44,6.57s14.18,32.08,37.43,21.06,3.77-39.47,3.77-39.47l-3.95-6.61C156.6,191.67,153.89,196.4,149.89,196.31Z" fill="#ffb6c7"/>
        <g id="XMLID_20_">
          <g id="Grupo_1095525" data-name="Grupo 1095525">
            <path id="Trazado_837687" data-name="Trazado 837687" d="M181.58,213.41a15.018,15.018,0,0,1,4.83,10.63H174.43s-9.32-20.48-15.99-28.6-2.46-9.86-2.17-13.91-7.68-7.83-7.68-7.83c8.55-7.44,17.15,3,17.54,8.21s-.19,6.96,5.02,9.08,10.05,6.38,7.54,11.01C176.17,206.65,176.55,208.77,181.58,213.41Z" fill="#4359c5"/>
          </g>
        </g>
        <g id="XMLID_25_">
          <g id="Grupo_1095526" data-name="Grupo 1095526">
            <path id="Trazado_837688" data-name="Trazado 837688" d="M195.1,344.42l3.19,8.89H169.11s1.35-7.63,14.59-8.12Z" fill="#60afe8"/>
          </g>
        </g>
        <g id="XMLID_26_">
          <g id="Grupo_1095527" data-name="Grupo 1095527">
            <path id="Trazado_837689" data-name="Trazado 837689" d="M146.87,345.83l2.96,9.66H120.7s4.4-9.66,15.58-9.66Z" fill="#77c2ff"/>
          </g>
        </g>
      </g>
      <g id="Grupo_1095529" data-name="Grupo 1095529">
        <path id="Trazado_837690" data-name="Trazado 837690" d="M146.42,183.77a4.006,4.006,0,0,1-.85-.09.38.38,0,0,1-.29-.45.373.373,0,0,1,.45-.29c.4.08,1.33.15,1.59-.2a.378.378,0,0,1,.6.46A1.818,1.818,0,0,1,146.42,183.77Z"/>
      </g>
      <g id="XMLID_33_">
        <g id="Grupo_1095530" data-name="Grupo 1095530">
          <path id="Trazado_837691" data-name="Trazado 837691" d="M260.92,182.79a31.56,31.56,0,1,0-31.56,31.56A31.56,31.56,0,0,0,260.92,182.79Zm-79.64-26.75c-.64-.76-1.2-1.57-1.8-2.35-.44-.62-.93-1.2-1.39-1.81-.16-.19-.3-.4-.45-.6-.37-.48-.72-.96-1.1-1.43a12.523,12.523,0,0,1-1.28-1.86,1.463,1.463,0,0,1-.05-.2,2.552,2.552,0,0,1,.01-.73,4.091,4.091,0,0,1,.88-1.47c.43-.47.75-1.02,1.22-1.46.14-.2.32-.38.47-.57.2-.3.47-.56.68-.86a3.754,3.754,0,0,1,.35-.44c.76-.98,1.52-1.96,2.33-2.89a5.2,5.2,0,0,0,.46-.59c.4-.53.86-1.02,1.26-1.54a1.783,1.783,0,0,1,.74-.46c.16-.04.32-.07.47-.1a.606.606,0,0,1,.19,0,3.914,3.914,0,0,1,1.21.35c.15.06.3.12.45.19.4.2.82.34,1.23.51a4.173,4.173,0,0,1,.44.19c.12.05.23.11.35.15.67.26,1.33.55,2,.82.12.05.25.1.37.15.69.26,1.36.57,2.05.84.43.2.88.36,1.32.53.93.42,1.88.8,2.83,1.19a2.217,2.217,0,0,0,2.13-.21c.65-.41,1.25-.9,1.89-1.31.37-.22.68-.5,1.04-.73a2.851,2.851,0,0,0,1.07-.91c.05-.08.1-.16.15-.25a4.007,4.007,0,0,0,.16-.49c-.06-1.53-.21-3.06-.34-4.58a6.512,6.512,0,0,1-.05-1.08,2.276,2.276,0,0,0-.09-.82c-.06-.81-.1-1.61-.19-2.41a5.759,5.759,0,0,0-.08-1.17,4.135,4.135,0,0,1-.06-.7,3.305,3.305,0,0,0-.08-1.13,3.219,3.219,0,0,1-.06-.69,1.967,1.967,0,0,1,.65-1.78,7.656,7.656,0,0,1,2.12-.85c.72-.26,1.46-.49,2.18-.74.71-.22,1.42-.46,2.13-.71,1.42-.43,2.78-1,4.19-1.45a4.682,4.682,0,0,1,2.05-.42,2.323,2.323,0,0,1,1.56,1.17c.16.21.31.42.46.64.37.56.74,1.12,1.15,1.65.34.45.65.93.95,1.41.22.27.41.56.61.85a18.459,18.459,0,0,1,1.19,1.7,6.488,6.488,0,0,0,.36.55c.39.5.73,1.03,1.08,1.56.38.56.79,1.08,1.15,1.65a1.467,1.467,0,0,0,.66.57,2.577,2.577,0,0,0,1.5.22c.84-.12,1.68.03,2.52-.08a1.039,1.039,0,0,1,.35-.03,2.071,2.071,0,0,0,2.32-1.58,6.967,6.967,0,0,1,.41-.82,5.369,5.369,0,0,0,.54-.93c.18-.38.4-.74.61-1.1.38-.68.67-1.41,1.1-2.07.17-.28.3-.57.44-.86.21-.44.5-.83.7-1.27.33-.71.76-1.37,1.1-2.07l.18-.36c.12-.25.29-.48.41-.73a1.6,1.6,0,0,1,1.37-1.02h.7c.57.14,1.16.1,1.72.27.82.21,1.63.44,2.47.58.53.15,1.06.27,1.6.4.81.23,1.64.35,2.45.58a3.043,3.043,0,0,0,.52.13c.42.12.83.22,1.26.3.59.13,1.19.25,1.78.4a1.934,1.934,0,0,1,1.48,2.1c.16,2.66.28,5.31.29,7.97,0,.46.17.92.13,1.39a4.006,4.006,0,0,1,0,.6,18.444,18.444,0,0,0,.06,2.35,2.634,2.634,0,0,0,.35.97,2.712,2.712,0,0,0,1.12.95,8.1,8.1,0,0,1,1.29.71,4.318,4.318,0,0,0,2.16.9,3.877,3.877,0,0,0,1.8-.75c.63-.28,1.2-.67,1.82-.98a3.367,3.367,0,0,0,.59-.32c.74-.4,1.47-.84,2.22-1.23.26-.13.49-.3.75-.44.48-.2.9-.52,1.35-.75.66-.35,1.28-.76,1.96-1.08.28-.18.58-.32.87-.48a3.522,3.522,0,0,1,1.31-.55,1.874,1.874,0,0,1,1.57.71c.16.17.32.33.48.49.65.66,1.31,1.31,1.96,1.96.6.62,1.22,1.23,1.84,1.83.65.68,1.23,1.43,1.93,2.07.2.21.4.41.61.61.58.57,1.13,1.17,1.76,1.7a2.006,2.006,0,0,1,0,2.17c-.3.57-.65,1.12-1,1.67-.28.38-.45.82-.71,1.2-.25.42-.5.83-.75,1.25a20.816,20.816,0,0,1-1.07,1.83c-.12.19-.22.39-.34.58-.3.57-.63,1.13-.98,1.67-.47.72-.86,1.48-1.32,2.2a1.977,1.977,0,0,0-.19,2.1,8.257,8.257,0,0,0,.39.79c.2.44.5.83.7,1.26a4.948,4.948,0,0,0,1.41,1.89,2.705,2.705,0,0,0,.39.17c2.35.27,4.71.31,7.06.49,1.07.17,2.15.06,3.22.23a5.756,5.756,0,0,1,1.1.05,3.1,3.1,0,0,0,1.17.09,2.189,2.189,0,0,1,1.72.61,2.743,2.743,0,0,1,.39.57,19.624,19.624,0,0,1,.56,2.26c.12.69.31,1.37.45,2.06.14.58.23,1.17.4,1.75.27,1.57.66,3.11,1,4.65a9.844,9.844,0,0,1,.19,1.53,1.64,1.64,0,0,1-.59,1.56,15.377,15.377,0,0,1-1.65.88c-.24.11-.48.23-.71.35-.62.31-1.24.61-1.86.94-.75.36-1.49.74-2.24,1.12-.79.36-1.55.78-2.33,1.16-.44.2-.88.43-1.31.65-.23.11-.46.22-.69.34-.51.27-1.09.45-1.36,1.04-.53.72-.23,1.57-.39,2.35a7.856,7.856,0,0,0-.08,1.68,5.28,5.28,0,0,0-.12,1.32,2.636,2.636,0,0,0,1.21,1.73c.26.2.52.41.79.6,1.39,1.03,2.78,2.04,4.16,3.08a4.817,4.817,0,0,1,.7.48c.46.39.95.74,1.44,1.09.48.31.93.65,1.38,1,.25.22.53.39.79.59a2.136,2.136,0,0,1,1.26,2.3,9.935,9.935,0,0,1-.44,1.3c-.3.68-.45,1.42-.76,2.1a2.151,2.151,0,0,1-.1.27c-.08.21-.15.42-.24.62a3.473,3.473,0,0,0-.17.45l-.27.84c-.3.76-.6,1.52-.85,2.3-.16.45-.31.9-.49,1.33-.08.22-.15.45-.23.67-.33.68-.42,1.5-1.03,2.04a1.553,1.553,0,0,1-.81.35c-.34.03-.69.02-1.03.02a3.676,3.676,0,0,1-.57-.06,1.953,1.953,0,0,0-.68-.08c-1.34-.09-2.66-.33-3.99-.42-.08,0-.15-.01-.23-.01-.11-.01-.22-.03-.33-.05-.63-.12-1.28-.07-1.91-.21-.65-.07-1.29-.14-1.94-.19a2.237,2.237,0,0,0-.77-.1,3.306,3.306,0,0,1-.54-.06,2.648,2.648,0,0,0-2.75.9c-.5.7-1.04,1.38-1.53,2.1a8.829,8.829,0,0,1-.69.92,4.834,4.834,0,0,0-.74,1.12,2.724,2.724,0,0,0,.16,2.25c.19.63.49,1.22.7,1.84.26.74.54,1.47.83,2.19.1.24.18.49.28.74.08.18.15.36.22.54a6.312,6.312,0,0,0,.35.91c.13.41.29.81.45,1.21a7.773,7.773,0,0,0,.28.76c.28.75.56,1.49.87,2.23.22.63.64,1.24.29,1.96-.27.8-.99,1.18-1.6,1.65-.25.2-.49.41-.76.59-.5.38-1,.77-1.51,1.14-.44.31-.85.64-1.29.96-.3.23-.62.46-.91.7-1.02.85-2.12,1.6-3.17,2.41a3.711,3.711,0,0,1-.96.56,1.933,1.933,0,0,1-1.77-.5c-.43-.27-.76-.66-1.17-.94a11.44,11.44,0,0,0-1.02-.82,14.743,14.743,0,0,1-1.67-1.38c-.19-.17-.41-.3-.59-.47-.64-.5-1.26-1.02-1.9-1.51a2,2,0,0,1-.22-.19c-.68-.44-1.26-1-1.89-1.5a4.674,4.674,0,0,0-.74-.59,2.7,2.7,0,0,0-1-.54c-1.01-.18-1.81.45-2.7.71-.66.2-1.29.48-1.94.71-.68.28-1.38.51-2.06.81a2.151,2.151,0,0,0-.85.76,7.175,7.175,0,0,0-.48,1.76c-.13.72-.32,1.42-.45,2.14-.11.38-.15.78-.24,1.17-.06.29-.14.57-.19.86-.16.65-.26,1.3-.39,1.95-.19.69-.31,1.38-.44,2.08-.18.79-.32,1.59-.51,2.38a4.161,4.161,0,0,1-.28.99,1.9,1.9,0,0,1-1.81,1.14,10.5,10.5,0,0,0-1.48.18c-.48.01-.95.15-1.44.15-2.53.25-5.06.29-7.6.29a1.721,1.721,0,0,1-1.5-.57,8.134,8.134,0,0,1-.94-2.26c-.15-.5-.32-1-.49-1.49-.07-.23-.15-.46-.23-.68-.24-.73-.48-1.46-.73-2.18q-.315-1-.66-1.98c-.15-.49-.32-.98-.48-1.47-.07-.22-.14-.45-.22-.67-.21-.65-.42-1.3-.66-1.94a1.542,1.542,0,0,0-.27-.36,2.352,2.352,0,0,0-.33-.3,1.981,1.981,0,0,0-.51-.24c-.74-.2-1.49-.35-2.24-.5-.64-.16-1.29-.29-1.93-.43-.46-.12-.92-.19-1.38-.31a3.064,3.064,0,0,0-2.21-.03,2.311,2.311,0,0,0-.67.53c-.52.5-1.03,1.02-1.54,1.53l-.6.6-1.5,1.5c-.25.24-.49.48-.73.73-.47.46-.93.92-1.39,1.4a4.907,4.907,0,0,1-.7.74c-.48.49-.92,1.03-1.41,1.52a4.763,4.763,0,0,1-.63.64,2.119,2.119,0,0,1-1.88.53,11.51,11.51,0,0,1-2.26-1.23.887.887,0,0,1-.17-.08c-.68-.3-1.27-.75-1.93-1.1-.6-.34-1.19-.7-1.82-1-.77-.5-1.59-.91-2.39-1.37a9.011,9.011,0,0,1-1.27-.75,1.786,1.786,0,0,1-.79-1.91c.15-.52.26-1.06.39-1.59.26-.96.56-1.91.73-2.89.22-.66.37-1.34.53-2,.12-.42.22-.84.32-1.27.25-.92.46-1.84.69-2.77a7.21,7.21,0,0,0,.46-2.34c-.05-.93-.88-1.33-1.35-1.98a20.869,20.869,0,0,0-1.83-1.93c-.11-.11-.22-.23-.34-.34-.6-.57-1.14-1.21-1.76-1.75a2.21,2.21,0,0,0-.34-.18,1.981,1.981,0,0,0-1.53-.06c-.13.03-.26.07-.4.1-.65.12-1.29.3-1.94.42a17.34,17.34,0,0,1-2.57.57c-.6.15-1.19.3-1.8.42a17.689,17.689,0,0,1-2.5.55c-.1.03-.19.05-.29.08-.52.14-1.04.23-1.56.36a2.92,2.92,0,0,1-1.87.02,2.775,2.775,0,0,1-.52-.38,14.26,14.26,0,0,1-1.21-2.2c-.12-.27-.25-.53-.39-.79a11.14,11.14,0,0,0-.74-1.36c-.36-.7-.71-1.41-1.07-2.11-.11-.24-.23-.47-.35-.7-.21-.44-.43-.88-.67-1.32a8.751,8.751,0,0,1-1-2.12,2.191,2.191,0,0,1,.97-1.99c.22-.2.43-.41.63-.62.54-.53,1.18-.95,1.67-1.53.21-.19.4-.4.6-.6a19.441,19.441,0,0,0,1.64-1.5c.21-.2.41-.41.62-.6a12.1,12.1,0,0,0,1.62-1.5c.11-.11.23-.22.34-.34a9.864,9.864,0,0,0,1.23-1.1,4.962,4.962,0,0,0,.72-.8c.53-.92.17-1.84.03-2.77a9.173,9.173,0,0,0-.24-1.29c-.11-.81-.3-1.6-.45-2.41a5.211,5.211,0,0,0-.21-1.1,3.205,3.205,0,0,0-.17-.43,1.312,1.312,0,0,0-.27-.35,1.986,1.986,0,0,0-.84-.52c-.6-.2-1.18-.46-1.78-.64-.77-.33-1.57-.56-2.34-.86-.79-.28-1.57-.6-2.38-.85-.57-.28-1.19-.42-1.78-.66-1.11-.42-2.23-.82-3.34-1.24a2.48,2.48,0,0,1-.93-.47v-.98a2.806,2.806,0,0,0,0-1.41v-.42a25.309,25.309,0,0,0,.15-2.89,6.232,6.232,0,0,0,.09-1.06c.16-.76.18-1.54.31-2.3a2.912,2.912,0,0,0,.11-.88c.01-.11.03-.22.05-.33a2.775,2.775,0,0,0,.09-.76c.1-.5.13-1.01.27-1.5a2,2,0,0,1,1.56-1.51c.56-.12,1.14-.2,1.71-.32.71-.14,1.42-.26,2.13-.4.83-.12,1.66-.3,2.48-.46.48-.07.97-.13,1.45-.24,1.49-.23,2.96-.56,4.45-.79a2.4,2.4,0,0,0,.72-.26c.69-.26.88-.91,1.17-1.49.07-.15.11-.3.17-.46.21-.52.45-1.04.65-1.56.27-.7.6-1.37.86-2.08a2.067,2.067,0,0,0-.1-2.08c-.48-.69-1-1.35-1.51-2.02A1.27,1.27,0,0,1,181.28,156.04Z" fill="#00c4ff"/>
        </g>
      </g>
      <g id="Grupo_1095531" data-name="Grupo 1095531">
        <path id="Trazado_837692" data-name="Trazado 837692" d="M576.36,66.09a1.607,1.607,0,0,1-1.28-.59.369.369,0,0,1,.08-.52.376.376,0,0,1,.52.07c.06.07.59.67,1.72-.08a.374.374,0,0,1,.42.62A2.732,2.732,0,0,1,576.36,66.09Z"/>
      </g>
      <g id="Grupo_1095534" data-name="Grupo 1095534">
        <path id="Trazado_837693" data-name="Trazado 837693" d="M177.2,100.86s-3.84-15.26.57-29.35-6.7-39.1-27.45-37.71-30.66,17.32-28.2,30.47,7.38,20.88,21.33,27.48,14.86,16.96,14.86,16.96Z" fill="#ffb6c7"/>
        <g id="Grupo_1095532" data-name="Grupo 1095532">
          <path id="Trazado_837694" data-name="Trazado 837694" d="M191.49,142.87a18.819,18.819,0,0,1-10.52-2.86,16.68,16.68,0,0,1-7.15-11.06,3.592,3.592,0,0,1,7.12-.95,9.378,9.378,0,0,0,4.03,6.05c3.26,2.07,8.35,2.17,14.73.29a34.77,34.77,0,0,0,17.61-12.88A28.842,28.842,0,0,1,205,116.4c-9.26-6.5-10.52-18.3-5.89-25.25,3.39-5.08,10.99-8.7,21.25-2.19,7.18,4.55,10.59,12.25,9.34,21.12a31.293,31.293,0,0,1-.62,3.15,40.081,40.081,0,0,0,12.3-7.01,3.59,3.59,0,1,1,4.53,5.57c-4.06,3.3-10.48,7.58-18.06,9.24-.68.15-1.36.28-2.04.38-5.01,9.13-14.04,16.84-24.09,19.81A36.268,36.268,0,0,1,191.49,142.87ZM209.8,92.63a5.387,5.387,0,0,0-4.71,2.5c-2.7,4.05-1.71,11.36,4.04,15.39a21.057,21.057,0,0,0,12.02,4.01,24.744,24.744,0,0,0,1.46-5.45c.6-4.28.03-10.19-6.08-14.06A13.028,13.028,0,0,0,209.8,92.63Z" fill="#dfeff3"/>
        </g>
        <path id="Trazado_837695" data-name="Trazado 837695" d="M158.32,108.72l11.01,17.68,13.28-4.87-5.41-20.67Z" fill="#a1e7fe"/>
        <path id="Trazado_837696" data-name="Trazado 837696" d="M172.24,125.33l2.63,4.71,6.52-2.53-1.05-5.15Z" fill="#a1e7fe"/>
        <g id="Grupo_1095533" data-name="Grupo 1095533">
          <path id="Trazado_837697" data-name="Trazado 837697" d="M141.64,80.42a1.522,1.522,0,0,1-.42-.06,1.5,1.5,0,0,1-1.02-1.86,74.247,74.247,0,0,0,1.72-7.42c-.62-.62-1.21-1.27-1.75-1.91-3.01-3.59-6.03-9-4.6-12.45a4.3,4.3,0,0,1,3.9-2.59,4.889,4.889,0,0,1,4.41,1.76c2.33,2.84,2.08,8.87,1.27,14.13,3.19,2.84,6.52,4.26,9,3.71,3.01-.67,4.22-4.84,4.67-7.27.12-.65.21-1.31.28-1.98-3.83-4-7.67-8.94-7.49-12.56a4.477,4.477,0,0,1,2.1-3.64,3.714,3.714,0,0,1,4.32-.1c3.06,2.02,4.49,8.94,4.16,15.17a81.678,81.678,0,0,0,6.16,5.61,1.5,1.5,0,1,1-1.9,2.32c-.53-.43-2.43-2.01-4.71-4.17-1.02,5.39-3.48,8.78-6.95,9.55-3.42.76-7.1-.84-10.26-3.27-.61,3-1.27,5.33-1.45,5.96A1.5,1.5,0,0,1,141.64,80.42ZM140.02,57.1c-.09,0-.19,0-.3.01-1.12.1-1.31.55-1.39.75-.61,1.47.77,5.38,4.12,9.38l.02.02c.47-4.14.37-7.9-.92-9.47A1.8,1.8,0,0,0,140.02,57.1Zm15.97-6.57a1.214,1.214,0,0,0-.63.24,1.517,1.517,0,0,0-.76,1.29c-.1,1.94,1.91,4.98,4.62,8.09-.2-4.56-1.39-8.53-2.85-9.49A.775.775,0,0,0,155.99,50.53Z" fill="#fff"/>
        </g>
      </g>
      <g id="XMLID_28_">
        <g id="Grupo_1095535" data-name="Grupo 1095535">
          <path id="Trazado_837698" data-name="Trazado 837698" d="M319.41,83.42c.18,1.07.45,2.12.68,3.17a7.211,7.211,0,0,1,.13,1.04,1.15,1.15,0,0,1-.4,1.07,11.055,11.055,0,0,1-1.13.6c-.16.08-.33.16-.49.24-.42.21-.85.42-1.27.64-.51.24-1.02.51-1.52.76-.54.25-1.05.53-1.58.79-.3.14-.6.29-.89.44-.16.07-.31.15-.47.23-.35.18-.74.3-.93.71-.36.49-.15,1.07-.27,1.6a5.542,5.542,0,0,0-.05,1.15,3.865,3.865,0,0,0-.08.9,1.8,1.8,0,0,0,.83,1.18c.18.14.36.28.54.41.94.7,1.9,1.39,2.84,2.1a3.144,3.144,0,0,1,.48.33c.31.26.64.5.98.74a10.719,10.719,0,0,1,.94.68c.17.15.36.27.54.41a1.458,1.458,0,0,1,.86,1.56,7.16,7.16,0,0,1-.3.89c-.2.46-.3.97-.52,1.43a1.457,1.457,0,0,1-.07.19c-.06.14-.1.28-.17.42-.04.1-.08.2-.11.3-.06.19-.12.38-.19.57-.2.52-.41,1.04-.58,1.57-.11.3-.21.61-.34.91-.06.15-.11.31-.16.46-.23.47-.28,1.02-.7,1.39a1.135,1.135,0,0,1-.55.24c-.23.02-.47.01-.7.01a2.579,2.579,0,0,1-.39-.04,1.419,1.419,0,0,0-.46-.06c-.91-.06-1.81-.23-2.72-.28a.86.86,0,0,1-.16-.01,1.846,1.846,0,0,1-.23-.04c-.43-.08-.87-.05-1.3-.15-.44-.05-.88-.1-1.32-.13a1.521,1.521,0,0,0-.52-.07,2.326,2.326,0,0,1-.37-.04,1.607,1.607,0,0,0-.49-.06,1.474,1.474,0,0,0-1.39.67c-.34.48-.71.94-1.04,1.43a4.808,4.808,0,0,1-.47.62,3.323,3.323,0,0,0-.51.77,1.884,1.884,0,0,0,.11,1.54c.13.43.33.83.48,1.25q.27.75.57,1.5c.07.16.12.34.19.5.05.12.1.24.15.37a3.611,3.611,0,0,0,.24.62,8.113,8.113,0,0,0,.31.82,4.442,4.442,0,0,0,.19.51c.19.51.38,1.02.59,1.52.15.43.43.84.2,1.33-.19.55-.67.81-1.09,1.13a6.545,6.545,0,0,1-.52.4c-.34.26-.68.52-1.03.78-.3.21-.58.44-.88.65-.21.16-.42.31-.62.48-.7.58-1.44,1.09-2.16,1.64a2.527,2.527,0,0,1-.66.38,1.32,1.32,0,0,1-1.2-.34c-.29-.18-.52-.45-.8-.64-.22-.2-.46-.38-.7-.56a11.377,11.377,0,0,1-1.14-.94c-.13-.11-.28-.2-.4-.32-.43-.34-.86-.69-1.29-1.02-.05-.04-.1-.09-.15-.13-.46-.3-.86-.68-1.29-1.02a3.132,3.132,0,0,0-.5-.4,1.809,1.809,0,0,0-.68-.37c-.69-.12-1.23.31-1.84.49-.45.14-.88.33-1.32.48-.47.19-.94.35-1.4.55a1.459,1.459,0,0,0-.58.52,4.966,4.966,0,0,0-.33,1.2c-.09.49-.22.97-.31,1.46-.08.26-.1.53-.16.8-.04.19-.1.39-.13.58-.11.44-.18.89-.27,1.33-.13.47-.21.94-.3,1.42-.12.54-.22,1.08-.35,1.62a3.276,3.276,0,0,1-.19.68,1.287,1.287,0,0,1-1.23.78,8.691,8.691,0,0,0-1.01.12c-.33,0-.65.1-.98.11-1.72.17-3.45.2-5.18.2a1.16,1.16,0,0,1-1.02-.39,5.461,5.461,0,0,1-.64-1.54c-.1-.34-.22-.68-.33-1.02-.05-.16-.1-.31-.16-.47-.16-.5-.33-.99-.5-1.48-.14-.45-.29-.91-.45-1.35-.1-.34-.22-.67-.33-1-.05-.15-.09-.3-.15-.45-.15-.44-.28-.89-.45-1.32a1.436,1.436,0,0,0-.18-.25,2.09,2.09,0,0,0-.22-.2,1.5,1.5,0,0,0-.34-.16c-.51-.14-1.02-.24-1.53-.34-.44-.11-.88-.19-1.31-.29-.31-.08-.63-.13-.94-.21a2.123,2.123,0,0,0-1.51-.02,1.6,1.6,0,0,0-.46.36c-.35.34-.7.69-1.05,1.04-.14.13-.28.27-.41.41-.34.34-.68.68-1.02,1.03-.17.16-.34.33-.5.5-.32.31-.64.63-.94.95a2.842,2.842,0,0,1-.48.5c-.33.34-.63.7-.96,1.04a3.568,3.568,0,0,1-.43.44,1.431,1.431,0,0,1-1.28.36,7.413,7.413,0,0,1-1.54-.84l-.12-.06c-.46-.21-.87-.51-1.32-.75-.41-.23-.81-.48-1.24-.68-.52-.34-1.09-.62-1.63-.93a5.726,5.726,0,0,1-.86-.51,1.22,1.22,0,0,1-.54-1.3c.1-.36.18-.72.27-1.08.18-.65.38-1.3.5-1.97.15-.45.25-.91.36-1.37.08-.29.15-.57.21-.86.17-.63.32-1.26.47-1.88a5.1,5.1,0,0,0,.31-1.59c-.04-.64-.6-.91-.92-1.35a12.945,12.945,0,0,0-1.25-1.32l-.23-.23c-.41-.39-.77-.82-1.2-1.19a1.008,1.008,0,0,0-.23-.12,1.387,1.387,0,0,0-1.04-.04c-.09.02-.18.05-.27.07-.44.08-.88.21-1.32.29a11.64,11.64,0,0,1-1.75.39c-.41.1-.81.2-1.22.28a12.618,12.618,0,0,1-1.7.38,1.463,1.463,0,0,1-.2.05c-.35.09-.71.16-1.06.24a1.393,1.393,0,0,1-1.63-.25,9.535,9.535,0,0,1-.83-1.5q-.12-.27-.27-.54a7.025,7.025,0,0,0-.51-.93c-.25-.48-.48-.96-.73-1.44q-.105-.24-.24-.48c-.15-.3-.29-.6-.45-.9a5.582,5.582,0,0,1-.68-1.44,1.5,1.5,0,0,1,.66-1.36c.15-.14.29-.28.43-.42.37-.36.8-.65,1.14-1.04.14-.13.28-.27.41-.41a11.982,11.982,0,0,0,1.12-1.02c.14-.13.28-.28.42-.41a8.888,8.888,0,0,0,1.11-1.02c.08-.08.16-.15.23-.23a5.934,5.934,0,0,0,.84-.75,2.877,2.877,0,0,0,.49-.55,2.648,2.648,0,0,0,.02-1.88,8.52,8.52,0,0,0-.16-.88c-.07-.55-.21-1.09-.3-1.64a3.958,3.958,0,0,0-.14-.75,1.477,1.477,0,0,0-.12-.29,1.077,1.077,0,0,0-.18-.24,1.421,1.421,0,0,0-.57-.36c-.41-.14-.8-.31-1.21-.44-.52-.22-1.07-.38-1.6-.59-.54-.19-1.07-.41-1.62-.58-.39-.19-.81-.28-1.21-.45-.76-.29-1.52-.56-2.28-.84a1.711,1.711,0,0,1-.63-.32v-.67a1.95,1.95,0,0,0,0-.96v-.29a18.435,18.435,0,0,0,.11-1.97,3.5,3.5,0,0,0,.06-.72c.11-.52.12-1.05.21-1.57a1.734,1.734,0,0,0,.07-.6c.01-.07.02-.15.03-.22a1.807,1.807,0,0,0,.06-.52c.07-.34.09-.69.18-1.02a1.379,1.379,0,0,1,1.06-1.03c.38-.08.78-.14,1.16-.22l1.45-.27c.57-.08,1.13-.2,1.69-.31.33-.05.66-.09.99-.16,1.01-.15,2.01-.38,3.03-.54a1.812,1.812,0,0,0,.49-.18c.47-.18.6-.62.8-1.02.05-.1.08-.21.12-.31.14-.36.31-.71.44-1.07.19-.48.41-.94.59-1.42a1.4,1.4,0,0,0-.07-1.41c-.33-.47-.68-.92-1.03-1.38-.05-.07-.1-.15-.15-.21-.43-.52-.82-1.07-1.23-1.6-.3-.42-.63-.82-.95-1.23-.11-.13-.2-.28-.31-.41-.25-.32-.49-.66-.75-.98a8.4,8.4,0,0,1-.87-1.27.319.319,0,0,1-.03-.14,1.683,1.683,0,0,1,.01-.5,2.7,2.7,0,0,1,.6-1c.29-.32.51-.7.83-.99.1-.14.22-.26.32-.39.14-.21.32-.38.46-.59a3.505,3.505,0,0,1,.24-.3c.52-.67,1.04-1.33,1.59-1.97a3.9,3.9,0,0,0,.31-.4c.27-.36.58-.69.86-1.05a1.312,1.312,0,0,1,.5-.31c.11-.03.21-.05.32-.07a.565.565,0,0,1,.13,0,2.721,2.721,0,0,1,.83.24c.1.04.2.08.3.13.27.14.56.23.84.35.1.04.2.08.3.13.08.04.16.07.24.11.46.17.91.38,1.36.55a2.718,2.718,0,0,1,.25.11c.47.18.93.39,1.4.57.29.14.6.25.9.36.64.28,1.28.54,1.93.81a1.5,1.5,0,0,0,1.45-.15c.44-.28.85-.61,1.29-.9.25-.15.47-.34.71-.5a1.987,1.987,0,0,0,.73-.62c.03-.06.07-.11.1-.17a3.38,3.38,0,0,0,.11-.34c-.04-1.04-.14-2.08-.23-3.12a4.532,4.532,0,0,1-.04-.74,1.509,1.509,0,0,0-.06-.56c-.04-.55-.07-1.1-.13-1.64a3.465,3.465,0,0,0-.06-.79,3.886,3.886,0,0,1-.04-.48,2.481,2.481,0,0,0-.05-.77,2.487,2.487,0,0,1-.04-.47,1.348,1.348,0,0,1,.44-1.21,5.436,5.436,0,0,1,1.44-.58c.49-.18.99-.33,1.48-.5.49-.15.97-.31,1.45-.48.96-.3,1.9-.68,2.86-.99a3.379,3.379,0,0,1,1.4-.29,1.545,1.545,0,0,1,1.06.8c.11.14.21.29.31.44.25.38.5.76.78,1.12.23.31.44.63.65.96.15.19.28.38.41.58a11.483,11.483,0,0,1,.81,1.16c.07.13.16.25.24.38.26.34.5.71.74,1.06.26.38.54.74.78,1.13a.983.983,0,0,0,.45.38,1.71,1.71,0,0,0,1.02.15c.57-.08,1.15.02,1.71-.05a.652.652,0,0,1,.24-.02,1.407,1.407,0,0,0,1.58-1.08,4.066,4.066,0,0,1,.28-.55,4,4,0,0,0,.37-.63c.12-.26.28-.5.42-.75.26-.47.46-.96.75-1.41.11-.19.2-.39.3-.58.14-.3.34-.56.48-.86.23-.48.52-.93.75-1.41l.12-.24c.08-.17.2-.33.28-.5a1.074,1.074,0,0,1,.93-.69h.48c.38.1.79.07,1.17.18.56.14,1.11.3,1.68.4.36.1.72.18,1.09.27.55.16,1.12.24,1.67.4a2.251,2.251,0,0,0,.35.09c.28.08.57.15.86.21.4.09.81.17,1.21.28a1.32,1.32,0,0,1,1.01,1.43c.11,1.81.19,3.62.2,5.43,0,.32.11.63.09.95a2.8,2.8,0,0,1,0,.41,12.214,12.214,0,0,0,.04,1.6,1.751,1.751,0,0,0,.24.66,1.907,1.907,0,0,0,.76.65,5.76,5.76,0,0,1,.88.48,2.864,2.864,0,0,0,1.47.61,2.7,2.7,0,0,0,1.22-.51c.43-.19.82-.46,1.24-.67a1.94,1.94,0,0,0,.4-.22c.51-.27,1-.57,1.51-.83.18-.09.33-.21.51-.3.33-.14.61-.35.92-.51.45-.24.87-.52,1.34-.74.19-.12.39-.22.59-.33a2.657,2.657,0,0,1,.9-.38,1.246,1.246,0,0,1,1.07.49c.11.11.22.23.33.34.44.45.89.89,1.34,1.34.41.42.83.84,1.25,1.25.44.47.84.98,1.31,1.41q.2.21.42.42c.39.39.77.8,1.2,1.16a1.368,1.368,0,0,1,0,1.48c-.21.39-.44.77-.68,1.14-.19.26-.3.56-.48.82-.17.29-.34.57-.51.85-.21.44-.48.83-.73,1.25-.08.13-.15.27-.23.4a13.069,13.069,0,0,1-.67,1.14c-.32.49-.58,1.01-.9,1.5a1.35,1.35,0,0,0-.13,1.43c.08.19.17.36.26.54.14.3.34.56.48.86a3.389,3.389,0,0,0,.96,1.29,2.206,2.206,0,0,0,.27.12c1.6.18,3.21.21,4.81.33.73.12,1.47.04,2.19.16a3.149,3.149,0,0,1,.75.04,1.963,1.963,0,0,0,.8.06,1.512,1.512,0,0,1,1.17.41,1.659,1.659,0,0,1,.26.39,13.84,13.84,0,0,1,.38,1.54c.08.47.21.94.31,1.41C319.23,82.63,319.29,83.03,319.41,83.42ZM276.17,71.64a21.5,21.5,0,1,0,21.5,21.5A21.505,21.505,0,0,0,276.17,71.64Z" fill="#005afd"/>
        </g>
      </g>
      <g id="Grupo_1095536" data-name="Grupo 1095536">
        <path id="Trazado_837699" data-name="Trazado 837699" d="M78.02,46.1a.365.365,0,0,1-.37-.35.384.384,0,0,1,.34-.4c.07-.01.6-.11.65-1.19a.376.376,0,0,1,.38-.36h.02a.372.372,0,0,1,.36.39c-.06,1.44-.9,1.87-1.34,1.9A.076.076,0,0,1,78.02,46.1Z"/>
      </g>
      <g id="Grupo_1095541" data-name="Grupo 1095541">
        <path id="Trazado_837700" data-name="Trazado 837700" d="M322.11,58.97h70.33l-17.47,90.49H303.74Z" fill="#d9e6ff"/>
        <g id="XMLID_13_">
          <g id="Grupo_1095537" data-name="Grupo 1095537">
            <path id="Trazado_837701" data-name="Trazado 837701" d="M359.48,47.66l-2.35,11.31H350.3l2.91-11.31Z" fill="#3e57bd"/>
          </g>
        </g>
        <g id="XMLID_14_">
          <g id="Grupo_1095538" data-name="Grupo 1095538">
            <path id="Trazado_837702" data-name="Trazado 837702" d="M320.96,149.66s4.7-.5,4.79-.67-12.68,135.99-12.68,135.99h-2.02l9.58-135.41Z" fill="#a6c5fe"/>
          </g>
        </g>
        <path id="Trazado_837703" data-name="Trazado 837703" d="M353.13,149.57l12.27,135.8h1.9l-9.21-136.38Z" fill="#a6c5fe"/>
        <path id="Trazado_837704" data-name="Trazado 837704" d="M370.77,148.99,382.32,277h1.85l-8.69-128.6Z" fill="#a6c5fe"/>
        <path id="Trazado_837705" data-name="Trazado 837705" d="M315.67,145.84l-2.02,5.12h50.57l1.85-5.12Z" fill="#3e57bd"/>
        <g id="XMLID_15_">
          <g id="Grupo_1095539" data-name="Grupo 1095539">
            <rect id="Rectángulo_387514" data-name="Rectángulo 387514" width="6.38" height="14.67" transform="translate(326.39 114.75)" fill="#d1bbff"/>
          </g>
        </g>
        <rect id="Rectángulo_387515" data-name="Rectángulo 387515" width="6.38" height="25.2" transform="translate(337.34 104.21)" fill="#7c3eff"/>
        <g id="XMLID_27_">
          <g id="Grupo_1095540" data-name="Grupo 1095540">
            <rect id="Rectángulo_387516" data-name="Rectángulo 387516" width="6.38" height="33.6" transform="translate(348.09 95.81)" fill="#005afd"/>
          </g>
        </g>
        <rect id="Rectángulo_387517" data-name="Rectángulo 387517" width="6.89" height="53.2" transform="translate(359.18 76.21)" fill="#00c4ff"/>
      </g>
      <g id="XMLID_32_">
        <g id="Grupo_1095542" data-name="Grupo 1095542">
          <path id="Trazado_837706" data-name="Trazado 837706" d="M123.94,62.77c.07.54-4.08,2.31-3.98,3.27s-.29,4.28-3.28,4.15c0,0-3.97-1.73-6.86-.74s-1.6-1.69-1.6-1.69,5.6-.72,7.74-1.81S123.87,62.24,123.94,62.77Z" fill="#ffbdb3"/>
        </g>
      </g>
      <g id="Grupo_1095547" data-name="Grupo 1095547">
        <path id="Trazado_837707" data-name="Trazado 837707" d="M85.31,94.44s-.45,9.01,14.56,20.21l2.84-.63-2.84-7.21S88.39,88.38,88.2,88.56C88.02,88.76,85.31,94.44,85.31,94.44Z" fill="#005afd"/>
        <path id="Trazado_837708" data-name="Trazado 837708" d="M41.78,92.86s-12.49,9.65-1.19,20.95,46.5-20.95,46.5-20.95,1.6,9.88,17.75,21.55l3.42-.56S92.37,83,88.76,83.28,51.52,97.56,51.52,97.56Z" fill="#7c3eff"/>
        <g id="Grupo_1095546" data-name="Grupo 1095546">
          <path id="Trazado_837709" data-name="Trazado 837709" d="M71.16,55.03l-1.34,2.33s-.02,1.58,4.5,1.66l3.01-4.67-5.65-.98Z" fill="#ffbdb3"/>
          <path id="Trazado_837710" data-name="Trazado 837710" d="M75.15,41.44a9.088,9.088,0,0,1,2.81,3.32c.9,2.01,1.41-.5,2.61,2.61a16.285,16.285,0,0,1,.66,7.03s-6.89,1.31-9.5.6,0-11.25,0-11.25Z" fill="#ffbdb3"/>
          <g id="XMLID_29_">
            <g id="Grupo_1095543" data-name="Grupo 1095543">
              <path id="Trazado_837711" data-name="Trazado 837711" d="M75.75,41.98a6.175,6.175,0,0,1-.6,5.05s-1.43-1.28-2.19.23,1.43,3.17,1.43,3.17-.9,3.77-2.26,4.37-9.5.68-8.44-7.84S75.3,40.4,75.75,41.98Z" fill="#eb7474"/>
            </g>
          </g>
          <path id="Trazado_837712" data-name="Trazado 837712" d="M64.11,45.15s-5.84-5.11-5.84.88S64,47.81,64,47.81Z" fill="#eb7474"/>
          <path id="Trazado_837713" data-name="Trazado 837713" d="M42.15,92.41s-2.51,2.17,1.71,5.04,7.01.6,7.01.6l-4.22-6.71Z" fill="#77c2ff"/>
          <path id="Trazado_837714" data-name="Trazado 837714" d="M69.82,57.35l4.5,1.66L90.6,71.97l18.61-4.41.6,1.88s-16.43,8.29-19.59,8.29S74.54,71.4,74.54,71.4A73.118,73.118,0,0,1,50.57,98.2l-8.64-5.43C41.94,92.79,58.91,58.9,69.82,57.35Z" fill="#77c2ff"/>
          <g id="XMLID_31_">
            <g id="Grupo_1095544" data-name="Grupo 1095544">
              <path id="Trazado_837715" data-name="Trazado 837715" d="M105.2,113.99l-.89,3.88H98.42l1.23-3.88Z" fill="#f9fcfe"/>
            </g>
          </g>
          <g id="XMLID_30_">
            <g id="Grupo_1095545" data-name="Grupo 1095545">
              <path id="Trazado_837716" data-name="Trazado 837716" d="M118.71,118.17H103.44l1.03-4.5h5.34C117.38,113.68,118.71,118.17,118.71,118.17Z" fill="#fdfefe"/>
            </g>
          </g>
        </g>
      </g>
      <g id="Grupo_1095548" data-name="Grupo 1095548">
        <path id="Trazado_837717" data-name="Trazado 837717" d="M164.56,35.5a4.232,4.232,0,0,1-3.57-6.49l10.56-16.67a4.225,4.225,0,1,1,7.14,4.52L168.13,33.53A4.192,4.192,0,0,1,164.56,35.5Z" fill="#ffb6c7"/>
      </g>
      <g id="Grupo_1095549" data-name="Grupo 1095549">
        <path id="Trazado_837718" data-name="Trazado 837718" d="M140.67,33.84a4.227,4.227,0,0,1-4.13-3.38l-3.98-19.45a4.22,4.22,0,1,1,8.27-1.69l3.98,19.45a4.214,4.214,0,0,1-3.29,4.98A4.165,4.165,0,0,1,140.67,33.84Z" fill="#ffb6c7"/>
      </g>
      <g id="Grupo_1095550" data-name="Grupo 1095550">
        <path id="Trazado_837719" data-name="Trazado 837719" d="M121.76,48.41a4.2,4.2,0,0,1-1.65-.34l-19.95-8.46a4.225,4.225,0,0,1,3.3-7.78l19.95,8.46a4.228,4.228,0,0,1-1.65,8.12Z" fill="#ffb6c7"/>
      </g>
      <g id="Grupo_1095551" data-name="Grupo 1095551">
        <path id="Trazado_837720" data-name="Trazado 837720" d="M579.69,233.77a.934.934,0,0,0-.11.07c-1.15.74-11.11,7.27-17.04,14.97-6.3,8.18-24.53,14.65-24.53,14.65l1.8,5.05.51,1.43s19.07,5.45,29.92-6.13c3.11-3.32,6.09-6.53,8.5-9.61C584.75,246.52,587.27,239.64,579.69,233.77Z" fill="#cabcff"/>
        <path id="Trazado_837721" data-name="Trazado 837721" d="M576.47,219.24h0q.24-.255.45-.51c-.4-7.14-5.79-13.38-5.79-13.38-4.09,7.21-10.17,5.33-10.17,5.33-1.09,4-2,10.94,4.2,12.56a10.041,10.041,0,0,0,2.65.34C571.59,223.57,574.53,221.35,576.47,219.24Z" fill="#ffbdb3"/>
        <path id="Trazado_837722" data-name="Trazado 837722" d="M562.54,248.81c5.93-7.7,15.89-14.23,17.04-14.97-1.92-2.43-3.92-5.25-4.37-7.14-.35,1.92-1.05,3.14-3.4,3.44-4.64.6-5.25-2.39-5.25-2.39l.65-2.17c-.13.03-.2.05-.2.05s-4.82-.32-11.91,9.91c-5.63,8.12-18.81,23.71-24.01,29.78a68.006,68.006,0,0,0,6.92-1.87S556.24,256.98,562.54,248.81Z" fill="#005afd"/>
        <path id="Trazado_837723" data-name="Trazado 837723" d="M571.81,230.14c2.35-.3,3.05-1.52,3.4-3.44a53.789,53.789,0,0,1,1.26-7.45c-1.94,2.1-4.88,4.32-8.66,4.34l-.6,2-.65,2.17C566.56,227.75,567.17,230.73,571.81,230.14Z" fill="#ffbdb3"/>
        <path id="Trazado_837724" data-name="Trazado 837724" d="M571.13,205.35s5.39,6.24,5.79,13.38h0a9.233,9.233,0,0,0,5.39-7.55c.52-5.62-4.55-11.12-11.64-10.52,0,0-7.09-3.49-9.97.77s.26,9.26.26,9.26S567.04,212.56,571.13,205.35Z" fill="#eb7474"/>
        <path id="Trazado_837725" data-name="Trazado 837725" d="M540.31,269.93l-.51-1.43a20.829,20.829,0,0,0-4.52-.15,10.183,10.183,0,0,0-1.78.32,3.873,3.873,0,0,0-1.81,1.03l3.38,2.3h1.35v.92l1.38.94,14.67,9.98s11.73,4.09,17.02-6.65a217.637,217.637,0,0,0,9.25-23.02c-2.41,3.08-5.39,6.29-8.5,9.61C559.39,275.39,540.31,269.93,540.31,269.93Z" fill="#005afd"/>
        <path id="Trazado_837726" data-name="Trazado 837726" d="M527.44,367.48l18.64-22.49-8.66-5.37-4.73,5.37Z" fill="#cabcff"/>
        <path id="Trazado_837727" data-name="Trazado 837727" d="M536.43,272.93v1.12h-7.86c-2.07,3.69-4.67,8.31-7.31,13.03-4.1,7.32-8.31,14.88-10.88,19.56-6.3,11.5,22.31,38.34,22.31,38.34l4.73-5.37-13.39-27.09a103.67,103.67,0,0,0,28.44-28.67l-14.67-9.98Z" fill="#00c4ff"/>
        <path id="Trazado_837728" data-name="Trazado 837728" d="M530.57,270.51c-.27.47-.55.97-.85,1.5h5.35l-3.38-2.3A3.471,3.471,0,0,1,530.57,270.51Z" fill="#fdfeff"/>
        <path id="Trazado_837729" data-name="Trazado 837729" d="M524.55,272.01h-1.62c.02.07.04.13.06.19.32,1.12.52,1.81.53,1.85h12.92v-2.04H524.55Z" fill="#cabcff"/>
        <path id="Trazado_837730" data-name="Trazado 837730" d="M522.92,272.01h1.62a22.293,22.293,0,0,0,6.02-1.5,3.64,3.64,0,0,0,1.13-.8,3.711,3.711,0,0,1,1.81-1.03,9.854,9.854,0,0,1,1.78-.32,20.829,20.829,0,0,1,4.52.15l-1.8-5.05a67.159,67.159,0,0,1-6.92,1.87,18.46,18.46,0,0,1-3.39.42,28.823,28.823,0,0,0-6.34.89c.1.35.2.69.3,1.03C522.16,269.37,522.6,270.88,522.92,272.01Z" fill="#ffbdb3"/>
        <path id="Trazado_837731" data-name="Trazado 837731" d="M523.51,274.06H494.77l-1.12-4.23c-2.33.65-4.04,1.49-4.78,2.57-4.2,6.13,11.55,43.45,11.55,43.45h5.78s.52-25.05-4.46-34.76l19.54,6c2.64-4.72,5.24-9.35,7.31-13.03Z" fill="#00c4ff"/>
        <path id="Trazado_837732" data-name="Trazado 837732" d="M530.57,270.51a21.928,21.928,0,0,1-6.02,1.5h5.17C530.02,271.48,530.3,270.98,530.57,270.51Z" fill="#fafdfe"/>
        <path id="Trazado_837733" data-name="Trazado 837733" d="M523.51,274.06h0c-.01-.04-.21-.73-.53-1.85-.02-.06-.04-.13-.06-.19-.32-1.13-.76-2.65-1.26-4.34-.1-.34-.2-.68-.3-1.03-1.88-6.44-4.36-14.74-4.68-14.82-.52-.13-27.82,0-27.82,0l4.78,18.01,1.12,4.23h28.75Z" fill="#005afd"/>
        <path id="Trazado_837734" data-name="Trazado 837734" d="M488.46,324.28l21.79-2.94-4.07-5.49h-5.77Z" fill="#005afd"/>
      </g>
      <g id="Grupo_1095552" data-name="Grupo 1095552">
        <path id="Trazado_837735" data-name="Trazado 837735" d="M567.13,215.2a5.96,5.96,0,0,1-2.26-.39.374.374,0,1,1,.29-.69,6.355,6.355,0,0,0,4.09-.01.373.373,0,0,1,.23.71A7.682,7.682,0,0,1,567.13,215.2Z"/>
      </g>
      <g id="XMLID_34_">
        <path id="Trazado_837736" data-name="Trazado 837736" d="M445,120.31c.6,6.51-1.75,9.19-4.56,10.1l-.04-.52L424.58,125l-.7,11.65-1.15,1.56a4.731,4.731,0,0,1-3.33-.56s1.12-7.09,2.8-13.79,12.12-2.7,16.89-1.13S445,120.31,445,120.31Z" fill="#4359c5"/>
        <path id="Trazado_837737" data-name="Trazado 837737" d="M438.52,149.77a7.849,7.849,0,0,1,2.55,6.73l-7.62,67.17c-.28-.01-.54-.04-.79-.07v-.21l-1.9-.33c-.15-7.53-.44-13.73-.67-17.86v-.05c-.1-2.23-.2-3.96-.3-4.86v-.01l7.29-51.78h0C437.56,148.91,438.04,149.33,438.52,149.77Z" fill="#005afd"/>
        <path id="Trazado_837738" data-name="Trazado 837738" d="M438.93,292.88l-7.14.28-13.87-8.2h9.91Z" fill="#fafdfe"/>
        <path id="Trazado_837739" data-name="Trazado 837739" d="M437.09,148.5l-7.29,51.78C430.94,175.96,436.99,148.92,437.09,148.5Z" fill="#005afd"/>
        <path id="Trazado_837740" data-name="Trazado 837740" d="M433.51,294.18l-28.98-.37.23-8.85h13.16l13.87,8.2Z" fill="#fdfeff"/>
        <path id="Trazado_837741" data-name="Trazado 837741" d="M432.67,223.39v.21a6.957,6.957,0,0,1-1.9-.54Z" fill="#cabcff"/>
        <path id="Trazado_837742" data-name="Trazado 837742" d="M430.78,223.06a6.5,6.5,0,0,0,1.9.54v.07l-1.79,8.27-.01-.4v-.02C430.87,228.56,430.83,225.73,430.78,223.06Z" fill="#fdcfd8"/>
        <path id="Trazado_837743" data-name="Trazado 837743" d="M430.64,222.99a1.42,1.42,0,0,0,.14.07l.11,8.46v.02c.07,15.67-.55,35.07-3.05,53.41h-9.91l-3.39-80.54c5.51.12,10.86-.75,14.26-3.74l1.02-.4v.01c.06.88.17,2.54.3,4.86v.05C430.32,209.95,430.5,216.94,430.64,222.99Z" fill="#2e40a3"/>
        <path id="Trazado_837744" data-name="Trazado 837744" d="M430.88,231.52l-.11-8.46C430.83,225.73,430.87,228.56,430.88,231.52Z" fill="#2e40a3"/>
        <path id="Trazado_837745" data-name="Trazado 837745" d="M423.79,138.06a27.5,27.5,0,0,0,6.92,4.82l-.1.31-.93,2.8h-.03a8.43,8.43,0,0,1-4.06-.29c-1.71-.65-3.5-2.17-4.31-5.56l1.44-1.95a2.651,2.651,0,0,0,1.09-.63Z" fill="#f4eff1"/>
        <path id="Trazado_837746" data-name="Trazado 837746" d="M430.64,222.99c-.14-6.05-.32-13.04-.53-17.8.23,4.13.51,10.33.67,17.86A.771.771,0,0,1,430.64,222.99Z" fill="#cabcff"/>
        <path id="Trazado_837747" data-name="Trazado 837747" d="M421.29,140.15c.64,3.43,2.5,4.94,4.31,5.56a7.572,7.572,0,0,0,4.06.29h.03l.93-2.8s3.02,2.29,6.48,5.3h0c-.09.42-6.15,27.46-7.29,51.78-.03-.46-.05-.7-.05-.7l-15.32,2.41-20.9-1.45,2.76-43.31c-33.96-7.17-34.32-31.22-34.32-31.22l2.37-6.44,35.76,16.23Z" fill="#cabcff"/>
        <path id="Trazado_837748" data-name="Trazado 837748" d="M429.75,199.58s.02.24.05.7l-1.02.4c-3.39,2.99-8.74,3.86-14.26,3.74l-.1-2.43Z" fill="#cabcff"/>
        <path id="Trazado_837749" data-name="Trazado 837749" d="M430.44,134c.52.16.16-5.15,2.78-4.05a11.571,11.571,0,0,0,7.22.45l.71,8.4-2.36.52s-1.09,6.62-8.08,3.55l.5-1.5-6.41-5.32a8.317,8.317,0,0,0,.44-1.65c1.03-6.13,3.39-5.4,3.64-4.65S429.92,133.84,430.44,134Z" fill="#ffbdb3"/>
        <path id="Trazado_837750" data-name="Trazado 837750" d="M425.25,134.42a8.506,8.506,0,0,1-.44,1.65l-.31-.26-.62.84.7-11.65,15.82,4.89.04.52a11.571,11.571,0,0,1-7.22-.45c-2.62-1.1-2.26,4.21-2.78,4.05s-1.31-3.49-1.56-4.24S426.28,128.29,425.25,134.42Z" fill="#4359c5"/>
        <path id="Trazado_837751" data-name="Trazado 837751" d="M423.82,137.58a4.074,4.074,0,0,0,.98-1.51l6.41,5.32-.5,1.5a27.322,27.322,0,0,1-6.92-4.82Z" fill="#fdcfd8"/>
        <path id="Trazado_837752" data-name="Trazado 837752" d="M424.8,136.06a4.03,4.03,0,0,1-.98,1.51l.06-.93.62-.84Z" fill="#4359c5"/>
        <path id="Trazado_837753" data-name="Trazado 837753" d="M422.73,138.2l1.15-1.56-.06.93A2.651,2.651,0,0,1,422.73,138.2Z" fill="#4359c5"/>
        <path id="Trazado_837754" data-name="Trazado 837754" d="M421.29,140.15c.81,3.39,2.59,4.92,4.31,5.56C423.79,145.09,421.93,143.58,421.29,140.15Z" fill="#ffbdb3"/>
        <path id="Trazado_837755" data-name="Trazado 837755" d="M414.43,201.99l.1,2.43h0Z" fill="#cabcff"/>
        <path id="Trazado_837756" data-name="Trazado 837756" d="M393.53,200.54s10.78,3.65,21,3.88l.52,12.54,2.88,68H404.78Z" fill="#3d52bd"/>
        <path id="Trazado_837757" data-name="Trazado 837757" d="M393.53,200.54l20.9,1.45.1,2.43C404.31,204.19,393.53,200.54,393.53,200.54Z" fill="#cabcff"/>
        <path id="Trazado_837758" data-name="Trazado 837758" d="M364.34,119.58l-2.37,6.44s-10.19-4.46-13.38-6.44-2.37-10.62,1.19-10.25,10.05,7.17,10.05,7.17-.64-6.74.37-6.74,1.1.58,1.1.58C361.28,114.11,364.34,119.58,364.34,119.58Z" fill="#ffbdb3"/>
      </g>
      <g id="Grupo_1095553" data-name="Grupo 1095553">
        <path id="Trazado_837759" data-name="Trazado 837759" d="M561.39,214.58a1.9,1.9,0,0,1-1.37-.47.376.376,0,1,1,.57-.49,1.405,1.405,0,0,0,.93.2.382.382,0,0,1,.4.35.378.378,0,0,1-.35.4A.816.816,0,0,1,561.39,214.58Z"/>
      </g>
      <path id="Trazado_837760" data-name="Trazado 837760" d="M268.28,153.49v9.39s-5.32.12-6.84-3.92,1.39-7.36,1.39-7.36Z" fill="#ffbdb3"/>
      <g id="XMLID_44_">
        <g id="Grupo_1095554" data-name="Grupo 1095554">
          <path id="Trazado_837761" data-name="Trazado 837761" d="M327.71,277l-8.56-.58-11.46-39.44-44.35,1.68,6.33-23.53s47.4,3.26,49.02,12.88C320.29,237.62,327.71,277,327.71,277Z" fill="#622fcf"/>
        </g>
      </g>
      <path id="Trazado_837762" data-name="Trazado 837762" d="M269.66,139.01l4.64,7.45-1.33.51s.31,6.53-5.2,6.53-8.26-.31-8.26-.31l-2.14-9.18Z" fill="#ffbdb3"/>
      <g id="XMLID_45_">
        <g id="Grupo_1095555" data-name="Grupo 1095555">
          <path id="Trazado_837763" data-name="Trazado 837763" d="M259.71,256.22c-5.51,15.3-27.14,63.86-27.14,63.86l-12.04-.82s22.65-67.64,20.81-81.71,4.12-28.74,4.12-28.74l24.88,2.5C270.35,211.31,265.22,240.92,259.71,256.22Z" fill="#7c3eff"/>
        </g>
      </g>
      <path id="Trazado_837764" data-name="Trazado 837764" d="M311.96,148.06s8.47-5.61,10.81-8.77,8.98-11.32,9.69-10.71-4.18,6.32-2.96,7.45,4.28,5.61-.82,7.96-7.55,1.58-12.04,11.02l-5.51-.88Z" fill="#ffbdb3"/>
      <path id="Trazado_837765" data-name="Trazado 837765" d="M268.28,161.91c.15.05.92,1.33,1.12,4.64s2.86,18.06,2.86,24.18-1.91,20.58-1.91,20.58-16.55,2.07-25.53-2.83c0,0-4.69-14.89.61-26.73s16.01-22.79,16.01-22.79,2.35,5.04,4.39,5.04,2.45-1.12,2.45-1.12Z" fill="#d1bbff"/>
      <g id="XMLID_43_">
        <g id="Grupo_1095556" data-name="Grupo 1095556">
          <path id="Trazado_837766" data-name="Trazado 837766" d="M245.84,157.27c-5.51,2.24-10.61,6.73-7.96,11.63s2.24,7.14-3.06,12.04a15.855,15.855,0,0,0-5.1,11.22h12.65s9.84-21.63,16.88-30.2,2.6-10.41,2.3-14.69,8.11-8.26,8.11-8.26c-9.03-7.86-18.11,3.16-18.52,8.67S251.35,155.02,245.84,157.27Z" fill="#eb7474"/>
        </g>
      </g>
      <g id="XMLID_42_">
        <g id="Grupo_1095557" data-name="Grupo 1095557">
          <path id="Trazado_837767" data-name="Trazado 837767" d="M220.54,319.27l-3.37,9.39h30.81s-1.43-8.06-15.4-8.57Z" fill="#ffb6c7"/>
        </g>
      </g>
      <g id="XMLID_40_">
        <g id="Grupo_1095558" data-name="Grupo 1095558">
          <path id="Trazado_837768" data-name="Trazado 837768" d="M281.7,164.22c6.53,3.23,31.69-17.08,31.69-17.08l3.1,3.08s-3.87,29.3-32.1,29.3-31.31-19.99-18.57-18.96C265.83,160.56,275.17,160.98,281.7,164.22Z" fill="#d1bbff"/>
        </g>
      </g>
      <g id="XMLID_37_">
        <g id="Grupo_1095559" data-name="Grupo 1095559">
          <path id="Trazado_837769" data-name="Trazado 837769" d="M313.77,146.82l4.91,4.37c-.69,4.87-10.52,17.71-10.52,17.71s-16.36-6.26-11.96-9.6S313.77,146.82,313.77,146.82Z" fill="#d1bbff"/>
        </g>
      </g>
      <g id="XMLID_41_">
        <g id="Grupo_1095560" data-name="Grupo 1095560">
          <path id="Trazado_837770" data-name="Trazado 837770" d="M319.15,276.41l-3.37,9.39h30.81s-1.43-8.06-15.41-8.57Z" fill="#ffb6c7"/>
        </g>
      </g>
      <circle id="Elipse_11137" data-name="Elipse 11137" cx="14.6" cy="14.6" r="14.6" transform="translate(10.84 17.32)" fill="#dfeff3"/>
      <circle id="Elipse_11138" data-name="Elipse 11138" cx="12.01" cy="12.01" r="12.01" transform="translate(593.51 311.95)" fill="#a6eaff"/>
    </g>
  </g>
</svg>
