<svg xmlns="http://www.w3.org/2000/svg" xmlns:xlink="http://www.w3.org/1999/xlink" width="400" height="476" viewBox="0 0 400 476">
  <defs>
    <clipPath id="clip-path">
      <rect id="Rectángulo_387009" data-name="Rectángulo 387009" width="400" height="476" transform="translate(1020 544)" fill="#f249f7" stroke="#707070" stroke-width="1"/>
    </clipPath>
    <clipPath id="clip-path-2">
      <rect id="Rectángulo_387008" data-name="Rectángulo 387008" width="404.333" height="532.664" fill="none"/>
    </clipPath>
    <clipPath id="clip-path-3">
      <rect id="Rectángulo_386994" data-name="Rectángulo 386994" width="404.049" height="473" fill="none"/>
    </clipPath>
    <clipPath id="clip-path-4">
      <rect id="Rectángulo_386993" data-name="Rectángulo 386993" width="378.13" height="510.785" transform="translate(17.919 21.879)" fill="none"/>
    </clipPath>
    <clipPath id="clip-path-5">
      <rect id="Rectángulo_386985" data-name="Rectángulo 386985" width="378.13" height="268.771" transform="translate(17.919 235.588)" fill="none"/>
    </clipPath>
    <clipPath id="clip-path-6">
      <rect id="Rectángulo_386984" data-name="Rectángulo 386984" width="23.986" height="23.987" transform="translate(129.057 418.578)" fill="none"/>
    </clipPath>
    <clipPath id="clip-path-7">
      <rect id="Rectángulo_386983" data-name="Rectángulo 386983" width="23.986" height="23.986" transform="translate(129.057 418.578)" fill="none"/>
    </clipPath>
    <clipPath id="clip-path-8">
      <rect id="Rectángulo_386986" data-name="Rectángulo 386986" width="14.968" height="14.967" transform="translate(225.743 377.913)" fill="none"/>
    </clipPath>
    <clipPath id="clip-path-9">
      <rect id="Rectángulo_386987" data-name="Rectángulo 386987" width="30.998" height="30.998" transform="translate(328.508 403.08)" fill="none"/>
    </clipPath>
    <clipPath id="clip-path-11">
      <rect id="Rectángulo_386988" data-name="Rectángulo 386988" width="30.998" height="30.998" transform="translate(351.625 21.881)" fill="none"/>
    </clipPath>
    <clipPath id="clip-path-12">
      <rect id="Rectángulo_386990" data-name="Rectángulo 386990" width="44.424" height="44.425" transform="translate(351.625 343.213)" fill="none"/>
    </clipPath>
    <clipPath id="clip-path-13">
      <rect id="Rectángulo_386991" data-name="Rectángulo 386991" width="48.408" height="48.408" transform="translate(17.919 455.951)" fill="none"/>
    </clipPath>
    <clipPath id="clip-path-14">
      <rect id="Rectángulo_386992" data-name="Rectángulo 386992" width="44.136" height="44.136" transform="translate(208.619 451.756)" fill="none"/>
    </clipPath>
    <clipPath id="clip-path-16">
      <rect id="Rectángulo_386995" data-name="Rectángulo 386995" width="69.359" height="69.378" transform="translate(160.301 30.019)" fill="none"/>
    </clipPath>
    <clipPath id="clip-path-17">
      <rect id="Rectángulo_386997" data-name="Rectángulo 386997" width="78.148" height="78.148" transform="translate(167.85 282.754)" fill="none"/>
    </clipPath>
    <clipPath id="clip-path-19">
      <rect id="Rectángulo_386999" data-name="Rectángulo 386999" width="14.968" height="14.968" transform="translate(78.825 28.624)" fill="none"/>
    </clipPath>
    <clipPath id="clip-path-20">
      <rect id="Rectángulo_386998" data-name="Rectángulo 386998" width="14.968" height="14.967" transform="translate(78.825 28.625)" fill="none"/>
    </clipPath>
    <clipPath id="clip-path-21">
      <rect id="Rectángulo_387000" data-name="Rectángulo 387000" width="346.701" height="296.093" transform="translate(44.588 115.217)" fill="none"/>
    </clipPath>
    <clipPath id="clip-path-22">
      <rect id="Rectángulo_387001" data-name="Rectángulo 387001" width="68.826" height="72.875" transform="translate(6.618 303.716)" fill="none"/>
    </clipPath>
    <clipPath id="clip-path-23">
      <rect id="Rectángulo_387002" data-name="Rectángulo 387002" width="288.742" height="197.043" transform="translate(105.596 131.796)" fill="none"/>
    </clipPath>
    <clipPath id="clip-path-24">
      <rect id="Rectángulo_387005" data-name="Rectángulo 387005" width="47.737" height="61.838" transform="translate(104.049 179.459)" fill="none"/>
    </clipPath>
    <clipPath id="clip-path-25">
      <path id="Trazado_833421" data-name="Trazado 833421" d="M150.705,214.342a24.115,24.115,0,0,0-7.572-15.976,58.485,58.485,0,0,0-7.876-18.021c-.373-.567-.6-.886-.6-.886L111.5,185.131s13.429,21.931,13.069,23.067-6.31,2.835-6.31,2.835-8.651-9.075-12.977-4.159,4.146,12.479,4.146,12.479l.541,9.074-4.868,1.892.54,7.94c4.328,3.4,28.3,3.025,28.841,3.025s.182-5.106.182-5.106,11.678.976,14.238-.945c4.734-3.544,2.345-10.871,1.805-20.891" fill="none"/>
    </clipPath>
    <linearGradient id="linear-gradient" x1="-1.916" y1="5.678" x2="-1.897" y2="5.678" gradientUnits="objectBoundingBox">
      <stop offset="0" stop-color="gray"/>
      <stop offset="1" stop-color="#d6d6d6"/>
    </linearGradient>
    <clipPath id="clip-path-26">
      <path id="Trazado_833422" data-name="Trazado 833422" d="M148.9,235.234A6.362,6.362,0,0,0,150.782,233c-19.744,3.372-22.63-23.077-22.63-23.077s-6.978-14.743-6.978-19.015c0-3.82,12.095-8.694,14.647-9.682-.207-.328-.4-.631-.564-.883-.373-.569-.6-.885-.6-.885L111.5,185.131s13.429,21.931,13.069,23.067-6.31,2.835-6.31,2.835-8.651-9.075-12.977-4.159,4.146,12.479,4.146,12.479l.541,9.074-4.868,1.892.54,7.94a9.714,9.714,0,0,0,3.54,1.388l14.32.68c1.649-5.184,8.727-4.981,8.727-4.981q1.595.459,3.066.88c2.453.169,11.4.66,13.608-.992" fill="none"/>
    </clipPath>
    <linearGradient id="linear-gradient-2" x1="-2.026" y1="5.803" x2="-2.006" y2="5.803" xlink:href="#linear-gradient"/>
    <clipPath id="clip-path-27">
      <rect id="Rectángulo_387006" data-name="Rectángulo 387006" width="38.958" height="13.245" transform="translate(122.891 304.042)" fill="none"/>
    </clipPath>
  </defs>
  <g id="_2" data-name="2" transform="translate(-1020 -544)" clip-path="url(#clip-path)">
    <g id="Grupo_1093733" data-name="Grupo 1093733" transform="translate(1020 546.435)">
      <g id="Grupo_1093732" data-name="Grupo 1093732" clip-path="url(#clip-path-2)">
        <path id="Trazado_833316" data-name="Trazado 833316" d="M0,292.275v181H404.333V38.657Z" fill="#e9eeef"/>
        <path id="Trazado_833317" data-name="Trazado 833317" d="M183.588,325.423l6.23,6.23-6.23,6.237" fill="none" stroke="#6e40fc" stroke-linecap="round" stroke-linejoin="round" stroke-width="1"/>
        <path id="Trazado_833318" data-name="Trazado 833318" d="M191.46,325.423l6.23,6.23-6.23,6.237" fill="none" stroke="#6e40fc" stroke-linecap="round" stroke-linejoin="round" stroke-width="1"/>
        <path id="Trazado_833319" data-name="Trazado 833319" d="M199.332,325.423l6.23,6.23-6.23,6.237" fill="none" stroke="#6e40fc" stroke-linecap="round" stroke-linejoin="round" stroke-width="1"/>
        <path id="Trazado_833320" data-name="Trazado 833320" d="M36.945,174.15l6.237,6.237-6.237,6.23" fill="none" stroke="#6e40fc" stroke-linecap="round" stroke-linejoin="round" stroke-width="1"/>
        <path id="Trazado_833321" data-name="Trazado 833321" d="M44.817,174.15l6.237,6.237-6.237,6.23" fill="none" stroke="#6e40fc" stroke-linecap="round" stroke-linejoin="round" stroke-width="1"/>
        <path id="Trazado_833322" data-name="Trazado 833322" d="M52.689,174.15l6.24,6.237-6.237,6.23" fill="none" stroke="#6e40fc" stroke-linecap="round" stroke-linejoin="round" stroke-width="1"/>
        <g id="Grupo_1093697" data-name="Grupo 1093697">
          <g id="Grupo_1093696" data-name="Grupo 1093696" clip-path="url(#clip-path-3)">
            <path id="Trazado_833323" data-name="Trazado 833323" d="M366.6,198.6a1.784,1.784,0,1,1-1.787-1.781A1.784,1.784,0,0,1,366.6,198.6" fill="#00c4ff"/>
            <path id="Trazado_833324" data-name="Trazado 833324" d="M376.557,198.6a1.784,1.784,0,1,1-1.787-1.781,1.784,1.784,0,0,1,1.787,1.781" fill="#00c4ff"/>
            <path id="Trazado_833325" data-name="Trazado 833325" d="M386.508,198.6a1.784,1.784,0,1,1-1.787-1.781,1.784,1.784,0,0,1,1.787,1.781" fill="#00c4ff"/>
            <path id="Trazado_833326" data-name="Trazado 833326" d="M366.6,207.445a1.784,1.784,0,1,1,0-.006Z" fill="#00c4ff"/>
            <path id="Trazado_833327" data-name="Trazado 833327" d="M376.557,207.445a1.784,1.784,0,1,1,0-.006Z" fill="#00c4ff"/>
            <path id="Trazado_833328" data-name="Trazado 833328" d="M386.508,207.445a1.784,1.784,0,1,1,0-.006Z" fill="#00c4ff"/>
            <path id="Trazado_833329" data-name="Trazado 833329" d="M366.6,216.28a1.784,1.784,0,1,1,0-.006Z" fill="#00c4ff"/>
            <path id="Trazado_833330" data-name="Trazado 833330" d="M376.557,216.28a1.784,1.784,0,1,1,0-.006Z" fill="#00c4ff"/>
            <path id="Trazado_833331" data-name="Trazado 833331" d="M386.508,216.28a1.784,1.784,0,1,1,0-.006Z" fill="#00c4ff"/>
            <path id="Trazado_833332" data-name="Trazado 833332" d="M42.106,200.451a2.581,2.581,0,1,1-2.591-2.571h.01a2.583,2.583,0,0,1,2.581,2.571" fill="#00c4ff"/>
            <path id="Trazado_833333" data-name="Trazado 833333" d="M56.483,200.451A2.576,2.576,0,1,1,53.9,197.88a2.576,2.576,0,0,1,2.581,2.571" fill="#00c4ff"/>
            <path id="Trazado_833334" data-name="Trazado 833334" d="M70.859,200.451a2.576,2.576,0,1,1-2.581-2.571,2.576,2.576,0,0,1,2.581,2.571" fill="#00c4ff"/>
            <path id="Trazado_833335" data-name="Trazado 833335" d="M42.106,213.217a2.581,2.581,0,1,1-2.591-2.571h.01a2.583,2.583,0,0,1,2.581,2.571" fill="#00c4ff"/>
            <path id="Trazado_833336" data-name="Trazado 833336" d="M56.483,213.217a2.576,2.576,0,1,1-2.581-2.571,2.576,2.576,0,0,1,2.581,2.571" fill="#00c4ff"/>
            <path id="Trazado_833337" data-name="Trazado 833337" d="M70.859,213.217a2.576,2.576,0,1,1-2.581-2.571,2.576,2.576,0,0,1,2.581,2.571" fill="#00c4ff"/>
            <path id="Trazado_833338" data-name="Trazado 833338" d="M42.106,225.983a2.581,2.581,0,1,1-2.581-2.581,2.582,2.582,0,0,1,2.581,2.581" fill="#00c4ff"/>
            <path id="Trazado_833339" data-name="Trazado 833339" d="M56.483,225.983A2.576,2.576,0,1,1,53.9,223.4a2.576,2.576,0,0,1,2.581,2.581" fill="#00c4ff"/>
            <path id="Trazado_833340" data-name="Trazado 833340" d="M70.859,225.983a2.576,2.576,0,1,1-2.581-2.581,2.576,2.576,0,0,1,2.581,2.581" fill="#00c4ff"/>
            <g id="Grupo_1093695" data-name="Grupo 1093695" opacity="0.65">
              <g id="Grupo_1093694" data-name="Grupo 1093694">
                <g id="Grupo_1093693" data-name="Grupo 1093693" clip-path="url(#clip-path-4)">
                  <g id="Grupo_1093678" data-name="Grupo 1093678">
                    <g id="Grupo_1093677" data-name="Grupo 1093677" clip-path="url(#clip-path-5)">
                      <g id="Grupo_1093676" data-name="Grupo 1093676" opacity="0.5">
                        <g id="Grupo_1093675" data-name="Grupo 1093675">
                          <g id="Grupo_1093674" data-name="Grupo 1093674" clip-path="url(#clip-path-6)">
                            <g id="Grupo_1093673" data-name="Grupo 1093673">
                              <g id="Grupo_1093672" data-name="Grupo 1093672" clip-path="url(#clip-path-7)">
                                <path id="Trazado_833341" data-name="Trazado 833341" d="M153.043,430.571a11.993,11.993,0,1,1-11.994-11.992h0a11.993,11.993,0,0,1,11.993,11.992" fill="#e5e589"/>
                              </g>
                            </g>
                          </g>
                        </g>
                      </g>
                    </g>
                  </g>
                  <g id="Grupo_1093680" data-name="Grupo 1093680">
                    <g id="Grupo_1093679" data-name="Grupo 1093679" clip-path="url(#clip-path-8)">
                      <path id="Trazado_833342" data-name="Trazado 833342" d="M240.711,385.4a7.484,7.484,0,1,1-7.484-7.484,7.484,7.484,0,0,1,7.484,7.484" fill="#ccbcfe"/>
                    </g>
                  </g>
                  <g id="Grupo_1093682" data-name="Grupo 1093682">
                    <g id="Grupo_1093681" data-name="Grupo 1093681" clip-path="url(#clip-path-9)">
                      <path id="Trazado_833343" data-name="Trazado 833343" d="M359.506,418.578a15.5,15.5,0,1,1-15.5-15.5,15.5,15.5,0,0,1,15.5,15.5" fill="#ccbcfe"/>
                    </g>
                  </g>
                  <g id="Grupo_1093686" data-name="Grupo 1093686">
                    <g id="Grupo_1093685" data-name="Grupo 1093685" clip-path="url(#clip-path-5)">
                      <g id="Grupo_1093684" data-name="Grupo 1093684">
                        <g id="Grupo_1093683" data-name="Grupo 1093683" clip-path="url(#clip-path-11)">
                          <path id="Trazado_833344" data-name="Trazado 833344" d="M382.623,37.379a15.5,15.5,0,1,1-15.5-15.5,15.5,15.5,0,0,1,15.5,15.5" fill="#ccbcfe"/>
                        </g>
                      </g>
                    </g>
                  </g>
                  <g id="Grupo_1093688" data-name="Grupo 1093688">
                    <g id="Grupo_1093687" data-name="Grupo 1093687" clip-path="url(#clip-path-12)">
                      <path id="Trazado_833345" data-name="Trazado 833345" d="M396.049,365.423a22.212,22.212,0,1,1-22.213-22.211h0a22.212,22.212,0,0,1,22.212,22.211" fill="#ccbcfe"/>
                    </g>
                  </g>
                  <g id="Grupo_1093690" data-name="Grupo 1093690">
                    <g id="Grupo_1093689" data-name="Grupo 1093689" clip-path="url(#clip-path-13)">
                      <path id="Trazado_833346" data-name="Trazado 833346" d="M66.327,480.155a24.2,24.2,0,1,1-24.2-24.2,24.2,24.2,0,0,1,24.2,24.2" fill="#ccbcfe"/>
                    </g>
                  </g>
                  <g id="Grupo_1093692" data-name="Grupo 1093692">
                    <g id="Grupo_1093691" data-name="Grupo 1093691" clip-path="url(#clip-path-14)">
                      <path id="Trazado_833347" data-name="Trazado 833347" d="M252.755,473.824a22.068,22.068,0,1,1-22.068-22.068,22.068,22.068,0,0,1,22.068,22.068" fill="#ccbcfe"/>
                    </g>
                  </g>
                </g>
              </g>
            </g>
            <path id="Trazado_833348" data-name="Trazado 833348" d="M319.125,28.35l3.722-1.409-.911-6.523-3.964-.33a16.167,16.167,0,0,0-2.176-3.7l1.637-3.632L312.175,8.8l-3.038,2.57a16.1,16.1,0,0,0-4.154-1.075l-1.41-3.723-6.521.914-.331,3.964a16.19,16.19,0,0,0-3.7,2.176L289.4,11.988l-3.97,5.263L288,20.289a16.037,16.037,0,0,0-1.076,4.154L283.2,25.852l.914,6.521,3.964.33v0a16.163,16.163,0,0,0,2.177,3.7l-1.637,3.632L293.877,44l3.038-2.57a16.079,16.079,0,0,0,4.153,1.075l1.411,3.723L309,45.313l.33-3.964a16.117,16.117,0,0,0,3.7-2.182l3.626,1.633,3.964-5.258L318.05,32.5a16.075,16.075,0,0,0,1.075-4.154M304.05,33.688h0a7.059,7.059,0,0,1-7.973-6.006v-.007a7.062,7.062,0,1,1,7.975,6.013" fill="#6e40fc"/>
            <path id="Trazado_833349" data-name="Trazado 833349" d="M350.54,54.294a.5.5,0,0,0-.455-.429l-.115-.009q-1.254-.106-2.531-.21a12.632,12.632,0,0,0-1.288-2.186c.276-.609.547-1.215.807-1.8l.282-.634a.5.5,0,0,0-.162-.6l-3.966-2.989-.094-.068a.5.5,0,0,0-.609.018l-2.041,1.721a12.665,12.665,0,0,0-2.466-.639c-.315-.823-.623-1.636-.9-2.384l-.04-.1a.5.5,0,0,0-.544-.315l-5,.709a.5.5,0,0,0-.3.162l-.011,0v.016a.493.493,0,0,0-.116.264l-.012.114c-.074.88-.144,1.744-.208,2.549a12.486,12.486,0,0,0-2.211,1.308l-.687-.309c-.571-.255-1.125-.5-1.644-.738l-.091-.04a.435.435,0,0,0-.306,0l-.055-.024-.05.067a.7.7,0,0,0-.245.19c-1.022,1.359-1.995,2.656-2.962,3.949a.418.418,0,0,0-.067.2l-.073.1.087.1a.662.662,0,0,0,.131.282l1.668,1.96a12.445,12.445,0,0,0-.642,2.515L321.151,58a.428.428,0,0,0-.164.116l-.167.064.029.2a.575.575,0,0,0-.017.221l.709,4.848a.479.479,0,0,0,.031.082l.033.233.182.015a.571.571,0,0,0,.25.089l2.355.167.243.015c.05.119.119.27.206.446a12.056,12.056,0,0,0,1.114,1.851c-.3.663-.663,1.447-1.112,2.425a.432.432,0,0,0-.027.193l-.056.123.113.085a.6.6,0,0,0,.17.224c.85.649,1.817,1.384,2.914,2.217l1.006.763a.439.439,0,0,0,.251.072l.05.037.044-.036a.648.648,0,0,0,.325-.138c.613-.518,1.259-1.06,1.966-1.651a12.3,12.3,0,0,0,2.507.658c.291.766.589,1.561.9,2.4,0,0,.037.092.039.1a.438.438,0,0,0,.208.213l0,0h0a.723.723,0,0,0,.331.084.684.684,0,0,0,.079,0l4.8-.663.109-.017a.5.5,0,0,0,.419-.455l.223-2.642a12.5,12.5,0,0,0,2.208-1.3l2.42,1.1a.5.5,0,0,0,.618-.158l.059-.082q1.43-1.884,2.929-3.876l.07-.1a.5.5,0,0,0-.016-.6l-1.718-2.041a12.61,12.61,0,0,0,.641-2.462q1.177-.45,2.382-.9l.111-.043a.5.5,0,0,0,.318-.533Zm-13.593.353a4.571,4.571,0,0,1,2.316,1.287,4.509,4.509,0,0,1,.745,5.331,4.329,4.329,0,0,1-.82,1.094,4.22,4.22,0,0,1-1.048.773,4.573,4.573,0,0,1-4.38-.028,4.683,4.683,0,0,1-2.042-2.255,6.008,6.008,0,0,1-.312-.97,1.446,1.446,0,0,0-.056-.178c0-.369.013-.736.042-1.085a4.7,4.7,0,0,1,1.352-2.74,4.589,4.589,0,0,1,4.2-1.229" fill="#6e40fc"/>
          </g>
        </g>
        <g id="Grupo_1093731" data-name="Grupo 1093731">
          <g id="Grupo_1093730" data-name="Grupo 1093730" clip-path="url(#clip-path-2)">
            <path id="Trazado_833350" data-name="Trazado 833350" d="M90.847,144.521,81.3,142.183l.283-16.256,9.616-2a39.807,39.807,0,0,1,4.222-9.717l-5.09-8.4,11.694-11.288,8.211,5.387a40,40,0,0,1,9.862-3.881l2.338-9.55,16.255.283,2,9.623a39.749,39.749,0,0,1,9.717,4.221l8.4-5.09,11.289,11.694-5.387,8.212a39.886,39.886,0,0,1,3.88,9.862l9.55,2.338-.282,16.255-9.616,2a39.824,39.824,0,0,1-4.22,9.726l5.09,8.4L157.411,175.29,149.2,169.9a39.858,39.858,0,0,1-9.861,3.881L137,183.334l-16.255-.283-2.006-9.616a39.8,39.8,0,0,1-9.716-4.221l-8.4,5.09L89.335,162.61l5.38-8.219a39.85,39.85,0,0,1-3.881-9.862Zm25.821,1.961a17.436,17.436,0,1,0,.436-24.655h0a17.433,17.433,0,0,0-.442,24.65l0,.006Z" fill="#b0c5fd"/>
            <path id="Trazado_833351" data-name="Trazado 833351" d="M90.847,144.521,81.3,142.183l.283-16.256,9.616-2a39.807,39.807,0,0,1,4.222-9.717l-5.09-8.4,11.694-11.288,8.211,5.387a40,40,0,0,1,9.862-3.881l2.338-9.55,16.255.283,2,9.623a39.749,39.749,0,0,1,9.717,4.221l8.4-5.09,11.289,11.694-5.387,8.212a39.886,39.886,0,0,1,3.88,9.862l9.55,2.338-.282,16.255-9.616,2a39.824,39.824,0,0,1-4.22,9.726l5.09,8.4L157.411,175.29,149.2,169.9a39.858,39.858,0,0,1-9.861,3.881L137,183.334l-16.255-.283-2.006-9.616a39.8,39.8,0,0,1-9.716-4.221l-8.4,5.09L89.335,162.61l5.38-8.219a39.85,39.85,0,0,1-3.881-9.862Zm25.821,1.961a17.436,17.436,0,1,0,.436-24.655h0a17.433,17.433,0,0,0-.442,24.65l0,.006Z" fill="#00c4ff"/>
            <path id="Trazado_833352" data-name="Trazado 833352" d="M209.8,40.147a28.546,28.546,0,0,0-6.958-3.027l-1.434-6.9-11.643-.2-1.673,6.835a28.433,28.433,0,0,0-7.06,2.78l-5.887-3.859-8.378,8.088,3.648,6.013a28.528,28.528,0,0,0-3.026,6.967L160.5,58.278l-.2,11.644,6.835,1.673a28.424,28.424,0,0,0,2.78,7.061l-3.859,5.886,8.088,8.377,6.013-3.648a28.6,28.6,0,0,0,6.958,3.026l1.434,6.9,11.643.2,1.673-6.836a28.432,28.432,0,0,0,7.06-2.78l5.888,3.859,8.377-8.088-3.648-6.013a28.575,28.575,0,0,0,3.028-6.965l6.885-1.434.2-11.643-6.835-1.673a28.4,28.4,0,0,0-2.781-7.06l3.86-5.886L215.815,36.5,209.8,40.145Zm-6.206,15.51a12.49,12.49,0,1,1-17.66-.31h0a12.482,12.482,0,0,1,17.65.3l.011.011Z" fill="#e8505b"/>
            <g id="Grupo_1093700" data-name="Grupo 1093700" opacity="0.8">
              <g id="Grupo_1093699" data-name="Grupo 1093699">
                <g id="Grupo_1093698" data-name="Grupo 1093698" clip-path="url(#clip-path-16)">
                  <path id="Trazado_833353" data-name="Trazado 833353" d="M209.8,40.147a28.546,28.546,0,0,0-6.958-3.027l-1.434-6.9-11.643-.2-1.673,6.835a28.433,28.433,0,0,0-7.06,2.78l-5.887-3.859-8.378,8.088,3.648,6.013a28.528,28.528,0,0,0-3.026,6.967L160.5,58.278l-.2,11.644,6.835,1.673a28.424,28.424,0,0,0,2.78,7.061l-3.859,5.886,8.088,8.377,6.013-3.648a28.6,28.6,0,0,0,6.958,3.026l1.434,6.9,11.643.2,1.673-6.836a28.432,28.432,0,0,0,7.06-2.78l5.888,3.859,8.377-8.088-3.648-6.013a28.575,28.575,0,0,0,3.028-6.965l6.885-1.434.2-11.643-6.835-1.673a28.4,28.4,0,0,0-2.781-7.06l3.86-5.886L215.815,36.5,209.8,40.145Zm-6.206,15.51a12.49,12.49,0,1,1-17.66-.31h0a12.482,12.482,0,0,1,17.65.3l.011.011Z" fill="#799dff"/>
                </g>
              </g>
            </g>
            <g id="Grupo_1093705" data-name="Grupo 1093705" opacity="0.45">
              <g id="Grupo_1093704" data-name="Grupo 1093704">
                <g id="Grupo_1093703" data-name="Grupo 1093703" clip-path="url(#clip-path-17)">
                  <g id="Grupo_1093702" data-name="Grupo 1093702">
                    <g id="Grupo_1093701" data-name="Grupo 1093701" clip-path="url(#clip-path-17)">
                      <path id="Trazado_833354" data-name="Trazado 833354" d="M246,321.828a39.074,39.074,0,1,1-39.074-39.074A39.074,39.074,0,0,1,246,321.828" fill="#ccbcfe"/>
                    </g>
                  </g>
                </g>
              </g>
            </g>
            <g id="Grupo_1093710" data-name="Grupo 1093710" opacity="0.45">
              <g id="Grupo_1093709" data-name="Grupo 1093709">
                <g id="Grupo_1093708" data-name="Grupo 1093708" clip-path="url(#clip-path-19)">
                  <g id="Grupo_1093707" data-name="Grupo 1093707">
                    <g id="Grupo_1093706" data-name="Grupo 1093706" clip-path="url(#clip-path-20)">
                      <path id="Trazado_833355" data-name="Trazado 833355" d="M93.793,36.108a7.484,7.484,0,1,1-7.484-7.484,7.484,7.484,0,0,1,7.484,7.484" fill="#ccbcfe"/>
                    </g>
                  </g>
                </g>
              </g>
            </g>
            <path id="Trazado_833357" data-name="Trazado 833357" d="M72.774,92.01a27.337,27.337,0,0,0,7.992-19.37c0-.01.005-.018.005-.027s-.005-.018-.005-.029A27.515,27.515,0,0,0,53.585,45.1c-.113-.005-.226-.016-.34-.016s-.22.011-.33.016A27.326,27.326,0,0,0,34.07,52.876c-.014.013-.033.018-.047.032s-.012.023-.021.033c-.074.073-.152.141-.226.215a27.44,27.44,0,0,0-8.047,19.411c0,.016-.009.03-.009.046s.008.029.009.044a27.507,27.507,0,0,0,46.371,20,.961.961,0,0,0,.444-.246.949.949,0,0,0,.23-.4m-45.023-20.4A25.426,25.426,0,0,1,34.778,55,27.6,27.6,0,0,0,40.862,59.2a49.563,49.563,0,0,0-1.724,12.417Zm15-11.551a27.411,27.411,0,0,0,9.494,2.066v9.485H41.138a47.362,47.362,0,0,1,1.613-11.551m11.494,25.02a25.346,25.346,0,0,1,8.911,2c-2.031,6.076-5.271,10.3-8.911,10.958Zm0-2V73.613H65.354a47.39,47.39,0,0,1-1.612,11.541,27.337,27.337,0,0,0-9.5-2.076m0-11.465V62.129a27.435,27.435,0,0,0,9.494-2.069,47.375,47.375,0,0,1,1.615,11.553Zm0-11.51V47.184c3.635.661,6.873,4.872,8.9,10.935a25.368,25.368,0,0,1-8.9,1.984m-2-12.919V60.106a25.4,25.4,0,0,1-8.9-1.979c2.031-6.067,5.268-10.282,8.9-10.943m0,26.429v9.46a27.31,27.31,0,0,0-9.5,2.079,47.326,47.326,0,0,1-1.611-11.539Zm0,11.463V98.04c-3.641-.662-6.881-4.884-8.912-10.962a25.345,25.345,0,0,1,8.912-2m-5.26,12.3A25.315,25.315,0,0,1,36.2,91.625a25.784,25.784,0,0,1,5.257-3.662,23.128,23.128,0,0,0,5.525,9.415m18.046-9.413a25.735,25.735,0,0,1,5.246,3.661A25.318,25.318,0,0,1,59.51,97.374a23.137,23.137,0,0,0,5.521-9.409m.6-1.937a49.6,49.6,0,0,0,1.725-12.415H78.743A25.322,25.322,0,0,1,71.71,90.228a27.717,27.717,0,0,0-6.081-4.2M78.743,71.613H67.354A49.631,49.631,0,0,0,65.631,59.2a27.726,27.726,0,0,0,6.075-4.192,25.331,25.331,0,0,1,7.037,16.606M70.257,53.6a25.616,25.616,0,0,1-5.232,3.647,23.151,23.151,0,0,0-5.493-9.371A25.314,25.314,0,0,1,70.257,53.6m-28.8,3.66a25.679,25.679,0,0,1-5.23-3.667,25.317,25.317,0,0,1,10.732-5.721,23.159,23.159,0,0,0-5.5,9.388M27.751,73.613H39.138a49.558,49.558,0,0,0,1.72,12.4,27.778,27.778,0,0,0-6.088,4.211,25.426,25.426,0,0,1-7.019-16.613" fill="#a6c5fe"/>
            <path id="Trazado_833358" data-name="Trazado 833358" d="M338.23,129.861a39.212,39.212,0,0,1-24.071-8.159,1.622,1.622,0,0,1,1.974-2.575,35.986,35.986,0,0,0,22.1,7.491q.859,0,1.716-.042a1.657,1.657,0,0,1,1.7,1.541,1.622,1.622,0,0,1-1.542,1.7q-.932.045-1.872.045" fill="#a6c5fe"/>
            <path id="Trazado_833359" data-name="Trazado 833359" d="M355.141,125.9a1.623,1.623,0,0,1-.726-3.074,36.706,36.706,0,0,0,16.036-15.737,1.622,1.622,0,0,1,2.875,1.5,39.964,39.964,0,0,1-17.464,17.137,1.61,1.61,0,0,1-.721.171" fill="#a6c5fe"/>
            <g id="Grupo_1093713" data-name="Grupo 1093713" opacity="0.1">
              <g id="Grupo_1093712" data-name="Grupo 1093712">
                <g id="Grupo_1093711" data-name="Grupo 1093711" clip-path="url(#clip-path-21)">
                  <path id="Trazado_833360" data-name="Trazado 833360" d="M366.193,228.331c-14.829-16-35.8-28.062-55.961-36.063a96.783,96.783,0,0,1-10.491-4.953c-3.416-1.855-6.76-3.886-10.063-6.017-19.666-14.942-44.668-24.638-69.506-24.5a86.285,86.285,0,0,0-14.782,1.329c-43.066,4.1-51.123,49.219-59.987,84.673-4.028,14.505-18.533,20.949-32.178,25.754-2.96,1.151-5.963,2.282-8.987,3.534a100.278,100.278,0,0,0-9.1,4.242,94.869,94.869,0,0,0-38.07,37.224c-12.778,23.008-20.43,60.513.8,81,15.939,15.378,42.353,17.966,63.431,16.327,26.77-2.085,54.576-8.09,76.468-23.208,46.134-31.854,83.874-39.1,138.9-49.485,14.493-2.735,28.9-11.868,39.96-21.623,28.183-24.851,10.721-65.413-10.434-88.235" fill="#2c50ab"/>
                  <path id="Trazado_833361" data-name="Trazado 833361" d="M297.135,358.036a8.307,8.307,0,0,0-1.008-1.1c-3.022-2.777-7.464-2.5-11.226-1.863-16.9,2.858-33.561,9.967-46.364,21.492a15.363,15.363,0,0,0-3.621,4.273c-3.389,6.7,3.4,8.211,8.322,6.8,16.027-4.588,32.43-9.688,47.521-16.827,2.65-1.254,5.4-2.7,6.953-5.183a6.546,6.546,0,0,0-.577-7.589" fill="#2c50ab"/>
                  <path id="Trazado_833362" data-name="Trazado 833362" d="M96.176,206.279a32.825,32.825,0,0,1-6.28,6.2c-2.891,2.145-6.148,3.738-9.19,5.663s-5.948,4.281-7.644,7.456-1.954,7.315.123,10.254a9.576,9.576,0,0,0,7.233,3.728c3.894.242,7.632-1.36,10.922-3.293,19.387-11.386,27.866-33.851,36.9-53.21,6.773-14.51,15.171-29.885,28.964-38.857,4.745-3.087,10.1-5.417,14-9.516s5.92-10.83,2.611-15.423c-2.486-3.452-7.284-4.613-11.467-3.831-6.5,1.216-12.034,6.165-17,10.282a124.1,124.1,0,0,0-14.462,14.136,126.172,126.172,0,0,0-21.258,34.273,121.252,121.252,0,0,0-5.78,17.549c-1.282,5.206-4.368,10.347-7.68,14.588" fill="#2c50ab"/>
                </g>
              </g>
            </g>
            <path id="Trazado_833363" data-name="Trazado 833363" d="M88.472,294.1l-16.452-.431A53.736,53.736,0,0,0,62.9,307.836c-.447,1.062-.847,2.127-1.192,3.2-6.422,19.906-2.1,42.863,13.46,57.57a44.224,44.224,0,0,0,10.143,7.344c.678-14.076,2.562-38.864,4.45-49.354,2.582-14.355-1.291-32.5-1.291-32.5" fill="#7dc6c2"/>
            <path id="Trazado_833364" data-name="Trazado 833364" d="M113.651,238.838h0a27.846,27.846,0,0,0-3.358,12.188,27.846,27.846,0,0,1,3.358-12.188" fill="#fff"/>
            <path id="Trazado_833365" data-name="Trazado 833365" d="M121.307,253.711c-.441-.07-.88-.142-1.313-.216.433.074.872.146,1.313.216" fill="#fff"/>
            <path id="Trazado_833366" data-name="Trazado 833366" d="M123.993,254.1q-.661-.088-1.309-.182.648.093,1.309.182" fill="#fff"/>
            <path id="Trazado_833367" data-name="Trazado 833367" d="M114.845,252.431c-.237-.06-.471-.12-.7-.18.229.06.463.12.7.18" fill="#fff"/>
            <path id="Trazado_833368" data-name="Trazado 833368" d="M118.786,253.277l-.545-.1.545.1" fill="#fff"/>
            <path id="Trazado_833369" data-name="Trazado 833369" d="M130.62,254.845c-.72-.068-1.44-.137-2.159-.212.719.075,1.439.144,2.159.212" fill="#fff"/>
            <path id="Trazado_833370" data-name="Trazado 833370" d="M113.3,252.02c-.254-.072-.5-.146-.75-.222.245.076.5.15.75.222" fill="#fff"/>
            <path id="Trazado_833371" data-name="Trazado 833371" d="M126.777,254.45c-.389-.046-.776-.091-1.162-.139.386.048.773.093,1.162.139" fill="#fff"/>
            <path id="Trazado_833372" data-name="Trazado 833372" d="M132.28,254.991c2.53.21,5.031.374,7.407.5-2.376-.126-4.877-.288-7.407-.5" fill="#fff"/>
            <path id="Trazado_833373" data-name="Trazado 833373" d="M141.211,255.566c-.5-.023-1.008-.049-1.524-.076q.771.04,1.524.076" fill="#fff"/>
            <path id="Trazado_833374" data-name="Trazado 833374" d="M113.651,238.838" fill="#e8eaf1"/>
            <path id="Trazado_833375" data-name="Trazado 833375" d="M110.293,251.026" fill="#e8eaf1"/>
            <path id="Trazado_833376" data-name="Trazado 833376" d="M125.615,254.311c-.543-.065-1.086-.136-1.622-.208.536.072,1.079.143,1.622.208" fill="#e8eaf1"/>
            <path id="Trazado_833377" data-name="Trazado 833377" d="M122.684,253.921q-.693-.1-1.377-.21.684.108,1.377.21" fill="#e8eaf1"/>
            <path id="Trazado_833378" data-name="Trazado 833378" d="M128.461,254.633c-.561-.058-1.124-.12-1.683-.183.559.063,1.122.125,1.683.183" fill="#e8eaf1"/>
            <path id="Trazado_833379" data-name="Trazado 833379" d="M110.293,251.026h0c.7.272,1.454.53,2.252.772-.8-.242-1.553-.5-2.252-.772" fill="#e8eaf1"/>
            <path id="Trazado_833380" data-name="Trazado 833380" d="M132.28,254.991c-.554-.047-1.106-.1-1.66-.146.554.051,1.106.1,1.66.146" fill="#e8eaf1"/>
            <path id="Trazado_833381" data-name="Trazado 833381" d="M118.24,253.174c-1.182-.228-2.319-.475-3.4-.743,1.077.268,2.214.515,3.4.743" fill="#e8eaf1"/>
            <path id="Trazado_833382" data-name="Trazado 833382" d="M114.144,252.251q-.43-.113-.848-.231.417.118.848.231" fill="#e8eaf1"/>
            <path id="Trazado_833383" data-name="Trazado 833383" d="M119.994,253.495q-.612-.1-1.209-.218.6.113,1.209.218" fill="#e8eaf1"/>
            <path id="Trazado_833384" data-name="Trazado 833384" d="M60.717,303.716,6.618,320.36l17.3,56.23,51.525-24.213L66.487,303.87Z" fill="#80769f"/>
            <g id="Grupo_1093716" data-name="Grupo 1093716" opacity="0.61" style="mix-blend-mode: overlay;isolation: isolate">
              <g id="Grupo_1093715" data-name="Grupo 1093715">
                <g id="Grupo_1093714" data-name="Grupo 1093714" clip-path="url(#clip-path-22)">
                  <path id="Trazado_833385" data-name="Trazado 833385" d="M60.717,303.716,6.618,320.36l17.3,56.23,51.525-24.213L66.487,303.87Z" fill="#fff"/>
                </g>
              </g>
            </g>
            <path id="Trazado_833386" data-name="Trazado 833386" d="M68.03,301.039l-52.463-.7,1.264,60.59,51.424-6,5.272-52.1Z" fill="#ece9f5"/>
            <g id="Grupo_1093719" data-name="Grupo 1093719" style="mix-blend-mode: multiply;isolation: isolate">
              <g id="Grupo_1093718" data-name="Grupo 1093718">
                <g id="Grupo_1093717" data-name="Grupo 1093717" clip-path="url(#clip-path-23)">
                  <path id="Trazado_833387" data-name="Trazado 833387" d="M121.477,307.9a7.549,7.549,0,0,1-3.689-1.122,6.9,6.9,0,0,1-2.416-2.65,8.766,8.766,0,0,1-.943-3.766,12.528,12.528,0,0,1,.72-4.482l46.76-136.284A14.151,14.151,0,0,1,164,155.713a17.318,17.318,0,0,1,3.176-3.237,16.541,16.541,0,0,1,3.837-2.264,12.289,12.289,0,0,1,4.081-.959l199.01-9.347a11.944,11.944,0,0,1,4.638.648,8.857,8.857,0,0,1,3.442,2.2,7.808,7.808,0,0,1,1.9,3.43,9.12,9.12,0,0,1,.011,4.313L348.785,306.434a15.132,15.132,0,0,1-2.224,5.086,17.386,17.386,0,0,1-3.852,4.077,17.139,17.139,0,0,1-4.92,2.635,14.549,14.549,0,0,1-5.425.775Zm258.4-176.074L174.37,142.355a17.151,17.151,0,0,0-5.677,1.351,23.015,23.015,0,0,0-5.335,3.154,24.315,24.315,0,0,0-4.415,4.5,19.9,19.9,0,0,0-2.919,5.389L106.643,299.157a17.778,17.778,0,0,0-1.042,6.275,12.359,12.359,0,0,0,1.282,5.29,9.583,9.583,0,0,0,3.343,3.742,10.506,10.506,0,0,0,5.149,1.612l219.01,12.73a20.524,20.524,0,0,0,7.661-1.059,24.015,24.015,0,0,0,6.946-3.708,24.381,24.381,0,0,0,5.43-5.758,21.27,21.27,0,0,0,3.116-7.191L394,146.548a12.633,12.633,0,0,0-.056-6.033,10.815,10.815,0,0,0-2.7-4.775,12.466,12.466,0,0,0-4.851-3.05,16.982,16.982,0,0,0-6.511-.868" fill="#e8eaf1"/>
                </g>
              </g>
            </g>
            <path id="Trazado_833388" data-name="Trazado 833388" d="M260.97,186.647a5.875,5.875,0,0,1-2.629-.51,4.594,4.594,0,0,1-1.822-1.51,4.981,4.981,0,0,1-.857-2.273,6.934,6.934,0,0,1,.259-2.805,9.731,9.731,0,0,1,1.375-2.831,11.468,11.468,0,0,1,2.186-2.339,10.933,10.933,0,0,1,2.708-1.612,8.5,8.5,0,0,1,2.944-.652,5.915,5.915,0,0,1,2.623.48,4.609,4.609,0,0,1,1.842,1.482,4.961,4.961,0,0,1,.891,2.265,6.88,6.88,0,0,1-.236,2.82,9.626,9.626,0,0,1-1.371,2.858,11.387,11.387,0,0,1-2.209,2.363,10.9,10.9,0,0,1-2.74,1.624,8.474,8.474,0,0,1-2.964.64m5.306-18.523a13.136,13.136,0,0,0-4.543,1.02,16.956,16.956,0,0,0-4.185,2.5,17.845,17.845,0,0,0-3.386,3.622,15.121,15.121,0,0,0-2.134,4.383,10.859,10.859,0,0,0-.416,4.357,7.806,7.806,0,0,0,1.315,3.542,7.106,7.106,0,0,0,2.81,2.363,9.006,9.006,0,0,0,4.064.808,12.97,12.97,0,0,0,4.6-.989,16.893,16.893,0,0,0,4.261-2.532,17.84,17.84,0,0,0,3.433-3.691,14.991,14.991,0,0,0,2.13-4.456,10.79,10.79,0,0,0,.357-4.386,7.707,7.707,0,0,0-1.389-3.513,7.123,7.123,0,0,0-2.858-2.3,9.114,9.114,0,0,0-4.06-.736M184.927,287.172a.446.446,0,0,1-.217-.061.414.414,0,0,1-.146-.142.509.509,0,0,1-.066-.21.663.663,0,0,1,.031-.251.9.9,0,0,1,.124-.246,1.02,1.02,0,0,1,.191-.2.837.837,0,0,1,.232-.13.682.682,0,0,1,.249-.044l49.691,1.847a.5.5,0,0,1,.232.061.441.441,0,0,1,.161.148.513.513,0,0,1,.077.216.7.7,0,0,1-.022.257.8.8,0,0,1-.124.254.957.957,0,0,1-.44.341.685.685,0,0,1-.26.041Zm1.96-6.321a.488.488,0,0,1-.216-.057.449.449,0,0,1-.148-.146.459.459,0,0,1-.064-.205.627.627,0,0,1,.029-.249.85.85,0,0,1,.124-.246.926.926,0,0,1,.191-.2.914.914,0,0,1,.232-.129.664.664,0,0,1,.247-.041l49.589,1.648a.514.514,0,0,1,.233.057.476.476,0,0,1,.162.146.5.5,0,0,1,.076.213.632.632,0,0,1-.023.259.846.846,0,0,1-.123.255.966.966,0,0,1-.2.2.927.927,0,0,1-.241.135.767.767,0,0,1-.261.045Zm-17.3,6.678,2.973-9.368,8.736.284-2.95,9.42Zm20.5-17a.487.487,0,0,1-.216-.056.376.376,0,0,1-.147-.138.436.436,0,0,1-.066-.2.622.622,0,0,1,.031-.249.82.82,0,0,1,.121-.242,1.02,1.02,0,0,1,.19-.2.884.884,0,0,1,.23-.127.662.662,0,0,1,.247-.046L239.9,270.6a.5.5,0,0,1,.23.06.419.419,0,0,1,.161.143.5.5,0,0,1,.078.211.6.6,0,0,1-.023.254.822.822,0,0,1-.122.253.925.925,0,0,1-.194.2.817.817,0,0,1-.241.133.688.688,0,0,1-.26.044Zm1.927-6.217a.449.449,0,0,1-.215-.057.381.381,0,0,1-.147-.137.427.427,0,0,1-.065-.2.622.622,0,0,1,.025-.242.942.942,0,0,1,.123-.243.96.96,0,0,1,.191-.2.877.877,0,0,1,.23-.13.7.7,0,0,1,.245-.045l49.326,1.136a.554.554,0,0,1,.23.057.451.451,0,0,1,.16.143.487.487,0,0,1,.077.21.6.6,0,0,1-.023.251.842.842,0,0,1-.119.247.917.917,0,0,1-.2.2.842.842,0,0,1-.239.133.693.693,0,0,1-.26.046Zm-17.165,6.647,2.926-9.216,8.69.2-2.9,9.264Zm20.381-17.027a.509.509,0,0,1-.215-.054.389.389,0,0,1-.145-.137.427.427,0,0,1-.065-.2.586.586,0,0,1,.026-.241.879.879,0,0,1,.122-.243.931.931,0,0,1,.188-.193.876.876,0,0,1,.23-.13.719.719,0,0,1,.244-.044l49.157.82a.512.512,0,0,1,.229.054.413.413,0,0,1,.16.138.448.448,0,0,1,.077.2.63.63,0,0,1-.021.252.818.818,0,0,1-.119.247.943.943,0,0,1-.193.2.918.918,0,0,1-.24.134.727.727,0,0,1-.259.047Zm1.9-6.115a.46.46,0,0,1-.213-.053.376.376,0,0,1-.148-.134.431.431,0,0,1-.066-.2.622.622,0,0,1,.028-.24.883.883,0,0,1,.122-.241.856.856,0,0,1,.187-.193.826.826,0,0,1,.227-.127.657.657,0,0,1,.244-.045l49.056.635a.526.526,0,0,1,.23.051.437.437,0,0,1,.161.136.467.467,0,0,1,.077.2.593.593,0,0,1-.022.25.748.748,0,0,1-.119.246.932.932,0,0,1-.192.2.886.886,0,0,1-.237.133.745.745,0,0,1-.259.048Zm-17.055,6.7,2.877-9.064,8.646.1-2.853,9.116Zm82.806,12.574a28.1,28.1,0,0,1,4.093-8.608,32.169,32.169,0,0,1,6.631-6.949,31.344,31.344,0,0,1,8.31-4.649,26.115,26.115,0,0,1,9.161-1.671l-5.927,22.556,23.156.565a26.364,26.364,0,0,1-1.588,4.46,29.259,29.259,0,0,1-2.343,4.155,31.371,31.371,0,0,1-2.994,3.764A32.749,32.749,0,0,1,297.842,284l7.17,10.107a11.1,11.1,0,0,1,1.3-.7,9.867,9.867,0,0,1,1.374-.508,9.179,9.179,0,0,1,1.421-.3,8.637,8.637,0,0,1,1.447-.068,7.272,7.272,0,0,1,3.062.771,6.271,6.271,0,0,1,2.209,1.875,6.5,6.5,0,0,1,1.148,2.708,7.879,7.879,0,0,1-.13,3.262,9.934,9.934,0,0,1-1.448,3.224,11.182,11.182,0,0,1-2.442,2.579,10.927,10.927,0,0,1-3.1,1.673,9.184,9.184,0,0,1-3.4.5,7.237,7.237,0,0,1-3.062-.811,6.244,6.244,0,0,1-2.181-1.909,6.539,6.539,0,0,1-1.105-2.723,7.963,7.963,0,0,1,.162-3.248,9.478,9.478,0,0,1,.487-1.439,10.648,10.648,0,0,1,.7-1.346,10.894,10.894,0,0,1,.893-1.23,11.007,11.007,0,0,1,1.057-1.1l-7.16-10.132a31.813,31.813,0,0,1-3.961,2.382,29.192,29.192,0,0,1-4.217,1.741,27,27,0,0,1-4.371,1.032,24.027,24.027,0,0,1-4.422.246,19.4,19.4,0,0,1-8.388-2.147,16.242,16.242,0,0,1-5.844-5.17,17.111,17.111,0,0,1-2.827-7.374,21.794,21.794,0,0,1,.651-8.807m63.649-19.629c0-.083,0-.166,0-.248s.008-.169.019-.256.022-.171.036-.258.034-.176.056-.263a4.752,4.752,0,0,1,.711-1.559,5.659,5.659,0,0,1,1.2-1.266,5.754,5.754,0,0,1,1.534-.845,4.914,4.914,0,0,1,1.7-.3,3.794,3.794,0,0,1,1.552.33,3.049,3.049,0,0,1,1.125.875,2.966,2.966,0,0,1,.589,1.288,3.639,3.639,0,0,1-.047,1.575,4.692,4.692,0,0,1-.707,1.569,5.718,5.718,0,0,1-2.754,2.122,4.883,4.883,0,0,1-1.71.3,4.029,4.029,0,0,1-.925-.119,3.372,3.372,0,0,1-.8-.306,3.129,3.129,0,0,1-.659-.475,2.935,2.935,0,0,1-.493-.617l-17.843,7.652a15.308,15.308,0,0,1,.309,1.912,16.827,16.827,0,0,1,.073,2.008,17.809,17.809,0,0,1-.167,2.094,20.223,20.223,0,0,1-.42,2.163l-.027.1-19.5-.438,4.953-18.988h.111a17.6,17.6,0,0,1,4.91.73,14.779,14.779,0,0,1,4.107,1.957,13.588,13.588,0,0,1,3.159,3.017,13.89,13.89,0,0,1,2.064,3.9Zm-157.54-24.571a.676.676,0,0,1-.328-.075.54.54,0,0,1-.222-.2.681.681,0,0,1-.1-.3.957.957,0,0,1,.05-.367,1.338,1.338,0,0,1,.192-.369,1.548,1.548,0,0,1,.294-.3,1.4,1.4,0,0,1,.355-.205A1.027,1.027,0,0,1,169.6,221l51.781-.138a.794.794,0,0,1,.352.075.63.63,0,0,1,.244.209.659.659,0,0,1,.113.31.889.889,0,0,1-.037.38,1.325,1.325,0,0,1-.19.382,1.613,1.613,0,0,1-.3.311,1.487,1.487,0,0,1-.372.211,1.118,1.118,0,0,1-.4.077Zm122.458-.186a.924.924,0,0,1-.386-.079.731.731,0,0,1-.276-.219.755.755,0,0,1-.138-.324.915.915,0,0,1,.022-.4,1.237,1.237,0,0,1,.19-.4,1.438,1.438,0,0,1,.309-.324,1.553,1.553,0,0,1,.392-.221,1.23,1.23,0,0,1,.429-.08l38.6-.1a.994.994,0,0,1,.406.082.778.778,0,0,1,.292.222.765.765,0,0,1,.156.33.952.952,0,0,1-.014.406,1.273,1.273,0,0,1-.185.406,1.539,1.539,0,0,1-.722.556,1.318,1.318,0,0,1-.445.083ZM171.181,216.2a.718.718,0,0,1-.328-.072.574.574,0,0,1-.22-.2.644.644,0,0,1-.1-.3.925.925,0,0,1,.048-.365,1.322,1.322,0,0,1,.192-.366,1.576,1.576,0,0,1,.293-.3,1.429,1.429,0,0,1,.352-.2,1.009,1.009,0,0,1,.377-.075l51.666-.354a.742.742,0,0,1,.351.074.6.6,0,0,1,.245.207.654.654,0,0,1,.114.307.908.908,0,0,1-.037.376,1.343,1.343,0,0,1-.19.378,1.5,1.5,0,0,1-.3.31,1.536,1.536,0,0,1-.367.211,1.154,1.154,0,0,1-.4.078Zm122.172-.692a.93.93,0,0,1-.386-.078.736.736,0,0,1-.274-.215.714.714,0,0,1-.139-.319.939.939,0,0,1,.022-.394,1.272,1.272,0,0,1,.189-.393,1.477,1.477,0,0,1,.309-.323,1.433,1.433,0,0,1,.391-.218,1.213,1.213,0,0,1,.425-.084l38.5-.263a1.007,1.007,0,0,1,.4.079.767.767,0,0,1,.293.221.72.72,0,0,1,.156.325.909.909,0,0,1-.014.4,1.213,1.213,0,0,1-.184.4,1.526,1.526,0,0,1-.313.329,1.624,1.624,0,0,1-.4.224,1.312,1.312,0,0,1-.446.085Zm-120.04-5.8a.675.675,0,0,1-.326-.07.551.551,0,0,1-.221-.2.644.644,0,0,1-.1-.295.951.951,0,0,1,.047-.363,1.384,1.384,0,0,1,.192-.367,1.526,1.526,0,0,1,.292-.3,1.4,1.4,0,0,1,.352-.2,1.081,1.081,0,0,1,.374-.076l51.559-.557a.816.816,0,0,1,.35.07.61.61,0,0,1,.244.2.658.658,0,0,1,.114.3.969.969,0,0,1-.038.377,1.276,1.276,0,0,1-.19.375,1.568,1.568,0,0,1-.3.311,1.5,1.5,0,0,1-.369.209,1.127,1.127,0,0,1-.395.08Zm121.9-1.177a.942.942,0,0,1-.384-.076.706.706,0,0,1-.275-.212.719.719,0,0,1-.139-.318.909.909,0,0,1,.021-.388,1.258,1.258,0,0,1,.187-.395,1.509,1.509,0,0,1,.7-.539,1.229,1.229,0,0,1,.425-.082l38.4-.416a1.044,1.044,0,0,1,.4.075.773.773,0,0,1,.292.214.729.729,0,0,1,.154.324.918.918,0,0,1-.012.4,1.225,1.225,0,0,1-.184.4,1.537,1.537,0,0,1-.315.33,1.515,1.515,0,0,1-.4.224,1.292,1.292,0,0,1-.445.085ZM175.482,203.1a.71.71,0,0,1-.328-.069.571.571,0,0,1-.221-.195.631.631,0,0,1-.094-.293.909.909,0,0,1,.046-.359,1.354,1.354,0,0,1,.19-.363,1.463,1.463,0,0,1,.291-.3,1.353,1.353,0,0,1,.352-.2,1,1,0,0,1,.375-.078l51.444-.765a.784.784,0,0,1,.348.069.633.633,0,0,1,.244.2.663.663,0,0,1,.115.3.886.886,0,0,1-.037.372,1.289,1.289,0,0,1-.188.374,1.515,1.515,0,0,1-.3.306,1.461,1.461,0,0,1-.368.211,1.106,1.106,0,0,1-.4.08Zm121.609-1.671a.945.945,0,0,1-.383-.072.7.7,0,0,1-.273-.211.677.677,0,0,1-.14-.313.885.885,0,0,1,.021-.386,1.261,1.261,0,0,1,.184-.389,1.479,1.479,0,0,1,.308-.319,1.551,1.551,0,0,1,.387-.22,1.267,1.267,0,0,1,.426-.085l38.3-.568a.968.968,0,0,1,.4.073.738.738,0,0,1,.447.534.877.877,0,0,1-.012.4,1.209,1.209,0,0,1-.182.4,1.493,1.493,0,0,1-.314.326,1.513,1.513,0,0,1-.4.224,1.237,1.237,0,0,1-.443.086Zm-80.53-8.144,3.594-11.648L233.2,181.3l-3.541,11.737Zm-19.386.374,6.3-19.769,12.709-.4-6.215,19.92Zm62-.738a10.9,10.9,0,0,1-4.888-.974,8.543,8.543,0,0,1-3.378-2.825,9.29,9.29,0,0,1-1.579-4.225,12.858,12.858,0,0,1,.494-5.187,17.878,17.878,0,0,1,2.554-5.217,21.2,21.2,0,0,1,4.05-4.312,20.316,20.316,0,0,1,5.016-2.982,15.907,15.907,0,0,1,5.45-1.222,11.087,11.087,0,0,1,4.882.869,8.573,8.573,0,0,1,3.448,2.727,9.131,9.131,0,0,1,1.692,4.184,12.625,12.625,0,0,1-.408,5.235,17.74,17.74,0,0,1-2.548,5.317,21.206,21.206,0,0,1-4.125,4.407,20.28,20.28,0,0,1-5.126,3.026,15.816,15.816,0,0,1-5.534,1.179M188.4,163.74l12.379-.465-9.82,30.507-12.5.241Zm111.233,28.313,8.966-33.765,37.989-1.453-8.467,34.482ZM374.1,139.906l-199.01,9.347a12.289,12.289,0,0,0-4.081.959,16.52,16.52,0,0,0-3.837,2.264A17.287,17.287,0,0,0,164,155.713a14.151,14.151,0,0,0-2.091,3.879L115.148,295.876a12.575,12.575,0,0,0-.72,4.482,8.789,8.789,0,0,0,.944,3.767,6.892,6.892,0,0,0,2.416,2.65,7.556,7.556,0,0,0,3.688,1.122l210.888,11.11a14.551,14.551,0,0,0,5.425-.774,17.176,17.176,0,0,0,4.92-2.635,17.41,17.41,0,0,0,3.852-4.078,15.123,15.123,0,0,0,2.224-5.086L384.093,150.5a9.116,9.116,0,0,0-.011-4.312,7.8,7.8,0,0,0-1.9-3.43,8.844,8.844,0,0,0-3.443-2.2,11.936,11.936,0,0,0-4.637-.648" fill="#fff"/>
            <path id="Trazado_833389" data-name="Trazado 833389" d="M191.592,245.56l-8.646-.1-2.877,9.063,8.67.157Z" fill="#fdd474"/>
            <path id="Trazado_833390" data-name="Trazado 833390" d="M186.463,261.945l-8.69-.2-2.926,9.215,8.715.246Z" fill="#e8eaf1"/>
            <path id="Trazado_833391" data-name="Trazado 833391" d="M181.3,278.445l-8.735-.284-2.974,9.368,8.76.337Z" fill="#e8eaf1"/>
            <path id="Trazado_833392" data-name="Trazado 833392" d="M246.561,247.226l-49.056-.635a.657.657,0,0,0-.244.045.826.826,0,0,0-.227.127.86.86,0,0,0-.188.193.909.909,0,0,0-.121.241.622.622,0,0,0-.029.24.444.444,0,0,0,.067.2.37.37,0,0,0,.148.134.456.456,0,0,0,.213.053l49.075.672a.737.737,0,0,0,.259-.048.876.876,0,0,0,.238-.133.908.908,0,0,0,.191-.2.717.717,0,0,0,.12-.245.593.593,0,0,0,.022-.25.488.488,0,0,0-.077-.2.436.436,0,0,0-.161-.136.526.526,0,0,0-.23-.051" fill="#877f9f"/>
            <path id="Trazado_833393" data-name="Trazado 833393" d="M244.77,253.516l-49.157-.819a.673.673,0,0,0-.244.044.861.861,0,0,0-.23.129.963.963,0,0,0-.188.194.85.85,0,0,0-.121.243.567.567,0,0,0-.027.24.435.435,0,0,0,.065.2.379.379,0,0,0,.145.136.482.482,0,0,0,.215.054l49.176.858a.729.729,0,0,0,.259-.048.891.891,0,0,0,.24-.134.938.938,0,0,0,.193-.2.811.811,0,0,0,.119-.248.608.608,0,0,0,.021-.251.443.443,0,0,0-.077-.2.423.423,0,0,0-.16-.139.512.512,0,0,0-.229-.054" fill="#877f9f"/>
            <path id="Trazado_833394" data-name="Trazado 833394" d="M241.725,264.2,192.4,263.064a.7.7,0,0,0-.245.045.877.877,0,0,0-.23.13.9.9,0,0,0-.314.439.622.622,0,0,0-.025.242.424.424,0,0,0,.065.2.391.391,0,0,0,.147.138.448.448,0,0,0,.215.056l49.344,1.174a.665.665,0,0,0,.259-.046.834.834,0,0,0,.24-.133.891.891,0,0,0,.2-.2.86.86,0,0,0,.119-.248.6.6,0,0,0,.023-.251.487.487,0,0,0-.077-.21.451.451,0,0,0-.16-.143.554.554,0,0,0-.23-.057" fill="#877f9f"/>
            <path id="Trazado_833395" data-name="Trazado 833395" d="M239.9,270.6l-49.425-1.328a.683.683,0,0,0-.247.046.915.915,0,0,0-.23.127,1.055,1.055,0,0,0-.19.2.808.808,0,0,0-.121.242.62.62,0,0,0-.031.249.436.436,0,0,0,.066.2.383.383,0,0,0,.147.138.474.474,0,0,0,.216.055L239.53,271.9a.686.686,0,0,0,.259-.044.817.817,0,0,0,.241-.133,1,1,0,0,0,.2-.2.819.819,0,0,0,.121-.253.6.6,0,0,0,.023-.254.487.487,0,0,0-.078-.211.415.415,0,0,0-.161-.144.508.508,0,0,0-.23-.059" fill="#877f9f"/>
            <path id="Trazado_833396" data-name="Trazado 833396" d="M236.871,281.227l-49.59-1.648a.662.662,0,0,0-.246.041.937.937,0,0,0-.233.129.921.921,0,0,0-.19.2.85.85,0,0,0-.124.246.628.628,0,0,0-.03.249.46.46,0,0,0,.065.205.431.431,0,0,0,.148.146.484.484,0,0,0,.216.057L236.5,282.54a.767.767,0,0,0,.261-.045.905.905,0,0,0,.24-.135.971.971,0,0,0,.2-.2.843.843,0,0,0,.122-.255.632.632,0,0,0,.023-.259.45.45,0,0,0-.237-.359.514.514,0,0,0-.233-.057" fill="#877f9f"/>
            <path id="Trazado_833397" data-name="Trazado 833397" d="M235.016,287.738l-49.691-1.847a.681.681,0,0,0-.249.043.863.863,0,0,0-.232.13,1,1,0,0,0-.191.2.893.893,0,0,0-.125.246.682.682,0,0,0-.03.251.508.508,0,0,0,.065.21.408.408,0,0,0,.147.142.439.439,0,0,0,.217.06l49.713,1.885a.686.686,0,0,0,.26-.042.856.856,0,0,0,.243-.135.872.872,0,0,0,.2-.206.814.814,0,0,0,.125-.254.7.7,0,0,0,.022-.257.523.523,0,0,0-.077-.216.433.433,0,0,0-.162-.147.5.5,0,0,0-.231-.061" fill="#877f9f"/>
            <path id="Trazado_833398" data-name="Trazado 833398" d="M200.783,163.275l-12.379.466-9.941,30.282,12.5-.241Z" fill="#005afd"/>
            <path id="Trazado_833399" data-name="Trazado 833399" d="M216.183,173.5l-12.709.4-6.3,19.77,12.793-.247Z" fill="#00c4ff"/>
            <path id="Trazado_833400" data-name="Trazado 833400" d="M233.2,181.3l-13.047.342-3.594,11.648,13.1-.253Z" fill="#ff2c60"/>
            <path id="Trazado_833401" data-name="Trazado 833401" d="M326.524,247.464l-17.836,7.654c.042.125.084.251.125.378s.075.254.112.381.07.259.1.389.065.263.093.4l17.842-7.652a2.879,2.879,0,0,1-.179-.35,2.974,2.974,0,0,1-.136-.377,3.228,3.228,0,0,1-.086-.4,3.4,3.4,0,0,1-.038-.42" fill="#00c4ff"/>
            <path id="Trazado_833402" data-name="Trazado 833402" d="M297.842,284c-.129.1-.259.205-.39.308s-.262.2-.395.3-.266.2-.4.294-.268.193-.4.289l7.161,10.132c.123-.112.248-.223.379-.33s.26-.211.393-.312.269-.2.406-.3.278-.186.42-.275Z" fill="#877fa0"/>
            <path id="Trazado_833403" data-name="Trazado 833403" d="M291.07,245.216a26.093,26.093,0,0,0-9.161,1.672,31.368,31.368,0,0,0-8.31,4.648,32.169,32.169,0,0,0-6.631,6.949,28.1,28.1,0,0,0-4.093,8.609,21.788,21.788,0,0,0-.651,8.806,17.111,17.111,0,0,0,2.827,7.374,16.232,16.232,0,0,0,5.844,5.17,19.385,19.385,0,0,0,8.388,2.147,25.622,25.622,0,0,0,9.4-1.481,31.133,31.133,0,0,0,8.632-4.7,32.008,32.008,0,0,0,6.861-7.182,27.867,27.867,0,0,0,4.122-8.891l-23.155-.565Z" fill="#7c3eff"/>
            <path id="Trazado_833404" data-name="Trazado 833404" d="M294.449,245.513h-.111L289.384,264.5l19.505.438.026-.1a20.287,20.287,0,0,0,.421-2.163,18.02,18.02,0,0,0,.167-2.1,16.607,16.607,0,0,0-.074-2.007,15.125,15.125,0,0,0-.308-1.912c-.029-.133-.061-.265-.093-.4s-.065-.26-.1-.389-.074-.254-.112-.382-.083-.252-.125-.377a13.867,13.867,0,0,0-2.063-3.9,13.608,13.608,0,0,0-3.16-3.016,14.789,14.789,0,0,0-4.106-1.958,17.6,17.6,0,0,0-4.91-.729" fill="#00c4ff"/>
            <path id="Trazado_833405" data-name="Trazado 833405" d="M310.555,292.535a8.535,8.535,0,0,0-1.447.068,9.05,9.05,0,0,0-1.42.3,9.832,9.832,0,0,0-1.375.508,11.012,11.012,0,0,0-1.3.7c-.142.089-.281.181-.421.276s-.271.2-.4.3-.266.206-.394.313-.255.217-.379.329a11.219,11.219,0,0,0-1.056,1.1,10.91,10.91,0,0,0-.894,1.231,10.707,10.707,0,0,0-.705,1.346,9.447,9.447,0,0,0-.487,1.439,7.959,7.959,0,0,0-.162,3.247,6.539,6.539,0,0,0,1.1,2.723,6.232,6.232,0,0,0,2.181,1.909,7.211,7.211,0,0,0,3.062.811,9.18,9.18,0,0,0,3.4-.5,10.958,10.958,0,0,0,3.1-1.673,11.223,11.223,0,0,0,2.442-2.579,9.943,9.943,0,0,0,1.448-3.224,7.862,7.862,0,0,0,.129-3.262,6.488,6.488,0,0,0-1.147-2.708,6.264,6.264,0,0,0-2.21-1.875,7.253,7.253,0,0,0-3.062-.771" fill="#7c3eff"/>
            <path id="Trazado_833406" data-name="Trazado 833406" d="M331.789,242.471a4.914,4.914,0,0,0-1.7.3,5.754,5.754,0,0,0-1.534.845,5.659,5.659,0,0,0-1.2,1.266,4.734,4.734,0,0,0-.711,1.559c-.022.087-.038.177-.056.263s-.027.173-.036.258-.016.17-.019.256,0,.165,0,.248a3.414,3.414,0,0,0,.038.42,3.059,3.059,0,0,0,.087.4,2.825,2.825,0,0,0,.135.377,2.753,2.753,0,0,0,.18.35,2.935,2.935,0,0,0,.493.617,3.148,3.148,0,0,0,.658.475,3.38,3.38,0,0,0,.8.306,4.029,4.029,0,0,0,.925.119,4.861,4.861,0,0,0,1.71-.3,5.708,5.708,0,0,0,2.754-2.121,4.712,4.712,0,0,0,.707-1.569,3.64,3.64,0,0,0,.047-1.575,2.961,2.961,0,0,0-.589-1.288,3.049,3.049,0,0,0-1.125-.875,3.778,3.778,0,0,0-1.552-.33" fill="#00c4ff"/>
            <path id="Trazado_833407" data-name="Trazado 833407" d="M259.8,190.723a9.006,9.006,0,0,1-4.064-.808,7.106,7.106,0,0,1-2.81-2.363,7.806,7.806,0,0,1-1.315-3.542,10.859,10.859,0,0,1,.416-4.357,15.108,15.108,0,0,1,2.134-4.383,17.845,17.845,0,0,1,3.386-3.622,16.956,16.956,0,0,1,4.185-2.5,13.136,13.136,0,0,1,4.543-1.02,9.1,9.1,0,0,1,4.06.736,7.123,7.123,0,0,1,2.858,2.3,7.707,7.707,0,0,1,1.389,3.513,10.79,10.79,0,0,1-.357,4.386,15,15,0,0,1-2.13,4.456,17.84,17.84,0,0,1-3.433,3.691,16.923,16.923,0,0,1-4.261,2.532,12.97,12.97,0,0,1-4.6.989m7.089-24.743a15.907,15.907,0,0,0-5.45,1.222,20.316,20.316,0,0,0-5.016,2.982,21.2,21.2,0,0,0-4.05,4.312,17.878,17.878,0,0,0-2.554,5.217,12.858,12.858,0,0,0-.494,5.187,9.29,9.29,0,0,0,1.579,4.225,8.543,8.543,0,0,0,3.378,2.825,10.911,10.911,0,0,0,4.888.974,15.838,15.838,0,0,0,5.534-1.179,20.31,20.31,0,0,0,5.126-3.026,21.206,21.206,0,0,0,4.125-4.407,17.745,17.745,0,0,0,2.548-5.318,12.619,12.619,0,0,0,.408-5.234,9.131,9.131,0,0,0-1.692-4.184,8.573,8.573,0,0,0-3.448-2.727,11.087,11.087,0,0,0-4.882-.869" fill="#7c3eff"/>
            <path id="Trazado_833408" data-name="Trazado 833408" d="M265.134,172.115a8.51,8.51,0,0,0-2.944.652,10.891,10.891,0,0,0-2.707,1.612,11.392,11.392,0,0,0-2.187,2.339,9.672,9.672,0,0,0-1.374,2.83,6.941,6.941,0,0,0-.259,2.806,4.975,4.975,0,0,0,.855,2.272,4.6,4.6,0,0,0,1.822,1.511,5.876,5.876,0,0,0,2.63.509,8.456,8.456,0,0,0,2.964-.64,10.91,10.91,0,0,0,2.74-1.623,11.417,11.417,0,0,0,2.209-2.364,9.633,9.633,0,0,0,1.371-2.857,6.9,6.9,0,0,0,.236-2.821,4.961,4.961,0,0,0-.891-2.264,4.6,4.6,0,0,0-1.841-1.482,5.911,5.911,0,0,0-2.624-.48" fill="#7c3eff"/>
            <path id="Trazado_833409" data-name="Trazado 833409" d="M335.92,198.869l-38.3.569a1.241,1.241,0,0,0-.426.084,1.557,1.557,0,0,0-.388.22,1.474,1.474,0,0,0-.307.319,1.217,1.217,0,0,0-.184.389.856.856,0,0,0-.021.386.671.671,0,0,0,.139.313.706.706,0,0,0,.274.211.928.928,0,0,0,.383.072l38.326-.527a1.225,1.225,0,0,0,.444-.086,1.547,1.547,0,0,0,.712-.55,1.212,1.212,0,0,0,.183-.4.892.892,0,0,0,.012-.4.764.764,0,0,0-.154-.32.755.755,0,0,0-.294-.214.961.961,0,0,0-.4-.073" fill="#c3bfcf"/>
            <path id="Trazado_833410" data-name="Trazado 833410" d="M334.141,206.1l-38.4.416a1.262,1.262,0,0,0-.426.082,1.485,1.485,0,0,0-.39.218,1.445,1.445,0,0,0-.307.322,1.2,1.2,0,0,0-.187.394.88.88,0,0,0-.021.388.714.714,0,0,0,.139.318.7.7,0,0,0,.274.212.929.929,0,0,0,.384.076l38.428-.373a1.261,1.261,0,0,0,.445-.085,1.546,1.546,0,0,0,.715-.553,1.2,1.2,0,0,0,.184-.4.913.913,0,0,0,.012-.4.713.713,0,0,0-.154-.324.76.76,0,0,0-.292-.215,1.039,1.039,0,0,0-.4-.075" fill="#c3bfcf"/>
            <path id="Trazado_833411" data-name="Trazado 833411" d="M332.39,213.221l-38.5.264a1.218,1.218,0,0,0-.426.083,1.526,1.526,0,0,0-.7.542,1.251,1.251,0,0,0-.189.393.916.916,0,0,0-.021.393.713.713,0,0,0,.138.319.744.744,0,0,0,.275.216.958.958,0,0,0,.385.078l38.53-.219a1.316,1.316,0,0,0,.446-.084,1.621,1.621,0,0,0,.4-.225,1.554,1.554,0,0,0,.314-.329,1.215,1.215,0,0,0,.184-.4.919.919,0,0,0,.013-.4.737.737,0,0,0-.155-.326.78.78,0,0,0-.294-.221,1.007,1.007,0,0,0-.4-.079" fill="#c3bfcf"/>
            <path id="Trazado_833412" data-name="Trazado 833412" d="M330.588,220.563l-38.605.1a1.253,1.253,0,0,0-.429.08,1.571,1.571,0,0,0-.392.221,1.482,1.482,0,0,0-.309.324,1.269,1.269,0,0,0-.19.4.915.915,0,0,0-.021.4.731.731,0,0,0,.138.324.722.722,0,0,0,.276.219.9.9,0,0,0,.385.079l38.635-.059a1.307,1.307,0,0,0,.444-.083,1.526,1.526,0,0,0,.722-.556,1.288,1.288,0,0,0,.186-.406.947.947,0,0,0,.013-.4.758.758,0,0,0-.155-.33.774.774,0,0,0-.293-.222.97.97,0,0,0-.4-.083" fill="#c3bfcf"/>
            <path id="Trazado_833413" data-name="Trazado 833413" d="M227.537,200.481l-51.444.765a1.032,1.032,0,0,0-.376.078,1.4,1.4,0,0,0-.351.2,1.458,1.458,0,0,0-.291.3,1.4,1.4,0,0,0-.191.363.927.927,0,0,0-.046.359.647.647,0,0,0,.1.294.58.58,0,0,0,.221.2.719.719,0,0,0,.327.068l51.475-.708a1.074,1.074,0,0,0,.4-.08,1.456,1.456,0,0,0,.368-.21,1.541,1.541,0,0,0,.3-.306,1.328,1.328,0,0,0,.188-.374.888.888,0,0,0,.037-.372.674.674,0,0,0-.115-.3.622.622,0,0,0-.244-.2.784.784,0,0,0-.348-.07" fill="#c3bfcf"/>
            <path id="Trazado_833414" data-name="Trazado 833414" d="M225.485,207.279l-51.558.557a1.063,1.063,0,0,0-.375.076,1.39,1.39,0,0,0-.351.2,1.53,1.53,0,0,0-.293.3,1.384,1.384,0,0,0-.192.367.989.989,0,0,0-.047.363.633.633,0,0,0,.1.295.548.548,0,0,0,.22.2.69.69,0,0,0,.326.07l51.591-.5a1.107,1.107,0,0,0,.4-.081,1.482,1.482,0,0,0,.369-.208,1.573,1.573,0,0,0,.3-.311,1.285,1.285,0,0,0,.189-.375.95.95,0,0,0,.038-.377.658.658,0,0,0-.114-.3.607.607,0,0,0-.243-.2.821.821,0,0,0-.351-.07" fill="#c3bfcf"/>
            <path id="Trazado_833415" data-name="Trazado 833415" d="M223.465,213.966l-51.666.354a1.009,1.009,0,0,0-.377.075,1.429,1.429,0,0,0-.352.2,1.576,1.576,0,0,0-.293.3,1.349,1.349,0,0,0-.192.366.923.923,0,0,0-.048.365.644.644,0,0,0,.1.3.574.574,0,0,0,.22.2.718.718,0,0,0,.328.072l51.7-.293a1.178,1.178,0,0,0,.4-.078,1.536,1.536,0,0,0,.367-.211,1.5,1.5,0,0,0,.3-.31,1.343,1.343,0,0,0,.19-.378.912.912,0,0,0,.037-.377.654.654,0,0,0-.114-.306.6.6,0,0,0-.244-.207.749.749,0,0,0-.352-.074" fill="#c3bfcf"/>
            <path id="Trazado_833416" data-name="Trazado 833416" d="M221.386,220.859,169.6,221a1.016,1.016,0,0,0-.377.077,1.336,1.336,0,0,0-.354.205,1.494,1.494,0,0,0-.294.3,1.346,1.346,0,0,0-.192.368.96.96,0,0,0-.05.368.689.689,0,0,0,.1.3.552.552,0,0,0,.223.2.688.688,0,0,0,.328.075l51.812-.079a1.163,1.163,0,0,0,.4-.077,1.512,1.512,0,0,0,.672-.523,1.313,1.313,0,0,0,.19-.382.885.885,0,0,0,.038-.379.684.684,0,0,0-.113-.311.633.633,0,0,0-.244-.208.78.78,0,0,0-.352-.076" fill="#c3bfcf"/>
            <path id="Trazado_833417" data-name="Trazado 833417" d="M346.593,156.835,308.6,158.288l-8.966,33.765,38.487-.736Z" fill="#c3bfcf"/>
            <path id="Trazado_833418" data-name="Trazado 833418" d="M151.089,204.578h0a1.411,1.411,0,0,1-1.929-.654l-6.652-15.244a1.544,1.544,0,0,1,.791-1.961,1.407,1.407,0,0,1,1.926.656l6.652,15.243a1.54,1.54,0,0,1-.788,1.96" fill="#473f65"/>
            <path id="Trazado_833419" data-name="Trazado 833419" d="M150.7,214.342a24.111,24.111,0,0,0-7.571-15.976,58.534,58.534,0,0,0-7.876-18.021c-.373-.567-.6-.886-.6-.886L111.5,185.131s13.429,21.931,13.069,23.067-6.309,2.835-6.309,2.835-8.652-9.075-12.978-4.159,4.146,12.479,4.146,12.479l.541,9.074-4.867,1.892.539,7.94c4.328,3.4,28.3,3.025,28.841,3.025s.182-5.106.182-5.106,11.678.976,14.239-.945c4.733-3.544,2.344-10.871,1.8-20.891" fill="#f4af9f"/>
            <path id="Trazado_833420" data-name="Trazado 833420" d="M148.9,235.234A6.389,6.389,0,0,0,150.782,233c-19.744,3.372-22.63-23.078-22.63-23.078s-6.978-14.743-6.978-19.014c0-3.821,12.095-8.695,14.647-9.683-.207-.328-.4-.631-.564-.883-.373-.569-.6-.885-.6-.885L111.5,185.131s13.429,21.931,13.07,23.068-6.31,2.834-6.31,2.834-8.652-9.074-12.977-4.159,4.146,12.479,4.146,12.479l.54,9.074-4.867,1.892.539,7.94a9.728,9.728,0,0,0,3.541,1.388l14.32.681c1.649-5.185,8.727-4.982,8.727-4.982q1.593.461,3.065.88c2.454.169,11.4.66,13.609-.992" fill="#e1708b"/>
            <g id="Grupo_1093726" data-name="Grupo 1093726" opacity="0.72" style="mix-blend-mode: overlay;isolation: isolate">
              <g id="Grupo_1093725" data-name="Grupo 1093725">
                <g id="Grupo_1093724" data-name="Grupo 1093724" clip-path="url(#clip-path-24)">
                  <g id="Grupo_1093721" data-name="Grupo 1093721">
                    <g id="Grupo_1093720" data-name="Grupo 1093720" clip-path="url(#clip-path-25)">
                      <rect id="Rectángulo_387003" data-name="Rectángulo 387003" width="52.681" height="62.204" transform="translate(100.953 179.459)" fill="url(#linear-gradient)"/>
                    </g>
                  </g>
                  <g id="Grupo_1093723" data-name="Grupo 1093723">
                    <g id="Grupo_1093722" data-name="Grupo 1093722" clip-path="url(#clip-path-26)">
                      <rect id="Rectángulo_387004" data-name="Rectángulo 387004" width="49.829" height="60.867" transform="translate(100.953 179.46)" fill="url(#linear-gradient-2)"/>
                    </g>
                  </g>
                </g>
              </g>
            </g>
            <path id="Trazado_833423" data-name="Trazado 833423" d="M111.157,220.494s-10.2-8.7-5.877-13.619,12.977,4.158,12.977,4.158,5.95-1.7,6.31-2.834-7.531-14.691-5.543-19.476c1.628-3.917,15.542-9.769,15.916-9.2,9.3-7.909,5.041-27.353,5.041-27.353-4.866,11.154-31.206,13.677-45.425,18.528-16.839,5.746-12.608,21.257-12.608,21.257-2.526,1.512-8.46,10.273,6.927,20.78A53.609,53.609,0,0,1,105.1,230.319s5.484-1.165,6.191-2.306c1.183-1.9-.133-7.519-.133-7.519" fill="#473f65"/>
            <path id="Trazado_833424" data-name="Trazado 833424" d="M116.532,208.272l-.854-1.336c.577-.4,19.817-7.71,31.234-12.03l.562,1.486c-11.95,4.521-30.052,11.416-30.942,11.88" fill="#473f65"/>
            <path id="Trazado_833425" data-name="Trazado 833425" d="M242.218,226.075s0-11.312.764-16.718a6.367,6.367,0,0,1,5.726-5.706s8.59-25.027,11.834-23.226-3.816,17.42-3.053,20.021,15.843,7.009,15.269,16.619-11.07,16.618-11.07,16.618Z" fill="#e9989c"/>
            <path id="Trazado_833426" data-name="Trazado 833426" d="M249.064,202.634c-.227.644-.356,1.017-.356,1.017a6.369,6.369,0,0,0-5.726,5.706c-.764,5.406-.764,16.719-.764,16.719l19.47,7.608s6.985-4.666,9.87-11.6c-16.586-4.1-21.788-12-22.494-19.449" fill="#e1708b"/>
            <path id="Trazado_833427" data-name="Trazado 833427" d="M267.4,234.065l2.827-4.449c-4.577-10.844-24.959-13.321-24.959-13.321l-3.348,4.886c4.63.485,18.893,2.781,25.48,12.884" fill="#e8eaf1"/>
            <path id="Trazado_833428" data-name="Trazado 833428" d="M267.4,234.065c-6.587-10.1-20.85-12.4-25.48-12.884-.941-.1-1.488-.123-1.488-.123l-35.04,46.349s-36.864-8.641-56.839-11.449c-1.143-.159-2.25-.289-3.332-.393,0,0-28.9-.378-29.557-.439q-1.292-.122-2.583-.254-1.01-.1-2.013-.219c-.466-.055-.929-.109-1.391-.165q-.977-.12-1.939-.25-.791-.105-1.567-.22-.831-.12-1.646-.249-.793-.126-1.571-.259c-.487-.084-.97-.171-1.446-.259-.219-.04-.434-.081-.653-.124-1.413-.272-2.773-.568-4.063-.889-.284-.07-.562-.141-.836-.215q-.518-.136-1.014-.276c-.3-.087-.6-.175-.9-.265-.956-.292-1.86-.6-2.7-.924,0,0-50.87,3.632-47.657,50.089l19.613.4s1.2,37.723,2.267,58c.671,12.732-.038,19.863-6.441,36.675,7.082,7,18.94,11.235,26.968,13.037,20.309,4.558,39.944,2.783,60.357-1.156,3.343-.643,6.649-1.222,9.926-2.071-.925-14.768-2.567-41.459-1.549-49.994,1.44-12.09,7.987-33.2,7.1-45.717,20.812.05,47.028-.312,54.637-2.307,13.18-3.457,51.919-71.586,51.919-71.586a20.181,20.181,0,0,0-1.092-1.864" fill="#473f65"/>
            <path id="Trazado_833429" data-name="Trazado 833429" d="M145.455,254.866l-8.2-12.834-1.264-1.976-40.881-3.472c-3.958,8.206-3.636,14.68-3.636,14.68.845.307,1.755.588,2.718.855.3.081.6.162.906.242.333.084.673.169,1.018.249.278.066.56.129.844.193,1.3.287,2.665.547,4.085.783l.654.107c.481.076.964.15,1.453.221q.781.112,1.577.217c.545.074,1.1.141,1.651.208q.783.093,1.571.178.969.105,1.948.2.693.069,1.393.13,1.008.089,2.021.166,1.293.1,2.587.186,1,.066,1.99.123c3.031.175,6.029.29,8.874.365.616.019,1.223.033,1.824.046,5.769.122,10.76.081,13.9.03,1.071-.019,1.93-.038,2.526-.054l.967-.028Z" fill="#f4f6f8"/>
            <path id="Trazado_833430" data-name="Trazado 833430" d="M142.286,255.269c-1.41-.17-2.772-.364-4.109-.567-3.187-.485-6.169-1.057-8.957-1.7q-3.123-.716-5.92-1.53c-20.265-5.864-28.191-14.9-28.192-14.9-3.957,8.207-3.634,14.681-3.634,14.681.845.305,1.754.587,2.717.854.3.081.6.161.906.24.335.086.673.17,1.019.251.277.066.559.13.843.193,1.3.286,2.664.547,4.085.784.217.036.436.071.655.1.479.078.964.151,1.453.224.521.076,1.046.147,1.577.217q.819.106,1.652.208.782.092,1.571.178.967.1,1.947.2c.463.044.927.088,1.394.128.669.06,1.345.116,2.021.169q1.29.1,2.586.184,1,.066,1.99.123c3.032.174,6.028.291,8.874.366.615.018,1.223.031,1.823.044,5.769.123,10.76.085,13.9.031,1.073-.018,1.931-.037,2.526-.054.63-.017.968-.029.968-.029-1.258-.119-2.487-.257-3.692-.4" fill="#e8eaf1"/>
            <g id="Grupo_1093729" data-name="Grupo 1093729" style="mix-blend-mode: soft-light;isolation: isolate">
              <g id="Grupo_1093728" data-name="Grupo 1093728">
                <g id="Grupo_1093727" data-name="Grupo 1093727" clip-path="url(#clip-path-27)">
                  <path id="Trazado_833431" data-name="Trazado 833431" d="M161.765,309.83c-.6-.043-30.027-2.169-38.874-5.788,0,0,26.472,14.043,38.7,13.209a45.513,45.513,0,0,0,.17-7.421" fill="#656565"/>
                </g>
              </g>
            </g>
            <path id="Trazado_833432" data-name="Trazado 833432" d="M276.912,173.76a9.137,9.137,0,0,0-1.691-4.184,8.583,8.583,0,0,0-3.449-2.727,11.087,11.087,0,0,0-4.882-.869,15.928,15.928,0,0,0-5.45,1.221,20.369,20.369,0,0,0-5.016,2.983,21.232,21.232,0,0,0-4.05,4.312,17.878,17.878,0,0,0-2.554,5.217,12.858,12.858,0,0,0-.494,5.187c.027.217.077.425.115.637a19.619,19.619,0,0,1,2.391-.4,8.867,8.867,0,0,1-.22-1.124,10.877,10.877,0,0,1,.416-4.357,15.108,15.108,0,0,1,2.134-4.383,17.876,17.876,0,0,1,3.386-3.623,16.939,16.939,0,0,1,4.186-2.5,13.126,13.126,0,0,1,4.542-1.02,9.1,9.1,0,0,1,4.06.736,7.124,7.124,0,0,1,2.859,2.295,7.725,7.725,0,0,1,1.388,3.514,10.773,10.773,0,0,1-.357,4.386,15.014,15.014,0,0,1-2.13,4.456,17.865,17.865,0,0,1-3.433,3.691,17.517,17.517,0,0,1-2.79,1.834q.836.621,1.607,1.32a20.994,20.994,0,0,0,2.351-1.637,21.206,21.206,0,0,0,4.125-4.407,17.745,17.745,0,0,0,2.548-5.318,12.62,12.62,0,0,0,.408-5.234" fill="#7c3eff"/>
            <path id="Trazado_833433" data-name="Trazado 833433" d="M276.161,99.655a1.564,1.564,0,0,1-.769-.2,43.765,43.765,0,0,0-16.23-5.266,1.581,1.581,0,1,1,.373-3.14,46.827,46.827,0,0,1,17.4,5.645,1.581,1.581,0,0,1-.772,2.962" fill="#a6c5fe"/>
            <path id="Trazado_833434" data-name="Trazado 833434" d="M217.377,112.055a1.582,1.582,0,0,1-1.26-2.535A47.374,47.374,0,0,1,243.5,91.858a1.582,1.582,0,0,1,.692,3.087,44.206,44.206,0,0,0-25.55,16.483,1.579,1.579,0,0,1-1.263.627" fill="#a6c5fe"/>
            <path id="Trazado_833435" data-name="Trazado 833435" d="M317.725,106.369c0,11.9-9.2,21.543-20.538,21.543s-20.541-9.644-20.541-21.543,9.2-21.542,20.541-21.542,20.538,9.644,20.538,21.542" fill="#00c4ff"/>
            <path id="Trazado_833436" data-name="Trazado 833436" d="M353.436,126.134a5.831,5.831,0,1,1-5.824-6.109,5.971,5.971,0,0,1,5.824,6.109" fill="#00c4ff"/>
            <path id="Trazado_833437" data-name="Trazado 833437" d="M377.073,102.676a3.363,3.363,0,1,1-3.361-3.525,3.444,3.444,0,0,1,3.361,3.525" fill="#00c4ff"/>
            <path id="Trazado_833438" data-name="Trazado 833438" d="M257.431,92.762a5.831,5.831,0,1,1-5.825-6.11,5.972,5.972,0,0,1,5.825,6.11" fill="#00c4ff"/>
            <path id="Trazado_833439" data-name="Trazado 833439" d="M220.131,119.258a8.118,8.118,0,1,1-8.109-8.505,8.313,8.313,0,0,1,8.109,8.505" fill="#00c4ff"/>
            <path id="Trazado_833440" data-name="Trazado 833440" d="M309.31,105.28a.385.385,0,0,0-.308-.436c-.673-.246-1.344-.5-2-.781a.8.8,0,0,1-.373-.4c-.267-.648-.508-1.306-.737-1.968a.634.634,0,0,1,.006-.436c.339-.721.71-1.426,1.047-2.149a.454.454,0,0,0-.047-.4c-.536-.591-1.1-1.157-1.644-1.742a.328.328,0,0,0-.452-.081c-.7.33-1.394.652-2.1.954a.7.7,0,0,1-.474.014c-.668-.253-1.33-.523-1.982-.815a.741.741,0,0,1-.372-.353c-.26-.68-.494-1.371-.719-2.066-.071-.222-.159-.331-.416-.327-.772,0-1.543-.009-2.315-.038a.385.385,0,0,0-.436.31c-.242.671-.516,1.333-.756,2.007a.6.6,0,0,1-.442.406c-.638.209-1.271.449-1.89.719a.6.6,0,0,1-.6-.016c-.67-.35-1.354-.676-2.024-1.025a.353.353,0,0,0-.49.077c-.541.548-1.1,1.086-1.664,1.607a.376.376,0,0,0-.081.524c.325.682.643,1.371.934,2.068a.692.692,0,0,1-.021.5q-.439.977-.934,1.929a.835.835,0,0,1-.4.38c-.724.26-1.459.492-2.194.718a.379.379,0,0,0-.327.421c0,.772-.011,1.542-.037,2.313a.351.351,0,0,0,.28.409c.742.251,1.48.512,2.208.8a.81.81,0,0,1,.373.4c.286.624.517,1.275.816,1.893a.659.659,0,0,1,0,.674c-.329.634-.632,1.285-.962,1.92a.38.38,0,0,0,.074.525q.825.812,1.609,1.664a.372.372,0,0,0,.519.083c.672-.318,1.354-.612,2.025-.931a.593.593,0,0,1,.6.024c.635.328,1.3.6,1.938.916a.7.7,0,0,1,.323.349c.261.737.5,1.484.735,2.231a.359.359,0,0,0,.4.3c.771,0,1.542.011,2.313.04a.37.37,0,0,0,.429-.308c.248-.729.51-1.454.8-2.167a.75.75,0,0,1,.369-.361q1-.444,2.018-.834a.662.662,0,0,1,.472,0c.782.364,1.551.754,2.355,1.148.644-.631,1.287-1.249,1.911-1.888a.461.461,0,0,0,.043-.409c-.3-.708-.638-1.4-.944-2.109a.657.657,0,0,1-.023-.445c.25-.684.514-1.361.8-2.029a.745.745,0,0,1,.366-.362c.683-.262,1.371-.5,2.064-.726a.359.359,0,0,0,.291-.4c0-.77.011-1.543.04-2.314m-12.2,5.779a4.693,4.693,0,1,1,4.772-4.614,4.694,4.694,0,0,1-4.772,4.614" fill="#fff"/>
          </g>
        </g>
      </g>
    </g>
  </g>
</svg>
