<svg id="_7" data-name="7" xmlns="http://www.w3.org/2000/svg" width="400" height="102.794" viewBox="0 0 400 102.794">
  <g id="Grupo_1095429" data-name="Grupo 1095429">
    <path id="Trazado_837251" data-name="Trazado 837251" d="M80.687,42.268a.457.457,0,0,1-.459-.459V39.068a.459.459,0,1,1,.917,0v2.741A.457.457,0,0,1,80.687,42.268Zm0-5.482a.457.457,0,0,1-.459-.459V33.586a.459.459,0,1,1,.917,0v2.741A.457.457,0,0,1,80.687,36.786Zm0-5.482a.457.457,0,0,1-.459-.459V28.1a.459.459,0,1,1,.917,0v2.741A.463.463,0,0,1,80.687,31.3Zm-1.376-4.117H76.571a.459.459,0,1,1,0-.917h2.741a.459.459,0,0,1,0,.917Zm-5.482,0H71.089a.459.459,0,1,1,0-.917H73.83a.459.459,0,1,1,0,.917Z" transform="translate(1.34 0.499)" fill="#2f3978"/>
    <path id="Trazado_837252" data-name="Trazado 837252" d="M129.01,54.08a.457.457,0,0,1-.459-.459V52.593a.459.459,0,1,1,.917,0v1.029A.457.457,0,0,1,129.01,54.08Zm0-3.77a.457.457,0,0,1-.459-.459V47.111a.459.459,0,1,1,.917,0v2.741A.457.457,0,0,1,129.01,50.31Zm0-5.482a.457.457,0,0,1-.459-.459V41.629a.459.459,0,1,1,.917,0V44.37A.457.457,0,0,1,129.01,44.828Zm-2.741-2.741h-2.741a.459.459,0,0,1,0-.917h2.741a.459.459,0,1,1,0,.917Zm-5.482,0h-2.741a.459.459,0,0,1,0-.917h2.741a.457.457,0,0,1,.459.459A.463.463,0,0,1,120.787,42.087Zm-5.482,0h-2.741a.459.459,0,0,1,0-.917h2.741a.457.457,0,0,1,.459.459A.47.47,0,0,1,115.305,42.087Zm-5.492,0h-2.741a.459.459,0,0,1,0-.917h2.741a.459.459,0,0,1,0,.917Zm-5.482,0H101.59a.459.459,0,0,1,0-.917h2.741a.459.459,0,0,1,0,.917Zm-5.482,0H96.108a.459.459,0,0,1,0-.917h2.741a.459.459,0,0,1,0,.917Zm-5.482,0H90.626a.459.459,0,0,1,0-.917h2.741a.459.459,0,0,1,0,.917Zm-5.482,0H85.143a.459.459,0,0,1,0-.917h2.741a.459.459,0,0,1,0,.917Zm-5.482,0H79.661a.459.459,0,0,1,0-.917H82.4a.457.457,0,0,1,.459.459A.47.47,0,0,1,82.4,42.087Zm-5.492,0H74.169a.459.459,0,0,1,0-.917H76.91a.459.459,0,0,1,0,.917Zm-5.482,0H68.687a.459.459,0,0,1,0-.917h2.741a.459.459,0,0,1,0,.917Zm-5.482,0H63.2a.459.459,0,0,1,0-.917h2.741a.459.459,0,0,1,0,.917Zm-5.482,0H57.723a.459.459,0,0,1,0-.917h2.741a.459.459,0,1,1,0,.917Zm-5.482,0H52.241a.459.459,0,0,1,0-.917h2.741a.459.459,0,0,1,0,.917Zm-5.482,0H46.759a.459.459,0,1,1,0-.917H49.5a.457.457,0,0,1,.459.459A.47.47,0,0,1,49.5,42.087Z" transform="translate(0.879 0.781)" fill="#2f3978"/>
    <path id="Trazado_837253" data-name="Trazado 837253" d="M59.718,84.164a.452.452,0,0,1-.448-.448v-2.69a.448.448,0,0,1,.9,0v2.69A.446.446,0,0,1,59.718,84.164Zm0-5.38a.452.452,0,0,1-.448-.448v-2.69a.448.448,0,0,1,.9,0v2.69A.446.446,0,0,1,59.718,78.783Zm0-5.38a.452.452,0,0,1-.448-.448v-2.69a.448.448,0,0,1,.9,0v2.69A.44.44,0,0,1,59.718,73.4Zm0-5.38a.452.452,0,0,1-.448-.448v-2.69a.448.448,0,1,1,.9,0v2.69A.44.44,0,0,1,59.718,68.023Zm0-5.37a.452.452,0,0,1-.448-.448v-.876a.452.452,0,0,1,.448-.448h1.814a.448.448,0,0,1,0,.9H60.167V62.2A.446.446,0,0,1,59.718,62.653Zm77.106-.876h-2.69a.448.448,0,1,1,0-.9h2.69a.448.448,0,0,1,0,.9Zm-5.38,0h-2.69a.448.448,0,0,1,0-.9h2.69a.452.452,0,0,1,.448.448A.446.446,0,0,1,131.444,61.777Zm-5.37,0h-2.69a.448.448,0,1,1,0-.9h2.69a.448.448,0,0,1,0,.9Zm-5.38,0H118a.448.448,0,1,1,0-.9h2.69a.448.448,0,1,1,0,.9Zm-5.38,0h-2.69a.448.448,0,1,1,0-.9h2.69a.448.448,0,1,1,0,.9Zm-5.38,0h-2.69a.448.448,0,1,1,0-.9h2.69a.452.452,0,0,1,.448.448A.446.446,0,0,1,109.934,61.777Zm-5.37,0h-2.69a.448.448,0,1,1,0-.9h2.69a.448.448,0,1,1,0,.9Zm-5.38,0h-2.69a.448.448,0,1,1,0-.9h2.69a.448.448,0,1,1,0,.9Zm-5.38,0h-2.69a.448.448,0,1,1,0-.9H93.8a.448.448,0,1,1,0,.9Zm-5.38,0h-2.69a.448.448,0,1,1,0-.9h2.69a.452.452,0,0,1,.448.448A.446.446,0,0,1,88.423,61.777Zm-5.37,0h-2.69a.448.448,0,1,1,0-.9h2.69a.448.448,0,1,1,0,.9Zm-5.38,0h-2.69a.448.448,0,1,1,0-.9h2.69a.448.448,0,1,1,0,.9Zm-5.38,0H69.6a.448.448,0,1,1,0-.9h2.69a.448.448,0,1,1,0,.9Zm-5.38,0h-2.69a.448.448,0,0,1,0-.9h2.69a.452.452,0,0,1,.448.448A.446.446,0,0,1,66.912,61.777Z" transform="translate(1.125 1.155)" fill="#2f3978"/>
    <path id="Trazado_837254" data-name="Trazado 837254" d="M135.587,76.42a.413.413,0,0,1,.418.418v2.527a.418.418,0,0,1-.836,0V76.838A.42.42,0,0,1,135.587,76.42Zm0,5.054a.413.413,0,0,1,.418.418v2.527a.418.418,0,0,1-.836,0V81.892A.413.413,0,0,1,135.587,81.474Zm0,5.054a.413.413,0,0,1,.418.418v2.527a.418.418,0,0,1-.836,0V86.946A.413.413,0,0,1,135.587,86.528Zm-24.669,3.1h2.527a.418.418,0,1,1,0,.836h-2.527a.413.413,0,0,1-.418-.418A.42.42,0,0,1,110.918,89.626Zm5.054,0H118.5a.418.418,0,1,1,0,.836h-2.527a.413.413,0,0,1-.418-.418A.42.42,0,0,1,115.972,89.626Zm5.044,0h2.527a.418.418,0,1,1,0,.836h-2.527a.413.413,0,0,1-.418-.418A.426.426,0,0,1,121.016,89.626Zm5.054,0H128.6a.418.418,0,1,1,0,.836H126.07a.413.413,0,0,1-.418-.418A.42.42,0,0,1,126.07,89.626Zm5.044,0h2.527a.418.418,0,1,1,0,.836h-2.527a.413.413,0,0,1-.418-.418A.426.426,0,0,1,131.114,89.626Z" transform="translate(2.097 1.45)" fill="#2f3978"/>
    <path id="Trazado_837255" data-name="Trazado 837255" d="M114.472,54.431a.489.489,0,0,1-.489-.489V50.987a.489.489,0,0,1,.978,0v2.955A.489.489,0,0,1,114.472,54.431Zm0-5.92a.489.489,0,0,1-.489-.489V45.067a.489.489,0,0,1,.978,0v2.955A.483.483,0,0,1,114.472,48.511Zm0-5.91a.489.489,0,0,1-.489-.489V39.157a.489.489,0,0,1,.978,0v2.955A.489.489,0,0,1,114.472,42.6Zm0-5.92a.489.489,0,0,1-.489-.489V33.237a.489.489,0,0,1,.978,0v2.955A.489.489,0,0,1,114.472,36.681Zm0-5.92a.489.489,0,0,1-.489-.489V27.316a.489.489,0,0,1,.978,0v2.955A.489.489,0,0,1,114.472,30.761Zm0-5.92a.489.489,0,0,1-.489-.489v-.163h-1.8a.489.489,0,0,1-.489-.489.5.5,0,0,1,.489-.489h2.3a.489.489,0,0,1,.489.489v.662A.5.5,0,0,1,114.472,24.84Zm-5.258-.652h-2.955a.489.489,0,0,1-.489-.489.5.5,0,0,1,.489-.489h2.955a.489.489,0,0,1,.489.489A.5.5,0,0,1,109.214,24.188Z" transform="translate(2.007 0.44)" fill="#2f3978"/>
    <path id="Trazado_837256" data-name="Trazado 837256" d="M227.466,90.373h-1.539a.622.622,0,1,1,0-1.243h.917V87.551a.622.622,0,0,1,1.243,0v2.2A.618.618,0,0,1,227.466,90.373Zm0-5.93a.618.618,0,0,1-.622-.622v-3.74a.622.622,0,0,1,1.243,0v3.74A.624.624,0,0,1,227.466,84.443Zm-5.268,5.93h-3.74a.622.622,0,1,1,0-1.243h3.74a.618.618,0,0,1,.622.622A.624.624,0,0,1,222.2,90.373Zm-7.479,0h-3.74a.622.622,0,1,1,0-1.243h3.74a.618.618,0,0,1,.622.622A.611.611,0,0,1,214.719,90.373Zm-7.469,0h-3.74a.622.622,0,1,1,0-1.243h3.74a.622.622,0,0,1,0,1.243Zm-7.469,0h-3.74a.622.622,0,0,1,0-1.243h3.74a.622.622,0,1,1,0,1.243Zm-7.469,0h-3.74a.622.622,0,0,1,0-1.243h3.74a.622.622,0,1,1,0,1.243Z" transform="translate(3.567 1.508)" fill="#2f3978"/>
    <path id="Trazado_837257" data-name="Trazado 837257" d="M287.8,92.051h-3.74a.622.622,0,1,1,0-1.243h3.74a.622.622,0,0,1,0,1.243Zm-7.469,0h-3.74a.622.622,0,0,1,0-1.243h3.74a.622.622,0,0,1,0,1.243Zm-7.469,0h-.825a.618.618,0,0,1-.622-.622v-2.9a.622.622,0,1,1,1.243,0v2.283h.2a.622.622,0,1,1,0,1.243Zm-.825-6.644a.618.618,0,0,1-.622-.622v-3.74a.622.622,0,1,1,1.243,0v3.74A.624.624,0,0,1,272.032,85.407Zm0-7.469a.618.618,0,0,1-.622-.622v-3.74a.622.622,0,1,1,1.243,0v3.74A.624.624,0,0,1,272.032,77.938Zm0-7.469a.618.618,0,0,1-.622-.622v-3.74a.622.622,0,1,1,1.243,0v3.74A.624.624,0,0,1,272.032,70.469Zm0-7.469a.618.618,0,0,1-.622-.622v-3.74a.622.622,0,1,1,1.243,0v3.74A.624.624,0,0,1,272.032,63Zm0-7.469a.618.618,0,0,1-.622-.622v-.948a.622.622,0,1,1,1.243,0v.948A.624.624,0,0,1,272.032,55.531Z" transform="translate(5.151 1.012)" fill="#2f3978"/>
    <path id="Trazado_837258" data-name="Trazado 837258" d="M205.847,50.327a.435.435,0,0,1-.438-.438V47.606a.438.438,0,1,1,.876,0v2.283A.435.435,0,0,1,205.847,50.327Zm0-4.911a.435.435,0,0,1-.438-.438V42.338a.438.438,0,1,1,.876,0v2.639A.435.435,0,0,1,205.847,45.416Zm0-5.278a.435.435,0,0,1-.438-.438V37.06a.438.438,0,1,1,.876,0V39.7A.435.435,0,0,1,205.847,40.137Zm0-5.268a.435.435,0,0,1-.438-.438V31.792a.438.438,0,1,1,.876,0v2.639A.435.435,0,0,1,205.847,34.869Zm0-5.278a.435.435,0,0,1-.438-.438V26.514a.438.438,0,1,1,.876,0v2.639A.435.435,0,0,1,205.847,29.591Zm0-5.268a.435.435,0,0,1-.438-.438V21.245a.438.438,0,1,1,.876,0v2.639A.435.435,0,0,1,205.847,24.323Zm-1.172-4.106h-2.639a.438.438,0,0,1,0-.876h2.639a.438.438,0,0,1,0,.876Zm-5.268,0h-2.639a.438.438,0,0,1,0-.876h2.639a.435.435,0,0,1,.438.438A.441.441,0,0,1,199.407,20.216Z" transform="translate(3.726 0.367)" fill="#2f3978"/>
    <path id="Trazado_837259" data-name="Trazado 837259" d="M267.979,6.66h.245a.457.457,0,0,1,.459.459.464.464,0,0,1-.245.408v2.1a.459.459,0,0,1-.917,0V7.119A.457.457,0,0,1,267.979,6.66Zm3,0h2.751a.459.459,0,1,1,0,.917h-2.751a.457.457,0,0,1-.459-.459A.463.463,0,0,1,270.974,6.66Zm5.513,0h2.751a.459.459,0,1,1,0,.917h-2.751a.459.459,0,1,1,0-.917Zm5.5,0h2.751a.459.459,0,1,1,0,.917H281.99a.459.459,0,1,1,0-.917Zm5.5,0h2.751a.459.459,0,1,1,0,.917h-2.751a.459.459,0,1,1,0-.917Zm5.513,0h2.751a.459.459,0,1,1,0,.917H293a.459.459,0,0,1,0-.917Zm-25.026,5.258a.457.457,0,0,1,.459.459v2.751a.459.459,0,0,1-.917,0V12.376A.457.457,0,0,1,267.979,11.918Zm0,5.5a.457.457,0,0,1,.459.459V20.63a.459.459,0,0,1-.917,0V17.879A.457.457,0,0,1,267.979,17.42Z" transform="translate(5.077 0.126)" fill="#2f3978"/>
    <path id="Trazado_837260" data-name="Trazado 837260" d="M348.5,45.473h-3.74a.622.622,0,1,1,0-1.243h3.74a.618.618,0,0,1,.622.622A.624.624,0,0,1,348.5,45.473Zm-7.469,0h-3.74a.622.622,0,0,1,0-1.243h3.74a.618.618,0,0,1,.622.622A.624.624,0,0,1,341.032,45.473Zm-7.469,0h-3.74a.622.622,0,1,1,0-1.243h3.74a.618.618,0,0,1,.622.622A.624.624,0,0,1,333.563,45.473Zm-7.469,0h-3.74a.622.622,0,0,1,0-1.243h3.74a.618.618,0,0,1,.622.622A.624.624,0,0,1,326.093,45.473Zm-7.469,0h-3.74a.622.622,0,0,1,0-1.243h3.74a.618.618,0,0,1,.622.622A.631.631,0,0,1,318.624,45.473Zm-7.469,0h-3.74a.622.622,0,1,1,0-1.243h3.74a.618.618,0,0,1,.622.622A.631.631,0,0,1,311.155,45.473Zm-7.469,0h-3.74a.622.622,0,0,1,0-1.243h3.74a.618.618,0,0,1,.622.622A.631.631,0,0,1,303.686,45.473Zm-7.479,0h-3.74a.622.622,0,1,1,0-1.243h3.74a.622.622,0,0,1,0,1.243Zm-7.469,0H285a.622.622,0,0,1,0-1.243h3.74a.618.618,0,0,1,.622.622A.624.624,0,0,1,288.738,45.473Zm-7.469,0h-3.74a.622.622,0,1,1,0-1.243h3.74a.618.618,0,0,1,.622.622A.624.624,0,0,1,281.269,45.473Zm-7.469,0h-3.74a.622.622,0,0,1,0-1.243h3.74a.618.618,0,0,1,.622.622A.624.624,0,0,1,273.8,45.473Zm-7.469,0h-3.74a.622.622,0,0,1,0-1.243h3.74a.618.618,0,0,1,.622.622A.624.624,0,0,1,266.33,45.473Zm-7.469,0h-3.74a.622.622,0,1,1,0-1.243h3.74a.618.618,0,0,1,.622.622A.624.624,0,0,1,258.861,45.473Z" transform="translate(4.83 0.839)" fill="#2f3978"/>
    <g id="Grupo_1095403" data-name="Grupo 1095403" transform="translate(290.174 73.377)">
      <path id="Trazado_837261" data-name="Trazado 837261" d="M295.295,89.679c-3.821,0-6.695-3.8-6.695-8.835,0-2.843,0-5.788,2.13-7.51a7,7,0,0,1,4.494-1.325h.081c6.7.041,6.695,4.626,6.685,8.315v.52C301.989,85.878,299.116,89.679,295.295,89.679Zm.306-14.785c-1.447,0-2.252.122-2.68.5-1.2,1.039-.948,3.281-.948,5.452,0,3.689,2.364,6.144,3.7,6.144s3.281-2.354,3.281-6.043v-.53c.01-4.453-.3-5.492-3.291-5.513A.152.152,0,0,0,295.6,74.894Z" transform="translate(-284.697 -72.01)" fill="#005afd"/>
      <path id="Trazado_837262" data-name="Trazado 837262" d="M298.2,100.091h-5.961a7.467,7.467,0,0,1-7.469-7.469v-5a7.467,7.467,0,0,1,7.469-7.469H298.2a7.467,7.467,0,0,1,7.469,7.469v5A7.467,7.467,0,0,1,298.2,100.091Z" transform="translate(-284.77 -71.856)" fill="#00c4ff"/>
      <ellipse id="Elipse_11111" data-name="Elipse 11111" cx="3.526" cy="3.383" rx="3.526" ry="3.383" transform="translate(7.204 13.624)" fill="#005afd"/>
      <path id="Trazado_837263" data-name="Trazado 837263" d="M295.661,94.658H295a.989.989,0,0,1-.988-.988V90.918A.989.989,0,0,1,295,89.93h.662a.989.989,0,0,1,.988.988V93.67A1,1,0,0,1,295.661,94.658Z" transform="translate(-284.595 -71.67)" fill="#005afd"/>
    </g>
    <g id="Grupo_1095404" data-name="Grupo 1095404" transform="translate(163.733 9.293)">
      <path id="Trazado_837264" data-name="Trazado 837264" d="M195.061,33.942l-25.984.122c-1.009,0-1.712-1.579-1.376-3.077L165.49,13.2a1.394,1.394,0,0,1,1.488-1.651l14.541.071c.581,0,1.1-.54,1.335-1.365l-.051.234c.234-.836.754-1.365,1.335-1.365H197.68c1.019,0,1.641,1.284,1.365,3.128l-2.629,20.217C196.213,33.351,195.673,33.942,195.061,33.942Z" transform="translate(-160.593 -9.12)" fill="#7c3eff"/>
      <path id="Trazado_837265" data-name="Trazado 837265" d="M189.11,34.007H173.642a6.543,6.543,0,0,1-6.542-6.542V18.722a6.543,6.543,0,0,1,6.542-6.542H189.11a6.543,6.543,0,0,1,6.542,6.542v8.743A6.549,6.549,0,0,1,189.11,34.007Z" transform="translate(-160.562 -9.062)" fill="#fff"/>
      <path id="Trazado_837266" data-name="Trazado 837266" d="M167.752,34.046h26.809a1.96,1.96,0,0,0,1.559-2.629l-3.281-11.239a1.7,1.7,0,0,0-1.559-1.325H182a1.656,1.656,0,0,1-1.5-1.162l-1.4-3.74a1.652,1.652,0,0,0-1.5-1.162H162.331a1.953,1.953,0,0,0-1.539,2.67l5.421,17.323A1.693,1.693,0,0,0,167.752,34.046Z" transform="translate(-160.684 -9.05)" fill="#00c4ff"/>
    </g>
    <g id="Grupo_1095412" data-name="Grupo 1095412" transform="translate(0 6.43)">
      <path id="Trazado_837267" data-name="Trazado 837267" d="M42.186,34.76H4.861A4.866,4.866,0,0,1,0,29.9V11.171A4.866,4.866,0,0,1,4.861,6.31H42.186a4.866,4.866,0,0,1,4.861,4.861V29.9A4.866,4.866,0,0,1,42.186,34.76Z" transform="translate(0 -6.31)" fill="#005afd"/>
      <path id="Trazado_837268" data-name="Trazado 837268" d="M56.592,52.256l-44.224-.122a4.488,4.488,0,0,1-3.954-2.313L1.4,36.859A1.808,1.808,0,0,1,3.075,34.22H44.833a4.158,4.158,0,0,1,3.4,1.753l9.65,13.991A1.485,1.485,0,0,1,56.592,52.256Z" transform="translate(0.023 -5.78)" fill="#005afd"/>
      <path id="Trazado_837269" data-name="Trazado 837269" d="M52.274,50.449l-37.743-.132a3.96,3.96,0,0,1-3.444-1.855L4.973,38.109A1.459,1.459,0,0,1,6.431,36H42.808a3.713,3.713,0,0,1,2.965,1.406l7.6,11.239A1.16,1.16,0,0,1,52.274,50.449Z" transform="translate(0.091 -5.747)" fill="#fff"/>
      <path id="Trazado_837270" data-name="Trazado 837270" d="M36,49.283l-8.835-.031a.912.912,0,0,1-.8-.438l-1.427-2.425a.337.337,0,0,1,.336-.489h8.508a.871.871,0,0,1,.693.326l1.773,2.629C36.394,49.038,36.252,49.283,36,49.283Z" transform="translate(0.472 -5.559)" fill="#2f3978"/>
      <path id="Trazado_837271" data-name="Trazado 837271" d="M16.984,37.916l-9.843-.01a.223.223,0,0,1-.2-.112l-.367-.622c-.031-.061.01-.122.092-.122h9.762a.2.2,0,0,1,.173.082l.459.673A.076.076,0,0,1,16.984,37.916Z" transform="translate(0.124 -5.727)" fill="#2f3978"/>
      <path id="Trazado_837272" data-name="Trazado 837272" d="M29.7,37.916l-9.843-.01a.223.223,0,0,1-.2-.112l-.367-.622c-.031-.061.01-.122.092-.122h9.762a.2.2,0,0,1,.173.082l.459.673A.076.076,0,0,1,29.7,37.916Z" transform="translate(0.366 -5.727)" fill="#2f3978"/>
      <path id="Trazado_837273" data-name="Trazado 837273" d="M43.064,37.916l-9.843-.01a.223.223,0,0,1-.2-.112l-.367-.622c-.031-.061.01-.122.092-.122H42.5a.2.2,0,0,1,.173.082l.459.673A.079.079,0,0,1,43.064,37.916Z" transform="translate(0.619 -5.727)" fill="#2f3978"/>
      <g id="Grupo_1095405" data-name="Grupo 1095405" transform="translate(6.552 32.995)">
        <path id="Trazado_837274" data-name="Trazado 837274" d="M9.232,39.546,7,39.536a.235.235,0,0,1-.2-.112l-.357-.611a.083.083,0,0,1,.082-.122h2.15a.218.218,0,0,1,.173.082l.448.662A.069.069,0,0,1,9.232,39.546Z" transform="translate(-6.43 -38.69)" fill="#2f3978"/>
        <path id="Trazado_837275" data-name="Trazado 837275" d="M12.522,39.546l-2.232-.01a.235.235,0,0,1-.2-.112l-.357-.611a.083.083,0,0,1,.082-.122h2.15a.218.218,0,0,1,.173.082l.448.662A.069.069,0,0,1,12.522,39.546Z" transform="translate(-6.367 -38.69)" fill="#2f3978"/>
        <path id="Trazado_837276" data-name="Trazado 837276" d="M15.812,39.546l-2.232-.01a.235.235,0,0,1-.2-.112l-.357-.611a.083.083,0,0,1,.082-.122h2.15a.218.218,0,0,1,.173.082l.448.662A.069.069,0,0,1,15.812,39.546Z" transform="translate(-6.305 -38.69)" fill="#2f3978"/>
        <path id="Trazado_837277" data-name="Trazado 837277" d="M19.1,39.546l-2.232-.01a.235.235,0,0,1-.2-.112l-.357-.611a.083.083,0,0,1,.082-.122h2.15a.218.218,0,0,1,.173.082l.448.662A.069.069,0,0,1,19.1,39.546Z" transform="translate(-6.243 -38.69)" fill="#2f3978"/>
        <path id="Trazado_837278" data-name="Trazado 837278" d="M22.392,39.546l-2.232-.01a.235.235,0,0,1-.2-.112l-.357-.611a.083.083,0,0,1,.082-.122h2.15a.218.218,0,0,1,.173.082l.448.662A.069.069,0,0,1,22.392,39.546Z" transform="translate(-6.18 -38.69)" fill="#2f3978"/>
        <path id="Trazado_837279" data-name="Trazado 837279" d="M25.682,39.546l-2.232-.01a.235.235,0,0,1-.2-.112l-.357-.611a.083.083,0,0,1,.082-.122h2.15a.218.218,0,0,1,.173.082l.448.662A.069.069,0,0,1,25.682,39.546Z" transform="translate(-6.118 -38.69)" fill="#2f3978"/>
        <path id="Trazado_837280" data-name="Trazado 837280" d="M28.972,39.546l-2.232-.01a.235.235,0,0,1-.2-.112l-.357-.611a.083.083,0,0,1,.082-.122h2.15a.218.218,0,0,1,.173.082l.448.662A.069.069,0,0,1,28.972,39.546Z" transform="translate(-6.055 -38.69)" fill="#2f3978"/>
        <path id="Trazado_837281" data-name="Trazado 837281" d="M32.262,39.546l-2.232-.01a.235.235,0,0,1-.2-.112l-.357-.611a.083.083,0,0,1,.082-.122H31.7a.218.218,0,0,1,.173.082l.448.662A.069.069,0,0,1,32.262,39.546Z" transform="translate(-5.993 -38.69)" fill="#2f3978"/>
        <path id="Trazado_837282" data-name="Trazado 837282" d="M35.552,39.546l-2.232-.01a.235.235,0,0,1-.2-.112l-.357-.611a.083.083,0,0,1,.082-.122h2.15a.218.218,0,0,1,.173.082l.448.662A.069.069,0,0,1,35.552,39.546Z" transform="translate(-5.93 -38.69)" fill="#2f3978"/>
        <path id="Trazado_837283" data-name="Trazado 837283" d="M38.842,39.546l-2.232-.01a.235.235,0,0,1-.2-.112l-.357-.611a.083.083,0,0,1,.082-.122h2.15a.218.218,0,0,1,.173.082l.448.662A.069.069,0,0,1,38.842,39.546Z" transform="translate(-5.868 -38.69)" fill="#2f3978"/>
        <path id="Trazado_837284" data-name="Trazado 837284" d="M42.132,39.546l-2.232-.01a.235.235,0,0,1-.2-.112l-.357-.611a.083.083,0,0,1,.082-.122h2.15a.218.218,0,0,1,.173.082l.448.662C42.234,39.485,42.2,39.546,42.132,39.546Z" transform="translate(-5.806 -38.69)" fill="#2f3978"/>
        <path id="Trazado_837285" data-name="Trazado 837285" d="M45.422,39.546l-2.232-.01a.235.235,0,0,1-.2-.112l-.357-.611a.083.083,0,0,1,.082-.122h2.15a.218.218,0,0,1,.173.082l.448.662C45.524,39.485,45.494,39.546,45.422,39.546Z" transform="translate(-5.743 -38.69)" fill="#2f3978"/>
      </g>
      <g id="Grupo_1095406" data-name="Grupo 1095406" transform="translate(7.357 34.309)">
        <path id="Trazado_837286" data-name="Trazado 837286" d="M10.022,40.836l-2.232-.01a.235.235,0,0,1-.2-.112L7.23,40.1a.083.083,0,0,1,.082-.122h2.15a.218.218,0,0,1,.173.082l.448.662A.069.069,0,0,1,10.022,40.836Z" transform="translate(-7.22 -39.98)" fill="#2f3978"/>
        <path id="Trazado_837287" data-name="Trazado 837287" d="M13.312,40.836l-2.232-.01a.235.235,0,0,1-.2-.112L10.52,40.1a.083.083,0,0,1,.082-.122h2.15a.218.218,0,0,1,.173.082l.448.662A.069.069,0,0,1,13.312,40.836Z" transform="translate(-7.157 -39.98)" fill="#2f3978"/>
        <path id="Trazado_837288" data-name="Trazado 837288" d="M16.6,40.836l-2.232-.01a.235.235,0,0,1-.2-.112L13.81,40.1a.083.083,0,0,1,.082-.122h2.15a.218.218,0,0,1,.173.082l.448.662A.069.069,0,0,1,16.6,40.836Z" transform="translate(-7.095 -39.98)" fill="#2f3978"/>
        <path id="Trazado_837289" data-name="Trazado 837289" d="M19.892,40.836l-2.232-.01a.235.235,0,0,1-.2-.112L17.1,40.1a.083.083,0,0,1,.082-.122h2.15a.218.218,0,0,1,.173.082l.448.662A.069.069,0,0,1,19.892,40.836Z" transform="translate(-7.033 -39.98)" fill="#2f3978"/>
        <path id="Trazado_837290" data-name="Trazado 837290" d="M23.182,40.836l-2.232-.01a.235.235,0,0,1-.2-.112L20.39,40.1a.083.083,0,0,1,.082-.122h2.15a.218.218,0,0,1,.173.082l.448.662A.069.069,0,0,1,23.182,40.836Z" transform="translate(-6.97 -39.98)" fill="#2f3978"/>
        <path id="Trazado_837291" data-name="Trazado 837291" d="M26.472,40.836l-2.232-.01a.235.235,0,0,1-.2-.112L23.68,40.1a.083.083,0,0,1,.082-.122h2.15a.218.218,0,0,1,.173.082l.448.662A.069.069,0,0,1,26.472,40.836Z" transform="translate(-6.908 -39.98)" fill="#2f3978"/>
        <path id="Trazado_837292" data-name="Trazado 837292" d="M29.762,40.836l-2.232-.01a.235.235,0,0,1-.2-.112L26.97,40.1a.083.083,0,0,1,.082-.122H29.2a.218.218,0,0,1,.173.082l.448.662A.069.069,0,0,1,29.762,40.836Z" transform="translate(-6.845 -39.98)" fill="#2f3978"/>
        <path id="Trazado_837293" data-name="Trazado 837293" d="M33.052,40.836l-2.232-.01a.235.235,0,0,1-.2-.112L30.26,40.1a.083.083,0,0,1,.082-.122h2.15a.218.218,0,0,1,.173.082l.448.662C33.154,40.775,33.124,40.836,33.052,40.836Z" transform="translate(-6.783 -39.98)" fill="#2f3978"/>
        <path id="Trazado_837294" data-name="Trazado 837294" d="M36.342,40.836l-2.232-.01a.235.235,0,0,1-.2-.112L33.55,40.1a.083.083,0,0,1,.082-.122h2.15a.218.218,0,0,1,.173.082l.448.662C36.444,40.775,36.414,40.836,36.342,40.836Z" transform="translate(-6.72 -39.98)" fill="#2f3978"/>
        <path id="Trazado_837295" data-name="Trazado 837295" d="M39.632,40.836l-2.232-.01a.235.235,0,0,1-.2-.112L36.84,40.1a.083.083,0,0,1,.082-.122h2.15a.218.218,0,0,1,.173.082l.448.662C39.734,40.775,39.7,40.836,39.632,40.836Z" transform="translate(-6.658 -39.98)" fill="#2f3978"/>
        <path id="Trazado_837296" data-name="Trazado 837296" d="M42.922,40.836l-2.232-.01a.235.235,0,0,1-.2-.112L40.13,40.1a.083.083,0,0,1,.082-.122h2.15a.218.218,0,0,1,.173.082l.448.662C43.024,40.775,42.994,40.836,42.922,40.836Z" transform="translate(-6.596 -39.98)" fill="#2f3978"/>
        <path id="Trazado_837297" data-name="Trazado 837297" d="M46.222,40.836l-2.232-.01a.235.235,0,0,1-.2-.112L43.43,40.1a.083.083,0,0,1,.082-.122h2.15a.218.218,0,0,1,.173.082l.448.662A.071.071,0,0,1,46.222,40.836Z" transform="translate(-6.533 -39.98)" fill="#2f3978"/>
      </g>
      <g id="Grupo_1095407" data-name="Grupo 1095407" transform="translate(8.162 35.613)">
        <path id="Trazado_837298" data-name="Trazado 837298" d="M10.812,42.116l-2.232-.01a.235.235,0,0,1-.2-.112l-.357-.611A.083.083,0,0,1,8.1,41.26h2.15a.218.218,0,0,1,.173.082l.448.673C10.914,42.055,10.873,42.116,10.812,42.116Z" transform="translate(-8.01 -41.26)" fill="#2f3978"/>
        <path id="Trazado_837299" data-name="Trazado 837299" d="M14.1,42.116l-2.232-.01a.235.235,0,0,1-.2-.112l-.357-.611a.083.083,0,0,1,.082-.122h2.15a.218.218,0,0,1,.173.082l.448.673C14.2,42.055,14.163,42.116,14.1,42.116Z" transform="translate(-7.947 -41.26)" fill="#2f3978"/>
        <path id="Trazado_837300" data-name="Trazado 837300" d="M17.392,42.116l-2.232-.01a.235.235,0,0,1-.2-.112l-.357-.611a.083.083,0,0,1,.082-.122h2.15a.218.218,0,0,1,.173.082l.459.673C17.494,42.055,17.453,42.116,17.392,42.116Z" transform="translate(-7.885 -41.26)" fill="#2f3978"/>
        <path id="Trazado_837301" data-name="Trazado 837301" d="M20.682,42.116l-2.232-.01a.235.235,0,0,1-.2-.112l-.357-.611a.083.083,0,0,1,.082-.122h2.15a.218.218,0,0,1,.173.082l.459.673C20.784,42.055,20.743,42.116,20.682,42.116Z" transform="translate(-7.823 -41.26)" fill="#2f3978"/>
        <path id="Trazado_837302" data-name="Trazado 837302" d="M23.972,42.116l-2.232-.01a.235.235,0,0,1-.2-.112l-.357-.611a.083.083,0,0,1,.082-.122h2.15a.218.218,0,0,1,.173.082l.459.673C24.074,42.055,24.044,42.116,23.972,42.116Z" transform="translate(-7.76 -41.26)" fill="#2f3978"/>
        <path id="Trazado_837303" data-name="Trazado 837303" d="M27.262,42.116l-2.232-.01a.235.235,0,0,1-.2-.112l-.357-.611a.083.083,0,0,1,.082-.122H26.7a.218.218,0,0,1,.173.082l.459.673C27.364,42.055,27.334,42.116,27.262,42.116Z" transform="translate(-7.698 -41.26)" fill="#2f3978"/>
        <path id="Trazado_837304" data-name="Trazado 837304" d="M30.552,42.116l-2.232-.01a.235.235,0,0,1-.2-.112l-.357-.611a.083.083,0,0,1,.082-.122h2.15a.218.218,0,0,1,.173.082l.459.673C30.654,42.055,30.624,42.116,30.552,42.116Z" transform="translate(-7.635 -41.26)" fill="#2f3978"/>
        <path id="Trazado_837305" data-name="Trazado 837305" d="M33.842,42.116l-2.232-.01a.235.235,0,0,1-.2-.112l-.357-.611a.083.083,0,0,1,.082-.122h2.15a.218.218,0,0,1,.173.082l.459.673C33.944,42.055,33.914,42.116,33.842,42.116Z" transform="translate(-7.573 -41.26)" fill="#2f3978"/>
        <path id="Trazado_837306" data-name="Trazado 837306" d="M37.142,42.116l-2.232-.01a.235.235,0,0,1-.2-.112l-.357-.611a.083.083,0,0,1,.082-.122h2.15a.218.218,0,0,1,.173.082l.448.673A.066.066,0,0,1,37.142,42.116Z" transform="translate(-7.51 -41.26)" fill="#2f3978"/>
        <path id="Trazado_837307" data-name="Trazado 837307" d="M40.432,42.116l-2.232-.01a.235.235,0,0,1-.2-.112l-.357-.611a.083.083,0,0,1,.082-.122h2.15a.218.218,0,0,1,.173.082l.448.673A.066.066,0,0,1,40.432,42.116Z" transform="translate(-7.448 -41.26)" fill="#2f3978"/>
        <path id="Trazado_837308" data-name="Trazado 837308" d="M43.722,42.116l-2.232-.01a.235.235,0,0,1-.2-.112l-.357-.611a.083.083,0,0,1,.082-.122h2.15a.218.218,0,0,1,.173.082l.448.673A.066.066,0,0,1,43.722,42.116Z" transform="translate(-7.385 -41.26)" fill="#2f3978"/>
        <path id="Trazado_837309" data-name="Trazado 837309" d="M47.012,42.116l-2.232-.01a.235.235,0,0,1-.2-.112l-.357-.611a.083.083,0,0,1,.082-.122h2.15a.218.218,0,0,1,.173.082l.448.673A.066.066,0,0,1,47.012,42.116Z" transform="translate(-7.323 -41.26)" fill="#2f3978"/>
      </g>
      <g id="Grupo_1095408" data-name="Grupo 1095408" transform="translate(8.967 36.918)">
        <path id="Trazado_837310" data-name="Trazado 837310" d="M11.6,43.4l-2.232-.01a.235.235,0,0,1-.2-.112l-.357-.611a.083.083,0,0,1,.082-.122h2.15a.218.218,0,0,1,.173.082l.448.662A.069.069,0,0,1,11.6,43.4Z" transform="translate(-8.8 -42.54)" fill="#2f3978"/>
        <path id="Trazado_837311" data-name="Trazado 837311" d="M14.892,43.4l-2.232-.01a.235.235,0,0,1-.2-.112l-.357-.611a.083.083,0,0,1,.082-.122h2.15a.218.218,0,0,1,.173.082l.448.662C14.994,43.335,14.964,43.4,14.892,43.4Z" transform="translate(-8.737 -42.54)" fill="#2f3978"/>
        <path id="Trazado_837312" data-name="Trazado 837312" d="M18.182,43.4l-2.232-.01a.235.235,0,0,1-.2-.112l-.357-.611a.083.083,0,0,1,.082-.122h2.15a.218.218,0,0,1,.173.082l.448.662C18.284,43.335,18.254,43.4,18.182,43.4Z" transform="translate(-8.675 -42.54)" fill="#2f3978"/>
        <path id="Trazado_837313" data-name="Trazado 837313" d="M21.472,43.4l-2.232-.01a.235.235,0,0,1-.2-.112l-.357-.611a.083.083,0,0,1,.082-.122h2.15a.218.218,0,0,1,.173.082l.448.662C21.574,43.335,21.544,43.4,21.472,43.4Z" transform="translate(-8.613 -42.54)" fill="#2f3978"/>
        <path id="Trazado_837314" data-name="Trazado 837314" d="M24.762,43.4l-2.232-.01a.235.235,0,0,1-.2-.112l-.357-.611a.083.083,0,0,1,.082-.122H24.2a.218.218,0,0,1,.173.082l.448.662C24.864,43.335,24.834,43.4,24.762,43.4Z" transform="translate(-8.55 -42.54)" fill="#2f3978"/>
        <path id="Trazado_837315" data-name="Trazado 837315" d="M28.062,43.4l-2.232-.01a.235.235,0,0,1-.2-.112l-.357-.611a.083.083,0,0,1,.082-.122H27.5a.218.218,0,0,1,.173.082l.448.662A.071.071,0,0,1,28.062,43.4Z" transform="translate(-8.488 -42.54)" fill="#2f3978"/>
        <path id="Trazado_837316" data-name="Trazado 837316" d="M31.352,43.4l-2.232-.01a.235.235,0,0,1-.2-.112l-.357-.611a.083.083,0,0,1,.082-.122h2.15a.218.218,0,0,1,.173.082l.448.662A.071.071,0,0,1,31.352,43.4Z" transform="translate(-8.425 -42.54)" fill="#2f3978"/>
        <path id="Trazado_837317" data-name="Trazado 837317" d="M34.642,43.4l-2.232-.01a.235.235,0,0,1-.2-.112l-.357-.611a.083.083,0,0,1,.082-.122h2.15a.218.218,0,0,1,.173.082l.448.662A.071.071,0,0,1,34.642,43.4Z" transform="translate(-8.363 -42.54)" fill="#2f3978"/>
        <path id="Trazado_837318" data-name="Trazado 837318" d="M37.932,43.4l-2.232-.01a.235.235,0,0,1-.2-.112l-.357-.611a.083.083,0,0,1,.082-.122h2.15a.218.218,0,0,1,.173.082l.448.662A.071.071,0,0,1,37.932,43.4Z" transform="translate(-8.3 -42.54)" fill="#2f3978"/>
        <path id="Trazado_837319" data-name="Trazado 837319" d="M41.222,43.4l-2.232-.01a.235.235,0,0,1-.2-.112l-.357-.611a.083.083,0,0,1,.082-.122h2.15a.218.218,0,0,1,.173.082l.448.662A.069.069,0,0,1,41.222,43.4Z" transform="translate(-8.238 -42.54)" fill="#2f3978"/>
        <path id="Trazado_837320" data-name="Trazado 837320" d="M44.512,43.4l-2.232-.01a.235.235,0,0,1-.2-.112l-.357-.611a.083.083,0,0,1,.082-.122h2.15a.218.218,0,0,1,.173.082l.448.662A.069.069,0,0,1,44.512,43.4Z" transform="translate(-8.175 -42.54)" fill="#2f3978"/>
        <path id="Trazado_837321" data-name="Trazado 837321" d="M47.8,43.4l-2.232-.01a.235.235,0,0,1-.2-.112l-.367-.6a.083.083,0,0,1,.082-.122h2.15a.218.218,0,0,1,.173.082l.448.662C47.9,43.335,47.864,43.4,47.8,43.4Z" transform="translate(-8.113 -42.54)" fill="#2f3978"/>
      </g>
      <g id="Grupo_1095409" data-name="Grupo 1095409" transform="translate(9.802 38.232)">
        <path id="Trazado_837322" data-name="Trazado 837322" d="M12.422,44.686l-2.232-.01a.235.235,0,0,1-.2-.112l-.357-.611a.083.083,0,0,1,.082-.122h2.15a.218.218,0,0,1,.173.082l.448.662C12.524,44.625,12.494,44.686,12.422,44.686Z" transform="translate(-9.62 -43.83)" fill="#2f3978"/>
        <path id="Trazado_837323" data-name="Trazado 837323" d="M15.712,44.686l-2.232-.01a.235.235,0,0,1-.2-.112l-.357-.611A.083.083,0,0,1,13,43.83h2.15a.218.218,0,0,1,.173.082l.448.662C15.814,44.625,15.784,44.686,15.712,44.686Z" transform="translate(-9.557 -43.83)" fill="#2f3978"/>
        <path id="Trazado_837324" data-name="Trazado 837324" d="M19.012,44.686l-2.232-.01a.235.235,0,0,1-.2-.112l-.357-.611a.083.083,0,0,1,.082-.122h2.15a.218.218,0,0,1,.173.082l.448.662A.071.071,0,0,1,19.012,44.686Z" transform="translate(-9.495 -43.83)" fill="#2f3978"/>
        <path id="Trazado_837325" data-name="Trazado 837325" d="M22.3,44.686l-2.232-.01a.235.235,0,0,1-.2-.112l-.357-.611a.083.083,0,0,1,.082-.122h2.15a.218.218,0,0,1,.173.082l.448.662A.071.071,0,0,1,22.3,44.686Z" transform="translate(-9.432 -43.83)" fill="#2f3978"/>
        <path id="Trazado_837326" data-name="Trazado 837326" d="M25.592,44.686l-2.232-.01a.235.235,0,0,1-.2-.112l-.357-.611a.083.083,0,0,1,.082-.122h2.15a.218.218,0,0,1,.173.082l.448.662A.071.071,0,0,1,25.592,44.686Z" transform="translate(-9.37 -43.83)" fill="#2f3978"/>
        <path id="Trazado_837327" data-name="Trazado 837327" d="M28.882,44.686l-2.232-.01a.235.235,0,0,1-.2-.112l-.357-.611a.083.083,0,0,1,.082-.122h2.15a.218.218,0,0,1,.173.082l.448.662A.071.071,0,0,1,28.882,44.686Z" transform="translate(-9.308 -43.83)" fill="#2f3978"/>
        <path id="Trazado_837328" data-name="Trazado 837328" d="M32.172,44.686l-2.232-.01a.235.235,0,0,1-.2-.112l-.357-.611a.083.083,0,0,1,.082-.122h2.15a.218.218,0,0,1,.173.082l.448.662A.071.071,0,0,1,32.172,44.686Z" transform="translate(-9.245 -43.83)" fill="#2f3978"/>
        <path id="Trazado_837329" data-name="Trazado 837329" d="M35.462,44.686l-2.232-.01a.235.235,0,0,1-.2-.112l-.357-.611a.083.083,0,0,1,.082-.122H34.9a.218.218,0,0,1,.173.082l.448.662A.069.069,0,0,1,35.462,44.686Z" transform="translate(-9.183 -43.83)" fill="#2f3978"/>
        <path id="Trazado_837330" data-name="Trazado 837330" d="M38.752,44.686l-2.232-.01a.235.235,0,0,1-.2-.112l-.357-.611a.083.083,0,0,1,.082-.122h2.15a.218.218,0,0,1,.173.082l.448.662A.069.069,0,0,1,38.752,44.686Z" transform="translate(-9.12 -43.83)" fill="#2f3978"/>
        <path id="Trazado_837331" data-name="Trazado 837331" d="M42.042,44.686l-2.232-.01a.235.235,0,0,1-.2-.112l-.357-.611a.083.083,0,0,1,.082-.122h2.15a.218.218,0,0,1,.173.082l.448.662A.069.069,0,0,1,42.042,44.686Z" transform="translate(-9.058 -43.83)" fill="#2f3978"/>
        <path id="Trazado_837332" data-name="Trazado 837332" d="M45.332,44.686l-2.232-.01a.235.235,0,0,1-.2-.112l-.357-.611a.083.083,0,0,1,.082-.122h2.15a.218.218,0,0,1,.173.082l.448.662A.069.069,0,0,1,45.332,44.686Z" transform="translate(-8.995 -43.83)" fill="#2f3978"/>
        <path id="Trazado_837333" data-name="Trazado 837333" d="M48.622,44.686l-2.232-.01a.235.235,0,0,1-.2-.112l-.357-.611a.083.083,0,0,1,.082-.122h2.15a.218.218,0,0,1,.173.082l.448.662A.069.069,0,0,1,48.622,44.686Z" transform="translate(-8.933 -43.83)" fill="#2f3978"/>
      </g>
      <path id="Trazado_837334" data-name="Trazado 837334" d="M41.537,32.478H5.394A2.37,2.37,0,0,1,3.02,30.1V11.324A2.37,2.37,0,0,1,5.394,8.95H41.537a2.37,2.37,0,0,1,2.374,2.374V30.1A2.377,2.377,0,0,1,41.537,32.478Z" transform="translate(0.057 -6.26)" fill="#fff"/>
      <g id="Grupo_1095410" data-name="Grupo 1095410" transform="translate(5.666 5.482)">
        <path id="Trazado_837335" data-name="Trazado 837335" d="M22.129,15.593H7.374A1.818,1.818,0,0,1,5.56,13.779V13.5A1.818,1.818,0,0,1,7.374,11.69H22.129A1.818,1.818,0,0,1,23.942,13.5v.275A1.811,1.811,0,0,1,22.129,15.593Z" transform="translate(-5.56 -11.69)" fill="#2f3978"/>
        <path id="Trazado_837336" data-name="Trazado 837336" d="M12.652,29.83h-4.8A2.3,2.3,0,0,1,5.56,27.537V23.013A2.3,2.3,0,0,1,7.853,20.72h4.8a2.3,2.3,0,0,1,2.293,2.293v4.524A2.29,2.29,0,0,1,12.652,29.83Z" transform="translate(-5.56 -11.519)" fill="#00c4ff"/>
        <path id="Trazado_837337" data-name="Trazado 837337" d="M23.229,18.839H6.273a.709.709,0,0,1-.713-.713v-.112a.709.709,0,0,1,.713-.713H23.229a.709.709,0,0,1,.713.713v.1A.718.718,0,0,1,23.229,18.839Z" transform="translate(-5.56 -11.584)" fill="#2f3978"/>
        <path id="Trazado_837338" data-name="Trazado 837338" d="M23.388,21.454H16.317a.361.361,0,0,1-.357-.357v-.051a.361.361,0,0,1,.357-.357h7.072a.361.361,0,0,1,.357.357V21.1A.354.354,0,0,1,23.388,21.454Z" transform="translate(-5.363 -11.519)" fill="#2f3978"/>
        <path id="Trazado_837339" data-name="Trazado 837339" d="M23.388,22.824H16.317a.361.361,0,0,1-.357-.357v-.051a.361.361,0,0,1,.357-.357h7.072a.361.361,0,0,1,.357.357v.051A.354.354,0,0,1,23.388,22.824Z" transform="translate(-5.363 -11.493)" fill="#2f3978"/>
        <path id="Trazado_837340" data-name="Trazado 837340" d="M23.388,24.2H16.317a.361.361,0,0,1-.357-.357V23.8a.361.361,0,0,1,.357-.357h7.072a.361.361,0,0,1,.357.357v.051A.354.354,0,0,1,23.388,24.2Z" transform="translate(-5.363 -11.467)" fill="#2f3978"/>
        <path id="Trazado_837341" data-name="Trazado 837341" d="M23.388,25.574H16.317a.361.361,0,0,1-.357-.357v-.051a.361.361,0,0,1,.357-.357h7.072a.361.361,0,0,1,.357.357v.051A.354.354,0,0,1,23.388,25.574Z" transform="translate(-5.363 -11.441)" fill="#2f3978"/>
        <path id="Trazado_837342" data-name="Trazado 837342" d="M23.388,26.954H16.317a.361.361,0,0,1-.357-.357v-.051a.361.361,0,0,1,.357-.357h7.072a.361.361,0,0,1,.357.357V26.6A.354.354,0,0,1,23.388,26.954Z" transform="translate(-5.363 -11.415)" fill="#2f3978"/>
        <path id="Trazado_837343" data-name="Trazado 837343" d="M23.388,28.324H16.317a.361.361,0,0,1-.357-.357v-.051a.361.361,0,0,1,.357-.357h7.072a.361.361,0,0,1,.357.357v.051A.354.354,0,0,1,23.388,28.324Z" transform="translate(-5.363 -11.389)" fill="#2f3978"/>
        <path id="Trazado_837344" data-name="Trazado 837344" d="M23.388,29.7H16.317a.361.361,0,0,1-.357-.357V29.3a.361.361,0,0,1,.357-.357h7.072a.361.361,0,0,1,.357.357v.051A.354.354,0,0,1,23.388,29.7Z" transform="translate(-5.363 -11.363)" fill="#2f3978"/>
      </g>
      <g id="Grupo_1095411" data-name="Grupo 1095411" transform="translate(27.686 5.482)">
        <path id="Trazado_837345" data-name="Trazado 837345" d="M37.543,15.593H28.984a1.818,1.818,0,0,1-1.814-1.814V13.5a1.818,1.818,0,0,1,1.814-1.814h8.559A1.818,1.818,0,0,1,39.357,13.5v.275A1.8,1.8,0,0,1,37.543,15.593Z" transform="translate(-27.17 -11.69)" fill="#a6c5fe"/>
        <path id="Trazado_837346" data-name="Trazado 837346" d="M37.81,20.367H35.487a1.431,1.431,0,0,1-1.427-1.427v-.214A1.431,1.431,0,0,1,35.487,17.3H37.81a1.431,1.431,0,0,1,1.427,1.427v.214A1.431,1.431,0,0,1,37.81,20.367Z" transform="translate(-27.039 -11.584)" fill="#00c4ff"/>
        <path id="Trazado_837347" data-name="Trazado 837347" d="M31.16,20.367H28.827A1.431,1.431,0,0,1,27.4,18.941v-.214A1.431,1.431,0,0,1,28.827,17.3H31.15a1.431,1.431,0,0,1,1.427,1.427v.214A1.416,1.416,0,0,1,31.16,20.367Z" transform="translate(-27.166 -11.584)" fill="#00c4ff"/>
        <path id="Trazado_837348" data-name="Trazado 837348" d="M37.81,25.077H35.487a1.431,1.431,0,0,1-1.427-1.427v-.214a1.431,1.431,0,0,1,1.427-1.427H37.81a1.431,1.431,0,0,1,1.427,1.427v.214A1.431,1.431,0,0,1,37.81,25.077Z" transform="translate(-27.039 -11.494)" fill="#2f3978"/>
        <path id="Trazado_837349" data-name="Trazado 837349" d="M31.16,25.077H28.827A1.431,1.431,0,0,1,27.4,23.651v-.214a1.431,1.431,0,0,1,1.427-1.427H31.15a1.431,1.431,0,0,1,1.427,1.427v.214A1.416,1.416,0,0,1,31.16,25.077Z" transform="translate(-27.166 -11.494)" fill="#2f3978"/>
        <path id="Trazado_837350" data-name="Trazado 837350" d="M37.81,29.777H35.487a1.431,1.431,0,0,1-1.427-1.427v-.214a1.431,1.431,0,0,1,1.427-1.427H37.81a1.431,1.431,0,0,1,1.427,1.427v.214A1.431,1.431,0,0,1,37.81,29.777Z" transform="translate(-27.039 -11.405)" fill="#2f3978"/>
        <path id="Trazado_837351" data-name="Trazado 837351" d="M31.16,29.777H28.827A1.431,1.431,0,0,1,27.4,28.351v-.214a1.431,1.431,0,0,1,1.427-1.427H31.15a1.431,1.431,0,0,1,1.427,1.427v.214A1.416,1.416,0,0,1,31.16,29.777Z" transform="translate(-27.166 -11.405)" fill="#2f3978"/>
      </g>
    </g>
    <g id="Grupo_1095414" data-name="Grupo 1095414" transform="translate(28.725 63.396)">
      <path id="Trazado_837352" data-name="Trazado 837352" d="M60.767,96.59H31.023A2.778,2.778,0,0,1,28.19,93.87V75.324a1.376,1.376,0,0,1,.53-1.08L43.281,62.781a2.661,2.661,0,0,1,3.24-.031L61.663,74.244a1.385,1.385,0,0,1,.55,1.09v19.85A1.412,1.412,0,0,1,60.767,96.59Z" transform="translate(-28.19 -62.215)" fill="#a6c5fe"/>
      <rect id="Rect치ngulo_387473" data-name="Rect치ngulo 387473" width="23.518" height="25.25" transform="translate(5.258 4.346)" fill="#ff2c60"/>
      <g id="Grupo_1095413" data-name="Grupo 1095413" transform="translate(10.903 6.618)">
        <path id="Trazado_837353" data-name="Trazado 837353" d="M47.786,80.275a.238.238,0,0,1-.122.3,7.112,7.112,0,0,1-3.118.622A5.442,5.442,0,0,1,38.89,75.6a6.68,6.68,0,0,1,6.817-6.888A5.086,5.086,0,0,1,51.138,73.9c0,2.69-1.569,4.27-3.322,4.27a1.357,1.357,0,0,1-1.386-1.579c0-.041-.051-.051-.071,0a2.94,2.94,0,0,1-2.629,1.579A2.071,2.071,0,0,1,41.713,75.9a4.325,4.325,0,0,1,4.422-4.249h.1a1.62,1.62,0,0,1,1.6,1.905L47.5,75.282c-.275,1.365-.051,1.987.56,2.007.948.02,2.018-1.2,2.018-3.281a4.189,4.189,0,0,0-4.524-4.463,5.6,5.6,0,0,0-5.6,5.951,4.567,4.567,0,0,0,4.8,4.84,6.144,6.144,0,0,0,2.527-.489.306.306,0,0,1,.408.153Zm-1.1-6.756a.776.776,0,0,0-.764-.917h-.01a3.148,3.148,0,0,0-2.965,3.414,1.218,1.218,0,0,0,.825,1.111c1.233.387,2.446-1.131,2.68-2.374Z" transform="translate(-38.89 -68.71)" fill="#fff"/>
      </g>
      <path id="Trazado_837354" data-name="Trazado 837354" d="M60.807,96.352H29.749a1.534,1.534,0,0,1-1.559-1.5V75.433a.557.557,0,0,1,.866-.438l16.151,10.74L61.633,74.821a.379.379,0,0,1,.591.3v19.87A1.4,1.4,0,0,1,60.807,96.352Z" transform="translate(-28.19 -61.977)" fill="#00c4ff"/>
      <path id="Trazado_837355" data-name="Trazado 837355" d="M29.359,96.219h31.69a.44.44,0,0,0,.316-.764L46.834,82.381a2.375,2.375,0,0,0-3.138-.01L29.043,95.444A.446.446,0,0,0,29.359,96.219Z" transform="translate(-28.177 -61.844)" fill="#a6eaff"/>
    </g>
    <g id="Grupo_1095415" data-name="Grupo 1095415" transform="translate(297.664)">
      <path id="Trazado_837356" data-name="Trazado 837356" d="M311.939,14H299.12a7.006,7.006,0,0,1-7-7h0a7.006,7.006,0,0,1,7-7h12.819a7.006,7.006,0,0,1,7,7h0A7.006,7.006,0,0,1,311.939,14Z" transform="translate(-292.12)" fill="#7c3eff"/>
      <ellipse id="Elipse_11112" data-name="Elipse 11112" cx="1.895" cy="1.824" rx="1.895" ry="1.824" transform="translate(6.267 5.034)" fill="#a6eaff"/>
      <ellipse id="Elipse_11113" data-name="Elipse 11113" cx="1.895" cy="1.824" rx="1.895" ry="1.824" transform="translate(11.586 5.034)" fill="#a6eaff"/>
      <ellipse id="Elipse_11114" data-name="Elipse 11114" cx="1.895" cy="1.824" rx="1.895" ry="1.824" transform="translate(16.905 5.034)" fill="#a6eaff"/>
      <path id="Trazado_837357" data-name="Trazado 837357" d="M314.893,11.58c-.143.459.081,4.769.061,6.369a.389.389,0,0,1-.713.194l-4.32-6.562Z" transform="translate(-291.782 0.22)" fill="#7c3eff"/>
    </g>
    <g id="Grupo_1095420" data-name="Grupo 1095420" transform="translate(308.598 24.568)">
      <rect id="Rect치ngulo_387474" data-name="Rect치ngulo 387474" width="20.471" height="21.123" transform="translate(35.471 46.71)" fill="#005afd"/>
      <path id="Trazado_837358" data-name="Trazado 837358" d="M365.666,91.839H330.481a2.187,2.187,0,0,1-2.191-2.191V88.181a2.187,2.187,0,0,1,2.191-2.191h35.185a2.187,2.187,0,0,1,2.191,2.191v1.467A2.194,2.194,0,0,1,365.666,91.839Z" transform="translate(-302.367 -22.936)" fill="#005afd"/>
      <path id="Trazado_837359" data-name="Trazado 837359" d="M382.33,79.39H314.782A11.935,11.935,0,0,1,302.85,67.457V36.042A11.935,11.935,0,0,1,314.782,24.11H382.32a11.935,11.935,0,0,1,11.932,11.932V67.468A11.924,11.924,0,0,1,382.33,79.39Z" transform="translate(-302.85 -24.11)" fill="#005afd"/>
      <path id="Trazado_837360" data-name="Trazado 837360" d="M380.12,74.961H316.78a8.054,8.054,0,0,1-8.05-8.05V37.31a8.054,8.054,0,0,1,8.05-8.05h63.34a8.054,8.054,0,0,1,8.05,8.05V66.9A8.056,8.056,0,0,1,380.12,74.961Z" transform="translate(-302.738 -24.012)" fill="#fff"/>
      <path id="Trazado_837361" data-name="Trazado 837361" d="M379.574,41.253h-16.8a2.209,2.209,0,0,1-2.211-2.211V35.251a2.209,2.209,0,0,1,2.211-2.211h16.8a2.209,2.209,0,0,1,2.211,2.211v3.791A2.209,2.209,0,0,1,379.574,41.253Z" transform="translate(-301.755 -23.941)" fill="#005afd"/>
      <path id="Trazado_837362" data-name="Trazado 837362" d="M380.573,48.06h-18.81a1.2,1.2,0,0,1-1.2-1.2v-.8a1.2,1.2,0,0,1,1.2-1.2h18.81a1.2,1.2,0,0,1,1.2,1.2v.8A1.192,1.192,0,0,1,380.573,48.06Z" transform="translate(-301.755 -23.716)" fill="#2f3978"/>
      <path id="Trazado_837363" data-name="Trazado 837363" d="M356.184,41.253h-16.8a2.209,2.209,0,0,1-2.211-2.211V35.251a2.209,2.209,0,0,1,2.211-2.211h16.8a2.209,2.209,0,0,1,2.211,2.211v3.791A2.209,2.209,0,0,1,356.184,41.253Z" transform="translate(-302.199 -23.941)" fill="#a6c5fe"/>
      <path id="Trazado_837364" data-name="Trazado 837364" d="M357.624,48.06h-42.5a1.2,1.2,0,0,1-1.2-1.2v-.8a1.2,1.2,0,0,1,1.2-1.2h42.5a1.2,1.2,0,0,1,1.2,1.2v.8A1.192,1.192,0,0,1,357.624,48.06Z" transform="translate(-302.64 -23.716)" fill="#2f3978"/>
      <path id="Trazado_837365" data-name="Trazado 837365" d="M382.11,68.556H314.43a.522.522,0,0,1-.52-.52V67.69a.522.522,0,0,1,.52-.52H382.11a.5.5,0,0,1,.509.509v.346A.5.5,0,0,1,382.11,68.556Z" transform="translate(-302.64 -23.293)" fill="#2f3978"/>
      <path id="Trazado_837366" data-name="Trazado 837366" d="M382.11,70.826H314.43a.522.522,0,0,1-.52-.52V69.96a.522.522,0,0,1,.52-.52H382.11a.5.5,0,0,1,.509.509V70.3A.509.509,0,0,1,382.11,70.826Z" transform="translate(-302.64 -23.25)" fill="#2f3978"/>
      <path id="Trazado_837367" data-name="Trazado 837367" d="M332.794,41.253h-16.8a2.209,2.209,0,0,1-2.211-2.211V35.251a2.209,2.209,0,0,1,2.211-2.211h16.8a2.209,2.209,0,0,1,2.211,2.211v3.791A2.209,2.209,0,0,1,332.794,41.253Z" transform="translate(-302.643 -23.941)" fill="#a6eaff"/>
      <g id="Grupo_1095419" data-name="Grupo 1095419" transform="translate(11.137 26.616)">
        <path id="Trazado_837368" data-name="Trazado 837368" d="M369.109,66.369h-6.246a2.3,2.3,0,0,1-2.293-2.293V52.6a2.3,2.3,0,0,1,2.293-2.293h6.246A2.3,2.3,0,0,1,371.4,52.6V64.066A2.3,2.3,0,0,1,369.109,66.369Z" transform="translate(-312.892 -50.228)" fill="#00c4ff"/>
        <g id="Grupo_1095416" data-name="Grupo 1095416" transform="translate(59.906)">
          <path id="Trazado_837369" data-name="Trazado 837369" d="M381.048,51.6h-7.968a.5.5,0,0,1-.509-.509v-.346a.5.5,0,0,1,.509-.509h7.968a.5.5,0,0,1,.509.509v.346A.511.511,0,0,1,381.048,51.6Z" transform="translate(-372.57 -50.23)" fill="#2f3978"/>
          <path id="Trazado_837370" data-name="Trazado 837370" d="M381.048,54.015h-7.968a.5.5,0,0,1-.509-.509v-.346a.5.5,0,0,1,.509-.509h7.968a.5.5,0,0,1,.509.509v.346A.511.511,0,0,1,381.048,54.015Z" transform="translate(-372.57 -50.184)" fill="#2f3978"/>
          <path id="Trazado_837371" data-name="Trazado 837371" d="M381.048,56.445h-7.968a.5.5,0,0,1-.509-.509v-.346a.5.5,0,0,1,.509-.509h7.968a.5.5,0,0,1,.509.509v.346A.518.518,0,0,1,381.048,56.445Z" transform="translate(-372.57 -50.138)" fill="#2f3978"/>
          <path id="Trazado_837372" data-name="Trazado 837372" d="M381.048,58.865h-7.968a.5.5,0,0,1-.509-.509v-.346a.5.5,0,0,1,.509-.509h7.968a.5.5,0,0,1,.509.509v.346A.518.518,0,0,1,381.048,58.865Z" transform="translate(-372.57 -50.092)" fill="#2f3978"/>
          <path id="Trazado_837373" data-name="Trazado 837373" d="M381.048,61.285h-7.968a.5.5,0,0,1-.509-.509v-.346a.5.5,0,0,1,.509-.509h7.968a.5.5,0,0,1,.509.509v.346A.511.511,0,0,1,381.048,61.285Z" transform="translate(-372.57 -50.046)" fill="#2f3978"/>
          <path id="Trazado_837374" data-name="Trazado 837374" d="M381.048,63.705h-7.968a.5.5,0,0,1-.509-.509v-.346a.5.5,0,0,1,.509-.509h7.968a.5.5,0,0,1,.509.509V63.2A.511.511,0,0,1,381.048,63.705Z" transform="translate(-372.57 -50)" fill="#2f3978"/>
          <path id="Trazado_837375" data-name="Trazado 837375" d="M381.048,66.135h-7.968a.5.5,0,0,1-.509-.509v-.346a.5.5,0,0,1,.509-.509h7.968a.5.5,0,0,1,.509.509v.346A.518.518,0,0,1,381.048,66.135Z" transform="translate(-372.57 -49.954)" fill="#2f3978"/>
        </g>
        <g id="Grupo_1095417" data-name="Grupo 1095417" transform="translate(24.425)">
          <path id="Trazado_837376" data-name="Trazado 837376" d="M357.875,51.6H338.259a.5.5,0,0,1-.509-.509v-.346a.5.5,0,0,1,.509-.509h19.615a.5.5,0,0,1,.509.509v.346A.511.511,0,0,1,357.875,51.6Z" transform="translate(-337.75 -50.23)" fill="#2f3978"/>
          <path id="Trazado_837377" data-name="Trazado 837377" d="M357.875,54.015H338.259a.5.5,0,0,1-.509-.509v-.346a.5.5,0,0,1,.509-.509h19.615a.5.5,0,0,1,.509.509v.346A.511.511,0,0,1,357.875,54.015Z" transform="translate(-337.75 -50.184)" fill="#2f3978"/>
          <path id="Trazado_837378" data-name="Trazado 837378" d="M357.875,56.445H338.259a.5.5,0,0,1-.509-.509v-.346a.5.5,0,0,1,.509-.509h19.615a.5.5,0,0,1,.509.509v.346A.518.518,0,0,1,357.875,56.445Z" transform="translate(-337.75 -50.138)" fill="#2f3978"/>
          <path id="Trazado_837379" data-name="Trazado 837379" d="M357.875,58.865H338.259a.5.5,0,0,1-.509-.509v-.346a.5.5,0,0,1,.509-.509h19.615a.5.5,0,0,1,.509.509v.346A.518.518,0,0,1,357.875,58.865Z" transform="translate(-337.75 -50.092)" fill="#2f3978"/>
          <path id="Trazado_837380" data-name="Trazado 837380" d="M357.875,61.285H338.259a.5.5,0,0,1-.509-.509v-.346a.5.5,0,0,1,.509-.509h19.615a.5.5,0,0,1,.509.509v.346A.511.511,0,0,1,357.875,61.285Z" transform="translate(-337.75 -50.046)" fill="#2f3978"/>
          <path id="Trazado_837381" data-name="Trazado 837381" d="M357.875,63.705H338.259a.5.5,0,0,1-.509-.509v-.346a.5.5,0,0,1,.509-.509h19.615a.5.5,0,0,1,.509.509V63.2A.511.511,0,0,1,357.875,63.705Z" transform="translate(-337.75 -50)" fill="#2f3978"/>
          <path id="Trazado_837382" data-name="Trazado 837382" d="M357.875,66.135H338.259a.5.5,0,0,1-.509-.509v-.346a.5.5,0,0,1,.509-.509h19.615a.5.5,0,0,1,.509.509v.346A.518.518,0,0,1,357.875,66.135Z" transform="translate(-337.75 -49.954)" fill="#2f3978"/>
        </g>
        <path id="Trazado_837383" data-name="Trazado 837383" d="M322.319,57.443h-6.246a2.3,2.3,0,0,1-2.293-2.293V52.613a2.3,2.3,0,0,1,2.293-2.293h6.246a2.3,2.3,0,0,1,2.293,2.293V55.15A2.29,2.29,0,0,1,322.319,57.443Z" transform="translate(-313.78 -50.228)" fill="#d1bbff"/>
        <path id="Trazado_837384" data-name="Trazado 837384" d="M322.319,66.4h-6.246a2.3,2.3,0,0,1-2.293-2.293V61.573a2.3,2.3,0,0,1,2.293-2.293h6.246a2.3,2.3,0,0,1,2.293,2.293V64.11A2.29,2.29,0,0,1,322.319,66.4Z" transform="translate(-313.78 -50.058)" fill="#d1bbff"/>
        <g id="Grupo_1095418" data-name="Grupo 1095418" transform="translate(12.238)">
          <path id="Trazado_837385" data-name="Trazado 837385" d="M334.268,51.6H326.3a.5.5,0,0,1-.509-.509v-.346a.5.5,0,0,1,.509-.509h7.968a.5.5,0,0,1,.509.509v.346A.511.511,0,0,1,334.268,51.6Z" transform="translate(-325.79 -50.23)" fill="#2f3978"/>
          <path id="Trazado_837386" data-name="Trazado 837386" d="M334.268,54.015H326.3a.5.5,0,0,1-.509-.509v-.346a.5.5,0,0,1,.509-.509h7.968a.5.5,0,0,1,.509.509v.346A.511.511,0,0,1,334.268,54.015Z" transform="translate(-325.79 -50.184)" fill="#2f3978"/>
          <path id="Trazado_837387" data-name="Trazado 837387" d="M334.268,56.445H326.3a.5.5,0,0,1-.509-.509v-.346a.5.5,0,0,1,.509-.509h7.968a.5.5,0,0,1,.509.509v.346A.518.518,0,0,1,334.268,56.445Z" transform="translate(-325.79 -50.138)" fill="#2f3978"/>
          <path id="Trazado_837388" data-name="Trazado 837388" d="M334.268,58.865H326.3a.5.5,0,0,1-.509-.509v-.346a.5.5,0,0,1,.509-.509h7.968a.5.5,0,0,1,.509.509v.346A.518.518,0,0,1,334.268,58.865Z" transform="translate(-325.79 -50.092)" fill="#2f3978"/>
          <path id="Trazado_837389" data-name="Trazado 837389" d="M334.268,61.285H326.3a.5.5,0,0,1-.509-.509v-.346a.5.5,0,0,1,.509-.509h7.968a.5.5,0,0,1,.509.509v.346A.511.511,0,0,1,334.268,61.285Z" transform="translate(-325.79 -50.046)" fill="#2f3978"/>
          <path id="Trazado_837390" data-name="Trazado 837390" d="M334.268,63.705H326.3a.5.5,0,0,1-.509-.509v-.346a.5.5,0,0,1,.509-.509h7.968a.5.5,0,0,1,.509.509V63.2A.511.511,0,0,1,334.268,63.705Z" transform="translate(-325.79 -50)" fill="#2f3978"/>
          <path id="Trazado_837391" data-name="Trazado 837391" d="M334.268,66.135H326.3a.5.5,0,0,1-.509-.509v-.346a.5.5,0,0,1,.509-.509h7.968a.5.5,0,0,1,.509.509v.346A.518.518,0,0,1,334.268,66.135Z" transform="translate(-325.79 -49.954)" fill="#2f3978"/>
        </g>
      </g>
    </g>
    <g id="Grupo_1095421" data-name="Grupo 1095421" transform="translate(216.767 15.274)">
      <path id="Trazado_837392" data-name="Trazado 837392" d="M275.316,60H224.56a11.833,11.833,0,0,1-11.83-11.83V26.82a11.833,11.833,0,0,1,11.83-11.83h50.755a11.833,11.833,0,0,1,11.83,11.83V48.168A11.833,11.833,0,0,1,275.316,60Z" transform="translate(-212.73 -14.99)" fill="#005afd"/>
      <path id="Trazado_837393" data-name="Trazado 837393" d="M273.513,56.383H226.182A8.682,8.682,0,0,1,217.5,47.7V27.852a8.682,8.682,0,0,1,8.682-8.682h47.332a8.682,8.682,0,0,1,8.682,8.682V47.7A8.682,8.682,0,0,1,273.513,56.383Z" transform="translate(-212.639 -14.911)" fill="#fff"/>
      <path id="Trazado_837394" data-name="Trazado 837394" d="M274.215,29.426H251.461a2.209,2.209,0,0,1-2.211-2.211V25.4a2.209,2.209,0,0,1,2.211-2.211h22.754a2.209,2.209,0,0,1,2.211,2.211v1.814A2.209,2.209,0,0,1,274.215,29.426Z" transform="translate(-212.037 -14.834)" fill="#005afd"/>
      <path id="Trazado_837395" data-name="Trazado 837395" d="M260.836,52.131h-9.283a2.3,2.3,0,0,1-2.293-2.293V39.893a2.3,2.3,0,0,1,2.293-2.293h9.283a2.3,2.3,0,0,1,2.293,2.293v9.945A2.3,2.3,0,0,1,260.836,52.131Z" transform="translate(-212.037 -14.561)" fill="#00c4ff"/>
      <path id="Trazado_837396" data-name="Trazado 837396" d="M275.509,34.6H250.167a.913.913,0,0,1-.917-.917v-.611a.913.913,0,0,1,.917-.917h25.342a.913.913,0,0,1,.917.917v.611A.92.92,0,0,1,275.509,34.6Z" transform="translate(-212.037 -14.664)" fill="#2f3978"/>
      <path id="Trazado_837397" data-name="Trazado 837397" d="M275.676,38.763H265.089a.457.457,0,0,1-.459-.459V38a.457.457,0,0,1,.459-.459h10.587a.457.457,0,0,1,.459.459V38.3A.457.457,0,0,1,275.676,38.763Z" transform="translate(-211.745 -14.562)" fill="#2f3978"/>
      <path id="Trazado_837398" data-name="Trazado 837398" d="M275.676,40.953H265.089a.457.457,0,0,1-.459-.459v-.306a.457.457,0,0,1,.459-.459h10.587a.457.457,0,0,1,.459.459v.306A.457.457,0,0,1,275.676,40.953Z" transform="translate(-211.745 -14.52)" fill="#2f3978"/>
      <path id="Trazado_837399" data-name="Trazado 837399" d="M246.2,39.253h-9.66a.457.457,0,0,1-.459-.459v-.306a.457.457,0,0,1,.459-.459h9.66a.457.457,0,0,1,.459.459v.306A.457.457,0,0,1,246.2,39.253Z" transform="translate(-212.287 -14.553)" fill="#2f3978"/>
      <path id="Trazado_837400" data-name="Trazado 837400" d="M246.2,41.443h-9.66a.457.457,0,0,1-.459-.459v-.306a.457.457,0,0,1,.459-.459h9.66a.457.457,0,0,1,.459.459v.306A.457.457,0,0,1,246.2,41.443Z" transform="translate(-212.287 -14.511)" fill="#2f3978"/>
      <path id="Trazado_837401" data-name="Trazado 837401" d="M246.2,43.7h-9.66a.457.457,0,0,1-.459-.459v-.306a.457.457,0,0,1,.459-.459h9.66a.457.457,0,0,1,.459.459v.306A.457.457,0,0,1,246.2,43.7Z" transform="translate(-212.287 -14.468)" fill="#2f3978"/>
      <path id="Trazado_837402" data-name="Trazado 837402" d="M246.2,45.893h-9.66a.457.457,0,0,1-.459-.459v-.306a.457.457,0,0,1,.459-.459h9.66a.457.457,0,0,1,.459.459v.306A.457.457,0,0,1,246.2,45.893Z" transform="translate(-212.287 -14.427)" fill="#2f3978"/>
      <path id="Trazado_837403" data-name="Trazado 837403" d="M275.676,43.143H265.089a.457.457,0,0,1-.459-.459v-.306a.457.457,0,0,1,.459-.459h10.587a.457.457,0,0,1,.459.459v.306A.457.457,0,0,1,275.676,43.143Z" transform="translate(-211.745 -14.479)" fill="#2f3978"/>
      <path id="Trazado_837404" data-name="Trazado 837404" d="M275.676,45.343H265.089a.457.457,0,0,1-.459-.459v-.306a.457.457,0,0,1,.459-.459h10.587a.457.457,0,0,1,.459.459v.306A.463.463,0,0,1,275.676,45.343Z" transform="translate(-211.745 -14.437)" fill="#2f3978"/>
      <path id="Trazado_837405" data-name="Trazado 837405" d="M275.676,47.533H265.089a.457.457,0,0,1-.459-.459v-.306a.457.457,0,0,1,.459-.459h10.587a.457.457,0,0,1,.459.459v.306A.457.457,0,0,1,275.676,47.533Z" transform="translate(-211.745 -14.396)" fill="#2f3978"/>
      <path id="Trazado_837406" data-name="Trazado 837406" d="M275.676,49.723H265.089a.457.457,0,0,1-.459-.459v-.306a.457.457,0,0,1,.459-.459h10.587a.457.457,0,0,1,.459.459v.306A.457.457,0,0,1,275.676,49.723Z" transform="translate(-211.745 -14.354)" fill="#2f3978"/>
      <path id="Trazado_837407" data-name="Trazado 837407" d="M275.676,51.923H265.089a.457.457,0,0,1-.459-.459v-.306a.457.457,0,0,1,.459-.459h10.587a.457.457,0,0,1,.459.459v.306A.463.463,0,0,1,275.676,51.923Z" transform="translate(-211.745 -14.312)" fill="#2f3978"/>
      <path id="Trazado_837408" data-name="Trazado 837408" d="M244.818,29.426H223.98a2.161,2.161,0,0,1-2.16-2.16v-1.9a2.161,2.161,0,0,1,2.16-2.16h20.838a2.161,2.161,0,0,1,2.16,2.16v1.9A2.148,2.148,0,0,1,244.818,29.426Z" transform="translate(-212.557 -14.834)" fill="#a6c5fe"/>
      <path id="Trazado_837409" data-name="Trazado 837409" d="M244.885,37.031h-7.021A1.833,1.833,0,0,1,236.03,35.2V33.974a1.833,1.833,0,0,1,1.834-1.834h7.021a1.833,1.833,0,0,1,1.834,1.834V35.2A1.833,1.833,0,0,1,244.885,37.031Z" transform="translate(-212.288 -14.665)" fill="#d1bbff"/>
      <path id="Trazado_837410" data-name="Trazado 837410" d="M231,41.484h-6.695a2,2,0,0,1-2-2v-5.35a2,2,0,0,1,2-2H231a2,2,0,0,1,2,2v5.35A1.994,1.994,0,0,1,231,41.484Z" transform="translate(-212.548 -14.665)" fill="#d1bbff"/>
      <path id="Trazado_837411" data-name="Trazado 837411" d="M231,52.324h-6.695a2,2,0,0,1-2-2v-5.35a2,2,0,0,1,2-2H231a2,2,0,0,1,2,2v5.35A2,2,0,0,1,231,52.324Z" transform="translate(-212.548 -14.459)" fill="#d1bbff"/>
      <path id="Trazado_837412" data-name="Trazado 837412" d="M244.885,52.041h-7.021a1.833,1.833,0,0,1-1.834-1.834V48.984a1.833,1.833,0,0,1,1.834-1.834h7.021a1.833,1.833,0,0,1,1.834,1.834v1.223A1.833,1.833,0,0,1,244.885,52.041Z" transform="translate(-212.288 -14.38)" fill="#005afd"/>
    </g>
    <g id="Grupo_1095422" data-name="Grupo 1095422" transform="translate(98.882 10.862)">
      <path id="Trazado_837413" data-name="Trazado 837413" d="M109.869,16.825c.031,4.748-4.015,15.224-6.185,15.224-2.109,0-6.674-10.913-6.644-15.224a6.42,6.42,0,0,1,12.829,0Z" transform="translate(-97.04 -10.66)" fill="#ff2c60"/>
      <ellipse id="Elipse_11115" data-name="Elipse 11115" cx="3.943" cy="3.791" rx="3.943" ry="3.791" transform="translate(2.466 3.026)" fill="#fff"/>
    </g>
    <g id="Grupo_1095423" data-name="Grupo 1095423" transform="translate(65.704 6.613)">
      <circle id="Elipse_11116" data-name="Elipse 11116" cx="6.114" cy="6.114" r="6.114" fill="#2f3978"/>
      <circle id="Elipse_11117" data-name="Elipse 11117" cx="4.239" cy="4.239" r="4.239" transform="translate(1.875 1.875)" fill="#fff"/>
      <rect id="Rect치ngulo_387475" data-name="Rect치ngulo 387475" width="2.537" height="8.977" transform="translate(4.85 11.433)" fill="#2f3978"/>
      <path id="Trazado_837414" data-name="Trazado 837414" d="M70.659,33.466h-.275a1.811,1.811,0,0,1-1.814-1.814V22.624a1.811,1.811,0,0,1,1.814-1.814h.275a1.811,1.811,0,0,1,1.814,1.814v9.028A1.818,1.818,0,0,1,70.659,33.466Z" transform="translate(-64.402 -6.218)" fill="#00c4ff"/>
      <path id="Trazado_837415" data-name="Trazado 837415" d="M71.117,33.264H69.925a1.355,1.355,0,0,1-1.355-1.355v-.122a.339.339,0,0,1,.336-.336h3.24a.339.339,0,0,1,.336.336v.122A1.377,1.377,0,0,1,71.117,33.264Z" transform="translate(-64.402 -6.016)" fill="#2f3978"/>
      <path id="Trazado_837416" data-name="Trazado 837416" d="M72.157,22.564H68.886a.317.317,0,0,1-.316-.316v-.122a1.376,1.376,0,0,1,1.376-1.376h1.162a1.376,1.376,0,0,1,1.376,1.376v.122A.333.333,0,0,1,72.157,22.564Z" transform="translate(-64.402 -6.219)" fill="#2f3978"/>
    </g>
    <g id="Grupo_1095424" data-name="Grupo 1095424" transform="translate(107.163 31.415)">
      <path id="Trazado_837417" data-name="Trazado 837417" d="M211.9,71.131a9.679,9.679,0,0,1-9.1,6.216c-18.27.122-73-.01-86.868-.3a6.561,6.561,0,0,1-5.054-2.507h0c-4.157-5.5-9.028-14.531-2.588-20.339,2.772-2.507,6.939-2.894,10.445-1.722a13.658,13.658,0,0,1,4.565,2.639,24.416,24.416,0,0,1-.2-12.146,16.389,16.389,0,0,1,7.276-9.986,13.417,13.417,0,0,1,4.157-1.539,17.6,17.6,0,0,1,11.382.744c6.287,2.558,9.8,8.264,10.76,14.429a14.207,14.207,0,0,1,3.852-5.492,14.665,14.665,0,0,1,11.83-3.088,13.093,13.093,0,0,1,9.456,6.97,13.42,13.42,0,0,1,1.488,5.9v.02c.194-.234.387-.459.571-.652a16.052,16.052,0,0,1,5.37-3.8c7.856-3.485,16.783.01,21.246,6.817C213.977,58.6,214.028,65.261,211.9,71.131Z" transform="translate(-105.167 -30.83)" fill="#00c4ff"/>
      <path id="Trazado_837418" data-name="Trazado 837418" d="M268.576,78.648c-1.763,3.893-8.641,3.882-12.289,3.821-5.615-.092-46.221.774-49.91-.754-5.686-3.128-9.7-12.156-4.27-16.783a9.776,9.776,0,0,1,9.334-1.559,11.2,11.2,0,0,1,5.869,4.861c-.061-4.453.316-9.089,2.823-12.9a14.136,14.136,0,0,1,11.8-6.083,13.511,13.511,0,0,1,13.451,15.081,14.3,14.3,0,0,1,17.3-3.118A13.291,13.291,0,0,1,268.576,78.648Z" transform="translate(-103.376 -30.48)" fill="#7c3eff"/>
    </g>
    <g id="Grupo_1095426" data-name="Grupo 1095426" transform="translate(82.7 53.496)">
      <ellipse id="Elipse_11118" data-name="Elipse 11118" cx="17.414" cy="4.881" rx="17.414" ry="4.881" transform="translate(0.01 39.536)" fill="#005afd"/>
      <rect id="Rect치ngulo_387476" data-name="Rect치ngulo 387476" width="34.859" height="39.761" transform="translate(0.01 4.881)" fill="#005afd"/>
      <ellipse id="Elipse_11119" data-name="Elipse 11119" cx="17.414" cy="4.881" rx="17.414" ry="4.881" transform="translate(0.01)" fill="#fff"/>
      <path id="Trazado_837419" data-name="Trazado 837419" d="M98.516,60.684c-5.105,0-13.756-.7-13.756-3.332S93.4,54.02,98.516,54.02s13.756.7,13.756,3.332S103.621,60.684,98.516,60.684ZM86.227,57.352c.428.713,4.779,1.936,12.289,1.936s11.861-1.223,12.289-1.936c-.428-.713-4.779-1.936-12.289-1.936S86.655,56.639,86.227,57.352Zm24.588.041Z" transform="translate(-81.092 -52.471)" fill="#2f3978"/>
      <g id="Grupo_1095425" data-name="Grupo 1095425" transform="translate(0 18.943)">
        <path id="Trazado_837420" data-name="Trazado 837420" d="M81.17,73.862c2.945,2.221,10.312,3.4,17.333,3.4,7.184,0,14.734-1.233,17.526-3.556V71.09a.7.7,0,0,0-.367.6c0,1.753-6.532,4.188-17.17,4.188s-17.17-2.435-17.17-4.188a.638.638,0,0,0-.163-.428v2.6Z" transform="translate(-81.16 -71.09)" fill="#fff"/>
        <path id="Trazado_837421" data-name="Trazado 837421" d="M116.029,87.009V84.4a.7.7,0,0,0-.367.6c0,1.753-6.532,4.188-17.17,4.188S81.323,86.754,81.323,85a.638.638,0,0,0-.163-.428v2.609c2.945,2.221,10.312,3.4,17.333,3.4C105.687,90.575,113.237,89.342,116.029,87.009Z" transform="translate(-81.16 -70.837)" fill="#fff"/>
      </g>
      <path id="Trazado_837422" data-name="Trazado 837422" d="M87.16,68.614a1.336,1.336,0,1,1-1.335-1.284A1.316,1.316,0,0,1,87.16,68.614Z" transform="translate(-81.097 -52.219)" fill="#aaabe8"/>
      <ellipse id="Elipse_11120" data-name="Elipse 11120" cx="1.335" cy="1.284" rx="1.335" ry="1.284" transform="translate(7.306 16.375)" fill="#aaabe8"/>
      <path id="Trazado_837423" data-name="Trazado 837423" d="M95.27,70.264a1.336,1.336,0,1,1-1.335-1.284A1.316,1.316,0,0,1,95.27,70.264Z" transform="translate(-80.943 -52.187)" fill="#aaabe8"/>
    </g>
    <g id="Grupo_1095428" data-name="Grupo 1095428" transform="translate(144.481 70.758)">
      <g id="Grupo_1095427" data-name="Grupo 1095427">
        <path id="Trazado_837424" data-name="Trazado 837424" d="M172.655,84.918c.01-.214.02-.428.02-.642a13.053,13.053,0,0,0-.071-1.416l-3.026-.479a12.425,12.425,0,0,0-.336-1.508l2.507-1.671a14.375,14.375,0,0,0-.876-1.885l-2.945.662a12.936,12.936,0,0,0-.937-1.284l1.63-2.446a13.764,13.764,0,0,0-1.559-1.416L164.6,74.525a12.491,12.491,0,0,0-1.386-.836l.54-2.863a16.725,16.725,0,0,0-2-.744l-1.62,2.5a11.337,11.337,0,0,0-1.579-.234L157.9,69.45c-.224-.01-.448-.01-.673-.01a13.875,13.875,0,0,0-1.467.071l-.509,2.975a13.76,13.76,0,0,0-1.488.346l-1.814-2.5a16.6,16.6,0,0,0-1.956.836l.734,3.037a11.667,11.667,0,0,0-1.172.836l-2.761-1.7a15.764,15.764,0,0,0-1.478,1.5l1.956,2.619a10.543,10.543,0,0,0-.7,1.131l-3.332-.571a14.34,14.34,0,0,0-.774,1.926l2.945,1.753a9.716,9.716,0,0,0-.194,1.233l-3.4.713c-.01.214-.02.428-.02.642a13.049,13.049,0,0,0,.071,1.416l3.5.55a10.557,10.557,0,0,0,.285,1.151l-2.924,1.956a14.377,14.377,0,0,0,.876,1.885l3.5-.785a10.351,10.351,0,0,0,.7.948l-1.936,2.9a13.763,13.763,0,0,0,1.559,1.416l2.914-2.007c.326.224.673.428,1.019.622l-.632,3.383a16.724,16.724,0,0,0,2,.744l1.875-2.894a11.772,11.772,0,0,0,1.223.214l.754,3.312c.224.01.448.01.673.01a13.875,13.875,0,0,0,1.467-.071l.56-3.291a10.432,10.432,0,0,0,1.274-.255l1.967,2.721a16.6,16.6,0,0,0,1.956-.836l-.764-3.159a12.175,12.175,0,0,0,1.141-.744l2.812,1.732a15.761,15.761,0,0,0,1.478-1.5l-1.905-2.547a11.369,11.369,0,0,0,.8-1.172l3.179.55a14.337,14.337,0,0,0,.774-1.926l-2.68-1.6a11.509,11.509,0,0,0,.285-1.457Zm-15.417,7.887a8.536,8.536,0,1,1,8.875-8.529A8.709,8.709,0,0,1,157.238,92.805Z" transform="translate(-141.79 -69.44)" fill="#7c3eff"/>
        <path id="Trazado_837425" data-name="Trazado 837425" d="M157.119,93.061a8.9,8.9,0,1,1,9.089-8.9A9.006,9.006,0,0,1,157.119,93.061Zm0-17.149a8.255,8.255,0,1,0,8.417,8.254A8.34,8.34,0,0,0,157.119,75.912Z" transform="translate(-141.672 -69.329)" fill="#a6c5fe"/>
        <path id="Trazado_837426" data-name="Trazado 837426" d="M157.095,91.744a7.613,7.613,0,1,1,7.775-7.612A7.7,7.7,0,0,1,157.095,91.744Zm0-14.663a7.053,7.053,0,1,0,7.2,7.051A7.14,7.14,0,0,0,157.095,77.08Z" transform="translate(-141.647 -69.306)" fill="#2f3978"/>
        <path id="Trazado_837427" data-name="Trazado 837427" d="M157.106,92.345a8.195,8.195,0,1,1,8.376-8.193A8.3,8.3,0,0,1,157.106,92.345Zm0-15.794a7.6,7.6,0,1,0,7.754,7.6A7.688,7.688,0,0,0,157.106,76.551Z" transform="translate(-141.658 -69.316)" fill="#2f3978"/>
        <path id="Trazado_837428" data-name="Trazado 837428" d="M157.084,91.193a7.063,7.063,0,1,1,7.214-7.062A7.144,7.144,0,0,1,157.084,91.193Zm0-13.614a6.553,6.553,0,1,0,6.684,6.552A6.622,6.622,0,0,0,157.084,77.579Z" transform="translate(-141.637 -69.295)" fill="#00c4ff"/>
      </g>
      <path id="Trazado_837429" data-name="Trazado 837429" d="M188.922,89.525c0-.112.02-.224.02-.326a10.387,10.387,0,0,0-.092-1.264l-2.079-.408a7.871,7.871,0,0,0-.54-1.61l1.467-1.5a10.615,10.615,0,0,0-.907-1.335l-2.018.652a8.048,8.048,0,0,0-1.294-1.131l.489-2a11.645,11.645,0,0,0-1.467-.744L181.086,81.4a9.39,9.39,0,0,0-1.722-.367l-.611-1.956c-.112,0-.224-.02-.346-.02a9.392,9.392,0,0,0-1.314.092l-.418,2a8.687,8.687,0,0,0-1.681.52l-1.559-1.406a11.306,11.306,0,0,0-1.386.866l.683,1.946a8.506,8.506,0,0,0-1.182,1.243l-2.079-.469a9.451,9.451,0,0,0-.774,1.406l1.61,1.365a7.474,7.474,0,0,0-.377,1.651l-2.038.591c0,.112-.02.224-.02.326a10.387,10.387,0,0,0,.092,1.264l2.079.408a7.871,7.871,0,0,0,.54,1.61l-1.467,1.5a10.615,10.615,0,0,0,.907,1.335l2.018-.652a8.048,8.048,0,0,0,1.294,1.131l-.489,2a11.643,11.643,0,0,0,1.467.744l1.416-1.539a9.39,9.39,0,0,0,1.722.367l.611,1.956c.112,0,.224.02.346.02a9.391,9.391,0,0,0,1.314-.092l.418-2a8.688,8.688,0,0,0,1.681-.52l1.559,1.406a11.307,11.307,0,0,0,1.386-.866l-.673-1.956a8.506,8.506,0,0,0,1.182-1.243l2.079.469a9.451,9.451,0,0,0,.774-1.406l-1.61-1.365a7.474,7.474,0,0,0,.377-1.651Zm-10.506,4.983a5.323,5.323,0,1,1,5.533-5.319A5.43,5.43,0,0,1,178.416,94.508Z" transform="translate(-141.295 -69.257)" fill="#00c4ff"/>
    </g>
  </g>
</svg>
