<svg xmlns="http://www.w3.org/2000/svg" width="38.012" height="31.322" viewBox="0 0 38.012 31.322">
  <g id="i1" transform="translate(-7.248 -8.07)">
    <path id="Trazado_838475" data-name="Trazado 838475" d="M35.81,11.48A11.635,11.635,0,0,0,17.92,26.19l-2.18,2.18-.32-.32a.453.453,0,0,0-.63,0L7.51,35.33a.9.9,0,0,0,0,1.27l2.53,2.53a.9.9,0,0,0,1.27,0l7.28-7.28a.453.453,0,0,0,0-.63l-.32-.32,2.09-2.09A11.628,11.628,0,0,0,35.81,11.48ZM33.28,25.4a8.055,8.055,0,1,1,0-11.39A8,8,0,0,1,33.28,25.4Z" fill="#12263f"/>
    <path id="Trazado_838476" data-name="Trazado 838476" d="M29.16,19.61a1.118,1.118,0,0,0-1.12-1.12H22.67a1.12,1.12,0,1,0,0,2.24h5.37A1.138,1.138,0,0,0,29.16,19.61Zm12.3-2.36h2.68a1.12,1.12,0,0,0,0-2.24H41.46a1.12,1.12,0,0,0,0,2.24Zm-12.53,0h1.79a1.12,1.12,0,1,0,0-2.24H28.93a1.12,1.12,0,1,0,0,2.24Zm-3.58,4.92h-.89a1.12,1.12,0,0,0,0,2.24h.89a1.12,1.12,0,0,0,0-2.24Zm-.89-4.92h.89a1.12,1.12,0,1,0,0-2.24h-.89a1.12,1.12,0,1,0,0,2.24Zm19.68,4.92H41.46a1.12,1.12,0,0,0,0,2.24h2.68a1.12,1.12,0,0,0,0-2.24Zm0-3.68H42.35a1.12,1.12,0,0,0,0,2.24h1.79a1.12,1.12,0,0,0,0-2.24Zm-11.63,0h-.89a1.12,1.12,0,1,0,0,2.24h.89a1.12,1.12,0,0,0,0-2.24Zm-1.79,3.68H28.93a1.12,1.12,0,0,0,0,2.24h1.79a1.12,1.12,0,1,0,0-2.24Z" fill="#12263f"/>
  </g>
</svg>
