<svg xmlns="http://www.w3.org/2000/svg" width="40" height="33" viewBox="0 0 40 33">
  <g id="i3" transform="translate(-225 -823)">
    <g id="i3-2" data-name="i3" transform="translate(227.328 818.624)">
      <g id="Grupo_1096571" data-name="Grupo 1096571" transform="translate(9.12 6.53)">
        <g id="Grupo_1096570" data-name="Grupo 1096570">
          <g id="Grupo_1096569" data-name="Grupo 1096569">
            <path id="Trazado_838479" data-name="Trazado 838479" d="M27.14,22.27a2.29,2.29,0,0,0-1.762.544,1.909,1.909,0,0,0-1.486-1.356,2.243,2.243,0,0,0-1.681.487,2.1,2.1,0,0,0-1.567-1.3,2.27,2.27,0,0,0-1.9.715V16.228a1.656,1.656,0,0,0-1.1-1.608,1.628,1.628,0,0,0-2.152,1.543V29.157a1.629,1.629,0,0,1-1.624-1.624v-1.47a.561.561,0,0,0-.56-.56h-.487A2.194,2.194,0,0,0,10.63,27.7v4.012a2.447,2.447,0,0,0,.828,1.835l2.185,1.917a2.437,2.437,0,0,0,1.608.6h8.99a2.434,2.434,0,0,0,1.722-.715l1.819-1.819A2.448,2.448,0,0,0,28.5,31.8V23.968A1.7,1.7,0,0,0,27.14,22.27Z" transform="translate(-9.404 -8.034)" fill="#12263f"/>
            <path id="Trazado_838480" data-name="Trazado 838480" d="M9.932,16.275h2.436a.814.814,0,0,0,.812-.812V13.027a.814.814,0,0,0-.812-.812H9.932a.814.814,0,0,0-.812.812v2.436A.814.814,0,0,0,9.932,16.275ZM12.425,17.9H9.989a.814.814,0,0,0-.812.812v2.436a.814.814,0,0,0,.812.812h2.436a.814.814,0,0,0,.812-.812V18.711A.814.814,0,0,0,12.425,17.9ZM23.738,6.53H21.3a.814.814,0,0,0-.812.812V9.778a.814.814,0,0,0,.812.812h2.436a.814.814,0,0,0,.812-.812V7.342A.814.814,0,0,0,23.738,6.53ZM9.932,10.59h2.436a.814.814,0,0,0,.812-.812V7.342a.814.814,0,0,0-.812-.812H9.932a.814.814,0,0,0-.812.812V9.778A.814.814,0,0,0,9.932,10.59Zm8.121-4.06H15.617a.814.814,0,0,0-.812.812V9.778a.814.814,0,0,0,.812.812h2.436a.814.814,0,0,0,.812-.812V7.342A.814.814,0,0,0,18.053,6.53Zm5.685,5.685H21.3a.814.814,0,0,0-.812.812v2.436a.814.814,0,0,0,.812.812h2.436a.814.814,0,0,0,.812-.812V13.027A.814.814,0,0,0,23.738,12.215Z" transform="translate(-9.12 -6.53)" fill="#12263f"/>
          </g>
        </g>
      </g>
    </g>
    <path id="Trazado_838601" data-name="Trazado 838601" d="M0,0H40V33H0Z" transform="translate(225 823)" fill="none"/>
  </g>
</svg>
