<svg xmlns="http://www.w3.org/2000/svg" width="40" height="33" viewBox="0 0 40 33">
  <g id="i4" transform="translate(-225 -880)">
    <g id="i4-2" data-name="i4" transform="translate(226.615 878.918)">
      <g id="Grupo_1096573" data-name="Grupo 1096573" transform="translate(4.17 4.89)">
        <path id="Trazado_838481" data-name="Trazado 838481" d="M29.1,4.89H5.778A1.613,1.613,0,0,0,4.17,6.5v4.824a1.613,1.613,0,0,0,1.608,1.608H29.1A1.613,1.613,0,0,0,30.7,11.322V6.5A1.613,1.613,0,0,0,29.1,4.89Zm-20.1,5.628A1.608,1.608,0,1,1,10.6,8.91,1.613,1.613,0,0,1,8.994,10.518Zm5.628,0A1.608,1.608,0,1,1,16.231,8.91,1.613,1.613,0,0,1,14.623,10.518Zm12.463-.6H20.653a1.005,1.005,0,1,1,0-2.01h6.432a1.005,1.005,0,1,1,0,2.01ZM4.17,16.951v4.824a1.613,1.613,0,0,0,1.608,1.608h13.09a18.1,18.1,0,0,1-.571-3.876,2.771,2.771,0,0,1,2.452-2.87,8.022,8.022,0,0,0,3.136-1.295H5.778A1.608,1.608,0,0,0,4.17,16.951Zm10.453.8a1.608,1.608,0,1,1-1.608,1.608A1.613,1.613,0,0,1,14.623,17.755Zm-5.628,0a1.608,1.608,0,1,1-1.608,1.608A1.613,1.613,0,0,1,8.994,17.755Z" transform="translate(-4.17 -4.89)" fill="#12263f"/>
        <path id="Trazado_838482" data-name="Trazado 838482" d="M18.908,28.344H7.876a1.206,1.206,0,1,0,0,2.412H18.908a1.206,1.206,0,1,0,0-2.412ZM34.474,21.18c-2.533-.314-4.977-2.211-6-3.1a.758.758,0,0,0-1,0c-1.021.884-3.465,2.782-6,3.1a.779.779,0,0,0-.691.8,13.954,13.954,0,0,0,6.81,11.9.773.773,0,0,0,.748,0,13.954,13.954,0,0,0,6.81-11.9A.773.773,0,0,0,34.474,21.18Zm-7.1,7.767-3.216-3.216,1.6-1.6,1.608,1.608,2.814-2.814,1.608,1.608Z" transform="translate(-4.66 -7.439)" fill="#12263f"/>
      </g>
    </g>
    <path id="Trazado_838602" data-name="Trazado 838602" d="M0,0H40V33H0Z" transform="translate(225 880)" fill="none"/>
  </g>
</svg>
