<svg xmlns="http://www.w3.org/2000/svg" width="40" height="33" viewBox="0 0 40 33">
  <g id="i7" transform="translate(-544 -830)">
    <g id="i7-2" data-name="i7" transform="translate(539.827 821.789)">
      <g id="Grupo_1096580" data-name="Grupo 1096580" transform="translate(10.86 10.93)">
        <g id="Grupo_1096579" data-name="Grupo 1096579">
          <path id="Trazado_838487" data-name="Trazado 838487" d="M35.645,43.63H14.794a1.094,1.094,0,0,0,0,2.188H35.645a1.094,1.094,0,0,0,0-2.188Z" transform="translate(-11.496 -18.255)" fill="#12263f"/>
          <path id="Trazado_838488" data-name="Trazado 838488" d="M35.009,10.93H13.793A1.465,1.465,0,0,0,12.327,12.4v1.5a1.831,1.831,0,0,0-1.467,1.793v3.655a1.831,1.831,0,0,0,1.467,1.793v3.733A1.831,1.831,0,0,0,10.86,26.66v2.926a1.831,1.831,0,0,0,1.467,1.793v1.5a1.465,1.465,0,0,0,1.467,1.467H35.009a1.465,1.465,0,0,0,1.467-1.467V12.389A1.464,1.464,0,0,0,35.009,10.93ZM18.364,22.8V26.66a.916.916,0,0,1-1.831,0V22.8a2.2,2.2,0,1,1,1.831,0Zm14.814.753h-1.2a3.842,3.842,0,0,1-.5,1.2l.854.854a.914.914,0,1,1-1.288,1.3l-.854-.854a4.12,4.12,0,0,1-1.2.5v1.2a.916.916,0,0,1-1.831,0v-1.2a3.842,3.842,0,0,1-1.2-.5l-.854.854A.914.914,0,1,1,23.8,25.6l.854-.854a4.341,4.341,0,0,1-.5-1.2h-1.2a.916.916,0,0,1,0-1.831h1.2a4.018,4.018,0,0,1,.5-1.2L23.8,19.66a.916.916,0,1,1,1.3-1.3l.854.854a4.12,4.12,0,0,1,1.2-.5v-1.2a.916.916,0,1,1,1.831,0v1.2a3.842,3.842,0,0,1,1.2.5l.854-.854a.916.916,0,0,1,1.3,1.3l-.854.854a4.342,4.342,0,0,1,.5,1.2h1.2a.916.916,0,1,1-.008,1.831Zm-5.114-2.739A1.831,1.831,0,1,0,29.9,22.64,1.83,1.83,0,0,0,28.064,20.809Z" transform="translate(-10.86 -10.93)" fill="#12263f"/>
        </g>
      </g>
    </g>
    <path id="Trazado_838605" data-name="Trazado 838605" d="M0,0H40V33H0Z" transform="translate(544 830)" fill="none"/>
  </g>
</svg>
