<svg xmlns="http://www.w3.org/2000/svg" width="80.78" height="80.78" viewBox="0 0 80.78 80.78">
  <g id="n3" transform="translate(2810.89 9680.341)">
    <path id="Trazado_832002" data-name="Trazado 832002" d="M187.89,80.049a40.39,40.39,0,1,1-40.39-40.39,40.39,40.39,0,0,1,40.39,40.39" transform="translate(-2918 -9720)" fill="#1e5af9"/>
    <path id="Trazado_838593" data-name="Trazado 838593" d="M9.994-21.876h4q4.758,0,4.758-4.657a4.027,4.027,0,0,0-1.133-2.958,4.3,4.3,0,0,0-3.2-1.145,4.6,4.6,0,0,0-2.933.982,3,3,0,0,0-1.246,2.442H1.762a8.684,8.684,0,0,1,1.611-5.161,10.64,10.64,0,0,1,4.468-3.537,15.277,15.277,0,0,1,6.281-1.271q6.117,0,9.616,2.794a9.289,9.289,0,0,1,3.5,7.678,7.742,7.742,0,0,1-1.448,4.468,10.317,10.317,0,0,1-4.217,3.411,9.854,9.854,0,0,1,4.582,3.21A8.453,8.453,0,0,1,27.817-10.3a9.458,9.458,0,0,1-3.776,7.854Q20.265.5,14.123.5A16.255,16.255,0,0,1,7.439-.869a10.472,10.472,0,0,1-4.67-3.8A9.883,9.883,0,0,1,1.183-10.2H9.717a3.82,3.82,0,0,0,1.359,2.92,4.8,4.8,0,0,0,3.348,1.234A5.027,5.027,0,0,0,18-7.288a4.165,4.165,0,0,0,1.334-3.185q0-2.769-1.385-3.927a5.788,5.788,0,0,0-3.826-1.158H9.994Z" transform="translate(-2785.428 -9621.828)" fill="#fff"/>
  </g>
</svg>
