<svg xmlns="http://www.w3.org/2000/svg" width="80.78" height="80.78" viewBox="0 0 80.78 80.78">
  <g id="n5" transform="translate(2180.89 9680.341)">
    <path id="Trazado_832002" data-name="Trazado 832002" d="M187.89,80.049a40.39,40.39,0,1,1-40.39-40.39,40.39,40.39,0,0,1,40.39,40.39" transform="translate(-2288 -9720)" fill="#1e5af9"/>
    <path id="Trazado_838595" data-name="Trazado 838595" d="M2.744-17.9l2.24-18.749H26.407v6.6H11.882l-.831,7.281a10.006,10.006,0,0,1,2.379-.936,10.854,10.854,0,0,1,2.882-.4q5.463,0,8.4,3.235t2.933,9.075a13.007,13.007,0,0,1-1.573,6.382A10.814,10.814,0,0,1,21.65-1.032,13.948,13.948,0,0,1,14.928.5,15.008,15.008,0,0,1,8.458-.918a11.607,11.607,0,0,1-4.733-3.9,9.473,9.473,0,0,1-1.687-5.6h8.509a4.812,4.812,0,0,0,1.284,3.19,4.075,4.075,0,0,0,3.046,1.181q4.28,0,4.28-6.331,0-5.853-5.236-5.853a5.225,5.225,0,0,0-4.431,1.909Z" transform="translate(-2155.428 -9621.828)" fill="#fff"/>
  </g>
</svg>
