<svg xmlns="http://www.w3.org/2000/svg" width="80.78" height="80.78" viewBox="0 0 80.78 80.78">
  <g id="n8" transform="translate(1227.89 9680.341)">
    <path id="Trazado_832002" data-name="Trazado 832002" d="M187.89,80.049a40.39,40.39,0,1,1-40.39-40.39,40.39,40.39,0,0,1,40.39,40.39" transform="translate(-1335 -9720)" fill="#1e5af9"/>
    <path id="Trazado_838598" data-name="Trazado 838598" d="M26.961-26.861a8.462,8.462,0,0,1-1.322,4.708A9.626,9.626,0,0,1,22-18.88a10.593,10.593,0,0,1,4.154,3.512,9.062,9.062,0,0,1,1.536,5.274,9.592,9.592,0,0,1-3.386,7.754Q20.92.5,14.979.5,9.012.5,5.563-2.354a9.525,9.525,0,0,1-3.449-7.741,9.176,9.176,0,0,1,1.51-5.211A10.271,10.271,0,0,1,7.9-18.88a9.68,9.68,0,0,1-3.675-3.273A8.4,8.4,0,0,1,2.9-26.861a9.4,9.4,0,0,1,3.247-7.552Q9.39-37.182,14.9-37.182q5.563,0,8.811,2.769A9.4,9.4,0,0,1,26.961-26.861ZM19.183-10.774a4.839,4.839,0,0,0-1.171-3.487,4.076,4.076,0,0,0-3.084-1.221,4.117,4.117,0,0,0-3.1,1.221,4.807,4.807,0,0,0-1.183,3.487,4.849,4.849,0,0,0,1.2,3.461,4.1,4.1,0,0,0,3.134,1.271A3.944,3.944,0,0,0,18.025-7.3,4.936,4.936,0,0,0,19.183-10.774ZM14.9-30.637a3.135,3.135,0,0,0-2.606,1.12,4.862,4.862,0,0,0-.894,3.109,5.153,5.153,0,0,0,.906,3.172,3.127,3.127,0,0,0,2.668,1.208,3,3,0,0,0,2.606-1.208,5.315,5.315,0,0,0,.869-3.172,4.872,4.872,0,0,0-.894-3.1A3.177,3.177,0,0,0,14.9-30.637Z" transform="translate(-1202.428 -9621.828)" fill="#fff"/>
  </g>
</svg>
